M48
;DRILL file {KiCad 5.0.2-bee76a0~70~ubuntu18.10.1} date Mon 27 May 2019 17:13:08 AEST
;FORMAT={-:-/ absolute / inch / decimal}
FMAT,2
INCH,TZ
T1C0.0157
T2C0.0394
%
G90
G05
T1
X1.7646Y-2.7354
X1.8161Y-2.322
X1.8217Y-2.7232
X1.8383Y-2.4072
X1.8709Y-2.4303
X1.9014Y-2.5407
X1.9361Y-2.5763
X1.9906Y-2.4917
X2.0394Y-1.8898
X2.0433Y-1.848
X2.0433Y-2.4142
X2.0902Y-2.589
X2.1016Y-2.1929
X2.1894Y-1.8469
X2.2142Y-2.065
X2.2146Y-1.7138
X2.2224Y-1.8748
X2.237Y-2.6654
X2.2465Y-2.8677
X2.2807Y-2.6437
X2.3394Y-2.6772
X2.3406Y-2.8917
X2.3472Y-2.1012
X2.5047Y-2.0642
X2.5642Y-2.0496
X2.6087Y-1.8728
X2.6713Y-2.1437
X2.7004Y-2.6772
X2.7096Y-3.0481
X2.7378Y-1.8665
X2.7394Y-1.7717
X2.7406Y-1.7311
X2.742Y-1.8147
X3.0472Y-2.05
X3.0494Y-1.9994
X3.0535Y-1.9583
X3.0567Y-1.9071
X3.0591Y-2.5228
X3.0984Y-3.2343
X3.1323Y-2.5701
X3.1618Y-2.6673
X3.1634Y-2.8457
X3.165Y-3.0102
X3.1665Y-2.7516
X3.1665Y-2.7996
X3.2351Y-2.396
X3.2657Y-2.3713
X3.2972Y-2.6139
X3.3356Y-2.6051
X3.3429Y-2.3063
X3.3695Y-2.6251
X3.3953Y-2.6548
X3.4015Y-2.4424
X3.4116Y-2.4805
X3.4475Y-2.8645
X3.4496Y-2.822
X3.5071Y-2.4067
X3.5416Y-2.4936
X3.5421Y-2.5335
X3.5426Y-2.5739
X3.5476Y-2.613
X3.5476Y-2.6543
X3.5496Y-2.3189
X3.5634Y-2.2043
X3.5665Y-2.9837
X3.7614Y-2.8091
X3.7614Y-2.935
X3.765Y-2.8724
T2
X2.9957Y-2.1244
X2.9957Y-2.2244
X3.0957Y-2.1244
X3.0957Y-2.2244
X3.1957Y-2.1244
X3.1957Y-2.2244
X3.2957Y-2.1244
X3.2957Y-2.2244
X3.3957Y-2.1244
X3.3957Y-2.2244
X1.563Y-2.1205
X1.563Y-2.2205
X1.663Y-2.1205
X1.663Y-2.2205
X1.763Y-2.1205
X1.763Y-2.2205
X1.863Y-2.1205
X1.863Y-2.2205
X1.963Y-2.1205
X1.963Y-2.2205
X3.6984Y-2.3189
X3.6984Y-2.4189
X3.6984Y-2.5189
X3.6984Y-2.6189
X3.6984Y-2.7189
X3.7984Y-2.3189
X3.7984Y-2.4189
X3.7984Y-2.5189
X3.7984Y-2.6189
X3.7984Y-2.7189
X2.9213Y-2.6791
X2.9213Y-2.7791
X2.9213Y-2.8791
X2.9213Y-2.9791
X2.9213Y-3.0791
X3.0213Y-2.6791
X3.0213Y-2.7791
X3.0213Y-2.8791
X3.0213Y-2.9791
X3.0213Y-3.0791
X2.4315Y-1.5339
X2.4315Y-1.6339
X2.4315Y-1.7339
X2.4315Y-1.8339
X2.4315Y-1.9339
X2.5315Y-1.5339
X2.5315Y-1.6339
X2.5315Y-1.7339
X2.5315Y-1.8339
X2.5315Y-1.9339
X1.9272Y-2.6811
X1.9272Y-2.7811
X1.9272Y-2.8811
X1.9272Y-2.9811
X1.9272Y-3.0811
X2.0272Y-2.6811
X2.0272Y-2.7811
X2.0272Y-2.8811
X2.0272Y-2.9811
X2.0272Y-3.0811
T0
M30
