G04 #@! TF.GenerationSoftware,KiCad,Pcbnew,5.0.2-bee76a0~70~ubuntu18.10.1*
G04 #@! TF.CreationDate,2019-05-27T17:13:18+10:00*
G04 #@! TF.ProjectId,mult,6d756c74-2e6b-4696-9361-645f70636258,rev?*
G04 #@! TF.SameCoordinates,Original*
G04 #@! TF.FileFunction,Copper,L2,Bot*
G04 #@! TF.FilePolarity,Positive*
%FSLAX46Y46*%
G04 Gerber Fmt 4.6, Leading zero omitted, Abs format (unit mm)*
G04 Created by KiCad (PCBNEW 5.0.2-bee76a0~70~ubuntu18.10.1) date Mon 27 May 2019 17:13:18 AEST*
%MOMM*%
%LPD*%
G01*
G04 APERTURE LIST*
G04 #@! TA.AperFunction,ComponentPad*
%ADD10R,1.700000X1.700000*%
G04 #@! TD*
G04 #@! TA.AperFunction,ComponentPad*
%ADD11O,1.700000X1.700000*%
G04 #@! TD*
G04 #@! TA.AperFunction,ViaPad*
%ADD12C,0.800000*%
G04 #@! TD*
G04 #@! TA.AperFunction,Conductor*
%ADD13C,0.250000*%
G04 #@! TD*
G04 #@! TA.AperFunction,Conductor*
%ADD14C,0.254000*%
G04 #@! TD*
G04 APERTURE END LIST*
D10*
G04 #@! TO.P,J1,1*
G04 #@! TO.N,TXD*
X93940000Y-58900000D03*
D11*
G04 #@! TO.P,J1,2*
G04 #@! TO.N,RXD*
X96480000Y-58900000D03*
G04 #@! TO.P,J1,3*
G04 #@! TO.N,SCK*
X93940000Y-61440000D03*
G04 #@! TO.P,J1,4*
G04 #@! TO.N,MOSI*
X96480000Y-61440000D03*
G04 #@! TO.P,J1,5*
G04 #@! TO.N,RST*
X93940000Y-63980000D03*
G04 #@! TO.P,J1,6*
G04 #@! TO.N,MISO*
X96480000Y-63980000D03*
G04 #@! TO.P,J1,7*
G04 #@! TO.N,VCC*
X93940000Y-66520000D03*
G04 #@! TO.P,J1,8*
G04 #@! TO.N,SDA*
X96480000Y-66520000D03*
G04 #@! TO.P,J1,9*
G04 #@! TO.N,GND*
X93940000Y-69060000D03*
G04 #@! TO.P,J1,10*
G04 #@! TO.N,SCL*
X96480000Y-69060000D03*
G04 #@! TD*
D10*
G04 #@! TO.P,J2,1*
G04 #@! TO.N,TXD*
X39700000Y-56400000D03*
D11*
G04 #@! TO.P,J2,2*
G04 #@! TO.N,RXD*
X39700000Y-53860000D03*
G04 #@! TO.P,J2,3*
G04 #@! TO.N,SCK*
X42240000Y-56400000D03*
G04 #@! TO.P,J2,4*
G04 #@! TO.N,MOSI*
X42240000Y-53860000D03*
G04 #@! TO.P,J2,5*
G04 #@! TO.N,RST*
X44780000Y-56400000D03*
G04 #@! TO.P,J2,6*
G04 #@! TO.N,MISO*
X44780000Y-53860000D03*
G04 #@! TO.P,J2,7*
G04 #@! TO.N,VCC*
X47320000Y-56400000D03*
G04 #@! TO.P,J2,8*
G04 #@! TO.N,SDA*
X47320000Y-53860000D03*
G04 #@! TO.P,J2,9*
G04 #@! TO.N,GND*
X49860000Y-56400000D03*
G04 #@! TO.P,J2,10*
G04 #@! TO.N,SCL*
X49860000Y-53860000D03*
G04 #@! TD*
D10*
G04 #@! TO.P,J3,1*
G04 #@! TO.N,TXD*
X64300000Y-49120000D03*
D11*
G04 #@! TO.P,J3,2*
G04 #@! TO.N,RXD*
X61760000Y-49120000D03*
G04 #@! TO.P,J3,3*
G04 #@! TO.N,SCK*
X64300000Y-46580000D03*
G04 #@! TO.P,J3,4*
G04 #@! TO.N,MOSI*
X61760000Y-46580000D03*
G04 #@! TO.P,J3,5*
G04 #@! TO.N,RST*
X64300000Y-44040000D03*
G04 #@! TO.P,J3,6*
G04 #@! TO.N,MISO*
X61760000Y-44040000D03*
G04 #@! TO.P,J3,7*
G04 #@! TO.N,VCC*
X64300000Y-41500000D03*
G04 #@! TO.P,J3,8*
G04 #@! TO.N,SDA*
X61760000Y-41500000D03*
G04 #@! TO.P,J3,9*
G04 #@! TO.N,GND*
X64300000Y-38960000D03*
G04 #@! TO.P,J3,10*
G04 #@! TO.N,SCL*
X61760000Y-38960000D03*
G04 #@! TD*
G04 #@! TO.P,J4,10*
G04 #@! TO.N,SCL*
X51490000Y-78260000D03*
G04 #@! TO.P,J4,9*
G04 #@! TO.N,GND*
X48950000Y-78260000D03*
G04 #@! TO.P,J4,8*
G04 #@! TO.N,SDA*
X51490000Y-75720000D03*
G04 #@! TO.P,J4,7*
G04 #@! TO.N,VCC*
X48950000Y-75720000D03*
G04 #@! TO.P,J4,6*
G04 #@! TO.N,MISO*
X51490000Y-73180000D03*
G04 #@! TO.P,J4,5*
G04 #@! TO.N,RST*
X48950000Y-73180000D03*
G04 #@! TO.P,J4,4*
G04 #@! TO.N,MOSI*
X51490000Y-70640000D03*
G04 #@! TO.P,J4,3*
G04 #@! TO.N,SCK*
X48950000Y-70640000D03*
G04 #@! TO.P,J4,2*
G04 #@! TO.N,RXD*
X51490000Y-68100000D03*
D10*
G04 #@! TO.P,J4,1*
G04 #@! TO.N,TXD*
X48950000Y-68100000D03*
G04 #@! TD*
D11*
G04 #@! TO.P,J5,10*
G04 #@! TO.N,SCL*
X76740000Y-78210000D03*
G04 #@! TO.P,J5,9*
G04 #@! TO.N,GND*
X74200000Y-78210000D03*
G04 #@! TO.P,J5,8*
G04 #@! TO.N,SDA*
X76740000Y-75670000D03*
G04 #@! TO.P,J5,7*
G04 #@! TO.N,VCC*
X74200000Y-75670000D03*
G04 #@! TO.P,J5,6*
G04 #@! TO.N,MISO*
X76740000Y-73130000D03*
G04 #@! TO.P,J5,5*
G04 #@! TO.N,RST*
X74200000Y-73130000D03*
G04 #@! TO.P,J5,4*
G04 #@! TO.N,MOSI*
X76740000Y-70590000D03*
G04 #@! TO.P,J5,3*
G04 #@! TO.N,SCK*
X74200000Y-70590000D03*
G04 #@! TO.P,J5,2*
G04 #@! TO.N,RXD*
X76740000Y-68050000D03*
D10*
G04 #@! TO.P,J5,1*
G04 #@! TO.N,TXD*
X74200000Y-68050000D03*
G04 #@! TD*
G04 #@! TO.P,J6,1*
G04 #@! TO.N,TXD*
X76090000Y-56500000D03*
D11*
G04 #@! TO.P,J6,2*
G04 #@! TO.N,RXD*
X76090000Y-53960000D03*
G04 #@! TO.P,J6,3*
G04 #@! TO.N,SCK*
X78630000Y-56500000D03*
G04 #@! TO.P,J6,4*
G04 #@! TO.N,MOSI*
X78630000Y-53960000D03*
G04 #@! TO.P,J6,5*
G04 #@! TO.N,RST*
X81170000Y-56500000D03*
G04 #@! TO.P,J6,6*
G04 #@! TO.N,MISO*
X81170000Y-53960000D03*
G04 #@! TO.P,J6,7*
G04 #@! TO.N,VCC*
X83710000Y-56500000D03*
G04 #@! TO.P,J6,8*
G04 #@! TO.N,SDA*
X83710000Y-53960000D03*
G04 #@! TO.P,J6,9*
G04 #@! TO.N,GND*
X86250000Y-56500000D03*
G04 #@! TO.P,J6,10*
G04 #@! TO.N,SCL*
X86250000Y-53960000D03*
G04 #@! TD*
D12*
G04 #@! TO.N,TXD*
X67850000Y-54450000D03*
X65130000Y-52060000D03*
X59420000Y-68000000D03*
X68590000Y-68000000D03*
X79560000Y-65280000D03*
X77700000Y-64080000D03*
X86398855Y-62037731D03*
X90160000Y-58900000D03*
G04 #@! TO.N,RXD*
X80310000Y-67750000D03*
X89957340Y-63337340D03*
G04 #@! TO.N,SCK*
X59620000Y-53370000D03*
X77454999Y-50784999D03*
X46270000Y-69170000D03*
X47520000Y-61730000D03*
X46130000Y-58980000D03*
X89970000Y-64350000D03*
X83750114Y-66392863D03*
X69647340Y-46092660D03*
G04 #@! TO.N,MOSI*
X51900000Y-46940000D03*
X55610000Y-46910000D03*
X48295010Y-64533078D03*
X80430000Y-69890000D03*
X89981441Y-65378286D03*
X84724722Y-66168893D03*
X77400000Y-52070000D03*
X69540000Y-47410000D03*
X66260000Y-47570000D03*
G04 #@! TO.N,RST*
X63620000Y-52430000D03*
X56240000Y-52450000D03*
X44820000Y-69480000D03*
X46692942Y-61143406D03*
X80430000Y-71110000D03*
X90110000Y-66370000D03*
X82171219Y-60857315D03*
X85585744Y-66677485D03*
X77640000Y-48440000D03*
X69610000Y-43970000D03*
G04 #@! TO.N,MISO*
X51800000Y-48000000D03*
X56450000Y-47620000D03*
X53090000Y-65760000D03*
X49176111Y-65437256D03*
X80350000Y-72280000D03*
X90110000Y-67420000D03*
X82950000Y-60230000D03*
X86241142Y-67432785D03*
X77560000Y-49740000D03*
X69580000Y-45000000D03*
G04 #@! TO.N,SDA*
X50560000Y-63290000D03*
X56820000Y-67700000D03*
X57060000Y-72840000D03*
X78700000Y-82150000D03*
X95540000Y-71350000D03*
X95540000Y-74550000D03*
X84910000Y-58580000D03*
X86654990Y-63004384D03*
X87567660Y-72757660D03*
X90589040Y-75786531D03*
G04 #@! TO.N,SCL*
X56250000Y-43530000D03*
X53380000Y-55700000D03*
X51900000Y-61320000D03*
X57930000Y-67150000D03*
X59450000Y-73450000D03*
X68822949Y-77420531D03*
X80390000Y-76460000D03*
X90510000Y-55990000D03*
X89080000Y-61130000D03*
X95630000Y-72960000D03*
X87620000Y-71680000D03*
G04 #@! TD*
D13*
G04 #@! TO.N,TXD*
X67850000Y-54450000D02*
X65460000Y-52060000D01*
X65460000Y-52060000D02*
X65130000Y-52060000D01*
X59420000Y-68000000D02*
X68590000Y-68000000D01*
X76090000Y-62470000D02*
X76090000Y-56500000D01*
X77700000Y-64080000D02*
X76090000Y-62470000D01*
X83156586Y-65280000D02*
X85998856Y-62437730D01*
X85998856Y-62437730D02*
X86398855Y-62037731D01*
X79560000Y-65280000D02*
X83156586Y-65280000D01*
X90725685Y-58900000D02*
X93940000Y-58900000D01*
X90160000Y-58900000D02*
X90725685Y-58900000D01*
G04 #@! TO.N,RXD*
X61760000Y-57830000D02*
X61760000Y-49120000D01*
X69670000Y-53960000D02*
X76090000Y-53960000D01*
X65800000Y-57830000D02*
X69670000Y-53960000D01*
X65640000Y-57830000D02*
X66520000Y-57830000D01*
X61760000Y-57830000D02*
X65640000Y-57830000D01*
X66520000Y-57830000D02*
X76740000Y-68050000D01*
X65640000Y-57830000D02*
X65800000Y-57830000D01*
X52692081Y-68100000D02*
X56480011Y-64312070D01*
X56480011Y-64312070D02*
X56480011Y-63109989D01*
X51490000Y-68100000D02*
X52692081Y-68100000D01*
X56480011Y-63109989D02*
X61760000Y-57830000D01*
X47321999Y-60615001D02*
X47478005Y-60615001D01*
X39700000Y-53860000D02*
X36790000Y-56770000D01*
X46344940Y-60418404D02*
X47125402Y-60418404D01*
X48643012Y-61780008D02*
X48643012Y-63808076D01*
X48643012Y-63808076D02*
X49789960Y-64955024D01*
X47125402Y-60418404D02*
X47321999Y-60615001D01*
X41799989Y-63109989D02*
X43653355Y-63109989D01*
X36790000Y-56770000D02*
X36790000Y-58100000D01*
X49789960Y-64955024D02*
X51240802Y-64955024D01*
X36790000Y-58100000D02*
X41799989Y-63109989D01*
X43653355Y-63109989D02*
X46344940Y-60418404D01*
X47478005Y-60615001D02*
X48643012Y-61780008D01*
X51240802Y-64955024D02*
X53085837Y-63109989D01*
X53085837Y-63109989D02*
X56480011Y-63109989D01*
X82329989Y-65730011D02*
X83456400Y-65730011D01*
X85449072Y-63737339D02*
X89557341Y-63737339D01*
X89557341Y-63737339D02*
X89957340Y-63337340D01*
X83456400Y-65730011D02*
X85449072Y-63737339D01*
X80310000Y-67750000D02*
X82329989Y-65730011D01*
G04 #@! TO.N,SCK*
X47520000Y-67920000D02*
X47520000Y-61730000D01*
X46270000Y-69170000D02*
X47520000Y-67920000D01*
X49264987Y-61765572D02*
X49264987Y-63793640D01*
X47467808Y-59968393D02*
X49264987Y-61765572D01*
X59620000Y-53935685D02*
X59620000Y-53370000D01*
X42240000Y-56400000D02*
X45808393Y-59968393D01*
X49264987Y-63793640D02*
X49976360Y-64505013D01*
X45808393Y-59968393D02*
X47467808Y-59968393D01*
X59620000Y-55939415D02*
X59620000Y-53935685D01*
X49976360Y-64505013D02*
X51054402Y-64505013D01*
X51054402Y-64505013D02*
X59620000Y-55939415D01*
X46130000Y-59646786D02*
X46130000Y-58980000D01*
X45808393Y-59968393D02*
X46130000Y-59646786D01*
X83750114Y-66077268D02*
X83750114Y-66392863D01*
X85477382Y-64350000D02*
X83750114Y-66077268D01*
X89970000Y-64350000D02*
X85477382Y-64350000D01*
X69647340Y-46444336D02*
X69647340Y-46092660D01*
X73988003Y-50784999D02*
X69647340Y-46444336D01*
X77454999Y-50784999D02*
X73988003Y-50784999D01*
G04 #@! TO.N,MOSI*
X55580000Y-46940000D02*
X55610000Y-46910000D01*
X51900000Y-46940000D02*
X55580000Y-46940000D01*
X49450011Y-66210011D02*
X48884326Y-66210011D01*
X50314999Y-67074999D02*
X49450011Y-66210011D01*
X48884326Y-66210011D02*
X48295010Y-65620695D01*
X50314999Y-69464999D02*
X50314999Y-67074999D01*
X51490000Y-70640000D02*
X50314999Y-69464999D01*
X48295010Y-65098763D02*
X48295010Y-64533078D01*
X48295010Y-65620695D02*
X48295010Y-65098763D01*
X89981441Y-65378286D02*
X85515329Y-65378286D01*
X85515329Y-65378286D02*
X85124721Y-65768894D01*
X85124721Y-65768894D02*
X84724722Y-66168893D01*
X84724722Y-66734578D02*
X84724722Y-66168893D01*
X80430000Y-69890000D02*
X81569300Y-69890000D01*
X81569300Y-69890000D02*
X84724722Y-66734578D01*
X74200000Y-52070000D02*
X69540000Y-47410000D01*
X77400000Y-52070000D02*
X74200000Y-52070000D01*
X62609999Y-47429999D02*
X61760000Y-46580000D01*
X65509314Y-47755001D02*
X62935001Y-47755001D01*
X62935001Y-47755001D02*
X62609999Y-47429999D01*
X65694315Y-47570000D02*
X65509314Y-47755001D01*
X66260000Y-47570000D02*
X65694315Y-47570000D01*
G04 #@! TO.N,RST*
X63620000Y-52430000D02*
X64715002Y-51334998D01*
X65149999Y-44889999D02*
X64300000Y-44040000D01*
X68440000Y-48180000D02*
X65149999Y-44889999D01*
X66425002Y-51334998D02*
X68440000Y-49320000D01*
X68440000Y-49320000D02*
X68440000Y-48180000D01*
X64715002Y-51334998D02*
X66425002Y-51334998D01*
X44820000Y-69480000D02*
X46692942Y-67607058D01*
X46692942Y-67607058D02*
X46692942Y-61709091D01*
X46692942Y-61709091D02*
X46692942Y-61143406D01*
X45629999Y-57249999D02*
X44780000Y-56400000D01*
X49714998Y-63607240D02*
X49714998Y-60711996D01*
X47144999Y-58764999D02*
X45629999Y-57249999D01*
X47768001Y-58764999D02*
X47144999Y-58764999D01*
X50868002Y-64055002D02*
X50162760Y-64055002D01*
X56240000Y-52450000D02*
X56240000Y-58683004D01*
X49714998Y-60711996D02*
X47768001Y-58764999D01*
X50162760Y-64055002D02*
X49714998Y-63607240D01*
X56240000Y-58683004D02*
X50868002Y-64055002D01*
X81170000Y-59856096D02*
X81771220Y-60457316D01*
X81771220Y-60457316D02*
X82171219Y-60857315D01*
X81170000Y-56500000D02*
X81170000Y-59856096D01*
X81153229Y-71110000D02*
X85185745Y-67077484D01*
X90110000Y-66370000D02*
X85893229Y-66370000D01*
X85893229Y-66370000D02*
X85585744Y-66677485D01*
X85185745Y-67077484D02*
X85585744Y-66677485D01*
X80430000Y-71110000D02*
X81153229Y-71110000D01*
X77640000Y-48440000D02*
X76690000Y-49390000D01*
X76690000Y-49390000D02*
X74130000Y-49390000D01*
X74130000Y-49390000D02*
X70880000Y-46140000D01*
X70880000Y-46140000D02*
X70880000Y-45240000D01*
X70880000Y-45240000D02*
X69610000Y-43970000D01*
G04 #@! TO.N,MISO*
X56070000Y-48000000D02*
X56450000Y-47620000D01*
X51800000Y-48000000D02*
X56070000Y-48000000D01*
X53090000Y-65760000D02*
X49498855Y-65760000D01*
X49498855Y-65760000D02*
X49176111Y-65437256D01*
X82345001Y-59625001D02*
X82950000Y-60230000D01*
X80320001Y-55039001D02*
X80605999Y-55324999D01*
X81734001Y-55324999D02*
X82345001Y-55935999D01*
X82345001Y-55935999D02*
X82345001Y-59625001D01*
X80320001Y-54809999D02*
X80320001Y-55039001D01*
X81170000Y-53960000D02*
X80320001Y-54809999D01*
X80605999Y-55324999D02*
X81734001Y-55324999D01*
X80350000Y-72280000D02*
X81393927Y-72280000D01*
X81393927Y-72280000D02*
X85841143Y-67832784D01*
X85841143Y-67832784D02*
X86241142Y-67432785D01*
X86253927Y-67420000D02*
X86241142Y-67432785D01*
X90110000Y-67420000D02*
X86253927Y-67420000D01*
X69979999Y-45399999D02*
X69580000Y-45000000D01*
X70410000Y-46530585D02*
X70410000Y-45830000D01*
X73880000Y-50020000D02*
X70635013Y-46775013D01*
X70410000Y-45830000D02*
X69979999Y-45399999D01*
X77560000Y-49740000D02*
X76994315Y-49740000D01*
X70635013Y-46775013D02*
X70635013Y-46755598D01*
X70635013Y-46755598D02*
X70410000Y-46530585D01*
X76994315Y-49740000D02*
X76714315Y-50020000D01*
X76714315Y-50020000D02*
X73880000Y-50020000D01*
G04 #@! TO.N,SDA*
X56820000Y-70390000D02*
X51490000Y-75720000D01*
X56820000Y-67700000D02*
X56820000Y-70390000D01*
X46144999Y-56964001D02*
X47495986Y-58314988D01*
X47495986Y-58314988D02*
X47954401Y-58314988D01*
X47954401Y-58314988D02*
X50560000Y-60920587D01*
X50560000Y-60920587D02*
X50560000Y-62724315D01*
X46144999Y-55035001D02*
X46144999Y-56964001D01*
X47320000Y-53860000D02*
X46144999Y-55035001D01*
X50560000Y-62724315D02*
X50560000Y-63290000D01*
X56820000Y-72600000D02*
X57060000Y-72840000D01*
X56820000Y-70390000D02*
X56820000Y-72600000D01*
X78700000Y-82150000D02*
X80090000Y-80760000D01*
X80090000Y-79020000D02*
X76740000Y-75670000D01*
X80090000Y-80760000D02*
X80090000Y-79020000D01*
X95304999Y-71114999D02*
X95540000Y-71350000D01*
X96480000Y-66520000D02*
X95304999Y-67695001D01*
X95304999Y-67695001D02*
X95304999Y-71114999D01*
X87229999Y-60879999D02*
X87229999Y-62429375D01*
X87054989Y-62604385D02*
X86654990Y-63004384D01*
X87229999Y-62429375D02*
X87054989Y-62604385D01*
X87209999Y-60879999D02*
X87229999Y-60879999D01*
X84910000Y-58580000D02*
X87209999Y-60879999D01*
X90589040Y-75779040D02*
X90589040Y-75786531D01*
X95540000Y-74550000D02*
X93903470Y-76186530D01*
X90989039Y-76186530D02*
X90589040Y-75786531D01*
X93903470Y-76186530D02*
X90989039Y-76186530D01*
X87567660Y-72757660D02*
X90589040Y-75779040D01*
G04 #@! TO.N,SCL*
X51283004Y-53860000D02*
X57175002Y-47968002D01*
X57175002Y-47968002D02*
X57175002Y-43544998D01*
X49860000Y-53860000D02*
X51283004Y-53860000D01*
X57175002Y-43544998D02*
X56264998Y-43544998D01*
X56264998Y-43544998D02*
X56250000Y-43530000D01*
X53380000Y-55700000D02*
X51900000Y-57180000D01*
X51900000Y-57180000D02*
X51900000Y-61320000D01*
X57930000Y-67150000D02*
X57930000Y-71820000D01*
X57930000Y-71820000D02*
X57930000Y-71930000D01*
X57930000Y-71930000D02*
X59450000Y-73450000D01*
X57930000Y-73043004D02*
X52713004Y-78260000D01*
X52692081Y-78260000D02*
X51490000Y-78260000D01*
X57930000Y-71820000D02*
X57930000Y-73043004D01*
X52713004Y-78260000D02*
X52692081Y-78260000D01*
X76740000Y-78210000D02*
X75550532Y-77020532D01*
X75550532Y-77020532D02*
X69222948Y-77020532D01*
X69222948Y-77020532D02*
X68822949Y-77420531D01*
X90510000Y-55990000D02*
X89080000Y-57420000D01*
X89080000Y-57420000D02*
X89080000Y-61130000D01*
X95064315Y-72960000D02*
X94254315Y-73770000D01*
X95630000Y-72960000D02*
X95064315Y-72960000D01*
X82840000Y-76460000D02*
X87620000Y-71680000D01*
X80390000Y-76460000D02*
X82840000Y-76460000D01*
X94254315Y-73770000D02*
X94254315Y-74975685D01*
X94254315Y-74975685D02*
X93520000Y-75710000D01*
X91650000Y-75710000D02*
X87620000Y-71680000D01*
X93520000Y-75710000D02*
X91650000Y-75710000D01*
G04 #@! TD*
D14*
G04 #@! TO.N,GND*
G36*
X65902192Y-26294871D02*
X68268392Y-26574929D01*
X70611587Y-27007100D01*
X72922009Y-27589582D01*
X75190027Y-28319946D01*
X77406185Y-29195149D01*
X79561245Y-30211541D01*
X81646223Y-31364886D01*
X83652426Y-32650375D01*
X85571493Y-34062649D01*
X87395422Y-35595822D01*
X89116610Y-37243501D01*
X90727882Y-38998819D01*
X92222521Y-40854456D01*
X93594296Y-42802678D01*
X94837489Y-44835363D01*
X95946916Y-46944038D01*
X96917953Y-49119911D01*
X97746552Y-51353911D01*
X98429259Y-53636727D01*
X98963227Y-55958841D01*
X99346231Y-58310573D01*
X99576674Y-60682120D01*
X99653595Y-63063594D01*
X99646794Y-63772049D01*
X99524169Y-66151607D01*
X99248241Y-68518293D01*
X98820160Y-70862239D01*
X98241712Y-73173674D01*
X97515307Y-75442963D01*
X96643973Y-77660645D01*
X95631344Y-79817476D01*
X94481640Y-81904463D01*
X93199654Y-83912907D01*
X91790731Y-85834436D01*
X90260744Y-87661038D01*
X88616072Y-89385100D01*
X86863569Y-90999433D01*
X85010543Y-92497308D01*
X83064718Y-93872481D01*
X81034206Y-95119220D01*
X78927471Y-96232325D01*
X76753296Y-97207159D01*
X74520745Y-98039656D01*
X72239124Y-98726345D01*
X69917946Y-99264366D01*
X67566886Y-99651474D01*
X65195745Y-99886055D01*
X62814409Y-99967133D01*
X60432804Y-99894368D01*
X58060859Y-99668065D01*
X55708462Y-99289166D01*
X53385420Y-98759251D01*
X51101416Y-98080530D01*
X48865972Y-97255831D01*
X46688408Y-96288593D01*
X44577800Y-95182848D01*
X42542949Y-93943205D01*
X40592335Y-92574833D01*
X38734092Y-91083435D01*
X36975965Y-89475229D01*
X35325284Y-87756919D01*
X33788931Y-85935668D01*
X32373309Y-84019070D01*
X31084320Y-82015112D01*
X29927338Y-79932151D01*
X29304213Y-78616890D01*
X47508524Y-78616890D01*
X47678355Y-79026924D01*
X48068642Y-79455183D01*
X48593108Y-79701486D01*
X48823000Y-79580819D01*
X48823000Y-78387000D01*
X47629845Y-78387000D01*
X47508524Y-78616890D01*
X29304213Y-78616890D01*
X28907186Y-77778868D01*
X28028117Y-75564241D01*
X27293795Y-73297502D01*
X26707282Y-70988100D01*
X26271022Y-68645662D01*
X25986834Y-66279954D01*
X25855904Y-63900838D01*
X25878776Y-61518232D01*
X26055355Y-59142068D01*
X26384906Y-56782252D01*
X26387432Y-56770000D01*
X36015112Y-56770000D01*
X36030000Y-56844847D01*
X36030001Y-58025149D01*
X36015112Y-58100000D01*
X36030001Y-58174852D01*
X36074097Y-58396537D01*
X36242072Y-58647929D01*
X36305528Y-58690329D01*
X41209662Y-63594465D01*
X41252060Y-63657918D01*
X41315513Y-63700316D01*
X41315515Y-63700318D01*
X41422869Y-63772049D01*
X41503452Y-63825893D01*
X41725137Y-63869989D01*
X41725141Y-63869989D01*
X41799988Y-63884877D01*
X41874835Y-63869989D01*
X43578508Y-63869989D01*
X43653355Y-63884877D01*
X43728202Y-63869989D01*
X43728207Y-63869989D01*
X43949892Y-63825893D01*
X44201284Y-63657918D01*
X44243686Y-63594459D01*
X45932943Y-61905203D01*
X45932942Y-67292256D01*
X44780199Y-68445000D01*
X44614126Y-68445000D01*
X44233720Y-68602569D01*
X43942569Y-68893720D01*
X43785000Y-69274126D01*
X43785000Y-69685874D01*
X43942569Y-70066280D01*
X44233720Y-70357431D01*
X44614126Y-70515000D01*
X45025874Y-70515000D01*
X45406280Y-70357431D01*
X45697431Y-70066280D01*
X45702087Y-70055039D01*
X46064126Y-70205000D01*
X46475874Y-70205000D01*
X46856280Y-70047431D01*
X47147431Y-69756280D01*
X47305000Y-69375874D01*
X47305000Y-69209801D01*
X47471182Y-69043620D01*
X47501843Y-69197765D01*
X47642191Y-69407809D01*
X47852235Y-69548157D01*
X47897619Y-69557184D01*
X47879375Y-69569375D01*
X47551161Y-70060582D01*
X47435908Y-70640000D01*
X47551161Y-71219418D01*
X47879375Y-71710625D01*
X48177761Y-71910000D01*
X47879375Y-72109375D01*
X47551161Y-72600582D01*
X47435908Y-73180000D01*
X47551161Y-73759418D01*
X47879375Y-74250625D01*
X48177761Y-74450000D01*
X47879375Y-74649375D01*
X47551161Y-75140582D01*
X47435908Y-75720000D01*
X47551161Y-76299418D01*
X47879375Y-76790625D01*
X48198478Y-77003843D01*
X48068642Y-77064817D01*
X47678355Y-77493076D01*
X47508524Y-77903110D01*
X47629845Y-78133000D01*
X48823000Y-78133000D01*
X48823000Y-78113000D01*
X49077000Y-78113000D01*
X49077000Y-78133000D01*
X49097000Y-78133000D01*
X49097000Y-78387000D01*
X49077000Y-78387000D01*
X49077000Y-79580819D01*
X49306892Y-79701486D01*
X49831358Y-79455183D01*
X50218647Y-79030214D01*
X50419375Y-79330625D01*
X50910582Y-79658839D01*
X51343744Y-79745000D01*
X51636256Y-79745000D01*
X52069418Y-79658839D01*
X52560625Y-79330625D01*
X52765162Y-79024513D01*
X52787851Y-79020000D01*
X52787856Y-79020000D01*
X53009541Y-78975904D01*
X53260933Y-78807929D01*
X53303335Y-78744470D01*
X53480915Y-78566890D01*
X72758524Y-78566890D01*
X72928355Y-78976924D01*
X73318642Y-79405183D01*
X73843108Y-79651486D01*
X74073000Y-79530819D01*
X74073000Y-78337000D01*
X72879845Y-78337000D01*
X72758524Y-78566890D01*
X53480915Y-78566890D01*
X58414476Y-73633331D01*
X58415000Y-73632981D01*
X58415000Y-73655874D01*
X58572569Y-74036280D01*
X58863720Y-74327431D01*
X59244126Y-74485000D01*
X59655874Y-74485000D01*
X60036280Y-74327431D01*
X60327431Y-74036280D01*
X60485000Y-73655874D01*
X60485000Y-73244126D01*
X60327431Y-72863720D01*
X60036280Y-72572569D01*
X59655874Y-72415000D01*
X59489802Y-72415000D01*
X58690000Y-71615199D01*
X58690000Y-68733711D01*
X58833720Y-68877431D01*
X59214126Y-69035000D01*
X59625874Y-69035000D01*
X60006280Y-68877431D01*
X60123711Y-68760000D01*
X67886289Y-68760000D01*
X68003720Y-68877431D01*
X68384126Y-69035000D01*
X68795874Y-69035000D01*
X69176280Y-68877431D01*
X69467431Y-68586280D01*
X69625000Y-68205874D01*
X69625000Y-67794126D01*
X69467431Y-67413720D01*
X69176280Y-67122569D01*
X68795874Y-66965000D01*
X68384126Y-66965000D01*
X68003720Y-67122569D01*
X67886289Y-67240000D01*
X60123711Y-67240000D01*
X60006280Y-67122569D01*
X59625874Y-66965000D01*
X59214126Y-66965000D01*
X58965000Y-67068191D01*
X58965000Y-66944126D01*
X58807431Y-66563720D01*
X58516280Y-66272569D01*
X58135874Y-66115000D01*
X57724126Y-66115000D01*
X57343720Y-66272569D01*
X57052569Y-66563720D01*
X57010618Y-66665000D01*
X56614126Y-66665000D01*
X56233720Y-66822569D01*
X55942569Y-67113720D01*
X55785000Y-67494126D01*
X55785000Y-67905874D01*
X55942569Y-68286280D01*
X56060000Y-68403711D01*
X56060001Y-70075196D01*
X52995980Y-73139218D01*
X52888839Y-72600582D01*
X52560625Y-72109375D01*
X52262239Y-71910000D01*
X52560625Y-71710625D01*
X52888839Y-71219418D01*
X53004092Y-70640000D01*
X52888839Y-70060582D01*
X52560625Y-69569375D01*
X52262239Y-69370000D01*
X52560625Y-69170625D01*
X52768369Y-68859714D01*
X52988618Y-68815904D01*
X53240010Y-68647929D01*
X53282412Y-68584470D01*
X56964484Y-64902399D01*
X57027940Y-64859999D01*
X57195915Y-64608607D01*
X57240011Y-64386922D01*
X57240011Y-64386917D01*
X57254899Y-64312070D01*
X57240011Y-64237223D01*
X57240011Y-63424790D01*
X62074802Y-58590000D01*
X65725153Y-58590000D01*
X65800000Y-58604888D01*
X65874847Y-58590000D01*
X66205199Y-58590000D01*
X74167758Y-66552560D01*
X73350000Y-66552560D01*
X73102235Y-66601843D01*
X72892191Y-66742191D01*
X72751843Y-66952235D01*
X72702560Y-67200000D01*
X72702560Y-68900000D01*
X72751843Y-69147765D01*
X72892191Y-69357809D01*
X73102235Y-69498157D01*
X73147619Y-69507184D01*
X73129375Y-69519375D01*
X72801161Y-70010582D01*
X72685908Y-70590000D01*
X72801161Y-71169418D01*
X73129375Y-71660625D01*
X73427761Y-71860000D01*
X73129375Y-72059375D01*
X72801161Y-72550582D01*
X72685908Y-73130000D01*
X72801161Y-73709418D01*
X73129375Y-74200625D01*
X73427761Y-74400000D01*
X73129375Y-74599375D01*
X72801161Y-75090582D01*
X72685908Y-75670000D01*
X72801161Y-76249418D01*
X72808587Y-76260532D01*
X69297794Y-76260532D01*
X69222947Y-76245644D01*
X69148100Y-76260532D01*
X69148096Y-76260532D01*
X68926411Y-76304628D01*
X68805331Y-76385531D01*
X68617075Y-76385531D01*
X68236669Y-76543100D01*
X67945518Y-76834251D01*
X67787949Y-77214657D01*
X67787949Y-77626405D01*
X67945518Y-78006811D01*
X68236669Y-78297962D01*
X68617075Y-78455531D01*
X69028823Y-78455531D01*
X69409229Y-78297962D01*
X69700380Y-78006811D01*
X69794108Y-77780532D01*
X72788585Y-77780532D01*
X72758524Y-77853110D01*
X72879845Y-78083000D01*
X74073000Y-78083000D01*
X74073000Y-78063000D01*
X74327000Y-78063000D01*
X74327000Y-78083000D01*
X74347000Y-78083000D01*
X74347000Y-78337000D01*
X74327000Y-78337000D01*
X74327000Y-79530819D01*
X74556892Y-79651486D01*
X75081358Y-79405183D01*
X75468647Y-78980214D01*
X75669375Y-79280625D01*
X76160582Y-79608839D01*
X76593744Y-79695000D01*
X76886256Y-79695000D01*
X77319418Y-79608839D01*
X77810625Y-79280625D01*
X78138839Y-78789418D01*
X78245980Y-78250782D01*
X79330001Y-79334804D01*
X79330000Y-80445198D01*
X78660199Y-81115000D01*
X78494126Y-81115000D01*
X78113720Y-81272569D01*
X77822569Y-81563720D01*
X77665000Y-81944126D01*
X77665000Y-82355874D01*
X77822569Y-82736280D01*
X78113720Y-83027431D01*
X78494126Y-83185000D01*
X78905874Y-83185000D01*
X79286280Y-83027431D01*
X79577431Y-82736280D01*
X79735000Y-82355874D01*
X79735000Y-82189801D01*
X80574473Y-81350329D01*
X80637929Y-81307929D01*
X80682088Y-81241840D01*
X80805904Y-81056538D01*
X80815480Y-81008395D01*
X80850000Y-80834852D01*
X80850000Y-80834848D01*
X80864888Y-80760000D01*
X80850000Y-80685152D01*
X80850000Y-79094846D01*
X80864888Y-79019999D01*
X80850000Y-78945152D01*
X80850000Y-78945148D01*
X80805904Y-78723463D01*
X80734694Y-78616890D01*
X80680329Y-78535526D01*
X80680327Y-78535524D01*
X80637929Y-78472071D01*
X80574476Y-78429673D01*
X78398928Y-76254126D01*
X79355000Y-76254126D01*
X79355000Y-76665874D01*
X79512569Y-77046280D01*
X79803720Y-77337431D01*
X80184126Y-77495000D01*
X80595874Y-77495000D01*
X80976280Y-77337431D01*
X81093711Y-77220000D01*
X82765153Y-77220000D01*
X82840000Y-77234888D01*
X82914847Y-77220000D01*
X82914852Y-77220000D01*
X83136537Y-77175904D01*
X83387929Y-77007929D01*
X83430331Y-76944470D01*
X86860545Y-73514256D01*
X86981380Y-73635091D01*
X87361786Y-73792660D01*
X87527859Y-73792660D01*
X89554040Y-75818842D01*
X89554040Y-75992405D01*
X89711609Y-76372811D01*
X90002760Y-76663962D01*
X90383166Y-76821531D01*
X90571422Y-76821531D01*
X90692502Y-76902434D01*
X90914187Y-76946530D01*
X90914191Y-76946530D01*
X90989038Y-76961418D01*
X91063885Y-76946530D01*
X93828623Y-76946530D01*
X93903470Y-76961418D01*
X93978317Y-76946530D01*
X93978322Y-76946530D01*
X94200007Y-76902434D01*
X94451399Y-76734459D01*
X94493801Y-76671000D01*
X95579802Y-75585000D01*
X95745874Y-75585000D01*
X96126280Y-75427431D01*
X96417431Y-75136280D01*
X96575000Y-74755874D01*
X96575000Y-74344126D01*
X96417431Y-73963720D01*
X96253711Y-73800000D01*
X96507431Y-73546280D01*
X96665000Y-73165874D01*
X96665000Y-72754126D01*
X96507431Y-72373720D01*
X96243711Y-72110000D01*
X96417431Y-71936280D01*
X96575000Y-71555874D01*
X96575000Y-71144126D01*
X96417431Y-70763720D01*
X96165182Y-70511471D01*
X96333744Y-70545000D01*
X96626256Y-70545000D01*
X97059418Y-70458839D01*
X97550625Y-70130625D01*
X97878839Y-69639418D01*
X97994092Y-69060000D01*
X97878839Y-68480582D01*
X97550625Y-67989375D01*
X97252239Y-67790000D01*
X97550625Y-67590625D01*
X97878839Y-67099418D01*
X97994092Y-66520000D01*
X97878839Y-65940582D01*
X97550625Y-65449375D01*
X97252239Y-65250000D01*
X97550625Y-65050625D01*
X97878839Y-64559418D01*
X97994092Y-63980000D01*
X97878839Y-63400582D01*
X97550625Y-62909375D01*
X97252239Y-62710000D01*
X97550625Y-62510625D01*
X97878839Y-62019418D01*
X97994092Y-61440000D01*
X97878839Y-60860582D01*
X97550625Y-60369375D01*
X97252239Y-60170000D01*
X97550625Y-59970625D01*
X97878839Y-59479418D01*
X97994092Y-58900000D01*
X97878839Y-58320582D01*
X97550625Y-57829375D01*
X97059418Y-57501161D01*
X96626256Y-57415000D01*
X96333744Y-57415000D01*
X95900582Y-57501161D01*
X95409375Y-57829375D01*
X95397184Y-57847619D01*
X95388157Y-57802235D01*
X95247809Y-57592191D01*
X95037765Y-57451843D01*
X94790000Y-57402560D01*
X93090000Y-57402560D01*
X92842235Y-57451843D01*
X92632191Y-57592191D01*
X92491843Y-57802235D01*
X92442560Y-58050000D01*
X92442560Y-58140000D01*
X90863711Y-58140000D01*
X90746280Y-58022569D01*
X90365874Y-57865000D01*
X89954126Y-57865000D01*
X89840000Y-57912272D01*
X89840000Y-57734801D01*
X90549802Y-57025000D01*
X90715874Y-57025000D01*
X91096280Y-56867431D01*
X91387431Y-56576280D01*
X91545000Y-56195874D01*
X91545000Y-55784126D01*
X91387431Y-55403720D01*
X91096280Y-55112569D01*
X90715874Y-54955000D01*
X90304126Y-54955000D01*
X89923720Y-55112569D01*
X89632569Y-55403720D01*
X89475000Y-55784126D01*
X89475000Y-55950198D01*
X88595530Y-56829669D01*
X88532071Y-56872071D01*
X88364096Y-57123464D01*
X88320000Y-57345149D01*
X88320000Y-57345153D01*
X88305112Y-57420000D01*
X88320000Y-57494847D01*
X88320001Y-60426288D01*
X88202569Y-60543720D01*
X88045000Y-60924126D01*
X88045000Y-61335874D01*
X88202569Y-61716280D01*
X88493720Y-62007431D01*
X88874126Y-62165000D01*
X89285874Y-62165000D01*
X89666280Y-62007431D01*
X89957431Y-61716280D01*
X90115000Y-61335874D01*
X90115000Y-60924126D01*
X89957431Y-60543720D01*
X89840000Y-60426289D01*
X89840000Y-59887728D01*
X89954126Y-59935000D01*
X90365874Y-59935000D01*
X90746280Y-59777431D01*
X90863711Y-59660000D01*
X92442560Y-59660000D01*
X92442560Y-59750000D01*
X92491843Y-59997765D01*
X92632191Y-60207809D01*
X92842235Y-60348157D01*
X92887619Y-60357184D01*
X92869375Y-60369375D01*
X92541161Y-60860582D01*
X92425908Y-61440000D01*
X92541161Y-62019418D01*
X92869375Y-62510625D01*
X93167761Y-62710000D01*
X92869375Y-62909375D01*
X92541161Y-63400582D01*
X92425908Y-63980000D01*
X92541161Y-64559418D01*
X92869375Y-65050625D01*
X93167761Y-65250000D01*
X92869375Y-65449375D01*
X92541161Y-65940582D01*
X92425908Y-66520000D01*
X92541161Y-67099418D01*
X92869375Y-67590625D01*
X93188478Y-67803843D01*
X93058642Y-67864817D01*
X92668355Y-68293076D01*
X92498524Y-68703110D01*
X92619845Y-68933000D01*
X93813000Y-68933000D01*
X93813000Y-68913000D01*
X94067000Y-68913000D01*
X94067000Y-68933000D01*
X94087000Y-68933000D01*
X94087000Y-69187000D01*
X94067000Y-69187000D01*
X94067000Y-70380819D01*
X94296892Y-70501486D01*
X94545000Y-70384968D01*
X94545000Y-71040147D01*
X94542164Y-71054403D01*
X94505000Y-71144126D01*
X94505000Y-71555874D01*
X94662569Y-71936280D01*
X94926289Y-72200000D01*
X94910603Y-72215686D01*
X94767778Y-72244096D01*
X94516386Y-72412071D01*
X94473986Y-72475527D01*
X93769845Y-73179669D01*
X93706386Y-73222071D01*
X93538411Y-73473464D01*
X93494315Y-73695149D01*
X93494315Y-73695153D01*
X93479427Y-73770000D01*
X93494315Y-73844847D01*
X93494316Y-74660883D01*
X93205199Y-74950000D01*
X91964802Y-74950000D01*
X88655000Y-71640199D01*
X88655000Y-71474126D01*
X88497431Y-71093720D01*
X88206280Y-70802569D01*
X87825874Y-70645000D01*
X87414126Y-70645000D01*
X87033720Y-70802569D01*
X86742569Y-71093720D01*
X86585000Y-71474126D01*
X86585000Y-71640198D01*
X82525199Y-75700000D01*
X81093711Y-75700000D01*
X80976280Y-75582569D01*
X80595874Y-75425000D01*
X80184126Y-75425000D01*
X79803720Y-75582569D01*
X79512569Y-75873720D01*
X79355000Y-76254126D01*
X78398928Y-76254126D01*
X78181209Y-76036408D01*
X78254092Y-75670000D01*
X78138839Y-75090582D01*
X77810625Y-74599375D01*
X77512239Y-74400000D01*
X77810625Y-74200625D01*
X78138839Y-73709418D01*
X78254092Y-73130000D01*
X78138839Y-72550582D01*
X77810625Y-72059375D01*
X77512239Y-71860000D01*
X77810625Y-71660625D01*
X78138839Y-71169418D01*
X78254092Y-70590000D01*
X78138839Y-70010582D01*
X77810625Y-69519375D01*
X77512239Y-69320000D01*
X77810625Y-69120625D01*
X78138839Y-68629418D01*
X78254092Y-68050000D01*
X78138839Y-67470582D01*
X77810625Y-66979375D01*
X77319418Y-66651161D01*
X76886256Y-66565000D01*
X76593744Y-66565000D01*
X76373593Y-66608791D01*
X67234801Y-57470000D01*
X69984803Y-54720000D01*
X74811822Y-54720000D01*
X75019375Y-55030625D01*
X75037619Y-55042816D01*
X74992235Y-55051843D01*
X74782191Y-55192191D01*
X74641843Y-55402235D01*
X74592560Y-55650000D01*
X74592560Y-57350000D01*
X74641843Y-57597765D01*
X74782191Y-57807809D01*
X74992235Y-57948157D01*
X75240000Y-57997440D01*
X75330001Y-57997440D01*
X75330000Y-62395153D01*
X75315112Y-62470000D01*
X75330000Y-62544847D01*
X75330000Y-62544851D01*
X75374096Y-62766536D01*
X75542071Y-63017929D01*
X75605530Y-63060331D01*
X76665000Y-64119802D01*
X76665000Y-64285874D01*
X76822569Y-64666280D01*
X77113720Y-64957431D01*
X77494126Y-65115000D01*
X77905874Y-65115000D01*
X78286280Y-64957431D01*
X78577431Y-64666280D01*
X78735000Y-64285874D01*
X78735000Y-63874126D01*
X78577431Y-63493720D01*
X78286280Y-63202569D01*
X77905874Y-63045000D01*
X77739802Y-63045000D01*
X76850000Y-62155199D01*
X76850000Y-57997440D01*
X76940000Y-57997440D01*
X77187765Y-57948157D01*
X77397809Y-57807809D01*
X77538157Y-57597765D01*
X77547184Y-57552381D01*
X77559375Y-57570625D01*
X78050582Y-57898839D01*
X78483744Y-57985000D01*
X78776256Y-57985000D01*
X79209418Y-57898839D01*
X79700625Y-57570625D01*
X79900000Y-57272239D01*
X80099375Y-57570625D01*
X80410000Y-57778178D01*
X80410001Y-59781244D01*
X80395112Y-59856096D01*
X80454097Y-60152633D01*
X80529132Y-60264930D01*
X80622072Y-60404025D01*
X80685527Y-60446424D01*
X81136219Y-60897118D01*
X81136219Y-61063189D01*
X81293788Y-61443595D01*
X81584939Y-61734746D01*
X81965345Y-61892315D01*
X82377093Y-61892315D01*
X82757499Y-61734746D01*
X83048650Y-61443595D01*
X83122626Y-61265000D01*
X83155874Y-61265000D01*
X83536280Y-61107431D01*
X83827431Y-60816280D01*
X83985000Y-60435874D01*
X83985000Y-60024126D01*
X83827431Y-59643720D01*
X83536280Y-59352569D01*
X83155874Y-59195000D01*
X83105001Y-59195000D01*
X83105001Y-57881746D01*
X83130582Y-57898839D01*
X83563744Y-57985000D01*
X83856256Y-57985000D01*
X84087233Y-57939056D01*
X84032569Y-57993720D01*
X83875000Y-58374126D01*
X83875000Y-58785874D01*
X84032569Y-59166280D01*
X84323720Y-59457431D01*
X84704126Y-59615000D01*
X84870199Y-59615000D01*
X86257929Y-61002731D01*
X86192981Y-61002731D01*
X85812575Y-61160300D01*
X85521424Y-61451451D01*
X85363855Y-61831857D01*
X85363855Y-61997929D01*
X82841785Y-64520000D01*
X80263711Y-64520000D01*
X80146280Y-64402569D01*
X79765874Y-64245000D01*
X79354126Y-64245000D01*
X78973720Y-64402569D01*
X78682569Y-64693720D01*
X78525000Y-65074126D01*
X78525000Y-65485874D01*
X78682569Y-65866280D01*
X78973720Y-66157431D01*
X79354126Y-66315000D01*
X79765874Y-66315000D01*
X80146280Y-66157431D01*
X80263711Y-66040000D01*
X80945198Y-66040000D01*
X80270199Y-66715000D01*
X80104126Y-66715000D01*
X79723720Y-66872569D01*
X79432569Y-67163720D01*
X79275000Y-67544126D01*
X79275000Y-67955874D01*
X79432569Y-68336280D01*
X79723720Y-68627431D01*
X80104126Y-68785000D01*
X80515874Y-68785000D01*
X80896280Y-68627431D01*
X81187431Y-68336280D01*
X81345000Y-67955874D01*
X81345000Y-67789801D01*
X82644791Y-66490011D01*
X82715114Y-66490011D01*
X82715114Y-66598737D01*
X82872683Y-66979143D01*
X83139019Y-67245479D01*
X81254499Y-69130000D01*
X81133711Y-69130000D01*
X81016280Y-69012569D01*
X80635874Y-68855000D01*
X80224126Y-68855000D01*
X79843720Y-69012569D01*
X79552569Y-69303720D01*
X79395000Y-69684126D01*
X79395000Y-70095874D01*
X79552569Y-70476280D01*
X79576289Y-70500000D01*
X79552569Y-70523720D01*
X79395000Y-70904126D01*
X79395000Y-71315874D01*
X79528388Y-71637901D01*
X79472569Y-71693720D01*
X79315000Y-72074126D01*
X79315000Y-72485874D01*
X79472569Y-72866280D01*
X79763720Y-73157431D01*
X80144126Y-73315000D01*
X80555874Y-73315000D01*
X80936280Y-73157431D01*
X81053711Y-73040000D01*
X81319080Y-73040000D01*
X81393927Y-73054888D01*
X81468774Y-73040000D01*
X81468779Y-73040000D01*
X81690464Y-72995904D01*
X81941856Y-72827929D01*
X81984258Y-72764470D01*
X85331838Y-69416890D01*
X92498524Y-69416890D01*
X92668355Y-69826924D01*
X93058642Y-70255183D01*
X93583108Y-70501486D01*
X93813000Y-70380819D01*
X93813000Y-69187000D01*
X92619845Y-69187000D01*
X92498524Y-69416890D01*
X85331838Y-69416890D01*
X86280944Y-68467785D01*
X86447016Y-68467785D01*
X86827422Y-68310216D01*
X86957638Y-68180000D01*
X89406289Y-68180000D01*
X89523720Y-68297431D01*
X89904126Y-68455000D01*
X90315874Y-68455000D01*
X90696280Y-68297431D01*
X90987431Y-68006280D01*
X91145000Y-67625874D01*
X91145000Y-67214126D01*
X91012814Y-66895000D01*
X91145000Y-66575874D01*
X91145000Y-66164126D01*
X90987431Y-65783720D01*
X90949494Y-65745783D01*
X91016441Y-65584160D01*
X91016441Y-65172412D01*
X90883032Y-64850332D01*
X91005000Y-64555874D01*
X91005000Y-64144126D01*
X90874217Y-63828388D01*
X90992340Y-63543214D01*
X90992340Y-63131466D01*
X90834771Y-62751060D01*
X90543620Y-62459909D01*
X90163214Y-62302340D01*
X89751466Y-62302340D01*
X89371060Y-62459909D01*
X89079909Y-62751060D01*
X88986181Y-62977339D01*
X87777876Y-62977339D01*
X87777928Y-62977304D01*
X87945903Y-62725912D01*
X87989999Y-62504227D01*
X87989999Y-62504223D01*
X88004887Y-62429375D01*
X87989999Y-62354527D01*
X87989999Y-60954851D01*
X88004888Y-60879999D01*
X87945903Y-60583462D01*
X87777928Y-60332070D01*
X87654198Y-60249396D01*
X85945000Y-58540199D01*
X85945000Y-58374126D01*
X85787431Y-57993720D01*
X85623531Y-57829820D01*
X85893110Y-57941476D01*
X86123000Y-57820155D01*
X86123000Y-56627000D01*
X86377000Y-56627000D01*
X86377000Y-57820155D01*
X86606890Y-57941476D01*
X87016924Y-57771645D01*
X87445183Y-57381358D01*
X87691486Y-56856892D01*
X87570819Y-56627000D01*
X86377000Y-56627000D01*
X86123000Y-56627000D01*
X86103000Y-56627000D01*
X86103000Y-56373000D01*
X86123000Y-56373000D01*
X86123000Y-56353000D01*
X86377000Y-56353000D01*
X86377000Y-56373000D01*
X87570819Y-56373000D01*
X87691486Y-56143108D01*
X87445183Y-55618642D01*
X87020214Y-55231353D01*
X87320625Y-55030625D01*
X87648839Y-54539418D01*
X87764092Y-53960000D01*
X87648839Y-53380582D01*
X87320625Y-52889375D01*
X86829418Y-52561161D01*
X86396256Y-52475000D01*
X86103744Y-52475000D01*
X85670582Y-52561161D01*
X85179375Y-52889375D01*
X84980000Y-53187761D01*
X84780625Y-52889375D01*
X84289418Y-52561161D01*
X83856256Y-52475000D01*
X83563744Y-52475000D01*
X83130582Y-52561161D01*
X82639375Y-52889375D01*
X82440000Y-53187761D01*
X82240625Y-52889375D01*
X81749418Y-52561161D01*
X81316256Y-52475000D01*
X81023744Y-52475000D01*
X80590582Y-52561161D01*
X80099375Y-52889375D01*
X79900000Y-53187761D01*
X79700625Y-52889375D01*
X79209418Y-52561161D01*
X78776256Y-52475000D01*
X78483744Y-52475000D01*
X78340737Y-52503446D01*
X78435000Y-52275874D01*
X78435000Y-51864126D01*
X78277431Y-51483720D01*
X78248710Y-51454999D01*
X78332430Y-51371279D01*
X78489999Y-50990873D01*
X78489999Y-50579125D01*
X78400546Y-50363165D01*
X78437431Y-50326280D01*
X78595000Y-49945874D01*
X78595000Y-49534126D01*
X78437431Y-49153720D01*
X78413711Y-49130000D01*
X78517431Y-49026280D01*
X78675000Y-48645874D01*
X78675000Y-48234126D01*
X78517431Y-47853720D01*
X78226280Y-47562569D01*
X77845874Y-47405000D01*
X77434126Y-47405000D01*
X77053720Y-47562569D01*
X76762569Y-47853720D01*
X76605000Y-48234126D01*
X76605000Y-48400199D01*
X76375199Y-48630000D01*
X74444802Y-48630000D01*
X71640000Y-45825199D01*
X71640000Y-45314846D01*
X71654888Y-45239999D01*
X71640000Y-45165152D01*
X71640000Y-45165148D01*
X71595904Y-44943463D01*
X71427929Y-44692071D01*
X71364473Y-44649671D01*
X70645000Y-43930199D01*
X70645000Y-43764126D01*
X70487431Y-43383720D01*
X70196280Y-43092569D01*
X69815874Y-42935000D01*
X69404126Y-42935000D01*
X69023720Y-43092569D01*
X68732569Y-43383720D01*
X68575000Y-43764126D01*
X68575000Y-44175874D01*
X68688044Y-44448787D01*
X68545000Y-44794126D01*
X68545000Y-45205874D01*
X68702569Y-45586280D01*
X68726783Y-45610494D01*
X68612340Y-45886786D01*
X68612340Y-46298534D01*
X68769909Y-46678940D01*
X68788629Y-46697660D01*
X68662569Y-46823720D01*
X68514937Y-47180135D01*
X65741209Y-44406408D01*
X65814092Y-44040000D01*
X65698839Y-43460582D01*
X65370625Y-42969375D01*
X65072239Y-42770000D01*
X65370625Y-42570625D01*
X65698839Y-42079418D01*
X65814092Y-41500000D01*
X65698839Y-40920582D01*
X65370625Y-40429375D01*
X65051522Y-40216157D01*
X65181358Y-40155183D01*
X65571645Y-39726924D01*
X65741476Y-39316890D01*
X65620155Y-39087000D01*
X64427000Y-39087000D01*
X64427000Y-39107000D01*
X64173000Y-39107000D01*
X64173000Y-39087000D01*
X64153000Y-39087000D01*
X64153000Y-38833000D01*
X64173000Y-38833000D01*
X64173000Y-37639181D01*
X64427000Y-37639181D01*
X64427000Y-38833000D01*
X65620155Y-38833000D01*
X65741476Y-38603110D01*
X65571645Y-38193076D01*
X65181358Y-37764817D01*
X64656892Y-37518514D01*
X64427000Y-37639181D01*
X64173000Y-37639181D01*
X63943108Y-37518514D01*
X63418642Y-37764817D01*
X63031353Y-38189786D01*
X62830625Y-37889375D01*
X62339418Y-37561161D01*
X61906256Y-37475000D01*
X61613744Y-37475000D01*
X61180582Y-37561161D01*
X60689375Y-37889375D01*
X60361161Y-38380582D01*
X60245908Y-38960000D01*
X60361161Y-39539418D01*
X60689375Y-40030625D01*
X60987761Y-40230000D01*
X60689375Y-40429375D01*
X60361161Y-40920582D01*
X60245908Y-41500000D01*
X60361161Y-42079418D01*
X60689375Y-42570625D01*
X60987761Y-42770000D01*
X60689375Y-42969375D01*
X60361161Y-43460582D01*
X60245908Y-44040000D01*
X60361161Y-44619418D01*
X60689375Y-45110625D01*
X60987761Y-45310000D01*
X60689375Y-45509375D01*
X60361161Y-46000582D01*
X60245908Y-46580000D01*
X60361161Y-47159418D01*
X60689375Y-47650625D01*
X60987761Y-47850000D01*
X60689375Y-48049375D01*
X60361161Y-48540582D01*
X60245908Y-49120000D01*
X60361161Y-49699418D01*
X60689375Y-50190625D01*
X61000001Y-50398179D01*
X61000000Y-57515198D01*
X56165210Y-62349989D01*
X54284227Y-62349989D01*
X60104473Y-56529744D01*
X60167929Y-56487344D01*
X60335904Y-56235952D01*
X60380000Y-56014267D01*
X60380000Y-56014262D01*
X60394888Y-55939415D01*
X60380000Y-55864568D01*
X60380000Y-54073711D01*
X60497431Y-53956280D01*
X60655000Y-53575874D01*
X60655000Y-53164126D01*
X60497431Y-52783720D01*
X60206280Y-52492569D01*
X59825874Y-52335000D01*
X59414126Y-52335000D01*
X59033720Y-52492569D01*
X58742569Y-52783720D01*
X58585000Y-53164126D01*
X58585000Y-53575874D01*
X58742569Y-53956280D01*
X58860001Y-54073712D01*
X58860000Y-55624613D01*
X57000000Y-57484613D01*
X57000000Y-53153711D01*
X57117431Y-53036280D01*
X57275000Y-52655874D01*
X57275000Y-52244126D01*
X57117431Y-51863720D01*
X56826280Y-51572569D01*
X56445874Y-51415000D01*
X56034126Y-51415000D01*
X55653720Y-51572569D01*
X55362569Y-51863720D01*
X55205000Y-52244126D01*
X55205000Y-52655874D01*
X55362569Y-53036280D01*
X55480000Y-53153711D01*
X55480001Y-58368200D01*
X52876151Y-60972051D01*
X52777431Y-60733720D01*
X52660000Y-60616289D01*
X52660000Y-57494801D01*
X53419802Y-56735000D01*
X53585874Y-56735000D01*
X53966280Y-56577431D01*
X54257431Y-56286280D01*
X54415000Y-55905874D01*
X54415000Y-55494126D01*
X54257431Y-55113720D01*
X53966280Y-54822569D01*
X53585874Y-54665000D01*
X53174126Y-54665000D01*
X52793720Y-54822569D01*
X52502569Y-55113720D01*
X52345000Y-55494126D01*
X52345000Y-55660198D01*
X51415530Y-56589669D01*
X51352071Y-56632071D01*
X51287048Y-56729385D01*
X51180819Y-56527000D01*
X49987000Y-56527000D01*
X49987000Y-57720155D01*
X50216890Y-57841476D01*
X50626924Y-57671645D01*
X51055183Y-57281358D01*
X51141517Y-57097522D01*
X51140000Y-57105149D01*
X51140000Y-57105153D01*
X51125112Y-57180000D01*
X51140000Y-57254847D01*
X51140001Y-60420657D01*
X51107929Y-60372658D01*
X51044476Y-60330260D01*
X48544732Y-57830518D01*
X48502330Y-57767059D01*
X48250938Y-57599084D01*
X48210431Y-57591027D01*
X48390625Y-57470625D01*
X48603843Y-57151522D01*
X48664817Y-57281358D01*
X49093076Y-57671645D01*
X49503110Y-57841476D01*
X49733000Y-57720155D01*
X49733000Y-56527000D01*
X49713000Y-56527000D01*
X49713000Y-56273000D01*
X49733000Y-56273000D01*
X49733000Y-56253000D01*
X49987000Y-56253000D01*
X49987000Y-56273000D01*
X51180819Y-56273000D01*
X51301486Y-56043108D01*
X51055183Y-55518642D01*
X50630214Y-55131353D01*
X50930625Y-54930625D01*
X51138178Y-54620000D01*
X51208157Y-54620000D01*
X51283004Y-54634888D01*
X51357851Y-54620000D01*
X51357856Y-54620000D01*
X51579541Y-54575904D01*
X51830933Y-54407929D01*
X51873335Y-54344470D01*
X57659478Y-48558329D01*
X57722931Y-48515931D01*
X57765329Y-48452478D01*
X57765331Y-48452476D01*
X57865254Y-48302930D01*
X57890906Y-48264539D01*
X57935002Y-48042854D01*
X57935002Y-48042850D01*
X57949890Y-47968003D01*
X57935002Y-47893156D01*
X57935002Y-43619850D01*
X57949891Y-43544998D01*
X57890906Y-43248461D01*
X57722931Y-42997069D01*
X57471539Y-42829094D01*
X57249854Y-42784998D01*
X57175002Y-42770109D01*
X57100150Y-42784998D01*
X56968709Y-42784998D01*
X56836280Y-42652569D01*
X56455874Y-42495000D01*
X56044126Y-42495000D01*
X55663720Y-42652569D01*
X55372569Y-42943720D01*
X55215000Y-43324126D01*
X55215000Y-43735874D01*
X55372569Y-44116280D01*
X55663720Y-44407431D01*
X56044126Y-44565000D01*
X56415003Y-44565000D01*
X56415002Y-46251291D01*
X56196280Y-46032569D01*
X55815874Y-45875000D01*
X55404126Y-45875000D01*
X55023720Y-46032569D01*
X54876289Y-46180000D01*
X52603711Y-46180000D01*
X52486280Y-46062569D01*
X52105874Y-45905000D01*
X51694126Y-45905000D01*
X51313720Y-46062569D01*
X51022569Y-46353720D01*
X50865000Y-46734126D01*
X50865000Y-47145874D01*
X50960312Y-47375977D01*
X50922569Y-47413720D01*
X50765000Y-47794126D01*
X50765000Y-48205874D01*
X50922569Y-48586280D01*
X51213720Y-48877431D01*
X51594126Y-49035000D01*
X52005874Y-49035000D01*
X52386280Y-48877431D01*
X52503711Y-48760000D01*
X55308201Y-48760000D01*
X51070096Y-52998107D01*
X50930625Y-52789375D01*
X50439418Y-52461161D01*
X50006256Y-52375000D01*
X49713744Y-52375000D01*
X49280582Y-52461161D01*
X48789375Y-52789375D01*
X48590000Y-53087761D01*
X48390625Y-52789375D01*
X47899418Y-52461161D01*
X47466256Y-52375000D01*
X47173744Y-52375000D01*
X46740582Y-52461161D01*
X46249375Y-52789375D01*
X46050000Y-53087761D01*
X45850625Y-52789375D01*
X45359418Y-52461161D01*
X44926256Y-52375000D01*
X44633744Y-52375000D01*
X44200582Y-52461161D01*
X43709375Y-52789375D01*
X43510000Y-53087761D01*
X43310625Y-52789375D01*
X42819418Y-52461161D01*
X42386256Y-52375000D01*
X42093744Y-52375000D01*
X41660582Y-52461161D01*
X41169375Y-52789375D01*
X40970000Y-53087761D01*
X40770625Y-52789375D01*
X40279418Y-52461161D01*
X39846256Y-52375000D01*
X39553744Y-52375000D01*
X39120582Y-52461161D01*
X38629375Y-52789375D01*
X38301161Y-53280582D01*
X38185908Y-53860000D01*
X38258791Y-54226407D01*
X36305530Y-56179669D01*
X36242071Y-56222071D01*
X36074096Y-56473464D01*
X36030000Y-56695149D01*
X36030000Y-56695153D01*
X36015112Y-56770000D01*
X26387432Y-56770000D01*
X26866054Y-54448621D01*
X27496794Y-52150904D01*
X28274496Y-49898679D01*
X29195919Y-47701336D01*
X30257220Y-45568035D01*
X31453977Y-43507668D01*
X32781198Y-41528825D01*
X34233353Y-39639756D01*
X35804387Y-37848335D01*
X37487751Y-36162031D01*
X39276427Y-34587873D01*
X41162959Y-33132423D01*
X43139482Y-31801750D01*
X45197757Y-30601399D01*
X47329203Y-29536376D01*
X49524934Y-28611120D01*
X51775798Y-27829488D01*
X54072411Y-27194739D01*
X56405198Y-26709518D01*
X58764436Y-26375849D01*
X61140288Y-26195123D01*
X63522851Y-26168093D01*
X65902192Y-26294871D01*
X65902192Y-26294871D01*
G37*
X65902192Y-26294871D02*
X68268392Y-26574929D01*
X70611587Y-27007100D01*
X72922009Y-27589582D01*
X75190027Y-28319946D01*
X77406185Y-29195149D01*
X79561245Y-30211541D01*
X81646223Y-31364886D01*
X83652426Y-32650375D01*
X85571493Y-34062649D01*
X87395422Y-35595822D01*
X89116610Y-37243501D01*
X90727882Y-38998819D01*
X92222521Y-40854456D01*
X93594296Y-42802678D01*
X94837489Y-44835363D01*
X95946916Y-46944038D01*
X96917953Y-49119911D01*
X97746552Y-51353911D01*
X98429259Y-53636727D01*
X98963227Y-55958841D01*
X99346231Y-58310573D01*
X99576674Y-60682120D01*
X99653595Y-63063594D01*
X99646794Y-63772049D01*
X99524169Y-66151607D01*
X99248241Y-68518293D01*
X98820160Y-70862239D01*
X98241712Y-73173674D01*
X97515307Y-75442963D01*
X96643973Y-77660645D01*
X95631344Y-79817476D01*
X94481640Y-81904463D01*
X93199654Y-83912907D01*
X91790731Y-85834436D01*
X90260744Y-87661038D01*
X88616072Y-89385100D01*
X86863569Y-90999433D01*
X85010543Y-92497308D01*
X83064718Y-93872481D01*
X81034206Y-95119220D01*
X78927471Y-96232325D01*
X76753296Y-97207159D01*
X74520745Y-98039656D01*
X72239124Y-98726345D01*
X69917946Y-99264366D01*
X67566886Y-99651474D01*
X65195745Y-99886055D01*
X62814409Y-99967133D01*
X60432804Y-99894368D01*
X58060859Y-99668065D01*
X55708462Y-99289166D01*
X53385420Y-98759251D01*
X51101416Y-98080530D01*
X48865972Y-97255831D01*
X46688408Y-96288593D01*
X44577800Y-95182848D01*
X42542949Y-93943205D01*
X40592335Y-92574833D01*
X38734092Y-91083435D01*
X36975965Y-89475229D01*
X35325284Y-87756919D01*
X33788931Y-85935668D01*
X32373309Y-84019070D01*
X31084320Y-82015112D01*
X29927338Y-79932151D01*
X29304213Y-78616890D01*
X47508524Y-78616890D01*
X47678355Y-79026924D01*
X48068642Y-79455183D01*
X48593108Y-79701486D01*
X48823000Y-79580819D01*
X48823000Y-78387000D01*
X47629845Y-78387000D01*
X47508524Y-78616890D01*
X29304213Y-78616890D01*
X28907186Y-77778868D01*
X28028117Y-75564241D01*
X27293795Y-73297502D01*
X26707282Y-70988100D01*
X26271022Y-68645662D01*
X25986834Y-66279954D01*
X25855904Y-63900838D01*
X25878776Y-61518232D01*
X26055355Y-59142068D01*
X26384906Y-56782252D01*
X26387432Y-56770000D01*
X36015112Y-56770000D01*
X36030000Y-56844847D01*
X36030001Y-58025149D01*
X36015112Y-58100000D01*
X36030001Y-58174852D01*
X36074097Y-58396537D01*
X36242072Y-58647929D01*
X36305528Y-58690329D01*
X41209662Y-63594465D01*
X41252060Y-63657918D01*
X41315513Y-63700316D01*
X41315515Y-63700318D01*
X41422869Y-63772049D01*
X41503452Y-63825893D01*
X41725137Y-63869989D01*
X41725141Y-63869989D01*
X41799988Y-63884877D01*
X41874835Y-63869989D01*
X43578508Y-63869989D01*
X43653355Y-63884877D01*
X43728202Y-63869989D01*
X43728207Y-63869989D01*
X43949892Y-63825893D01*
X44201284Y-63657918D01*
X44243686Y-63594459D01*
X45932943Y-61905203D01*
X45932942Y-67292256D01*
X44780199Y-68445000D01*
X44614126Y-68445000D01*
X44233720Y-68602569D01*
X43942569Y-68893720D01*
X43785000Y-69274126D01*
X43785000Y-69685874D01*
X43942569Y-70066280D01*
X44233720Y-70357431D01*
X44614126Y-70515000D01*
X45025874Y-70515000D01*
X45406280Y-70357431D01*
X45697431Y-70066280D01*
X45702087Y-70055039D01*
X46064126Y-70205000D01*
X46475874Y-70205000D01*
X46856280Y-70047431D01*
X47147431Y-69756280D01*
X47305000Y-69375874D01*
X47305000Y-69209801D01*
X47471182Y-69043620D01*
X47501843Y-69197765D01*
X47642191Y-69407809D01*
X47852235Y-69548157D01*
X47897619Y-69557184D01*
X47879375Y-69569375D01*
X47551161Y-70060582D01*
X47435908Y-70640000D01*
X47551161Y-71219418D01*
X47879375Y-71710625D01*
X48177761Y-71910000D01*
X47879375Y-72109375D01*
X47551161Y-72600582D01*
X47435908Y-73180000D01*
X47551161Y-73759418D01*
X47879375Y-74250625D01*
X48177761Y-74450000D01*
X47879375Y-74649375D01*
X47551161Y-75140582D01*
X47435908Y-75720000D01*
X47551161Y-76299418D01*
X47879375Y-76790625D01*
X48198478Y-77003843D01*
X48068642Y-77064817D01*
X47678355Y-77493076D01*
X47508524Y-77903110D01*
X47629845Y-78133000D01*
X48823000Y-78133000D01*
X48823000Y-78113000D01*
X49077000Y-78113000D01*
X49077000Y-78133000D01*
X49097000Y-78133000D01*
X49097000Y-78387000D01*
X49077000Y-78387000D01*
X49077000Y-79580819D01*
X49306892Y-79701486D01*
X49831358Y-79455183D01*
X50218647Y-79030214D01*
X50419375Y-79330625D01*
X50910582Y-79658839D01*
X51343744Y-79745000D01*
X51636256Y-79745000D01*
X52069418Y-79658839D01*
X52560625Y-79330625D01*
X52765162Y-79024513D01*
X52787851Y-79020000D01*
X52787856Y-79020000D01*
X53009541Y-78975904D01*
X53260933Y-78807929D01*
X53303335Y-78744470D01*
X53480915Y-78566890D01*
X72758524Y-78566890D01*
X72928355Y-78976924D01*
X73318642Y-79405183D01*
X73843108Y-79651486D01*
X74073000Y-79530819D01*
X74073000Y-78337000D01*
X72879845Y-78337000D01*
X72758524Y-78566890D01*
X53480915Y-78566890D01*
X58414476Y-73633331D01*
X58415000Y-73632981D01*
X58415000Y-73655874D01*
X58572569Y-74036280D01*
X58863720Y-74327431D01*
X59244126Y-74485000D01*
X59655874Y-74485000D01*
X60036280Y-74327431D01*
X60327431Y-74036280D01*
X60485000Y-73655874D01*
X60485000Y-73244126D01*
X60327431Y-72863720D01*
X60036280Y-72572569D01*
X59655874Y-72415000D01*
X59489802Y-72415000D01*
X58690000Y-71615199D01*
X58690000Y-68733711D01*
X58833720Y-68877431D01*
X59214126Y-69035000D01*
X59625874Y-69035000D01*
X60006280Y-68877431D01*
X60123711Y-68760000D01*
X67886289Y-68760000D01*
X68003720Y-68877431D01*
X68384126Y-69035000D01*
X68795874Y-69035000D01*
X69176280Y-68877431D01*
X69467431Y-68586280D01*
X69625000Y-68205874D01*
X69625000Y-67794126D01*
X69467431Y-67413720D01*
X69176280Y-67122569D01*
X68795874Y-66965000D01*
X68384126Y-66965000D01*
X68003720Y-67122569D01*
X67886289Y-67240000D01*
X60123711Y-67240000D01*
X60006280Y-67122569D01*
X59625874Y-66965000D01*
X59214126Y-66965000D01*
X58965000Y-67068191D01*
X58965000Y-66944126D01*
X58807431Y-66563720D01*
X58516280Y-66272569D01*
X58135874Y-66115000D01*
X57724126Y-66115000D01*
X57343720Y-66272569D01*
X57052569Y-66563720D01*
X57010618Y-66665000D01*
X56614126Y-66665000D01*
X56233720Y-66822569D01*
X55942569Y-67113720D01*
X55785000Y-67494126D01*
X55785000Y-67905874D01*
X55942569Y-68286280D01*
X56060000Y-68403711D01*
X56060001Y-70075196D01*
X52995980Y-73139218D01*
X52888839Y-72600582D01*
X52560625Y-72109375D01*
X52262239Y-71910000D01*
X52560625Y-71710625D01*
X52888839Y-71219418D01*
X53004092Y-70640000D01*
X52888839Y-70060582D01*
X52560625Y-69569375D01*
X52262239Y-69370000D01*
X52560625Y-69170625D01*
X52768369Y-68859714D01*
X52988618Y-68815904D01*
X53240010Y-68647929D01*
X53282412Y-68584470D01*
X56964484Y-64902399D01*
X57027940Y-64859999D01*
X57195915Y-64608607D01*
X57240011Y-64386922D01*
X57240011Y-64386917D01*
X57254899Y-64312070D01*
X57240011Y-64237223D01*
X57240011Y-63424790D01*
X62074802Y-58590000D01*
X65725153Y-58590000D01*
X65800000Y-58604888D01*
X65874847Y-58590000D01*
X66205199Y-58590000D01*
X74167758Y-66552560D01*
X73350000Y-66552560D01*
X73102235Y-66601843D01*
X72892191Y-66742191D01*
X72751843Y-66952235D01*
X72702560Y-67200000D01*
X72702560Y-68900000D01*
X72751843Y-69147765D01*
X72892191Y-69357809D01*
X73102235Y-69498157D01*
X73147619Y-69507184D01*
X73129375Y-69519375D01*
X72801161Y-70010582D01*
X72685908Y-70590000D01*
X72801161Y-71169418D01*
X73129375Y-71660625D01*
X73427761Y-71860000D01*
X73129375Y-72059375D01*
X72801161Y-72550582D01*
X72685908Y-73130000D01*
X72801161Y-73709418D01*
X73129375Y-74200625D01*
X73427761Y-74400000D01*
X73129375Y-74599375D01*
X72801161Y-75090582D01*
X72685908Y-75670000D01*
X72801161Y-76249418D01*
X72808587Y-76260532D01*
X69297794Y-76260532D01*
X69222947Y-76245644D01*
X69148100Y-76260532D01*
X69148096Y-76260532D01*
X68926411Y-76304628D01*
X68805331Y-76385531D01*
X68617075Y-76385531D01*
X68236669Y-76543100D01*
X67945518Y-76834251D01*
X67787949Y-77214657D01*
X67787949Y-77626405D01*
X67945518Y-78006811D01*
X68236669Y-78297962D01*
X68617075Y-78455531D01*
X69028823Y-78455531D01*
X69409229Y-78297962D01*
X69700380Y-78006811D01*
X69794108Y-77780532D01*
X72788585Y-77780532D01*
X72758524Y-77853110D01*
X72879845Y-78083000D01*
X74073000Y-78083000D01*
X74073000Y-78063000D01*
X74327000Y-78063000D01*
X74327000Y-78083000D01*
X74347000Y-78083000D01*
X74347000Y-78337000D01*
X74327000Y-78337000D01*
X74327000Y-79530819D01*
X74556892Y-79651486D01*
X75081358Y-79405183D01*
X75468647Y-78980214D01*
X75669375Y-79280625D01*
X76160582Y-79608839D01*
X76593744Y-79695000D01*
X76886256Y-79695000D01*
X77319418Y-79608839D01*
X77810625Y-79280625D01*
X78138839Y-78789418D01*
X78245980Y-78250782D01*
X79330001Y-79334804D01*
X79330000Y-80445198D01*
X78660199Y-81115000D01*
X78494126Y-81115000D01*
X78113720Y-81272569D01*
X77822569Y-81563720D01*
X77665000Y-81944126D01*
X77665000Y-82355874D01*
X77822569Y-82736280D01*
X78113720Y-83027431D01*
X78494126Y-83185000D01*
X78905874Y-83185000D01*
X79286280Y-83027431D01*
X79577431Y-82736280D01*
X79735000Y-82355874D01*
X79735000Y-82189801D01*
X80574473Y-81350329D01*
X80637929Y-81307929D01*
X80682088Y-81241840D01*
X80805904Y-81056538D01*
X80815480Y-81008395D01*
X80850000Y-80834852D01*
X80850000Y-80834848D01*
X80864888Y-80760000D01*
X80850000Y-80685152D01*
X80850000Y-79094846D01*
X80864888Y-79019999D01*
X80850000Y-78945152D01*
X80850000Y-78945148D01*
X80805904Y-78723463D01*
X80734694Y-78616890D01*
X80680329Y-78535526D01*
X80680327Y-78535524D01*
X80637929Y-78472071D01*
X80574476Y-78429673D01*
X78398928Y-76254126D01*
X79355000Y-76254126D01*
X79355000Y-76665874D01*
X79512569Y-77046280D01*
X79803720Y-77337431D01*
X80184126Y-77495000D01*
X80595874Y-77495000D01*
X80976280Y-77337431D01*
X81093711Y-77220000D01*
X82765153Y-77220000D01*
X82840000Y-77234888D01*
X82914847Y-77220000D01*
X82914852Y-77220000D01*
X83136537Y-77175904D01*
X83387929Y-77007929D01*
X83430331Y-76944470D01*
X86860545Y-73514256D01*
X86981380Y-73635091D01*
X87361786Y-73792660D01*
X87527859Y-73792660D01*
X89554040Y-75818842D01*
X89554040Y-75992405D01*
X89711609Y-76372811D01*
X90002760Y-76663962D01*
X90383166Y-76821531D01*
X90571422Y-76821531D01*
X90692502Y-76902434D01*
X90914187Y-76946530D01*
X90914191Y-76946530D01*
X90989038Y-76961418D01*
X91063885Y-76946530D01*
X93828623Y-76946530D01*
X93903470Y-76961418D01*
X93978317Y-76946530D01*
X93978322Y-76946530D01*
X94200007Y-76902434D01*
X94451399Y-76734459D01*
X94493801Y-76671000D01*
X95579802Y-75585000D01*
X95745874Y-75585000D01*
X96126280Y-75427431D01*
X96417431Y-75136280D01*
X96575000Y-74755874D01*
X96575000Y-74344126D01*
X96417431Y-73963720D01*
X96253711Y-73800000D01*
X96507431Y-73546280D01*
X96665000Y-73165874D01*
X96665000Y-72754126D01*
X96507431Y-72373720D01*
X96243711Y-72110000D01*
X96417431Y-71936280D01*
X96575000Y-71555874D01*
X96575000Y-71144126D01*
X96417431Y-70763720D01*
X96165182Y-70511471D01*
X96333744Y-70545000D01*
X96626256Y-70545000D01*
X97059418Y-70458839D01*
X97550625Y-70130625D01*
X97878839Y-69639418D01*
X97994092Y-69060000D01*
X97878839Y-68480582D01*
X97550625Y-67989375D01*
X97252239Y-67790000D01*
X97550625Y-67590625D01*
X97878839Y-67099418D01*
X97994092Y-66520000D01*
X97878839Y-65940582D01*
X97550625Y-65449375D01*
X97252239Y-65250000D01*
X97550625Y-65050625D01*
X97878839Y-64559418D01*
X97994092Y-63980000D01*
X97878839Y-63400582D01*
X97550625Y-62909375D01*
X97252239Y-62710000D01*
X97550625Y-62510625D01*
X97878839Y-62019418D01*
X97994092Y-61440000D01*
X97878839Y-60860582D01*
X97550625Y-60369375D01*
X97252239Y-60170000D01*
X97550625Y-59970625D01*
X97878839Y-59479418D01*
X97994092Y-58900000D01*
X97878839Y-58320582D01*
X97550625Y-57829375D01*
X97059418Y-57501161D01*
X96626256Y-57415000D01*
X96333744Y-57415000D01*
X95900582Y-57501161D01*
X95409375Y-57829375D01*
X95397184Y-57847619D01*
X95388157Y-57802235D01*
X95247809Y-57592191D01*
X95037765Y-57451843D01*
X94790000Y-57402560D01*
X93090000Y-57402560D01*
X92842235Y-57451843D01*
X92632191Y-57592191D01*
X92491843Y-57802235D01*
X92442560Y-58050000D01*
X92442560Y-58140000D01*
X90863711Y-58140000D01*
X90746280Y-58022569D01*
X90365874Y-57865000D01*
X89954126Y-57865000D01*
X89840000Y-57912272D01*
X89840000Y-57734801D01*
X90549802Y-57025000D01*
X90715874Y-57025000D01*
X91096280Y-56867431D01*
X91387431Y-56576280D01*
X91545000Y-56195874D01*
X91545000Y-55784126D01*
X91387431Y-55403720D01*
X91096280Y-55112569D01*
X90715874Y-54955000D01*
X90304126Y-54955000D01*
X89923720Y-55112569D01*
X89632569Y-55403720D01*
X89475000Y-55784126D01*
X89475000Y-55950198D01*
X88595530Y-56829669D01*
X88532071Y-56872071D01*
X88364096Y-57123464D01*
X88320000Y-57345149D01*
X88320000Y-57345153D01*
X88305112Y-57420000D01*
X88320000Y-57494847D01*
X88320001Y-60426288D01*
X88202569Y-60543720D01*
X88045000Y-60924126D01*
X88045000Y-61335874D01*
X88202569Y-61716280D01*
X88493720Y-62007431D01*
X88874126Y-62165000D01*
X89285874Y-62165000D01*
X89666280Y-62007431D01*
X89957431Y-61716280D01*
X90115000Y-61335874D01*
X90115000Y-60924126D01*
X89957431Y-60543720D01*
X89840000Y-60426289D01*
X89840000Y-59887728D01*
X89954126Y-59935000D01*
X90365874Y-59935000D01*
X90746280Y-59777431D01*
X90863711Y-59660000D01*
X92442560Y-59660000D01*
X92442560Y-59750000D01*
X92491843Y-59997765D01*
X92632191Y-60207809D01*
X92842235Y-60348157D01*
X92887619Y-60357184D01*
X92869375Y-60369375D01*
X92541161Y-60860582D01*
X92425908Y-61440000D01*
X92541161Y-62019418D01*
X92869375Y-62510625D01*
X93167761Y-62710000D01*
X92869375Y-62909375D01*
X92541161Y-63400582D01*
X92425908Y-63980000D01*
X92541161Y-64559418D01*
X92869375Y-65050625D01*
X93167761Y-65250000D01*
X92869375Y-65449375D01*
X92541161Y-65940582D01*
X92425908Y-66520000D01*
X92541161Y-67099418D01*
X92869375Y-67590625D01*
X93188478Y-67803843D01*
X93058642Y-67864817D01*
X92668355Y-68293076D01*
X92498524Y-68703110D01*
X92619845Y-68933000D01*
X93813000Y-68933000D01*
X93813000Y-68913000D01*
X94067000Y-68913000D01*
X94067000Y-68933000D01*
X94087000Y-68933000D01*
X94087000Y-69187000D01*
X94067000Y-69187000D01*
X94067000Y-70380819D01*
X94296892Y-70501486D01*
X94545000Y-70384968D01*
X94545000Y-71040147D01*
X94542164Y-71054403D01*
X94505000Y-71144126D01*
X94505000Y-71555874D01*
X94662569Y-71936280D01*
X94926289Y-72200000D01*
X94910603Y-72215686D01*
X94767778Y-72244096D01*
X94516386Y-72412071D01*
X94473986Y-72475527D01*
X93769845Y-73179669D01*
X93706386Y-73222071D01*
X93538411Y-73473464D01*
X93494315Y-73695149D01*
X93494315Y-73695153D01*
X93479427Y-73770000D01*
X93494315Y-73844847D01*
X93494316Y-74660883D01*
X93205199Y-74950000D01*
X91964802Y-74950000D01*
X88655000Y-71640199D01*
X88655000Y-71474126D01*
X88497431Y-71093720D01*
X88206280Y-70802569D01*
X87825874Y-70645000D01*
X87414126Y-70645000D01*
X87033720Y-70802569D01*
X86742569Y-71093720D01*
X86585000Y-71474126D01*
X86585000Y-71640198D01*
X82525199Y-75700000D01*
X81093711Y-75700000D01*
X80976280Y-75582569D01*
X80595874Y-75425000D01*
X80184126Y-75425000D01*
X79803720Y-75582569D01*
X79512569Y-75873720D01*
X79355000Y-76254126D01*
X78398928Y-76254126D01*
X78181209Y-76036408D01*
X78254092Y-75670000D01*
X78138839Y-75090582D01*
X77810625Y-74599375D01*
X77512239Y-74400000D01*
X77810625Y-74200625D01*
X78138839Y-73709418D01*
X78254092Y-73130000D01*
X78138839Y-72550582D01*
X77810625Y-72059375D01*
X77512239Y-71860000D01*
X77810625Y-71660625D01*
X78138839Y-71169418D01*
X78254092Y-70590000D01*
X78138839Y-70010582D01*
X77810625Y-69519375D01*
X77512239Y-69320000D01*
X77810625Y-69120625D01*
X78138839Y-68629418D01*
X78254092Y-68050000D01*
X78138839Y-67470582D01*
X77810625Y-66979375D01*
X77319418Y-66651161D01*
X76886256Y-66565000D01*
X76593744Y-66565000D01*
X76373593Y-66608791D01*
X67234801Y-57470000D01*
X69984803Y-54720000D01*
X74811822Y-54720000D01*
X75019375Y-55030625D01*
X75037619Y-55042816D01*
X74992235Y-55051843D01*
X74782191Y-55192191D01*
X74641843Y-55402235D01*
X74592560Y-55650000D01*
X74592560Y-57350000D01*
X74641843Y-57597765D01*
X74782191Y-57807809D01*
X74992235Y-57948157D01*
X75240000Y-57997440D01*
X75330001Y-57997440D01*
X75330000Y-62395153D01*
X75315112Y-62470000D01*
X75330000Y-62544847D01*
X75330000Y-62544851D01*
X75374096Y-62766536D01*
X75542071Y-63017929D01*
X75605530Y-63060331D01*
X76665000Y-64119802D01*
X76665000Y-64285874D01*
X76822569Y-64666280D01*
X77113720Y-64957431D01*
X77494126Y-65115000D01*
X77905874Y-65115000D01*
X78286280Y-64957431D01*
X78577431Y-64666280D01*
X78735000Y-64285874D01*
X78735000Y-63874126D01*
X78577431Y-63493720D01*
X78286280Y-63202569D01*
X77905874Y-63045000D01*
X77739802Y-63045000D01*
X76850000Y-62155199D01*
X76850000Y-57997440D01*
X76940000Y-57997440D01*
X77187765Y-57948157D01*
X77397809Y-57807809D01*
X77538157Y-57597765D01*
X77547184Y-57552381D01*
X77559375Y-57570625D01*
X78050582Y-57898839D01*
X78483744Y-57985000D01*
X78776256Y-57985000D01*
X79209418Y-57898839D01*
X79700625Y-57570625D01*
X79900000Y-57272239D01*
X80099375Y-57570625D01*
X80410000Y-57778178D01*
X80410001Y-59781244D01*
X80395112Y-59856096D01*
X80454097Y-60152633D01*
X80529132Y-60264930D01*
X80622072Y-60404025D01*
X80685527Y-60446424D01*
X81136219Y-60897118D01*
X81136219Y-61063189D01*
X81293788Y-61443595D01*
X81584939Y-61734746D01*
X81965345Y-61892315D01*
X82377093Y-61892315D01*
X82757499Y-61734746D01*
X83048650Y-61443595D01*
X83122626Y-61265000D01*
X83155874Y-61265000D01*
X83536280Y-61107431D01*
X83827431Y-60816280D01*
X83985000Y-60435874D01*
X83985000Y-60024126D01*
X83827431Y-59643720D01*
X83536280Y-59352569D01*
X83155874Y-59195000D01*
X83105001Y-59195000D01*
X83105001Y-57881746D01*
X83130582Y-57898839D01*
X83563744Y-57985000D01*
X83856256Y-57985000D01*
X84087233Y-57939056D01*
X84032569Y-57993720D01*
X83875000Y-58374126D01*
X83875000Y-58785874D01*
X84032569Y-59166280D01*
X84323720Y-59457431D01*
X84704126Y-59615000D01*
X84870199Y-59615000D01*
X86257929Y-61002731D01*
X86192981Y-61002731D01*
X85812575Y-61160300D01*
X85521424Y-61451451D01*
X85363855Y-61831857D01*
X85363855Y-61997929D01*
X82841785Y-64520000D01*
X80263711Y-64520000D01*
X80146280Y-64402569D01*
X79765874Y-64245000D01*
X79354126Y-64245000D01*
X78973720Y-64402569D01*
X78682569Y-64693720D01*
X78525000Y-65074126D01*
X78525000Y-65485874D01*
X78682569Y-65866280D01*
X78973720Y-66157431D01*
X79354126Y-66315000D01*
X79765874Y-66315000D01*
X80146280Y-66157431D01*
X80263711Y-66040000D01*
X80945198Y-66040000D01*
X80270199Y-66715000D01*
X80104126Y-66715000D01*
X79723720Y-66872569D01*
X79432569Y-67163720D01*
X79275000Y-67544126D01*
X79275000Y-67955874D01*
X79432569Y-68336280D01*
X79723720Y-68627431D01*
X80104126Y-68785000D01*
X80515874Y-68785000D01*
X80896280Y-68627431D01*
X81187431Y-68336280D01*
X81345000Y-67955874D01*
X81345000Y-67789801D01*
X82644791Y-66490011D01*
X82715114Y-66490011D01*
X82715114Y-66598737D01*
X82872683Y-66979143D01*
X83139019Y-67245479D01*
X81254499Y-69130000D01*
X81133711Y-69130000D01*
X81016280Y-69012569D01*
X80635874Y-68855000D01*
X80224126Y-68855000D01*
X79843720Y-69012569D01*
X79552569Y-69303720D01*
X79395000Y-69684126D01*
X79395000Y-70095874D01*
X79552569Y-70476280D01*
X79576289Y-70500000D01*
X79552569Y-70523720D01*
X79395000Y-70904126D01*
X79395000Y-71315874D01*
X79528388Y-71637901D01*
X79472569Y-71693720D01*
X79315000Y-72074126D01*
X79315000Y-72485874D01*
X79472569Y-72866280D01*
X79763720Y-73157431D01*
X80144126Y-73315000D01*
X80555874Y-73315000D01*
X80936280Y-73157431D01*
X81053711Y-73040000D01*
X81319080Y-73040000D01*
X81393927Y-73054888D01*
X81468774Y-73040000D01*
X81468779Y-73040000D01*
X81690464Y-72995904D01*
X81941856Y-72827929D01*
X81984258Y-72764470D01*
X85331838Y-69416890D01*
X92498524Y-69416890D01*
X92668355Y-69826924D01*
X93058642Y-70255183D01*
X93583108Y-70501486D01*
X93813000Y-70380819D01*
X93813000Y-69187000D01*
X92619845Y-69187000D01*
X92498524Y-69416890D01*
X85331838Y-69416890D01*
X86280944Y-68467785D01*
X86447016Y-68467785D01*
X86827422Y-68310216D01*
X86957638Y-68180000D01*
X89406289Y-68180000D01*
X89523720Y-68297431D01*
X89904126Y-68455000D01*
X90315874Y-68455000D01*
X90696280Y-68297431D01*
X90987431Y-68006280D01*
X91145000Y-67625874D01*
X91145000Y-67214126D01*
X91012814Y-66895000D01*
X91145000Y-66575874D01*
X91145000Y-66164126D01*
X90987431Y-65783720D01*
X90949494Y-65745783D01*
X91016441Y-65584160D01*
X91016441Y-65172412D01*
X90883032Y-64850332D01*
X91005000Y-64555874D01*
X91005000Y-64144126D01*
X90874217Y-63828388D01*
X90992340Y-63543214D01*
X90992340Y-63131466D01*
X90834771Y-62751060D01*
X90543620Y-62459909D01*
X90163214Y-62302340D01*
X89751466Y-62302340D01*
X89371060Y-62459909D01*
X89079909Y-62751060D01*
X88986181Y-62977339D01*
X87777876Y-62977339D01*
X87777928Y-62977304D01*
X87945903Y-62725912D01*
X87989999Y-62504227D01*
X87989999Y-62504223D01*
X88004887Y-62429375D01*
X87989999Y-62354527D01*
X87989999Y-60954851D01*
X88004888Y-60879999D01*
X87945903Y-60583462D01*
X87777928Y-60332070D01*
X87654198Y-60249396D01*
X85945000Y-58540199D01*
X85945000Y-58374126D01*
X85787431Y-57993720D01*
X85623531Y-57829820D01*
X85893110Y-57941476D01*
X86123000Y-57820155D01*
X86123000Y-56627000D01*
X86377000Y-56627000D01*
X86377000Y-57820155D01*
X86606890Y-57941476D01*
X87016924Y-57771645D01*
X87445183Y-57381358D01*
X87691486Y-56856892D01*
X87570819Y-56627000D01*
X86377000Y-56627000D01*
X86123000Y-56627000D01*
X86103000Y-56627000D01*
X86103000Y-56373000D01*
X86123000Y-56373000D01*
X86123000Y-56353000D01*
X86377000Y-56353000D01*
X86377000Y-56373000D01*
X87570819Y-56373000D01*
X87691486Y-56143108D01*
X87445183Y-55618642D01*
X87020214Y-55231353D01*
X87320625Y-55030625D01*
X87648839Y-54539418D01*
X87764092Y-53960000D01*
X87648839Y-53380582D01*
X87320625Y-52889375D01*
X86829418Y-52561161D01*
X86396256Y-52475000D01*
X86103744Y-52475000D01*
X85670582Y-52561161D01*
X85179375Y-52889375D01*
X84980000Y-53187761D01*
X84780625Y-52889375D01*
X84289418Y-52561161D01*
X83856256Y-52475000D01*
X83563744Y-52475000D01*
X83130582Y-52561161D01*
X82639375Y-52889375D01*
X82440000Y-53187761D01*
X82240625Y-52889375D01*
X81749418Y-52561161D01*
X81316256Y-52475000D01*
X81023744Y-52475000D01*
X80590582Y-52561161D01*
X80099375Y-52889375D01*
X79900000Y-53187761D01*
X79700625Y-52889375D01*
X79209418Y-52561161D01*
X78776256Y-52475000D01*
X78483744Y-52475000D01*
X78340737Y-52503446D01*
X78435000Y-52275874D01*
X78435000Y-51864126D01*
X78277431Y-51483720D01*
X78248710Y-51454999D01*
X78332430Y-51371279D01*
X78489999Y-50990873D01*
X78489999Y-50579125D01*
X78400546Y-50363165D01*
X78437431Y-50326280D01*
X78595000Y-49945874D01*
X78595000Y-49534126D01*
X78437431Y-49153720D01*
X78413711Y-49130000D01*
X78517431Y-49026280D01*
X78675000Y-48645874D01*
X78675000Y-48234126D01*
X78517431Y-47853720D01*
X78226280Y-47562569D01*
X77845874Y-47405000D01*
X77434126Y-47405000D01*
X77053720Y-47562569D01*
X76762569Y-47853720D01*
X76605000Y-48234126D01*
X76605000Y-48400199D01*
X76375199Y-48630000D01*
X74444802Y-48630000D01*
X71640000Y-45825199D01*
X71640000Y-45314846D01*
X71654888Y-45239999D01*
X71640000Y-45165152D01*
X71640000Y-45165148D01*
X71595904Y-44943463D01*
X71427929Y-44692071D01*
X71364473Y-44649671D01*
X70645000Y-43930199D01*
X70645000Y-43764126D01*
X70487431Y-43383720D01*
X70196280Y-43092569D01*
X69815874Y-42935000D01*
X69404126Y-42935000D01*
X69023720Y-43092569D01*
X68732569Y-43383720D01*
X68575000Y-43764126D01*
X68575000Y-44175874D01*
X68688044Y-44448787D01*
X68545000Y-44794126D01*
X68545000Y-45205874D01*
X68702569Y-45586280D01*
X68726783Y-45610494D01*
X68612340Y-45886786D01*
X68612340Y-46298534D01*
X68769909Y-46678940D01*
X68788629Y-46697660D01*
X68662569Y-46823720D01*
X68514937Y-47180135D01*
X65741209Y-44406408D01*
X65814092Y-44040000D01*
X65698839Y-43460582D01*
X65370625Y-42969375D01*
X65072239Y-42770000D01*
X65370625Y-42570625D01*
X65698839Y-42079418D01*
X65814092Y-41500000D01*
X65698839Y-40920582D01*
X65370625Y-40429375D01*
X65051522Y-40216157D01*
X65181358Y-40155183D01*
X65571645Y-39726924D01*
X65741476Y-39316890D01*
X65620155Y-39087000D01*
X64427000Y-39087000D01*
X64427000Y-39107000D01*
X64173000Y-39107000D01*
X64173000Y-39087000D01*
X64153000Y-39087000D01*
X64153000Y-38833000D01*
X64173000Y-38833000D01*
X64173000Y-37639181D01*
X64427000Y-37639181D01*
X64427000Y-38833000D01*
X65620155Y-38833000D01*
X65741476Y-38603110D01*
X65571645Y-38193076D01*
X65181358Y-37764817D01*
X64656892Y-37518514D01*
X64427000Y-37639181D01*
X64173000Y-37639181D01*
X63943108Y-37518514D01*
X63418642Y-37764817D01*
X63031353Y-38189786D01*
X62830625Y-37889375D01*
X62339418Y-37561161D01*
X61906256Y-37475000D01*
X61613744Y-37475000D01*
X61180582Y-37561161D01*
X60689375Y-37889375D01*
X60361161Y-38380582D01*
X60245908Y-38960000D01*
X60361161Y-39539418D01*
X60689375Y-40030625D01*
X60987761Y-40230000D01*
X60689375Y-40429375D01*
X60361161Y-40920582D01*
X60245908Y-41500000D01*
X60361161Y-42079418D01*
X60689375Y-42570625D01*
X60987761Y-42770000D01*
X60689375Y-42969375D01*
X60361161Y-43460582D01*
X60245908Y-44040000D01*
X60361161Y-44619418D01*
X60689375Y-45110625D01*
X60987761Y-45310000D01*
X60689375Y-45509375D01*
X60361161Y-46000582D01*
X60245908Y-46580000D01*
X60361161Y-47159418D01*
X60689375Y-47650625D01*
X60987761Y-47850000D01*
X60689375Y-48049375D01*
X60361161Y-48540582D01*
X60245908Y-49120000D01*
X60361161Y-49699418D01*
X60689375Y-50190625D01*
X61000001Y-50398179D01*
X61000000Y-57515198D01*
X56165210Y-62349989D01*
X54284227Y-62349989D01*
X60104473Y-56529744D01*
X60167929Y-56487344D01*
X60335904Y-56235952D01*
X60380000Y-56014267D01*
X60380000Y-56014262D01*
X60394888Y-55939415D01*
X60380000Y-55864568D01*
X60380000Y-54073711D01*
X60497431Y-53956280D01*
X60655000Y-53575874D01*
X60655000Y-53164126D01*
X60497431Y-52783720D01*
X60206280Y-52492569D01*
X59825874Y-52335000D01*
X59414126Y-52335000D01*
X59033720Y-52492569D01*
X58742569Y-52783720D01*
X58585000Y-53164126D01*
X58585000Y-53575874D01*
X58742569Y-53956280D01*
X58860001Y-54073712D01*
X58860000Y-55624613D01*
X57000000Y-57484613D01*
X57000000Y-53153711D01*
X57117431Y-53036280D01*
X57275000Y-52655874D01*
X57275000Y-52244126D01*
X57117431Y-51863720D01*
X56826280Y-51572569D01*
X56445874Y-51415000D01*
X56034126Y-51415000D01*
X55653720Y-51572569D01*
X55362569Y-51863720D01*
X55205000Y-52244126D01*
X55205000Y-52655874D01*
X55362569Y-53036280D01*
X55480000Y-53153711D01*
X55480001Y-58368200D01*
X52876151Y-60972051D01*
X52777431Y-60733720D01*
X52660000Y-60616289D01*
X52660000Y-57494801D01*
X53419802Y-56735000D01*
X53585874Y-56735000D01*
X53966280Y-56577431D01*
X54257431Y-56286280D01*
X54415000Y-55905874D01*
X54415000Y-55494126D01*
X54257431Y-55113720D01*
X53966280Y-54822569D01*
X53585874Y-54665000D01*
X53174126Y-54665000D01*
X52793720Y-54822569D01*
X52502569Y-55113720D01*
X52345000Y-55494126D01*
X52345000Y-55660198D01*
X51415530Y-56589669D01*
X51352071Y-56632071D01*
X51287048Y-56729385D01*
X51180819Y-56527000D01*
X49987000Y-56527000D01*
X49987000Y-57720155D01*
X50216890Y-57841476D01*
X50626924Y-57671645D01*
X51055183Y-57281358D01*
X51141517Y-57097522D01*
X51140000Y-57105149D01*
X51140000Y-57105153D01*
X51125112Y-57180000D01*
X51140000Y-57254847D01*
X51140001Y-60420657D01*
X51107929Y-60372658D01*
X51044476Y-60330260D01*
X48544732Y-57830518D01*
X48502330Y-57767059D01*
X48250938Y-57599084D01*
X48210431Y-57591027D01*
X48390625Y-57470625D01*
X48603843Y-57151522D01*
X48664817Y-57281358D01*
X49093076Y-57671645D01*
X49503110Y-57841476D01*
X49733000Y-57720155D01*
X49733000Y-56527000D01*
X49713000Y-56527000D01*
X49713000Y-56273000D01*
X49733000Y-56273000D01*
X49733000Y-56253000D01*
X49987000Y-56253000D01*
X49987000Y-56273000D01*
X51180819Y-56273000D01*
X51301486Y-56043108D01*
X51055183Y-55518642D01*
X50630214Y-55131353D01*
X50930625Y-54930625D01*
X51138178Y-54620000D01*
X51208157Y-54620000D01*
X51283004Y-54634888D01*
X51357851Y-54620000D01*
X51357856Y-54620000D01*
X51579541Y-54575904D01*
X51830933Y-54407929D01*
X51873335Y-54344470D01*
X57659478Y-48558329D01*
X57722931Y-48515931D01*
X57765329Y-48452478D01*
X57765331Y-48452476D01*
X57865254Y-48302930D01*
X57890906Y-48264539D01*
X57935002Y-48042854D01*
X57935002Y-48042850D01*
X57949890Y-47968003D01*
X57935002Y-47893156D01*
X57935002Y-43619850D01*
X57949891Y-43544998D01*
X57890906Y-43248461D01*
X57722931Y-42997069D01*
X57471539Y-42829094D01*
X57249854Y-42784998D01*
X57175002Y-42770109D01*
X57100150Y-42784998D01*
X56968709Y-42784998D01*
X56836280Y-42652569D01*
X56455874Y-42495000D01*
X56044126Y-42495000D01*
X55663720Y-42652569D01*
X55372569Y-42943720D01*
X55215000Y-43324126D01*
X55215000Y-43735874D01*
X55372569Y-44116280D01*
X55663720Y-44407431D01*
X56044126Y-44565000D01*
X56415003Y-44565000D01*
X56415002Y-46251291D01*
X56196280Y-46032569D01*
X55815874Y-45875000D01*
X55404126Y-45875000D01*
X55023720Y-46032569D01*
X54876289Y-46180000D01*
X52603711Y-46180000D01*
X52486280Y-46062569D01*
X52105874Y-45905000D01*
X51694126Y-45905000D01*
X51313720Y-46062569D01*
X51022569Y-46353720D01*
X50865000Y-46734126D01*
X50865000Y-47145874D01*
X50960312Y-47375977D01*
X50922569Y-47413720D01*
X50765000Y-47794126D01*
X50765000Y-48205874D01*
X50922569Y-48586280D01*
X51213720Y-48877431D01*
X51594126Y-49035000D01*
X52005874Y-49035000D01*
X52386280Y-48877431D01*
X52503711Y-48760000D01*
X55308201Y-48760000D01*
X51070096Y-52998107D01*
X50930625Y-52789375D01*
X50439418Y-52461161D01*
X50006256Y-52375000D01*
X49713744Y-52375000D01*
X49280582Y-52461161D01*
X48789375Y-52789375D01*
X48590000Y-53087761D01*
X48390625Y-52789375D01*
X47899418Y-52461161D01*
X47466256Y-52375000D01*
X47173744Y-52375000D01*
X46740582Y-52461161D01*
X46249375Y-52789375D01*
X46050000Y-53087761D01*
X45850625Y-52789375D01*
X45359418Y-52461161D01*
X44926256Y-52375000D01*
X44633744Y-52375000D01*
X44200582Y-52461161D01*
X43709375Y-52789375D01*
X43510000Y-53087761D01*
X43310625Y-52789375D01*
X42819418Y-52461161D01*
X42386256Y-52375000D01*
X42093744Y-52375000D01*
X41660582Y-52461161D01*
X41169375Y-52789375D01*
X40970000Y-53087761D01*
X40770625Y-52789375D01*
X40279418Y-52461161D01*
X39846256Y-52375000D01*
X39553744Y-52375000D01*
X39120582Y-52461161D01*
X38629375Y-52789375D01*
X38301161Y-53280582D01*
X38185908Y-53860000D01*
X38258791Y-54226407D01*
X36305530Y-56179669D01*
X36242071Y-56222071D01*
X36074096Y-56473464D01*
X36030000Y-56695149D01*
X36030000Y-56695153D01*
X36015112Y-56770000D01*
X26387432Y-56770000D01*
X26866054Y-54448621D01*
X27496794Y-52150904D01*
X28274496Y-49898679D01*
X29195919Y-47701336D01*
X30257220Y-45568035D01*
X31453977Y-43507668D01*
X32781198Y-41528825D01*
X34233353Y-39639756D01*
X35804387Y-37848335D01*
X37487751Y-36162031D01*
X39276427Y-34587873D01*
X41162959Y-33132423D01*
X43139482Y-31801750D01*
X45197757Y-30601399D01*
X47329203Y-29536376D01*
X49524934Y-28611120D01*
X51775798Y-27829488D01*
X54072411Y-27194739D01*
X56405198Y-26709518D01*
X58764436Y-26375849D01*
X61140288Y-26195123D01*
X63522851Y-26168093D01*
X65902192Y-26294871D01*
G04 #@! TD*
M02*
