G04 #@! TF.GenerationSoftware,KiCad,Pcbnew,5.0.2-bee76a0~70~ubuntu18.10.1*
G04 #@! TF.CreationDate,2019-05-27T17:13:18+10:00*
G04 #@! TF.ProjectId,mult,6d756c74-2e6b-4696-9361-645f70636258,rev?*
G04 #@! TF.SameCoordinates,Original*
G04 #@! TF.FileFunction,Soldermask,Top*
G04 #@! TF.FilePolarity,Negative*
%FSLAX46Y46*%
G04 Gerber Fmt 4.6, Leading zero omitted, Abs format (unit mm)*
G04 Created by KiCad (PCBNEW 5.0.2-bee76a0~70~ubuntu18.10.1) date Mon 27 May 2019 17:13:18 AEST*
%MOMM*%
%LPD*%
G01*
G04 APERTURE LIST*
%ADD10C,0.100000*%
G04 APERTURE END LIST*
D10*
G36*
X51600443Y-77365519D02*
X51666627Y-77372037D01*
X51779853Y-77406384D01*
X51836467Y-77423557D01*
X51975087Y-77497652D01*
X51992991Y-77507222D01*
X52028729Y-77536552D01*
X52130186Y-77619814D01*
X52213448Y-77721271D01*
X52242778Y-77757009D01*
X52242779Y-77757011D01*
X52326443Y-77913533D01*
X52326443Y-77913534D01*
X52377963Y-78083373D01*
X52395359Y-78260000D01*
X52377963Y-78436627D01*
X52343616Y-78549853D01*
X52326443Y-78606467D01*
X52269505Y-78712989D01*
X52242778Y-78762991D01*
X52213448Y-78798729D01*
X52130186Y-78900186D01*
X52053916Y-78962778D01*
X51992991Y-79012778D01*
X51992989Y-79012779D01*
X51836467Y-79096443D01*
X51788478Y-79111000D01*
X51666627Y-79147963D01*
X51600443Y-79154481D01*
X51534260Y-79161000D01*
X51445740Y-79161000D01*
X51379557Y-79154481D01*
X51313373Y-79147963D01*
X51191522Y-79111000D01*
X51143533Y-79096443D01*
X50987011Y-79012779D01*
X50987009Y-79012778D01*
X50926084Y-78962778D01*
X50849814Y-78900186D01*
X50766552Y-78798729D01*
X50737222Y-78762991D01*
X50710495Y-78712989D01*
X50653557Y-78606467D01*
X50636384Y-78549853D01*
X50602037Y-78436627D01*
X50584641Y-78260000D01*
X50602037Y-78083373D01*
X50653557Y-77913534D01*
X50653557Y-77913533D01*
X50737221Y-77757011D01*
X50737222Y-77757009D01*
X50766552Y-77721271D01*
X50849814Y-77619814D01*
X50951271Y-77536552D01*
X50987009Y-77507222D01*
X51004913Y-77497652D01*
X51143533Y-77423557D01*
X51200147Y-77406384D01*
X51313373Y-77372037D01*
X51379557Y-77365519D01*
X51445740Y-77359000D01*
X51534260Y-77359000D01*
X51600443Y-77365519D01*
X51600443Y-77365519D01*
G37*
G36*
X49060443Y-77365519D02*
X49126627Y-77372037D01*
X49239853Y-77406384D01*
X49296467Y-77423557D01*
X49435087Y-77497652D01*
X49452991Y-77507222D01*
X49488729Y-77536552D01*
X49590186Y-77619814D01*
X49673448Y-77721271D01*
X49702778Y-77757009D01*
X49702779Y-77757011D01*
X49786443Y-77913533D01*
X49786443Y-77913534D01*
X49837963Y-78083373D01*
X49855359Y-78260000D01*
X49837963Y-78436627D01*
X49803616Y-78549853D01*
X49786443Y-78606467D01*
X49729505Y-78712989D01*
X49702778Y-78762991D01*
X49673448Y-78798729D01*
X49590186Y-78900186D01*
X49513916Y-78962778D01*
X49452991Y-79012778D01*
X49452989Y-79012779D01*
X49296467Y-79096443D01*
X49248478Y-79111000D01*
X49126627Y-79147963D01*
X49060443Y-79154481D01*
X48994260Y-79161000D01*
X48905740Y-79161000D01*
X48839557Y-79154481D01*
X48773373Y-79147963D01*
X48651522Y-79111000D01*
X48603533Y-79096443D01*
X48447011Y-79012779D01*
X48447009Y-79012778D01*
X48386084Y-78962778D01*
X48309814Y-78900186D01*
X48226552Y-78798729D01*
X48197222Y-78762991D01*
X48170495Y-78712989D01*
X48113557Y-78606467D01*
X48096384Y-78549853D01*
X48062037Y-78436627D01*
X48044641Y-78260000D01*
X48062037Y-78083373D01*
X48113557Y-77913534D01*
X48113557Y-77913533D01*
X48197221Y-77757011D01*
X48197222Y-77757009D01*
X48226552Y-77721271D01*
X48309814Y-77619814D01*
X48411271Y-77536552D01*
X48447009Y-77507222D01*
X48464913Y-77497652D01*
X48603533Y-77423557D01*
X48660147Y-77406384D01*
X48773373Y-77372037D01*
X48839557Y-77365519D01*
X48905740Y-77359000D01*
X48994260Y-77359000D01*
X49060443Y-77365519D01*
X49060443Y-77365519D01*
G37*
G36*
X74310442Y-77315518D02*
X74376627Y-77322037D01*
X74489853Y-77356384D01*
X74546467Y-77373557D01*
X74640009Y-77423557D01*
X74702991Y-77457222D01*
X74738729Y-77486552D01*
X74840186Y-77569814D01*
X74923448Y-77671271D01*
X74952778Y-77707009D01*
X74952779Y-77707011D01*
X75036443Y-77863533D01*
X75036443Y-77863534D01*
X75087963Y-78033373D01*
X75105359Y-78210000D01*
X75087963Y-78386627D01*
X75053616Y-78499853D01*
X75036443Y-78556467D01*
X75009717Y-78606467D01*
X74952778Y-78712991D01*
X74923448Y-78748729D01*
X74840186Y-78850186D01*
X74738729Y-78933448D01*
X74702991Y-78962778D01*
X74702989Y-78962779D01*
X74546467Y-79046443D01*
X74489853Y-79063616D01*
X74376627Y-79097963D01*
X74310443Y-79104481D01*
X74244260Y-79111000D01*
X74155740Y-79111000D01*
X74089557Y-79104481D01*
X74023373Y-79097963D01*
X73910147Y-79063616D01*
X73853533Y-79046443D01*
X73697011Y-78962779D01*
X73697009Y-78962778D01*
X73661271Y-78933448D01*
X73559814Y-78850186D01*
X73476552Y-78748729D01*
X73447222Y-78712991D01*
X73390283Y-78606467D01*
X73363557Y-78556467D01*
X73346384Y-78499853D01*
X73312037Y-78386627D01*
X73294641Y-78210000D01*
X73312037Y-78033373D01*
X73363557Y-77863534D01*
X73363557Y-77863533D01*
X73447221Y-77707011D01*
X73447222Y-77707009D01*
X73476552Y-77671271D01*
X73559814Y-77569814D01*
X73661271Y-77486552D01*
X73697009Y-77457222D01*
X73759991Y-77423557D01*
X73853533Y-77373557D01*
X73910147Y-77356384D01*
X74023373Y-77322037D01*
X74089558Y-77315518D01*
X74155740Y-77309000D01*
X74244260Y-77309000D01*
X74310442Y-77315518D01*
X74310442Y-77315518D01*
G37*
G36*
X76850442Y-77315518D02*
X76916627Y-77322037D01*
X77029853Y-77356384D01*
X77086467Y-77373557D01*
X77180009Y-77423557D01*
X77242991Y-77457222D01*
X77278729Y-77486552D01*
X77380186Y-77569814D01*
X77463448Y-77671271D01*
X77492778Y-77707009D01*
X77492779Y-77707011D01*
X77576443Y-77863533D01*
X77576443Y-77863534D01*
X77627963Y-78033373D01*
X77645359Y-78210000D01*
X77627963Y-78386627D01*
X77593616Y-78499853D01*
X77576443Y-78556467D01*
X77549717Y-78606467D01*
X77492778Y-78712991D01*
X77463448Y-78748729D01*
X77380186Y-78850186D01*
X77278729Y-78933448D01*
X77242991Y-78962778D01*
X77242989Y-78962779D01*
X77086467Y-79046443D01*
X77029853Y-79063616D01*
X76916627Y-79097963D01*
X76850443Y-79104481D01*
X76784260Y-79111000D01*
X76695740Y-79111000D01*
X76629557Y-79104481D01*
X76563373Y-79097963D01*
X76450147Y-79063616D01*
X76393533Y-79046443D01*
X76237011Y-78962779D01*
X76237009Y-78962778D01*
X76201271Y-78933448D01*
X76099814Y-78850186D01*
X76016552Y-78748729D01*
X75987222Y-78712991D01*
X75930283Y-78606467D01*
X75903557Y-78556467D01*
X75886384Y-78499853D01*
X75852037Y-78386627D01*
X75834641Y-78210000D01*
X75852037Y-78033373D01*
X75903557Y-77863534D01*
X75903557Y-77863533D01*
X75987221Y-77707011D01*
X75987222Y-77707009D01*
X76016552Y-77671271D01*
X76099814Y-77569814D01*
X76201271Y-77486552D01*
X76237009Y-77457222D01*
X76299991Y-77423557D01*
X76393533Y-77373557D01*
X76450147Y-77356384D01*
X76563373Y-77322037D01*
X76629558Y-77315518D01*
X76695740Y-77309000D01*
X76784260Y-77309000D01*
X76850442Y-77315518D01*
X76850442Y-77315518D01*
G37*
G36*
X49060443Y-74825519D02*
X49126627Y-74832037D01*
X49239853Y-74866384D01*
X49296467Y-74883557D01*
X49435087Y-74957652D01*
X49452991Y-74967222D01*
X49488729Y-74996552D01*
X49590186Y-75079814D01*
X49673448Y-75181271D01*
X49702778Y-75217009D01*
X49702779Y-75217011D01*
X49786443Y-75373533D01*
X49786443Y-75373534D01*
X49837963Y-75543373D01*
X49855359Y-75720000D01*
X49837963Y-75896627D01*
X49803616Y-76009853D01*
X49786443Y-76066467D01*
X49729505Y-76172989D01*
X49702778Y-76222991D01*
X49673448Y-76258729D01*
X49590186Y-76360186D01*
X49513916Y-76422778D01*
X49452991Y-76472778D01*
X49452989Y-76472779D01*
X49296467Y-76556443D01*
X49248478Y-76571000D01*
X49126627Y-76607963D01*
X49060442Y-76614482D01*
X48994260Y-76621000D01*
X48905740Y-76621000D01*
X48839558Y-76614482D01*
X48773373Y-76607963D01*
X48651522Y-76571000D01*
X48603533Y-76556443D01*
X48447011Y-76472779D01*
X48447009Y-76472778D01*
X48386084Y-76422778D01*
X48309814Y-76360186D01*
X48226552Y-76258729D01*
X48197222Y-76222991D01*
X48170495Y-76172989D01*
X48113557Y-76066467D01*
X48096384Y-76009853D01*
X48062037Y-75896627D01*
X48044641Y-75720000D01*
X48062037Y-75543373D01*
X48113557Y-75373534D01*
X48113557Y-75373533D01*
X48197221Y-75217011D01*
X48197222Y-75217009D01*
X48226552Y-75181271D01*
X48309814Y-75079814D01*
X48411271Y-74996552D01*
X48447009Y-74967222D01*
X48464913Y-74957652D01*
X48603533Y-74883557D01*
X48660147Y-74866384D01*
X48773373Y-74832037D01*
X48839557Y-74825519D01*
X48905740Y-74819000D01*
X48994260Y-74819000D01*
X49060443Y-74825519D01*
X49060443Y-74825519D01*
G37*
G36*
X51600443Y-74825519D02*
X51666627Y-74832037D01*
X51779853Y-74866384D01*
X51836467Y-74883557D01*
X51975087Y-74957652D01*
X51992991Y-74967222D01*
X52028729Y-74996552D01*
X52130186Y-75079814D01*
X52213448Y-75181271D01*
X52242778Y-75217009D01*
X52242779Y-75217011D01*
X52326443Y-75373533D01*
X52326443Y-75373534D01*
X52377963Y-75543373D01*
X52395359Y-75720000D01*
X52377963Y-75896627D01*
X52343616Y-76009853D01*
X52326443Y-76066467D01*
X52269505Y-76172989D01*
X52242778Y-76222991D01*
X52213448Y-76258729D01*
X52130186Y-76360186D01*
X52053916Y-76422778D01*
X51992991Y-76472778D01*
X51992989Y-76472779D01*
X51836467Y-76556443D01*
X51788478Y-76571000D01*
X51666627Y-76607963D01*
X51600442Y-76614482D01*
X51534260Y-76621000D01*
X51445740Y-76621000D01*
X51379558Y-76614482D01*
X51313373Y-76607963D01*
X51191522Y-76571000D01*
X51143533Y-76556443D01*
X50987011Y-76472779D01*
X50987009Y-76472778D01*
X50926084Y-76422778D01*
X50849814Y-76360186D01*
X50766552Y-76258729D01*
X50737222Y-76222991D01*
X50710495Y-76172989D01*
X50653557Y-76066467D01*
X50636384Y-76009853D01*
X50602037Y-75896627D01*
X50584641Y-75720000D01*
X50602037Y-75543373D01*
X50653557Y-75373534D01*
X50653557Y-75373533D01*
X50737221Y-75217011D01*
X50737222Y-75217009D01*
X50766552Y-75181271D01*
X50849814Y-75079814D01*
X50951271Y-74996552D01*
X50987009Y-74967222D01*
X51004913Y-74957652D01*
X51143533Y-74883557D01*
X51200147Y-74866384D01*
X51313373Y-74832037D01*
X51379557Y-74825519D01*
X51445740Y-74819000D01*
X51534260Y-74819000D01*
X51600443Y-74825519D01*
X51600443Y-74825519D01*
G37*
G36*
X74310443Y-74775519D02*
X74376627Y-74782037D01*
X74489853Y-74816384D01*
X74546467Y-74833557D01*
X74640009Y-74883557D01*
X74702991Y-74917222D01*
X74738729Y-74946552D01*
X74840186Y-75029814D01*
X74923448Y-75131271D01*
X74952778Y-75167009D01*
X74952779Y-75167011D01*
X75036443Y-75323533D01*
X75036443Y-75323534D01*
X75087963Y-75493373D01*
X75105359Y-75670000D01*
X75087963Y-75846627D01*
X75053616Y-75959853D01*
X75036443Y-76016467D01*
X75009717Y-76066467D01*
X74952778Y-76172991D01*
X74923448Y-76208729D01*
X74840186Y-76310186D01*
X74738729Y-76393448D01*
X74702991Y-76422778D01*
X74702989Y-76422779D01*
X74546467Y-76506443D01*
X74489853Y-76523616D01*
X74376627Y-76557963D01*
X74310442Y-76564482D01*
X74244260Y-76571000D01*
X74155740Y-76571000D01*
X74089558Y-76564482D01*
X74023373Y-76557963D01*
X73910147Y-76523616D01*
X73853533Y-76506443D01*
X73697011Y-76422779D01*
X73697009Y-76422778D01*
X73661271Y-76393448D01*
X73559814Y-76310186D01*
X73476552Y-76208729D01*
X73447222Y-76172991D01*
X73390283Y-76066467D01*
X73363557Y-76016467D01*
X73346384Y-75959853D01*
X73312037Y-75846627D01*
X73294641Y-75670000D01*
X73312037Y-75493373D01*
X73363557Y-75323534D01*
X73363557Y-75323533D01*
X73447221Y-75167011D01*
X73447222Y-75167009D01*
X73476552Y-75131271D01*
X73559814Y-75029814D01*
X73661271Y-74946552D01*
X73697009Y-74917222D01*
X73759991Y-74883557D01*
X73853533Y-74833557D01*
X73910147Y-74816384D01*
X74023373Y-74782037D01*
X74089557Y-74775519D01*
X74155740Y-74769000D01*
X74244260Y-74769000D01*
X74310443Y-74775519D01*
X74310443Y-74775519D01*
G37*
G36*
X76850443Y-74775519D02*
X76916627Y-74782037D01*
X77029853Y-74816384D01*
X77086467Y-74833557D01*
X77180009Y-74883557D01*
X77242991Y-74917222D01*
X77278729Y-74946552D01*
X77380186Y-75029814D01*
X77463448Y-75131271D01*
X77492778Y-75167009D01*
X77492779Y-75167011D01*
X77576443Y-75323533D01*
X77576443Y-75323534D01*
X77627963Y-75493373D01*
X77645359Y-75670000D01*
X77627963Y-75846627D01*
X77593616Y-75959853D01*
X77576443Y-76016467D01*
X77549717Y-76066467D01*
X77492778Y-76172991D01*
X77463448Y-76208729D01*
X77380186Y-76310186D01*
X77278729Y-76393448D01*
X77242991Y-76422778D01*
X77242989Y-76422779D01*
X77086467Y-76506443D01*
X77029853Y-76523616D01*
X76916627Y-76557963D01*
X76850442Y-76564482D01*
X76784260Y-76571000D01*
X76695740Y-76571000D01*
X76629558Y-76564482D01*
X76563373Y-76557963D01*
X76450147Y-76523616D01*
X76393533Y-76506443D01*
X76237011Y-76422779D01*
X76237009Y-76422778D01*
X76201271Y-76393448D01*
X76099814Y-76310186D01*
X76016552Y-76208729D01*
X75987222Y-76172991D01*
X75930283Y-76066467D01*
X75903557Y-76016467D01*
X75886384Y-75959853D01*
X75852037Y-75846627D01*
X75834641Y-75670000D01*
X75852037Y-75493373D01*
X75903557Y-75323534D01*
X75903557Y-75323533D01*
X75987221Y-75167011D01*
X75987222Y-75167009D01*
X76016552Y-75131271D01*
X76099814Y-75029814D01*
X76201271Y-74946552D01*
X76237009Y-74917222D01*
X76299991Y-74883557D01*
X76393533Y-74833557D01*
X76450147Y-74816384D01*
X76563373Y-74782037D01*
X76629557Y-74775519D01*
X76695740Y-74769000D01*
X76784260Y-74769000D01*
X76850443Y-74775519D01*
X76850443Y-74775519D01*
G37*
G36*
X49060442Y-72285518D02*
X49126627Y-72292037D01*
X49239853Y-72326384D01*
X49296467Y-72343557D01*
X49435087Y-72417652D01*
X49452991Y-72427222D01*
X49488729Y-72456552D01*
X49590186Y-72539814D01*
X49673448Y-72641271D01*
X49702778Y-72677009D01*
X49702779Y-72677011D01*
X49786443Y-72833533D01*
X49786443Y-72833534D01*
X49837963Y-73003373D01*
X49855359Y-73180000D01*
X49837963Y-73356627D01*
X49803616Y-73469853D01*
X49786443Y-73526467D01*
X49729505Y-73632989D01*
X49702778Y-73682991D01*
X49673448Y-73718729D01*
X49590186Y-73820186D01*
X49513916Y-73882778D01*
X49452991Y-73932778D01*
X49452989Y-73932779D01*
X49296467Y-74016443D01*
X49248478Y-74031000D01*
X49126627Y-74067963D01*
X49060443Y-74074481D01*
X48994260Y-74081000D01*
X48905740Y-74081000D01*
X48839557Y-74074481D01*
X48773373Y-74067963D01*
X48651522Y-74031000D01*
X48603533Y-74016443D01*
X48447011Y-73932779D01*
X48447009Y-73932778D01*
X48386084Y-73882778D01*
X48309814Y-73820186D01*
X48226552Y-73718729D01*
X48197222Y-73682991D01*
X48170495Y-73632989D01*
X48113557Y-73526467D01*
X48096384Y-73469853D01*
X48062037Y-73356627D01*
X48044641Y-73180000D01*
X48062037Y-73003373D01*
X48113557Y-72833534D01*
X48113557Y-72833533D01*
X48197221Y-72677011D01*
X48197222Y-72677009D01*
X48226552Y-72641271D01*
X48309814Y-72539814D01*
X48411271Y-72456552D01*
X48447009Y-72427222D01*
X48464913Y-72417652D01*
X48603533Y-72343557D01*
X48660147Y-72326384D01*
X48773373Y-72292037D01*
X48839558Y-72285518D01*
X48905740Y-72279000D01*
X48994260Y-72279000D01*
X49060442Y-72285518D01*
X49060442Y-72285518D01*
G37*
G36*
X51600442Y-72285518D02*
X51666627Y-72292037D01*
X51779853Y-72326384D01*
X51836467Y-72343557D01*
X51975087Y-72417652D01*
X51992991Y-72427222D01*
X52028729Y-72456552D01*
X52130186Y-72539814D01*
X52213448Y-72641271D01*
X52242778Y-72677009D01*
X52242779Y-72677011D01*
X52326443Y-72833533D01*
X52326443Y-72833534D01*
X52377963Y-73003373D01*
X52395359Y-73180000D01*
X52377963Y-73356627D01*
X52343616Y-73469853D01*
X52326443Y-73526467D01*
X52269505Y-73632989D01*
X52242778Y-73682991D01*
X52213448Y-73718729D01*
X52130186Y-73820186D01*
X52053916Y-73882778D01*
X51992991Y-73932778D01*
X51992989Y-73932779D01*
X51836467Y-74016443D01*
X51788478Y-74031000D01*
X51666627Y-74067963D01*
X51600443Y-74074481D01*
X51534260Y-74081000D01*
X51445740Y-74081000D01*
X51379557Y-74074481D01*
X51313373Y-74067963D01*
X51191522Y-74031000D01*
X51143533Y-74016443D01*
X50987011Y-73932779D01*
X50987009Y-73932778D01*
X50926084Y-73882778D01*
X50849814Y-73820186D01*
X50766552Y-73718729D01*
X50737222Y-73682991D01*
X50710495Y-73632989D01*
X50653557Y-73526467D01*
X50636384Y-73469853D01*
X50602037Y-73356627D01*
X50584641Y-73180000D01*
X50602037Y-73003373D01*
X50653557Y-72833534D01*
X50653557Y-72833533D01*
X50737221Y-72677011D01*
X50737222Y-72677009D01*
X50766552Y-72641271D01*
X50849814Y-72539814D01*
X50951271Y-72456552D01*
X50987009Y-72427222D01*
X51004913Y-72417652D01*
X51143533Y-72343557D01*
X51200147Y-72326384D01*
X51313373Y-72292037D01*
X51379558Y-72285518D01*
X51445740Y-72279000D01*
X51534260Y-72279000D01*
X51600442Y-72285518D01*
X51600442Y-72285518D01*
G37*
G36*
X74310442Y-72235518D02*
X74376627Y-72242037D01*
X74489853Y-72276384D01*
X74546467Y-72293557D01*
X74640009Y-72343557D01*
X74702991Y-72377222D01*
X74738729Y-72406552D01*
X74840186Y-72489814D01*
X74923448Y-72591271D01*
X74952778Y-72627009D01*
X74952779Y-72627011D01*
X75036443Y-72783533D01*
X75036443Y-72783534D01*
X75087963Y-72953373D01*
X75105359Y-73130000D01*
X75087963Y-73306627D01*
X75053616Y-73419853D01*
X75036443Y-73476467D01*
X75009717Y-73526467D01*
X74952778Y-73632991D01*
X74923448Y-73668729D01*
X74840186Y-73770186D01*
X74738729Y-73853448D01*
X74702991Y-73882778D01*
X74702989Y-73882779D01*
X74546467Y-73966443D01*
X74489853Y-73983616D01*
X74376627Y-74017963D01*
X74310442Y-74024482D01*
X74244260Y-74031000D01*
X74155740Y-74031000D01*
X74089558Y-74024482D01*
X74023373Y-74017963D01*
X73910147Y-73983616D01*
X73853533Y-73966443D01*
X73697011Y-73882779D01*
X73697009Y-73882778D01*
X73661271Y-73853448D01*
X73559814Y-73770186D01*
X73476552Y-73668729D01*
X73447222Y-73632991D01*
X73390283Y-73526467D01*
X73363557Y-73476467D01*
X73346384Y-73419853D01*
X73312037Y-73306627D01*
X73294641Y-73130000D01*
X73312037Y-72953373D01*
X73363557Y-72783534D01*
X73363557Y-72783533D01*
X73447221Y-72627011D01*
X73447222Y-72627009D01*
X73476552Y-72591271D01*
X73559814Y-72489814D01*
X73661271Y-72406552D01*
X73697009Y-72377222D01*
X73759991Y-72343557D01*
X73853533Y-72293557D01*
X73910147Y-72276384D01*
X74023373Y-72242037D01*
X74089558Y-72235518D01*
X74155740Y-72229000D01*
X74244260Y-72229000D01*
X74310442Y-72235518D01*
X74310442Y-72235518D01*
G37*
G36*
X76850442Y-72235518D02*
X76916627Y-72242037D01*
X77029853Y-72276384D01*
X77086467Y-72293557D01*
X77180009Y-72343557D01*
X77242991Y-72377222D01*
X77278729Y-72406552D01*
X77380186Y-72489814D01*
X77463448Y-72591271D01*
X77492778Y-72627009D01*
X77492779Y-72627011D01*
X77576443Y-72783533D01*
X77576443Y-72783534D01*
X77627963Y-72953373D01*
X77645359Y-73130000D01*
X77627963Y-73306627D01*
X77593616Y-73419853D01*
X77576443Y-73476467D01*
X77549717Y-73526467D01*
X77492778Y-73632991D01*
X77463448Y-73668729D01*
X77380186Y-73770186D01*
X77278729Y-73853448D01*
X77242991Y-73882778D01*
X77242989Y-73882779D01*
X77086467Y-73966443D01*
X77029853Y-73983616D01*
X76916627Y-74017963D01*
X76850442Y-74024482D01*
X76784260Y-74031000D01*
X76695740Y-74031000D01*
X76629558Y-74024482D01*
X76563373Y-74017963D01*
X76450147Y-73983616D01*
X76393533Y-73966443D01*
X76237011Y-73882779D01*
X76237009Y-73882778D01*
X76201271Y-73853448D01*
X76099814Y-73770186D01*
X76016552Y-73668729D01*
X75987222Y-73632991D01*
X75930283Y-73526467D01*
X75903557Y-73476467D01*
X75886384Y-73419853D01*
X75852037Y-73306627D01*
X75834641Y-73130000D01*
X75852037Y-72953373D01*
X75903557Y-72783534D01*
X75903557Y-72783533D01*
X75987221Y-72627011D01*
X75987222Y-72627009D01*
X76016552Y-72591271D01*
X76099814Y-72489814D01*
X76201271Y-72406552D01*
X76237009Y-72377222D01*
X76299991Y-72343557D01*
X76393533Y-72293557D01*
X76450147Y-72276384D01*
X76563373Y-72242037D01*
X76629558Y-72235518D01*
X76695740Y-72229000D01*
X76784260Y-72229000D01*
X76850442Y-72235518D01*
X76850442Y-72235518D01*
G37*
G36*
X49060442Y-69745518D02*
X49126627Y-69752037D01*
X49239853Y-69786384D01*
X49296467Y-69803557D01*
X49435087Y-69877652D01*
X49452991Y-69887222D01*
X49488729Y-69916552D01*
X49590186Y-69999814D01*
X49673448Y-70101271D01*
X49702778Y-70137009D01*
X49702779Y-70137011D01*
X49786443Y-70293533D01*
X49786443Y-70293534D01*
X49837963Y-70463373D01*
X49855359Y-70640000D01*
X49837963Y-70816627D01*
X49803616Y-70929853D01*
X49786443Y-70986467D01*
X49729505Y-71092989D01*
X49702778Y-71142991D01*
X49673448Y-71178729D01*
X49590186Y-71280186D01*
X49513916Y-71342778D01*
X49452991Y-71392778D01*
X49452989Y-71392779D01*
X49296467Y-71476443D01*
X49248478Y-71491000D01*
X49126627Y-71527963D01*
X49060442Y-71534482D01*
X48994260Y-71541000D01*
X48905740Y-71541000D01*
X48839558Y-71534482D01*
X48773373Y-71527963D01*
X48651522Y-71491000D01*
X48603533Y-71476443D01*
X48447011Y-71392779D01*
X48447009Y-71392778D01*
X48386084Y-71342778D01*
X48309814Y-71280186D01*
X48226552Y-71178729D01*
X48197222Y-71142991D01*
X48170495Y-71092989D01*
X48113557Y-70986467D01*
X48096384Y-70929853D01*
X48062037Y-70816627D01*
X48044641Y-70640000D01*
X48062037Y-70463373D01*
X48113557Y-70293534D01*
X48113557Y-70293533D01*
X48197221Y-70137011D01*
X48197222Y-70137009D01*
X48226552Y-70101271D01*
X48309814Y-69999814D01*
X48411271Y-69916552D01*
X48447009Y-69887222D01*
X48464913Y-69877652D01*
X48603533Y-69803557D01*
X48660147Y-69786384D01*
X48773373Y-69752037D01*
X48839558Y-69745518D01*
X48905740Y-69739000D01*
X48994260Y-69739000D01*
X49060442Y-69745518D01*
X49060442Y-69745518D01*
G37*
G36*
X51600442Y-69745518D02*
X51666627Y-69752037D01*
X51779853Y-69786384D01*
X51836467Y-69803557D01*
X51975087Y-69877652D01*
X51992991Y-69887222D01*
X52028729Y-69916552D01*
X52130186Y-69999814D01*
X52213448Y-70101271D01*
X52242778Y-70137009D01*
X52242779Y-70137011D01*
X52326443Y-70293533D01*
X52326443Y-70293534D01*
X52377963Y-70463373D01*
X52395359Y-70640000D01*
X52377963Y-70816627D01*
X52343616Y-70929853D01*
X52326443Y-70986467D01*
X52269505Y-71092989D01*
X52242778Y-71142991D01*
X52213448Y-71178729D01*
X52130186Y-71280186D01*
X52053916Y-71342778D01*
X51992991Y-71392778D01*
X51992989Y-71392779D01*
X51836467Y-71476443D01*
X51788478Y-71491000D01*
X51666627Y-71527963D01*
X51600442Y-71534482D01*
X51534260Y-71541000D01*
X51445740Y-71541000D01*
X51379558Y-71534482D01*
X51313373Y-71527963D01*
X51191522Y-71491000D01*
X51143533Y-71476443D01*
X50987011Y-71392779D01*
X50987009Y-71392778D01*
X50926084Y-71342778D01*
X50849814Y-71280186D01*
X50766552Y-71178729D01*
X50737222Y-71142991D01*
X50710495Y-71092989D01*
X50653557Y-70986467D01*
X50636384Y-70929853D01*
X50602037Y-70816627D01*
X50584641Y-70640000D01*
X50602037Y-70463373D01*
X50653557Y-70293534D01*
X50653557Y-70293533D01*
X50737221Y-70137011D01*
X50737222Y-70137009D01*
X50766552Y-70101271D01*
X50849814Y-69999814D01*
X50951271Y-69916552D01*
X50987009Y-69887222D01*
X51004913Y-69877652D01*
X51143533Y-69803557D01*
X51200147Y-69786384D01*
X51313373Y-69752037D01*
X51379558Y-69745518D01*
X51445740Y-69739000D01*
X51534260Y-69739000D01*
X51600442Y-69745518D01*
X51600442Y-69745518D01*
G37*
G36*
X76850442Y-69695518D02*
X76916627Y-69702037D01*
X77029853Y-69736384D01*
X77086467Y-69753557D01*
X77180009Y-69803557D01*
X77242991Y-69837222D01*
X77278729Y-69866552D01*
X77380186Y-69949814D01*
X77463448Y-70051271D01*
X77492778Y-70087009D01*
X77492779Y-70087011D01*
X77576443Y-70243533D01*
X77576443Y-70243534D01*
X77627963Y-70413373D01*
X77645359Y-70590000D01*
X77627963Y-70766627D01*
X77593616Y-70879853D01*
X77576443Y-70936467D01*
X77549717Y-70986467D01*
X77492778Y-71092991D01*
X77463448Y-71128729D01*
X77380186Y-71230186D01*
X77278729Y-71313448D01*
X77242991Y-71342778D01*
X77242989Y-71342779D01*
X77086467Y-71426443D01*
X77029853Y-71443616D01*
X76916627Y-71477963D01*
X76850442Y-71484482D01*
X76784260Y-71491000D01*
X76695740Y-71491000D01*
X76629558Y-71484482D01*
X76563373Y-71477963D01*
X76450147Y-71443616D01*
X76393533Y-71426443D01*
X76237011Y-71342779D01*
X76237009Y-71342778D01*
X76201271Y-71313448D01*
X76099814Y-71230186D01*
X76016552Y-71128729D01*
X75987222Y-71092991D01*
X75930283Y-70986467D01*
X75903557Y-70936467D01*
X75886384Y-70879853D01*
X75852037Y-70766627D01*
X75834641Y-70590000D01*
X75852037Y-70413373D01*
X75903557Y-70243534D01*
X75903557Y-70243533D01*
X75987221Y-70087011D01*
X75987222Y-70087009D01*
X76016552Y-70051271D01*
X76099814Y-69949814D01*
X76201271Y-69866552D01*
X76237009Y-69837222D01*
X76299991Y-69803557D01*
X76393533Y-69753557D01*
X76450147Y-69736384D01*
X76563373Y-69702037D01*
X76629558Y-69695518D01*
X76695740Y-69689000D01*
X76784260Y-69689000D01*
X76850442Y-69695518D01*
X76850442Y-69695518D01*
G37*
G36*
X74310442Y-69695518D02*
X74376627Y-69702037D01*
X74489853Y-69736384D01*
X74546467Y-69753557D01*
X74640009Y-69803557D01*
X74702991Y-69837222D01*
X74738729Y-69866552D01*
X74840186Y-69949814D01*
X74923448Y-70051271D01*
X74952778Y-70087009D01*
X74952779Y-70087011D01*
X75036443Y-70243533D01*
X75036443Y-70243534D01*
X75087963Y-70413373D01*
X75105359Y-70590000D01*
X75087963Y-70766627D01*
X75053616Y-70879853D01*
X75036443Y-70936467D01*
X75009717Y-70986467D01*
X74952778Y-71092991D01*
X74923448Y-71128729D01*
X74840186Y-71230186D01*
X74738729Y-71313448D01*
X74702991Y-71342778D01*
X74702989Y-71342779D01*
X74546467Y-71426443D01*
X74489853Y-71443616D01*
X74376627Y-71477963D01*
X74310442Y-71484482D01*
X74244260Y-71491000D01*
X74155740Y-71491000D01*
X74089558Y-71484482D01*
X74023373Y-71477963D01*
X73910147Y-71443616D01*
X73853533Y-71426443D01*
X73697011Y-71342779D01*
X73697009Y-71342778D01*
X73661271Y-71313448D01*
X73559814Y-71230186D01*
X73476552Y-71128729D01*
X73447222Y-71092991D01*
X73390283Y-70986467D01*
X73363557Y-70936467D01*
X73346384Y-70879853D01*
X73312037Y-70766627D01*
X73294641Y-70590000D01*
X73312037Y-70413373D01*
X73363557Y-70243534D01*
X73363557Y-70243533D01*
X73447221Y-70087011D01*
X73447222Y-70087009D01*
X73476552Y-70051271D01*
X73559814Y-69949814D01*
X73661271Y-69866552D01*
X73697009Y-69837222D01*
X73759991Y-69803557D01*
X73853533Y-69753557D01*
X73910147Y-69736384D01*
X74023373Y-69702037D01*
X74089558Y-69695518D01*
X74155740Y-69689000D01*
X74244260Y-69689000D01*
X74310442Y-69695518D01*
X74310442Y-69695518D01*
G37*
G36*
X94050442Y-68165518D02*
X94116627Y-68172037D01*
X94229853Y-68206384D01*
X94286467Y-68223557D01*
X94425087Y-68297652D01*
X94442991Y-68307222D01*
X94478729Y-68336552D01*
X94580186Y-68419814D01*
X94663448Y-68521271D01*
X94692778Y-68557009D01*
X94692779Y-68557011D01*
X94776443Y-68713533D01*
X94784528Y-68740186D01*
X94827963Y-68883373D01*
X94845359Y-69060000D01*
X94827963Y-69236627D01*
X94793616Y-69349853D01*
X94776443Y-69406467D01*
X94702348Y-69545087D01*
X94692778Y-69562991D01*
X94663448Y-69598729D01*
X94580186Y-69700186D01*
X94478729Y-69783448D01*
X94442991Y-69812778D01*
X94442989Y-69812779D01*
X94286467Y-69896443D01*
X94229853Y-69913616D01*
X94116627Y-69947963D01*
X94050442Y-69954482D01*
X93984260Y-69961000D01*
X93895740Y-69961000D01*
X93829558Y-69954482D01*
X93763373Y-69947963D01*
X93650147Y-69913616D01*
X93593533Y-69896443D01*
X93437011Y-69812779D01*
X93437009Y-69812778D01*
X93401271Y-69783448D01*
X93299814Y-69700186D01*
X93216552Y-69598729D01*
X93187222Y-69562991D01*
X93177652Y-69545087D01*
X93103557Y-69406467D01*
X93086384Y-69349853D01*
X93052037Y-69236627D01*
X93034641Y-69060000D01*
X93052037Y-68883373D01*
X93095472Y-68740186D01*
X93103557Y-68713533D01*
X93187221Y-68557011D01*
X93187222Y-68557009D01*
X93216552Y-68521271D01*
X93299814Y-68419814D01*
X93401271Y-68336552D01*
X93437009Y-68307222D01*
X93454913Y-68297652D01*
X93593533Y-68223557D01*
X93650147Y-68206384D01*
X93763373Y-68172037D01*
X93829558Y-68165518D01*
X93895740Y-68159000D01*
X93984260Y-68159000D01*
X94050442Y-68165518D01*
X94050442Y-68165518D01*
G37*
G36*
X96590442Y-68165518D02*
X96656627Y-68172037D01*
X96769853Y-68206384D01*
X96826467Y-68223557D01*
X96965087Y-68297652D01*
X96982991Y-68307222D01*
X97018729Y-68336552D01*
X97120186Y-68419814D01*
X97203448Y-68521271D01*
X97232778Y-68557009D01*
X97232779Y-68557011D01*
X97316443Y-68713533D01*
X97324528Y-68740186D01*
X97367963Y-68883373D01*
X97385359Y-69060000D01*
X97367963Y-69236627D01*
X97333616Y-69349853D01*
X97316443Y-69406467D01*
X97242348Y-69545087D01*
X97232778Y-69562991D01*
X97203448Y-69598729D01*
X97120186Y-69700186D01*
X97018729Y-69783448D01*
X96982991Y-69812778D01*
X96982989Y-69812779D01*
X96826467Y-69896443D01*
X96769853Y-69913616D01*
X96656627Y-69947963D01*
X96590442Y-69954482D01*
X96524260Y-69961000D01*
X96435740Y-69961000D01*
X96369558Y-69954482D01*
X96303373Y-69947963D01*
X96190147Y-69913616D01*
X96133533Y-69896443D01*
X95977011Y-69812779D01*
X95977009Y-69812778D01*
X95941271Y-69783448D01*
X95839814Y-69700186D01*
X95756552Y-69598729D01*
X95727222Y-69562991D01*
X95717652Y-69545087D01*
X95643557Y-69406467D01*
X95626384Y-69349853D01*
X95592037Y-69236627D01*
X95574641Y-69060000D01*
X95592037Y-68883373D01*
X95635472Y-68740186D01*
X95643557Y-68713533D01*
X95727221Y-68557011D01*
X95727222Y-68557009D01*
X95756552Y-68521271D01*
X95839814Y-68419814D01*
X95941271Y-68336552D01*
X95977009Y-68307222D01*
X95994913Y-68297652D01*
X96133533Y-68223557D01*
X96190147Y-68206384D01*
X96303373Y-68172037D01*
X96369558Y-68165518D01*
X96435740Y-68159000D01*
X96524260Y-68159000D01*
X96590442Y-68165518D01*
X96590442Y-68165518D01*
G37*
G36*
X51600443Y-67205519D02*
X51666627Y-67212037D01*
X51779853Y-67246384D01*
X51836467Y-67263557D01*
X51975087Y-67337652D01*
X51992991Y-67347222D01*
X52028729Y-67376552D01*
X52130186Y-67459814D01*
X52213448Y-67561271D01*
X52242778Y-67597009D01*
X52242779Y-67597011D01*
X52326443Y-67753533D01*
X52326443Y-67753534D01*
X52377963Y-67923373D01*
X52395359Y-68100000D01*
X52377963Y-68276627D01*
X52368682Y-68307221D01*
X52326443Y-68446467D01*
X52269505Y-68552989D01*
X52242778Y-68602991D01*
X52213448Y-68638729D01*
X52130186Y-68740186D01*
X52053916Y-68802778D01*
X51992991Y-68852778D01*
X51992989Y-68852779D01*
X51836467Y-68936443D01*
X51788478Y-68951000D01*
X51666627Y-68987963D01*
X51600443Y-68994481D01*
X51534260Y-69001000D01*
X51445740Y-69001000D01*
X51379557Y-68994481D01*
X51313373Y-68987963D01*
X51191522Y-68951000D01*
X51143533Y-68936443D01*
X50987011Y-68852779D01*
X50987009Y-68852778D01*
X50926084Y-68802778D01*
X50849814Y-68740186D01*
X50766552Y-68638729D01*
X50737222Y-68602991D01*
X50710495Y-68552989D01*
X50653557Y-68446467D01*
X50611318Y-68307221D01*
X50602037Y-68276627D01*
X50584641Y-68100000D01*
X50602037Y-67923373D01*
X50653557Y-67753534D01*
X50653557Y-67753533D01*
X50737221Y-67597011D01*
X50737222Y-67597009D01*
X50766552Y-67561271D01*
X50849814Y-67459814D01*
X50951271Y-67376552D01*
X50987009Y-67347222D01*
X51004913Y-67337652D01*
X51143533Y-67263557D01*
X51200147Y-67246384D01*
X51313373Y-67212037D01*
X51379557Y-67205519D01*
X51445740Y-67199000D01*
X51534260Y-67199000D01*
X51600443Y-67205519D01*
X51600443Y-67205519D01*
G37*
G36*
X49851000Y-69001000D02*
X48049000Y-69001000D01*
X48049000Y-67199000D01*
X49851000Y-67199000D01*
X49851000Y-69001000D01*
X49851000Y-69001000D01*
G37*
G36*
X75101000Y-68951000D02*
X73299000Y-68951000D01*
X73299000Y-67149000D01*
X75101000Y-67149000D01*
X75101000Y-68951000D01*
X75101000Y-68951000D01*
G37*
G36*
X76850442Y-67155518D02*
X76916627Y-67162037D01*
X77029853Y-67196384D01*
X77086467Y-67213557D01*
X77180009Y-67263557D01*
X77242991Y-67297222D01*
X77278729Y-67326552D01*
X77380186Y-67409814D01*
X77463448Y-67511271D01*
X77492778Y-67547009D01*
X77492779Y-67547011D01*
X77576443Y-67703533D01*
X77576443Y-67703534D01*
X77627963Y-67873373D01*
X77645359Y-68050000D01*
X77627963Y-68226627D01*
X77603515Y-68307221D01*
X77576443Y-68396467D01*
X77549717Y-68446467D01*
X77492778Y-68552991D01*
X77463448Y-68588729D01*
X77380186Y-68690186D01*
X77278729Y-68773448D01*
X77242991Y-68802778D01*
X77242989Y-68802779D01*
X77086467Y-68886443D01*
X77029853Y-68903616D01*
X76916627Y-68937963D01*
X76850443Y-68944481D01*
X76784260Y-68951000D01*
X76695740Y-68951000D01*
X76629557Y-68944481D01*
X76563373Y-68937963D01*
X76450147Y-68903616D01*
X76393533Y-68886443D01*
X76237011Y-68802779D01*
X76237009Y-68802778D01*
X76201271Y-68773448D01*
X76099814Y-68690186D01*
X76016552Y-68588729D01*
X75987222Y-68552991D01*
X75930283Y-68446467D01*
X75903557Y-68396467D01*
X75876485Y-68307221D01*
X75852037Y-68226627D01*
X75834641Y-68050000D01*
X75852037Y-67873373D01*
X75903557Y-67703534D01*
X75903557Y-67703533D01*
X75987221Y-67547011D01*
X75987222Y-67547009D01*
X76016552Y-67511271D01*
X76099814Y-67409814D01*
X76201271Y-67326552D01*
X76237009Y-67297222D01*
X76299991Y-67263557D01*
X76393533Y-67213557D01*
X76450147Y-67196384D01*
X76563373Y-67162037D01*
X76629558Y-67155518D01*
X76695740Y-67149000D01*
X76784260Y-67149000D01*
X76850442Y-67155518D01*
X76850442Y-67155518D01*
G37*
G36*
X96590443Y-65625519D02*
X96656627Y-65632037D01*
X96769853Y-65666384D01*
X96826467Y-65683557D01*
X96965087Y-65757652D01*
X96982991Y-65767222D01*
X97018729Y-65796552D01*
X97120186Y-65879814D01*
X97203448Y-65981271D01*
X97232778Y-66017009D01*
X97232779Y-66017011D01*
X97316443Y-66173533D01*
X97316443Y-66173534D01*
X97367963Y-66343373D01*
X97385359Y-66520000D01*
X97367963Y-66696627D01*
X97333616Y-66809853D01*
X97316443Y-66866467D01*
X97242348Y-67005087D01*
X97232778Y-67022991D01*
X97203448Y-67058729D01*
X97120186Y-67160186D01*
X97018729Y-67243448D01*
X96982991Y-67272778D01*
X96982989Y-67272779D01*
X96826467Y-67356443D01*
X96769853Y-67373616D01*
X96656627Y-67407963D01*
X96590443Y-67414481D01*
X96524260Y-67421000D01*
X96435740Y-67421000D01*
X96369557Y-67414481D01*
X96303373Y-67407963D01*
X96190147Y-67373616D01*
X96133533Y-67356443D01*
X95977011Y-67272779D01*
X95977009Y-67272778D01*
X95941271Y-67243448D01*
X95839814Y-67160186D01*
X95756552Y-67058729D01*
X95727222Y-67022991D01*
X95717652Y-67005087D01*
X95643557Y-66866467D01*
X95626384Y-66809853D01*
X95592037Y-66696627D01*
X95574641Y-66520000D01*
X95592037Y-66343373D01*
X95643557Y-66173534D01*
X95643557Y-66173533D01*
X95727221Y-66017011D01*
X95727222Y-66017009D01*
X95756552Y-65981271D01*
X95839814Y-65879814D01*
X95941271Y-65796552D01*
X95977009Y-65767222D01*
X95994913Y-65757652D01*
X96133533Y-65683557D01*
X96190147Y-65666384D01*
X96303373Y-65632037D01*
X96369557Y-65625519D01*
X96435740Y-65619000D01*
X96524260Y-65619000D01*
X96590443Y-65625519D01*
X96590443Y-65625519D01*
G37*
G36*
X94050443Y-65625519D02*
X94116627Y-65632037D01*
X94229853Y-65666384D01*
X94286467Y-65683557D01*
X94425087Y-65757652D01*
X94442991Y-65767222D01*
X94478729Y-65796552D01*
X94580186Y-65879814D01*
X94663448Y-65981271D01*
X94692778Y-66017009D01*
X94692779Y-66017011D01*
X94776443Y-66173533D01*
X94776443Y-66173534D01*
X94827963Y-66343373D01*
X94845359Y-66520000D01*
X94827963Y-66696627D01*
X94793616Y-66809853D01*
X94776443Y-66866467D01*
X94702348Y-67005087D01*
X94692778Y-67022991D01*
X94663448Y-67058729D01*
X94580186Y-67160186D01*
X94478729Y-67243448D01*
X94442991Y-67272778D01*
X94442989Y-67272779D01*
X94286467Y-67356443D01*
X94229853Y-67373616D01*
X94116627Y-67407963D01*
X94050443Y-67414481D01*
X93984260Y-67421000D01*
X93895740Y-67421000D01*
X93829557Y-67414481D01*
X93763373Y-67407963D01*
X93650147Y-67373616D01*
X93593533Y-67356443D01*
X93437011Y-67272779D01*
X93437009Y-67272778D01*
X93401271Y-67243448D01*
X93299814Y-67160186D01*
X93216552Y-67058729D01*
X93187222Y-67022991D01*
X93177652Y-67005087D01*
X93103557Y-66866467D01*
X93086384Y-66809853D01*
X93052037Y-66696627D01*
X93034641Y-66520000D01*
X93052037Y-66343373D01*
X93103557Y-66173534D01*
X93103557Y-66173533D01*
X93187221Y-66017011D01*
X93187222Y-66017009D01*
X93216552Y-65981271D01*
X93299814Y-65879814D01*
X93401271Y-65796552D01*
X93437009Y-65767222D01*
X93454913Y-65757652D01*
X93593533Y-65683557D01*
X93650147Y-65666384D01*
X93763373Y-65632037D01*
X93829557Y-65625519D01*
X93895740Y-65619000D01*
X93984260Y-65619000D01*
X94050443Y-65625519D01*
X94050443Y-65625519D01*
G37*
G36*
X96590442Y-63085518D02*
X96656627Y-63092037D01*
X96769853Y-63126384D01*
X96826467Y-63143557D01*
X96965087Y-63217652D01*
X96982991Y-63227222D01*
X97018729Y-63256552D01*
X97120186Y-63339814D01*
X97203448Y-63441271D01*
X97232778Y-63477009D01*
X97232779Y-63477011D01*
X97316443Y-63633533D01*
X97316443Y-63633534D01*
X97367963Y-63803373D01*
X97385359Y-63980000D01*
X97367963Y-64156627D01*
X97333616Y-64269853D01*
X97316443Y-64326467D01*
X97242348Y-64465087D01*
X97232778Y-64482991D01*
X97203448Y-64518729D01*
X97120186Y-64620186D01*
X97018729Y-64703448D01*
X96982991Y-64732778D01*
X96982989Y-64732779D01*
X96826467Y-64816443D01*
X96769853Y-64833616D01*
X96656627Y-64867963D01*
X96590443Y-64874481D01*
X96524260Y-64881000D01*
X96435740Y-64881000D01*
X96369557Y-64874481D01*
X96303373Y-64867963D01*
X96190147Y-64833616D01*
X96133533Y-64816443D01*
X95977011Y-64732779D01*
X95977009Y-64732778D01*
X95941271Y-64703448D01*
X95839814Y-64620186D01*
X95756552Y-64518729D01*
X95727222Y-64482991D01*
X95717652Y-64465087D01*
X95643557Y-64326467D01*
X95626384Y-64269853D01*
X95592037Y-64156627D01*
X95574641Y-63980000D01*
X95592037Y-63803373D01*
X95643557Y-63633534D01*
X95643557Y-63633533D01*
X95727221Y-63477011D01*
X95727222Y-63477009D01*
X95756552Y-63441271D01*
X95839814Y-63339814D01*
X95941271Y-63256552D01*
X95977009Y-63227222D01*
X95994913Y-63217652D01*
X96133533Y-63143557D01*
X96190147Y-63126384D01*
X96303373Y-63092037D01*
X96369558Y-63085518D01*
X96435740Y-63079000D01*
X96524260Y-63079000D01*
X96590442Y-63085518D01*
X96590442Y-63085518D01*
G37*
G36*
X94050442Y-63085518D02*
X94116627Y-63092037D01*
X94229853Y-63126384D01*
X94286467Y-63143557D01*
X94425087Y-63217652D01*
X94442991Y-63227222D01*
X94478729Y-63256552D01*
X94580186Y-63339814D01*
X94663448Y-63441271D01*
X94692778Y-63477009D01*
X94692779Y-63477011D01*
X94776443Y-63633533D01*
X94776443Y-63633534D01*
X94827963Y-63803373D01*
X94845359Y-63980000D01*
X94827963Y-64156627D01*
X94793616Y-64269853D01*
X94776443Y-64326467D01*
X94702348Y-64465087D01*
X94692778Y-64482991D01*
X94663448Y-64518729D01*
X94580186Y-64620186D01*
X94478729Y-64703448D01*
X94442991Y-64732778D01*
X94442989Y-64732779D01*
X94286467Y-64816443D01*
X94229853Y-64833616D01*
X94116627Y-64867963D01*
X94050443Y-64874481D01*
X93984260Y-64881000D01*
X93895740Y-64881000D01*
X93829557Y-64874481D01*
X93763373Y-64867963D01*
X93650147Y-64833616D01*
X93593533Y-64816443D01*
X93437011Y-64732779D01*
X93437009Y-64732778D01*
X93401271Y-64703448D01*
X93299814Y-64620186D01*
X93216552Y-64518729D01*
X93187222Y-64482991D01*
X93177652Y-64465087D01*
X93103557Y-64326467D01*
X93086384Y-64269853D01*
X93052037Y-64156627D01*
X93034641Y-63980000D01*
X93052037Y-63803373D01*
X93103557Y-63633534D01*
X93103557Y-63633533D01*
X93187221Y-63477011D01*
X93187222Y-63477009D01*
X93216552Y-63441271D01*
X93299814Y-63339814D01*
X93401271Y-63256552D01*
X93437009Y-63227222D01*
X93454913Y-63217652D01*
X93593533Y-63143557D01*
X93650147Y-63126384D01*
X93763373Y-63092037D01*
X93829558Y-63085518D01*
X93895740Y-63079000D01*
X93984260Y-63079000D01*
X94050442Y-63085518D01*
X94050442Y-63085518D01*
G37*
G36*
X96590443Y-60545519D02*
X96656627Y-60552037D01*
X96769853Y-60586384D01*
X96826467Y-60603557D01*
X96965087Y-60677652D01*
X96982991Y-60687222D01*
X97018729Y-60716552D01*
X97120186Y-60799814D01*
X97203448Y-60901271D01*
X97232778Y-60937009D01*
X97232779Y-60937011D01*
X97316443Y-61093533D01*
X97316443Y-61093534D01*
X97367963Y-61263373D01*
X97385359Y-61440000D01*
X97367963Y-61616627D01*
X97333616Y-61729853D01*
X97316443Y-61786467D01*
X97242348Y-61925087D01*
X97232778Y-61942991D01*
X97203448Y-61978729D01*
X97120186Y-62080186D01*
X97018729Y-62163448D01*
X96982991Y-62192778D01*
X96982989Y-62192779D01*
X96826467Y-62276443D01*
X96769853Y-62293616D01*
X96656627Y-62327963D01*
X96590443Y-62334481D01*
X96524260Y-62341000D01*
X96435740Y-62341000D01*
X96369557Y-62334481D01*
X96303373Y-62327963D01*
X96190147Y-62293616D01*
X96133533Y-62276443D01*
X95977011Y-62192779D01*
X95977009Y-62192778D01*
X95941271Y-62163448D01*
X95839814Y-62080186D01*
X95756552Y-61978729D01*
X95727222Y-61942991D01*
X95717652Y-61925087D01*
X95643557Y-61786467D01*
X95626384Y-61729853D01*
X95592037Y-61616627D01*
X95574641Y-61440000D01*
X95592037Y-61263373D01*
X95643557Y-61093534D01*
X95643557Y-61093533D01*
X95727221Y-60937011D01*
X95727222Y-60937009D01*
X95756552Y-60901271D01*
X95839814Y-60799814D01*
X95941271Y-60716552D01*
X95977009Y-60687222D01*
X95994913Y-60677652D01*
X96133533Y-60603557D01*
X96190147Y-60586384D01*
X96303373Y-60552037D01*
X96369557Y-60545519D01*
X96435740Y-60539000D01*
X96524260Y-60539000D01*
X96590443Y-60545519D01*
X96590443Y-60545519D01*
G37*
G36*
X94050443Y-60545519D02*
X94116627Y-60552037D01*
X94229853Y-60586384D01*
X94286467Y-60603557D01*
X94425087Y-60677652D01*
X94442991Y-60687222D01*
X94478729Y-60716552D01*
X94580186Y-60799814D01*
X94663448Y-60901271D01*
X94692778Y-60937009D01*
X94692779Y-60937011D01*
X94776443Y-61093533D01*
X94776443Y-61093534D01*
X94827963Y-61263373D01*
X94845359Y-61440000D01*
X94827963Y-61616627D01*
X94793616Y-61729853D01*
X94776443Y-61786467D01*
X94702348Y-61925087D01*
X94692778Y-61942991D01*
X94663448Y-61978729D01*
X94580186Y-62080186D01*
X94478729Y-62163448D01*
X94442991Y-62192778D01*
X94442989Y-62192779D01*
X94286467Y-62276443D01*
X94229853Y-62293616D01*
X94116627Y-62327963D01*
X94050443Y-62334481D01*
X93984260Y-62341000D01*
X93895740Y-62341000D01*
X93829557Y-62334481D01*
X93763373Y-62327963D01*
X93650147Y-62293616D01*
X93593533Y-62276443D01*
X93437011Y-62192779D01*
X93437009Y-62192778D01*
X93401271Y-62163448D01*
X93299814Y-62080186D01*
X93216552Y-61978729D01*
X93187222Y-61942991D01*
X93177652Y-61925087D01*
X93103557Y-61786467D01*
X93086384Y-61729853D01*
X93052037Y-61616627D01*
X93034641Y-61440000D01*
X93052037Y-61263373D01*
X93103557Y-61093534D01*
X93103557Y-61093533D01*
X93187221Y-60937011D01*
X93187222Y-60937009D01*
X93216552Y-60901271D01*
X93299814Y-60799814D01*
X93401271Y-60716552D01*
X93437009Y-60687222D01*
X93454913Y-60677652D01*
X93593533Y-60603557D01*
X93650147Y-60586384D01*
X93763373Y-60552037D01*
X93829557Y-60545519D01*
X93895740Y-60539000D01*
X93984260Y-60539000D01*
X94050443Y-60545519D01*
X94050443Y-60545519D01*
G37*
G36*
X96590442Y-58005518D02*
X96656627Y-58012037D01*
X96769853Y-58046384D01*
X96826467Y-58063557D01*
X96965087Y-58137652D01*
X96982991Y-58147222D01*
X97018729Y-58176552D01*
X97120186Y-58259814D01*
X97203448Y-58361271D01*
X97232778Y-58397009D01*
X97232779Y-58397011D01*
X97316443Y-58553533D01*
X97316443Y-58553534D01*
X97367963Y-58723373D01*
X97385359Y-58900000D01*
X97367963Y-59076627D01*
X97333616Y-59189853D01*
X97316443Y-59246467D01*
X97242348Y-59385087D01*
X97232778Y-59402991D01*
X97203448Y-59438729D01*
X97120186Y-59540186D01*
X97018729Y-59623448D01*
X96982991Y-59652778D01*
X96982989Y-59652779D01*
X96826467Y-59736443D01*
X96769853Y-59753616D01*
X96656627Y-59787963D01*
X96590442Y-59794482D01*
X96524260Y-59801000D01*
X96435740Y-59801000D01*
X96369558Y-59794482D01*
X96303373Y-59787963D01*
X96190147Y-59753616D01*
X96133533Y-59736443D01*
X95977011Y-59652779D01*
X95977009Y-59652778D01*
X95941271Y-59623448D01*
X95839814Y-59540186D01*
X95756552Y-59438729D01*
X95727222Y-59402991D01*
X95717652Y-59385087D01*
X95643557Y-59246467D01*
X95626384Y-59189853D01*
X95592037Y-59076627D01*
X95574641Y-58900000D01*
X95592037Y-58723373D01*
X95643557Y-58553534D01*
X95643557Y-58553533D01*
X95727221Y-58397011D01*
X95727222Y-58397009D01*
X95756552Y-58361271D01*
X95839814Y-58259814D01*
X95941271Y-58176552D01*
X95977009Y-58147222D01*
X95994913Y-58137652D01*
X96133533Y-58063557D01*
X96190147Y-58046384D01*
X96303373Y-58012037D01*
X96369558Y-58005518D01*
X96435740Y-57999000D01*
X96524260Y-57999000D01*
X96590442Y-58005518D01*
X96590442Y-58005518D01*
G37*
G36*
X94841000Y-59801000D02*
X93039000Y-59801000D01*
X93039000Y-57999000D01*
X94841000Y-57999000D01*
X94841000Y-59801000D01*
X94841000Y-59801000D01*
G37*
G36*
X78740442Y-55605518D02*
X78806627Y-55612037D01*
X78919853Y-55646384D01*
X78976467Y-55663557D01*
X79115087Y-55737652D01*
X79132991Y-55747222D01*
X79168729Y-55776552D01*
X79270186Y-55859814D01*
X79353448Y-55961271D01*
X79382778Y-55997009D01*
X79382779Y-55997011D01*
X79466443Y-56153533D01*
X79466443Y-56153534D01*
X79517963Y-56323373D01*
X79535359Y-56500000D01*
X79517963Y-56676627D01*
X79496777Y-56746467D01*
X79466443Y-56846467D01*
X79436231Y-56902989D01*
X79382778Y-57002991D01*
X79353448Y-57038729D01*
X79270186Y-57140186D01*
X79168729Y-57223448D01*
X79132991Y-57252778D01*
X79132989Y-57252779D01*
X78976467Y-57336443D01*
X78919853Y-57353616D01*
X78806627Y-57387963D01*
X78740443Y-57394481D01*
X78674260Y-57401000D01*
X78585740Y-57401000D01*
X78519557Y-57394481D01*
X78453373Y-57387963D01*
X78340147Y-57353616D01*
X78283533Y-57336443D01*
X78127011Y-57252779D01*
X78127009Y-57252778D01*
X78091271Y-57223448D01*
X77989814Y-57140186D01*
X77906552Y-57038729D01*
X77877222Y-57002991D01*
X77823769Y-56902989D01*
X77793557Y-56846467D01*
X77763223Y-56746467D01*
X77742037Y-56676627D01*
X77724641Y-56500000D01*
X77742037Y-56323373D01*
X77793557Y-56153534D01*
X77793557Y-56153533D01*
X77877221Y-55997011D01*
X77877222Y-55997009D01*
X77906552Y-55961271D01*
X77989814Y-55859814D01*
X78091271Y-55776552D01*
X78127009Y-55747222D01*
X78144913Y-55737652D01*
X78283533Y-55663557D01*
X78340147Y-55646384D01*
X78453373Y-55612037D01*
X78519558Y-55605518D01*
X78585740Y-55599000D01*
X78674260Y-55599000D01*
X78740442Y-55605518D01*
X78740442Y-55605518D01*
G37*
G36*
X83820442Y-55605518D02*
X83886627Y-55612037D01*
X83999853Y-55646384D01*
X84056467Y-55663557D01*
X84195087Y-55737652D01*
X84212991Y-55747222D01*
X84248729Y-55776552D01*
X84350186Y-55859814D01*
X84433448Y-55961271D01*
X84462778Y-55997009D01*
X84462779Y-55997011D01*
X84546443Y-56153533D01*
X84546443Y-56153534D01*
X84597963Y-56323373D01*
X84615359Y-56500000D01*
X84597963Y-56676627D01*
X84576777Y-56746467D01*
X84546443Y-56846467D01*
X84516231Y-56902989D01*
X84462778Y-57002991D01*
X84433448Y-57038729D01*
X84350186Y-57140186D01*
X84248729Y-57223448D01*
X84212991Y-57252778D01*
X84212989Y-57252779D01*
X84056467Y-57336443D01*
X83999853Y-57353616D01*
X83886627Y-57387963D01*
X83820443Y-57394481D01*
X83754260Y-57401000D01*
X83665740Y-57401000D01*
X83599557Y-57394481D01*
X83533373Y-57387963D01*
X83420147Y-57353616D01*
X83363533Y-57336443D01*
X83207011Y-57252779D01*
X83207009Y-57252778D01*
X83171271Y-57223448D01*
X83069814Y-57140186D01*
X82986552Y-57038729D01*
X82957222Y-57002991D01*
X82903769Y-56902989D01*
X82873557Y-56846467D01*
X82843223Y-56746467D01*
X82822037Y-56676627D01*
X82804641Y-56500000D01*
X82822037Y-56323373D01*
X82873557Y-56153534D01*
X82873557Y-56153533D01*
X82957221Y-55997011D01*
X82957222Y-55997009D01*
X82986552Y-55961271D01*
X83069814Y-55859814D01*
X83171271Y-55776552D01*
X83207009Y-55747222D01*
X83224913Y-55737652D01*
X83363533Y-55663557D01*
X83420147Y-55646384D01*
X83533373Y-55612037D01*
X83599558Y-55605518D01*
X83665740Y-55599000D01*
X83754260Y-55599000D01*
X83820442Y-55605518D01*
X83820442Y-55605518D01*
G37*
G36*
X81280442Y-55605518D02*
X81346627Y-55612037D01*
X81459853Y-55646384D01*
X81516467Y-55663557D01*
X81655087Y-55737652D01*
X81672991Y-55747222D01*
X81708729Y-55776552D01*
X81810186Y-55859814D01*
X81893448Y-55961271D01*
X81922778Y-55997009D01*
X81922779Y-55997011D01*
X82006443Y-56153533D01*
X82006443Y-56153534D01*
X82057963Y-56323373D01*
X82075359Y-56500000D01*
X82057963Y-56676627D01*
X82036777Y-56746467D01*
X82006443Y-56846467D01*
X81976231Y-56902989D01*
X81922778Y-57002991D01*
X81893448Y-57038729D01*
X81810186Y-57140186D01*
X81708729Y-57223448D01*
X81672991Y-57252778D01*
X81672989Y-57252779D01*
X81516467Y-57336443D01*
X81459853Y-57353616D01*
X81346627Y-57387963D01*
X81280443Y-57394481D01*
X81214260Y-57401000D01*
X81125740Y-57401000D01*
X81059557Y-57394481D01*
X80993373Y-57387963D01*
X80880147Y-57353616D01*
X80823533Y-57336443D01*
X80667011Y-57252779D01*
X80667009Y-57252778D01*
X80631271Y-57223448D01*
X80529814Y-57140186D01*
X80446552Y-57038729D01*
X80417222Y-57002991D01*
X80363769Y-56902989D01*
X80333557Y-56846467D01*
X80303223Y-56746467D01*
X80282037Y-56676627D01*
X80264641Y-56500000D01*
X80282037Y-56323373D01*
X80333557Y-56153534D01*
X80333557Y-56153533D01*
X80417221Y-55997011D01*
X80417222Y-55997009D01*
X80446552Y-55961271D01*
X80529814Y-55859814D01*
X80631271Y-55776552D01*
X80667009Y-55747222D01*
X80684913Y-55737652D01*
X80823533Y-55663557D01*
X80880147Y-55646384D01*
X80993373Y-55612037D01*
X81059558Y-55605518D01*
X81125740Y-55599000D01*
X81214260Y-55599000D01*
X81280442Y-55605518D01*
X81280442Y-55605518D01*
G37*
G36*
X86360442Y-55605518D02*
X86426627Y-55612037D01*
X86539853Y-55646384D01*
X86596467Y-55663557D01*
X86735087Y-55737652D01*
X86752991Y-55747222D01*
X86788729Y-55776552D01*
X86890186Y-55859814D01*
X86973448Y-55961271D01*
X87002778Y-55997009D01*
X87002779Y-55997011D01*
X87086443Y-56153533D01*
X87086443Y-56153534D01*
X87137963Y-56323373D01*
X87155359Y-56500000D01*
X87137963Y-56676627D01*
X87116777Y-56746467D01*
X87086443Y-56846467D01*
X87056231Y-56902989D01*
X87002778Y-57002991D01*
X86973448Y-57038729D01*
X86890186Y-57140186D01*
X86788729Y-57223448D01*
X86752991Y-57252778D01*
X86752989Y-57252779D01*
X86596467Y-57336443D01*
X86539853Y-57353616D01*
X86426627Y-57387963D01*
X86360443Y-57394481D01*
X86294260Y-57401000D01*
X86205740Y-57401000D01*
X86139557Y-57394481D01*
X86073373Y-57387963D01*
X85960147Y-57353616D01*
X85903533Y-57336443D01*
X85747011Y-57252779D01*
X85747009Y-57252778D01*
X85711271Y-57223448D01*
X85609814Y-57140186D01*
X85526552Y-57038729D01*
X85497222Y-57002991D01*
X85443769Y-56902989D01*
X85413557Y-56846467D01*
X85383223Y-56746467D01*
X85362037Y-56676627D01*
X85344641Y-56500000D01*
X85362037Y-56323373D01*
X85413557Y-56153534D01*
X85413557Y-56153533D01*
X85497221Y-55997011D01*
X85497222Y-55997009D01*
X85526552Y-55961271D01*
X85609814Y-55859814D01*
X85711271Y-55776552D01*
X85747009Y-55747222D01*
X85764913Y-55737652D01*
X85903533Y-55663557D01*
X85960147Y-55646384D01*
X86073373Y-55612037D01*
X86139558Y-55605518D01*
X86205740Y-55599000D01*
X86294260Y-55599000D01*
X86360442Y-55605518D01*
X86360442Y-55605518D01*
G37*
G36*
X76991000Y-57401000D02*
X75189000Y-57401000D01*
X75189000Y-55599000D01*
X76991000Y-55599000D01*
X76991000Y-57401000D01*
X76991000Y-57401000D01*
G37*
G36*
X49970443Y-55505519D02*
X50036627Y-55512037D01*
X50149853Y-55546384D01*
X50206467Y-55563557D01*
X50272775Y-55599000D01*
X50362991Y-55647222D01*
X50382895Y-55663557D01*
X50500186Y-55759814D01*
X50582253Y-55859814D01*
X50612778Y-55897009D01*
X50612779Y-55897011D01*
X50696443Y-56053533D01*
X50696443Y-56053534D01*
X50747963Y-56223373D01*
X50765359Y-56400000D01*
X50747963Y-56576627D01*
X50717629Y-56676625D01*
X50696443Y-56746467D01*
X50642991Y-56846467D01*
X50612778Y-56902991D01*
X50583448Y-56938729D01*
X50500186Y-57040186D01*
X50398729Y-57123448D01*
X50362991Y-57152778D01*
X50362989Y-57152779D01*
X50206467Y-57236443D01*
X50152617Y-57252778D01*
X50036627Y-57287963D01*
X49970443Y-57294481D01*
X49904260Y-57301000D01*
X49815740Y-57301000D01*
X49749557Y-57294481D01*
X49683373Y-57287963D01*
X49567383Y-57252778D01*
X49513533Y-57236443D01*
X49357011Y-57152779D01*
X49357009Y-57152778D01*
X49321271Y-57123448D01*
X49219814Y-57040186D01*
X49136552Y-56938729D01*
X49107222Y-56902991D01*
X49077009Y-56846467D01*
X49023557Y-56746467D01*
X49002371Y-56676625D01*
X48972037Y-56576627D01*
X48954641Y-56400000D01*
X48972037Y-56223373D01*
X49023557Y-56053534D01*
X49023557Y-56053533D01*
X49107221Y-55897011D01*
X49107222Y-55897009D01*
X49137747Y-55859814D01*
X49219814Y-55759814D01*
X49337105Y-55663557D01*
X49357009Y-55647222D01*
X49447225Y-55599000D01*
X49513533Y-55563557D01*
X49570147Y-55546384D01*
X49683373Y-55512037D01*
X49749557Y-55505519D01*
X49815740Y-55499000D01*
X49904260Y-55499000D01*
X49970443Y-55505519D01*
X49970443Y-55505519D01*
G37*
G36*
X40601000Y-57301000D02*
X38799000Y-57301000D01*
X38799000Y-55499000D01*
X40601000Y-55499000D01*
X40601000Y-57301000D01*
X40601000Y-57301000D01*
G37*
G36*
X42350443Y-55505519D02*
X42416627Y-55512037D01*
X42529853Y-55546384D01*
X42586467Y-55563557D01*
X42652775Y-55599000D01*
X42742991Y-55647222D01*
X42762895Y-55663557D01*
X42880186Y-55759814D01*
X42962253Y-55859814D01*
X42992778Y-55897009D01*
X42992779Y-55897011D01*
X43076443Y-56053533D01*
X43076443Y-56053534D01*
X43127963Y-56223373D01*
X43145359Y-56400000D01*
X43127963Y-56576627D01*
X43097629Y-56676625D01*
X43076443Y-56746467D01*
X43022991Y-56846467D01*
X42992778Y-56902991D01*
X42963448Y-56938729D01*
X42880186Y-57040186D01*
X42778729Y-57123448D01*
X42742991Y-57152778D01*
X42742989Y-57152779D01*
X42586467Y-57236443D01*
X42532617Y-57252778D01*
X42416627Y-57287963D01*
X42350443Y-57294481D01*
X42284260Y-57301000D01*
X42195740Y-57301000D01*
X42129557Y-57294481D01*
X42063373Y-57287963D01*
X41947383Y-57252778D01*
X41893533Y-57236443D01*
X41737011Y-57152779D01*
X41737009Y-57152778D01*
X41701271Y-57123448D01*
X41599814Y-57040186D01*
X41516552Y-56938729D01*
X41487222Y-56902991D01*
X41457009Y-56846467D01*
X41403557Y-56746467D01*
X41382371Y-56676625D01*
X41352037Y-56576627D01*
X41334641Y-56400000D01*
X41352037Y-56223373D01*
X41403557Y-56053534D01*
X41403557Y-56053533D01*
X41487221Y-55897011D01*
X41487222Y-55897009D01*
X41517747Y-55859814D01*
X41599814Y-55759814D01*
X41717105Y-55663557D01*
X41737009Y-55647222D01*
X41827225Y-55599000D01*
X41893533Y-55563557D01*
X41950147Y-55546384D01*
X42063373Y-55512037D01*
X42129557Y-55505519D01*
X42195740Y-55499000D01*
X42284260Y-55499000D01*
X42350443Y-55505519D01*
X42350443Y-55505519D01*
G37*
G36*
X44890443Y-55505519D02*
X44956627Y-55512037D01*
X45069853Y-55546384D01*
X45126467Y-55563557D01*
X45192775Y-55599000D01*
X45282991Y-55647222D01*
X45302895Y-55663557D01*
X45420186Y-55759814D01*
X45502253Y-55859814D01*
X45532778Y-55897009D01*
X45532779Y-55897011D01*
X45616443Y-56053533D01*
X45616443Y-56053534D01*
X45667963Y-56223373D01*
X45685359Y-56400000D01*
X45667963Y-56576627D01*
X45637629Y-56676625D01*
X45616443Y-56746467D01*
X45562991Y-56846467D01*
X45532778Y-56902991D01*
X45503448Y-56938729D01*
X45420186Y-57040186D01*
X45318729Y-57123448D01*
X45282991Y-57152778D01*
X45282989Y-57152779D01*
X45126467Y-57236443D01*
X45072617Y-57252778D01*
X44956627Y-57287963D01*
X44890443Y-57294481D01*
X44824260Y-57301000D01*
X44735740Y-57301000D01*
X44669557Y-57294481D01*
X44603373Y-57287963D01*
X44487383Y-57252778D01*
X44433533Y-57236443D01*
X44277011Y-57152779D01*
X44277009Y-57152778D01*
X44241271Y-57123448D01*
X44139814Y-57040186D01*
X44056552Y-56938729D01*
X44027222Y-56902991D01*
X43997009Y-56846467D01*
X43943557Y-56746467D01*
X43922371Y-56676625D01*
X43892037Y-56576627D01*
X43874641Y-56400000D01*
X43892037Y-56223373D01*
X43943557Y-56053534D01*
X43943557Y-56053533D01*
X44027221Y-55897011D01*
X44027222Y-55897009D01*
X44057747Y-55859814D01*
X44139814Y-55759814D01*
X44257105Y-55663557D01*
X44277009Y-55647222D01*
X44367225Y-55599000D01*
X44433533Y-55563557D01*
X44490147Y-55546384D01*
X44603373Y-55512037D01*
X44669557Y-55505519D01*
X44735740Y-55499000D01*
X44824260Y-55499000D01*
X44890443Y-55505519D01*
X44890443Y-55505519D01*
G37*
G36*
X47430443Y-55505519D02*
X47496627Y-55512037D01*
X47609853Y-55546384D01*
X47666467Y-55563557D01*
X47732775Y-55599000D01*
X47822991Y-55647222D01*
X47842895Y-55663557D01*
X47960186Y-55759814D01*
X48042253Y-55859814D01*
X48072778Y-55897009D01*
X48072779Y-55897011D01*
X48156443Y-56053533D01*
X48156443Y-56053534D01*
X48207963Y-56223373D01*
X48225359Y-56400000D01*
X48207963Y-56576627D01*
X48177629Y-56676625D01*
X48156443Y-56746467D01*
X48102991Y-56846467D01*
X48072778Y-56902991D01*
X48043448Y-56938729D01*
X47960186Y-57040186D01*
X47858729Y-57123448D01*
X47822991Y-57152778D01*
X47822989Y-57152779D01*
X47666467Y-57236443D01*
X47612617Y-57252778D01*
X47496627Y-57287963D01*
X47430443Y-57294481D01*
X47364260Y-57301000D01*
X47275740Y-57301000D01*
X47209557Y-57294481D01*
X47143373Y-57287963D01*
X47027383Y-57252778D01*
X46973533Y-57236443D01*
X46817011Y-57152779D01*
X46817009Y-57152778D01*
X46781271Y-57123448D01*
X46679814Y-57040186D01*
X46596552Y-56938729D01*
X46567222Y-56902991D01*
X46537009Y-56846467D01*
X46483557Y-56746467D01*
X46462371Y-56676625D01*
X46432037Y-56576627D01*
X46414641Y-56400000D01*
X46432037Y-56223373D01*
X46483557Y-56053534D01*
X46483557Y-56053533D01*
X46567221Y-55897011D01*
X46567222Y-55897009D01*
X46597747Y-55859814D01*
X46679814Y-55759814D01*
X46797105Y-55663557D01*
X46817009Y-55647222D01*
X46907225Y-55599000D01*
X46973533Y-55563557D01*
X47030147Y-55546384D01*
X47143373Y-55512037D01*
X47209557Y-55505519D01*
X47275740Y-55499000D01*
X47364260Y-55499000D01*
X47430443Y-55505519D01*
X47430443Y-55505519D01*
G37*
G36*
X81280443Y-53065519D02*
X81346627Y-53072037D01*
X81459853Y-53106384D01*
X81516467Y-53123557D01*
X81655087Y-53197652D01*
X81672991Y-53207222D01*
X81708729Y-53236552D01*
X81810186Y-53319814D01*
X81893448Y-53421271D01*
X81922778Y-53457009D01*
X81922779Y-53457011D01*
X82006443Y-53613533D01*
X82006443Y-53613534D01*
X82057963Y-53783373D01*
X82075359Y-53960000D01*
X82057963Y-54136627D01*
X82036777Y-54206467D01*
X82006443Y-54306467D01*
X81976231Y-54362989D01*
X81922778Y-54462991D01*
X81893448Y-54498729D01*
X81810186Y-54600186D01*
X81708729Y-54683448D01*
X81672991Y-54712778D01*
X81672989Y-54712779D01*
X81516467Y-54796443D01*
X81459853Y-54813616D01*
X81346627Y-54847963D01*
X81280442Y-54854482D01*
X81214260Y-54861000D01*
X81125740Y-54861000D01*
X81059558Y-54854482D01*
X80993373Y-54847963D01*
X80880147Y-54813616D01*
X80823533Y-54796443D01*
X80667011Y-54712779D01*
X80667009Y-54712778D01*
X80631271Y-54683448D01*
X80529814Y-54600186D01*
X80446552Y-54498729D01*
X80417222Y-54462991D01*
X80363769Y-54362989D01*
X80333557Y-54306467D01*
X80303223Y-54206467D01*
X80282037Y-54136627D01*
X80264641Y-53960000D01*
X80282037Y-53783373D01*
X80333557Y-53613534D01*
X80333557Y-53613533D01*
X80417221Y-53457011D01*
X80417222Y-53457009D01*
X80446552Y-53421271D01*
X80529814Y-53319814D01*
X80631271Y-53236552D01*
X80667009Y-53207222D01*
X80684913Y-53197652D01*
X80823533Y-53123557D01*
X80880147Y-53106384D01*
X80993373Y-53072037D01*
X81059557Y-53065519D01*
X81125740Y-53059000D01*
X81214260Y-53059000D01*
X81280443Y-53065519D01*
X81280443Y-53065519D01*
G37*
G36*
X86360443Y-53065519D02*
X86426627Y-53072037D01*
X86539853Y-53106384D01*
X86596467Y-53123557D01*
X86735087Y-53197652D01*
X86752991Y-53207222D01*
X86788729Y-53236552D01*
X86890186Y-53319814D01*
X86973448Y-53421271D01*
X87002778Y-53457009D01*
X87002779Y-53457011D01*
X87086443Y-53613533D01*
X87086443Y-53613534D01*
X87137963Y-53783373D01*
X87155359Y-53960000D01*
X87137963Y-54136627D01*
X87116777Y-54206467D01*
X87086443Y-54306467D01*
X87056231Y-54362989D01*
X87002778Y-54462991D01*
X86973448Y-54498729D01*
X86890186Y-54600186D01*
X86788729Y-54683448D01*
X86752991Y-54712778D01*
X86752989Y-54712779D01*
X86596467Y-54796443D01*
X86539853Y-54813616D01*
X86426627Y-54847963D01*
X86360442Y-54854482D01*
X86294260Y-54861000D01*
X86205740Y-54861000D01*
X86139558Y-54854482D01*
X86073373Y-54847963D01*
X85960147Y-54813616D01*
X85903533Y-54796443D01*
X85747011Y-54712779D01*
X85747009Y-54712778D01*
X85711271Y-54683448D01*
X85609814Y-54600186D01*
X85526552Y-54498729D01*
X85497222Y-54462991D01*
X85443769Y-54362989D01*
X85413557Y-54306467D01*
X85383223Y-54206467D01*
X85362037Y-54136627D01*
X85344641Y-53960000D01*
X85362037Y-53783373D01*
X85413557Y-53613534D01*
X85413557Y-53613533D01*
X85497221Y-53457011D01*
X85497222Y-53457009D01*
X85526552Y-53421271D01*
X85609814Y-53319814D01*
X85711271Y-53236552D01*
X85747009Y-53207222D01*
X85764913Y-53197652D01*
X85903533Y-53123557D01*
X85960147Y-53106384D01*
X86073373Y-53072037D01*
X86139557Y-53065519D01*
X86205740Y-53059000D01*
X86294260Y-53059000D01*
X86360443Y-53065519D01*
X86360443Y-53065519D01*
G37*
G36*
X78740443Y-53065519D02*
X78806627Y-53072037D01*
X78919853Y-53106384D01*
X78976467Y-53123557D01*
X79115087Y-53197652D01*
X79132991Y-53207222D01*
X79168729Y-53236552D01*
X79270186Y-53319814D01*
X79353448Y-53421271D01*
X79382778Y-53457009D01*
X79382779Y-53457011D01*
X79466443Y-53613533D01*
X79466443Y-53613534D01*
X79517963Y-53783373D01*
X79535359Y-53960000D01*
X79517963Y-54136627D01*
X79496777Y-54206467D01*
X79466443Y-54306467D01*
X79436231Y-54362989D01*
X79382778Y-54462991D01*
X79353448Y-54498729D01*
X79270186Y-54600186D01*
X79168729Y-54683448D01*
X79132991Y-54712778D01*
X79132989Y-54712779D01*
X78976467Y-54796443D01*
X78919853Y-54813616D01*
X78806627Y-54847963D01*
X78740442Y-54854482D01*
X78674260Y-54861000D01*
X78585740Y-54861000D01*
X78519558Y-54854482D01*
X78453373Y-54847963D01*
X78340147Y-54813616D01*
X78283533Y-54796443D01*
X78127011Y-54712779D01*
X78127009Y-54712778D01*
X78091271Y-54683448D01*
X77989814Y-54600186D01*
X77906552Y-54498729D01*
X77877222Y-54462991D01*
X77823769Y-54362989D01*
X77793557Y-54306467D01*
X77763223Y-54206467D01*
X77742037Y-54136627D01*
X77724641Y-53960000D01*
X77742037Y-53783373D01*
X77793557Y-53613534D01*
X77793557Y-53613533D01*
X77877221Y-53457011D01*
X77877222Y-53457009D01*
X77906552Y-53421271D01*
X77989814Y-53319814D01*
X78091271Y-53236552D01*
X78127009Y-53207222D01*
X78144913Y-53197652D01*
X78283533Y-53123557D01*
X78340147Y-53106384D01*
X78453373Y-53072037D01*
X78519557Y-53065519D01*
X78585740Y-53059000D01*
X78674260Y-53059000D01*
X78740443Y-53065519D01*
X78740443Y-53065519D01*
G37*
G36*
X83820443Y-53065519D02*
X83886627Y-53072037D01*
X83999853Y-53106384D01*
X84056467Y-53123557D01*
X84195087Y-53197652D01*
X84212991Y-53207222D01*
X84248729Y-53236552D01*
X84350186Y-53319814D01*
X84433448Y-53421271D01*
X84462778Y-53457009D01*
X84462779Y-53457011D01*
X84546443Y-53613533D01*
X84546443Y-53613534D01*
X84597963Y-53783373D01*
X84615359Y-53960000D01*
X84597963Y-54136627D01*
X84576777Y-54206467D01*
X84546443Y-54306467D01*
X84516231Y-54362989D01*
X84462778Y-54462991D01*
X84433448Y-54498729D01*
X84350186Y-54600186D01*
X84248729Y-54683448D01*
X84212991Y-54712778D01*
X84212989Y-54712779D01*
X84056467Y-54796443D01*
X83999853Y-54813616D01*
X83886627Y-54847963D01*
X83820442Y-54854482D01*
X83754260Y-54861000D01*
X83665740Y-54861000D01*
X83599558Y-54854482D01*
X83533373Y-54847963D01*
X83420147Y-54813616D01*
X83363533Y-54796443D01*
X83207011Y-54712779D01*
X83207009Y-54712778D01*
X83171271Y-54683448D01*
X83069814Y-54600186D01*
X82986552Y-54498729D01*
X82957222Y-54462991D01*
X82903769Y-54362989D01*
X82873557Y-54306467D01*
X82843223Y-54206467D01*
X82822037Y-54136627D01*
X82804641Y-53960000D01*
X82822037Y-53783373D01*
X82873557Y-53613534D01*
X82873557Y-53613533D01*
X82957221Y-53457011D01*
X82957222Y-53457009D01*
X82986552Y-53421271D01*
X83069814Y-53319814D01*
X83171271Y-53236552D01*
X83207009Y-53207222D01*
X83224913Y-53197652D01*
X83363533Y-53123557D01*
X83420147Y-53106384D01*
X83533373Y-53072037D01*
X83599557Y-53065519D01*
X83665740Y-53059000D01*
X83754260Y-53059000D01*
X83820443Y-53065519D01*
X83820443Y-53065519D01*
G37*
G36*
X76200443Y-53065519D02*
X76266627Y-53072037D01*
X76379853Y-53106384D01*
X76436467Y-53123557D01*
X76575087Y-53197652D01*
X76592991Y-53207222D01*
X76628729Y-53236552D01*
X76730186Y-53319814D01*
X76813448Y-53421271D01*
X76842778Y-53457009D01*
X76842779Y-53457011D01*
X76926443Y-53613533D01*
X76926443Y-53613534D01*
X76977963Y-53783373D01*
X76995359Y-53960000D01*
X76977963Y-54136627D01*
X76956777Y-54206467D01*
X76926443Y-54306467D01*
X76896231Y-54362989D01*
X76842778Y-54462991D01*
X76813448Y-54498729D01*
X76730186Y-54600186D01*
X76628729Y-54683448D01*
X76592991Y-54712778D01*
X76592989Y-54712779D01*
X76436467Y-54796443D01*
X76379853Y-54813616D01*
X76266627Y-54847963D01*
X76200442Y-54854482D01*
X76134260Y-54861000D01*
X76045740Y-54861000D01*
X75979558Y-54854482D01*
X75913373Y-54847963D01*
X75800147Y-54813616D01*
X75743533Y-54796443D01*
X75587011Y-54712779D01*
X75587009Y-54712778D01*
X75551271Y-54683448D01*
X75449814Y-54600186D01*
X75366552Y-54498729D01*
X75337222Y-54462991D01*
X75283769Y-54362989D01*
X75253557Y-54306467D01*
X75223223Y-54206467D01*
X75202037Y-54136627D01*
X75184641Y-53960000D01*
X75202037Y-53783373D01*
X75253557Y-53613534D01*
X75253557Y-53613533D01*
X75337221Y-53457011D01*
X75337222Y-53457009D01*
X75366552Y-53421271D01*
X75449814Y-53319814D01*
X75551271Y-53236552D01*
X75587009Y-53207222D01*
X75604913Y-53197652D01*
X75743533Y-53123557D01*
X75800147Y-53106384D01*
X75913373Y-53072037D01*
X75979557Y-53065519D01*
X76045740Y-53059000D01*
X76134260Y-53059000D01*
X76200443Y-53065519D01*
X76200443Y-53065519D01*
G37*
G36*
X39810443Y-52965519D02*
X39876627Y-52972037D01*
X39989853Y-53006384D01*
X40046467Y-53023557D01*
X40112775Y-53059000D01*
X40202991Y-53107222D01*
X40222895Y-53123557D01*
X40340186Y-53219814D01*
X40422253Y-53319814D01*
X40452778Y-53357009D01*
X40452779Y-53357011D01*
X40536443Y-53513533D01*
X40536443Y-53513534D01*
X40587963Y-53683373D01*
X40605359Y-53860000D01*
X40587963Y-54036627D01*
X40557629Y-54136625D01*
X40536443Y-54206467D01*
X40482991Y-54306467D01*
X40452778Y-54362991D01*
X40423448Y-54398729D01*
X40340186Y-54500186D01*
X40238729Y-54583448D01*
X40202991Y-54612778D01*
X40202989Y-54612779D01*
X40046467Y-54696443D01*
X39992617Y-54712778D01*
X39876627Y-54747963D01*
X39810442Y-54754482D01*
X39744260Y-54761000D01*
X39655740Y-54761000D01*
X39589558Y-54754482D01*
X39523373Y-54747963D01*
X39407383Y-54712778D01*
X39353533Y-54696443D01*
X39197011Y-54612779D01*
X39197009Y-54612778D01*
X39161271Y-54583448D01*
X39059814Y-54500186D01*
X38976552Y-54398729D01*
X38947222Y-54362991D01*
X38917009Y-54306467D01*
X38863557Y-54206467D01*
X38842371Y-54136625D01*
X38812037Y-54036627D01*
X38794641Y-53860000D01*
X38812037Y-53683373D01*
X38863557Y-53513534D01*
X38863557Y-53513533D01*
X38947221Y-53357011D01*
X38947222Y-53357009D01*
X38977747Y-53319814D01*
X39059814Y-53219814D01*
X39177105Y-53123557D01*
X39197009Y-53107222D01*
X39287225Y-53059000D01*
X39353533Y-53023557D01*
X39410147Y-53006384D01*
X39523373Y-52972037D01*
X39589557Y-52965519D01*
X39655740Y-52959000D01*
X39744260Y-52959000D01*
X39810443Y-52965519D01*
X39810443Y-52965519D01*
G37*
G36*
X49970443Y-52965519D02*
X50036627Y-52972037D01*
X50149853Y-53006384D01*
X50206467Y-53023557D01*
X50272775Y-53059000D01*
X50362991Y-53107222D01*
X50382895Y-53123557D01*
X50500186Y-53219814D01*
X50582253Y-53319814D01*
X50612778Y-53357009D01*
X50612779Y-53357011D01*
X50696443Y-53513533D01*
X50696443Y-53513534D01*
X50747963Y-53683373D01*
X50765359Y-53860000D01*
X50747963Y-54036627D01*
X50717629Y-54136625D01*
X50696443Y-54206467D01*
X50642991Y-54306467D01*
X50612778Y-54362991D01*
X50583448Y-54398729D01*
X50500186Y-54500186D01*
X50398729Y-54583448D01*
X50362991Y-54612778D01*
X50362989Y-54612779D01*
X50206467Y-54696443D01*
X50152617Y-54712778D01*
X50036627Y-54747963D01*
X49970442Y-54754482D01*
X49904260Y-54761000D01*
X49815740Y-54761000D01*
X49749558Y-54754482D01*
X49683373Y-54747963D01*
X49567383Y-54712778D01*
X49513533Y-54696443D01*
X49357011Y-54612779D01*
X49357009Y-54612778D01*
X49321271Y-54583448D01*
X49219814Y-54500186D01*
X49136552Y-54398729D01*
X49107222Y-54362991D01*
X49077009Y-54306467D01*
X49023557Y-54206467D01*
X49002371Y-54136625D01*
X48972037Y-54036627D01*
X48954641Y-53860000D01*
X48972037Y-53683373D01*
X49023557Y-53513534D01*
X49023557Y-53513533D01*
X49107221Y-53357011D01*
X49107222Y-53357009D01*
X49137747Y-53319814D01*
X49219814Y-53219814D01*
X49337105Y-53123557D01*
X49357009Y-53107222D01*
X49447225Y-53059000D01*
X49513533Y-53023557D01*
X49570147Y-53006384D01*
X49683373Y-52972037D01*
X49749557Y-52965519D01*
X49815740Y-52959000D01*
X49904260Y-52959000D01*
X49970443Y-52965519D01*
X49970443Y-52965519D01*
G37*
G36*
X47430443Y-52965519D02*
X47496627Y-52972037D01*
X47609853Y-53006384D01*
X47666467Y-53023557D01*
X47732775Y-53059000D01*
X47822991Y-53107222D01*
X47842895Y-53123557D01*
X47960186Y-53219814D01*
X48042253Y-53319814D01*
X48072778Y-53357009D01*
X48072779Y-53357011D01*
X48156443Y-53513533D01*
X48156443Y-53513534D01*
X48207963Y-53683373D01*
X48225359Y-53860000D01*
X48207963Y-54036627D01*
X48177629Y-54136625D01*
X48156443Y-54206467D01*
X48102991Y-54306467D01*
X48072778Y-54362991D01*
X48043448Y-54398729D01*
X47960186Y-54500186D01*
X47858729Y-54583448D01*
X47822991Y-54612778D01*
X47822989Y-54612779D01*
X47666467Y-54696443D01*
X47612617Y-54712778D01*
X47496627Y-54747963D01*
X47430442Y-54754482D01*
X47364260Y-54761000D01*
X47275740Y-54761000D01*
X47209558Y-54754482D01*
X47143373Y-54747963D01*
X47027383Y-54712778D01*
X46973533Y-54696443D01*
X46817011Y-54612779D01*
X46817009Y-54612778D01*
X46781271Y-54583448D01*
X46679814Y-54500186D01*
X46596552Y-54398729D01*
X46567222Y-54362991D01*
X46537009Y-54306467D01*
X46483557Y-54206467D01*
X46462371Y-54136625D01*
X46432037Y-54036627D01*
X46414641Y-53860000D01*
X46432037Y-53683373D01*
X46483557Y-53513534D01*
X46483557Y-53513533D01*
X46567221Y-53357011D01*
X46567222Y-53357009D01*
X46597747Y-53319814D01*
X46679814Y-53219814D01*
X46797105Y-53123557D01*
X46817009Y-53107222D01*
X46907225Y-53059000D01*
X46973533Y-53023557D01*
X47030147Y-53006384D01*
X47143373Y-52972037D01*
X47209557Y-52965519D01*
X47275740Y-52959000D01*
X47364260Y-52959000D01*
X47430443Y-52965519D01*
X47430443Y-52965519D01*
G37*
G36*
X42350443Y-52965519D02*
X42416627Y-52972037D01*
X42529853Y-53006384D01*
X42586467Y-53023557D01*
X42652775Y-53059000D01*
X42742991Y-53107222D01*
X42762895Y-53123557D01*
X42880186Y-53219814D01*
X42962253Y-53319814D01*
X42992778Y-53357009D01*
X42992779Y-53357011D01*
X43076443Y-53513533D01*
X43076443Y-53513534D01*
X43127963Y-53683373D01*
X43145359Y-53860000D01*
X43127963Y-54036627D01*
X43097629Y-54136625D01*
X43076443Y-54206467D01*
X43022991Y-54306467D01*
X42992778Y-54362991D01*
X42963448Y-54398729D01*
X42880186Y-54500186D01*
X42778729Y-54583448D01*
X42742991Y-54612778D01*
X42742989Y-54612779D01*
X42586467Y-54696443D01*
X42532617Y-54712778D01*
X42416627Y-54747963D01*
X42350442Y-54754482D01*
X42284260Y-54761000D01*
X42195740Y-54761000D01*
X42129558Y-54754482D01*
X42063373Y-54747963D01*
X41947383Y-54712778D01*
X41893533Y-54696443D01*
X41737011Y-54612779D01*
X41737009Y-54612778D01*
X41701271Y-54583448D01*
X41599814Y-54500186D01*
X41516552Y-54398729D01*
X41487222Y-54362991D01*
X41457009Y-54306467D01*
X41403557Y-54206467D01*
X41382371Y-54136625D01*
X41352037Y-54036627D01*
X41334641Y-53860000D01*
X41352037Y-53683373D01*
X41403557Y-53513534D01*
X41403557Y-53513533D01*
X41487221Y-53357011D01*
X41487222Y-53357009D01*
X41517747Y-53319814D01*
X41599814Y-53219814D01*
X41717105Y-53123557D01*
X41737009Y-53107222D01*
X41827225Y-53059000D01*
X41893533Y-53023557D01*
X41950147Y-53006384D01*
X42063373Y-52972037D01*
X42129557Y-52965519D01*
X42195740Y-52959000D01*
X42284260Y-52959000D01*
X42350443Y-52965519D01*
X42350443Y-52965519D01*
G37*
G36*
X44890443Y-52965519D02*
X44956627Y-52972037D01*
X45069853Y-53006384D01*
X45126467Y-53023557D01*
X45192775Y-53059000D01*
X45282991Y-53107222D01*
X45302895Y-53123557D01*
X45420186Y-53219814D01*
X45502253Y-53319814D01*
X45532778Y-53357009D01*
X45532779Y-53357011D01*
X45616443Y-53513533D01*
X45616443Y-53513534D01*
X45667963Y-53683373D01*
X45685359Y-53860000D01*
X45667963Y-54036627D01*
X45637629Y-54136625D01*
X45616443Y-54206467D01*
X45562991Y-54306467D01*
X45532778Y-54362991D01*
X45503448Y-54398729D01*
X45420186Y-54500186D01*
X45318729Y-54583448D01*
X45282991Y-54612778D01*
X45282989Y-54612779D01*
X45126467Y-54696443D01*
X45072617Y-54712778D01*
X44956627Y-54747963D01*
X44890442Y-54754482D01*
X44824260Y-54761000D01*
X44735740Y-54761000D01*
X44669558Y-54754482D01*
X44603373Y-54747963D01*
X44487383Y-54712778D01*
X44433533Y-54696443D01*
X44277011Y-54612779D01*
X44277009Y-54612778D01*
X44241271Y-54583448D01*
X44139814Y-54500186D01*
X44056552Y-54398729D01*
X44027222Y-54362991D01*
X43997009Y-54306467D01*
X43943557Y-54206467D01*
X43922371Y-54136625D01*
X43892037Y-54036627D01*
X43874641Y-53860000D01*
X43892037Y-53683373D01*
X43943557Y-53513534D01*
X43943557Y-53513533D01*
X44027221Y-53357011D01*
X44027222Y-53357009D01*
X44057747Y-53319814D01*
X44139814Y-53219814D01*
X44257105Y-53123557D01*
X44277009Y-53107222D01*
X44367225Y-53059000D01*
X44433533Y-53023557D01*
X44490147Y-53006384D01*
X44603373Y-52972037D01*
X44669557Y-52965519D01*
X44735740Y-52959000D01*
X44824260Y-52959000D01*
X44890443Y-52965519D01*
X44890443Y-52965519D01*
G37*
G36*
X61870442Y-48225518D02*
X61936627Y-48232037D01*
X62049853Y-48266384D01*
X62106467Y-48283557D01*
X62245087Y-48357652D01*
X62262991Y-48367222D01*
X62298729Y-48396552D01*
X62400186Y-48479814D01*
X62483448Y-48581271D01*
X62512778Y-48617009D01*
X62512779Y-48617011D01*
X62596443Y-48773533D01*
X62596443Y-48773534D01*
X62647963Y-48943373D01*
X62665359Y-49120000D01*
X62647963Y-49296627D01*
X62613616Y-49409853D01*
X62596443Y-49466467D01*
X62522348Y-49605087D01*
X62512778Y-49622991D01*
X62483448Y-49658729D01*
X62400186Y-49760186D01*
X62298729Y-49843448D01*
X62262991Y-49872778D01*
X62262989Y-49872779D01*
X62106467Y-49956443D01*
X62049853Y-49973616D01*
X61936627Y-50007963D01*
X61870443Y-50014481D01*
X61804260Y-50021000D01*
X61715740Y-50021000D01*
X61649557Y-50014481D01*
X61583373Y-50007963D01*
X61470147Y-49973616D01*
X61413533Y-49956443D01*
X61257011Y-49872779D01*
X61257009Y-49872778D01*
X61221271Y-49843448D01*
X61119814Y-49760186D01*
X61036552Y-49658729D01*
X61007222Y-49622991D01*
X60997652Y-49605087D01*
X60923557Y-49466467D01*
X60906384Y-49409853D01*
X60872037Y-49296627D01*
X60854641Y-49120000D01*
X60872037Y-48943373D01*
X60923557Y-48773534D01*
X60923557Y-48773533D01*
X61007221Y-48617011D01*
X61007222Y-48617009D01*
X61036552Y-48581271D01*
X61119814Y-48479814D01*
X61221271Y-48396552D01*
X61257009Y-48367222D01*
X61274913Y-48357652D01*
X61413533Y-48283557D01*
X61470147Y-48266384D01*
X61583373Y-48232037D01*
X61649558Y-48225518D01*
X61715740Y-48219000D01*
X61804260Y-48219000D01*
X61870442Y-48225518D01*
X61870442Y-48225518D01*
G37*
G36*
X65201000Y-50021000D02*
X63399000Y-50021000D01*
X63399000Y-48219000D01*
X65201000Y-48219000D01*
X65201000Y-50021000D01*
X65201000Y-50021000D01*
G37*
G36*
X61870443Y-45685519D02*
X61936627Y-45692037D01*
X62049853Y-45726384D01*
X62106467Y-45743557D01*
X62245087Y-45817652D01*
X62262991Y-45827222D01*
X62298729Y-45856552D01*
X62400186Y-45939814D01*
X62483448Y-46041271D01*
X62512778Y-46077009D01*
X62512779Y-46077011D01*
X62596443Y-46233533D01*
X62596443Y-46233534D01*
X62647963Y-46403373D01*
X62665359Y-46580000D01*
X62647963Y-46756627D01*
X62613616Y-46869853D01*
X62596443Y-46926467D01*
X62522348Y-47065087D01*
X62512778Y-47082991D01*
X62483448Y-47118729D01*
X62400186Y-47220186D01*
X62298729Y-47303448D01*
X62262991Y-47332778D01*
X62262989Y-47332779D01*
X62106467Y-47416443D01*
X62049853Y-47433616D01*
X61936627Y-47467963D01*
X61870443Y-47474481D01*
X61804260Y-47481000D01*
X61715740Y-47481000D01*
X61649557Y-47474481D01*
X61583373Y-47467963D01*
X61470147Y-47433616D01*
X61413533Y-47416443D01*
X61257011Y-47332779D01*
X61257009Y-47332778D01*
X61221271Y-47303448D01*
X61119814Y-47220186D01*
X61036552Y-47118729D01*
X61007222Y-47082991D01*
X60997652Y-47065087D01*
X60923557Y-46926467D01*
X60906384Y-46869853D01*
X60872037Y-46756627D01*
X60854641Y-46580000D01*
X60872037Y-46403373D01*
X60923557Y-46233534D01*
X60923557Y-46233533D01*
X61007221Y-46077011D01*
X61007222Y-46077009D01*
X61036552Y-46041271D01*
X61119814Y-45939814D01*
X61221271Y-45856552D01*
X61257009Y-45827222D01*
X61274913Y-45817652D01*
X61413533Y-45743557D01*
X61470147Y-45726384D01*
X61583373Y-45692037D01*
X61649557Y-45685519D01*
X61715740Y-45679000D01*
X61804260Y-45679000D01*
X61870443Y-45685519D01*
X61870443Y-45685519D01*
G37*
G36*
X64410443Y-45685519D02*
X64476627Y-45692037D01*
X64589853Y-45726384D01*
X64646467Y-45743557D01*
X64785087Y-45817652D01*
X64802991Y-45827222D01*
X64838729Y-45856552D01*
X64940186Y-45939814D01*
X65023448Y-46041271D01*
X65052778Y-46077009D01*
X65052779Y-46077011D01*
X65136443Y-46233533D01*
X65136443Y-46233534D01*
X65187963Y-46403373D01*
X65205359Y-46580000D01*
X65187963Y-46756627D01*
X65153616Y-46869853D01*
X65136443Y-46926467D01*
X65062348Y-47065087D01*
X65052778Y-47082991D01*
X65023448Y-47118729D01*
X64940186Y-47220186D01*
X64838729Y-47303448D01*
X64802991Y-47332778D01*
X64802989Y-47332779D01*
X64646467Y-47416443D01*
X64589853Y-47433616D01*
X64476627Y-47467963D01*
X64410443Y-47474481D01*
X64344260Y-47481000D01*
X64255740Y-47481000D01*
X64189557Y-47474481D01*
X64123373Y-47467963D01*
X64010147Y-47433616D01*
X63953533Y-47416443D01*
X63797011Y-47332779D01*
X63797009Y-47332778D01*
X63761271Y-47303448D01*
X63659814Y-47220186D01*
X63576552Y-47118729D01*
X63547222Y-47082991D01*
X63537652Y-47065087D01*
X63463557Y-46926467D01*
X63446384Y-46869853D01*
X63412037Y-46756627D01*
X63394641Y-46580000D01*
X63412037Y-46403373D01*
X63463557Y-46233534D01*
X63463557Y-46233533D01*
X63547221Y-46077011D01*
X63547222Y-46077009D01*
X63576552Y-46041271D01*
X63659814Y-45939814D01*
X63761271Y-45856552D01*
X63797009Y-45827222D01*
X63814913Y-45817652D01*
X63953533Y-45743557D01*
X64010147Y-45726384D01*
X64123373Y-45692037D01*
X64189557Y-45685519D01*
X64255740Y-45679000D01*
X64344260Y-45679000D01*
X64410443Y-45685519D01*
X64410443Y-45685519D01*
G37*
G36*
X61870442Y-43145518D02*
X61936627Y-43152037D01*
X62049853Y-43186384D01*
X62106467Y-43203557D01*
X62245087Y-43277652D01*
X62262991Y-43287222D01*
X62298729Y-43316552D01*
X62400186Y-43399814D01*
X62483448Y-43501271D01*
X62512778Y-43537009D01*
X62512779Y-43537011D01*
X62596443Y-43693533D01*
X62596443Y-43693534D01*
X62647963Y-43863373D01*
X62665359Y-44040000D01*
X62647963Y-44216627D01*
X62613616Y-44329853D01*
X62596443Y-44386467D01*
X62522348Y-44525087D01*
X62512778Y-44542991D01*
X62483448Y-44578729D01*
X62400186Y-44680186D01*
X62298729Y-44763448D01*
X62262991Y-44792778D01*
X62262989Y-44792779D01*
X62106467Y-44876443D01*
X62049853Y-44893616D01*
X61936627Y-44927963D01*
X61870443Y-44934481D01*
X61804260Y-44941000D01*
X61715740Y-44941000D01*
X61649557Y-44934481D01*
X61583373Y-44927963D01*
X61470147Y-44893616D01*
X61413533Y-44876443D01*
X61257011Y-44792779D01*
X61257009Y-44792778D01*
X61221271Y-44763448D01*
X61119814Y-44680186D01*
X61036552Y-44578729D01*
X61007222Y-44542991D01*
X60997652Y-44525087D01*
X60923557Y-44386467D01*
X60906384Y-44329853D01*
X60872037Y-44216627D01*
X60854641Y-44040000D01*
X60872037Y-43863373D01*
X60923557Y-43693534D01*
X60923557Y-43693533D01*
X61007221Y-43537011D01*
X61007222Y-43537009D01*
X61036552Y-43501271D01*
X61119814Y-43399814D01*
X61221271Y-43316552D01*
X61257009Y-43287222D01*
X61274913Y-43277652D01*
X61413533Y-43203557D01*
X61470147Y-43186384D01*
X61583373Y-43152037D01*
X61649558Y-43145518D01*
X61715740Y-43139000D01*
X61804260Y-43139000D01*
X61870442Y-43145518D01*
X61870442Y-43145518D01*
G37*
G36*
X64410442Y-43145518D02*
X64476627Y-43152037D01*
X64589853Y-43186384D01*
X64646467Y-43203557D01*
X64785087Y-43277652D01*
X64802991Y-43287222D01*
X64838729Y-43316552D01*
X64940186Y-43399814D01*
X65023448Y-43501271D01*
X65052778Y-43537009D01*
X65052779Y-43537011D01*
X65136443Y-43693533D01*
X65136443Y-43693534D01*
X65187963Y-43863373D01*
X65205359Y-44040000D01*
X65187963Y-44216627D01*
X65153616Y-44329853D01*
X65136443Y-44386467D01*
X65062348Y-44525087D01*
X65052778Y-44542991D01*
X65023448Y-44578729D01*
X64940186Y-44680186D01*
X64838729Y-44763448D01*
X64802991Y-44792778D01*
X64802989Y-44792779D01*
X64646467Y-44876443D01*
X64589853Y-44893616D01*
X64476627Y-44927963D01*
X64410443Y-44934481D01*
X64344260Y-44941000D01*
X64255740Y-44941000D01*
X64189557Y-44934481D01*
X64123373Y-44927963D01*
X64010147Y-44893616D01*
X63953533Y-44876443D01*
X63797011Y-44792779D01*
X63797009Y-44792778D01*
X63761271Y-44763448D01*
X63659814Y-44680186D01*
X63576552Y-44578729D01*
X63547222Y-44542991D01*
X63537652Y-44525087D01*
X63463557Y-44386467D01*
X63446384Y-44329853D01*
X63412037Y-44216627D01*
X63394641Y-44040000D01*
X63412037Y-43863373D01*
X63463557Y-43693534D01*
X63463557Y-43693533D01*
X63547221Y-43537011D01*
X63547222Y-43537009D01*
X63576552Y-43501271D01*
X63659814Y-43399814D01*
X63761271Y-43316552D01*
X63797009Y-43287222D01*
X63814913Y-43277652D01*
X63953533Y-43203557D01*
X64010147Y-43186384D01*
X64123373Y-43152037D01*
X64189558Y-43145518D01*
X64255740Y-43139000D01*
X64344260Y-43139000D01*
X64410442Y-43145518D01*
X64410442Y-43145518D01*
G37*
G36*
X64410443Y-40605519D02*
X64476627Y-40612037D01*
X64589853Y-40646384D01*
X64646467Y-40663557D01*
X64785087Y-40737652D01*
X64802991Y-40747222D01*
X64838729Y-40776552D01*
X64940186Y-40859814D01*
X65023448Y-40961271D01*
X65052778Y-40997009D01*
X65052779Y-40997011D01*
X65136443Y-41153533D01*
X65136443Y-41153534D01*
X65187963Y-41323373D01*
X65205359Y-41500000D01*
X65187963Y-41676627D01*
X65153616Y-41789853D01*
X65136443Y-41846467D01*
X65062348Y-41985087D01*
X65052778Y-42002991D01*
X65023448Y-42038729D01*
X64940186Y-42140186D01*
X64838729Y-42223448D01*
X64802991Y-42252778D01*
X64802989Y-42252779D01*
X64646467Y-42336443D01*
X64589853Y-42353616D01*
X64476627Y-42387963D01*
X64410443Y-42394481D01*
X64344260Y-42401000D01*
X64255740Y-42401000D01*
X64189557Y-42394481D01*
X64123373Y-42387963D01*
X64010147Y-42353616D01*
X63953533Y-42336443D01*
X63797011Y-42252779D01*
X63797009Y-42252778D01*
X63761271Y-42223448D01*
X63659814Y-42140186D01*
X63576552Y-42038729D01*
X63547222Y-42002991D01*
X63537652Y-41985087D01*
X63463557Y-41846467D01*
X63446384Y-41789853D01*
X63412037Y-41676627D01*
X63394641Y-41500000D01*
X63412037Y-41323373D01*
X63463557Y-41153534D01*
X63463557Y-41153533D01*
X63547221Y-40997011D01*
X63547222Y-40997009D01*
X63576552Y-40961271D01*
X63659814Y-40859814D01*
X63761271Y-40776552D01*
X63797009Y-40747222D01*
X63814913Y-40737652D01*
X63953533Y-40663557D01*
X64010147Y-40646384D01*
X64123373Y-40612037D01*
X64189557Y-40605519D01*
X64255740Y-40599000D01*
X64344260Y-40599000D01*
X64410443Y-40605519D01*
X64410443Y-40605519D01*
G37*
G36*
X61870443Y-40605519D02*
X61936627Y-40612037D01*
X62049853Y-40646384D01*
X62106467Y-40663557D01*
X62245087Y-40737652D01*
X62262991Y-40747222D01*
X62298729Y-40776552D01*
X62400186Y-40859814D01*
X62483448Y-40961271D01*
X62512778Y-40997009D01*
X62512779Y-40997011D01*
X62596443Y-41153533D01*
X62596443Y-41153534D01*
X62647963Y-41323373D01*
X62665359Y-41500000D01*
X62647963Y-41676627D01*
X62613616Y-41789853D01*
X62596443Y-41846467D01*
X62522348Y-41985087D01*
X62512778Y-42002991D01*
X62483448Y-42038729D01*
X62400186Y-42140186D01*
X62298729Y-42223448D01*
X62262991Y-42252778D01*
X62262989Y-42252779D01*
X62106467Y-42336443D01*
X62049853Y-42353616D01*
X61936627Y-42387963D01*
X61870443Y-42394481D01*
X61804260Y-42401000D01*
X61715740Y-42401000D01*
X61649557Y-42394481D01*
X61583373Y-42387963D01*
X61470147Y-42353616D01*
X61413533Y-42336443D01*
X61257011Y-42252779D01*
X61257009Y-42252778D01*
X61221271Y-42223448D01*
X61119814Y-42140186D01*
X61036552Y-42038729D01*
X61007222Y-42002991D01*
X60997652Y-41985087D01*
X60923557Y-41846467D01*
X60906384Y-41789853D01*
X60872037Y-41676627D01*
X60854641Y-41500000D01*
X60872037Y-41323373D01*
X60923557Y-41153534D01*
X60923557Y-41153533D01*
X61007221Y-40997011D01*
X61007222Y-40997009D01*
X61036552Y-40961271D01*
X61119814Y-40859814D01*
X61221271Y-40776552D01*
X61257009Y-40747222D01*
X61274913Y-40737652D01*
X61413533Y-40663557D01*
X61470147Y-40646384D01*
X61583373Y-40612037D01*
X61649557Y-40605519D01*
X61715740Y-40599000D01*
X61804260Y-40599000D01*
X61870443Y-40605519D01*
X61870443Y-40605519D01*
G37*
G36*
X61870442Y-38065518D02*
X61936627Y-38072037D01*
X62049853Y-38106384D01*
X62106467Y-38123557D01*
X62245087Y-38197652D01*
X62262991Y-38207222D01*
X62298729Y-38236552D01*
X62400186Y-38319814D01*
X62483448Y-38421271D01*
X62512778Y-38457009D01*
X62512779Y-38457011D01*
X62596443Y-38613533D01*
X62596443Y-38613534D01*
X62647963Y-38783373D01*
X62665359Y-38960000D01*
X62647963Y-39136627D01*
X62613616Y-39249853D01*
X62596443Y-39306467D01*
X62522348Y-39445087D01*
X62512778Y-39462991D01*
X62483448Y-39498729D01*
X62400186Y-39600186D01*
X62298729Y-39683448D01*
X62262991Y-39712778D01*
X62262989Y-39712779D01*
X62106467Y-39796443D01*
X62049853Y-39813616D01*
X61936627Y-39847963D01*
X61870442Y-39854482D01*
X61804260Y-39861000D01*
X61715740Y-39861000D01*
X61649558Y-39854482D01*
X61583373Y-39847963D01*
X61470147Y-39813616D01*
X61413533Y-39796443D01*
X61257011Y-39712779D01*
X61257009Y-39712778D01*
X61221271Y-39683448D01*
X61119814Y-39600186D01*
X61036552Y-39498729D01*
X61007222Y-39462991D01*
X60997652Y-39445087D01*
X60923557Y-39306467D01*
X60906384Y-39249853D01*
X60872037Y-39136627D01*
X60854641Y-38960000D01*
X60872037Y-38783373D01*
X60923557Y-38613534D01*
X60923557Y-38613533D01*
X61007221Y-38457011D01*
X61007222Y-38457009D01*
X61036552Y-38421271D01*
X61119814Y-38319814D01*
X61221271Y-38236552D01*
X61257009Y-38207222D01*
X61274913Y-38197652D01*
X61413533Y-38123557D01*
X61470147Y-38106384D01*
X61583373Y-38072037D01*
X61649558Y-38065518D01*
X61715740Y-38059000D01*
X61804260Y-38059000D01*
X61870442Y-38065518D01*
X61870442Y-38065518D01*
G37*
G36*
X64410442Y-38065518D02*
X64476627Y-38072037D01*
X64589853Y-38106384D01*
X64646467Y-38123557D01*
X64785087Y-38197652D01*
X64802991Y-38207222D01*
X64838729Y-38236552D01*
X64940186Y-38319814D01*
X65023448Y-38421271D01*
X65052778Y-38457009D01*
X65052779Y-38457011D01*
X65136443Y-38613533D01*
X65136443Y-38613534D01*
X65187963Y-38783373D01*
X65205359Y-38960000D01*
X65187963Y-39136627D01*
X65153616Y-39249853D01*
X65136443Y-39306467D01*
X65062348Y-39445087D01*
X65052778Y-39462991D01*
X65023448Y-39498729D01*
X64940186Y-39600186D01*
X64838729Y-39683448D01*
X64802991Y-39712778D01*
X64802989Y-39712779D01*
X64646467Y-39796443D01*
X64589853Y-39813616D01*
X64476627Y-39847963D01*
X64410442Y-39854482D01*
X64344260Y-39861000D01*
X64255740Y-39861000D01*
X64189558Y-39854482D01*
X64123373Y-39847963D01*
X64010147Y-39813616D01*
X63953533Y-39796443D01*
X63797011Y-39712779D01*
X63797009Y-39712778D01*
X63761271Y-39683448D01*
X63659814Y-39600186D01*
X63576552Y-39498729D01*
X63547222Y-39462991D01*
X63537652Y-39445087D01*
X63463557Y-39306467D01*
X63446384Y-39249853D01*
X63412037Y-39136627D01*
X63394641Y-38960000D01*
X63412037Y-38783373D01*
X63463557Y-38613534D01*
X63463557Y-38613533D01*
X63547221Y-38457011D01*
X63547222Y-38457009D01*
X63576552Y-38421271D01*
X63659814Y-38319814D01*
X63761271Y-38236552D01*
X63797009Y-38207222D01*
X63814913Y-38197652D01*
X63953533Y-38123557D01*
X64010147Y-38106384D01*
X64123373Y-38072037D01*
X64189558Y-38065518D01*
X64255740Y-38059000D01*
X64344260Y-38059000D01*
X64410442Y-38065518D01*
X64410442Y-38065518D01*
G37*
M02*
