G04 #@! TF.GenerationSoftware,KiCad,Pcbnew,5.0.2-bee76a0~70~ubuntu18.10.1*
G04 #@! TF.CreationDate,2019-05-27T17:13:18+10:00*
G04 #@! TF.ProjectId,mult,6d756c74-2e6b-4696-9361-645f70636258,rev?*
G04 #@! TF.SameCoordinates,Original*
G04 #@! TF.FileFunction,Copper,L1,Top*
G04 #@! TF.FilePolarity,Positive*
%FSLAX46Y46*%
G04 Gerber Fmt 4.6, Leading zero omitted, Abs format (unit mm)*
G04 Created by KiCad (PCBNEW 5.0.2-bee76a0~70~ubuntu18.10.1) date Mon 27 May 2019 17:13:18 AEST*
%MOMM*%
%LPD*%
G01*
G04 APERTURE LIST*
G04 #@! TA.AperFunction,ComponentPad*
%ADD10R,1.700000X1.700000*%
G04 #@! TD*
G04 #@! TA.AperFunction,ComponentPad*
%ADD11O,1.700000X1.700000*%
G04 #@! TD*
G04 #@! TA.AperFunction,ViaPad*
%ADD12C,0.800000*%
G04 #@! TD*
G04 #@! TA.AperFunction,Conductor*
%ADD13C,0.250000*%
G04 #@! TD*
G04 #@! TA.AperFunction,Conductor*
%ADD14C,0.254000*%
G04 #@! TD*
G04 APERTURE END LIST*
D10*
G04 #@! TO.P,J1,1*
G04 #@! TO.N,TXD*
X93940000Y-58900000D03*
D11*
G04 #@! TO.P,J1,2*
G04 #@! TO.N,RXD*
X96480000Y-58900000D03*
G04 #@! TO.P,J1,3*
G04 #@! TO.N,SCK*
X93940000Y-61440000D03*
G04 #@! TO.P,J1,4*
G04 #@! TO.N,MOSI*
X96480000Y-61440000D03*
G04 #@! TO.P,J1,5*
G04 #@! TO.N,RST*
X93940000Y-63980000D03*
G04 #@! TO.P,J1,6*
G04 #@! TO.N,MISO*
X96480000Y-63980000D03*
G04 #@! TO.P,J1,7*
G04 #@! TO.N,VCC*
X93940000Y-66520000D03*
G04 #@! TO.P,J1,8*
G04 #@! TO.N,SDA*
X96480000Y-66520000D03*
G04 #@! TO.P,J1,9*
G04 #@! TO.N,GND*
X93940000Y-69060000D03*
G04 #@! TO.P,J1,10*
G04 #@! TO.N,SCL*
X96480000Y-69060000D03*
G04 #@! TD*
D10*
G04 #@! TO.P,J2,1*
G04 #@! TO.N,TXD*
X39700000Y-56400000D03*
D11*
G04 #@! TO.P,J2,2*
G04 #@! TO.N,RXD*
X39700000Y-53860000D03*
G04 #@! TO.P,J2,3*
G04 #@! TO.N,SCK*
X42240000Y-56400000D03*
G04 #@! TO.P,J2,4*
G04 #@! TO.N,MOSI*
X42240000Y-53860000D03*
G04 #@! TO.P,J2,5*
G04 #@! TO.N,RST*
X44780000Y-56400000D03*
G04 #@! TO.P,J2,6*
G04 #@! TO.N,MISO*
X44780000Y-53860000D03*
G04 #@! TO.P,J2,7*
G04 #@! TO.N,VCC*
X47320000Y-56400000D03*
G04 #@! TO.P,J2,8*
G04 #@! TO.N,SDA*
X47320000Y-53860000D03*
G04 #@! TO.P,J2,9*
G04 #@! TO.N,GND*
X49860000Y-56400000D03*
G04 #@! TO.P,J2,10*
G04 #@! TO.N,SCL*
X49860000Y-53860000D03*
G04 #@! TD*
D10*
G04 #@! TO.P,J3,1*
G04 #@! TO.N,TXD*
X64300000Y-49120000D03*
D11*
G04 #@! TO.P,J3,2*
G04 #@! TO.N,RXD*
X61760000Y-49120000D03*
G04 #@! TO.P,J3,3*
G04 #@! TO.N,SCK*
X64300000Y-46580000D03*
G04 #@! TO.P,J3,4*
G04 #@! TO.N,MOSI*
X61760000Y-46580000D03*
G04 #@! TO.P,J3,5*
G04 #@! TO.N,RST*
X64300000Y-44040000D03*
G04 #@! TO.P,J3,6*
G04 #@! TO.N,MISO*
X61760000Y-44040000D03*
G04 #@! TO.P,J3,7*
G04 #@! TO.N,VCC*
X64300000Y-41500000D03*
G04 #@! TO.P,J3,8*
G04 #@! TO.N,SDA*
X61760000Y-41500000D03*
G04 #@! TO.P,J3,9*
G04 #@! TO.N,GND*
X64300000Y-38960000D03*
G04 #@! TO.P,J3,10*
G04 #@! TO.N,SCL*
X61760000Y-38960000D03*
G04 #@! TD*
G04 #@! TO.P,J4,10*
G04 #@! TO.N,SCL*
X51490000Y-78260000D03*
G04 #@! TO.P,J4,9*
G04 #@! TO.N,GND*
X48950000Y-78260000D03*
G04 #@! TO.P,J4,8*
G04 #@! TO.N,SDA*
X51490000Y-75720000D03*
G04 #@! TO.P,J4,7*
G04 #@! TO.N,VCC*
X48950000Y-75720000D03*
G04 #@! TO.P,J4,6*
G04 #@! TO.N,MISO*
X51490000Y-73180000D03*
G04 #@! TO.P,J4,5*
G04 #@! TO.N,RST*
X48950000Y-73180000D03*
G04 #@! TO.P,J4,4*
G04 #@! TO.N,MOSI*
X51490000Y-70640000D03*
G04 #@! TO.P,J4,3*
G04 #@! TO.N,SCK*
X48950000Y-70640000D03*
G04 #@! TO.P,J4,2*
G04 #@! TO.N,RXD*
X51490000Y-68100000D03*
D10*
G04 #@! TO.P,J4,1*
G04 #@! TO.N,TXD*
X48950000Y-68100000D03*
G04 #@! TD*
D11*
G04 #@! TO.P,J5,10*
G04 #@! TO.N,SCL*
X76740000Y-78210000D03*
G04 #@! TO.P,J5,9*
G04 #@! TO.N,GND*
X74200000Y-78210000D03*
G04 #@! TO.P,J5,8*
G04 #@! TO.N,SDA*
X76740000Y-75670000D03*
G04 #@! TO.P,J5,7*
G04 #@! TO.N,VCC*
X74200000Y-75670000D03*
G04 #@! TO.P,J5,6*
G04 #@! TO.N,MISO*
X76740000Y-73130000D03*
G04 #@! TO.P,J5,5*
G04 #@! TO.N,RST*
X74200000Y-73130000D03*
G04 #@! TO.P,J5,4*
G04 #@! TO.N,MOSI*
X76740000Y-70590000D03*
G04 #@! TO.P,J5,3*
G04 #@! TO.N,SCK*
X74200000Y-70590000D03*
G04 #@! TO.P,J5,2*
G04 #@! TO.N,RXD*
X76740000Y-68050000D03*
D10*
G04 #@! TO.P,J5,1*
G04 #@! TO.N,TXD*
X74200000Y-68050000D03*
G04 #@! TD*
G04 #@! TO.P,J6,1*
G04 #@! TO.N,TXD*
X76090000Y-56500000D03*
D11*
G04 #@! TO.P,J6,2*
G04 #@! TO.N,RXD*
X76090000Y-53960000D03*
G04 #@! TO.P,J6,3*
G04 #@! TO.N,SCK*
X78630000Y-56500000D03*
G04 #@! TO.P,J6,4*
G04 #@! TO.N,MOSI*
X78630000Y-53960000D03*
G04 #@! TO.P,J6,5*
G04 #@! TO.N,RST*
X81170000Y-56500000D03*
G04 #@! TO.P,J6,6*
G04 #@! TO.N,MISO*
X81170000Y-53960000D03*
G04 #@! TO.P,J6,7*
G04 #@! TO.N,VCC*
X83710000Y-56500000D03*
G04 #@! TO.P,J6,8*
G04 #@! TO.N,SDA*
X83710000Y-53960000D03*
G04 #@! TO.P,J6,9*
G04 #@! TO.N,GND*
X86250000Y-56500000D03*
G04 #@! TO.P,J6,10*
G04 #@! TO.N,SCL*
X86250000Y-53960000D03*
G04 #@! TD*
D12*
G04 #@! TO.N,TXD*
X67850000Y-54450000D03*
X65130000Y-52060000D03*
X59420000Y-68000000D03*
X68590000Y-68000000D03*
X79560000Y-65280000D03*
X77700000Y-64080000D03*
X86398855Y-62037731D03*
X90160000Y-58900000D03*
G04 #@! TO.N,RXD*
X80310000Y-67750000D03*
X89957340Y-63337340D03*
G04 #@! TO.N,SCK*
X59620000Y-53370000D03*
X77454999Y-50784999D03*
X46270000Y-69170000D03*
X47520000Y-61730000D03*
X46130000Y-58980000D03*
X89970000Y-64350000D03*
X83750114Y-66392863D03*
X69647340Y-46092660D03*
G04 #@! TO.N,MOSI*
X51900000Y-46940000D03*
X55610000Y-46910000D03*
X48295010Y-64533078D03*
X80430000Y-69890000D03*
X89981441Y-65378286D03*
X84724722Y-66168893D03*
X77400000Y-52070000D03*
X69540000Y-47410000D03*
X66260000Y-47570000D03*
G04 #@! TO.N,RST*
X63620000Y-52430000D03*
X56240000Y-52450000D03*
X44820000Y-69480000D03*
X46692942Y-61143406D03*
X80430000Y-71110000D03*
X90110000Y-66370000D03*
X82171219Y-60857315D03*
X85585744Y-66677485D03*
X77640000Y-48440000D03*
X69610000Y-43970000D03*
G04 #@! TO.N,MISO*
X51800000Y-48000000D03*
X56450000Y-47620000D03*
X53090000Y-65760000D03*
X49176111Y-65437256D03*
X80350000Y-72280000D03*
X90110000Y-67420000D03*
X82950000Y-60230000D03*
X86241142Y-67432785D03*
X77560000Y-49740000D03*
X69580000Y-45000000D03*
G04 #@! TO.N,SDA*
X50560000Y-63290000D03*
X56820000Y-67700000D03*
X57060000Y-72840000D03*
X78700000Y-82150000D03*
X95540000Y-71350000D03*
X95540000Y-74550000D03*
X84910000Y-58580000D03*
X86654990Y-63004384D03*
X87567660Y-72757660D03*
X90589040Y-75786531D03*
G04 #@! TO.N,SCL*
X56250000Y-43530000D03*
X53380000Y-55700000D03*
X51900000Y-61320000D03*
X57930000Y-67150000D03*
X59450000Y-73450000D03*
X68822949Y-77420531D03*
X80390000Y-76460000D03*
X90510000Y-55990000D03*
X89080000Y-61130000D03*
X95630000Y-72960000D03*
X87620000Y-71680000D03*
G04 #@! TD*
D13*
G04 #@! TO.N,TXD*
X74990000Y-56500000D02*
X76090000Y-56500000D01*
X48950000Y-66783004D02*
X39700000Y-57533004D01*
X39700000Y-57500000D02*
X39700000Y-56400000D01*
X48950000Y-68100000D02*
X48950000Y-66783004D01*
X39700000Y-57533004D02*
X39700000Y-57500000D01*
X56471998Y-68425002D02*
X56094998Y-68048002D01*
X56094998Y-68048002D02*
X56094998Y-67611408D01*
X52209989Y-63740011D02*
X48950000Y-67000000D01*
X52223601Y-63740011D02*
X52209989Y-63740011D01*
X48950000Y-67000000D02*
X48950000Y-68100000D01*
X57543004Y-68050000D02*
X57168002Y-68425002D01*
X56094998Y-67611408D02*
X52223601Y-63740011D01*
X57168002Y-68425002D02*
X56471998Y-68425002D01*
X74990000Y-56500000D02*
X69900000Y-56500000D01*
X69900000Y-56500000D02*
X67850000Y-54450000D01*
X64300000Y-51230000D02*
X65130000Y-52060000D01*
X64300000Y-49120000D02*
X64300000Y-51230000D01*
X57543004Y-68050000D02*
X59370000Y-68050000D01*
X59370000Y-68050000D02*
X59420000Y-68000000D01*
X74150000Y-68000000D02*
X74200000Y-68050000D01*
X68590000Y-68000000D02*
X74150000Y-68000000D01*
X76090000Y-56500000D02*
X76090000Y-65813590D01*
X74200000Y-67703590D02*
X74200000Y-68050000D01*
X76090000Y-65813590D02*
X74200000Y-67703590D01*
X79160001Y-64880001D02*
X78500001Y-64880001D01*
X79560000Y-65280000D02*
X79160001Y-64880001D01*
X78500001Y-64880001D02*
X77700000Y-64080000D01*
X89536586Y-58900000D02*
X86798854Y-61637732D01*
X86798854Y-61637732D02*
X86398855Y-62037731D01*
X89650000Y-58900000D02*
X89536586Y-58900000D01*
X89650000Y-58900000D02*
X90160000Y-58900000D01*
G04 #@! TO.N,RXD*
X77040000Y-67750000D02*
X76740000Y-68050000D01*
X80310000Y-67750000D02*
X77040000Y-67750000D01*
X95304999Y-60075001D02*
X93219679Y-60075001D01*
X96480000Y-58900000D02*
X95304999Y-60075001D01*
X90357339Y-62937341D02*
X89957340Y-63337340D01*
X93219679Y-60075001D02*
X90357339Y-62937341D01*
G04 #@! TO.N,SCK*
X63450001Y-47429999D02*
X64300000Y-46580000D01*
X62935001Y-47944999D02*
X63450001Y-47429999D01*
X62935001Y-50054999D02*
X62935001Y-47944999D01*
X59620000Y-53370000D02*
X62935001Y-50054999D01*
X48950000Y-70640000D02*
X47740000Y-70640000D01*
X47740000Y-70640000D02*
X46270000Y-69170000D01*
X47520000Y-60370000D02*
X46130000Y-58980000D01*
X47520000Y-61730000D02*
X47520000Y-60370000D01*
X75564999Y-69225001D02*
X75564999Y-66975001D01*
X74200000Y-70590000D02*
X75564999Y-69225001D01*
X75564999Y-66975001D02*
X76860000Y-65680000D01*
X76860000Y-58270000D02*
X78630000Y-56500000D01*
X76860000Y-65680000D02*
X76860000Y-58270000D01*
X93940000Y-61440000D02*
X92880000Y-61440000D01*
X92880000Y-61440000D02*
X89970000Y-64350000D01*
X78630000Y-56500000D02*
X78630000Y-61272749D01*
X78630000Y-61272749D02*
X83350115Y-65992864D01*
X83350115Y-65992864D02*
X83750114Y-66392863D01*
X64300000Y-46580000D02*
X69160000Y-46580000D01*
X69247341Y-46492659D02*
X69647340Y-46092660D01*
X69160000Y-46580000D02*
X69247341Y-46492659D01*
X77454999Y-55324999D02*
X77780001Y-55650001D01*
X76674998Y-52418002D02*
X77454999Y-53198003D01*
X77454999Y-50784999D02*
X76674998Y-51565000D01*
X77780001Y-55650001D02*
X78630000Y-56500000D01*
X76674998Y-51565000D02*
X76674998Y-52418002D01*
X77454999Y-53198003D02*
X77454999Y-55324999D01*
G04 #@! TO.N,MOSI*
X42240000Y-53860000D02*
X49160000Y-46940000D01*
X49160000Y-46940000D02*
X51900000Y-46940000D01*
X55610000Y-46910000D02*
X56009999Y-46510001D01*
X60557919Y-46580000D02*
X61760000Y-46580000D01*
X56009999Y-46510001D02*
X56413003Y-46510001D01*
X56413003Y-46510001D02*
X56483002Y-46580000D01*
X56483002Y-46580000D02*
X60557919Y-46580000D01*
X47729325Y-64533078D02*
X48295010Y-64533078D01*
X41064999Y-57868752D02*
X47729325Y-64533078D01*
X41064999Y-55035001D02*
X41064999Y-57868752D01*
X42240000Y-53860000D02*
X41064999Y-55035001D01*
X76740000Y-70590000D02*
X79730000Y-70590000D01*
X79730000Y-70590000D02*
X80430000Y-69890000D01*
X95240000Y-62680000D02*
X92679727Y-62680000D01*
X96480000Y-61440000D02*
X95240000Y-62680000D01*
X92679727Y-62680000D02*
X90381440Y-64978287D01*
X90381440Y-64978287D02*
X89981441Y-65378286D01*
X79805001Y-61249172D02*
X84324723Y-65768894D01*
X78630000Y-53960000D02*
X79805001Y-55135001D01*
X84324723Y-65768894D02*
X84724722Y-66168893D01*
X79805001Y-55135001D02*
X79805001Y-61249172D01*
X78630000Y-52757919D02*
X77942081Y-52070000D01*
X77942081Y-52070000D02*
X77400000Y-52070000D01*
X78630000Y-53960000D02*
X78630000Y-52757919D01*
X69540000Y-47410000D02*
X66420000Y-47410000D01*
X66420000Y-47410000D02*
X66260000Y-47570000D01*
G04 #@! TO.N,RST*
X61954999Y-54095001D02*
X59271999Y-54095001D01*
X59271999Y-54095001D02*
X57606998Y-52430000D01*
X57606998Y-52430000D02*
X56260000Y-52430000D01*
X56260000Y-52430000D02*
X56240000Y-52450000D01*
X63620000Y-52430000D02*
X61954999Y-54095001D01*
X48100001Y-72330001D02*
X47670001Y-72330001D01*
X48950000Y-73180000D02*
X48100001Y-72330001D01*
X47670001Y-72330001D02*
X44820000Y-69480000D01*
X44780000Y-56400000D02*
X44780000Y-59230464D01*
X44780000Y-59230464D02*
X46292943Y-60743407D01*
X46292943Y-60743407D02*
X46692942Y-61143406D01*
X79585001Y-71954999D02*
X80430000Y-71110000D01*
X76175999Y-71954999D02*
X79585001Y-71954999D01*
X75049999Y-73979999D02*
X75279001Y-73979999D01*
X75279001Y-73979999D02*
X75564999Y-73694001D01*
X74200000Y-73130000D02*
X75049999Y-73979999D01*
X75564999Y-73694001D02*
X75564999Y-72565999D01*
X75564999Y-72565999D02*
X76175999Y-71954999D01*
X92590000Y-63980000D02*
X93940000Y-63980000D01*
X91650000Y-64830000D02*
X91740000Y-64830000D01*
X91740000Y-64830000D02*
X92590000Y-63980000D01*
X90110000Y-66370000D02*
X91650000Y-64830000D01*
X85585744Y-64271840D02*
X85585744Y-66111800D01*
X85585744Y-66111800D02*
X85585744Y-66677485D01*
X82171219Y-60857315D02*
X85585744Y-64271840D01*
X82345001Y-53145001D02*
X77640000Y-48440000D01*
X81170000Y-56500000D02*
X82345001Y-55324999D01*
X82345001Y-55324999D02*
X82345001Y-53145001D01*
X64370000Y-43970000D02*
X64300000Y-44040000D01*
X69610000Y-43970000D02*
X64370000Y-43970000D01*
G04 #@! TO.N,MISO*
X44780000Y-53860000D02*
X50640000Y-48000000D01*
X50640000Y-48000000D02*
X51800000Y-48000000D01*
X62609999Y-44889999D02*
X61760000Y-44040000D01*
X62935001Y-45215001D02*
X62609999Y-44889999D01*
X62324001Y-47755001D02*
X62935001Y-47144001D01*
X57150686Y-47755001D02*
X62324001Y-47755001D01*
X57015685Y-47620000D02*
X57150686Y-47755001D01*
X56450000Y-47620000D02*
X57015685Y-47620000D01*
X53489999Y-71180001D02*
X52339999Y-72330001D01*
X53489999Y-66159999D02*
X53489999Y-71180001D01*
X52339999Y-72330001D02*
X51490000Y-73180000D01*
X53090000Y-65760000D02*
X53489999Y-66159999D01*
X49176111Y-64871571D02*
X49176111Y-65437256D01*
X49176111Y-64368099D02*
X49176111Y-64871571D01*
X48089539Y-63784999D02*
X48593011Y-63784999D01*
X44780000Y-53860000D02*
X43604999Y-55035001D01*
X43604999Y-55035001D02*
X43604999Y-59300459D01*
X43604999Y-59300459D02*
X48089539Y-63784999D01*
X48593011Y-63784999D02*
X49176111Y-64368099D01*
X76740000Y-73130000D02*
X79500000Y-73130000D01*
X79500000Y-73130000D02*
X80350000Y-72280000D01*
X95630001Y-64829999D02*
X96480000Y-63980000D01*
X90675685Y-67420000D02*
X92750686Y-65344999D01*
X95115001Y-65344999D02*
X95630001Y-64829999D01*
X90110000Y-67420000D02*
X90675685Y-67420000D01*
X92750686Y-65344999D02*
X95115001Y-65344999D01*
X85929989Y-63348629D02*
X86310745Y-63729385D01*
X85929989Y-63209989D02*
X85929989Y-63348629D01*
X82950000Y-60230000D02*
X85929989Y-63209989D01*
X86310745Y-67363182D02*
X86241142Y-67432785D01*
X86310745Y-63729385D02*
X86310745Y-67363182D01*
X78152081Y-49740000D02*
X77560000Y-49740000D01*
X81170000Y-53960000D02*
X81170000Y-52757919D01*
X81170000Y-52757919D02*
X78152081Y-49740000D01*
X68654315Y-45360000D02*
X62935001Y-45360000D01*
X69014315Y-45000000D02*
X68654315Y-45360000D01*
X69580000Y-45000000D02*
X69014315Y-45000000D01*
X62935001Y-47144001D02*
X62935001Y-45360000D01*
X62935001Y-45360000D02*
X62935001Y-45215001D01*
G04 #@! TO.N,VCC*
X47320000Y-57602081D02*
X47527919Y-57810000D01*
X47320000Y-56400000D02*
X47320000Y-57602081D01*
X47527919Y-57810000D02*
X47527919Y-58267919D01*
X92510000Y-66747919D02*
X92510000Y-67170000D01*
X92737919Y-66520000D02*
X93940000Y-66520000D01*
X92510000Y-66747919D02*
X92737919Y-66520000D01*
X92737919Y-66520000D02*
X92140000Y-67117919D01*
G04 #@! TO.N,SDA*
X59680000Y-41500000D02*
X61760000Y-41500000D01*
X47320000Y-53860000D02*
X59680000Y-41500000D01*
X50560000Y-63290000D02*
X52410000Y-63290000D01*
X52410000Y-63290000D02*
X56820000Y-67700000D01*
X62640000Y-78420000D02*
X68790000Y-78420000D01*
X57060000Y-72840000D02*
X62640000Y-78420000D01*
X68790000Y-78420000D02*
X68790000Y-78720000D01*
X68790000Y-78720000D02*
X73170000Y-83100000D01*
X73170000Y-83100000D02*
X77750000Y-83100000D01*
X77750000Y-83100000D02*
X78700000Y-82150000D01*
X83710000Y-53960000D02*
X84885001Y-55135001D01*
X84885001Y-55135001D02*
X84885001Y-58535001D01*
X94904998Y-71985002D02*
X94904998Y-73914998D01*
X95140001Y-74150001D02*
X95540000Y-74550000D01*
X94904998Y-73914998D02*
X95140001Y-74150001D01*
X95540000Y-71350000D02*
X94904998Y-71985002D01*
X86929989Y-63279383D02*
X86929989Y-66906400D01*
X87030000Y-71006998D02*
X86630001Y-71406997D01*
X87030000Y-72220000D02*
X87567660Y-72757660D01*
X86929989Y-66906400D02*
X87030000Y-67006411D01*
X86630001Y-71820001D02*
X87030000Y-72220000D01*
X86654990Y-63004384D02*
X86929989Y-63279383D01*
X86630001Y-71406997D02*
X86630001Y-71820001D01*
X87030000Y-67006411D02*
X87030000Y-71006998D01*
X84225571Y-82150000D02*
X90189041Y-76186530D01*
X78700000Y-82150000D02*
X84225571Y-82150000D01*
X90189041Y-76186530D02*
X90589040Y-75786531D01*
G04 #@! TO.N,SCL*
X56250000Y-43530000D02*
X56250000Y-42964315D01*
X56250000Y-42964315D02*
X56425685Y-42964315D01*
X60430000Y-38960000D02*
X61760000Y-38960000D01*
X56425685Y-42964315D02*
X60430000Y-38960000D01*
X49860000Y-53860000D02*
X51540000Y-53860000D01*
X51540000Y-53860000D02*
X53380000Y-55700000D01*
X51900000Y-61320000D02*
X57730000Y-67150000D01*
X57730000Y-67150000D02*
X57930000Y-67150000D01*
X59450000Y-73450000D02*
X64852418Y-73450000D01*
X64852418Y-73450000D02*
X68422950Y-77020532D01*
X68422950Y-77020532D02*
X68822949Y-77420531D01*
X76740000Y-78210000D02*
X78640000Y-78210000D01*
X78640000Y-78210000D02*
X80390000Y-76460000D01*
X86250000Y-53960000D02*
X88480000Y-53960000D01*
X88480000Y-53960000D02*
X90510000Y-55990000D01*
X89080000Y-61130000D02*
X88514315Y-61130000D01*
X88514315Y-61130000D02*
X87380000Y-62264315D01*
X87480010Y-69400010D02*
X87520000Y-69440000D01*
X87380000Y-66720001D02*
X87480010Y-66820011D01*
X87380000Y-62264315D02*
X87380000Y-66720001D01*
X87480010Y-66820011D02*
X87480010Y-69400010D01*
X96480000Y-69060000D02*
X96480000Y-72110000D01*
X96480000Y-72110000D02*
X95630000Y-72960000D01*
X87480010Y-70974325D02*
X87480010Y-69400010D01*
X87620000Y-71114315D02*
X87480010Y-70974325D01*
X87620000Y-71680000D02*
X87620000Y-71114315D01*
G04 #@! TD*
D14*
G04 #@! TO.N,VCC*
G36*
X65902192Y-26294871D02*
X68268392Y-26574929D01*
X70611587Y-27007100D01*
X72922009Y-27589582D01*
X75190027Y-28319946D01*
X77406185Y-29195149D01*
X79561245Y-30211541D01*
X81646223Y-31364886D01*
X83652426Y-32650375D01*
X85571493Y-34062649D01*
X87395422Y-35595822D01*
X89116610Y-37243501D01*
X90727882Y-38998819D01*
X92222521Y-40854456D01*
X93594296Y-42802678D01*
X94837489Y-44835363D01*
X95946916Y-46944038D01*
X96917953Y-49119911D01*
X97746552Y-51353911D01*
X98429259Y-53636727D01*
X98963227Y-55958841D01*
X99346231Y-58310573D01*
X99576674Y-60682120D01*
X99653595Y-63063594D01*
X99646794Y-63772049D01*
X99524169Y-66151607D01*
X99248241Y-68518293D01*
X98820160Y-70862239D01*
X98241712Y-73173674D01*
X97515307Y-75442963D01*
X96643973Y-77660645D01*
X95631344Y-79817476D01*
X94481640Y-81904463D01*
X93199654Y-83912907D01*
X91790731Y-85834436D01*
X90260744Y-87661038D01*
X88616072Y-89385100D01*
X86863569Y-90999433D01*
X85010543Y-92497308D01*
X83064718Y-93872481D01*
X81034206Y-95119220D01*
X78927471Y-96232325D01*
X76753296Y-97207159D01*
X74520745Y-98039656D01*
X72239124Y-98726345D01*
X69917946Y-99264366D01*
X67566886Y-99651474D01*
X65195745Y-99886055D01*
X62814409Y-99967133D01*
X60432804Y-99894368D01*
X58060859Y-99668065D01*
X55708462Y-99289166D01*
X53385420Y-98759251D01*
X51101416Y-98080530D01*
X48865972Y-97255831D01*
X46688408Y-96288593D01*
X44577800Y-95182848D01*
X42542949Y-93943205D01*
X40592335Y-92574833D01*
X38734092Y-91083435D01*
X36975965Y-89475229D01*
X35325284Y-87756919D01*
X33788931Y-85935668D01*
X32373309Y-84019070D01*
X31084320Y-82015112D01*
X29927338Y-79932151D01*
X28907186Y-77778868D01*
X28028117Y-75564241D01*
X27293795Y-73297502D01*
X26707282Y-70988100D01*
X26271022Y-68645662D01*
X25986834Y-66279954D01*
X25855904Y-63900838D01*
X25878776Y-61518232D01*
X26055355Y-59142068D01*
X26384906Y-56782252D01*
X26866054Y-54448621D01*
X27027634Y-53860000D01*
X38185908Y-53860000D01*
X38301161Y-54439418D01*
X38629375Y-54930625D01*
X38647619Y-54942816D01*
X38602235Y-54951843D01*
X38392191Y-55092191D01*
X38251843Y-55302235D01*
X38202560Y-55550000D01*
X38202560Y-57250000D01*
X38251843Y-57497765D01*
X38392191Y-57707809D01*
X38602235Y-57848157D01*
X38850000Y-57897440D01*
X39029465Y-57897440D01*
X39152071Y-58080933D01*
X39215530Y-58123335D01*
X47787375Y-66695182D01*
X47642191Y-66792191D01*
X47501843Y-67002235D01*
X47452560Y-67250000D01*
X47452560Y-68950000D01*
X47501843Y-69197765D01*
X47642191Y-69407809D01*
X47852235Y-69548157D01*
X47897619Y-69557184D01*
X47879375Y-69569375D01*
X47825222Y-69650420D01*
X47305000Y-69130199D01*
X47305000Y-68964126D01*
X47147431Y-68583720D01*
X46856280Y-68292569D01*
X46475874Y-68135000D01*
X46064126Y-68135000D01*
X45683720Y-68292569D01*
X45392569Y-68583720D01*
X45387913Y-68594961D01*
X45025874Y-68445000D01*
X44614126Y-68445000D01*
X44233720Y-68602569D01*
X43942569Y-68893720D01*
X43785000Y-69274126D01*
X43785000Y-69685874D01*
X43942569Y-70066280D01*
X44233720Y-70357431D01*
X44614126Y-70515000D01*
X44780199Y-70515000D01*
X47079671Y-72814473D01*
X47122072Y-72877930D01*
X47373464Y-73045905D01*
X47459189Y-73062957D01*
X47435908Y-73180000D01*
X47551161Y-73759418D01*
X47879375Y-74250625D01*
X48198478Y-74463843D01*
X48068642Y-74524817D01*
X47678355Y-74953076D01*
X47508524Y-75363110D01*
X47629845Y-75593000D01*
X48823000Y-75593000D01*
X48823000Y-75573000D01*
X49077000Y-75573000D01*
X49077000Y-75593000D01*
X49097000Y-75593000D01*
X49097000Y-75847000D01*
X49077000Y-75847000D01*
X49077000Y-75867000D01*
X48823000Y-75867000D01*
X48823000Y-75847000D01*
X47629845Y-75847000D01*
X47508524Y-76076890D01*
X47678355Y-76486924D01*
X48068642Y-76915183D01*
X48198478Y-76976157D01*
X47879375Y-77189375D01*
X47551161Y-77680582D01*
X47435908Y-78260000D01*
X47551161Y-78839418D01*
X47879375Y-79330625D01*
X48370582Y-79658839D01*
X48803744Y-79745000D01*
X49096256Y-79745000D01*
X49529418Y-79658839D01*
X50020625Y-79330625D01*
X50220000Y-79032239D01*
X50419375Y-79330625D01*
X50910582Y-79658839D01*
X51343744Y-79745000D01*
X51636256Y-79745000D01*
X52069418Y-79658839D01*
X52560625Y-79330625D01*
X52888839Y-78839418D01*
X53004092Y-78260000D01*
X52888839Y-77680582D01*
X52560625Y-77189375D01*
X52262239Y-76990000D01*
X52560625Y-76790625D01*
X52888839Y-76299418D01*
X53004092Y-75720000D01*
X52888839Y-75140582D01*
X52560625Y-74649375D01*
X52262239Y-74450000D01*
X52560625Y-74250625D01*
X52888839Y-73759418D01*
X53004092Y-73180000D01*
X52931209Y-72813592D01*
X53110675Y-72634126D01*
X56025000Y-72634126D01*
X56025000Y-73045874D01*
X56182569Y-73426280D01*
X56473720Y-73717431D01*
X56854126Y-73875000D01*
X57020199Y-73875000D01*
X62049671Y-78904473D01*
X62092071Y-78967929D01*
X62155527Y-79010329D01*
X62343462Y-79135904D01*
X62391605Y-79145480D01*
X62565148Y-79180000D01*
X62565152Y-79180000D01*
X62640000Y-79194888D01*
X62714848Y-79180000D01*
X68183319Y-79180000D01*
X68242071Y-79267929D01*
X68305529Y-79310330D01*
X72579673Y-83584476D01*
X72622071Y-83647929D01*
X72685524Y-83690327D01*
X72685526Y-83690329D01*
X72810902Y-83774102D01*
X72873463Y-83815904D01*
X73095148Y-83860000D01*
X73095152Y-83860000D01*
X73169999Y-83874888D01*
X73244846Y-83860000D01*
X77675153Y-83860000D01*
X77750000Y-83874888D01*
X77824847Y-83860000D01*
X77824852Y-83860000D01*
X78046537Y-83815904D01*
X78297929Y-83647929D01*
X78340331Y-83584470D01*
X78739801Y-83185000D01*
X78905874Y-83185000D01*
X79286280Y-83027431D01*
X79403711Y-82910000D01*
X84150724Y-82910000D01*
X84225571Y-82924888D01*
X84300418Y-82910000D01*
X84300423Y-82910000D01*
X84522108Y-82865904D01*
X84773500Y-82697929D01*
X84815902Y-82634470D01*
X90628842Y-76821531D01*
X90794914Y-76821531D01*
X91175320Y-76663962D01*
X91466471Y-76372811D01*
X91624040Y-75992405D01*
X91624040Y-75580657D01*
X91466471Y-75200251D01*
X91175320Y-74909100D01*
X90794914Y-74751531D01*
X90383166Y-74751531D01*
X90002760Y-74909100D01*
X89711609Y-75200251D01*
X89554040Y-75580657D01*
X89554040Y-75746729D01*
X83910770Y-81390000D01*
X79403711Y-81390000D01*
X79286280Y-81272569D01*
X78905874Y-81115000D01*
X78494126Y-81115000D01*
X78113720Y-81272569D01*
X77822569Y-81563720D01*
X77665000Y-81944126D01*
X77665000Y-82110199D01*
X77435199Y-82340000D01*
X73484803Y-82340000D01*
X69564874Y-78420073D01*
X69564889Y-78420000D01*
X69518816Y-78188375D01*
X69700380Y-78006811D01*
X69857949Y-77626405D01*
X69857949Y-77214657D01*
X69700380Y-76834251D01*
X69409229Y-76543100D01*
X69028823Y-76385531D01*
X68862751Y-76385531D01*
X65442749Y-72965530D01*
X65400347Y-72902071D01*
X65148955Y-72734096D01*
X64927270Y-72690000D01*
X64927265Y-72690000D01*
X64852418Y-72675112D01*
X64777571Y-72690000D01*
X60153711Y-72690000D01*
X60036280Y-72572569D01*
X59655874Y-72415000D01*
X59244126Y-72415000D01*
X58863720Y-72572569D01*
X58572569Y-72863720D01*
X58451297Y-73156496D01*
X58095000Y-72800199D01*
X58095000Y-72634126D01*
X57937431Y-72253720D01*
X57646280Y-71962569D01*
X57265874Y-71805000D01*
X56854126Y-71805000D01*
X56473720Y-71962569D01*
X56182569Y-72253720D01*
X56025000Y-72634126D01*
X53110675Y-72634126D01*
X53974472Y-71770330D01*
X54037928Y-71727930D01*
X54205903Y-71476538D01*
X54249999Y-71254853D01*
X54249999Y-71254849D01*
X54264887Y-71180001D01*
X54249999Y-71105153D01*
X54249999Y-66841211D01*
X55334998Y-67926210D01*
X55334998Y-67973155D01*
X55320110Y-68048002D01*
X55334998Y-68122849D01*
X55334998Y-68122853D01*
X55379094Y-68344538D01*
X55547069Y-68595931D01*
X55610528Y-68638333D01*
X55881667Y-68909472D01*
X55924069Y-68972931D01*
X56175461Y-69140906D01*
X56397146Y-69185002D01*
X56397150Y-69185002D01*
X56471998Y-69199890D01*
X56546846Y-69185002D01*
X57093155Y-69185002D01*
X57168002Y-69199890D01*
X57242849Y-69185002D01*
X57242854Y-69185002D01*
X57464539Y-69140906D01*
X57715931Y-68972931D01*
X57758333Y-68909472D01*
X57857805Y-68810000D01*
X58766289Y-68810000D01*
X58833720Y-68877431D01*
X59214126Y-69035000D01*
X59625874Y-69035000D01*
X60006280Y-68877431D01*
X60297431Y-68586280D01*
X60455000Y-68205874D01*
X60455000Y-67794126D01*
X60297431Y-67413720D01*
X60006280Y-67122569D01*
X59625874Y-66965000D01*
X59214126Y-66965000D01*
X58965000Y-67068191D01*
X58965000Y-66944126D01*
X58807431Y-66563720D01*
X58516280Y-66272569D01*
X58135874Y-66115000D01*
X57769802Y-66115000D01*
X52935000Y-61280199D01*
X52935000Y-61114126D01*
X52777431Y-60733720D01*
X52486280Y-60442569D01*
X52105874Y-60285000D01*
X51694126Y-60285000D01*
X51313720Y-60442569D01*
X51022569Y-60733720D01*
X50865000Y-61114126D01*
X50865000Y-61525874D01*
X51022569Y-61906280D01*
X51313720Y-62197431D01*
X51694126Y-62355000D01*
X51860199Y-62355000D01*
X52035199Y-62530000D01*
X51263711Y-62530000D01*
X51146280Y-62412569D01*
X50765874Y-62255000D01*
X50354126Y-62255000D01*
X49973720Y-62412569D01*
X49682569Y-62703720D01*
X49525000Y-63084126D01*
X49525000Y-63495874D01*
X49628458Y-63745644D01*
X49183342Y-63300529D01*
X49140940Y-63237070D01*
X48889548Y-63069095D01*
X48667863Y-63024999D01*
X48667858Y-63024999D01*
X48593011Y-63010111D01*
X48518164Y-63024999D01*
X48404342Y-63024999D01*
X48021776Y-62642434D01*
X48106280Y-62607431D01*
X48397431Y-62316280D01*
X48555000Y-61935874D01*
X48555000Y-61524126D01*
X48397431Y-61143720D01*
X48280000Y-61026289D01*
X48280000Y-60444848D01*
X48294888Y-60370000D01*
X48280000Y-60295152D01*
X48280000Y-60295148D01*
X48235904Y-60073463D01*
X48235904Y-60073462D01*
X48110329Y-59885527D01*
X48067929Y-59822071D01*
X48004473Y-59779671D01*
X47165000Y-58940199D01*
X47165000Y-58774126D01*
X47007431Y-58393720D01*
X46716280Y-58102569D01*
X46335874Y-57945000D01*
X45924126Y-57945000D01*
X45543720Y-58102569D01*
X45540000Y-58106289D01*
X45540000Y-57678178D01*
X45850625Y-57470625D01*
X46063843Y-57151522D01*
X46124817Y-57281358D01*
X46553076Y-57671645D01*
X46963110Y-57841476D01*
X47193000Y-57720155D01*
X47193000Y-56527000D01*
X47173000Y-56527000D01*
X47173000Y-56273000D01*
X47193000Y-56273000D01*
X47193000Y-56253000D01*
X47447000Y-56253000D01*
X47447000Y-56273000D01*
X47467000Y-56273000D01*
X47467000Y-56527000D01*
X47447000Y-56527000D01*
X47447000Y-57720155D01*
X47676890Y-57841476D01*
X48086924Y-57671645D01*
X48515183Y-57281358D01*
X48576157Y-57151522D01*
X48789375Y-57470625D01*
X49280582Y-57798839D01*
X49713744Y-57885000D01*
X50006256Y-57885000D01*
X50439418Y-57798839D01*
X50930625Y-57470625D01*
X51258839Y-56979418D01*
X51374092Y-56400000D01*
X51258839Y-55820582D01*
X50930625Y-55329375D01*
X50632239Y-55130000D01*
X50930625Y-54930625D01*
X51138178Y-54620000D01*
X51225199Y-54620000D01*
X52345000Y-55739802D01*
X52345000Y-55905874D01*
X52502569Y-56286280D01*
X52793720Y-56577431D01*
X53174126Y-56735000D01*
X53585874Y-56735000D01*
X53966280Y-56577431D01*
X54257431Y-56286280D01*
X54415000Y-55905874D01*
X54415000Y-55494126D01*
X54257431Y-55113720D01*
X53966280Y-54822569D01*
X53585874Y-54665000D01*
X53419802Y-54665000D01*
X52130331Y-53375530D01*
X52087929Y-53312071D01*
X51836537Y-53144096D01*
X51614852Y-53100000D01*
X51614847Y-53100000D01*
X51540000Y-53085112D01*
X51465153Y-53100000D01*
X51138178Y-53100000D01*
X50930625Y-52789375D01*
X50439418Y-52461161D01*
X50006256Y-52375000D01*
X49879801Y-52375000D01*
X54745545Y-47509256D01*
X55023720Y-47787431D01*
X55404126Y-47945000D01*
X55464344Y-47945000D01*
X55572569Y-48206280D01*
X55863720Y-48497431D01*
X56244126Y-48655000D01*
X56655874Y-48655000D01*
X57020456Y-48503986D01*
X57075834Y-48515001D01*
X57075838Y-48515001D01*
X57150685Y-48529889D01*
X57225532Y-48515001D01*
X60378254Y-48515001D01*
X60361161Y-48540582D01*
X60245908Y-49120000D01*
X60361161Y-49699418D01*
X60689375Y-50190625D01*
X61180582Y-50518839D01*
X61360559Y-50554639D01*
X59580199Y-52335000D01*
X59414126Y-52335000D01*
X59033720Y-52492569D01*
X58889044Y-52637245D01*
X58197329Y-51945530D01*
X58154927Y-51882071D01*
X57903535Y-51714096D01*
X57681850Y-51670000D01*
X57681845Y-51670000D01*
X57606998Y-51655112D01*
X57532151Y-51670000D01*
X56923711Y-51670000D01*
X56826280Y-51572569D01*
X56445874Y-51415000D01*
X56034126Y-51415000D01*
X55653720Y-51572569D01*
X55362569Y-51863720D01*
X55205000Y-52244126D01*
X55205000Y-52655874D01*
X55362569Y-53036280D01*
X55653720Y-53327431D01*
X56034126Y-53485000D01*
X56445874Y-53485000D01*
X56826280Y-53327431D01*
X56963711Y-53190000D01*
X57292197Y-53190000D01*
X58681670Y-54579474D01*
X58724070Y-54642930D01*
X58975462Y-54810905D01*
X59197147Y-54855001D01*
X59197152Y-54855001D01*
X59271999Y-54869889D01*
X59346846Y-54855001D01*
X61880152Y-54855001D01*
X61954999Y-54869889D01*
X62029846Y-54855001D01*
X62029851Y-54855001D01*
X62251536Y-54810905D01*
X62502928Y-54642930D01*
X62545330Y-54579471D01*
X62880675Y-54244126D01*
X66815000Y-54244126D01*
X66815000Y-54655874D01*
X66972569Y-55036280D01*
X67263720Y-55327431D01*
X67644126Y-55485000D01*
X67810199Y-55485000D01*
X69309671Y-56984473D01*
X69352071Y-57047929D01*
X69415527Y-57090329D01*
X69603462Y-57215904D01*
X69651605Y-57225480D01*
X69825148Y-57260000D01*
X69825152Y-57260000D01*
X69900000Y-57274888D01*
X69974848Y-57260000D01*
X74592560Y-57260000D01*
X74592560Y-57350000D01*
X74641843Y-57597765D01*
X74782191Y-57807809D01*
X74992235Y-57948157D01*
X75240000Y-57997440D01*
X75330000Y-57997440D01*
X75330001Y-65498787D01*
X74276229Y-66552560D01*
X73350000Y-66552560D01*
X73102235Y-66601843D01*
X72892191Y-66742191D01*
X72751843Y-66952235D01*
X72702560Y-67200000D01*
X72702560Y-67240000D01*
X69293711Y-67240000D01*
X69176280Y-67122569D01*
X68795874Y-66965000D01*
X68384126Y-66965000D01*
X68003720Y-67122569D01*
X67712569Y-67413720D01*
X67555000Y-67794126D01*
X67555000Y-68205874D01*
X67712569Y-68586280D01*
X68003720Y-68877431D01*
X68384126Y-69035000D01*
X68795874Y-69035000D01*
X69176280Y-68877431D01*
X69293711Y-68760000D01*
X72702560Y-68760000D01*
X72702560Y-68900000D01*
X72751843Y-69147765D01*
X72892191Y-69357809D01*
X73102235Y-69498157D01*
X73147619Y-69507184D01*
X73129375Y-69519375D01*
X72801161Y-70010582D01*
X72685908Y-70590000D01*
X72801161Y-71169418D01*
X73129375Y-71660625D01*
X73427761Y-71860000D01*
X73129375Y-72059375D01*
X72801161Y-72550582D01*
X72685908Y-73130000D01*
X72801161Y-73709418D01*
X73129375Y-74200625D01*
X73448478Y-74413843D01*
X73318642Y-74474817D01*
X72928355Y-74903076D01*
X72758524Y-75313110D01*
X72879845Y-75543000D01*
X74073000Y-75543000D01*
X74073000Y-75523000D01*
X74327000Y-75523000D01*
X74327000Y-75543000D01*
X74347000Y-75543000D01*
X74347000Y-75797000D01*
X74327000Y-75797000D01*
X74327000Y-75817000D01*
X74073000Y-75817000D01*
X74073000Y-75797000D01*
X72879845Y-75797000D01*
X72758524Y-76026890D01*
X72928355Y-76436924D01*
X73318642Y-76865183D01*
X73448478Y-76926157D01*
X73129375Y-77139375D01*
X72801161Y-77630582D01*
X72685908Y-78210000D01*
X72801161Y-78789418D01*
X73129375Y-79280625D01*
X73620582Y-79608839D01*
X74053744Y-79695000D01*
X74346256Y-79695000D01*
X74779418Y-79608839D01*
X75270625Y-79280625D01*
X75470000Y-78982239D01*
X75669375Y-79280625D01*
X76160582Y-79608839D01*
X76593744Y-79695000D01*
X76886256Y-79695000D01*
X77319418Y-79608839D01*
X77810625Y-79280625D01*
X78018178Y-78970000D01*
X78565153Y-78970000D01*
X78640000Y-78984888D01*
X78714847Y-78970000D01*
X78714852Y-78970000D01*
X78936537Y-78925904D01*
X79187929Y-78757929D01*
X79230331Y-78694470D01*
X80429802Y-77495000D01*
X80595874Y-77495000D01*
X80976280Y-77337431D01*
X81267431Y-77046280D01*
X81425000Y-76665874D01*
X81425000Y-76254126D01*
X81267431Y-75873720D01*
X80976280Y-75582569D01*
X80595874Y-75425000D01*
X80184126Y-75425000D01*
X79803720Y-75582569D01*
X79512569Y-75873720D01*
X79355000Y-76254126D01*
X79355000Y-76420198D01*
X78325199Y-77450000D01*
X78018178Y-77450000D01*
X77810625Y-77139375D01*
X77512239Y-76940000D01*
X77810625Y-76740625D01*
X78138839Y-76249418D01*
X78254092Y-75670000D01*
X78138839Y-75090582D01*
X77810625Y-74599375D01*
X77512239Y-74400000D01*
X77810625Y-74200625D01*
X78018178Y-73890000D01*
X79425153Y-73890000D01*
X79500000Y-73904888D01*
X79574847Y-73890000D01*
X79574852Y-73890000D01*
X79796537Y-73845904D01*
X80047929Y-73677929D01*
X80090331Y-73614470D01*
X80389801Y-73315000D01*
X80555874Y-73315000D01*
X80936280Y-73157431D01*
X81227431Y-72866280D01*
X81385000Y-72485874D01*
X81385000Y-72074126D01*
X81251612Y-71752099D01*
X81307431Y-71696280D01*
X81465000Y-71315874D01*
X81465000Y-70904126D01*
X81307431Y-70523720D01*
X81283711Y-70500000D01*
X81307431Y-70476280D01*
X81465000Y-70095874D01*
X81465000Y-69684126D01*
X81307431Y-69303720D01*
X81016280Y-69012569D01*
X80635874Y-68855000D01*
X80224126Y-68855000D01*
X79843720Y-69012569D01*
X79552569Y-69303720D01*
X79395000Y-69684126D01*
X79395000Y-69830000D01*
X78018178Y-69830000D01*
X77810625Y-69519375D01*
X77512239Y-69320000D01*
X77810625Y-69120625D01*
X78138839Y-68629418D01*
X78162593Y-68510000D01*
X79606289Y-68510000D01*
X79723720Y-68627431D01*
X80104126Y-68785000D01*
X80515874Y-68785000D01*
X80896280Y-68627431D01*
X81187431Y-68336280D01*
X81345000Y-67955874D01*
X81345000Y-67544126D01*
X81187431Y-67163720D01*
X80896280Y-66872569D01*
X80515874Y-66715000D01*
X80104126Y-66715000D01*
X79723720Y-66872569D01*
X79606289Y-66990000D01*
X77817724Y-66990000D01*
X77810625Y-66979375D01*
X77319418Y-66651161D01*
X77022668Y-66592134D01*
X77344473Y-66270329D01*
X77407929Y-66227929D01*
X77575904Y-65976537D01*
X77620000Y-65754852D01*
X77620000Y-65754847D01*
X77634888Y-65680000D01*
X77620000Y-65605153D01*
X77620000Y-65115000D01*
X77660198Y-65115000D01*
X77909671Y-65364473D01*
X77952072Y-65427930D01*
X78203464Y-65595905D01*
X78425149Y-65640001D01*
X78425153Y-65640001D01*
X78500000Y-65654889D01*
X78574847Y-65640001D01*
X78588841Y-65640001D01*
X78682569Y-65866280D01*
X78973720Y-66157431D01*
X79354126Y-66315000D01*
X79765874Y-66315000D01*
X80146280Y-66157431D01*
X80437431Y-65866280D01*
X80595000Y-65485874D01*
X80595000Y-65074126D01*
X80437431Y-64693720D01*
X80146280Y-64402569D01*
X79765874Y-64245000D01*
X79577618Y-64245000D01*
X79456538Y-64164097D01*
X79234853Y-64120001D01*
X79234848Y-64120001D01*
X79160001Y-64105113D01*
X79085154Y-64120001D01*
X78814803Y-64120001D01*
X78735000Y-64040198D01*
X78735000Y-63874126D01*
X78577431Y-63493720D01*
X78286280Y-63202569D01*
X77905874Y-63045000D01*
X77620000Y-63045000D01*
X77620000Y-58584801D01*
X77870000Y-58334801D01*
X77870001Y-61197897D01*
X77855112Y-61272749D01*
X77914097Y-61569286D01*
X78025851Y-61736537D01*
X78082072Y-61820678D01*
X78145528Y-61863078D01*
X82715114Y-66432665D01*
X82715114Y-66598737D01*
X82872683Y-66979143D01*
X83163834Y-67270294D01*
X83544240Y-67427863D01*
X83955988Y-67427863D01*
X84336394Y-67270294D01*
X84436786Y-67169902D01*
X84518848Y-67203893D01*
X84683513Y-67203893D01*
X84708313Y-67263765D01*
X84999464Y-67554916D01*
X85207075Y-67640911D01*
X85363711Y-68019065D01*
X85654862Y-68310216D01*
X86035268Y-68467785D01*
X86270000Y-68467785D01*
X86270001Y-70692196D01*
X86145531Y-70816666D01*
X86082072Y-70859068D01*
X85914097Y-71110461D01*
X85870001Y-71332146D01*
X85870001Y-71332150D01*
X85855113Y-71406997D01*
X85870001Y-71481844D01*
X85870001Y-71745154D01*
X85855113Y-71820001D01*
X85870001Y-71894848D01*
X85870001Y-71894853D01*
X85914097Y-72116538D01*
X86082073Y-72367930D01*
X86145529Y-72410330D01*
X86532660Y-72797461D01*
X86532660Y-72963534D01*
X86690229Y-73343940D01*
X86981380Y-73635091D01*
X87361786Y-73792660D01*
X87773534Y-73792660D01*
X88153940Y-73635091D01*
X88445091Y-73343940D01*
X88602660Y-72963534D01*
X88602660Y-72551786D01*
X88488217Y-72275494D01*
X88497431Y-72266280D01*
X88655000Y-71885874D01*
X88655000Y-71474126D01*
X88497431Y-71093720D01*
X88364314Y-70960603D01*
X88335904Y-70817778D01*
X88240010Y-70674263D01*
X88240010Y-69715889D01*
X88294888Y-69439999D01*
X88240010Y-69164110D01*
X88240010Y-66894857D01*
X88254898Y-66820010D01*
X88240010Y-66745163D01*
X88240010Y-66745159D01*
X88195914Y-66523474D01*
X88140000Y-66439793D01*
X88140000Y-63131466D01*
X88922340Y-63131466D01*
X88922340Y-63543214D01*
X89053123Y-63858952D01*
X88935000Y-64144126D01*
X88935000Y-64555874D01*
X89068409Y-64877954D01*
X88946441Y-65172412D01*
X88946441Y-65584160D01*
X89104010Y-65964566D01*
X89141947Y-66002503D01*
X89075000Y-66164126D01*
X89075000Y-66575874D01*
X89207186Y-66895000D01*
X89075000Y-67214126D01*
X89075000Y-67625874D01*
X89232569Y-68006280D01*
X89523720Y-68297431D01*
X89904126Y-68455000D01*
X90315874Y-68455000D01*
X90696280Y-68297431D01*
X90829397Y-68164314D01*
X90972222Y-68135904D01*
X91223614Y-67967929D01*
X91266016Y-67904470D01*
X92523485Y-66647002D01*
X92619844Y-66647002D01*
X92498524Y-66876890D01*
X92668355Y-67286924D01*
X93058642Y-67715183D01*
X93188478Y-67776157D01*
X92869375Y-67989375D01*
X92541161Y-68480582D01*
X92425908Y-69060000D01*
X92541161Y-69639418D01*
X92869375Y-70130625D01*
X93360582Y-70458839D01*
X93793744Y-70545000D01*
X94086256Y-70545000D01*
X94519418Y-70458839D01*
X95010625Y-70130625D01*
X95210000Y-69832239D01*
X95409375Y-70130625D01*
X95685312Y-70315000D01*
X95334126Y-70315000D01*
X94953720Y-70472569D01*
X94662569Y-70763720D01*
X94505000Y-71144126D01*
X94505000Y-71310198D01*
X94420527Y-71394672D01*
X94357069Y-71437073D01*
X94189094Y-71688466D01*
X94144998Y-71910151D01*
X94144998Y-71910155D01*
X94130110Y-71985002D01*
X94144998Y-72059849D01*
X94144999Y-73840146D01*
X94130110Y-73914998D01*
X94189095Y-74211535D01*
X94277690Y-74344126D01*
X94357070Y-74462927D01*
X94420525Y-74505326D01*
X94505000Y-74589802D01*
X94505000Y-74755874D01*
X94662569Y-75136280D01*
X94953720Y-75427431D01*
X95334126Y-75585000D01*
X95745874Y-75585000D01*
X96126280Y-75427431D01*
X96417431Y-75136280D01*
X96575000Y-74755874D01*
X96575000Y-74344126D01*
X96417431Y-73963720D01*
X96253711Y-73800000D01*
X96507431Y-73546280D01*
X96665000Y-73165874D01*
X96665000Y-72999802D01*
X96964473Y-72700329D01*
X97027929Y-72657929D01*
X97195904Y-72406537D01*
X97240000Y-72184852D01*
X97240000Y-72184848D01*
X97254888Y-72110000D01*
X97240000Y-72035152D01*
X97240000Y-70338178D01*
X97550625Y-70130625D01*
X97878839Y-69639418D01*
X97994092Y-69060000D01*
X97878839Y-68480582D01*
X97550625Y-67989375D01*
X97252239Y-67790000D01*
X97550625Y-67590625D01*
X97878839Y-67099418D01*
X97994092Y-66520000D01*
X97878839Y-65940582D01*
X97550625Y-65449375D01*
X97252239Y-65250000D01*
X97550625Y-65050625D01*
X97878839Y-64559418D01*
X97994092Y-63980000D01*
X97878839Y-63400582D01*
X97550625Y-62909375D01*
X97252239Y-62710000D01*
X97550625Y-62510625D01*
X97878839Y-62019418D01*
X97994092Y-61440000D01*
X97878839Y-60860582D01*
X97550625Y-60369375D01*
X97252239Y-60170000D01*
X97550625Y-59970625D01*
X97878839Y-59479418D01*
X97994092Y-58900000D01*
X97878839Y-58320582D01*
X97550625Y-57829375D01*
X97059418Y-57501161D01*
X96626256Y-57415000D01*
X96333744Y-57415000D01*
X95900582Y-57501161D01*
X95409375Y-57829375D01*
X95397184Y-57847619D01*
X95388157Y-57802235D01*
X95247809Y-57592191D01*
X95037765Y-57451843D01*
X94790000Y-57402560D01*
X93090000Y-57402560D01*
X92842235Y-57451843D01*
X92632191Y-57592191D01*
X92491843Y-57802235D01*
X92442560Y-58050000D01*
X92442560Y-59750000D01*
X92447092Y-59772786D01*
X89917539Y-62302340D01*
X89751466Y-62302340D01*
X89371060Y-62459909D01*
X89079909Y-62751060D01*
X88922340Y-63131466D01*
X88140000Y-63131466D01*
X88140000Y-62579116D01*
X88647845Y-62071272D01*
X88874126Y-62165000D01*
X89285874Y-62165000D01*
X89666280Y-62007431D01*
X89957431Y-61716280D01*
X90115000Y-61335874D01*
X90115000Y-60924126D01*
X89957431Y-60543720D01*
X89666280Y-60252569D01*
X89378161Y-60133227D01*
X89687025Y-59824363D01*
X89954126Y-59935000D01*
X90365874Y-59935000D01*
X90746280Y-59777431D01*
X91037431Y-59486280D01*
X91195000Y-59105874D01*
X91195000Y-58694126D01*
X91037431Y-58313720D01*
X90746280Y-58022569D01*
X90365874Y-57865000D01*
X89954126Y-57865000D01*
X89573720Y-58022569D01*
X89454937Y-58141352D01*
X89288191Y-58174520D01*
X89240048Y-58184096D01*
X89104168Y-58274889D01*
X88988657Y-58352071D01*
X88946257Y-58415527D01*
X86359054Y-61002731D01*
X86192981Y-61002731D01*
X85812575Y-61160300D01*
X85521424Y-61451451D01*
X85440828Y-61646027D01*
X83985000Y-60190199D01*
X83985000Y-60024126D01*
X83827431Y-59643720D01*
X83536280Y-59352569D01*
X83155874Y-59195000D01*
X82744126Y-59195000D01*
X82363720Y-59352569D01*
X82072569Y-59643720D01*
X81998593Y-59822315D01*
X81965345Y-59822315D01*
X81584939Y-59979884D01*
X81293788Y-60271035D01*
X81136219Y-60651441D01*
X81136219Y-61063189D01*
X81293788Y-61443595D01*
X81584939Y-61734746D01*
X81965345Y-61892315D01*
X82131418Y-61892315D01*
X84825744Y-64586642D01*
X84825744Y-65133893D01*
X84764524Y-65133893D01*
X80565001Y-60934371D01*
X80565001Y-57881746D01*
X80590582Y-57898839D01*
X81023744Y-57985000D01*
X81316256Y-57985000D01*
X81749418Y-57898839D01*
X82240625Y-57570625D01*
X82453843Y-57251522D01*
X82514817Y-57381358D01*
X82943076Y-57771645D01*
X83353110Y-57941476D01*
X83583000Y-57820155D01*
X83583000Y-56627000D01*
X83563000Y-56627000D01*
X83563000Y-56373000D01*
X83583000Y-56373000D01*
X83583000Y-56353000D01*
X83837000Y-56353000D01*
X83837000Y-56373000D01*
X83857000Y-56373000D01*
X83857000Y-56627000D01*
X83837000Y-56627000D01*
X83837000Y-57820155D01*
X84066890Y-57941476D01*
X84097485Y-57928804D01*
X84032569Y-57993720D01*
X83875000Y-58374126D01*
X83875000Y-58785874D01*
X84032569Y-59166280D01*
X84323720Y-59457431D01*
X84704126Y-59615000D01*
X85115874Y-59615000D01*
X85496280Y-59457431D01*
X85787431Y-59166280D01*
X85945000Y-58785874D01*
X85945000Y-58374126D01*
X85787431Y-57993720D01*
X85698005Y-57904294D01*
X86103744Y-57985000D01*
X86396256Y-57985000D01*
X86829418Y-57898839D01*
X87320625Y-57570625D01*
X87648839Y-57079418D01*
X87764092Y-56500000D01*
X87648839Y-55920582D01*
X87320625Y-55429375D01*
X87022239Y-55230000D01*
X87320625Y-55030625D01*
X87528178Y-54720000D01*
X88165199Y-54720000D01*
X89475000Y-56029802D01*
X89475000Y-56195874D01*
X89632569Y-56576280D01*
X89923720Y-56867431D01*
X90304126Y-57025000D01*
X90715874Y-57025000D01*
X91096280Y-56867431D01*
X91387431Y-56576280D01*
X91545000Y-56195874D01*
X91545000Y-55784126D01*
X91387431Y-55403720D01*
X91096280Y-55112569D01*
X90715874Y-54955000D01*
X90549802Y-54955000D01*
X89070331Y-53475530D01*
X89027929Y-53412071D01*
X88776537Y-53244096D01*
X88554852Y-53200000D01*
X88554847Y-53200000D01*
X88480000Y-53185112D01*
X88405153Y-53200000D01*
X87528178Y-53200000D01*
X87320625Y-52889375D01*
X86829418Y-52561161D01*
X86396256Y-52475000D01*
X86103744Y-52475000D01*
X85670582Y-52561161D01*
X85179375Y-52889375D01*
X84980000Y-53187761D01*
X84780625Y-52889375D01*
X84289418Y-52561161D01*
X83856256Y-52475000D01*
X83563744Y-52475000D01*
X83130582Y-52561161D01*
X82949695Y-52682026D01*
X82892930Y-52597072D01*
X82829474Y-52554672D01*
X78675000Y-48400199D01*
X78675000Y-48234126D01*
X78517431Y-47853720D01*
X78226280Y-47562569D01*
X77845874Y-47405000D01*
X77434126Y-47405000D01*
X77053720Y-47562569D01*
X76762569Y-47853720D01*
X76605000Y-48234126D01*
X76605000Y-48645874D01*
X76762569Y-49026280D01*
X76786289Y-49050000D01*
X76682569Y-49153720D01*
X76525000Y-49534126D01*
X76525000Y-49945874D01*
X76614453Y-50161834D01*
X76577568Y-50198719D01*
X76419999Y-50579125D01*
X76419999Y-50745198D01*
X76190528Y-50974669D01*
X76127069Y-51017071D01*
X75959094Y-51268464D01*
X75914998Y-51490149D01*
X75914998Y-51490153D01*
X75900110Y-51565000D01*
X75914998Y-51639847D01*
X75914998Y-52343155D01*
X75900110Y-52418002D01*
X75912677Y-52481180D01*
X75510582Y-52561161D01*
X75019375Y-52889375D01*
X74691161Y-53380582D01*
X74575908Y-53960000D01*
X74691161Y-54539418D01*
X75019375Y-55030625D01*
X75037619Y-55042816D01*
X74992235Y-55051843D01*
X74782191Y-55192191D01*
X74641843Y-55402235D01*
X74592560Y-55650000D01*
X74592560Y-55740000D01*
X70214802Y-55740000D01*
X68885000Y-54410199D01*
X68885000Y-54244126D01*
X68727431Y-53863720D01*
X68436280Y-53572569D01*
X68055874Y-53415000D01*
X67644126Y-53415000D01*
X67263720Y-53572569D01*
X66972569Y-53863720D01*
X66815000Y-54244126D01*
X62880675Y-54244126D01*
X63659802Y-53465000D01*
X63825874Y-53465000D01*
X64206280Y-53307431D01*
X64497431Y-53016280D01*
X64534083Y-52927794D01*
X64543720Y-52937431D01*
X64924126Y-53095000D01*
X65335874Y-53095000D01*
X65716280Y-52937431D01*
X66007431Y-52646280D01*
X66165000Y-52265874D01*
X66165000Y-51854126D01*
X66007431Y-51473720D01*
X65716280Y-51182569D01*
X65335874Y-51025000D01*
X65169801Y-51025000D01*
X65060000Y-50915199D01*
X65060000Y-50617440D01*
X65150000Y-50617440D01*
X65397765Y-50568157D01*
X65607809Y-50427809D01*
X65748157Y-50217765D01*
X65797440Y-49970000D01*
X65797440Y-48498677D01*
X66054126Y-48605000D01*
X66465874Y-48605000D01*
X66846280Y-48447431D01*
X67123711Y-48170000D01*
X68836289Y-48170000D01*
X68953720Y-48287431D01*
X69334126Y-48445000D01*
X69745874Y-48445000D01*
X70126280Y-48287431D01*
X70417431Y-47996280D01*
X70575000Y-47615874D01*
X70575000Y-47204126D01*
X70417431Y-46823720D01*
X70398711Y-46805000D01*
X70524771Y-46678940D01*
X70682340Y-46298534D01*
X70682340Y-45886786D01*
X70524771Y-45506380D01*
X70500557Y-45482166D01*
X70615000Y-45205874D01*
X70615000Y-44794126D01*
X70501956Y-44521213D01*
X70645000Y-44175874D01*
X70645000Y-43764126D01*
X70487431Y-43383720D01*
X70196280Y-43092569D01*
X69815874Y-42935000D01*
X69404126Y-42935000D01*
X69023720Y-43092569D01*
X68906289Y-43210000D01*
X65531405Y-43210000D01*
X65370625Y-42969375D01*
X65051522Y-42756157D01*
X65181358Y-42695183D01*
X65571645Y-42266924D01*
X65741476Y-41856890D01*
X65620155Y-41627000D01*
X64427000Y-41627000D01*
X64427000Y-41647000D01*
X64173000Y-41647000D01*
X64173000Y-41627000D01*
X64153000Y-41627000D01*
X64153000Y-41373000D01*
X64173000Y-41373000D01*
X64173000Y-41353000D01*
X64427000Y-41353000D01*
X64427000Y-41373000D01*
X65620155Y-41373000D01*
X65741476Y-41143110D01*
X65571645Y-40733076D01*
X65181358Y-40304817D01*
X65051522Y-40243843D01*
X65370625Y-40030625D01*
X65698839Y-39539418D01*
X65814092Y-38960000D01*
X65698839Y-38380582D01*
X65370625Y-37889375D01*
X64879418Y-37561161D01*
X64446256Y-37475000D01*
X64153744Y-37475000D01*
X63720582Y-37561161D01*
X63229375Y-37889375D01*
X63030000Y-38187761D01*
X62830625Y-37889375D01*
X62339418Y-37561161D01*
X61906256Y-37475000D01*
X61613744Y-37475000D01*
X61180582Y-37561161D01*
X60689375Y-37889375D01*
X60484523Y-38195957D01*
X60430000Y-38185112D01*
X60355152Y-38200000D01*
X60355148Y-38200000D01*
X60133463Y-38244096D01*
X59882071Y-38412071D01*
X59839671Y-38475527D01*
X56094927Y-42220272D01*
X55953463Y-42248411D01*
X55702071Y-42416386D01*
X55534096Y-42667778D01*
X55505686Y-42810603D01*
X55372569Y-42943720D01*
X55215000Y-43324126D01*
X55215000Y-43735874D01*
X55372569Y-44116280D01*
X55663720Y-44407431D01*
X55687795Y-44417403D01*
X52917800Y-47187398D01*
X52935000Y-47145874D01*
X52935000Y-46734126D01*
X52777431Y-46353720D01*
X52486280Y-46062569D01*
X52105874Y-45905000D01*
X51694126Y-45905000D01*
X51313720Y-46062569D01*
X51196289Y-46180000D01*
X49234848Y-46180000D01*
X49160000Y-46165112D01*
X49085152Y-46180000D01*
X49085148Y-46180000D01*
X48916914Y-46213464D01*
X48863462Y-46224096D01*
X48714365Y-46323720D01*
X48612071Y-46392071D01*
X48569671Y-46455527D01*
X42606408Y-52418791D01*
X42386256Y-52375000D01*
X42093744Y-52375000D01*
X41660582Y-52461161D01*
X41169375Y-52789375D01*
X40970000Y-53087761D01*
X40770625Y-52789375D01*
X40279418Y-52461161D01*
X39846256Y-52375000D01*
X39553744Y-52375000D01*
X39120582Y-52461161D01*
X38629375Y-52789375D01*
X38301161Y-53280582D01*
X38185908Y-53860000D01*
X27027634Y-53860000D01*
X27496794Y-52150904D01*
X28274496Y-49898679D01*
X29195919Y-47701336D01*
X30257220Y-45568035D01*
X31453977Y-43507668D01*
X32781198Y-41528825D01*
X34233353Y-39639756D01*
X35804387Y-37848335D01*
X37487751Y-36162031D01*
X39276427Y-34587873D01*
X41162959Y-33132423D01*
X43139482Y-31801750D01*
X45197757Y-30601399D01*
X47329203Y-29536376D01*
X49524934Y-28611120D01*
X51775798Y-27829488D01*
X54072411Y-27194739D01*
X56405198Y-26709518D01*
X58764436Y-26375849D01*
X61140288Y-26195123D01*
X63522851Y-26168093D01*
X65902192Y-26294871D01*
X65902192Y-26294871D01*
G37*
X65902192Y-26294871D02*
X68268392Y-26574929D01*
X70611587Y-27007100D01*
X72922009Y-27589582D01*
X75190027Y-28319946D01*
X77406185Y-29195149D01*
X79561245Y-30211541D01*
X81646223Y-31364886D01*
X83652426Y-32650375D01*
X85571493Y-34062649D01*
X87395422Y-35595822D01*
X89116610Y-37243501D01*
X90727882Y-38998819D01*
X92222521Y-40854456D01*
X93594296Y-42802678D01*
X94837489Y-44835363D01*
X95946916Y-46944038D01*
X96917953Y-49119911D01*
X97746552Y-51353911D01*
X98429259Y-53636727D01*
X98963227Y-55958841D01*
X99346231Y-58310573D01*
X99576674Y-60682120D01*
X99653595Y-63063594D01*
X99646794Y-63772049D01*
X99524169Y-66151607D01*
X99248241Y-68518293D01*
X98820160Y-70862239D01*
X98241712Y-73173674D01*
X97515307Y-75442963D01*
X96643973Y-77660645D01*
X95631344Y-79817476D01*
X94481640Y-81904463D01*
X93199654Y-83912907D01*
X91790731Y-85834436D01*
X90260744Y-87661038D01*
X88616072Y-89385100D01*
X86863569Y-90999433D01*
X85010543Y-92497308D01*
X83064718Y-93872481D01*
X81034206Y-95119220D01*
X78927471Y-96232325D01*
X76753296Y-97207159D01*
X74520745Y-98039656D01*
X72239124Y-98726345D01*
X69917946Y-99264366D01*
X67566886Y-99651474D01*
X65195745Y-99886055D01*
X62814409Y-99967133D01*
X60432804Y-99894368D01*
X58060859Y-99668065D01*
X55708462Y-99289166D01*
X53385420Y-98759251D01*
X51101416Y-98080530D01*
X48865972Y-97255831D01*
X46688408Y-96288593D01*
X44577800Y-95182848D01*
X42542949Y-93943205D01*
X40592335Y-92574833D01*
X38734092Y-91083435D01*
X36975965Y-89475229D01*
X35325284Y-87756919D01*
X33788931Y-85935668D01*
X32373309Y-84019070D01*
X31084320Y-82015112D01*
X29927338Y-79932151D01*
X28907186Y-77778868D01*
X28028117Y-75564241D01*
X27293795Y-73297502D01*
X26707282Y-70988100D01*
X26271022Y-68645662D01*
X25986834Y-66279954D01*
X25855904Y-63900838D01*
X25878776Y-61518232D01*
X26055355Y-59142068D01*
X26384906Y-56782252D01*
X26866054Y-54448621D01*
X27027634Y-53860000D01*
X38185908Y-53860000D01*
X38301161Y-54439418D01*
X38629375Y-54930625D01*
X38647619Y-54942816D01*
X38602235Y-54951843D01*
X38392191Y-55092191D01*
X38251843Y-55302235D01*
X38202560Y-55550000D01*
X38202560Y-57250000D01*
X38251843Y-57497765D01*
X38392191Y-57707809D01*
X38602235Y-57848157D01*
X38850000Y-57897440D01*
X39029465Y-57897440D01*
X39152071Y-58080933D01*
X39215530Y-58123335D01*
X47787375Y-66695182D01*
X47642191Y-66792191D01*
X47501843Y-67002235D01*
X47452560Y-67250000D01*
X47452560Y-68950000D01*
X47501843Y-69197765D01*
X47642191Y-69407809D01*
X47852235Y-69548157D01*
X47897619Y-69557184D01*
X47879375Y-69569375D01*
X47825222Y-69650420D01*
X47305000Y-69130199D01*
X47305000Y-68964126D01*
X47147431Y-68583720D01*
X46856280Y-68292569D01*
X46475874Y-68135000D01*
X46064126Y-68135000D01*
X45683720Y-68292569D01*
X45392569Y-68583720D01*
X45387913Y-68594961D01*
X45025874Y-68445000D01*
X44614126Y-68445000D01*
X44233720Y-68602569D01*
X43942569Y-68893720D01*
X43785000Y-69274126D01*
X43785000Y-69685874D01*
X43942569Y-70066280D01*
X44233720Y-70357431D01*
X44614126Y-70515000D01*
X44780199Y-70515000D01*
X47079671Y-72814473D01*
X47122072Y-72877930D01*
X47373464Y-73045905D01*
X47459189Y-73062957D01*
X47435908Y-73180000D01*
X47551161Y-73759418D01*
X47879375Y-74250625D01*
X48198478Y-74463843D01*
X48068642Y-74524817D01*
X47678355Y-74953076D01*
X47508524Y-75363110D01*
X47629845Y-75593000D01*
X48823000Y-75593000D01*
X48823000Y-75573000D01*
X49077000Y-75573000D01*
X49077000Y-75593000D01*
X49097000Y-75593000D01*
X49097000Y-75847000D01*
X49077000Y-75847000D01*
X49077000Y-75867000D01*
X48823000Y-75867000D01*
X48823000Y-75847000D01*
X47629845Y-75847000D01*
X47508524Y-76076890D01*
X47678355Y-76486924D01*
X48068642Y-76915183D01*
X48198478Y-76976157D01*
X47879375Y-77189375D01*
X47551161Y-77680582D01*
X47435908Y-78260000D01*
X47551161Y-78839418D01*
X47879375Y-79330625D01*
X48370582Y-79658839D01*
X48803744Y-79745000D01*
X49096256Y-79745000D01*
X49529418Y-79658839D01*
X50020625Y-79330625D01*
X50220000Y-79032239D01*
X50419375Y-79330625D01*
X50910582Y-79658839D01*
X51343744Y-79745000D01*
X51636256Y-79745000D01*
X52069418Y-79658839D01*
X52560625Y-79330625D01*
X52888839Y-78839418D01*
X53004092Y-78260000D01*
X52888839Y-77680582D01*
X52560625Y-77189375D01*
X52262239Y-76990000D01*
X52560625Y-76790625D01*
X52888839Y-76299418D01*
X53004092Y-75720000D01*
X52888839Y-75140582D01*
X52560625Y-74649375D01*
X52262239Y-74450000D01*
X52560625Y-74250625D01*
X52888839Y-73759418D01*
X53004092Y-73180000D01*
X52931209Y-72813592D01*
X53110675Y-72634126D01*
X56025000Y-72634126D01*
X56025000Y-73045874D01*
X56182569Y-73426280D01*
X56473720Y-73717431D01*
X56854126Y-73875000D01*
X57020199Y-73875000D01*
X62049671Y-78904473D01*
X62092071Y-78967929D01*
X62155527Y-79010329D01*
X62343462Y-79135904D01*
X62391605Y-79145480D01*
X62565148Y-79180000D01*
X62565152Y-79180000D01*
X62640000Y-79194888D01*
X62714848Y-79180000D01*
X68183319Y-79180000D01*
X68242071Y-79267929D01*
X68305529Y-79310330D01*
X72579673Y-83584476D01*
X72622071Y-83647929D01*
X72685524Y-83690327D01*
X72685526Y-83690329D01*
X72810902Y-83774102D01*
X72873463Y-83815904D01*
X73095148Y-83860000D01*
X73095152Y-83860000D01*
X73169999Y-83874888D01*
X73244846Y-83860000D01*
X77675153Y-83860000D01*
X77750000Y-83874888D01*
X77824847Y-83860000D01*
X77824852Y-83860000D01*
X78046537Y-83815904D01*
X78297929Y-83647929D01*
X78340331Y-83584470D01*
X78739801Y-83185000D01*
X78905874Y-83185000D01*
X79286280Y-83027431D01*
X79403711Y-82910000D01*
X84150724Y-82910000D01*
X84225571Y-82924888D01*
X84300418Y-82910000D01*
X84300423Y-82910000D01*
X84522108Y-82865904D01*
X84773500Y-82697929D01*
X84815902Y-82634470D01*
X90628842Y-76821531D01*
X90794914Y-76821531D01*
X91175320Y-76663962D01*
X91466471Y-76372811D01*
X91624040Y-75992405D01*
X91624040Y-75580657D01*
X91466471Y-75200251D01*
X91175320Y-74909100D01*
X90794914Y-74751531D01*
X90383166Y-74751531D01*
X90002760Y-74909100D01*
X89711609Y-75200251D01*
X89554040Y-75580657D01*
X89554040Y-75746729D01*
X83910770Y-81390000D01*
X79403711Y-81390000D01*
X79286280Y-81272569D01*
X78905874Y-81115000D01*
X78494126Y-81115000D01*
X78113720Y-81272569D01*
X77822569Y-81563720D01*
X77665000Y-81944126D01*
X77665000Y-82110199D01*
X77435199Y-82340000D01*
X73484803Y-82340000D01*
X69564874Y-78420073D01*
X69564889Y-78420000D01*
X69518816Y-78188375D01*
X69700380Y-78006811D01*
X69857949Y-77626405D01*
X69857949Y-77214657D01*
X69700380Y-76834251D01*
X69409229Y-76543100D01*
X69028823Y-76385531D01*
X68862751Y-76385531D01*
X65442749Y-72965530D01*
X65400347Y-72902071D01*
X65148955Y-72734096D01*
X64927270Y-72690000D01*
X64927265Y-72690000D01*
X64852418Y-72675112D01*
X64777571Y-72690000D01*
X60153711Y-72690000D01*
X60036280Y-72572569D01*
X59655874Y-72415000D01*
X59244126Y-72415000D01*
X58863720Y-72572569D01*
X58572569Y-72863720D01*
X58451297Y-73156496D01*
X58095000Y-72800199D01*
X58095000Y-72634126D01*
X57937431Y-72253720D01*
X57646280Y-71962569D01*
X57265874Y-71805000D01*
X56854126Y-71805000D01*
X56473720Y-71962569D01*
X56182569Y-72253720D01*
X56025000Y-72634126D01*
X53110675Y-72634126D01*
X53974472Y-71770330D01*
X54037928Y-71727930D01*
X54205903Y-71476538D01*
X54249999Y-71254853D01*
X54249999Y-71254849D01*
X54264887Y-71180001D01*
X54249999Y-71105153D01*
X54249999Y-66841211D01*
X55334998Y-67926210D01*
X55334998Y-67973155D01*
X55320110Y-68048002D01*
X55334998Y-68122849D01*
X55334998Y-68122853D01*
X55379094Y-68344538D01*
X55547069Y-68595931D01*
X55610528Y-68638333D01*
X55881667Y-68909472D01*
X55924069Y-68972931D01*
X56175461Y-69140906D01*
X56397146Y-69185002D01*
X56397150Y-69185002D01*
X56471998Y-69199890D01*
X56546846Y-69185002D01*
X57093155Y-69185002D01*
X57168002Y-69199890D01*
X57242849Y-69185002D01*
X57242854Y-69185002D01*
X57464539Y-69140906D01*
X57715931Y-68972931D01*
X57758333Y-68909472D01*
X57857805Y-68810000D01*
X58766289Y-68810000D01*
X58833720Y-68877431D01*
X59214126Y-69035000D01*
X59625874Y-69035000D01*
X60006280Y-68877431D01*
X60297431Y-68586280D01*
X60455000Y-68205874D01*
X60455000Y-67794126D01*
X60297431Y-67413720D01*
X60006280Y-67122569D01*
X59625874Y-66965000D01*
X59214126Y-66965000D01*
X58965000Y-67068191D01*
X58965000Y-66944126D01*
X58807431Y-66563720D01*
X58516280Y-66272569D01*
X58135874Y-66115000D01*
X57769802Y-66115000D01*
X52935000Y-61280199D01*
X52935000Y-61114126D01*
X52777431Y-60733720D01*
X52486280Y-60442569D01*
X52105874Y-60285000D01*
X51694126Y-60285000D01*
X51313720Y-60442569D01*
X51022569Y-60733720D01*
X50865000Y-61114126D01*
X50865000Y-61525874D01*
X51022569Y-61906280D01*
X51313720Y-62197431D01*
X51694126Y-62355000D01*
X51860199Y-62355000D01*
X52035199Y-62530000D01*
X51263711Y-62530000D01*
X51146280Y-62412569D01*
X50765874Y-62255000D01*
X50354126Y-62255000D01*
X49973720Y-62412569D01*
X49682569Y-62703720D01*
X49525000Y-63084126D01*
X49525000Y-63495874D01*
X49628458Y-63745644D01*
X49183342Y-63300529D01*
X49140940Y-63237070D01*
X48889548Y-63069095D01*
X48667863Y-63024999D01*
X48667858Y-63024999D01*
X48593011Y-63010111D01*
X48518164Y-63024999D01*
X48404342Y-63024999D01*
X48021776Y-62642434D01*
X48106280Y-62607431D01*
X48397431Y-62316280D01*
X48555000Y-61935874D01*
X48555000Y-61524126D01*
X48397431Y-61143720D01*
X48280000Y-61026289D01*
X48280000Y-60444848D01*
X48294888Y-60370000D01*
X48280000Y-60295152D01*
X48280000Y-60295148D01*
X48235904Y-60073463D01*
X48235904Y-60073462D01*
X48110329Y-59885527D01*
X48067929Y-59822071D01*
X48004473Y-59779671D01*
X47165000Y-58940199D01*
X47165000Y-58774126D01*
X47007431Y-58393720D01*
X46716280Y-58102569D01*
X46335874Y-57945000D01*
X45924126Y-57945000D01*
X45543720Y-58102569D01*
X45540000Y-58106289D01*
X45540000Y-57678178D01*
X45850625Y-57470625D01*
X46063843Y-57151522D01*
X46124817Y-57281358D01*
X46553076Y-57671645D01*
X46963110Y-57841476D01*
X47193000Y-57720155D01*
X47193000Y-56527000D01*
X47173000Y-56527000D01*
X47173000Y-56273000D01*
X47193000Y-56273000D01*
X47193000Y-56253000D01*
X47447000Y-56253000D01*
X47447000Y-56273000D01*
X47467000Y-56273000D01*
X47467000Y-56527000D01*
X47447000Y-56527000D01*
X47447000Y-57720155D01*
X47676890Y-57841476D01*
X48086924Y-57671645D01*
X48515183Y-57281358D01*
X48576157Y-57151522D01*
X48789375Y-57470625D01*
X49280582Y-57798839D01*
X49713744Y-57885000D01*
X50006256Y-57885000D01*
X50439418Y-57798839D01*
X50930625Y-57470625D01*
X51258839Y-56979418D01*
X51374092Y-56400000D01*
X51258839Y-55820582D01*
X50930625Y-55329375D01*
X50632239Y-55130000D01*
X50930625Y-54930625D01*
X51138178Y-54620000D01*
X51225199Y-54620000D01*
X52345000Y-55739802D01*
X52345000Y-55905874D01*
X52502569Y-56286280D01*
X52793720Y-56577431D01*
X53174126Y-56735000D01*
X53585874Y-56735000D01*
X53966280Y-56577431D01*
X54257431Y-56286280D01*
X54415000Y-55905874D01*
X54415000Y-55494126D01*
X54257431Y-55113720D01*
X53966280Y-54822569D01*
X53585874Y-54665000D01*
X53419802Y-54665000D01*
X52130331Y-53375530D01*
X52087929Y-53312071D01*
X51836537Y-53144096D01*
X51614852Y-53100000D01*
X51614847Y-53100000D01*
X51540000Y-53085112D01*
X51465153Y-53100000D01*
X51138178Y-53100000D01*
X50930625Y-52789375D01*
X50439418Y-52461161D01*
X50006256Y-52375000D01*
X49879801Y-52375000D01*
X54745545Y-47509256D01*
X55023720Y-47787431D01*
X55404126Y-47945000D01*
X55464344Y-47945000D01*
X55572569Y-48206280D01*
X55863720Y-48497431D01*
X56244126Y-48655000D01*
X56655874Y-48655000D01*
X57020456Y-48503986D01*
X57075834Y-48515001D01*
X57075838Y-48515001D01*
X57150685Y-48529889D01*
X57225532Y-48515001D01*
X60378254Y-48515001D01*
X60361161Y-48540582D01*
X60245908Y-49120000D01*
X60361161Y-49699418D01*
X60689375Y-50190625D01*
X61180582Y-50518839D01*
X61360559Y-50554639D01*
X59580199Y-52335000D01*
X59414126Y-52335000D01*
X59033720Y-52492569D01*
X58889044Y-52637245D01*
X58197329Y-51945530D01*
X58154927Y-51882071D01*
X57903535Y-51714096D01*
X57681850Y-51670000D01*
X57681845Y-51670000D01*
X57606998Y-51655112D01*
X57532151Y-51670000D01*
X56923711Y-51670000D01*
X56826280Y-51572569D01*
X56445874Y-51415000D01*
X56034126Y-51415000D01*
X55653720Y-51572569D01*
X55362569Y-51863720D01*
X55205000Y-52244126D01*
X55205000Y-52655874D01*
X55362569Y-53036280D01*
X55653720Y-53327431D01*
X56034126Y-53485000D01*
X56445874Y-53485000D01*
X56826280Y-53327431D01*
X56963711Y-53190000D01*
X57292197Y-53190000D01*
X58681670Y-54579474D01*
X58724070Y-54642930D01*
X58975462Y-54810905D01*
X59197147Y-54855001D01*
X59197152Y-54855001D01*
X59271999Y-54869889D01*
X59346846Y-54855001D01*
X61880152Y-54855001D01*
X61954999Y-54869889D01*
X62029846Y-54855001D01*
X62029851Y-54855001D01*
X62251536Y-54810905D01*
X62502928Y-54642930D01*
X62545330Y-54579471D01*
X62880675Y-54244126D01*
X66815000Y-54244126D01*
X66815000Y-54655874D01*
X66972569Y-55036280D01*
X67263720Y-55327431D01*
X67644126Y-55485000D01*
X67810199Y-55485000D01*
X69309671Y-56984473D01*
X69352071Y-57047929D01*
X69415527Y-57090329D01*
X69603462Y-57215904D01*
X69651605Y-57225480D01*
X69825148Y-57260000D01*
X69825152Y-57260000D01*
X69900000Y-57274888D01*
X69974848Y-57260000D01*
X74592560Y-57260000D01*
X74592560Y-57350000D01*
X74641843Y-57597765D01*
X74782191Y-57807809D01*
X74992235Y-57948157D01*
X75240000Y-57997440D01*
X75330000Y-57997440D01*
X75330001Y-65498787D01*
X74276229Y-66552560D01*
X73350000Y-66552560D01*
X73102235Y-66601843D01*
X72892191Y-66742191D01*
X72751843Y-66952235D01*
X72702560Y-67200000D01*
X72702560Y-67240000D01*
X69293711Y-67240000D01*
X69176280Y-67122569D01*
X68795874Y-66965000D01*
X68384126Y-66965000D01*
X68003720Y-67122569D01*
X67712569Y-67413720D01*
X67555000Y-67794126D01*
X67555000Y-68205874D01*
X67712569Y-68586280D01*
X68003720Y-68877431D01*
X68384126Y-69035000D01*
X68795874Y-69035000D01*
X69176280Y-68877431D01*
X69293711Y-68760000D01*
X72702560Y-68760000D01*
X72702560Y-68900000D01*
X72751843Y-69147765D01*
X72892191Y-69357809D01*
X73102235Y-69498157D01*
X73147619Y-69507184D01*
X73129375Y-69519375D01*
X72801161Y-70010582D01*
X72685908Y-70590000D01*
X72801161Y-71169418D01*
X73129375Y-71660625D01*
X73427761Y-71860000D01*
X73129375Y-72059375D01*
X72801161Y-72550582D01*
X72685908Y-73130000D01*
X72801161Y-73709418D01*
X73129375Y-74200625D01*
X73448478Y-74413843D01*
X73318642Y-74474817D01*
X72928355Y-74903076D01*
X72758524Y-75313110D01*
X72879845Y-75543000D01*
X74073000Y-75543000D01*
X74073000Y-75523000D01*
X74327000Y-75523000D01*
X74327000Y-75543000D01*
X74347000Y-75543000D01*
X74347000Y-75797000D01*
X74327000Y-75797000D01*
X74327000Y-75817000D01*
X74073000Y-75817000D01*
X74073000Y-75797000D01*
X72879845Y-75797000D01*
X72758524Y-76026890D01*
X72928355Y-76436924D01*
X73318642Y-76865183D01*
X73448478Y-76926157D01*
X73129375Y-77139375D01*
X72801161Y-77630582D01*
X72685908Y-78210000D01*
X72801161Y-78789418D01*
X73129375Y-79280625D01*
X73620582Y-79608839D01*
X74053744Y-79695000D01*
X74346256Y-79695000D01*
X74779418Y-79608839D01*
X75270625Y-79280625D01*
X75470000Y-78982239D01*
X75669375Y-79280625D01*
X76160582Y-79608839D01*
X76593744Y-79695000D01*
X76886256Y-79695000D01*
X77319418Y-79608839D01*
X77810625Y-79280625D01*
X78018178Y-78970000D01*
X78565153Y-78970000D01*
X78640000Y-78984888D01*
X78714847Y-78970000D01*
X78714852Y-78970000D01*
X78936537Y-78925904D01*
X79187929Y-78757929D01*
X79230331Y-78694470D01*
X80429802Y-77495000D01*
X80595874Y-77495000D01*
X80976280Y-77337431D01*
X81267431Y-77046280D01*
X81425000Y-76665874D01*
X81425000Y-76254126D01*
X81267431Y-75873720D01*
X80976280Y-75582569D01*
X80595874Y-75425000D01*
X80184126Y-75425000D01*
X79803720Y-75582569D01*
X79512569Y-75873720D01*
X79355000Y-76254126D01*
X79355000Y-76420198D01*
X78325199Y-77450000D01*
X78018178Y-77450000D01*
X77810625Y-77139375D01*
X77512239Y-76940000D01*
X77810625Y-76740625D01*
X78138839Y-76249418D01*
X78254092Y-75670000D01*
X78138839Y-75090582D01*
X77810625Y-74599375D01*
X77512239Y-74400000D01*
X77810625Y-74200625D01*
X78018178Y-73890000D01*
X79425153Y-73890000D01*
X79500000Y-73904888D01*
X79574847Y-73890000D01*
X79574852Y-73890000D01*
X79796537Y-73845904D01*
X80047929Y-73677929D01*
X80090331Y-73614470D01*
X80389801Y-73315000D01*
X80555874Y-73315000D01*
X80936280Y-73157431D01*
X81227431Y-72866280D01*
X81385000Y-72485874D01*
X81385000Y-72074126D01*
X81251612Y-71752099D01*
X81307431Y-71696280D01*
X81465000Y-71315874D01*
X81465000Y-70904126D01*
X81307431Y-70523720D01*
X81283711Y-70500000D01*
X81307431Y-70476280D01*
X81465000Y-70095874D01*
X81465000Y-69684126D01*
X81307431Y-69303720D01*
X81016280Y-69012569D01*
X80635874Y-68855000D01*
X80224126Y-68855000D01*
X79843720Y-69012569D01*
X79552569Y-69303720D01*
X79395000Y-69684126D01*
X79395000Y-69830000D01*
X78018178Y-69830000D01*
X77810625Y-69519375D01*
X77512239Y-69320000D01*
X77810625Y-69120625D01*
X78138839Y-68629418D01*
X78162593Y-68510000D01*
X79606289Y-68510000D01*
X79723720Y-68627431D01*
X80104126Y-68785000D01*
X80515874Y-68785000D01*
X80896280Y-68627431D01*
X81187431Y-68336280D01*
X81345000Y-67955874D01*
X81345000Y-67544126D01*
X81187431Y-67163720D01*
X80896280Y-66872569D01*
X80515874Y-66715000D01*
X80104126Y-66715000D01*
X79723720Y-66872569D01*
X79606289Y-66990000D01*
X77817724Y-66990000D01*
X77810625Y-66979375D01*
X77319418Y-66651161D01*
X77022668Y-66592134D01*
X77344473Y-66270329D01*
X77407929Y-66227929D01*
X77575904Y-65976537D01*
X77620000Y-65754852D01*
X77620000Y-65754847D01*
X77634888Y-65680000D01*
X77620000Y-65605153D01*
X77620000Y-65115000D01*
X77660198Y-65115000D01*
X77909671Y-65364473D01*
X77952072Y-65427930D01*
X78203464Y-65595905D01*
X78425149Y-65640001D01*
X78425153Y-65640001D01*
X78500000Y-65654889D01*
X78574847Y-65640001D01*
X78588841Y-65640001D01*
X78682569Y-65866280D01*
X78973720Y-66157431D01*
X79354126Y-66315000D01*
X79765874Y-66315000D01*
X80146280Y-66157431D01*
X80437431Y-65866280D01*
X80595000Y-65485874D01*
X80595000Y-65074126D01*
X80437431Y-64693720D01*
X80146280Y-64402569D01*
X79765874Y-64245000D01*
X79577618Y-64245000D01*
X79456538Y-64164097D01*
X79234853Y-64120001D01*
X79234848Y-64120001D01*
X79160001Y-64105113D01*
X79085154Y-64120001D01*
X78814803Y-64120001D01*
X78735000Y-64040198D01*
X78735000Y-63874126D01*
X78577431Y-63493720D01*
X78286280Y-63202569D01*
X77905874Y-63045000D01*
X77620000Y-63045000D01*
X77620000Y-58584801D01*
X77870000Y-58334801D01*
X77870001Y-61197897D01*
X77855112Y-61272749D01*
X77914097Y-61569286D01*
X78025851Y-61736537D01*
X78082072Y-61820678D01*
X78145528Y-61863078D01*
X82715114Y-66432665D01*
X82715114Y-66598737D01*
X82872683Y-66979143D01*
X83163834Y-67270294D01*
X83544240Y-67427863D01*
X83955988Y-67427863D01*
X84336394Y-67270294D01*
X84436786Y-67169902D01*
X84518848Y-67203893D01*
X84683513Y-67203893D01*
X84708313Y-67263765D01*
X84999464Y-67554916D01*
X85207075Y-67640911D01*
X85363711Y-68019065D01*
X85654862Y-68310216D01*
X86035268Y-68467785D01*
X86270000Y-68467785D01*
X86270001Y-70692196D01*
X86145531Y-70816666D01*
X86082072Y-70859068D01*
X85914097Y-71110461D01*
X85870001Y-71332146D01*
X85870001Y-71332150D01*
X85855113Y-71406997D01*
X85870001Y-71481844D01*
X85870001Y-71745154D01*
X85855113Y-71820001D01*
X85870001Y-71894848D01*
X85870001Y-71894853D01*
X85914097Y-72116538D01*
X86082073Y-72367930D01*
X86145529Y-72410330D01*
X86532660Y-72797461D01*
X86532660Y-72963534D01*
X86690229Y-73343940D01*
X86981380Y-73635091D01*
X87361786Y-73792660D01*
X87773534Y-73792660D01*
X88153940Y-73635091D01*
X88445091Y-73343940D01*
X88602660Y-72963534D01*
X88602660Y-72551786D01*
X88488217Y-72275494D01*
X88497431Y-72266280D01*
X88655000Y-71885874D01*
X88655000Y-71474126D01*
X88497431Y-71093720D01*
X88364314Y-70960603D01*
X88335904Y-70817778D01*
X88240010Y-70674263D01*
X88240010Y-69715889D01*
X88294888Y-69439999D01*
X88240010Y-69164110D01*
X88240010Y-66894857D01*
X88254898Y-66820010D01*
X88240010Y-66745163D01*
X88240010Y-66745159D01*
X88195914Y-66523474D01*
X88140000Y-66439793D01*
X88140000Y-63131466D01*
X88922340Y-63131466D01*
X88922340Y-63543214D01*
X89053123Y-63858952D01*
X88935000Y-64144126D01*
X88935000Y-64555874D01*
X89068409Y-64877954D01*
X88946441Y-65172412D01*
X88946441Y-65584160D01*
X89104010Y-65964566D01*
X89141947Y-66002503D01*
X89075000Y-66164126D01*
X89075000Y-66575874D01*
X89207186Y-66895000D01*
X89075000Y-67214126D01*
X89075000Y-67625874D01*
X89232569Y-68006280D01*
X89523720Y-68297431D01*
X89904126Y-68455000D01*
X90315874Y-68455000D01*
X90696280Y-68297431D01*
X90829397Y-68164314D01*
X90972222Y-68135904D01*
X91223614Y-67967929D01*
X91266016Y-67904470D01*
X92523485Y-66647002D01*
X92619844Y-66647002D01*
X92498524Y-66876890D01*
X92668355Y-67286924D01*
X93058642Y-67715183D01*
X93188478Y-67776157D01*
X92869375Y-67989375D01*
X92541161Y-68480582D01*
X92425908Y-69060000D01*
X92541161Y-69639418D01*
X92869375Y-70130625D01*
X93360582Y-70458839D01*
X93793744Y-70545000D01*
X94086256Y-70545000D01*
X94519418Y-70458839D01*
X95010625Y-70130625D01*
X95210000Y-69832239D01*
X95409375Y-70130625D01*
X95685312Y-70315000D01*
X95334126Y-70315000D01*
X94953720Y-70472569D01*
X94662569Y-70763720D01*
X94505000Y-71144126D01*
X94505000Y-71310198D01*
X94420527Y-71394672D01*
X94357069Y-71437073D01*
X94189094Y-71688466D01*
X94144998Y-71910151D01*
X94144998Y-71910155D01*
X94130110Y-71985002D01*
X94144998Y-72059849D01*
X94144999Y-73840146D01*
X94130110Y-73914998D01*
X94189095Y-74211535D01*
X94277690Y-74344126D01*
X94357070Y-74462927D01*
X94420525Y-74505326D01*
X94505000Y-74589802D01*
X94505000Y-74755874D01*
X94662569Y-75136280D01*
X94953720Y-75427431D01*
X95334126Y-75585000D01*
X95745874Y-75585000D01*
X96126280Y-75427431D01*
X96417431Y-75136280D01*
X96575000Y-74755874D01*
X96575000Y-74344126D01*
X96417431Y-73963720D01*
X96253711Y-73800000D01*
X96507431Y-73546280D01*
X96665000Y-73165874D01*
X96665000Y-72999802D01*
X96964473Y-72700329D01*
X97027929Y-72657929D01*
X97195904Y-72406537D01*
X97240000Y-72184852D01*
X97240000Y-72184848D01*
X97254888Y-72110000D01*
X97240000Y-72035152D01*
X97240000Y-70338178D01*
X97550625Y-70130625D01*
X97878839Y-69639418D01*
X97994092Y-69060000D01*
X97878839Y-68480582D01*
X97550625Y-67989375D01*
X97252239Y-67790000D01*
X97550625Y-67590625D01*
X97878839Y-67099418D01*
X97994092Y-66520000D01*
X97878839Y-65940582D01*
X97550625Y-65449375D01*
X97252239Y-65250000D01*
X97550625Y-65050625D01*
X97878839Y-64559418D01*
X97994092Y-63980000D01*
X97878839Y-63400582D01*
X97550625Y-62909375D01*
X97252239Y-62710000D01*
X97550625Y-62510625D01*
X97878839Y-62019418D01*
X97994092Y-61440000D01*
X97878839Y-60860582D01*
X97550625Y-60369375D01*
X97252239Y-60170000D01*
X97550625Y-59970625D01*
X97878839Y-59479418D01*
X97994092Y-58900000D01*
X97878839Y-58320582D01*
X97550625Y-57829375D01*
X97059418Y-57501161D01*
X96626256Y-57415000D01*
X96333744Y-57415000D01*
X95900582Y-57501161D01*
X95409375Y-57829375D01*
X95397184Y-57847619D01*
X95388157Y-57802235D01*
X95247809Y-57592191D01*
X95037765Y-57451843D01*
X94790000Y-57402560D01*
X93090000Y-57402560D01*
X92842235Y-57451843D01*
X92632191Y-57592191D01*
X92491843Y-57802235D01*
X92442560Y-58050000D01*
X92442560Y-59750000D01*
X92447092Y-59772786D01*
X89917539Y-62302340D01*
X89751466Y-62302340D01*
X89371060Y-62459909D01*
X89079909Y-62751060D01*
X88922340Y-63131466D01*
X88140000Y-63131466D01*
X88140000Y-62579116D01*
X88647845Y-62071272D01*
X88874126Y-62165000D01*
X89285874Y-62165000D01*
X89666280Y-62007431D01*
X89957431Y-61716280D01*
X90115000Y-61335874D01*
X90115000Y-60924126D01*
X89957431Y-60543720D01*
X89666280Y-60252569D01*
X89378161Y-60133227D01*
X89687025Y-59824363D01*
X89954126Y-59935000D01*
X90365874Y-59935000D01*
X90746280Y-59777431D01*
X91037431Y-59486280D01*
X91195000Y-59105874D01*
X91195000Y-58694126D01*
X91037431Y-58313720D01*
X90746280Y-58022569D01*
X90365874Y-57865000D01*
X89954126Y-57865000D01*
X89573720Y-58022569D01*
X89454937Y-58141352D01*
X89288191Y-58174520D01*
X89240048Y-58184096D01*
X89104168Y-58274889D01*
X88988657Y-58352071D01*
X88946257Y-58415527D01*
X86359054Y-61002731D01*
X86192981Y-61002731D01*
X85812575Y-61160300D01*
X85521424Y-61451451D01*
X85440828Y-61646027D01*
X83985000Y-60190199D01*
X83985000Y-60024126D01*
X83827431Y-59643720D01*
X83536280Y-59352569D01*
X83155874Y-59195000D01*
X82744126Y-59195000D01*
X82363720Y-59352569D01*
X82072569Y-59643720D01*
X81998593Y-59822315D01*
X81965345Y-59822315D01*
X81584939Y-59979884D01*
X81293788Y-60271035D01*
X81136219Y-60651441D01*
X81136219Y-61063189D01*
X81293788Y-61443595D01*
X81584939Y-61734746D01*
X81965345Y-61892315D01*
X82131418Y-61892315D01*
X84825744Y-64586642D01*
X84825744Y-65133893D01*
X84764524Y-65133893D01*
X80565001Y-60934371D01*
X80565001Y-57881746D01*
X80590582Y-57898839D01*
X81023744Y-57985000D01*
X81316256Y-57985000D01*
X81749418Y-57898839D01*
X82240625Y-57570625D01*
X82453843Y-57251522D01*
X82514817Y-57381358D01*
X82943076Y-57771645D01*
X83353110Y-57941476D01*
X83583000Y-57820155D01*
X83583000Y-56627000D01*
X83563000Y-56627000D01*
X83563000Y-56373000D01*
X83583000Y-56373000D01*
X83583000Y-56353000D01*
X83837000Y-56353000D01*
X83837000Y-56373000D01*
X83857000Y-56373000D01*
X83857000Y-56627000D01*
X83837000Y-56627000D01*
X83837000Y-57820155D01*
X84066890Y-57941476D01*
X84097485Y-57928804D01*
X84032569Y-57993720D01*
X83875000Y-58374126D01*
X83875000Y-58785874D01*
X84032569Y-59166280D01*
X84323720Y-59457431D01*
X84704126Y-59615000D01*
X85115874Y-59615000D01*
X85496280Y-59457431D01*
X85787431Y-59166280D01*
X85945000Y-58785874D01*
X85945000Y-58374126D01*
X85787431Y-57993720D01*
X85698005Y-57904294D01*
X86103744Y-57985000D01*
X86396256Y-57985000D01*
X86829418Y-57898839D01*
X87320625Y-57570625D01*
X87648839Y-57079418D01*
X87764092Y-56500000D01*
X87648839Y-55920582D01*
X87320625Y-55429375D01*
X87022239Y-55230000D01*
X87320625Y-55030625D01*
X87528178Y-54720000D01*
X88165199Y-54720000D01*
X89475000Y-56029802D01*
X89475000Y-56195874D01*
X89632569Y-56576280D01*
X89923720Y-56867431D01*
X90304126Y-57025000D01*
X90715874Y-57025000D01*
X91096280Y-56867431D01*
X91387431Y-56576280D01*
X91545000Y-56195874D01*
X91545000Y-55784126D01*
X91387431Y-55403720D01*
X91096280Y-55112569D01*
X90715874Y-54955000D01*
X90549802Y-54955000D01*
X89070331Y-53475530D01*
X89027929Y-53412071D01*
X88776537Y-53244096D01*
X88554852Y-53200000D01*
X88554847Y-53200000D01*
X88480000Y-53185112D01*
X88405153Y-53200000D01*
X87528178Y-53200000D01*
X87320625Y-52889375D01*
X86829418Y-52561161D01*
X86396256Y-52475000D01*
X86103744Y-52475000D01*
X85670582Y-52561161D01*
X85179375Y-52889375D01*
X84980000Y-53187761D01*
X84780625Y-52889375D01*
X84289418Y-52561161D01*
X83856256Y-52475000D01*
X83563744Y-52475000D01*
X83130582Y-52561161D01*
X82949695Y-52682026D01*
X82892930Y-52597072D01*
X82829474Y-52554672D01*
X78675000Y-48400199D01*
X78675000Y-48234126D01*
X78517431Y-47853720D01*
X78226280Y-47562569D01*
X77845874Y-47405000D01*
X77434126Y-47405000D01*
X77053720Y-47562569D01*
X76762569Y-47853720D01*
X76605000Y-48234126D01*
X76605000Y-48645874D01*
X76762569Y-49026280D01*
X76786289Y-49050000D01*
X76682569Y-49153720D01*
X76525000Y-49534126D01*
X76525000Y-49945874D01*
X76614453Y-50161834D01*
X76577568Y-50198719D01*
X76419999Y-50579125D01*
X76419999Y-50745198D01*
X76190528Y-50974669D01*
X76127069Y-51017071D01*
X75959094Y-51268464D01*
X75914998Y-51490149D01*
X75914998Y-51490153D01*
X75900110Y-51565000D01*
X75914998Y-51639847D01*
X75914998Y-52343155D01*
X75900110Y-52418002D01*
X75912677Y-52481180D01*
X75510582Y-52561161D01*
X75019375Y-52889375D01*
X74691161Y-53380582D01*
X74575908Y-53960000D01*
X74691161Y-54539418D01*
X75019375Y-55030625D01*
X75037619Y-55042816D01*
X74992235Y-55051843D01*
X74782191Y-55192191D01*
X74641843Y-55402235D01*
X74592560Y-55650000D01*
X74592560Y-55740000D01*
X70214802Y-55740000D01*
X68885000Y-54410199D01*
X68885000Y-54244126D01*
X68727431Y-53863720D01*
X68436280Y-53572569D01*
X68055874Y-53415000D01*
X67644126Y-53415000D01*
X67263720Y-53572569D01*
X66972569Y-53863720D01*
X66815000Y-54244126D01*
X62880675Y-54244126D01*
X63659802Y-53465000D01*
X63825874Y-53465000D01*
X64206280Y-53307431D01*
X64497431Y-53016280D01*
X64534083Y-52927794D01*
X64543720Y-52937431D01*
X64924126Y-53095000D01*
X65335874Y-53095000D01*
X65716280Y-52937431D01*
X66007431Y-52646280D01*
X66165000Y-52265874D01*
X66165000Y-51854126D01*
X66007431Y-51473720D01*
X65716280Y-51182569D01*
X65335874Y-51025000D01*
X65169801Y-51025000D01*
X65060000Y-50915199D01*
X65060000Y-50617440D01*
X65150000Y-50617440D01*
X65397765Y-50568157D01*
X65607809Y-50427809D01*
X65748157Y-50217765D01*
X65797440Y-49970000D01*
X65797440Y-48498677D01*
X66054126Y-48605000D01*
X66465874Y-48605000D01*
X66846280Y-48447431D01*
X67123711Y-48170000D01*
X68836289Y-48170000D01*
X68953720Y-48287431D01*
X69334126Y-48445000D01*
X69745874Y-48445000D01*
X70126280Y-48287431D01*
X70417431Y-47996280D01*
X70575000Y-47615874D01*
X70575000Y-47204126D01*
X70417431Y-46823720D01*
X70398711Y-46805000D01*
X70524771Y-46678940D01*
X70682340Y-46298534D01*
X70682340Y-45886786D01*
X70524771Y-45506380D01*
X70500557Y-45482166D01*
X70615000Y-45205874D01*
X70615000Y-44794126D01*
X70501956Y-44521213D01*
X70645000Y-44175874D01*
X70645000Y-43764126D01*
X70487431Y-43383720D01*
X70196280Y-43092569D01*
X69815874Y-42935000D01*
X69404126Y-42935000D01*
X69023720Y-43092569D01*
X68906289Y-43210000D01*
X65531405Y-43210000D01*
X65370625Y-42969375D01*
X65051522Y-42756157D01*
X65181358Y-42695183D01*
X65571645Y-42266924D01*
X65741476Y-41856890D01*
X65620155Y-41627000D01*
X64427000Y-41627000D01*
X64427000Y-41647000D01*
X64173000Y-41647000D01*
X64173000Y-41627000D01*
X64153000Y-41627000D01*
X64153000Y-41373000D01*
X64173000Y-41373000D01*
X64173000Y-41353000D01*
X64427000Y-41353000D01*
X64427000Y-41373000D01*
X65620155Y-41373000D01*
X65741476Y-41143110D01*
X65571645Y-40733076D01*
X65181358Y-40304817D01*
X65051522Y-40243843D01*
X65370625Y-40030625D01*
X65698839Y-39539418D01*
X65814092Y-38960000D01*
X65698839Y-38380582D01*
X65370625Y-37889375D01*
X64879418Y-37561161D01*
X64446256Y-37475000D01*
X64153744Y-37475000D01*
X63720582Y-37561161D01*
X63229375Y-37889375D01*
X63030000Y-38187761D01*
X62830625Y-37889375D01*
X62339418Y-37561161D01*
X61906256Y-37475000D01*
X61613744Y-37475000D01*
X61180582Y-37561161D01*
X60689375Y-37889375D01*
X60484523Y-38195957D01*
X60430000Y-38185112D01*
X60355152Y-38200000D01*
X60355148Y-38200000D01*
X60133463Y-38244096D01*
X59882071Y-38412071D01*
X59839671Y-38475527D01*
X56094927Y-42220272D01*
X55953463Y-42248411D01*
X55702071Y-42416386D01*
X55534096Y-42667778D01*
X55505686Y-42810603D01*
X55372569Y-42943720D01*
X55215000Y-43324126D01*
X55215000Y-43735874D01*
X55372569Y-44116280D01*
X55663720Y-44407431D01*
X55687795Y-44417403D01*
X52917800Y-47187398D01*
X52935000Y-47145874D01*
X52935000Y-46734126D01*
X52777431Y-46353720D01*
X52486280Y-46062569D01*
X52105874Y-45905000D01*
X51694126Y-45905000D01*
X51313720Y-46062569D01*
X51196289Y-46180000D01*
X49234848Y-46180000D01*
X49160000Y-46165112D01*
X49085152Y-46180000D01*
X49085148Y-46180000D01*
X48916914Y-46213464D01*
X48863462Y-46224096D01*
X48714365Y-46323720D01*
X48612071Y-46392071D01*
X48569671Y-46455527D01*
X42606408Y-52418791D01*
X42386256Y-52375000D01*
X42093744Y-52375000D01*
X41660582Y-52461161D01*
X41169375Y-52789375D01*
X40970000Y-53087761D01*
X40770625Y-52789375D01*
X40279418Y-52461161D01*
X39846256Y-52375000D01*
X39553744Y-52375000D01*
X39120582Y-52461161D01*
X38629375Y-52789375D01*
X38301161Y-53280582D01*
X38185908Y-53860000D01*
X27027634Y-53860000D01*
X27496794Y-52150904D01*
X28274496Y-49898679D01*
X29195919Y-47701336D01*
X30257220Y-45568035D01*
X31453977Y-43507668D01*
X32781198Y-41528825D01*
X34233353Y-39639756D01*
X35804387Y-37848335D01*
X37487751Y-36162031D01*
X39276427Y-34587873D01*
X41162959Y-33132423D01*
X43139482Y-31801750D01*
X45197757Y-30601399D01*
X47329203Y-29536376D01*
X49524934Y-28611120D01*
X51775798Y-27829488D01*
X54072411Y-27194739D01*
X56405198Y-26709518D01*
X58764436Y-26375849D01*
X61140288Y-26195123D01*
X63522851Y-26168093D01*
X65902192Y-26294871D01*
G36*
X94067000Y-66393000D02*
X94087000Y-66393000D01*
X94087000Y-66647000D01*
X94067000Y-66647000D01*
X94067000Y-66667000D01*
X93813000Y-66667000D01*
X93813000Y-66647000D01*
X93793000Y-66647000D01*
X93793000Y-66393000D01*
X93813000Y-66393000D01*
X93813000Y-66373000D01*
X94067000Y-66373000D01*
X94067000Y-66393000D01*
X94067000Y-66393000D01*
G37*
X94067000Y-66393000D02*
X94087000Y-66393000D01*
X94087000Y-66647000D01*
X94067000Y-66647000D01*
X94067000Y-66667000D01*
X93813000Y-66667000D01*
X93813000Y-66647000D01*
X93793000Y-66647000D01*
X93793000Y-66393000D01*
X93813000Y-66393000D01*
X93813000Y-66373000D01*
X94067000Y-66373000D01*
X94067000Y-66393000D01*
G04 #@! TD*
M02*
