M48
;DRILL file {KiCad 5.0.2-bee76a0~70~ubuntu18.10.1} date Wed 29 May 2019 11:20:22 AEST
;FORMAT={-:-/ absolute / inch / decimal}
FMAT,2
INCH,TZ
T1C0.0157
T2C0.0394
T3C0.0433
T4C0.0512
%
G90
G05
T1
X2.252Y-3.5709
X2.252Y-3.6417
X2.2953Y-3.5315
X2.2953Y-3.6024
X2.2953Y-3.6732
X2.3425Y-3.5669
X2.3425Y-3.6457
X6.3327Y-3.5945
X6.3335Y-3.7079
X6.3386Y-3.9673
X6.4626Y-3.6756
X6.5512Y-3.8677
X6.5691Y-3.9038
X6.6623Y-4.0831
X6.6835Y-3.5313
X6.7361Y-4.0831
X6.7807Y-3.6213
X6.7917Y-4.1894
X6.8248Y-4.3886
X6.8563Y-4.2555
X6.8689Y-4.3902
X6.8961Y-3.8313
X6.9961Y-4.2169
X7.0167Y-3.8071
X7.0295Y-4.2555
X7.2039Y-4.1826
X7.2039Y-4.2354
X7.2598Y-4.185
X7.2598Y-4.2362
X7.289Y-3.8451
X7.389Y-3.7917
X7.389Y-3.8451
X7.389Y-3.8451
X7.3894Y-3.8941
T2
X6.0787Y-4.2697
X6.0787Y-4.3697
X6.1787Y-4.2697
X6.1787Y-4.3697
X6.2787Y-4.2697
X6.2787Y-4.3697
X6.3787Y-4.2697
X6.3787Y-4.3697
X6.4787Y-4.2697
X6.4787Y-4.3697
T3
X5.8701Y-3.1063
X5.8701Y-3.2835
X6.126Y-3.1063
X6.126Y-3.2835
X6.5472Y-3.0394
X6.5472Y-3.2953
X6.7244Y-3.0394
X6.7244Y-3.2953
T4
X8.3197Y-3.3965
X8.3157Y-3.8354
T0
M30
