G04 #@! TF.GenerationSoftware,KiCad,Pcbnew,5.0.2-bee76a0~70~ubuntu18.10.1*
G04 #@! TF.CreationDate,2019-05-29T11:20:30+10:00*
G04 #@! TF.ProjectId,ecig,65636967-2e6b-4696-9361-645f70636258,rev?*
G04 #@! TF.SameCoordinates,Original*
G04 #@! TF.FileFunction,Legend,Top*
G04 #@! TF.FilePolarity,Positive*
%FSLAX46Y46*%
G04 Gerber Fmt 4.6, Leading zero omitted, Abs format (unit mm)*
G04 Created by KiCad (PCBNEW 5.0.2-bee76a0~70~ubuntu18.10.1) date Wed 29 May 2019 11:20:30 AEST*
%MOMM*%
%LPD*%
G01*
G04 APERTURE LIST*
%ADD10C,0.200000*%
%ADD11C,0.250000*%
%ADD12C,0.300000*%
%ADD13C,0.500000*%
%ADD14C,0.010000*%
%ADD15C,0.120000*%
%ADD16C,0.150000*%
G04 APERTURE END LIST*
D10*
X172820384Y-104310000D02*
G75*
G03X172820384Y-104310000I-130384J0D01*
G01*
X183848114Y-99900000D02*
G75*
G03X183848114Y-99900000I-158114J0D01*
G01*
X168250000Y-88680000D02*
G75*
G03X168250000Y-88680000I-170000J0D01*
G01*
X154330000Y-92820000D02*
G75*
G03X154330000Y-92820000I-60000J0D01*
G01*
X177710000Y-93160000D02*
X177340000Y-92810000D01*
X178140000Y-92150000D02*
X178370000Y-92150000D01*
X177000000Y-92830000D02*
X177000000Y-92550000D01*
X178370000Y-92150000D02*
X177920000Y-92150000D01*
X177690000Y-92480000D02*
X177710000Y-93160000D01*
X177340000Y-92810000D02*
X177660000Y-92530000D01*
X177000000Y-92550000D02*
X177010000Y-93130000D01*
X178150000Y-92390000D02*
X178140000Y-92150000D01*
X178060000Y-92830000D02*
X176680000Y-92810000D01*
X178150000Y-91950000D02*
X178150000Y-92390000D01*
X176680000Y-92810000D02*
X177000000Y-92830000D01*
X179780000Y-90860000D02*
X181160000Y-90880000D01*
X181160000Y-90880000D02*
X180840000Y-90860000D01*
X180840000Y-90860000D02*
X180840000Y-91140000D01*
X180500000Y-90880000D02*
X180180000Y-91160000D01*
X180150000Y-91210000D02*
X180130000Y-90530000D01*
X180130000Y-90530000D02*
X180500000Y-90880000D01*
X180840000Y-91140000D02*
X180830000Y-90560000D01*
X179700000Y-91540000D02*
X179470000Y-91540000D01*
X179470000Y-91540000D02*
X179920000Y-91540000D01*
X179690000Y-91740000D02*
X179690000Y-91300000D01*
X179690000Y-91300000D02*
X179700000Y-91540000D01*
X161590000Y-89020000D02*
X161590000Y-89470000D01*
X161590000Y-89250000D02*
X161590000Y-89020000D01*
X161830000Y-89240000D02*
X161590000Y-89250000D01*
X161390000Y-89240000D02*
X161830000Y-89240000D01*
X162250000Y-90050000D02*
X161970000Y-89730000D01*
X162600000Y-89680000D02*
X162250000Y-90050000D01*
X161920000Y-89700000D02*
X162600000Y-89680000D01*
X161990000Y-90390000D02*
X162570000Y-90380000D01*
X162270000Y-90390000D02*
X161990000Y-90390000D01*
X162250000Y-90710000D02*
X162270000Y-90390000D01*
X162270000Y-89330000D02*
X162250000Y-90710000D01*
D11*
X144595238Y-73102380D02*
X144595238Y-72102380D01*
X144833333Y-72102380D01*
X144976190Y-72150000D01*
X145071428Y-72245238D01*
X145119047Y-72340476D01*
X145166666Y-72530952D01*
X145166666Y-72673809D01*
X145119047Y-72864285D01*
X145071428Y-72959523D01*
X144976190Y-73054761D01*
X144833333Y-73102380D01*
X144595238Y-73102380D01*
X145738095Y-73102380D02*
X145642857Y-73054761D01*
X145595238Y-73007142D01*
X145547619Y-72911904D01*
X145547619Y-72626190D01*
X145595238Y-72530952D01*
X145642857Y-72483333D01*
X145738095Y-72435714D01*
X145880952Y-72435714D01*
X145976190Y-72483333D01*
X146023809Y-72530952D01*
X146071428Y-72626190D01*
X146071428Y-72911904D01*
X146023809Y-73007142D01*
X145976190Y-73054761D01*
X145880952Y-73102380D01*
X145738095Y-73102380D01*
X147261904Y-72435714D02*
X147261904Y-73102380D01*
X147261904Y-72530952D02*
X147309523Y-72483333D01*
X147404761Y-72435714D01*
X147547619Y-72435714D01*
X147642857Y-72483333D01*
X147690476Y-72578571D01*
X147690476Y-73102380D01*
X148309523Y-73102380D02*
X148214285Y-73054761D01*
X148166666Y-73007142D01*
X148119047Y-72911904D01*
X148119047Y-72626190D01*
X148166666Y-72530952D01*
X148214285Y-72483333D01*
X148309523Y-72435714D01*
X148452380Y-72435714D01*
X148547619Y-72483333D01*
X148595238Y-72530952D01*
X148642857Y-72626190D01*
X148642857Y-72911904D01*
X148595238Y-73007142D01*
X148547619Y-73054761D01*
X148452380Y-73102380D01*
X148309523Y-73102380D01*
X148928571Y-72435714D02*
X149309523Y-72435714D01*
X149071428Y-72102380D02*
X149071428Y-72959523D01*
X149119047Y-73054761D01*
X149214285Y-73102380D01*
X149309523Y-73102380D01*
X150404761Y-72435714D02*
X150404761Y-73435714D01*
X150404761Y-72483333D02*
X150500000Y-72435714D01*
X150690476Y-72435714D01*
X150785714Y-72483333D01*
X150833333Y-72530952D01*
X150880952Y-72626190D01*
X150880952Y-72911904D01*
X150833333Y-73007142D01*
X150785714Y-73054761D01*
X150690476Y-73102380D01*
X150500000Y-73102380D01*
X150404761Y-73054761D01*
X151309523Y-73102380D02*
X151309523Y-72435714D01*
X151309523Y-72626190D02*
X151357142Y-72530952D01*
X151404761Y-72483333D01*
X151500000Y-72435714D01*
X151595238Y-72435714D01*
X152309523Y-73054761D02*
X152214285Y-73102380D01*
X152023809Y-73102380D01*
X151928571Y-73054761D01*
X151880952Y-72959523D01*
X151880952Y-72578571D01*
X151928571Y-72483333D01*
X152023809Y-72435714D01*
X152214285Y-72435714D01*
X152309523Y-72483333D01*
X152357142Y-72578571D01*
X152357142Y-72673809D01*
X151880952Y-72769047D01*
X152738095Y-73054761D02*
X152833333Y-73102380D01*
X153023809Y-73102380D01*
X153119047Y-73054761D01*
X153166666Y-72959523D01*
X153166666Y-72911904D01*
X153119047Y-72816666D01*
X153023809Y-72769047D01*
X152880952Y-72769047D01*
X152785714Y-72721428D01*
X152738095Y-72626190D01*
X152738095Y-72578571D01*
X152785714Y-72483333D01*
X152880952Y-72435714D01*
X153023809Y-72435714D01*
X153119047Y-72483333D01*
X153547619Y-73054761D02*
X153642857Y-73102380D01*
X153833333Y-73102380D01*
X153928571Y-73054761D01*
X153976190Y-72959523D01*
X153976190Y-72911904D01*
X153928571Y-72816666D01*
X153833333Y-72769047D01*
X153690476Y-72769047D01*
X153595238Y-72721428D01*
X153547619Y-72626190D01*
X153547619Y-72578571D01*
X153595238Y-72483333D01*
X153690476Y-72435714D01*
X153833333Y-72435714D01*
X153928571Y-72483333D01*
X154404761Y-73007142D02*
X154452380Y-73054761D01*
X154404761Y-73102380D01*
X154357142Y-73054761D01*
X154404761Y-73007142D01*
X154404761Y-73102380D01*
X154404761Y-72721428D02*
X154357142Y-72150000D01*
X154404761Y-72102380D01*
X154452380Y-72150000D01*
X154404761Y-72721428D01*
X154404761Y-72102380D01*
X146285714Y-73852380D02*
X146476190Y-73852380D01*
X146571428Y-73900000D01*
X146666666Y-73995238D01*
X146714285Y-74185714D01*
X146714285Y-74519047D01*
X146666666Y-74709523D01*
X146571428Y-74804761D01*
X146476190Y-74852380D01*
X146285714Y-74852380D01*
X146190476Y-74804761D01*
X146095238Y-74709523D01*
X146047619Y-74519047D01*
X146047619Y-74185714D01*
X146095238Y-73995238D01*
X146190476Y-73900000D01*
X146285714Y-73852380D01*
X147142857Y-74852380D02*
X147142857Y-74185714D01*
X147142857Y-74376190D02*
X147190476Y-74280952D01*
X147238095Y-74233333D01*
X147333333Y-74185714D01*
X147428571Y-74185714D01*
X148523809Y-74185714D02*
X148523809Y-75185714D01*
X148523809Y-74233333D02*
X148619047Y-74185714D01*
X148809523Y-74185714D01*
X148904761Y-74233333D01*
X148952380Y-74280952D01*
X149000000Y-74376190D01*
X149000000Y-74661904D01*
X148952380Y-74757142D01*
X148904761Y-74804761D01*
X148809523Y-74852380D01*
X148619047Y-74852380D01*
X148523809Y-74804761D01*
X149428571Y-74852380D02*
X149428571Y-74185714D01*
X149428571Y-74376190D02*
X149476190Y-74280952D01*
X149523809Y-74233333D01*
X149619047Y-74185714D01*
X149714285Y-74185714D01*
X150428571Y-74804761D02*
X150333333Y-74852380D01*
X150142857Y-74852380D01*
X150047619Y-74804761D01*
X150000000Y-74709523D01*
X150000000Y-74328571D01*
X150047619Y-74233333D01*
X150142857Y-74185714D01*
X150333333Y-74185714D01*
X150428571Y-74233333D01*
X150476190Y-74328571D01*
X150476190Y-74423809D01*
X150000000Y-74519047D01*
X150857142Y-74804761D02*
X150952380Y-74852380D01*
X151142857Y-74852380D01*
X151238095Y-74804761D01*
X151285714Y-74709523D01*
X151285714Y-74661904D01*
X151238095Y-74566666D01*
X151142857Y-74519047D01*
X151000000Y-74519047D01*
X150904761Y-74471428D01*
X150857142Y-74376190D01*
X150857142Y-74328571D01*
X150904761Y-74233333D01*
X151000000Y-74185714D01*
X151142857Y-74185714D01*
X151238095Y-74233333D01*
X151666666Y-74804761D02*
X151761904Y-74852380D01*
X151952380Y-74852380D01*
X152047619Y-74804761D01*
X152095238Y-74709523D01*
X152095238Y-74661904D01*
X152047619Y-74566666D01*
X151952380Y-74519047D01*
X151809523Y-74519047D01*
X151714285Y-74471428D01*
X151666666Y-74376190D01*
X151666666Y-74328571D01*
X151714285Y-74233333D01*
X151809523Y-74185714D01*
X151952380Y-74185714D01*
X152047619Y-74233333D01*
X152666666Y-74757142D02*
X152714285Y-74804761D01*
X152666666Y-74852380D01*
X152619047Y-74804761D01*
X152666666Y-74757142D01*
X152666666Y-74852380D01*
X152476190Y-73900000D02*
X152571428Y-73852380D01*
X152809523Y-73852380D01*
X152904761Y-73900000D01*
X152952380Y-73995238D01*
X152952380Y-74090476D01*
X152904761Y-74185714D01*
X152857142Y-74233333D01*
X152761904Y-74280952D01*
X152714285Y-74328571D01*
X152666666Y-74423809D01*
X152666666Y-74471428D01*
X139071428Y-76602380D02*
X139071428Y-75602380D01*
X139595238Y-75602380D02*
X139500000Y-75792857D01*
X140023809Y-76602380D02*
X140023809Y-75935714D01*
X140023809Y-76030952D02*
X140071428Y-75983333D01*
X140166666Y-75935714D01*
X140309523Y-75935714D01*
X140404761Y-75983333D01*
X140452380Y-76078571D01*
X140452380Y-76602380D01*
X140452380Y-76078571D02*
X140500000Y-75983333D01*
X140595238Y-75935714D01*
X140738095Y-75935714D01*
X140833333Y-75983333D01*
X140880952Y-76078571D01*
X140880952Y-76602380D01*
X142547619Y-76602380D02*
X142547619Y-76078571D01*
X142500000Y-75983333D01*
X142404761Y-75935714D01*
X142214285Y-75935714D01*
X142119047Y-75983333D01*
X142547619Y-76554761D02*
X142452380Y-76602380D01*
X142214285Y-76602380D01*
X142119047Y-76554761D01*
X142071428Y-76459523D01*
X142071428Y-76364285D01*
X142119047Y-76269047D01*
X142214285Y-76221428D01*
X142452380Y-76221428D01*
X142547619Y-76173809D01*
X143785714Y-76602380D02*
X143785714Y-75602380D01*
X143785714Y-75983333D02*
X143880952Y-75935714D01*
X144071428Y-75935714D01*
X144166666Y-75983333D01*
X144214285Y-76030952D01*
X144261904Y-76126190D01*
X144261904Y-76411904D01*
X144214285Y-76507142D01*
X144166666Y-76554761D01*
X144071428Y-76602380D01*
X143880952Y-76602380D01*
X143785714Y-76554761D01*
X145119047Y-76602380D02*
X145119047Y-76078571D01*
X145071428Y-75983333D01*
X144976190Y-75935714D01*
X144785714Y-75935714D01*
X144690476Y-75983333D01*
X145119047Y-76554761D02*
X145023809Y-76602380D01*
X144785714Y-76602380D01*
X144690476Y-76554761D01*
X144642857Y-76459523D01*
X144642857Y-76364285D01*
X144690476Y-76269047D01*
X144785714Y-76221428D01*
X145023809Y-76221428D01*
X145119047Y-76173809D01*
X146023809Y-76602380D02*
X146023809Y-75602380D01*
X146023809Y-76554761D02*
X145928571Y-76602380D01*
X145738095Y-76602380D01*
X145642857Y-76554761D01*
X145595238Y-76507142D01*
X145547619Y-76411904D01*
X145547619Y-76126190D01*
X145595238Y-76030952D01*
X145642857Y-75983333D01*
X145738095Y-75935714D01*
X145928571Y-75935714D01*
X146023809Y-75983333D01*
X146928571Y-75935714D02*
X146928571Y-76745238D01*
X146880952Y-76840476D01*
X146833333Y-76888095D01*
X146738095Y-76935714D01*
X146595238Y-76935714D01*
X146500000Y-76888095D01*
X146928571Y-76554761D02*
X146833333Y-76602380D01*
X146642857Y-76602380D01*
X146547619Y-76554761D01*
X146500000Y-76507142D01*
X146452380Y-76411904D01*
X146452380Y-76126190D01*
X146500000Y-76030952D01*
X146547619Y-75983333D01*
X146642857Y-75935714D01*
X146833333Y-75935714D01*
X146928571Y-75983333D01*
X147785714Y-76554761D02*
X147690476Y-76602380D01*
X147500000Y-76602380D01*
X147404761Y-76554761D01*
X147357142Y-76459523D01*
X147357142Y-76078571D01*
X147404761Y-75983333D01*
X147500000Y-75935714D01*
X147690476Y-75935714D01*
X147785714Y-75983333D01*
X147833333Y-76078571D01*
X147833333Y-76173809D01*
X147357142Y-76269047D01*
X149023809Y-76602380D02*
X149023809Y-75935714D01*
X149023809Y-76030952D02*
X149071428Y-75983333D01*
X149166666Y-75935714D01*
X149309523Y-75935714D01*
X149404761Y-75983333D01*
X149452380Y-76078571D01*
X149452380Y-76602380D01*
X149452380Y-76078571D02*
X149500000Y-75983333D01*
X149595238Y-75935714D01*
X149738095Y-75935714D01*
X149833333Y-75983333D01*
X149880952Y-76078571D01*
X149880952Y-76602380D01*
X150500000Y-76602380D02*
X150404761Y-76554761D01*
X150357142Y-76507142D01*
X150309523Y-76411904D01*
X150309523Y-76126190D01*
X150357142Y-76030952D01*
X150404761Y-75983333D01*
X150500000Y-75935714D01*
X150642857Y-75935714D01*
X150738095Y-75983333D01*
X150785714Y-76030952D01*
X150833333Y-76126190D01*
X150833333Y-76411904D01*
X150785714Y-76507142D01*
X150738095Y-76554761D01*
X150642857Y-76602380D01*
X150500000Y-76602380D01*
X151690476Y-76602380D02*
X151690476Y-75602380D01*
X151690476Y-76554761D02*
X151595238Y-76602380D01*
X151404761Y-76602380D01*
X151309523Y-76554761D01*
X151261904Y-76507142D01*
X151214285Y-76411904D01*
X151214285Y-76126190D01*
X151261904Y-76030952D01*
X151309523Y-75983333D01*
X151404761Y-75935714D01*
X151595238Y-75935714D01*
X151690476Y-75983333D01*
X152928571Y-75935714D02*
X152928571Y-76602380D01*
X152928571Y-76030952D02*
X152976190Y-75983333D01*
X153071428Y-75935714D01*
X153214285Y-75935714D01*
X153309523Y-75983333D01*
X153357142Y-76078571D01*
X153357142Y-76602380D01*
X153976190Y-76602380D02*
X153880952Y-76554761D01*
X153833333Y-76507142D01*
X153785714Y-76411904D01*
X153785714Y-76126190D01*
X153833333Y-76030952D01*
X153880952Y-75983333D01*
X153976190Y-75935714D01*
X154119047Y-75935714D01*
X154214285Y-75983333D01*
X154261904Y-76030952D01*
X154309523Y-76126190D01*
X154309523Y-76411904D01*
X154261904Y-76507142D01*
X154214285Y-76554761D01*
X154119047Y-76602380D01*
X153976190Y-76602380D01*
X154595238Y-75935714D02*
X154976190Y-75935714D01*
X154738095Y-75602380D02*
X154738095Y-76459523D01*
X154785714Y-76554761D01*
X154880952Y-76602380D01*
X154976190Y-76602380D01*
X156500000Y-76602380D02*
X156500000Y-76078571D01*
X156452380Y-75983333D01*
X156357142Y-75935714D01*
X156166666Y-75935714D01*
X156071428Y-75983333D01*
X156500000Y-76554761D02*
X156404761Y-76602380D01*
X156166666Y-76602380D01*
X156071428Y-76554761D01*
X156023809Y-76459523D01*
X156023809Y-76364285D01*
X156071428Y-76269047D01*
X156166666Y-76221428D01*
X156404761Y-76221428D01*
X156500000Y-76173809D01*
X158166666Y-76554761D02*
X158071428Y-76602380D01*
X157880952Y-76602380D01*
X157785714Y-76554761D01*
X157738095Y-76507142D01*
X157690476Y-76411904D01*
X157690476Y-76126190D01*
X157738095Y-76030952D01*
X157785714Y-75983333D01*
X157880952Y-75935714D01*
X158071428Y-75935714D01*
X158166666Y-75983333D01*
X158738095Y-76602380D02*
X158642857Y-76554761D01*
X158595238Y-76507142D01*
X158547619Y-76411904D01*
X158547619Y-76126190D01*
X158595238Y-76030952D01*
X158642857Y-75983333D01*
X158738095Y-75935714D01*
X158880952Y-75935714D01*
X158976190Y-75983333D01*
X159023809Y-76030952D01*
X159071428Y-76126190D01*
X159071428Y-76411904D01*
X159023809Y-76507142D01*
X158976190Y-76554761D01*
X158880952Y-76602380D01*
X158738095Y-76602380D01*
X159500000Y-75935714D02*
X159500000Y-76935714D01*
X159500000Y-75983333D02*
X159595238Y-75935714D01*
X159785714Y-75935714D01*
X159880952Y-75983333D01*
X159928571Y-76030952D01*
X159976190Y-76126190D01*
X159976190Y-76411904D01*
X159928571Y-76507142D01*
X159880952Y-76554761D01*
X159785714Y-76602380D01*
X159595238Y-76602380D01*
X159500000Y-76554761D01*
D12*
X163654285Y-74222857D02*
X163154285Y-74222857D01*
X163154285Y-75008571D02*
X163154285Y-73508571D01*
X163868571Y-73508571D01*
X164440000Y-75008571D02*
X164440000Y-74008571D01*
X164440000Y-73508571D02*
X164368571Y-73580000D01*
X164440000Y-73651428D01*
X164511428Y-73580000D01*
X164440000Y-73508571D01*
X164440000Y-73651428D01*
X165154285Y-75008571D02*
X165154285Y-74008571D01*
X165154285Y-74294285D02*
X165225714Y-74151428D01*
X165297142Y-74080000D01*
X165440000Y-74008571D01*
X165582857Y-74008571D01*
X166654285Y-74937142D02*
X166511428Y-75008571D01*
X166225714Y-75008571D01*
X166082857Y-74937142D01*
X166011428Y-74794285D01*
X166011428Y-74222857D01*
X166082857Y-74080000D01*
X166225714Y-74008571D01*
X166511428Y-74008571D01*
X166654285Y-74080000D01*
X166725714Y-74222857D01*
X166725714Y-74365714D01*
X166011428Y-74508571D01*
X168940000Y-75580000D02*
X168868571Y-75508571D01*
X168725714Y-75294285D01*
X168654285Y-75151428D01*
X168582857Y-74937142D01*
X168511428Y-74580000D01*
X168511428Y-74294285D01*
X168582857Y-73937142D01*
X168654285Y-73722857D01*
X168725714Y-73580000D01*
X168868571Y-73365714D01*
X168940000Y-73294285D01*
X169511428Y-75008571D02*
X169511428Y-73508571D01*
X170082857Y-73508571D01*
X170225714Y-73580000D01*
X170297142Y-73651428D01*
X170368571Y-73794285D01*
X170368571Y-74008571D01*
X170297142Y-74151428D01*
X170225714Y-74222857D01*
X170082857Y-74294285D01*
X169511428Y-74294285D01*
X170868571Y-73508571D02*
X171225714Y-75008571D01*
X171511428Y-73937142D01*
X171797142Y-75008571D01*
X172154285Y-73508571D01*
X172725714Y-75008571D02*
X172725714Y-73508571D01*
X173225714Y-74580000D01*
X173725714Y-73508571D01*
X173725714Y-75008571D01*
X174297142Y-75580000D02*
X174368571Y-75508571D01*
X174511428Y-75294285D01*
X174582857Y-75151428D01*
X174654285Y-74937142D01*
X174725714Y-74580000D01*
X174725714Y-74294285D01*
X174654285Y-73937142D01*
X174582857Y-73722857D01*
X174511428Y-73580000D01*
X174368571Y-73365714D01*
X174297142Y-73294285D01*
D13*
X65523809Y-78604761D02*
X65333333Y-78509523D01*
X65238095Y-78414285D01*
X65142857Y-78223809D01*
X65142857Y-77652380D01*
X65238095Y-77461904D01*
X65333333Y-77366666D01*
X65523809Y-77271428D01*
X65809523Y-77271428D01*
X66000000Y-77366666D01*
X66095238Y-77461904D01*
X66190476Y-77652380D01*
X66190476Y-78223809D01*
X66095238Y-78414285D01*
X66000000Y-78509523D01*
X65809523Y-78604761D01*
X65523809Y-78604761D01*
X66857142Y-77271428D02*
X67904761Y-77271428D01*
X66857142Y-78604761D01*
X67904761Y-78604761D01*
X68571428Y-78509523D02*
X68761904Y-78604761D01*
X69142857Y-78604761D01*
X69333333Y-78509523D01*
X69428571Y-78319047D01*
X69428571Y-78223809D01*
X69333333Y-78033333D01*
X69142857Y-77938095D01*
X68857142Y-77938095D01*
X68666666Y-77842857D01*
X68571428Y-77652380D01*
X68571428Y-77557142D01*
X68666666Y-77366666D01*
X68857142Y-77271428D01*
X69142857Y-77271428D01*
X69333333Y-77366666D01*
X71047619Y-78509523D02*
X70857142Y-78604761D01*
X70476190Y-78604761D01*
X70285714Y-78509523D01*
X70190476Y-78319047D01*
X70190476Y-77557142D01*
X70285714Y-77366666D01*
X70476190Y-77271428D01*
X70857142Y-77271428D01*
X71047619Y-77366666D01*
X71142857Y-77557142D01*
X71142857Y-77747619D01*
X70190476Y-77938095D01*
X72857142Y-78509523D02*
X72666666Y-78604761D01*
X72285714Y-78604761D01*
X72095238Y-78509523D01*
X72000000Y-78414285D01*
X71904761Y-78223809D01*
X71904761Y-77652380D01*
X72000000Y-77461904D01*
X72095238Y-77366666D01*
X72285714Y-77271428D01*
X72666666Y-77271428D01*
X72857142Y-77366666D01*
X73523809Y-77271428D02*
X74000000Y-78604761D01*
X74476190Y-77271428D01*
X76095238Y-78604761D02*
X76095238Y-77557142D01*
X76000000Y-77366666D01*
X75809523Y-77271428D01*
X75428571Y-77271428D01*
X75238095Y-77366666D01*
X76095238Y-78509523D02*
X75904761Y-78604761D01*
X75428571Y-78604761D01*
X75238095Y-78509523D01*
X75142857Y-78319047D01*
X75142857Y-78128571D01*
X75238095Y-77938095D01*
X75428571Y-77842857D01*
X75904761Y-77842857D01*
X76095238Y-77747619D01*
X77047619Y-77271428D02*
X77047619Y-79271428D01*
X77047619Y-77366666D02*
X77238095Y-77271428D01*
X77619047Y-77271428D01*
X77809523Y-77366666D01*
X77904761Y-77461904D01*
X78000000Y-77652380D01*
X78000000Y-78223809D01*
X77904761Y-78414285D01*
X77809523Y-78509523D01*
X77619047Y-78604761D01*
X77238095Y-78604761D01*
X77047619Y-78509523D01*
X79619047Y-78509523D02*
X79428571Y-78604761D01*
X79047619Y-78604761D01*
X78857142Y-78509523D01*
X78761904Y-78319047D01*
X78761904Y-77557142D01*
X78857142Y-77366666D01*
X79047619Y-77271428D01*
X79428571Y-77271428D01*
X79619047Y-77366666D01*
X79714285Y-77557142D01*
X79714285Y-77747619D01*
X78761904Y-77938095D01*
X82000000Y-76795238D02*
X82095238Y-76700000D01*
X82285714Y-76604761D01*
X82761904Y-76604761D01*
X82952380Y-76700000D01*
X83047619Y-76795238D01*
X83142857Y-76985714D01*
X83142857Y-77176190D01*
X83047619Y-77461904D01*
X81904761Y-78604761D01*
X83142857Y-78604761D01*
X84380952Y-76604761D02*
X84571428Y-76604761D01*
X84761904Y-76700000D01*
X84857142Y-76795238D01*
X84952380Y-76985714D01*
X85047619Y-77366666D01*
X85047619Y-77842857D01*
X84952380Y-78223809D01*
X84857142Y-78414285D01*
X84761904Y-78509523D01*
X84571428Y-78604761D01*
X84380952Y-78604761D01*
X84190476Y-78509523D01*
X84095238Y-78414285D01*
X84000000Y-78223809D01*
X83904761Y-77842857D01*
X83904761Y-77366666D01*
X84000000Y-76985714D01*
X84095238Y-76795238D01*
X84190476Y-76700000D01*
X84380952Y-76604761D01*
X86952380Y-78604761D02*
X85809523Y-78604761D01*
X86380952Y-78604761D02*
X86380952Y-76604761D01*
X86190476Y-76890476D01*
X86000000Y-77080952D01*
X85809523Y-77176190D01*
X87904761Y-78604761D02*
X88285714Y-78604761D01*
X88476190Y-78509523D01*
X88571428Y-78414285D01*
X88761904Y-78128571D01*
X88857142Y-77747619D01*
X88857142Y-76985714D01*
X88761904Y-76795238D01*
X88666666Y-76700000D01*
X88476190Y-76604761D01*
X88095238Y-76604761D01*
X87904761Y-76700000D01*
X87809523Y-76795238D01*
X87714285Y-76985714D01*
X87714285Y-77461904D01*
X87809523Y-77652380D01*
X87904761Y-77747619D01*
X88095238Y-77842857D01*
X88476190Y-77842857D01*
X88666666Y-77747619D01*
X88761904Y-77652380D01*
X88857142Y-77461904D01*
D12*
X114371428Y-106403571D02*
X114371428Y-107403571D01*
X114371428Y-106546428D02*
X114442857Y-106475000D01*
X114585714Y-106403571D01*
X114800000Y-106403571D01*
X114942857Y-106475000D01*
X115014285Y-106617857D01*
X115014285Y-107403571D01*
X115942857Y-107403571D02*
X115800000Y-107332142D01*
X115728571Y-107260714D01*
X115657142Y-107117857D01*
X115657142Y-106689285D01*
X115728571Y-106546428D01*
X115800000Y-106475000D01*
X115942857Y-106403571D01*
X116157142Y-106403571D01*
X116300000Y-106475000D01*
X116371428Y-106546428D01*
X116442857Y-106689285D01*
X116442857Y-107117857D01*
X116371428Y-107260714D01*
X116300000Y-107332142D01*
X116157142Y-107403571D01*
X115942857Y-107403571D01*
X117157142Y-107332142D02*
X117157142Y-107403571D01*
X117085714Y-107546428D01*
X117014285Y-107617857D01*
X118871428Y-107332142D02*
X119014285Y-107403571D01*
X119300000Y-107403571D01*
X119442857Y-107332142D01*
X119514285Y-107189285D01*
X119514285Y-107117857D01*
X119442857Y-106975000D01*
X119300000Y-106903571D01*
X119085714Y-106903571D01*
X118942857Y-106832142D01*
X118871428Y-106689285D01*
X118871428Y-106617857D01*
X118942857Y-106475000D01*
X119085714Y-106403571D01*
X119300000Y-106403571D01*
X119442857Y-106475000D01*
X120728571Y-107332142D02*
X120585714Y-107403571D01*
X120300000Y-107403571D01*
X120157142Y-107332142D01*
X120085714Y-107189285D01*
X120085714Y-106617857D01*
X120157142Y-106475000D01*
X120300000Y-106403571D01*
X120585714Y-106403571D01*
X120728571Y-106475000D01*
X120800000Y-106617857D01*
X120800000Y-106760714D01*
X120085714Y-106903571D01*
X121442857Y-107403571D02*
X121442857Y-106403571D01*
X121442857Y-106689285D02*
X121514285Y-106546428D01*
X121585714Y-106475000D01*
X121728571Y-106403571D01*
X121871428Y-106403571D01*
X122371428Y-107403571D02*
X122371428Y-106403571D01*
X122371428Y-105903571D02*
X122300000Y-105975000D01*
X122371428Y-106046428D01*
X122442857Y-105975000D01*
X122371428Y-105903571D01*
X122371428Y-106046428D01*
X123300000Y-107403571D02*
X123157142Y-107332142D01*
X123085714Y-107260714D01*
X123014285Y-107117857D01*
X123014285Y-106689285D01*
X123085714Y-106546428D01*
X123157142Y-106475000D01*
X123300000Y-106403571D01*
X123514285Y-106403571D01*
X123657142Y-106475000D01*
X123728571Y-106546428D01*
X123800000Y-106689285D01*
X123800000Y-107117857D01*
X123728571Y-107260714D01*
X123657142Y-107332142D01*
X123514285Y-107403571D01*
X123300000Y-107403571D01*
X125085714Y-106403571D02*
X125085714Y-107403571D01*
X124442857Y-106403571D02*
X124442857Y-107189285D01*
X124514285Y-107332142D01*
X124657142Y-107403571D01*
X124871428Y-107403571D01*
X125014285Y-107332142D01*
X125085714Y-107260714D01*
X125728571Y-107332142D02*
X125871428Y-107403571D01*
X126157142Y-107403571D01*
X126300000Y-107332142D01*
X126371428Y-107189285D01*
X126371428Y-107117857D01*
X126300000Y-106975000D01*
X126157142Y-106903571D01*
X125942857Y-106903571D01*
X125800000Y-106832142D01*
X125728571Y-106689285D01*
X125728571Y-106617857D01*
X125800000Y-106475000D01*
X125942857Y-106403571D01*
X126157142Y-106403571D01*
X126300000Y-106475000D01*
X127228571Y-107403571D02*
X127085714Y-107332142D01*
X127014285Y-107189285D01*
X127014285Y-105903571D01*
X127657142Y-106403571D02*
X128014285Y-107403571D01*
X128371428Y-106403571D02*
X128014285Y-107403571D01*
X127871428Y-107760714D01*
X127800000Y-107832142D01*
X127657142Y-107903571D01*
X129014285Y-107332142D02*
X129014285Y-107403571D01*
X128942857Y-107546428D01*
X128871428Y-107617857D01*
X130585714Y-106403571D02*
X131157142Y-106403571D01*
X130800000Y-105903571D02*
X130800000Y-107189285D01*
X130871428Y-107332142D01*
X131014285Y-107403571D01*
X131157142Y-107403571D01*
X131657142Y-107403571D02*
X131657142Y-105903571D01*
X132300000Y-107403571D02*
X132300000Y-106617857D01*
X132228571Y-106475000D01*
X132085714Y-106403571D01*
X131871428Y-106403571D01*
X131728571Y-106475000D01*
X131657142Y-106546428D01*
X133014285Y-107403571D02*
X133014285Y-106403571D01*
X133014285Y-105903571D02*
X132942857Y-105975000D01*
X133014285Y-106046428D01*
X133085714Y-105975000D01*
X133014285Y-105903571D01*
X133014285Y-106046428D01*
X133657142Y-107332142D02*
X133800000Y-107403571D01*
X134085714Y-107403571D01*
X134228571Y-107332142D01*
X134300000Y-107189285D01*
X134300000Y-107117857D01*
X134228571Y-106975000D01*
X134085714Y-106903571D01*
X133871428Y-106903571D01*
X133728571Y-106832142D01*
X133657142Y-106689285D01*
X133657142Y-106617857D01*
X133728571Y-106475000D01*
X133871428Y-106403571D01*
X134085714Y-106403571D01*
X134228571Y-106475000D01*
X110550000Y-108953571D02*
X110835714Y-109953571D01*
X111121428Y-109239285D01*
X111407142Y-109953571D01*
X111692857Y-108953571D01*
X112907142Y-109953571D02*
X112907142Y-109167857D01*
X112835714Y-109025000D01*
X112692857Y-108953571D01*
X112407142Y-108953571D01*
X112264285Y-109025000D01*
X112907142Y-109882142D02*
X112764285Y-109953571D01*
X112407142Y-109953571D01*
X112264285Y-109882142D01*
X112192857Y-109739285D01*
X112192857Y-109596428D01*
X112264285Y-109453571D01*
X112407142Y-109382142D01*
X112764285Y-109382142D01*
X112907142Y-109310714D01*
X113550000Y-109882142D02*
X113692857Y-109953571D01*
X113978571Y-109953571D01*
X114121428Y-109882142D01*
X114192857Y-109739285D01*
X114192857Y-109667857D01*
X114121428Y-109525000D01*
X113978571Y-109453571D01*
X113764285Y-109453571D01*
X113621428Y-109382142D01*
X113550000Y-109239285D01*
X113550000Y-109167857D01*
X113621428Y-109025000D01*
X113764285Y-108953571D01*
X113978571Y-108953571D01*
X114121428Y-109025000D01*
X116621428Y-109953571D02*
X116621428Y-109167857D01*
X116550000Y-109025000D01*
X116407142Y-108953571D01*
X116121428Y-108953571D01*
X115978571Y-109025000D01*
X116621428Y-109882142D02*
X116478571Y-109953571D01*
X116121428Y-109953571D01*
X115978571Y-109882142D01*
X115907142Y-109739285D01*
X115907142Y-109596428D01*
X115978571Y-109453571D01*
X116121428Y-109382142D01*
X116478571Y-109382142D01*
X116621428Y-109310714D01*
X118478571Y-109953571D02*
X118478571Y-108953571D01*
X118478571Y-109239285D02*
X118550000Y-109096428D01*
X118621428Y-109025000D01*
X118764285Y-108953571D01*
X118907142Y-108953571D01*
X119978571Y-109882142D02*
X119835714Y-109953571D01*
X119550000Y-109953571D01*
X119407142Y-109882142D01*
X119335714Y-109739285D01*
X119335714Y-109167857D01*
X119407142Y-109025000D01*
X119550000Y-108953571D01*
X119835714Y-108953571D01*
X119978571Y-109025000D01*
X120050000Y-109167857D01*
X120050000Y-109310714D01*
X119335714Y-109453571D01*
X121335714Y-109953571D02*
X121335714Y-109167857D01*
X121264285Y-109025000D01*
X121121428Y-108953571D01*
X120835714Y-108953571D01*
X120692857Y-109025000D01*
X121335714Y-109882142D02*
X121192857Y-109953571D01*
X120835714Y-109953571D01*
X120692857Y-109882142D01*
X120621428Y-109739285D01*
X120621428Y-109596428D01*
X120692857Y-109453571D01*
X120835714Y-109382142D01*
X121192857Y-109382142D01*
X121335714Y-109310714D01*
X122264285Y-109953571D02*
X122121428Y-109882142D01*
X122050000Y-109739285D01*
X122050000Y-108453571D01*
X123050000Y-109953571D02*
X122907142Y-109882142D01*
X122835714Y-109739285D01*
X122835714Y-108453571D01*
X123478571Y-108953571D02*
X123835714Y-109953571D01*
X124192857Y-108953571D02*
X123835714Y-109953571D01*
X123692857Y-110310714D01*
X123621428Y-110382142D01*
X123478571Y-110453571D01*
X125835714Y-109882142D02*
X125978571Y-109953571D01*
X126264285Y-109953571D01*
X126407142Y-109882142D01*
X126478571Y-109739285D01*
X126478571Y-109667857D01*
X126407142Y-109525000D01*
X126264285Y-109453571D01*
X126050000Y-109453571D01*
X125907142Y-109382142D01*
X125835714Y-109239285D01*
X125835714Y-109167857D01*
X125907142Y-109025000D01*
X126050000Y-108953571D01*
X126264285Y-108953571D01*
X126407142Y-109025000D01*
X126907142Y-108953571D02*
X127478571Y-108953571D01*
X127121428Y-108453571D02*
X127121428Y-109739285D01*
X127192857Y-109882142D01*
X127335714Y-109953571D01*
X127478571Y-109953571D01*
X128621428Y-108953571D02*
X128621428Y-109953571D01*
X127978571Y-108953571D02*
X127978571Y-109739285D01*
X128050000Y-109882142D01*
X128192857Y-109953571D01*
X128407142Y-109953571D01*
X128550000Y-109882142D01*
X128621428Y-109810714D01*
X129335714Y-108953571D02*
X129335714Y-110453571D01*
X129335714Y-109025000D02*
X129478571Y-108953571D01*
X129764285Y-108953571D01*
X129907142Y-109025000D01*
X129978571Y-109096428D01*
X130050000Y-109239285D01*
X130050000Y-109667857D01*
X129978571Y-109810714D01*
X129907142Y-109882142D01*
X129764285Y-109953571D01*
X129478571Y-109953571D01*
X129335714Y-109882142D01*
X130692857Y-109953571D02*
X130692857Y-108953571D01*
X130692857Y-108453571D02*
X130621428Y-108525000D01*
X130692857Y-108596428D01*
X130764285Y-108525000D01*
X130692857Y-108453571D01*
X130692857Y-108596428D01*
X132050000Y-109953571D02*
X132050000Y-108453571D01*
X132050000Y-109882142D02*
X131907142Y-109953571D01*
X131621428Y-109953571D01*
X131478571Y-109882142D01*
X131407142Y-109810714D01*
X131335714Y-109667857D01*
X131335714Y-109239285D01*
X131407142Y-109096428D01*
X131478571Y-109025000D01*
X131621428Y-108953571D01*
X131907142Y-108953571D01*
X132050000Y-109025000D01*
X133907142Y-109953571D02*
X133907142Y-108953571D01*
X133907142Y-108453571D02*
X133835714Y-108525000D01*
X133907142Y-108596428D01*
X133978571Y-108525000D01*
X133907142Y-108453571D01*
X133907142Y-108596428D01*
X135264285Y-109953571D02*
X135264285Y-108453571D01*
X135264285Y-109882142D02*
X135121428Y-109953571D01*
X134835714Y-109953571D01*
X134692857Y-109882142D01*
X134621428Y-109810714D01*
X134550000Y-109667857D01*
X134550000Y-109239285D01*
X134621428Y-109096428D01*
X134692857Y-109025000D01*
X134835714Y-108953571D01*
X135121428Y-108953571D01*
X135264285Y-109025000D01*
X136550000Y-109882142D02*
X136407142Y-109953571D01*
X136121428Y-109953571D01*
X135978571Y-109882142D01*
X135907142Y-109739285D01*
X135907142Y-109167857D01*
X135978571Y-109025000D01*
X136121428Y-108953571D01*
X136407142Y-108953571D01*
X136550000Y-109025000D01*
X136621428Y-109167857D01*
X136621428Y-109310714D01*
X135907142Y-109453571D01*
X137907142Y-109953571D02*
X137907142Y-109167857D01*
X137835714Y-109025000D01*
X137692857Y-108953571D01*
X137407142Y-108953571D01*
X137264285Y-109025000D01*
X137907142Y-109882142D02*
X137764285Y-109953571D01*
X137407142Y-109953571D01*
X137264285Y-109882142D01*
X137192857Y-109739285D01*
X137192857Y-109596428D01*
X137264285Y-109453571D01*
X137407142Y-109382142D01*
X137764285Y-109382142D01*
X137907142Y-109310714D01*
X65635714Y-107778571D02*
X65635714Y-109278571D01*
X65635714Y-107850000D02*
X65778571Y-107778571D01*
X66064285Y-107778571D01*
X66207142Y-107850000D01*
X66278571Y-107921428D01*
X66350000Y-108064285D01*
X66350000Y-108492857D01*
X66278571Y-108635714D01*
X66207142Y-108707142D01*
X66064285Y-108778571D01*
X65778571Y-108778571D01*
X65635714Y-108707142D01*
X67207142Y-108778571D02*
X67064285Y-108707142D01*
X66992857Y-108564285D01*
X66992857Y-107278571D01*
X68350000Y-108707142D02*
X68207142Y-108778571D01*
X67921428Y-108778571D01*
X67778571Y-108707142D01*
X67707142Y-108564285D01*
X67707142Y-107992857D01*
X67778571Y-107850000D01*
X67921428Y-107778571D01*
X68207142Y-107778571D01*
X68350000Y-107850000D01*
X68421428Y-107992857D01*
X68421428Y-108135714D01*
X67707142Y-108278571D01*
X69707142Y-108778571D02*
X69707142Y-107992857D01*
X69635714Y-107850000D01*
X69492857Y-107778571D01*
X69207142Y-107778571D01*
X69064285Y-107850000D01*
X69707142Y-108707142D02*
X69564285Y-108778571D01*
X69207142Y-108778571D01*
X69064285Y-108707142D01*
X68992857Y-108564285D01*
X68992857Y-108421428D01*
X69064285Y-108278571D01*
X69207142Y-108207142D01*
X69564285Y-108207142D01*
X69707142Y-108135714D01*
X70350000Y-108707142D02*
X70492857Y-108778571D01*
X70778571Y-108778571D01*
X70921428Y-108707142D01*
X70992857Y-108564285D01*
X70992857Y-108492857D01*
X70921428Y-108350000D01*
X70778571Y-108278571D01*
X70564285Y-108278571D01*
X70421428Y-108207142D01*
X70350000Y-108064285D01*
X70350000Y-107992857D01*
X70421428Y-107850000D01*
X70564285Y-107778571D01*
X70778571Y-107778571D01*
X70921428Y-107850000D01*
X72207142Y-108707142D02*
X72064285Y-108778571D01*
X71778571Y-108778571D01*
X71635714Y-108707142D01*
X71564285Y-108564285D01*
X71564285Y-107992857D01*
X71635714Y-107850000D01*
X71778571Y-107778571D01*
X72064285Y-107778571D01*
X72207142Y-107850000D01*
X72278571Y-107992857D01*
X72278571Y-108135714D01*
X71564285Y-108278571D01*
X74707142Y-107778571D02*
X74707142Y-108992857D01*
X74635714Y-109135714D01*
X74564285Y-109207142D01*
X74421428Y-109278571D01*
X74207142Y-109278571D01*
X74064285Y-109207142D01*
X74707142Y-108707142D02*
X74564285Y-108778571D01*
X74278571Y-108778571D01*
X74135714Y-108707142D01*
X74064285Y-108635714D01*
X73992857Y-108492857D01*
X73992857Y-108064285D01*
X74064285Y-107921428D01*
X74135714Y-107850000D01*
X74278571Y-107778571D01*
X74564285Y-107778571D01*
X74707142Y-107850000D01*
X75635714Y-108778571D02*
X75492857Y-108707142D01*
X75421428Y-108635714D01*
X75350000Y-108492857D01*
X75350000Y-108064285D01*
X75421428Y-107921428D01*
X75492857Y-107850000D01*
X75635714Y-107778571D01*
X75850000Y-107778571D01*
X75992857Y-107850000D01*
X76064285Y-107921428D01*
X76135714Y-108064285D01*
X76135714Y-108492857D01*
X76064285Y-108635714D01*
X75992857Y-108707142D01*
X75850000Y-108778571D01*
X75635714Y-108778571D01*
X77421428Y-108778571D02*
X77421428Y-107278571D01*
X77421428Y-108707142D02*
X77278571Y-108778571D01*
X76992857Y-108778571D01*
X76850000Y-108707142D01*
X76778571Y-108635714D01*
X76707142Y-108492857D01*
X76707142Y-108064285D01*
X76778571Y-107921428D01*
X76850000Y-107850000D01*
X76992857Y-107778571D01*
X77278571Y-107778571D01*
X77421428Y-107850000D01*
X79921428Y-108778571D02*
X79921428Y-107278571D01*
X79921428Y-108707142D02*
X79778571Y-108778571D01*
X79492857Y-108778571D01*
X79350000Y-108707142D01*
X79278571Y-108635714D01*
X79207142Y-108492857D01*
X79207142Y-108064285D01*
X79278571Y-107921428D01*
X79350000Y-107850000D01*
X79492857Y-107778571D01*
X79778571Y-107778571D01*
X79921428Y-107850000D01*
X80850000Y-108778571D02*
X80707142Y-108707142D01*
X80635714Y-108635714D01*
X80564285Y-108492857D01*
X80564285Y-108064285D01*
X80635714Y-107921428D01*
X80707142Y-107850000D01*
X80850000Y-107778571D01*
X81064285Y-107778571D01*
X81207142Y-107850000D01*
X81278571Y-107921428D01*
X81350000Y-108064285D01*
X81350000Y-108492857D01*
X81278571Y-108635714D01*
X81207142Y-108707142D01*
X81064285Y-108778571D01*
X80850000Y-108778571D01*
X81992857Y-107778571D02*
X81992857Y-108778571D01*
X81992857Y-107921428D02*
X82064285Y-107850000D01*
X82207142Y-107778571D01*
X82421428Y-107778571D01*
X82564285Y-107850000D01*
X82635714Y-107992857D01*
X82635714Y-108778571D01*
X83421428Y-107278571D02*
X83278571Y-107564285D01*
X83850000Y-107778571D02*
X84421428Y-107778571D01*
X84064285Y-107278571D02*
X84064285Y-108564285D01*
X84135714Y-108707142D01*
X84278571Y-108778571D01*
X84421428Y-108778571D01*
X86707142Y-108778571D02*
X86707142Y-107992857D01*
X86635714Y-107850000D01*
X86492857Y-107778571D01*
X86207142Y-107778571D01*
X86064285Y-107850000D01*
X86707142Y-108707142D02*
X86564285Y-108778571D01*
X86207142Y-108778571D01*
X86064285Y-108707142D01*
X85992857Y-108564285D01*
X85992857Y-108421428D01*
X86064285Y-108278571D01*
X86207142Y-108207142D01*
X86564285Y-108207142D01*
X86707142Y-108135714D01*
X88064285Y-108707142D02*
X87921428Y-108778571D01*
X87635714Y-108778571D01*
X87492857Y-108707142D01*
X87421428Y-108635714D01*
X87350000Y-108492857D01*
X87350000Y-108064285D01*
X87421428Y-107921428D01*
X87492857Y-107850000D01*
X87635714Y-107778571D01*
X87921428Y-107778571D01*
X88064285Y-107850000D01*
X88492857Y-107778571D02*
X89064285Y-107778571D01*
X88707142Y-107278571D02*
X88707142Y-108564285D01*
X88778571Y-108707142D01*
X88921428Y-108778571D01*
X89064285Y-108778571D01*
X90207142Y-107778571D02*
X90207142Y-108778571D01*
X89564285Y-107778571D02*
X89564285Y-108564285D01*
X89635714Y-108707142D01*
X89778571Y-108778571D01*
X89992857Y-108778571D01*
X90135714Y-108707142D01*
X90207142Y-108635714D01*
X91564285Y-108778571D02*
X91564285Y-107992857D01*
X91492857Y-107850000D01*
X91350000Y-107778571D01*
X91064285Y-107778571D01*
X90921428Y-107850000D01*
X91564285Y-108707142D02*
X91421428Y-108778571D01*
X91064285Y-108778571D01*
X90921428Y-108707142D01*
X90850000Y-108564285D01*
X90850000Y-108421428D01*
X90921428Y-108278571D01*
X91064285Y-108207142D01*
X91421428Y-108207142D01*
X91564285Y-108135714D01*
X92492857Y-108778571D02*
X92350000Y-108707142D01*
X92278571Y-108564285D01*
X92278571Y-107278571D01*
X93278571Y-108778571D02*
X93135714Y-108707142D01*
X93064285Y-108564285D01*
X93064285Y-107278571D01*
X93707142Y-107778571D02*
X94064285Y-108778571D01*
X94421428Y-107778571D02*
X94064285Y-108778571D01*
X93921428Y-109135714D01*
X93850000Y-109207142D01*
X93707142Y-109278571D01*
X96778571Y-107778571D02*
X96778571Y-108778571D01*
X96135714Y-107778571D02*
X96135714Y-108564285D01*
X96207142Y-108707142D01*
X96350000Y-108778571D01*
X96564285Y-108778571D01*
X96707142Y-108707142D01*
X96778571Y-108635714D01*
X97421428Y-108707142D02*
X97564285Y-108778571D01*
X97850000Y-108778571D01*
X97992857Y-108707142D01*
X98064285Y-108564285D01*
X98064285Y-108492857D01*
X97992857Y-108350000D01*
X97850000Y-108278571D01*
X97635714Y-108278571D01*
X97492857Y-108207142D01*
X97421428Y-108064285D01*
X97421428Y-107992857D01*
X97492857Y-107850000D01*
X97635714Y-107778571D01*
X97850000Y-107778571D01*
X97992857Y-107850000D01*
X99278571Y-108707142D02*
X99135714Y-108778571D01*
X98850000Y-108778571D01*
X98707142Y-108707142D01*
X98635714Y-108564285D01*
X98635714Y-107992857D01*
X98707142Y-107850000D01*
X98850000Y-107778571D01*
X99135714Y-107778571D01*
X99278571Y-107850000D01*
X99350000Y-107992857D01*
X99350000Y-108135714D01*
X98635714Y-108278571D01*
X100921428Y-107778571D02*
X101492857Y-107778571D01*
X101135714Y-107278571D02*
X101135714Y-108564285D01*
X101207142Y-108707142D01*
X101350000Y-108778571D01*
X101492857Y-108778571D01*
X101992857Y-108778571D02*
X101992857Y-107278571D01*
X102635714Y-108778571D02*
X102635714Y-107992857D01*
X102564285Y-107850000D01*
X102421428Y-107778571D01*
X102207142Y-107778571D01*
X102064285Y-107850000D01*
X101992857Y-107921428D01*
X103350000Y-108778571D02*
X103350000Y-107778571D01*
X103350000Y-107278571D02*
X103278571Y-107350000D01*
X103350000Y-107421428D01*
X103421428Y-107350000D01*
X103350000Y-107278571D01*
X103350000Y-107421428D01*
X103992857Y-108707142D02*
X104135714Y-108778571D01*
X104421428Y-108778571D01*
X104564285Y-108707142D01*
X104635714Y-108564285D01*
X104635714Y-108492857D01*
X104564285Y-108350000D01*
X104421428Y-108278571D01*
X104207142Y-108278571D01*
X104064285Y-108207142D01*
X103992857Y-108064285D01*
X103992857Y-107992857D01*
X104064285Y-107850000D01*
X104207142Y-107778571D01*
X104421428Y-107778571D01*
X104564285Y-107850000D01*
D14*
G04 #@! TO.C,G\002A\002A\002A*
G36*
X113893830Y-76692906D02*
X114014190Y-76855107D01*
X114108001Y-77043833D01*
X114136667Y-77192309D01*
X114128226Y-77216840D01*
X114031772Y-77295490D01*
X113914955Y-77229918D01*
X113762729Y-77012079D01*
X113652510Y-76784148D01*
X113660264Y-76660768D01*
X113785523Y-76624000D01*
X113893830Y-76692906D01*
X113893830Y-76692906D01*
G37*
X113893830Y-76692906D02*
X114014190Y-76855107D01*
X114108001Y-77043833D01*
X114136667Y-77192309D01*
X114128226Y-77216840D01*
X114031772Y-77295490D01*
X113914955Y-77229918D01*
X113762729Y-77012079D01*
X113652510Y-76784148D01*
X113660264Y-76660768D01*
X113785523Y-76624000D01*
X113893830Y-76692906D01*
G36*
X113426690Y-76860452D02*
X113546123Y-77019477D01*
X113650372Y-77206914D01*
X113701273Y-77359268D01*
X113695616Y-77401185D01*
X113586742Y-77467404D01*
X113444857Y-77367949D01*
X113327144Y-77201482D01*
X113216768Y-76963905D01*
X113232369Y-76826366D01*
X113330241Y-76793333D01*
X113426690Y-76860452D01*
X113426690Y-76860452D01*
G37*
X113426690Y-76860452D02*
X113546123Y-77019477D01*
X113650372Y-77206914D01*
X113701273Y-77359268D01*
X113695616Y-77401185D01*
X113586742Y-77467404D01*
X113444857Y-77367949D01*
X113327144Y-77201482D01*
X113216768Y-76963905D01*
X113232369Y-76826366D01*
X113330241Y-76793333D01*
X113426690Y-76860452D01*
G36*
X112047541Y-76452516D02*
X112153752Y-76503058D01*
X112501968Y-76700382D01*
X112755113Y-76883462D01*
X112887373Y-77032378D01*
X112900667Y-77079510D01*
X112837441Y-77214262D01*
X112686876Y-77349046D01*
X112507637Y-77446491D01*
X112358394Y-77469229D01*
X112320349Y-77449149D01*
X112277206Y-77334088D01*
X112353285Y-77213405D01*
X112411906Y-77126327D01*
X112383731Y-77052502D01*
X112243478Y-76962791D01*
X112055795Y-76870528D01*
X111791504Y-76737515D01*
X111664294Y-76643219D01*
X111654817Y-76561514D01*
X111743729Y-76466276D01*
X111751585Y-76459714D01*
X111874171Y-76408569D01*
X112047541Y-76452516D01*
X112047541Y-76452516D01*
G37*
X112047541Y-76452516D02*
X112153752Y-76503058D01*
X112501968Y-76700382D01*
X112755113Y-76883462D01*
X112887373Y-77032378D01*
X112900667Y-77079510D01*
X112837441Y-77214262D01*
X112686876Y-77349046D01*
X112507637Y-77446491D01*
X112358394Y-77469229D01*
X112320349Y-77449149D01*
X112277206Y-77334088D01*
X112353285Y-77213405D01*
X112411906Y-77126327D01*
X112383731Y-77052502D01*
X112243478Y-76962791D01*
X112055795Y-76870528D01*
X111791504Y-76737515D01*
X111664294Y-76643219D01*
X111654817Y-76561514D01*
X111743729Y-76466276D01*
X111751585Y-76459714D01*
X111874171Y-76408569D01*
X112047541Y-76452516D01*
G36*
X117239748Y-76854291D02*
X117438926Y-76942341D01*
X117667208Y-77078385D01*
X117876189Y-77231151D01*
X118017461Y-77369366D01*
X118049463Y-77447221D01*
X117995272Y-77567700D01*
X117881642Y-77588388D01*
X117683496Y-77505879D01*
X117451500Y-77365996D01*
X117173882Y-77156681D01*
X117053735Y-76987967D01*
X117093284Y-76863329D01*
X117118078Y-76845507D01*
X117239748Y-76854291D01*
X117239748Y-76854291D01*
G37*
X117239748Y-76854291D02*
X117438926Y-76942341D01*
X117667208Y-77078385D01*
X117876189Y-77231151D01*
X118017461Y-77369366D01*
X118049463Y-77447221D01*
X117995272Y-77567700D01*
X117881642Y-77588388D01*
X117683496Y-77505879D01*
X117451500Y-77365996D01*
X117173882Y-77156681D01*
X117053735Y-76987967D01*
X117093284Y-76863329D01*
X117118078Y-76845507D01*
X117239748Y-76854291D01*
G36*
X124161334Y-76695660D02*
X124155076Y-76973292D01*
X124138434Y-77350910D01*
X124114600Y-77759708D01*
X124106322Y-77880993D01*
X124051310Y-78656000D01*
X123414534Y-78656000D01*
X123366595Y-77957500D01*
X123339001Y-77549162D01*
X123311490Y-77131818D01*
X123289720Y-76791350D01*
X123288529Y-76772167D01*
X123258402Y-76285333D01*
X124161334Y-76285333D01*
X124161334Y-76695660D01*
X124161334Y-76695660D01*
G37*
X124161334Y-76695660D02*
X124155076Y-76973292D01*
X124138434Y-77350910D01*
X124114600Y-77759708D01*
X124106322Y-77880993D01*
X124051310Y-78656000D01*
X123414534Y-78656000D01*
X123366595Y-77957500D01*
X123339001Y-77549162D01*
X123311490Y-77131818D01*
X123289720Y-76791350D01*
X123288529Y-76772167D01*
X123258402Y-76285333D01*
X124161334Y-76285333D01*
X124161334Y-76695660D01*
G36*
X105450000Y-76695660D02*
X105443743Y-76973292D01*
X105427101Y-77350910D01*
X105403266Y-77759708D01*
X105394989Y-77880993D01*
X105339977Y-78656000D01*
X104703201Y-78656000D01*
X104655262Y-77957500D01*
X104627667Y-77549162D01*
X104600157Y-77131818D01*
X104578386Y-76791350D01*
X104577196Y-76772167D01*
X104547069Y-76285333D01*
X105450000Y-76285333D01*
X105450000Y-76695660D01*
X105450000Y-76695660D01*
G37*
X105450000Y-76695660D02*
X105443743Y-76973292D01*
X105427101Y-77350910D01*
X105403266Y-77759708D01*
X105394989Y-77880993D01*
X105339977Y-78656000D01*
X104703201Y-78656000D01*
X104655262Y-77957500D01*
X104627667Y-77549162D01*
X104600157Y-77131818D01*
X104578386Y-76791350D01*
X104577196Y-76772167D01*
X104547069Y-76285333D01*
X105450000Y-76285333D01*
X105450000Y-76695660D01*
G36*
X121529503Y-76931986D02*
X121678885Y-77181443D01*
X121815742Y-77496168D01*
X121982389Y-77966349D01*
X122079999Y-78357680D01*
X122105033Y-78648334D01*
X122053953Y-78816482D01*
X122032712Y-78834513D01*
X121878984Y-78901336D01*
X121792213Y-78835280D01*
X121746900Y-78677167D01*
X121645597Y-78257262D01*
X121511934Y-77813453D01*
X121368361Y-77415568D01*
X121269990Y-77193830D01*
X121175116Y-76988714D01*
X121161961Y-76882851D01*
X121226578Y-76829430D01*
X121238839Y-76824524D01*
X121387563Y-76818534D01*
X121529503Y-76931986D01*
X121529503Y-76931986D01*
G37*
X121529503Y-76931986D02*
X121678885Y-77181443D01*
X121815742Y-77496168D01*
X121982389Y-77966349D01*
X122079999Y-78357680D01*
X122105033Y-78648334D01*
X122053953Y-78816482D01*
X122032712Y-78834513D01*
X121878984Y-78901336D01*
X121792213Y-78835280D01*
X121746900Y-78677167D01*
X121645597Y-78257262D01*
X121511934Y-77813453D01*
X121368361Y-77415568D01*
X121269990Y-77193830D01*
X121175116Y-76988714D01*
X121161961Y-76882851D01*
X121226578Y-76829430D01*
X121238839Y-76824524D01*
X121387563Y-76818534D01*
X121529503Y-76931986D01*
G36*
X116114111Y-76240040D02*
X116165129Y-76374643D01*
X116121417Y-76612085D01*
X116078827Y-76791379D01*
X116115536Y-76849702D01*
X116260304Y-76827699D01*
X116272037Y-76824951D01*
X116509873Y-76775164D01*
X116626744Y-76779198D01*
X116665195Y-76846856D01*
X116668334Y-76916284D01*
X116622074Y-77037216D01*
X116460527Y-77125524D01*
X116300397Y-77171153D01*
X116088427Y-77234582D01*
X115951737Y-77326433D01*
X115844750Y-77492475D01*
X115739930Y-77733965D01*
X115599621Y-78051536D01*
X115439664Y-78372176D01*
X115280677Y-78659292D01*
X115143273Y-78876287D01*
X115048068Y-78986569D01*
X115030455Y-78993370D01*
X114919114Y-78951838D01*
X114848000Y-78911114D01*
X114766429Y-78819953D01*
X114818198Y-78691248D01*
X114826247Y-78679577D01*
X114914306Y-78535767D01*
X115043374Y-78304834D01*
X115190833Y-78029930D01*
X115334066Y-77754208D01*
X115450454Y-77520822D01*
X115517380Y-77372922D01*
X115525334Y-77345780D01*
X115449597Y-77319263D01*
X115257991Y-77303365D01*
X115144334Y-77301333D01*
X114908613Y-77291934D01*
X114796940Y-77248213D01*
X114764389Y-77146886D01*
X114763334Y-77103867D01*
X114775100Y-76991398D01*
X114838019Y-76937779D01*
X114993514Y-76928623D01*
X115222323Y-76944465D01*
X115681313Y-76982528D01*
X115739937Y-76591597D01*
X115794328Y-76340079D01*
X115871347Y-76222413D01*
X115953283Y-76200667D01*
X116114111Y-76240040D01*
X116114111Y-76240040D01*
G37*
X116114111Y-76240040D02*
X116165129Y-76374643D01*
X116121417Y-76612085D01*
X116078827Y-76791379D01*
X116115536Y-76849702D01*
X116260304Y-76827699D01*
X116272037Y-76824951D01*
X116509873Y-76775164D01*
X116626744Y-76779198D01*
X116665195Y-76846856D01*
X116668334Y-76916284D01*
X116622074Y-77037216D01*
X116460527Y-77125524D01*
X116300397Y-77171153D01*
X116088427Y-77234582D01*
X115951737Y-77326433D01*
X115844750Y-77492475D01*
X115739930Y-77733965D01*
X115599621Y-78051536D01*
X115439664Y-78372176D01*
X115280677Y-78659292D01*
X115143273Y-78876287D01*
X115048068Y-78986569D01*
X115030455Y-78993370D01*
X114919114Y-78951838D01*
X114848000Y-78911114D01*
X114766429Y-78819953D01*
X114818198Y-78691248D01*
X114826247Y-78679577D01*
X114914306Y-78535767D01*
X115043374Y-78304834D01*
X115190833Y-78029930D01*
X115334066Y-77754208D01*
X115450454Y-77520822D01*
X115517380Y-77372922D01*
X115525334Y-77345780D01*
X115449597Y-77319263D01*
X115257991Y-77303365D01*
X115144334Y-77301333D01*
X114908613Y-77291934D01*
X114796940Y-77248213D01*
X114764389Y-77146886D01*
X114763334Y-77103867D01*
X114775100Y-76991398D01*
X114838019Y-76937779D01*
X114993514Y-76928623D01*
X115222323Y-76944465D01*
X115681313Y-76982528D01*
X115739937Y-76591597D01*
X115794328Y-76340079D01*
X115871347Y-76222413D01*
X115953283Y-76200667D01*
X116114111Y-76240040D01*
G36*
X113389089Y-78044770D02*
X113574249Y-78232336D01*
X113785644Y-78584669D01*
X113897277Y-78813780D01*
X114010927Y-79079151D01*
X114048699Y-79235322D01*
X114017423Y-79320852D01*
X113990775Y-79341650D01*
X113862319Y-79407699D01*
X113827322Y-79416703D01*
X113770635Y-79347119D01*
X113658608Y-79159814D01*
X113511044Y-78888817D01*
X113436630Y-78745322D01*
X113274889Y-78419148D01*
X113187761Y-78211217D01*
X113166835Y-78092189D01*
X113203704Y-78032721D01*
X113228900Y-78020474D01*
X113389089Y-78044770D01*
X113389089Y-78044770D01*
G37*
X113389089Y-78044770D02*
X113574249Y-78232336D01*
X113785644Y-78584669D01*
X113897277Y-78813780D01*
X114010927Y-79079151D01*
X114048699Y-79235322D01*
X114017423Y-79320852D01*
X113990775Y-79341650D01*
X113862319Y-79407699D01*
X113827322Y-79416703D01*
X113770635Y-79347119D01*
X113658608Y-79159814D01*
X113511044Y-78888817D01*
X113436630Y-78745322D01*
X113274889Y-78419148D01*
X113187761Y-78211217D01*
X113166835Y-78092189D01*
X113203704Y-78032721D01*
X113228900Y-78020474D01*
X113389089Y-78044770D01*
G36*
X124161334Y-79502667D02*
X123314667Y-79502667D01*
X123314667Y-78825333D01*
X124161334Y-78825333D01*
X124161334Y-79502667D01*
X124161334Y-79502667D01*
G37*
X124161334Y-79502667D02*
X123314667Y-79502667D01*
X123314667Y-78825333D01*
X124161334Y-78825333D01*
X124161334Y-79502667D01*
G36*
X111503426Y-78486467D02*
X111583608Y-78578460D01*
X111553446Y-78676589D01*
X111460235Y-78784169D01*
X111287347Y-78943854D01*
X111045004Y-79139871D01*
X110911267Y-79239383D01*
X110694947Y-79389507D01*
X110572528Y-79447831D01*
X110502043Y-79423620D01*
X110449596Y-79341298D01*
X110413450Y-79216795D01*
X110480374Y-79105906D01*
X110635911Y-78986755D01*
X110890195Y-78797465D01*
X111130212Y-78596769D01*
X111140772Y-78587137D01*
X111307440Y-78454607D01*
X111420757Y-78435911D01*
X111503426Y-78486467D01*
X111503426Y-78486467D01*
G37*
X111503426Y-78486467D02*
X111583608Y-78578460D01*
X111553446Y-78676589D01*
X111460235Y-78784169D01*
X111287347Y-78943854D01*
X111045004Y-79139871D01*
X110911267Y-79239383D01*
X110694947Y-79389507D01*
X110572528Y-79447831D01*
X110502043Y-79423620D01*
X110449596Y-79341298D01*
X110413450Y-79216795D01*
X110480374Y-79105906D01*
X110635911Y-78986755D01*
X110890195Y-78797465D01*
X111130212Y-78596769D01*
X111140772Y-78587137D01*
X111307440Y-78454607D01*
X111420757Y-78435911D01*
X111503426Y-78486467D01*
G36*
X105450000Y-79502667D02*
X104603334Y-79502667D01*
X104603334Y-78825333D01*
X105450000Y-78825333D01*
X105450000Y-79502667D01*
X105450000Y-79502667D01*
G37*
X105450000Y-79502667D02*
X104603334Y-79502667D01*
X104603334Y-78825333D01*
X105450000Y-78825333D01*
X105450000Y-79502667D01*
G36*
X119335334Y-77339499D02*
X119359130Y-77955900D01*
X119428173Y-78457953D01*
X119538942Y-78828236D01*
X119679214Y-79041718D01*
X119810665Y-79141279D01*
X119912490Y-79121101D01*
X120007868Y-79041343D01*
X120150107Y-78845439D01*
X120226049Y-78648191D01*
X120304024Y-78423235D01*
X120398698Y-78358820D01*
X120501458Y-78458830D01*
X120528297Y-78511936D01*
X120572395Y-78678017D01*
X120535354Y-78863574D01*
X120443714Y-79064212D01*
X120224399Y-79394859D01*
X119987191Y-79558111D01*
X119728362Y-79555311D01*
X119475650Y-79413348D01*
X119276716Y-79166147D01*
X119122180Y-78769788D01*
X119010624Y-78219189D01*
X118940630Y-77509269D01*
X118939548Y-77491833D01*
X118886267Y-76624000D01*
X119335334Y-76624000D01*
X119335334Y-77339499D01*
X119335334Y-77339499D01*
G37*
X119335334Y-77339499D02*
X119359130Y-77955900D01*
X119428173Y-78457953D01*
X119538942Y-78828236D01*
X119679214Y-79041718D01*
X119810665Y-79141279D01*
X119912490Y-79121101D01*
X120007868Y-79041343D01*
X120150107Y-78845439D01*
X120226049Y-78648191D01*
X120304024Y-78423235D01*
X120398698Y-78358820D01*
X120501458Y-78458830D01*
X120528297Y-78511936D01*
X120572395Y-78678017D01*
X120535354Y-78863574D01*
X120443714Y-79064212D01*
X120224399Y-79394859D01*
X119987191Y-79558111D01*
X119728362Y-79555311D01*
X119475650Y-79413348D01*
X119276716Y-79166147D01*
X119122180Y-78769788D01*
X119010624Y-78219189D01*
X118940630Y-77509269D01*
X118939548Y-77491833D01*
X118886267Y-76624000D01*
X119335334Y-76624000D01*
X119335334Y-77339499D01*
G36*
X112026983Y-77709497D02*
X112209468Y-77892040D01*
X112412756Y-78148708D01*
X112609902Y-78440582D01*
X112773958Y-78728740D01*
X112877977Y-78974261D01*
X112900667Y-79096498D01*
X112843632Y-79263266D01*
X112705109Y-79451645D01*
X112692849Y-79464182D01*
X112526788Y-79593932D01*
X112325065Y-79656249D01*
X112029626Y-79672000D01*
X111765006Y-79662265D01*
X111574740Y-79637270D01*
X111517778Y-79615555D01*
X111467972Y-79489940D01*
X111461334Y-79416317D01*
X111488224Y-79331574D01*
X111595733Y-79299078D01*
X111824117Y-79308520D01*
X111866786Y-79312482D01*
X112206988Y-79305205D01*
X112406088Y-79205744D01*
X112463755Y-79016028D01*
X112379660Y-78737988D01*
X112153471Y-78373550D01*
X112050764Y-78238667D01*
X111841746Y-77940113D01*
X111767108Y-77743466D01*
X111826941Y-77649071D01*
X111892250Y-77640000D01*
X112026983Y-77709497D01*
X112026983Y-77709497D01*
G37*
X112026983Y-77709497D02*
X112209468Y-77892040D01*
X112412756Y-78148708D01*
X112609902Y-78440582D01*
X112773958Y-78728740D01*
X112877977Y-78974261D01*
X112900667Y-79096498D01*
X112843632Y-79263266D01*
X112705109Y-79451645D01*
X112692849Y-79464182D01*
X112526788Y-79593932D01*
X112325065Y-79656249D01*
X112029626Y-79672000D01*
X111765006Y-79662265D01*
X111574740Y-79637270D01*
X111517778Y-79615555D01*
X111467972Y-79489940D01*
X111461334Y-79416317D01*
X111488224Y-79331574D01*
X111595733Y-79299078D01*
X111824117Y-79308520D01*
X111866786Y-79312482D01*
X112206988Y-79305205D01*
X112406088Y-79205744D01*
X112463755Y-79016028D01*
X112379660Y-78737988D01*
X112153471Y-78373550D01*
X112050764Y-78238667D01*
X111841746Y-77940113D01*
X111767108Y-77743466D01*
X111826941Y-77649071D01*
X111892250Y-77640000D01*
X112026983Y-77709497D01*
G36*
X117056421Y-77572537D02*
X117107515Y-77649127D01*
X117129515Y-77822571D01*
X117134000Y-78103946D01*
X117134000Y-78652558D01*
X117457164Y-78817424D01*
X117772095Y-79005727D01*
X117927541Y-79171440D01*
X117930421Y-79323340D01*
X117896585Y-79374962D01*
X117811349Y-79442448D01*
X117705806Y-79415227D01*
X117533951Y-79284317D01*
X117276133Y-79067377D01*
X117169623Y-79320689D01*
X117004281Y-79573371D01*
X116752191Y-79712962D01*
X116381974Y-79756653D01*
X116373718Y-79756667D01*
X116068541Y-79714410D01*
X115837847Y-79568349D01*
X115817818Y-79548848D01*
X115674666Y-79356703D01*
X115613900Y-79183772D01*
X116004608Y-79183772D01*
X116037439Y-79256337D01*
X116146130Y-79373936D01*
X116332853Y-79407106D01*
X116441038Y-79401614D01*
X116652806Y-79365915D01*
X116749229Y-79279562D01*
X116779506Y-79145786D01*
X116767264Y-78965843D01*
X116644981Y-78877501D01*
X116588389Y-78861286D01*
X116307445Y-78873874D01*
X116158285Y-78945890D01*
X116015752Y-79065666D01*
X116004608Y-79183772D01*
X115613900Y-79183772D01*
X115610279Y-79173469D01*
X115610000Y-79164000D01*
X115687602Y-78915366D01*
X115894743Y-78716163D01*
X116192930Y-78594891D01*
X116410485Y-78571333D01*
X116795334Y-78571333D01*
X116795334Y-78063333D01*
X116801512Y-77779605D01*
X116828653Y-77626293D01*
X116889666Y-77564672D01*
X116964667Y-77555333D01*
X117056421Y-77572537D01*
X117056421Y-77572537D01*
G37*
X117056421Y-77572537D02*
X117107515Y-77649127D01*
X117129515Y-77822571D01*
X117134000Y-78103946D01*
X117134000Y-78652558D01*
X117457164Y-78817424D01*
X117772095Y-79005727D01*
X117927541Y-79171440D01*
X117930421Y-79323340D01*
X117896585Y-79374962D01*
X117811349Y-79442448D01*
X117705806Y-79415227D01*
X117533951Y-79284317D01*
X117276133Y-79067377D01*
X117169623Y-79320689D01*
X117004281Y-79573371D01*
X116752191Y-79712962D01*
X116381974Y-79756653D01*
X116373718Y-79756667D01*
X116068541Y-79714410D01*
X115837847Y-79568349D01*
X115817818Y-79548848D01*
X115674666Y-79356703D01*
X115613900Y-79183772D01*
X116004608Y-79183772D01*
X116037439Y-79256337D01*
X116146130Y-79373936D01*
X116332853Y-79407106D01*
X116441038Y-79401614D01*
X116652806Y-79365915D01*
X116749229Y-79279562D01*
X116779506Y-79145786D01*
X116767264Y-78965843D01*
X116644981Y-78877501D01*
X116588389Y-78861286D01*
X116307445Y-78873874D01*
X116158285Y-78945890D01*
X116015752Y-79065666D01*
X116004608Y-79183772D01*
X115613900Y-79183772D01*
X115610279Y-79173469D01*
X115610000Y-79164000D01*
X115687602Y-78915366D01*
X115894743Y-78716163D01*
X116192930Y-78594891D01*
X116410485Y-78571333D01*
X116795334Y-78571333D01*
X116795334Y-78063333D01*
X116801512Y-77779605D01*
X116828653Y-77626293D01*
X116889666Y-77564672D01*
X116964667Y-77555333D01*
X117056421Y-77572537D01*
G36*
X108100527Y-76307895D02*
X108127510Y-76410296D01*
X108109435Y-76497000D01*
X108088503Y-76628282D01*
X108139914Y-76689347D01*
X108303119Y-76706381D01*
X108425322Y-76706647D01*
X108745950Y-76687263D01*
X109059800Y-76642143D01*
X109106646Y-76632066D01*
X109324558Y-76597360D01*
X109434502Y-76632608D01*
X109469255Y-76690577D01*
X109489130Y-76805408D01*
X109428893Y-76886389D01*
X109264275Y-76943551D01*
X108971008Y-76986923D01*
X108687969Y-77013471D01*
X108346196Y-77044394D01*
X108139392Y-77076113D01*
X108033679Y-77122274D01*
X107995181Y-77196519D01*
X107990000Y-77294577D01*
X108002773Y-77432980D01*
X108072152Y-77490975D01*
X108244732Y-77493101D01*
X108349834Y-77484109D01*
X108588412Y-77437801D01*
X108751343Y-77362161D01*
X108777374Y-77333705D01*
X108893598Y-77233224D01*
X109033325Y-77214720D01*
X109132145Y-77272171D01*
X109138872Y-77367500D01*
X109151962Y-77498648D01*
X109306902Y-77599398D01*
X109335837Y-77610750D01*
X109622532Y-77797872D01*
X109800539Y-78077030D01*
X109871319Y-78411648D01*
X109836332Y-78765148D01*
X109697038Y-79100955D01*
X109454896Y-79382491D01*
X109260000Y-79510583D01*
X108883812Y-79676347D01*
X108627030Y-79727106D01*
X108485368Y-79663501D01*
X108467142Y-79629040D01*
X108421153Y-79498578D01*
X108413334Y-79466810D01*
X108485768Y-79431434D01*
X108667102Y-79369399D01*
X108745761Y-79345206D01*
X109078622Y-79183994D01*
X109322405Y-78946864D01*
X109467024Y-78667384D01*
X109502395Y-78379119D01*
X109418432Y-78115636D01*
X109205050Y-77910500D01*
X109180892Y-77896974D01*
X109080241Y-77868269D01*
X108986453Y-77922230D01*
X108868938Y-78085492D01*
X108769852Y-78254867D01*
X108601459Y-78526198D01*
X108433058Y-78756547D01*
X108339020Y-78859622D01*
X108195683Y-79079468D01*
X108159334Y-79261789D01*
X108128253Y-79443153D01*
X108017885Y-79502022D01*
X107997056Y-79502667D01*
X107846912Y-79458912D01*
X107802509Y-79405859D01*
X107736390Y-79351394D01*
X107589353Y-79405859D01*
X107266575Y-79507121D01*
X106983985Y-79468644D01*
X106772581Y-79310940D01*
X106663361Y-79054520D01*
X106664689Y-78998153D01*
X106996605Y-78998153D01*
X107004940Y-79037839D01*
X107120199Y-79149305D01*
X107337155Y-79135000D01*
X107525998Y-79063170D01*
X107685345Y-78950768D01*
X107703911Y-78801713D01*
X107700471Y-78788003D01*
X107666854Y-78579026D01*
X107652490Y-78328173D01*
X107650292Y-78279997D01*
X107990000Y-78279997D01*
X108002488Y-78538783D01*
X108047514Y-78641034D01*
X108136421Y-78598213D01*
X108215407Y-78507833D01*
X108329478Y-78339112D01*
X108468578Y-78102475D01*
X108505710Y-78034165D01*
X108678939Y-77708663D01*
X108397970Y-77768955D01*
X108156185Y-77829774D01*
X108035813Y-77911704D01*
X107994528Y-78067763D01*
X107990000Y-78279997D01*
X107650292Y-78279997D01*
X107643937Y-78140758D01*
X107597819Y-78093268D01*
X107480202Y-78156338D01*
X107465321Y-78166187D01*
X107297712Y-78329071D01*
X107143063Y-78561144D01*
X107032363Y-78803729D01*
X106996605Y-78998153D01*
X106664689Y-78998153D01*
X106669426Y-78797151D01*
X106762961Y-78555705D01*
X106938547Y-78278437D01*
X107154588Y-78017966D01*
X107369488Y-77826910D01*
X107484353Y-77766253D01*
X107609523Y-77669467D01*
X107650980Y-77461368D01*
X107651334Y-77430573D01*
X107641718Y-77262295D01*
X107584063Y-77170843D01*
X107435152Y-77121414D01*
X107228000Y-77089667D01*
X106969680Y-77041869D01*
X106841631Y-76977158D01*
X106804837Y-76874731D01*
X106804667Y-76863963D01*
X106819683Y-76770076D01*
X106891618Y-76728926D01*
X107060802Y-76731049D01*
X107270334Y-76754663D01*
X107736000Y-76812844D01*
X107736000Y-76549089D01*
X107756743Y-76363192D01*
X107846596Y-76293110D01*
X107949280Y-76285333D01*
X108100527Y-76307895D01*
X108100527Y-76307895D01*
G37*
X108100527Y-76307895D02*
X108127510Y-76410296D01*
X108109435Y-76497000D01*
X108088503Y-76628282D01*
X108139914Y-76689347D01*
X108303119Y-76706381D01*
X108425322Y-76706647D01*
X108745950Y-76687263D01*
X109059800Y-76642143D01*
X109106646Y-76632066D01*
X109324558Y-76597360D01*
X109434502Y-76632608D01*
X109469255Y-76690577D01*
X109489130Y-76805408D01*
X109428893Y-76886389D01*
X109264275Y-76943551D01*
X108971008Y-76986923D01*
X108687969Y-77013471D01*
X108346196Y-77044394D01*
X108139392Y-77076113D01*
X108033679Y-77122274D01*
X107995181Y-77196519D01*
X107990000Y-77294577D01*
X108002773Y-77432980D01*
X108072152Y-77490975D01*
X108244732Y-77493101D01*
X108349834Y-77484109D01*
X108588412Y-77437801D01*
X108751343Y-77362161D01*
X108777374Y-77333705D01*
X108893598Y-77233224D01*
X109033325Y-77214720D01*
X109132145Y-77272171D01*
X109138872Y-77367500D01*
X109151962Y-77498648D01*
X109306902Y-77599398D01*
X109335837Y-77610750D01*
X109622532Y-77797872D01*
X109800539Y-78077030D01*
X109871319Y-78411648D01*
X109836332Y-78765148D01*
X109697038Y-79100955D01*
X109454896Y-79382491D01*
X109260000Y-79510583D01*
X108883812Y-79676347D01*
X108627030Y-79727106D01*
X108485368Y-79663501D01*
X108467142Y-79629040D01*
X108421153Y-79498578D01*
X108413334Y-79466810D01*
X108485768Y-79431434D01*
X108667102Y-79369399D01*
X108745761Y-79345206D01*
X109078622Y-79183994D01*
X109322405Y-78946864D01*
X109467024Y-78667384D01*
X109502395Y-78379119D01*
X109418432Y-78115636D01*
X109205050Y-77910500D01*
X109180892Y-77896974D01*
X109080241Y-77868269D01*
X108986453Y-77922230D01*
X108868938Y-78085492D01*
X108769852Y-78254867D01*
X108601459Y-78526198D01*
X108433058Y-78756547D01*
X108339020Y-78859622D01*
X108195683Y-79079468D01*
X108159334Y-79261789D01*
X108128253Y-79443153D01*
X108017885Y-79502022D01*
X107997056Y-79502667D01*
X107846912Y-79458912D01*
X107802509Y-79405859D01*
X107736390Y-79351394D01*
X107589353Y-79405859D01*
X107266575Y-79507121D01*
X106983985Y-79468644D01*
X106772581Y-79310940D01*
X106663361Y-79054520D01*
X106664689Y-78998153D01*
X106996605Y-78998153D01*
X107004940Y-79037839D01*
X107120199Y-79149305D01*
X107337155Y-79135000D01*
X107525998Y-79063170D01*
X107685345Y-78950768D01*
X107703911Y-78801713D01*
X107700471Y-78788003D01*
X107666854Y-78579026D01*
X107652490Y-78328173D01*
X107650292Y-78279997D01*
X107990000Y-78279997D01*
X108002488Y-78538783D01*
X108047514Y-78641034D01*
X108136421Y-78598213D01*
X108215407Y-78507833D01*
X108329478Y-78339112D01*
X108468578Y-78102475D01*
X108505710Y-78034165D01*
X108678939Y-77708663D01*
X108397970Y-77768955D01*
X108156185Y-77829774D01*
X108035813Y-77911704D01*
X107994528Y-78067763D01*
X107990000Y-78279997D01*
X107650292Y-78279997D01*
X107643937Y-78140758D01*
X107597819Y-78093268D01*
X107480202Y-78156338D01*
X107465321Y-78166187D01*
X107297712Y-78329071D01*
X107143063Y-78561144D01*
X107032363Y-78803729D01*
X106996605Y-78998153D01*
X106664689Y-78998153D01*
X106669426Y-78797151D01*
X106762961Y-78555705D01*
X106938547Y-78278437D01*
X107154588Y-78017966D01*
X107369488Y-77826910D01*
X107484353Y-77766253D01*
X107609523Y-77669467D01*
X107650980Y-77461368D01*
X107651334Y-77430573D01*
X107641718Y-77262295D01*
X107584063Y-77170843D01*
X107435152Y-77121414D01*
X107228000Y-77089667D01*
X106969680Y-77041869D01*
X106841631Y-76977158D01*
X106804837Y-76874731D01*
X106804667Y-76863963D01*
X106819683Y-76770076D01*
X106891618Y-76728926D01*
X107060802Y-76731049D01*
X107270334Y-76754663D01*
X107736000Y-76812844D01*
X107736000Y-76549089D01*
X107756743Y-76363192D01*
X107846596Y-76293110D01*
X107949280Y-76285333D01*
X108100527Y-76307895D01*
D15*
G04 #@! TO.C,BT1*
X60830000Y-88060000D02*
X56470000Y-88060000D01*
X60830000Y-101940000D02*
X60830000Y-94940000D01*
X138110000Y-101940000D02*
X60830000Y-101940000D01*
X138110000Y-94940000D02*
X138110000Y-101940000D01*
X60830000Y-81060000D02*
X60830000Y-88060000D01*
X138110000Y-81060000D02*
X60830000Y-81060000D01*
X138110000Y-88060000D02*
X138110000Y-81080000D01*
X143220000Y-85500000D02*
X140720000Y-85500000D01*
X55720000Y-85500000D02*
X58220000Y-85500000D01*
X56970000Y-86750000D02*
X56970000Y-84250000D01*
G04 #@! TO.C,C1*
X152430000Y-101966078D02*
X152430000Y-101448922D01*
X153850000Y-101966078D02*
X153850000Y-101448922D01*
G04 #@! TO.C,C2*
X156580000Y-101966078D02*
X156580000Y-101448922D01*
X158000000Y-101966078D02*
X158000000Y-101448922D01*
G04 #@! TO.C,C3*
X154190000Y-88361078D02*
X154190000Y-87843922D01*
X152770000Y-88361078D02*
X152770000Y-87843922D01*
G04 #@! TO.C,C4*
X158080000Y-88361078D02*
X158080000Y-87843922D01*
X159500000Y-88361078D02*
X159500000Y-87843922D01*
G04 #@! TO.C,C5*
X170418578Y-108120000D02*
X169901422Y-108120000D01*
X170418578Y-109540000D02*
X169901422Y-109540000D01*
G04 #@! TO.C,D1*
X178237500Y-90380000D02*
X180922500Y-90380000D01*
X180922500Y-90380000D02*
X180922500Y-88460000D01*
X180922500Y-88460000D02*
X178237500Y-88460000D01*
G04 #@! TO.C,D2*
X163235000Y-87102500D02*
X163235000Y-89787500D01*
X163235000Y-89787500D02*
X165155000Y-89787500D01*
X165155000Y-89787500D02*
X165155000Y-87102500D01*
G04 #@! TO.C,D3*
X177592500Y-95310000D02*
X180277500Y-95310000D01*
X177592500Y-93390000D02*
X177592500Y-95310000D01*
X180277500Y-93390000D02*
X177592500Y-93390000D01*
G04 #@! TO.C,H1*
X209820000Y-84870000D02*
X212820000Y-84870000D01*
X212820000Y-84870000D02*
X212820000Y-87720000D01*
X209820000Y-84870000D02*
X209820000Y-87720000D01*
X209820000Y-87720000D02*
X212820000Y-87720000D01*
G04 #@! TO.C,H2*
X212820781Y-97420000D02*
G75*
G03X212820781Y-97420000I-1600781J0D01*
G01*
G04 #@! TO.C,JP1*
X163450000Y-96470000D02*
G75*
G02X164150000Y-95770000I700000J0D01*
G01*
X164750000Y-95770000D02*
G75*
G02X165450000Y-96470000I0J-700000D01*
G01*
X165450000Y-97870000D02*
G75*
G02X164750000Y-98570000I-700000J0D01*
G01*
X164150000Y-98570000D02*
G75*
G02X163450000Y-97870000I0J700000D01*
G01*
X164750000Y-98570000D02*
X164150000Y-98570000D01*
X165450000Y-96470000D02*
X165450000Y-97870000D01*
X164150000Y-95770000D02*
X164750000Y-95770000D01*
X163450000Y-97870000D02*
X163450000Y-96470000D01*
G04 #@! TO.C,L1*
X149700000Y-97775000D02*
X149700000Y-103975000D01*
X149700000Y-103975000D02*
X149250000Y-103975000D01*
X143500000Y-103975000D02*
X143500000Y-97775000D01*
X143500000Y-103975000D02*
X143950000Y-103975000D01*
X143500000Y-97775000D02*
X143950000Y-97775000D01*
X149700000Y-97775000D02*
X149250000Y-97775000D01*
G04 #@! TO.C,Q1*
X182480000Y-93340000D02*
X182480000Y-94840000D01*
X182480000Y-94840000D02*
X184290000Y-94840000D01*
X184290000Y-94840000D02*
X184290000Y-99965000D01*
X192880000Y-93340000D02*
X192880000Y-94840000D01*
X192880000Y-94840000D02*
X191070000Y-94840000D01*
X191070000Y-94840000D02*
X191070000Y-95940000D01*
G04 #@! TO.C,R1*
X161710000Y-101966078D02*
X161710000Y-101448922D01*
X160290000Y-101966078D02*
X160290000Y-101448922D01*
G04 #@! TO.C,R2*
X187936078Y-103600000D02*
X187418922Y-103600000D01*
X187936078Y-102180000D02*
X187418922Y-102180000D01*
G04 #@! TO.C,R3*
X178941422Y-86190000D02*
X179458578Y-86190000D01*
X178941422Y-87610000D02*
X179458578Y-87610000D01*
G04 #@! TO.C,R4*
X164860000Y-92681078D02*
X164860000Y-92163922D01*
X163440000Y-92681078D02*
X163440000Y-92163922D01*
G04 #@! TO.C,R5*
X170418578Y-104420000D02*
X169901422Y-104420000D01*
X170418578Y-103000000D02*
X169901422Y-103000000D01*
G04 #@! TO.C,R6*
X182270000Y-105041422D02*
X182270000Y-105558578D01*
X183690000Y-105041422D02*
X183690000Y-105558578D01*
G04 #@! TO.C,R7*
X178903922Y-95990000D02*
X179421078Y-95990000D01*
X178903922Y-97410000D02*
X179421078Y-97410000D01*
G04 #@! TO.C,SW1*
X154600000Y-77900000D02*
X150100000Y-77900000D01*
X155850000Y-81900000D02*
X155850000Y-80400000D01*
X150100000Y-84400000D02*
X154600000Y-84400000D01*
X148850000Y-80400000D02*
X148850000Y-81900000D01*
G04 #@! TO.C,SW2*
X169300000Y-76950000D02*
X167800000Y-76950000D01*
X165300000Y-78200000D02*
X165300000Y-82700000D01*
X167800000Y-83950000D02*
X169300000Y-83950000D01*
X171800000Y-82700000D02*
X171800000Y-78200000D01*
G04 #@! TO.C,U1*
X158970000Y-92460000D02*
X158970000Y-93110000D01*
X154850000Y-96580000D02*
X154850000Y-95930000D01*
X158970000Y-96580000D02*
X158970000Y-95930000D01*
X154850000Y-96580000D02*
X155500000Y-96580000D01*
X158970000Y-96580000D02*
X158320000Y-96580000D01*
X158970000Y-92460000D02*
X158320000Y-92460000D01*
X154850000Y-92460000D02*
X155500000Y-92460000D01*
D16*
G04 #@! TO.C,U2*
X170385000Y-89065000D02*
X170385000Y-89090000D01*
X174535000Y-89065000D02*
X174535000Y-89170000D01*
X174535000Y-99215000D02*
X174535000Y-99110000D01*
X170385000Y-99215000D02*
X170385000Y-99110000D01*
X170385000Y-89065000D02*
X174535000Y-89065000D01*
X170385000Y-99215000D02*
X174535000Y-99215000D01*
X170385000Y-89090000D02*
X169010000Y-89090000D01*
G04 #@! TO.C,U3*
X174675000Y-103665000D02*
X174675000Y-103890000D01*
X178025000Y-103665000D02*
X178025000Y-103965000D01*
X178025000Y-108515000D02*
X178025000Y-108215000D01*
X174675000Y-108515000D02*
X174675000Y-108215000D01*
X174675000Y-103665000D02*
X178025000Y-103665000D01*
X174675000Y-108515000D02*
X178025000Y-108515000D01*
X174675000Y-103890000D02*
X173450000Y-103890000D01*
D14*
G04 #@! TO.C,REF\002A\002A*
G36*
X178253910Y-76122348D02*
X178332454Y-76122778D01*
X178389298Y-76123942D01*
X178428105Y-76126207D01*
X178452538Y-76129940D01*
X178466262Y-76135506D01*
X178472940Y-76143273D01*
X178476236Y-76153605D01*
X178476556Y-76154943D01*
X178481562Y-76179079D01*
X178490829Y-76226701D01*
X178503392Y-76292741D01*
X178518287Y-76372128D01*
X178534551Y-76459796D01*
X178535119Y-76462875D01*
X178551410Y-76548789D01*
X178566652Y-76624696D01*
X178579861Y-76686045D01*
X178590054Y-76728282D01*
X178596248Y-76746855D01*
X178596543Y-76747184D01*
X178614788Y-76756253D01*
X178652405Y-76771367D01*
X178701271Y-76789262D01*
X178701543Y-76789358D01*
X178763093Y-76812493D01*
X178835657Y-76841965D01*
X178904057Y-76871597D01*
X178907294Y-76873062D01*
X179018702Y-76923626D01*
X179265399Y-76755160D01*
X179341077Y-76703803D01*
X179409631Y-76657889D01*
X179467088Y-76620030D01*
X179509476Y-76592837D01*
X179532825Y-76578921D01*
X179535042Y-76577889D01*
X179552010Y-76582484D01*
X179583701Y-76604655D01*
X179631352Y-76645447D01*
X179696198Y-76705905D01*
X179762397Y-76770227D01*
X179826214Y-76833612D01*
X179883329Y-76891451D01*
X179930305Y-76940175D01*
X179963703Y-76976210D01*
X179980085Y-76995984D01*
X179980694Y-76997002D01*
X179982505Y-77010572D01*
X179975683Y-77032733D01*
X179958540Y-77066478D01*
X179929393Y-77114800D01*
X179886555Y-77180692D01*
X179829448Y-77265517D01*
X179778766Y-77340177D01*
X179733461Y-77407140D01*
X179696150Y-77462516D01*
X179669452Y-77502420D01*
X179655985Y-77522962D01*
X179655137Y-77524356D01*
X179656781Y-77544038D01*
X179669245Y-77582293D01*
X179690048Y-77631889D01*
X179697462Y-77647728D01*
X179729814Y-77718290D01*
X179764328Y-77798353D01*
X179792365Y-77867629D01*
X179812568Y-77919045D01*
X179828615Y-77958119D01*
X179837888Y-77978541D01*
X179839041Y-77980114D01*
X179856096Y-77982721D01*
X179896298Y-77989863D01*
X179954302Y-78000523D01*
X180024763Y-78013685D01*
X180102335Y-78028333D01*
X180181672Y-78043449D01*
X180257431Y-78058018D01*
X180324264Y-78071022D01*
X180376828Y-78081445D01*
X180409776Y-78088270D01*
X180417857Y-78090199D01*
X180426205Y-78094962D01*
X180432506Y-78105718D01*
X180437045Y-78126098D01*
X180440104Y-78159734D01*
X180441967Y-78210255D01*
X180442918Y-78281292D01*
X180443240Y-78376476D01*
X180443257Y-78415492D01*
X180443257Y-78732799D01*
X180367057Y-78747839D01*
X180324663Y-78755995D01*
X180261400Y-78767899D01*
X180184962Y-78782116D01*
X180103043Y-78797210D01*
X180080400Y-78801355D01*
X180004806Y-78816053D01*
X179938953Y-78830505D01*
X179888366Y-78843375D01*
X179858574Y-78853322D01*
X179853612Y-78856287D01*
X179841426Y-78877283D01*
X179823953Y-78917967D01*
X179804577Y-78970322D01*
X179800734Y-78981600D01*
X179775339Y-79051523D01*
X179743817Y-79130418D01*
X179712969Y-79201266D01*
X179712817Y-79201595D01*
X179661447Y-79312733D01*
X179830399Y-79561253D01*
X179999352Y-79809772D01*
X179782429Y-80027058D01*
X179716819Y-80091726D01*
X179656979Y-80148733D01*
X179606267Y-80195033D01*
X179568046Y-80227584D01*
X179545675Y-80243343D01*
X179542466Y-80244343D01*
X179523626Y-80236469D01*
X179485180Y-80214578D01*
X179431330Y-80181267D01*
X179366276Y-80139131D01*
X179295940Y-80091943D01*
X179224555Y-80043810D01*
X179160908Y-80001928D01*
X179109041Y-79968871D01*
X179072995Y-79947218D01*
X179056867Y-79939543D01*
X179037189Y-79946037D01*
X178999875Y-79963150D01*
X178952621Y-79987326D01*
X178947612Y-79990013D01*
X178883977Y-80021927D01*
X178840341Y-80037579D01*
X178813202Y-80037745D01*
X178799057Y-80023204D01*
X178798975Y-80023000D01*
X178791905Y-80005779D01*
X178775042Y-79964899D01*
X178749695Y-79903525D01*
X178717171Y-79824819D01*
X178678778Y-79731947D01*
X178635822Y-79628072D01*
X178594222Y-79527502D01*
X178548504Y-79416516D01*
X178506526Y-79313703D01*
X178469548Y-79222215D01*
X178438827Y-79145201D01*
X178415622Y-79085815D01*
X178401190Y-79047209D01*
X178396743Y-79032800D01*
X178407896Y-79016272D01*
X178437069Y-78989930D01*
X178475971Y-78960887D01*
X178586757Y-78869039D01*
X178673351Y-78763759D01*
X178734716Y-78647266D01*
X178769815Y-78521776D01*
X178777608Y-78389507D01*
X178771943Y-78328457D01*
X178741078Y-78201795D01*
X178687920Y-78089941D01*
X178615767Y-77994001D01*
X178527917Y-77915076D01*
X178427665Y-77854270D01*
X178318310Y-77812687D01*
X178203147Y-77791428D01*
X178085475Y-77791599D01*
X177968590Y-77814301D01*
X177855789Y-77860638D01*
X177750369Y-77931713D01*
X177706368Y-77971911D01*
X177621979Y-78075129D01*
X177563222Y-78187925D01*
X177529704Y-78307010D01*
X177521035Y-78429095D01*
X177536823Y-78550893D01*
X177576678Y-78669116D01*
X177640207Y-78780475D01*
X177727021Y-78881684D01*
X177824029Y-78960887D01*
X177864437Y-78991162D01*
X177892982Y-79017219D01*
X177903257Y-79032825D01*
X177897877Y-79049843D01*
X177882575Y-79090500D01*
X177858612Y-79151642D01*
X177827244Y-79230119D01*
X177789732Y-79322780D01*
X177747333Y-79426472D01*
X177705663Y-79527526D01*
X177659690Y-79638607D01*
X177617107Y-79741541D01*
X177579221Y-79833165D01*
X177547340Y-79910316D01*
X177522771Y-79969831D01*
X177506820Y-80008544D01*
X177500910Y-80023000D01*
X177486948Y-80037685D01*
X177459940Y-80037642D01*
X177416413Y-80022099D01*
X177352890Y-79990284D01*
X177352388Y-79990013D01*
X177304560Y-79965323D01*
X177265897Y-79947338D01*
X177244095Y-79939614D01*
X177243133Y-79939543D01*
X177226721Y-79947378D01*
X177190487Y-79969165D01*
X177138474Y-80002328D01*
X177074725Y-80044291D01*
X177004060Y-80091943D01*
X176932116Y-80140191D01*
X176867274Y-80182151D01*
X176813735Y-80215227D01*
X176775697Y-80236821D01*
X176757533Y-80244343D01*
X176740808Y-80234457D01*
X176707180Y-80206826D01*
X176660010Y-80164495D01*
X176602658Y-80110505D01*
X176538484Y-80047899D01*
X176517497Y-80026983D01*
X176300499Y-79809623D01*
X176465668Y-79567220D01*
X176515864Y-79492781D01*
X176559919Y-79425972D01*
X176595362Y-79370665D01*
X176619719Y-79330729D01*
X176630522Y-79310036D01*
X176630838Y-79308563D01*
X176625143Y-79289058D01*
X176609826Y-79249822D01*
X176587537Y-79197430D01*
X176571893Y-79162355D01*
X176542641Y-79095201D01*
X176515094Y-79027358D01*
X176493737Y-78970034D01*
X176487935Y-78952572D01*
X176471452Y-78905938D01*
X176455340Y-78869905D01*
X176446490Y-78856287D01*
X176426960Y-78847952D01*
X176384334Y-78836137D01*
X176324145Y-78822181D01*
X176251922Y-78807422D01*
X176219600Y-78801355D01*
X176137522Y-78786273D01*
X176058795Y-78771669D01*
X175991109Y-78758980D01*
X175942160Y-78749642D01*
X175932943Y-78747839D01*
X175856743Y-78732799D01*
X175856743Y-78415492D01*
X175856914Y-78311154D01*
X175857616Y-78232213D01*
X175859134Y-78175038D01*
X175861749Y-78135999D01*
X175865746Y-78111465D01*
X175871409Y-78097805D01*
X175879020Y-78091389D01*
X175882143Y-78090199D01*
X175900978Y-78085980D01*
X175942588Y-78077562D01*
X176001630Y-78065961D01*
X176072757Y-78052195D01*
X176150625Y-78037280D01*
X176229887Y-78022232D01*
X176305198Y-78008069D01*
X176371213Y-77995806D01*
X176422587Y-77986461D01*
X176453975Y-77981050D01*
X176460959Y-77980114D01*
X176467285Y-77967596D01*
X176481290Y-77934246D01*
X176500355Y-77886377D01*
X176507634Y-77867629D01*
X176536996Y-77795195D01*
X176571571Y-77715170D01*
X176602537Y-77647728D01*
X176625323Y-77596159D01*
X176640482Y-77553785D01*
X176645542Y-77527834D01*
X176644736Y-77524356D01*
X176634041Y-77507936D01*
X176609620Y-77471417D01*
X176574095Y-77418687D01*
X176530087Y-77353635D01*
X176480217Y-77280151D01*
X176470356Y-77265645D01*
X176412492Y-77179704D01*
X176369956Y-77114261D01*
X176341054Y-77066304D01*
X176324090Y-77032820D01*
X176317367Y-77010795D01*
X176319190Y-76997217D01*
X176319236Y-76997131D01*
X176333586Y-76979297D01*
X176365323Y-76944817D01*
X176411010Y-76897268D01*
X176467204Y-76840222D01*
X176530468Y-76777255D01*
X176537602Y-76770227D01*
X176617330Y-76693020D01*
X176678857Y-76636330D01*
X176723421Y-76599110D01*
X176752257Y-76580315D01*
X176764958Y-76577889D01*
X176783494Y-76588471D01*
X176821961Y-76612916D01*
X176876386Y-76648612D01*
X176942798Y-76692947D01*
X177017225Y-76743311D01*
X177034601Y-76755160D01*
X177281297Y-76923626D01*
X177392706Y-76873062D01*
X177460457Y-76843595D01*
X177533183Y-76813959D01*
X177595703Y-76790330D01*
X177598457Y-76789358D01*
X177647360Y-76771457D01*
X177685057Y-76756320D01*
X177703425Y-76747210D01*
X177703456Y-76747184D01*
X177709285Y-76730717D01*
X177719192Y-76690219D01*
X177732195Y-76630242D01*
X177747309Y-76555340D01*
X177763552Y-76470064D01*
X177764881Y-76462875D01*
X177781175Y-76375014D01*
X177796133Y-76295260D01*
X177808791Y-76228681D01*
X177818186Y-76180347D01*
X177823354Y-76155325D01*
X177823444Y-76154943D01*
X177826589Y-76144299D01*
X177832704Y-76136262D01*
X177845453Y-76130467D01*
X177868500Y-76126547D01*
X177905509Y-76124135D01*
X177960144Y-76122865D01*
X178036067Y-76122371D01*
X178136944Y-76122286D01*
X178150000Y-76122286D01*
X178253910Y-76122348D01*
X178253910Y-76122348D01*
G37*
X178253910Y-76122348D02*
X178332454Y-76122778D01*
X178389298Y-76123942D01*
X178428105Y-76126207D01*
X178452538Y-76129940D01*
X178466262Y-76135506D01*
X178472940Y-76143273D01*
X178476236Y-76153605D01*
X178476556Y-76154943D01*
X178481562Y-76179079D01*
X178490829Y-76226701D01*
X178503392Y-76292741D01*
X178518287Y-76372128D01*
X178534551Y-76459796D01*
X178535119Y-76462875D01*
X178551410Y-76548789D01*
X178566652Y-76624696D01*
X178579861Y-76686045D01*
X178590054Y-76728282D01*
X178596248Y-76746855D01*
X178596543Y-76747184D01*
X178614788Y-76756253D01*
X178652405Y-76771367D01*
X178701271Y-76789262D01*
X178701543Y-76789358D01*
X178763093Y-76812493D01*
X178835657Y-76841965D01*
X178904057Y-76871597D01*
X178907294Y-76873062D01*
X179018702Y-76923626D01*
X179265399Y-76755160D01*
X179341077Y-76703803D01*
X179409631Y-76657889D01*
X179467088Y-76620030D01*
X179509476Y-76592837D01*
X179532825Y-76578921D01*
X179535042Y-76577889D01*
X179552010Y-76582484D01*
X179583701Y-76604655D01*
X179631352Y-76645447D01*
X179696198Y-76705905D01*
X179762397Y-76770227D01*
X179826214Y-76833612D01*
X179883329Y-76891451D01*
X179930305Y-76940175D01*
X179963703Y-76976210D01*
X179980085Y-76995984D01*
X179980694Y-76997002D01*
X179982505Y-77010572D01*
X179975683Y-77032733D01*
X179958540Y-77066478D01*
X179929393Y-77114800D01*
X179886555Y-77180692D01*
X179829448Y-77265517D01*
X179778766Y-77340177D01*
X179733461Y-77407140D01*
X179696150Y-77462516D01*
X179669452Y-77502420D01*
X179655985Y-77522962D01*
X179655137Y-77524356D01*
X179656781Y-77544038D01*
X179669245Y-77582293D01*
X179690048Y-77631889D01*
X179697462Y-77647728D01*
X179729814Y-77718290D01*
X179764328Y-77798353D01*
X179792365Y-77867629D01*
X179812568Y-77919045D01*
X179828615Y-77958119D01*
X179837888Y-77978541D01*
X179839041Y-77980114D01*
X179856096Y-77982721D01*
X179896298Y-77989863D01*
X179954302Y-78000523D01*
X180024763Y-78013685D01*
X180102335Y-78028333D01*
X180181672Y-78043449D01*
X180257431Y-78058018D01*
X180324264Y-78071022D01*
X180376828Y-78081445D01*
X180409776Y-78088270D01*
X180417857Y-78090199D01*
X180426205Y-78094962D01*
X180432506Y-78105718D01*
X180437045Y-78126098D01*
X180440104Y-78159734D01*
X180441967Y-78210255D01*
X180442918Y-78281292D01*
X180443240Y-78376476D01*
X180443257Y-78415492D01*
X180443257Y-78732799D01*
X180367057Y-78747839D01*
X180324663Y-78755995D01*
X180261400Y-78767899D01*
X180184962Y-78782116D01*
X180103043Y-78797210D01*
X180080400Y-78801355D01*
X180004806Y-78816053D01*
X179938953Y-78830505D01*
X179888366Y-78843375D01*
X179858574Y-78853322D01*
X179853612Y-78856287D01*
X179841426Y-78877283D01*
X179823953Y-78917967D01*
X179804577Y-78970322D01*
X179800734Y-78981600D01*
X179775339Y-79051523D01*
X179743817Y-79130418D01*
X179712969Y-79201266D01*
X179712817Y-79201595D01*
X179661447Y-79312733D01*
X179830399Y-79561253D01*
X179999352Y-79809772D01*
X179782429Y-80027058D01*
X179716819Y-80091726D01*
X179656979Y-80148733D01*
X179606267Y-80195033D01*
X179568046Y-80227584D01*
X179545675Y-80243343D01*
X179542466Y-80244343D01*
X179523626Y-80236469D01*
X179485180Y-80214578D01*
X179431330Y-80181267D01*
X179366276Y-80139131D01*
X179295940Y-80091943D01*
X179224555Y-80043810D01*
X179160908Y-80001928D01*
X179109041Y-79968871D01*
X179072995Y-79947218D01*
X179056867Y-79939543D01*
X179037189Y-79946037D01*
X178999875Y-79963150D01*
X178952621Y-79987326D01*
X178947612Y-79990013D01*
X178883977Y-80021927D01*
X178840341Y-80037579D01*
X178813202Y-80037745D01*
X178799057Y-80023204D01*
X178798975Y-80023000D01*
X178791905Y-80005779D01*
X178775042Y-79964899D01*
X178749695Y-79903525D01*
X178717171Y-79824819D01*
X178678778Y-79731947D01*
X178635822Y-79628072D01*
X178594222Y-79527502D01*
X178548504Y-79416516D01*
X178506526Y-79313703D01*
X178469548Y-79222215D01*
X178438827Y-79145201D01*
X178415622Y-79085815D01*
X178401190Y-79047209D01*
X178396743Y-79032800D01*
X178407896Y-79016272D01*
X178437069Y-78989930D01*
X178475971Y-78960887D01*
X178586757Y-78869039D01*
X178673351Y-78763759D01*
X178734716Y-78647266D01*
X178769815Y-78521776D01*
X178777608Y-78389507D01*
X178771943Y-78328457D01*
X178741078Y-78201795D01*
X178687920Y-78089941D01*
X178615767Y-77994001D01*
X178527917Y-77915076D01*
X178427665Y-77854270D01*
X178318310Y-77812687D01*
X178203147Y-77791428D01*
X178085475Y-77791599D01*
X177968590Y-77814301D01*
X177855789Y-77860638D01*
X177750369Y-77931713D01*
X177706368Y-77971911D01*
X177621979Y-78075129D01*
X177563222Y-78187925D01*
X177529704Y-78307010D01*
X177521035Y-78429095D01*
X177536823Y-78550893D01*
X177576678Y-78669116D01*
X177640207Y-78780475D01*
X177727021Y-78881684D01*
X177824029Y-78960887D01*
X177864437Y-78991162D01*
X177892982Y-79017219D01*
X177903257Y-79032825D01*
X177897877Y-79049843D01*
X177882575Y-79090500D01*
X177858612Y-79151642D01*
X177827244Y-79230119D01*
X177789732Y-79322780D01*
X177747333Y-79426472D01*
X177705663Y-79527526D01*
X177659690Y-79638607D01*
X177617107Y-79741541D01*
X177579221Y-79833165D01*
X177547340Y-79910316D01*
X177522771Y-79969831D01*
X177506820Y-80008544D01*
X177500910Y-80023000D01*
X177486948Y-80037685D01*
X177459940Y-80037642D01*
X177416413Y-80022099D01*
X177352890Y-79990284D01*
X177352388Y-79990013D01*
X177304560Y-79965323D01*
X177265897Y-79947338D01*
X177244095Y-79939614D01*
X177243133Y-79939543D01*
X177226721Y-79947378D01*
X177190487Y-79969165D01*
X177138474Y-80002328D01*
X177074725Y-80044291D01*
X177004060Y-80091943D01*
X176932116Y-80140191D01*
X176867274Y-80182151D01*
X176813735Y-80215227D01*
X176775697Y-80236821D01*
X176757533Y-80244343D01*
X176740808Y-80234457D01*
X176707180Y-80206826D01*
X176660010Y-80164495D01*
X176602658Y-80110505D01*
X176538484Y-80047899D01*
X176517497Y-80026983D01*
X176300499Y-79809623D01*
X176465668Y-79567220D01*
X176515864Y-79492781D01*
X176559919Y-79425972D01*
X176595362Y-79370665D01*
X176619719Y-79330729D01*
X176630522Y-79310036D01*
X176630838Y-79308563D01*
X176625143Y-79289058D01*
X176609826Y-79249822D01*
X176587537Y-79197430D01*
X176571893Y-79162355D01*
X176542641Y-79095201D01*
X176515094Y-79027358D01*
X176493737Y-78970034D01*
X176487935Y-78952572D01*
X176471452Y-78905938D01*
X176455340Y-78869905D01*
X176446490Y-78856287D01*
X176426960Y-78847952D01*
X176384334Y-78836137D01*
X176324145Y-78822181D01*
X176251922Y-78807422D01*
X176219600Y-78801355D01*
X176137522Y-78786273D01*
X176058795Y-78771669D01*
X175991109Y-78758980D01*
X175942160Y-78749642D01*
X175932943Y-78747839D01*
X175856743Y-78732799D01*
X175856743Y-78415492D01*
X175856914Y-78311154D01*
X175857616Y-78232213D01*
X175859134Y-78175038D01*
X175861749Y-78135999D01*
X175865746Y-78111465D01*
X175871409Y-78097805D01*
X175879020Y-78091389D01*
X175882143Y-78090199D01*
X175900978Y-78085980D01*
X175942588Y-78077562D01*
X176001630Y-78065961D01*
X176072757Y-78052195D01*
X176150625Y-78037280D01*
X176229887Y-78022232D01*
X176305198Y-78008069D01*
X176371213Y-77995806D01*
X176422587Y-77986461D01*
X176453975Y-77981050D01*
X176460959Y-77980114D01*
X176467285Y-77967596D01*
X176481290Y-77934246D01*
X176500355Y-77886377D01*
X176507634Y-77867629D01*
X176536996Y-77795195D01*
X176571571Y-77715170D01*
X176602537Y-77647728D01*
X176625323Y-77596159D01*
X176640482Y-77553785D01*
X176645542Y-77527834D01*
X176644736Y-77524356D01*
X176634041Y-77507936D01*
X176609620Y-77471417D01*
X176574095Y-77418687D01*
X176530087Y-77353635D01*
X176480217Y-77280151D01*
X176470356Y-77265645D01*
X176412492Y-77179704D01*
X176369956Y-77114261D01*
X176341054Y-77066304D01*
X176324090Y-77032820D01*
X176317367Y-77010795D01*
X176319190Y-76997217D01*
X176319236Y-76997131D01*
X176333586Y-76979297D01*
X176365323Y-76944817D01*
X176411010Y-76897268D01*
X176467204Y-76840222D01*
X176530468Y-76777255D01*
X176537602Y-76770227D01*
X176617330Y-76693020D01*
X176678857Y-76636330D01*
X176723421Y-76599110D01*
X176752257Y-76580315D01*
X176764958Y-76577889D01*
X176783494Y-76588471D01*
X176821961Y-76612916D01*
X176876386Y-76648612D01*
X176942798Y-76692947D01*
X177017225Y-76743311D01*
X177034601Y-76755160D01*
X177281297Y-76923626D01*
X177392706Y-76873062D01*
X177460457Y-76843595D01*
X177533183Y-76813959D01*
X177595703Y-76790330D01*
X177598457Y-76789358D01*
X177647360Y-76771457D01*
X177685057Y-76756320D01*
X177703425Y-76747210D01*
X177703456Y-76747184D01*
X177709285Y-76730717D01*
X177719192Y-76690219D01*
X177732195Y-76630242D01*
X177747309Y-76555340D01*
X177763552Y-76470064D01*
X177764881Y-76462875D01*
X177781175Y-76375014D01*
X177796133Y-76295260D01*
X177808791Y-76228681D01*
X177818186Y-76180347D01*
X177823354Y-76155325D01*
X177823444Y-76154943D01*
X177826589Y-76144299D01*
X177832704Y-76136262D01*
X177845453Y-76130467D01*
X177868500Y-76126547D01*
X177905509Y-76124135D01*
X177960144Y-76122865D01*
X178036067Y-76122371D01*
X178136944Y-76122286D01*
X178150000Y-76122286D01*
X178253910Y-76122348D01*
G36*
X181303595Y-80846966D02*
X181361021Y-80884497D01*
X181388719Y-80918096D01*
X181410662Y-80979064D01*
X181412405Y-81027308D01*
X181408457Y-81091816D01*
X181259686Y-81156934D01*
X181187349Y-81190202D01*
X181140084Y-81216964D01*
X181115507Y-81240144D01*
X181111237Y-81262667D01*
X181124889Y-81287455D01*
X181139943Y-81303886D01*
X181183746Y-81330235D01*
X181231389Y-81332081D01*
X181275145Y-81311546D01*
X181307289Y-81270752D01*
X181313038Y-81256347D01*
X181340576Y-81211356D01*
X181372258Y-81192182D01*
X181415714Y-81175779D01*
X181415714Y-81237966D01*
X181411872Y-81280283D01*
X181396823Y-81315969D01*
X181365280Y-81356943D01*
X181360592Y-81362267D01*
X181325506Y-81398720D01*
X181295347Y-81418283D01*
X181257615Y-81427283D01*
X181226335Y-81430230D01*
X181170385Y-81430965D01*
X181130555Y-81421660D01*
X181105708Y-81407846D01*
X181066656Y-81377467D01*
X181039625Y-81344613D01*
X181022517Y-81303294D01*
X181013238Y-81247521D01*
X181009693Y-81171305D01*
X181009410Y-81132622D01*
X181010372Y-81086247D01*
X181098007Y-81086247D01*
X181099023Y-81111126D01*
X181101556Y-81115200D01*
X181118274Y-81109665D01*
X181154249Y-81095017D01*
X181202331Y-81074190D01*
X181212386Y-81069714D01*
X181273152Y-81038814D01*
X181306632Y-81011657D01*
X181313990Y-80986220D01*
X181296391Y-80960481D01*
X181281856Y-80949109D01*
X181229410Y-80926364D01*
X181180322Y-80930122D01*
X181139227Y-80957884D01*
X181110758Y-81007152D01*
X181101631Y-81046257D01*
X181098007Y-81086247D01*
X181010372Y-81086247D01*
X181011285Y-81042249D01*
X181018196Y-80975384D01*
X181031884Y-80926695D01*
X181054096Y-80890849D01*
X181086574Y-80862513D01*
X181100733Y-80853355D01*
X181165053Y-80829507D01*
X181235473Y-80828006D01*
X181303595Y-80846966D01*
X181303595Y-80846966D01*
G37*
X181303595Y-80846966D02*
X181361021Y-80884497D01*
X181388719Y-80918096D01*
X181410662Y-80979064D01*
X181412405Y-81027308D01*
X181408457Y-81091816D01*
X181259686Y-81156934D01*
X181187349Y-81190202D01*
X181140084Y-81216964D01*
X181115507Y-81240144D01*
X181111237Y-81262667D01*
X181124889Y-81287455D01*
X181139943Y-81303886D01*
X181183746Y-81330235D01*
X181231389Y-81332081D01*
X181275145Y-81311546D01*
X181307289Y-81270752D01*
X181313038Y-81256347D01*
X181340576Y-81211356D01*
X181372258Y-81192182D01*
X181415714Y-81175779D01*
X181415714Y-81237966D01*
X181411872Y-81280283D01*
X181396823Y-81315969D01*
X181365280Y-81356943D01*
X181360592Y-81362267D01*
X181325506Y-81398720D01*
X181295347Y-81418283D01*
X181257615Y-81427283D01*
X181226335Y-81430230D01*
X181170385Y-81430965D01*
X181130555Y-81421660D01*
X181105708Y-81407846D01*
X181066656Y-81377467D01*
X181039625Y-81344613D01*
X181022517Y-81303294D01*
X181013238Y-81247521D01*
X181009693Y-81171305D01*
X181009410Y-81132622D01*
X181010372Y-81086247D01*
X181098007Y-81086247D01*
X181099023Y-81111126D01*
X181101556Y-81115200D01*
X181118274Y-81109665D01*
X181154249Y-81095017D01*
X181202331Y-81074190D01*
X181212386Y-81069714D01*
X181273152Y-81038814D01*
X181306632Y-81011657D01*
X181313990Y-80986220D01*
X181296391Y-80960481D01*
X181281856Y-80949109D01*
X181229410Y-80926364D01*
X181180322Y-80930122D01*
X181139227Y-80957884D01*
X181110758Y-81007152D01*
X181101631Y-81046257D01*
X181098007Y-81086247D01*
X181010372Y-81086247D01*
X181011285Y-81042249D01*
X181018196Y-80975384D01*
X181031884Y-80926695D01*
X181054096Y-80890849D01*
X181086574Y-80862513D01*
X181100733Y-80853355D01*
X181165053Y-80829507D01*
X181235473Y-80828006D01*
X181303595Y-80846966D01*
G36*
X180802600Y-80838752D02*
X180819948Y-80846334D01*
X180861356Y-80879128D01*
X180896765Y-80926547D01*
X180918664Y-80977151D01*
X180922229Y-81002098D01*
X180910279Y-81036927D01*
X180884067Y-81055357D01*
X180855964Y-81066516D01*
X180843095Y-81068572D01*
X180836829Y-81053649D01*
X180824456Y-81021175D01*
X180819028Y-81006502D01*
X180788590Y-80955744D01*
X180744520Y-80930427D01*
X180688010Y-80931206D01*
X180683825Y-80932203D01*
X180653655Y-80946507D01*
X180631476Y-80974393D01*
X180616327Y-81019287D01*
X180607250Y-81084615D01*
X180603286Y-81173804D01*
X180602914Y-81221261D01*
X180602730Y-81296071D01*
X180601522Y-81347069D01*
X180598309Y-81379471D01*
X180592109Y-81398495D01*
X180581940Y-81409356D01*
X180566819Y-81417272D01*
X180565946Y-81417670D01*
X180536828Y-81429981D01*
X180522403Y-81434514D01*
X180520186Y-81420809D01*
X180518289Y-81382925D01*
X180516847Y-81325715D01*
X180515998Y-81254027D01*
X180515829Y-81201565D01*
X180516692Y-81100047D01*
X180520070Y-81023032D01*
X180527142Y-80966023D01*
X180539088Y-80924526D01*
X180557090Y-80894043D01*
X180582327Y-80870080D01*
X180607247Y-80853355D01*
X180667171Y-80831097D01*
X180736911Y-80826076D01*
X180802600Y-80838752D01*
X180802600Y-80838752D01*
G37*
X180802600Y-80838752D02*
X180819948Y-80846334D01*
X180861356Y-80879128D01*
X180896765Y-80926547D01*
X180918664Y-80977151D01*
X180922229Y-81002098D01*
X180910279Y-81036927D01*
X180884067Y-81055357D01*
X180855964Y-81066516D01*
X180843095Y-81068572D01*
X180836829Y-81053649D01*
X180824456Y-81021175D01*
X180819028Y-81006502D01*
X180788590Y-80955744D01*
X180744520Y-80930427D01*
X180688010Y-80931206D01*
X180683825Y-80932203D01*
X180653655Y-80946507D01*
X180631476Y-80974393D01*
X180616327Y-81019287D01*
X180607250Y-81084615D01*
X180603286Y-81173804D01*
X180602914Y-81221261D01*
X180602730Y-81296071D01*
X180601522Y-81347069D01*
X180598309Y-81379471D01*
X180592109Y-81398495D01*
X180581940Y-81409356D01*
X180566819Y-81417272D01*
X180565946Y-81417670D01*
X180536828Y-81429981D01*
X180522403Y-81434514D01*
X180520186Y-81420809D01*
X180518289Y-81382925D01*
X180516847Y-81325715D01*
X180515998Y-81254027D01*
X180515829Y-81201565D01*
X180516692Y-81100047D01*
X180520070Y-81023032D01*
X180527142Y-80966023D01*
X180539088Y-80924526D01*
X180557090Y-80894043D01*
X180582327Y-80870080D01*
X180607247Y-80853355D01*
X180667171Y-80831097D01*
X180736911Y-80826076D01*
X180802600Y-80838752D01*
G36*
X180294876Y-80836335D02*
X180336667Y-80855344D01*
X180369469Y-80878378D01*
X180393503Y-80904133D01*
X180410097Y-80937358D01*
X180420577Y-80982800D01*
X180426271Y-81045207D01*
X180428507Y-81129327D01*
X180428743Y-81184721D01*
X180428743Y-81400826D01*
X180391774Y-81417670D01*
X180362656Y-81429981D01*
X180348231Y-81434514D01*
X180345472Y-81421025D01*
X180343282Y-81384653D01*
X180341942Y-81331542D01*
X180341657Y-81289372D01*
X180340434Y-81228447D01*
X180337136Y-81180115D01*
X180332321Y-81150518D01*
X180328496Y-81144229D01*
X180302783Y-81150652D01*
X180262418Y-81167125D01*
X180215679Y-81189458D01*
X180170845Y-81213457D01*
X180136193Y-81234930D01*
X180120002Y-81249685D01*
X180119938Y-81249845D01*
X180121330Y-81277152D01*
X180133818Y-81303219D01*
X180155743Y-81324392D01*
X180187743Y-81331474D01*
X180215092Y-81330649D01*
X180253826Y-81330042D01*
X180274158Y-81339116D01*
X180286369Y-81363092D01*
X180287909Y-81367613D01*
X180293203Y-81401806D01*
X180279047Y-81422568D01*
X180242148Y-81432462D01*
X180202289Y-81434292D01*
X180130562Y-81420727D01*
X180093432Y-81401355D01*
X180047576Y-81355845D01*
X180023256Y-81299983D01*
X180021073Y-81240957D01*
X180041629Y-81185953D01*
X180072549Y-81151486D01*
X180103420Y-81132189D01*
X180151942Y-81107759D01*
X180208485Y-81082985D01*
X180217910Y-81079199D01*
X180280019Y-81051791D01*
X180315822Y-81027634D01*
X180327337Y-81003619D01*
X180316580Y-80976635D01*
X180298114Y-80955543D01*
X180254469Y-80929572D01*
X180206446Y-80927624D01*
X180162406Y-80947637D01*
X180130709Y-80987551D01*
X180126549Y-80997848D01*
X180102327Y-81035724D01*
X180066965Y-81063842D01*
X180022343Y-81086917D01*
X180022343Y-81021485D01*
X180024969Y-80981506D01*
X180036230Y-80949997D01*
X180061199Y-80916378D01*
X180085169Y-80890484D01*
X180122441Y-80853817D01*
X180151401Y-80834121D01*
X180182505Y-80826220D01*
X180217713Y-80824914D01*
X180294876Y-80836335D01*
X180294876Y-80836335D01*
G37*
X180294876Y-80836335D02*
X180336667Y-80855344D01*
X180369469Y-80878378D01*
X180393503Y-80904133D01*
X180410097Y-80937358D01*
X180420577Y-80982800D01*
X180426271Y-81045207D01*
X180428507Y-81129327D01*
X180428743Y-81184721D01*
X180428743Y-81400826D01*
X180391774Y-81417670D01*
X180362656Y-81429981D01*
X180348231Y-81434514D01*
X180345472Y-81421025D01*
X180343282Y-81384653D01*
X180341942Y-81331542D01*
X180341657Y-81289372D01*
X180340434Y-81228447D01*
X180337136Y-81180115D01*
X180332321Y-81150518D01*
X180328496Y-81144229D01*
X180302783Y-81150652D01*
X180262418Y-81167125D01*
X180215679Y-81189458D01*
X180170845Y-81213457D01*
X180136193Y-81234930D01*
X180120002Y-81249685D01*
X180119938Y-81249845D01*
X180121330Y-81277152D01*
X180133818Y-81303219D01*
X180155743Y-81324392D01*
X180187743Y-81331474D01*
X180215092Y-81330649D01*
X180253826Y-81330042D01*
X180274158Y-81339116D01*
X180286369Y-81363092D01*
X180287909Y-81367613D01*
X180293203Y-81401806D01*
X180279047Y-81422568D01*
X180242148Y-81432462D01*
X180202289Y-81434292D01*
X180130562Y-81420727D01*
X180093432Y-81401355D01*
X180047576Y-81355845D01*
X180023256Y-81299983D01*
X180021073Y-81240957D01*
X180041629Y-81185953D01*
X180072549Y-81151486D01*
X180103420Y-81132189D01*
X180151942Y-81107759D01*
X180208485Y-81082985D01*
X180217910Y-81079199D01*
X180280019Y-81051791D01*
X180315822Y-81027634D01*
X180327337Y-81003619D01*
X180316580Y-80976635D01*
X180298114Y-80955543D01*
X180254469Y-80929572D01*
X180206446Y-80927624D01*
X180162406Y-80947637D01*
X180130709Y-80987551D01*
X180126549Y-80997848D01*
X180102327Y-81035724D01*
X180066965Y-81063842D01*
X180022343Y-81086917D01*
X180022343Y-81021485D01*
X180024969Y-80981506D01*
X180036230Y-80949997D01*
X180061199Y-80916378D01*
X180085169Y-80890484D01*
X180122441Y-80853817D01*
X180151401Y-80834121D01*
X180182505Y-80826220D01*
X180217713Y-80824914D01*
X180294876Y-80836335D01*
G36*
X179929833Y-80838663D02*
X179932048Y-80876850D01*
X179933784Y-80934886D01*
X179934899Y-81008180D01*
X179935257Y-81085055D01*
X179935257Y-81345196D01*
X179889326Y-81391127D01*
X179857675Y-81419429D01*
X179829890Y-81430893D01*
X179791915Y-81430168D01*
X179776840Y-81428321D01*
X179729726Y-81422948D01*
X179690756Y-81419869D01*
X179681257Y-81419585D01*
X179649233Y-81421445D01*
X179603432Y-81426114D01*
X179585674Y-81428321D01*
X179542057Y-81431735D01*
X179512745Y-81424320D01*
X179483680Y-81401427D01*
X179473188Y-81391127D01*
X179427257Y-81345196D01*
X179427257Y-80858602D01*
X179464226Y-80841758D01*
X179496059Y-80829282D01*
X179514683Y-80824914D01*
X179519458Y-80838718D01*
X179523921Y-80877286D01*
X179527775Y-80936356D01*
X179530722Y-81011663D01*
X179532143Y-81075286D01*
X179536114Y-81325657D01*
X179570759Y-81330556D01*
X179602268Y-81327131D01*
X179617708Y-81316041D01*
X179622023Y-81295308D01*
X179625708Y-81251145D01*
X179628469Y-81189146D01*
X179630012Y-81114909D01*
X179630235Y-81076706D01*
X179630457Y-80856783D01*
X179676166Y-80840849D01*
X179708518Y-80830015D01*
X179726115Y-80824962D01*
X179726623Y-80824914D01*
X179728388Y-80838648D01*
X179730329Y-80876730D01*
X179732282Y-80934482D01*
X179734084Y-81007227D01*
X179735343Y-81075286D01*
X179739314Y-81325657D01*
X179826400Y-81325657D01*
X179830396Y-81097240D01*
X179834392Y-80868822D01*
X179876847Y-80846868D01*
X179908192Y-80831793D01*
X179926744Y-80824951D01*
X179927279Y-80824914D01*
X179929833Y-80838663D01*
X179929833Y-80838663D01*
G37*
X179929833Y-80838663D02*
X179932048Y-80876850D01*
X179933784Y-80934886D01*
X179934899Y-81008180D01*
X179935257Y-81085055D01*
X179935257Y-81345196D01*
X179889326Y-81391127D01*
X179857675Y-81419429D01*
X179829890Y-81430893D01*
X179791915Y-81430168D01*
X179776840Y-81428321D01*
X179729726Y-81422948D01*
X179690756Y-81419869D01*
X179681257Y-81419585D01*
X179649233Y-81421445D01*
X179603432Y-81426114D01*
X179585674Y-81428321D01*
X179542057Y-81431735D01*
X179512745Y-81424320D01*
X179483680Y-81401427D01*
X179473188Y-81391127D01*
X179427257Y-81345196D01*
X179427257Y-80858602D01*
X179464226Y-80841758D01*
X179496059Y-80829282D01*
X179514683Y-80824914D01*
X179519458Y-80838718D01*
X179523921Y-80877286D01*
X179527775Y-80936356D01*
X179530722Y-81011663D01*
X179532143Y-81075286D01*
X179536114Y-81325657D01*
X179570759Y-81330556D01*
X179602268Y-81327131D01*
X179617708Y-81316041D01*
X179622023Y-81295308D01*
X179625708Y-81251145D01*
X179628469Y-81189146D01*
X179630012Y-81114909D01*
X179630235Y-81076706D01*
X179630457Y-80856783D01*
X179676166Y-80840849D01*
X179708518Y-80830015D01*
X179726115Y-80824962D01*
X179726623Y-80824914D01*
X179728388Y-80838648D01*
X179730329Y-80876730D01*
X179732282Y-80934482D01*
X179734084Y-81007227D01*
X179735343Y-81075286D01*
X179739314Y-81325657D01*
X179826400Y-81325657D01*
X179830396Y-81097240D01*
X179834392Y-80868822D01*
X179876847Y-80846868D01*
X179908192Y-80831793D01*
X179926744Y-80824951D01*
X179927279Y-80824914D01*
X179929833Y-80838663D01*
G36*
X179340117Y-80945358D02*
X179339933Y-81053837D01*
X179339219Y-81137287D01*
X179337675Y-81199704D01*
X179335001Y-81245085D01*
X179330894Y-81277429D01*
X179325055Y-81300733D01*
X179317182Y-81318995D01*
X179311221Y-81329418D01*
X179261855Y-81385945D01*
X179199264Y-81421377D01*
X179130013Y-81434090D01*
X179060668Y-81422463D01*
X179019375Y-81401568D01*
X178976025Y-81365422D01*
X178946481Y-81321276D01*
X178928655Y-81263462D01*
X178920463Y-81186313D01*
X178919302Y-81129714D01*
X178919458Y-81125647D01*
X179020857Y-81125647D01*
X179021476Y-81190550D01*
X179024314Y-81233514D01*
X179030840Y-81261622D01*
X179042523Y-81281953D01*
X179056483Y-81297288D01*
X179103365Y-81326890D01*
X179153701Y-81329419D01*
X179201276Y-81304705D01*
X179204979Y-81301356D01*
X179220783Y-81283935D01*
X179230693Y-81263209D01*
X179236058Y-81232362D01*
X179238228Y-81184577D01*
X179238571Y-81131748D01*
X179237827Y-81065381D01*
X179234748Y-81021106D01*
X179228061Y-80992009D01*
X179216496Y-80971173D01*
X179207013Y-80960107D01*
X179162960Y-80932198D01*
X179112224Y-80928843D01*
X179063796Y-80950159D01*
X179054450Y-80958073D01*
X179038540Y-80975647D01*
X179028610Y-80996587D01*
X179023278Y-81027782D01*
X179021163Y-81076122D01*
X179020857Y-81125647D01*
X178919458Y-81125647D01*
X178922810Y-81038568D01*
X178934726Y-80970086D01*
X178957135Y-80918600D01*
X178992124Y-80878443D01*
X179019375Y-80857861D01*
X179068907Y-80835625D01*
X179126316Y-80825304D01*
X179179682Y-80828067D01*
X179209543Y-80839212D01*
X179221261Y-80842383D01*
X179229037Y-80830557D01*
X179234465Y-80798866D01*
X179238571Y-80750593D01*
X179243067Y-80696829D01*
X179249313Y-80664482D01*
X179260676Y-80645985D01*
X179280528Y-80633770D01*
X179293000Y-80628362D01*
X179340171Y-80608601D01*
X179340117Y-80945358D01*
X179340117Y-80945358D01*
G37*
X179340117Y-80945358D02*
X179339933Y-81053837D01*
X179339219Y-81137287D01*
X179337675Y-81199704D01*
X179335001Y-81245085D01*
X179330894Y-81277429D01*
X179325055Y-81300733D01*
X179317182Y-81318995D01*
X179311221Y-81329418D01*
X179261855Y-81385945D01*
X179199264Y-81421377D01*
X179130013Y-81434090D01*
X179060668Y-81422463D01*
X179019375Y-81401568D01*
X178976025Y-81365422D01*
X178946481Y-81321276D01*
X178928655Y-81263462D01*
X178920463Y-81186313D01*
X178919302Y-81129714D01*
X178919458Y-81125647D01*
X179020857Y-81125647D01*
X179021476Y-81190550D01*
X179024314Y-81233514D01*
X179030840Y-81261622D01*
X179042523Y-81281953D01*
X179056483Y-81297288D01*
X179103365Y-81326890D01*
X179153701Y-81329419D01*
X179201276Y-81304705D01*
X179204979Y-81301356D01*
X179220783Y-81283935D01*
X179230693Y-81263209D01*
X179236058Y-81232362D01*
X179238228Y-81184577D01*
X179238571Y-81131748D01*
X179237827Y-81065381D01*
X179234748Y-81021106D01*
X179228061Y-80992009D01*
X179216496Y-80971173D01*
X179207013Y-80960107D01*
X179162960Y-80932198D01*
X179112224Y-80928843D01*
X179063796Y-80950159D01*
X179054450Y-80958073D01*
X179038540Y-80975647D01*
X179028610Y-80996587D01*
X179023278Y-81027782D01*
X179021163Y-81076122D01*
X179020857Y-81125647D01*
X178919458Y-81125647D01*
X178922810Y-81038568D01*
X178934726Y-80970086D01*
X178957135Y-80918600D01*
X178992124Y-80878443D01*
X179019375Y-80857861D01*
X179068907Y-80835625D01*
X179126316Y-80825304D01*
X179179682Y-80828067D01*
X179209543Y-80839212D01*
X179221261Y-80842383D01*
X179229037Y-80830557D01*
X179234465Y-80798866D01*
X179238571Y-80750593D01*
X179243067Y-80696829D01*
X179249313Y-80664482D01*
X179260676Y-80645985D01*
X179280528Y-80633770D01*
X179293000Y-80628362D01*
X179340171Y-80608601D01*
X179340117Y-80945358D01*
G36*
X178679926Y-80829755D02*
X178745858Y-80854084D01*
X178799273Y-80897117D01*
X178820164Y-80927409D01*
X178842939Y-80982994D01*
X178842466Y-81023186D01*
X178818562Y-81050217D01*
X178809717Y-81054813D01*
X178771530Y-81069144D01*
X178752028Y-81065472D01*
X178745422Y-81041407D01*
X178745086Y-81028114D01*
X178732992Y-80979210D01*
X178701471Y-80944999D01*
X178657659Y-80928476D01*
X178608695Y-80932634D01*
X178568894Y-80954227D01*
X178555450Y-80966544D01*
X178545921Y-80981487D01*
X178539485Y-81004075D01*
X178535317Y-81039328D01*
X178532597Y-81092266D01*
X178530502Y-81167907D01*
X178529960Y-81191857D01*
X178527981Y-81273790D01*
X178525731Y-81331455D01*
X178522357Y-81369608D01*
X178517006Y-81393004D01*
X178508824Y-81406398D01*
X178496959Y-81414545D01*
X178489362Y-81418144D01*
X178457102Y-81430452D01*
X178438111Y-81434514D01*
X178431836Y-81420948D01*
X178428006Y-81379934D01*
X178426600Y-81310999D01*
X178427598Y-81213669D01*
X178427908Y-81198657D01*
X178430101Y-81109859D01*
X178432693Y-81045019D01*
X178436382Y-80999067D01*
X178441864Y-80966935D01*
X178449835Y-80943553D01*
X178460993Y-80923852D01*
X178466830Y-80915410D01*
X178500296Y-80878057D01*
X178537727Y-80849003D01*
X178542309Y-80846467D01*
X178609426Y-80826443D01*
X178679926Y-80829755D01*
X178679926Y-80829755D01*
G37*
X178679926Y-80829755D02*
X178745858Y-80854084D01*
X178799273Y-80897117D01*
X178820164Y-80927409D01*
X178842939Y-80982994D01*
X178842466Y-81023186D01*
X178818562Y-81050217D01*
X178809717Y-81054813D01*
X178771530Y-81069144D01*
X178752028Y-81065472D01*
X178745422Y-81041407D01*
X178745086Y-81028114D01*
X178732992Y-80979210D01*
X178701471Y-80944999D01*
X178657659Y-80928476D01*
X178608695Y-80932634D01*
X178568894Y-80954227D01*
X178555450Y-80966544D01*
X178545921Y-80981487D01*
X178539485Y-81004075D01*
X178535317Y-81039328D01*
X178532597Y-81092266D01*
X178530502Y-81167907D01*
X178529960Y-81191857D01*
X178527981Y-81273790D01*
X178525731Y-81331455D01*
X178522357Y-81369608D01*
X178517006Y-81393004D01*
X178508824Y-81406398D01*
X178496959Y-81414545D01*
X178489362Y-81418144D01*
X178457102Y-81430452D01*
X178438111Y-81434514D01*
X178431836Y-81420948D01*
X178428006Y-81379934D01*
X178426600Y-81310999D01*
X178427598Y-81213669D01*
X178427908Y-81198657D01*
X178430101Y-81109859D01*
X178432693Y-81045019D01*
X178436382Y-80999067D01*
X178441864Y-80966935D01*
X178449835Y-80943553D01*
X178460993Y-80923852D01*
X178466830Y-80915410D01*
X178500296Y-80878057D01*
X178537727Y-80849003D01*
X178542309Y-80846467D01*
X178609426Y-80826443D01*
X178679926Y-80829755D01*
G36*
X178189744Y-80830968D02*
X178246616Y-80852087D01*
X178247267Y-80852493D01*
X178282440Y-80878380D01*
X178308407Y-80908633D01*
X178326670Y-80948058D01*
X178338732Y-81001462D01*
X178346096Y-81073651D01*
X178350264Y-81169432D01*
X178350629Y-81183078D01*
X178355876Y-81388842D01*
X178311716Y-81411678D01*
X178279763Y-81427110D01*
X178260470Y-81434423D01*
X178259578Y-81434514D01*
X178256239Y-81421022D01*
X178253587Y-81384626D01*
X178251956Y-81331452D01*
X178251600Y-81288393D01*
X178251592Y-81218641D01*
X178248403Y-81174837D01*
X178237288Y-81153944D01*
X178213501Y-81152925D01*
X178172296Y-81168741D01*
X178110086Y-81197815D01*
X178064341Y-81221963D01*
X178040813Y-81242913D01*
X178033896Y-81265747D01*
X178033886Y-81266877D01*
X178045299Y-81306212D01*
X178079092Y-81327462D01*
X178130809Y-81330539D01*
X178168061Y-81330006D01*
X178187703Y-81340735D01*
X178199952Y-81366505D01*
X178207002Y-81399337D01*
X178196842Y-81417966D01*
X178193017Y-81420632D01*
X178157001Y-81431340D01*
X178106566Y-81432856D01*
X178054626Y-81425759D01*
X178017822Y-81412788D01*
X177966938Y-81369585D01*
X177938014Y-81309446D01*
X177932286Y-81262462D01*
X177936657Y-81220082D01*
X177952475Y-81185488D01*
X177983797Y-81154763D01*
X178034678Y-81123990D01*
X178109176Y-81089252D01*
X178113714Y-81087288D01*
X178180821Y-81056287D01*
X178222232Y-81030862D01*
X178239981Y-81008014D01*
X178236107Y-80984745D01*
X178212643Y-80958056D01*
X178205627Y-80951914D01*
X178158630Y-80928100D01*
X178109933Y-80929103D01*
X178067522Y-80952451D01*
X178039384Y-80995675D01*
X178036769Y-81004160D01*
X178011308Y-81045308D01*
X177979001Y-81065128D01*
X177932286Y-81084770D01*
X177932286Y-81033950D01*
X177946496Y-80960082D01*
X177988675Y-80892327D01*
X178010624Y-80869661D01*
X178060517Y-80840569D01*
X178123967Y-80827400D01*
X178189744Y-80830968D01*
X178189744Y-80830968D01*
G37*
X178189744Y-80830968D02*
X178246616Y-80852087D01*
X178247267Y-80852493D01*
X178282440Y-80878380D01*
X178308407Y-80908633D01*
X178326670Y-80948058D01*
X178338732Y-81001462D01*
X178346096Y-81073651D01*
X178350264Y-81169432D01*
X178350629Y-81183078D01*
X178355876Y-81388842D01*
X178311716Y-81411678D01*
X178279763Y-81427110D01*
X178260470Y-81434423D01*
X178259578Y-81434514D01*
X178256239Y-81421022D01*
X178253587Y-81384626D01*
X178251956Y-81331452D01*
X178251600Y-81288393D01*
X178251592Y-81218641D01*
X178248403Y-81174837D01*
X178237288Y-81153944D01*
X178213501Y-81152925D01*
X178172296Y-81168741D01*
X178110086Y-81197815D01*
X178064341Y-81221963D01*
X178040813Y-81242913D01*
X178033896Y-81265747D01*
X178033886Y-81266877D01*
X178045299Y-81306212D01*
X178079092Y-81327462D01*
X178130809Y-81330539D01*
X178168061Y-81330006D01*
X178187703Y-81340735D01*
X178199952Y-81366505D01*
X178207002Y-81399337D01*
X178196842Y-81417966D01*
X178193017Y-81420632D01*
X178157001Y-81431340D01*
X178106566Y-81432856D01*
X178054626Y-81425759D01*
X178017822Y-81412788D01*
X177966938Y-81369585D01*
X177938014Y-81309446D01*
X177932286Y-81262462D01*
X177936657Y-81220082D01*
X177952475Y-81185488D01*
X177983797Y-81154763D01*
X178034678Y-81123990D01*
X178109176Y-81089252D01*
X178113714Y-81087288D01*
X178180821Y-81056287D01*
X178222232Y-81030862D01*
X178239981Y-81008014D01*
X178236107Y-80984745D01*
X178212643Y-80958056D01*
X178205627Y-80951914D01*
X178158630Y-80928100D01*
X178109933Y-80929103D01*
X178067522Y-80952451D01*
X178039384Y-80995675D01*
X178036769Y-81004160D01*
X178011308Y-81045308D01*
X177979001Y-81065128D01*
X177932286Y-81084770D01*
X177932286Y-81033950D01*
X177946496Y-80960082D01*
X177988675Y-80892327D01*
X178010624Y-80869661D01*
X178060517Y-80840569D01*
X178123967Y-80827400D01*
X178189744Y-80830968D01*
G36*
X177525886Y-80731289D02*
X177530139Y-80790613D01*
X177535025Y-80825572D01*
X177541795Y-80840820D01*
X177551702Y-80841015D01*
X177554914Y-80839195D01*
X177597644Y-80826015D01*
X177653227Y-80826785D01*
X177709737Y-80840333D01*
X177745082Y-80857861D01*
X177781321Y-80885861D01*
X177807813Y-80917549D01*
X177825999Y-80957813D01*
X177837322Y-81011543D01*
X177843222Y-81083626D01*
X177845143Y-81178951D01*
X177845177Y-81197237D01*
X177845200Y-81402646D01*
X177799491Y-81418580D01*
X177767027Y-81429420D01*
X177749215Y-81434468D01*
X177748691Y-81434514D01*
X177746937Y-81420828D01*
X177745444Y-81383076D01*
X177744326Y-81326224D01*
X177743697Y-81255234D01*
X177743600Y-81212073D01*
X177743398Y-81126973D01*
X177742358Y-81065981D01*
X177739831Y-81024177D01*
X177735164Y-80996642D01*
X177727707Y-80978456D01*
X177716811Y-80964698D01*
X177710007Y-80958073D01*
X177663272Y-80931375D01*
X177612272Y-80929375D01*
X177566001Y-80951955D01*
X177557444Y-80960107D01*
X177544893Y-80975436D01*
X177536188Y-80993618D01*
X177530631Y-81019909D01*
X177527526Y-81059562D01*
X177526176Y-81117832D01*
X177525886Y-81198173D01*
X177525886Y-81402646D01*
X177480177Y-81418580D01*
X177447713Y-81429420D01*
X177429901Y-81434468D01*
X177429377Y-81434514D01*
X177428037Y-81420623D01*
X177426828Y-81381439D01*
X177425801Y-81320700D01*
X177425002Y-81242141D01*
X177424481Y-81149498D01*
X177424286Y-81046509D01*
X177424286Y-80649342D01*
X177471457Y-80629444D01*
X177518629Y-80609547D01*
X177525886Y-80731289D01*
X177525886Y-80731289D01*
G37*
X177525886Y-80731289D02*
X177530139Y-80790613D01*
X177535025Y-80825572D01*
X177541795Y-80840820D01*
X177551702Y-80841015D01*
X177554914Y-80839195D01*
X177597644Y-80826015D01*
X177653227Y-80826785D01*
X177709737Y-80840333D01*
X177745082Y-80857861D01*
X177781321Y-80885861D01*
X177807813Y-80917549D01*
X177825999Y-80957813D01*
X177837322Y-81011543D01*
X177843222Y-81083626D01*
X177845143Y-81178951D01*
X177845177Y-81197237D01*
X177845200Y-81402646D01*
X177799491Y-81418580D01*
X177767027Y-81429420D01*
X177749215Y-81434468D01*
X177748691Y-81434514D01*
X177746937Y-81420828D01*
X177745444Y-81383076D01*
X177744326Y-81326224D01*
X177743697Y-81255234D01*
X177743600Y-81212073D01*
X177743398Y-81126973D01*
X177742358Y-81065981D01*
X177739831Y-81024177D01*
X177735164Y-80996642D01*
X177727707Y-80978456D01*
X177716811Y-80964698D01*
X177710007Y-80958073D01*
X177663272Y-80931375D01*
X177612272Y-80929375D01*
X177566001Y-80951955D01*
X177557444Y-80960107D01*
X177544893Y-80975436D01*
X177536188Y-80993618D01*
X177530631Y-81019909D01*
X177527526Y-81059562D01*
X177526176Y-81117832D01*
X177525886Y-81198173D01*
X177525886Y-81402646D01*
X177480177Y-81418580D01*
X177447713Y-81429420D01*
X177429901Y-81434468D01*
X177429377Y-81434514D01*
X177428037Y-81420623D01*
X177426828Y-81381439D01*
X177425801Y-81320700D01*
X177425002Y-81242141D01*
X177424481Y-81149498D01*
X177424286Y-81046509D01*
X177424286Y-80649342D01*
X177471457Y-80629444D01*
X177518629Y-80609547D01*
X177525886Y-80731289D01*
G36*
X176318303Y-80811239D02*
X176375527Y-80849735D01*
X176419749Y-80905335D01*
X176446167Y-80976086D01*
X176451510Y-81028162D01*
X176450903Y-81049893D01*
X176445822Y-81066531D01*
X176431855Y-81081437D01*
X176404589Y-81097973D01*
X176359612Y-81119498D01*
X176292511Y-81149374D01*
X176292171Y-81149524D01*
X176230407Y-81177813D01*
X176179759Y-81202933D01*
X176145404Y-81222179D01*
X176132518Y-81232848D01*
X176132514Y-81232934D01*
X176143872Y-81256166D01*
X176170431Y-81281774D01*
X176200923Y-81300221D01*
X176216370Y-81303886D01*
X176258515Y-81291212D01*
X176294808Y-81259471D01*
X176312517Y-81224572D01*
X176329552Y-81198845D01*
X176362922Y-81169546D01*
X176402149Y-81144235D01*
X176436756Y-81130471D01*
X176443993Y-81129714D01*
X176452139Y-81142160D01*
X176452630Y-81173972D01*
X176446643Y-81216866D01*
X176435357Y-81262558D01*
X176419950Y-81302761D01*
X176419171Y-81304322D01*
X176372804Y-81369062D01*
X176312711Y-81413097D01*
X176244465Y-81434711D01*
X176173638Y-81432185D01*
X176105804Y-81403804D01*
X176102788Y-81401808D01*
X176049427Y-81353448D01*
X176014340Y-81290352D01*
X175994922Y-81207387D01*
X175992316Y-81184078D01*
X175987701Y-81074055D01*
X175993233Y-81022748D01*
X176132514Y-81022748D01*
X176134324Y-81054753D01*
X176144222Y-81064093D01*
X176168898Y-81057105D01*
X176207795Y-81040587D01*
X176251275Y-81019881D01*
X176252356Y-81019333D01*
X176289209Y-80999949D01*
X176304000Y-80987013D01*
X176300353Y-80973451D01*
X176284995Y-80955632D01*
X176245923Y-80929845D01*
X176203846Y-80927950D01*
X176166103Y-80946717D01*
X176140034Y-80982915D01*
X176132514Y-81022748D01*
X175993233Y-81022748D01*
X175997194Y-80986027D01*
X176021550Y-80916212D01*
X176055456Y-80867302D01*
X176116653Y-80817878D01*
X176184063Y-80793359D01*
X176252880Y-80791797D01*
X176318303Y-80811239D01*
X176318303Y-80811239D01*
G37*
X176318303Y-80811239D02*
X176375527Y-80849735D01*
X176419749Y-80905335D01*
X176446167Y-80976086D01*
X176451510Y-81028162D01*
X176450903Y-81049893D01*
X176445822Y-81066531D01*
X176431855Y-81081437D01*
X176404589Y-81097973D01*
X176359612Y-81119498D01*
X176292511Y-81149374D01*
X176292171Y-81149524D01*
X176230407Y-81177813D01*
X176179759Y-81202933D01*
X176145404Y-81222179D01*
X176132518Y-81232848D01*
X176132514Y-81232934D01*
X176143872Y-81256166D01*
X176170431Y-81281774D01*
X176200923Y-81300221D01*
X176216370Y-81303886D01*
X176258515Y-81291212D01*
X176294808Y-81259471D01*
X176312517Y-81224572D01*
X176329552Y-81198845D01*
X176362922Y-81169546D01*
X176402149Y-81144235D01*
X176436756Y-81130471D01*
X176443993Y-81129714D01*
X176452139Y-81142160D01*
X176452630Y-81173972D01*
X176446643Y-81216866D01*
X176435357Y-81262558D01*
X176419950Y-81302761D01*
X176419171Y-81304322D01*
X176372804Y-81369062D01*
X176312711Y-81413097D01*
X176244465Y-81434711D01*
X176173638Y-81432185D01*
X176105804Y-81403804D01*
X176102788Y-81401808D01*
X176049427Y-81353448D01*
X176014340Y-81290352D01*
X175994922Y-81207387D01*
X175992316Y-81184078D01*
X175987701Y-81074055D01*
X175993233Y-81022748D01*
X176132514Y-81022748D01*
X176134324Y-81054753D01*
X176144222Y-81064093D01*
X176168898Y-81057105D01*
X176207795Y-81040587D01*
X176251275Y-81019881D01*
X176252356Y-81019333D01*
X176289209Y-80999949D01*
X176304000Y-80987013D01*
X176300353Y-80973451D01*
X176284995Y-80955632D01*
X176245923Y-80929845D01*
X176203846Y-80927950D01*
X176166103Y-80946717D01*
X176140034Y-80982915D01*
X176132514Y-81022748D01*
X175993233Y-81022748D01*
X175997194Y-80986027D01*
X176021550Y-80916212D01*
X176055456Y-80867302D01*
X176116653Y-80817878D01*
X176184063Y-80793359D01*
X176252880Y-80791797D01*
X176318303Y-80811239D01*
G36*
X175191115Y-80801962D02*
X175259145Y-80837733D01*
X175309351Y-80895301D01*
X175327185Y-80932312D01*
X175341063Y-80987882D01*
X175348167Y-81058096D01*
X175348840Y-81134727D01*
X175343427Y-81209552D01*
X175332270Y-81274342D01*
X175315714Y-81320873D01*
X175310626Y-81328887D01*
X175250355Y-81388707D01*
X175178769Y-81424535D01*
X175101092Y-81435020D01*
X175022548Y-81418810D01*
X175000689Y-81409092D01*
X174958122Y-81379143D01*
X174920763Y-81339433D01*
X174917232Y-81334397D01*
X174902881Y-81310124D01*
X174893394Y-81284178D01*
X174887790Y-81250022D01*
X174885086Y-81201119D01*
X174884299Y-81130935D01*
X174884286Y-81115200D01*
X174884322Y-81110192D01*
X175029429Y-81110192D01*
X175030273Y-81176430D01*
X175033596Y-81220386D01*
X175040583Y-81248779D01*
X175052416Y-81268325D01*
X175058457Y-81274857D01*
X175093186Y-81299680D01*
X175126903Y-81298548D01*
X175160995Y-81277016D01*
X175181329Y-81254029D01*
X175193371Y-81220478D01*
X175200134Y-81167569D01*
X175200598Y-81161399D01*
X175201752Y-81065513D01*
X175189688Y-80994299D01*
X175164570Y-80948194D01*
X175126560Y-80927635D01*
X175112992Y-80926514D01*
X175077364Y-80932152D01*
X175052994Y-80951686D01*
X175038093Y-80989042D01*
X175030875Y-81048150D01*
X175029429Y-81110192D01*
X174884322Y-81110192D01*
X174884826Y-81040413D01*
X174887096Y-80988159D01*
X174892068Y-80951949D01*
X174900713Y-80925299D01*
X174914005Y-80901722D01*
X174916943Y-80897338D01*
X174966313Y-80838249D01*
X175020109Y-80803947D01*
X175085602Y-80790331D01*
X175107842Y-80789665D01*
X175191115Y-80801962D01*
X175191115Y-80801962D01*
G37*
X175191115Y-80801962D02*
X175259145Y-80837733D01*
X175309351Y-80895301D01*
X175327185Y-80932312D01*
X175341063Y-80987882D01*
X175348167Y-81058096D01*
X175348840Y-81134727D01*
X175343427Y-81209552D01*
X175332270Y-81274342D01*
X175315714Y-81320873D01*
X175310626Y-81328887D01*
X175250355Y-81388707D01*
X175178769Y-81424535D01*
X175101092Y-81435020D01*
X175022548Y-81418810D01*
X175000689Y-81409092D01*
X174958122Y-81379143D01*
X174920763Y-81339433D01*
X174917232Y-81334397D01*
X174902881Y-81310124D01*
X174893394Y-81284178D01*
X174887790Y-81250022D01*
X174885086Y-81201119D01*
X174884299Y-81130935D01*
X174884286Y-81115200D01*
X174884322Y-81110192D01*
X175029429Y-81110192D01*
X175030273Y-81176430D01*
X175033596Y-81220386D01*
X175040583Y-81248779D01*
X175052416Y-81268325D01*
X175058457Y-81274857D01*
X175093186Y-81299680D01*
X175126903Y-81298548D01*
X175160995Y-81277016D01*
X175181329Y-81254029D01*
X175193371Y-81220478D01*
X175200134Y-81167569D01*
X175200598Y-81161399D01*
X175201752Y-81065513D01*
X175189688Y-80994299D01*
X175164570Y-80948194D01*
X175126560Y-80927635D01*
X175112992Y-80926514D01*
X175077364Y-80932152D01*
X175052994Y-80951686D01*
X175038093Y-80989042D01*
X175030875Y-81048150D01*
X175029429Y-81110192D01*
X174884322Y-81110192D01*
X174884826Y-81040413D01*
X174887096Y-80988159D01*
X174892068Y-80951949D01*
X174900713Y-80925299D01*
X174914005Y-80901722D01*
X174916943Y-80897338D01*
X174966313Y-80838249D01*
X175020109Y-80803947D01*
X175085602Y-80790331D01*
X175107842Y-80789665D01*
X175191115Y-80801962D01*
G36*
X176866093Y-80807780D02*
X176912672Y-80834723D01*
X176945057Y-80861466D01*
X176968742Y-80889484D01*
X176985059Y-80923748D01*
X176995339Y-80969227D01*
X177000914Y-81030892D01*
X177003116Y-81113711D01*
X177003371Y-81173246D01*
X177003371Y-81392391D01*
X176941686Y-81420044D01*
X176880000Y-81447697D01*
X176872743Y-81207670D01*
X176869744Y-81118028D01*
X176866598Y-81052962D01*
X176862701Y-81008026D01*
X176857447Y-80978770D01*
X176850231Y-80960748D01*
X176840450Y-80949511D01*
X176837312Y-80947079D01*
X176789761Y-80928083D01*
X176741697Y-80935600D01*
X176713086Y-80955543D01*
X176701447Y-80969675D01*
X176693391Y-80988220D01*
X176688271Y-81016334D01*
X176685441Y-81059173D01*
X176684256Y-81121895D01*
X176684057Y-81187261D01*
X176684018Y-81269268D01*
X176682614Y-81327316D01*
X176677914Y-81366465D01*
X176667987Y-81391780D01*
X176650903Y-81408323D01*
X176624732Y-81421156D01*
X176589775Y-81434491D01*
X176551596Y-81449007D01*
X176556141Y-81191389D01*
X176557971Y-81098519D01*
X176560112Y-81029889D01*
X176563181Y-80980711D01*
X176567794Y-80946198D01*
X176574568Y-80921562D01*
X176584119Y-80902016D01*
X176595634Y-80884770D01*
X176651190Y-80829680D01*
X176718980Y-80797822D01*
X176792713Y-80790191D01*
X176866093Y-80807780D01*
X176866093Y-80807780D01*
G37*
X176866093Y-80807780D02*
X176912672Y-80834723D01*
X176945057Y-80861466D01*
X176968742Y-80889484D01*
X176985059Y-80923748D01*
X176995339Y-80969227D01*
X177000914Y-81030892D01*
X177003116Y-81113711D01*
X177003371Y-81173246D01*
X177003371Y-81392391D01*
X176941686Y-81420044D01*
X176880000Y-81447697D01*
X176872743Y-81207670D01*
X176869744Y-81118028D01*
X176866598Y-81052962D01*
X176862701Y-81008026D01*
X176857447Y-80978770D01*
X176850231Y-80960748D01*
X176840450Y-80949511D01*
X176837312Y-80947079D01*
X176789761Y-80928083D01*
X176741697Y-80935600D01*
X176713086Y-80955543D01*
X176701447Y-80969675D01*
X176693391Y-80988220D01*
X176688271Y-81016334D01*
X176685441Y-81059173D01*
X176684256Y-81121895D01*
X176684057Y-81187261D01*
X176684018Y-81269268D01*
X176682614Y-81327316D01*
X176677914Y-81366465D01*
X176667987Y-81391780D01*
X176650903Y-81408323D01*
X176624732Y-81421156D01*
X176589775Y-81434491D01*
X176551596Y-81449007D01*
X176556141Y-81191389D01*
X176557971Y-81098519D01*
X176560112Y-81029889D01*
X176563181Y-80980711D01*
X176567794Y-80946198D01*
X176574568Y-80921562D01*
X176584119Y-80902016D01*
X176595634Y-80884770D01*
X176651190Y-80829680D01*
X176718980Y-80797822D01*
X176792713Y-80790191D01*
X176866093Y-80807780D01*
G36*
X175749744Y-80799918D02*
X175805201Y-80827568D01*
X175854148Y-80878480D01*
X175867629Y-80897338D01*
X175882314Y-80922015D01*
X175891842Y-80948816D01*
X175897293Y-80984587D01*
X175899747Y-81036169D01*
X175900286Y-81104267D01*
X175897852Y-81197588D01*
X175889394Y-81267657D01*
X175873174Y-81319931D01*
X175847454Y-81359869D01*
X175810497Y-81392929D01*
X175807782Y-81394886D01*
X175771360Y-81414908D01*
X175727502Y-81424815D01*
X175671724Y-81427257D01*
X175581048Y-81427257D01*
X175581010Y-81515283D01*
X175580166Y-81564308D01*
X175575024Y-81593065D01*
X175561587Y-81610311D01*
X175535858Y-81624808D01*
X175529679Y-81627769D01*
X175500764Y-81641648D01*
X175478376Y-81650414D01*
X175461729Y-81651171D01*
X175450036Y-81641023D01*
X175442510Y-81617073D01*
X175438366Y-81576426D01*
X175436815Y-81516186D01*
X175437071Y-81433455D01*
X175438349Y-81325339D01*
X175438748Y-81293000D01*
X175440185Y-81181524D01*
X175441472Y-81108603D01*
X175580971Y-81108603D01*
X175581755Y-81170499D01*
X175585240Y-81210997D01*
X175593124Y-81237708D01*
X175607105Y-81258244D01*
X175616597Y-81268260D01*
X175655404Y-81297567D01*
X175689763Y-81299952D01*
X175725216Y-81275750D01*
X175726114Y-81274857D01*
X175740539Y-81256153D01*
X175749313Y-81230732D01*
X175753739Y-81191584D01*
X175755118Y-81131697D01*
X175755143Y-81118430D01*
X175751812Y-81035901D01*
X175740969Y-80978691D01*
X175721340Y-80943766D01*
X175691650Y-80928094D01*
X175674491Y-80926514D01*
X175633766Y-80933926D01*
X175605832Y-80958330D01*
X175589017Y-81002980D01*
X175581650Y-81071130D01*
X175580971Y-81108603D01*
X175441472Y-81108603D01*
X175441708Y-81095245D01*
X175443677Y-81030333D01*
X175446450Y-80982958D01*
X175450388Y-80949290D01*
X175455849Y-80925498D01*
X175463192Y-80907753D01*
X175472777Y-80892224D01*
X175476887Y-80886381D01*
X175531405Y-80831185D01*
X175600336Y-80799890D01*
X175680072Y-80791165D01*
X175749744Y-80799918D01*
X175749744Y-80799918D01*
G37*
X175749744Y-80799918D02*
X175805201Y-80827568D01*
X175854148Y-80878480D01*
X175867629Y-80897338D01*
X175882314Y-80922015D01*
X175891842Y-80948816D01*
X175897293Y-80984587D01*
X175899747Y-81036169D01*
X175900286Y-81104267D01*
X175897852Y-81197588D01*
X175889394Y-81267657D01*
X175873174Y-81319931D01*
X175847454Y-81359869D01*
X175810497Y-81392929D01*
X175807782Y-81394886D01*
X175771360Y-81414908D01*
X175727502Y-81424815D01*
X175671724Y-81427257D01*
X175581048Y-81427257D01*
X175581010Y-81515283D01*
X175580166Y-81564308D01*
X175575024Y-81593065D01*
X175561587Y-81610311D01*
X175535858Y-81624808D01*
X175529679Y-81627769D01*
X175500764Y-81641648D01*
X175478376Y-81650414D01*
X175461729Y-81651171D01*
X175450036Y-81641023D01*
X175442510Y-81617073D01*
X175438366Y-81576426D01*
X175436815Y-81516186D01*
X175437071Y-81433455D01*
X175438349Y-81325339D01*
X175438748Y-81293000D01*
X175440185Y-81181524D01*
X175441472Y-81108603D01*
X175580971Y-81108603D01*
X175581755Y-81170499D01*
X175585240Y-81210997D01*
X175593124Y-81237708D01*
X175607105Y-81258244D01*
X175616597Y-81268260D01*
X175655404Y-81297567D01*
X175689763Y-81299952D01*
X175725216Y-81275750D01*
X175726114Y-81274857D01*
X175740539Y-81256153D01*
X175749313Y-81230732D01*
X175753739Y-81191584D01*
X175755118Y-81131697D01*
X175755143Y-81118430D01*
X175751812Y-81035901D01*
X175740969Y-80978691D01*
X175721340Y-80943766D01*
X175691650Y-80928094D01*
X175674491Y-80926514D01*
X175633766Y-80933926D01*
X175605832Y-80958330D01*
X175589017Y-81002980D01*
X175581650Y-81071130D01*
X175580971Y-81108603D01*
X175441472Y-81108603D01*
X175441708Y-81095245D01*
X175443677Y-81030333D01*
X175446450Y-80982958D01*
X175450388Y-80949290D01*
X175455849Y-80925498D01*
X175463192Y-80907753D01*
X175472777Y-80892224D01*
X175476887Y-80886381D01*
X175531405Y-80831185D01*
X175600336Y-80799890D01*
X175680072Y-80791165D01*
X175749744Y-80799918D01*
G04 #@! TO.C,BT1*
D16*
X98684285Y-79928571D02*
X98827142Y-79976190D01*
X98874761Y-80023809D01*
X98922380Y-80119047D01*
X98922380Y-80261904D01*
X98874761Y-80357142D01*
X98827142Y-80404761D01*
X98731904Y-80452380D01*
X98350952Y-80452380D01*
X98350952Y-79452380D01*
X98684285Y-79452380D01*
X98779523Y-79500000D01*
X98827142Y-79547619D01*
X98874761Y-79642857D01*
X98874761Y-79738095D01*
X98827142Y-79833333D01*
X98779523Y-79880952D01*
X98684285Y-79928571D01*
X98350952Y-79928571D01*
X99208095Y-79452380D02*
X99779523Y-79452380D01*
X99493809Y-80452380D02*
X99493809Y-79452380D01*
X100636666Y-80452380D02*
X100065238Y-80452380D01*
X100350952Y-80452380D02*
X100350952Y-79452380D01*
X100255714Y-79595238D01*
X100160476Y-79690476D01*
X100065238Y-79738095D01*
G04 #@! TO.C,C1*
X151847142Y-101874166D02*
X151894761Y-101921785D01*
X151942380Y-102064642D01*
X151942380Y-102159880D01*
X151894761Y-102302738D01*
X151799523Y-102397976D01*
X151704285Y-102445595D01*
X151513809Y-102493214D01*
X151370952Y-102493214D01*
X151180476Y-102445595D01*
X151085238Y-102397976D01*
X150990000Y-102302738D01*
X150942380Y-102159880D01*
X150942380Y-102064642D01*
X150990000Y-101921785D01*
X151037619Y-101874166D01*
X151942380Y-100921785D02*
X151942380Y-101493214D01*
X151942380Y-101207500D02*
X150942380Y-101207500D01*
X151085238Y-101302738D01*
X151180476Y-101397976D01*
X151228095Y-101493214D01*
X152068571Y-104739880D02*
X151497142Y-104739880D01*
X151782857Y-104739880D02*
X151782857Y-103739880D01*
X151687619Y-103882738D01*
X151592380Y-103977976D01*
X151497142Y-104025595D01*
X152687619Y-103739880D02*
X152782857Y-103739880D01*
X152878095Y-103787500D01*
X152925714Y-103835119D01*
X152973333Y-103930357D01*
X153020952Y-104120833D01*
X153020952Y-104358928D01*
X152973333Y-104549404D01*
X152925714Y-104644642D01*
X152878095Y-104692261D01*
X152782857Y-104739880D01*
X152687619Y-104739880D01*
X152592380Y-104692261D01*
X152544761Y-104644642D01*
X152497142Y-104549404D01*
X152449523Y-104358928D01*
X152449523Y-104120833D01*
X152497142Y-103930357D01*
X152544761Y-103835119D01*
X152592380Y-103787500D01*
X152687619Y-103739880D01*
X153878095Y-104073214D02*
X153878095Y-104739880D01*
X153449523Y-104073214D02*
X153449523Y-104597023D01*
X153497142Y-104692261D01*
X153592380Y-104739880D01*
X153735238Y-104739880D01*
X153830476Y-104692261D01*
X153878095Y-104644642D01*
X154687619Y-104216071D02*
X154354285Y-104216071D01*
X154354285Y-104739880D02*
X154354285Y-103739880D01*
X154830476Y-103739880D01*
G04 #@! TO.C,C2*
X155997142Y-101874166D02*
X156044761Y-101921785D01*
X156092380Y-102064642D01*
X156092380Y-102159880D01*
X156044761Y-102302738D01*
X155949523Y-102397976D01*
X155854285Y-102445595D01*
X155663809Y-102493214D01*
X155520952Y-102493214D01*
X155330476Y-102445595D01*
X155235238Y-102397976D01*
X155140000Y-102302738D01*
X155092380Y-102159880D01*
X155092380Y-102064642D01*
X155140000Y-101921785D01*
X155187619Y-101874166D01*
X155187619Y-101493214D02*
X155140000Y-101445595D01*
X155092380Y-101350357D01*
X155092380Y-101112261D01*
X155140000Y-101017023D01*
X155187619Y-100969404D01*
X155282857Y-100921785D01*
X155378095Y-100921785D01*
X155520952Y-100969404D01*
X156092380Y-101540833D01*
X156092380Y-100921785D01*
X155857142Y-103627380D02*
X155952380Y-103627380D01*
X156047619Y-103675000D01*
X156095238Y-103722619D01*
X156142857Y-103817857D01*
X156190476Y-104008333D01*
X156190476Y-104246428D01*
X156142857Y-104436904D01*
X156095238Y-104532142D01*
X156047619Y-104579761D01*
X155952380Y-104627380D01*
X155857142Y-104627380D01*
X155761904Y-104579761D01*
X155714285Y-104532142D01*
X155666666Y-104436904D01*
X155619047Y-104246428D01*
X155619047Y-104008333D01*
X155666666Y-103817857D01*
X155714285Y-103722619D01*
X155761904Y-103675000D01*
X155857142Y-103627380D01*
X156619047Y-104532142D02*
X156666666Y-104579761D01*
X156619047Y-104627380D01*
X156571428Y-104579761D01*
X156619047Y-104532142D01*
X156619047Y-104627380D01*
X157619047Y-104627380D02*
X157047619Y-104627380D01*
X157333333Y-104627380D02*
X157333333Y-103627380D01*
X157238095Y-103770238D01*
X157142857Y-103865476D01*
X157047619Y-103913095D01*
X158476190Y-103960714D02*
X158476190Y-104627380D01*
X158047619Y-103960714D02*
X158047619Y-104484523D01*
X158095238Y-104579761D01*
X158190476Y-104627380D01*
X158333333Y-104627380D01*
X158428571Y-104579761D01*
X158476190Y-104532142D01*
X159285714Y-104103571D02*
X158952380Y-104103571D01*
X158952380Y-104627380D02*
X158952380Y-103627380D01*
X159428571Y-103627380D01*
G04 #@! TO.C,C3*
X152187142Y-88269166D02*
X152234761Y-88316785D01*
X152282380Y-88459642D01*
X152282380Y-88554880D01*
X152234761Y-88697738D01*
X152139523Y-88792976D01*
X152044285Y-88840595D01*
X151853809Y-88888214D01*
X151710952Y-88888214D01*
X151520476Y-88840595D01*
X151425238Y-88792976D01*
X151330000Y-88697738D01*
X151282380Y-88554880D01*
X151282380Y-88459642D01*
X151330000Y-88316785D01*
X151377619Y-88269166D01*
X151282380Y-87935833D02*
X151282380Y-87316785D01*
X151663333Y-87650119D01*
X151663333Y-87507261D01*
X151710952Y-87412023D01*
X151758571Y-87364404D01*
X151853809Y-87316785D01*
X152091904Y-87316785D01*
X152187142Y-87364404D01*
X152234761Y-87412023D01*
X152282380Y-87507261D01*
X152282380Y-87792976D01*
X152234761Y-87888214D01*
X152187142Y-87935833D01*
X154677619Y-89983452D02*
X154630000Y-89935833D01*
X154582380Y-89840595D01*
X154582380Y-89602500D01*
X154630000Y-89507261D01*
X154677619Y-89459642D01*
X154772857Y-89412023D01*
X154868095Y-89412023D01*
X155010952Y-89459642D01*
X155582380Y-90031071D01*
X155582380Y-89412023D01*
X155487142Y-88983452D02*
X155534761Y-88935833D01*
X155582380Y-88983452D01*
X155534761Y-89031071D01*
X155487142Y-88983452D01*
X155582380Y-88983452D01*
X154677619Y-88554880D02*
X154630000Y-88507261D01*
X154582380Y-88412023D01*
X154582380Y-88173928D01*
X154630000Y-88078690D01*
X154677619Y-88031071D01*
X154772857Y-87983452D01*
X154868095Y-87983452D01*
X155010952Y-88031071D01*
X155582380Y-88602500D01*
X155582380Y-87983452D01*
X154915714Y-87126309D02*
X155582380Y-87126309D01*
X154915714Y-87554880D02*
X155439523Y-87554880D01*
X155534761Y-87507261D01*
X155582380Y-87412023D01*
X155582380Y-87269166D01*
X155534761Y-87173928D01*
X155487142Y-87126309D01*
X155058571Y-86316785D02*
X155058571Y-86650119D01*
X155582380Y-86650119D02*
X154582380Y-86650119D01*
X154582380Y-86173928D01*
G04 #@! TO.C,C4*
X157497142Y-88269166D02*
X157544761Y-88316785D01*
X157592380Y-88459642D01*
X157592380Y-88554880D01*
X157544761Y-88697738D01*
X157449523Y-88792976D01*
X157354285Y-88840595D01*
X157163809Y-88888214D01*
X157020952Y-88888214D01*
X156830476Y-88840595D01*
X156735238Y-88792976D01*
X156640000Y-88697738D01*
X156592380Y-88554880D01*
X156592380Y-88459642D01*
X156640000Y-88316785D01*
X156687619Y-88269166D01*
X156925714Y-87412023D02*
X157592380Y-87412023D01*
X156544761Y-87650119D02*
X157259047Y-87888214D01*
X157259047Y-87269166D01*
X160892380Y-89650119D02*
X160892380Y-90221547D01*
X160892380Y-89935833D02*
X159892380Y-89935833D01*
X160035238Y-90031071D01*
X160130476Y-90126309D01*
X160178095Y-90221547D01*
X159892380Y-89031071D02*
X159892380Y-88935833D01*
X159940000Y-88840595D01*
X159987619Y-88792976D01*
X160082857Y-88745357D01*
X160273333Y-88697738D01*
X160511428Y-88697738D01*
X160701904Y-88745357D01*
X160797142Y-88792976D01*
X160844761Y-88840595D01*
X160892380Y-88935833D01*
X160892380Y-89031071D01*
X160844761Y-89126309D01*
X160797142Y-89173928D01*
X160701904Y-89221547D01*
X160511428Y-89269166D01*
X160273333Y-89269166D01*
X160082857Y-89221547D01*
X159987619Y-89173928D01*
X159940000Y-89126309D01*
X159892380Y-89031071D01*
X159892380Y-88078690D02*
X159892380Y-87983452D01*
X159940000Y-87888214D01*
X159987619Y-87840595D01*
X160082857Y-87792976D01*
X160273333Y-87745357D01*
X160511428Y-87745357D01*
X160701904Y-87792976D01*
X160797142Y-87840595D01*
X160844761Y-87888214D01*
X160892380Y-87983452D01*
X160892380Y-88078690D01*
X160844761Y-88173928D01*
X160797142Y-88221547D01*
X160701904Y-88269166D01*
X160511428Y-88316785D01*
X160273333Y-88316785D01*
X160082857Y-88269166D01*
X159987619Y-88221547D01*
X159940000Y-88173928D01*
X159892380Y-88078690D01*
X160225714Y-86888214D02*
X160892380Y-86888214D01*
X160225714Y-87316785D02*
X160749523Y-87316785D01*
X160844761Y-87269166D01*
X160892380Y-87173928D01*
X160892380Y-87031071D01*
X160844761Y-86935833D01*
X160797142Y-86888214D01*
X160368571Y-86078690D02*
X160368571Y-86412023D01*
X160892380Y-86412023D02*
X159892380Y-86412023D01*
X159892380Y-85935833D01*
G04 #@! TO.C,C5*
X169993333Y-110837142D02*
X169945714Y-110884761D01*
X169802857Y-110932380D01*
X169707619Y-110932380D01*
X169564761Y-110884761D01*
X169469523Y-110789523D01*
X169421904Y-110694285D01*
X169374285Y-110503809D01*
X169374285Y-110360952D01*
X169421904Y-110170476D01*
X169469523Y-110075238D01*
X169564761Y-109980000D01*
X169707619Y-109932380D01*
X169802857Y-109932380D01*
X169945714Y-109980000D01*
X169993333Y-110027619D01*
X170898095Y-109932380D02*
X170421904Y-109932380D01*
X170374285Y-110408571D01*
X170421904Y-110360952D01*
X170517142Y-110313333D01*
X170755238Y-110313333D01*
X170850476Y-110360952D01*
X170898095Y-110408571D01*
X170945714Y-110503809D01*
X170945714Y-110741904D01*
X170898095Y-110837142D01*
X170850476Y-110884761D01*
X170755238Y-110932380D01*
X170517142Y-110932380D01*
X170421904Y-110884761D01*
X170374285Y-110837142D01*
X168517142Y-106632380D02*
X168612380Y-106632380D01*
X168707619Y-106680000D01*
X168755238Y-106727619D01*
X168802857Y-106822857D01*
X168850476Y-107013333D01*
X168850476Y-107251428D01*
X168802857Y-107441904D01*
X168755238Y-107537142D01*
X168707619Y-107584761D01*
X168612380Y-107632380D01*
X168517142Y-107632380D01*
X168421904Y-107584761D01*
X168374285Y-107537142D01*
X168326666Y-107441904D01*
X168279047Y-107251428D01*
X168279047Y-107013333D01*
X168326666Y-106822857D01*
X168374285Y-106727619D01*
X168421904Y-106680000D01*
X168517142Y-106632380D01*
X169279047Y-107537142D02*
X169326666Y-107584761D01*
X169279047Y-107632380D01*
X169231428Y-107584761D01*
X169279047Y-107537142D01*
X169279047Y-107632380D01*
X170279047Y-107632380D02*
X169707619Y-107632380D01*
X169993333Y-107632380D02*
X169993333Y-106632380D01*
X169898095Y-106775238D01*
X169802857Y-106870476D01*
X169707619Y-106918095D01*
X171136190Y-106965714D02*
X171136190Y-107632380D01*
X170707619Y-106965714D02*
X170707619Y-107489523D01*
X170755238Y-107584761D01*
X170850476Y-107632380D01*
X170993333Y-107632380D01*
X171088571Y-107584761D01*
X171136190Y-107537142D01*
X171945714Y-107108571D02*
X171612380Y-107108571D01*
X171612380Y-107632380D02*
X171612380Y-106632380D01*
X172088571Y-106632380D01*
G04 #@! TO.C,D1*
X177571904Y-91622380D02*
X177571904Y-90622380D01*
X177810000Y-90622380D01*
X177952857Y-90670000D01*
X178048095Y-90765238D01*
X178095714Y-90860476D01*
X178143333Y-91050952D01*
X178143333Y-91193809D01*
X178095714Y-91384285D01*
X178048095Y-91479523D01*
X177952857Y-91574761D01*
X177810000Y-91622380D01*
X177571904Y-91622380D01*
X179095714Y-91622380D02*
X178524285Y-91622380D01*
X178810000Y-91622380D02*
X178810000Y-90622380D01*
X178714761Y-90765238D01*
X178619523Y-90860476D01*
X178524285Y-90908095D01*
X177372380Y-90052857D02*
X177372380Y-90529047D01*
X176372380Y-90529047D01*
X176848571Y-89719523D02*
X176848571Y-89386190D01*
X177372380Y-89243333D02*
X177372380Y-89719523D01*
X176372380Y-89719523D01*
X176372380Y-89243333D01*
X177372380Y-88814761D02*
X176372380Y-88814761D01*
X176372380Y-88576666D01*
X176420000Y-88433809D01*
X176515238Y-88338571D01*
X176610476Y-88290952D01*
X176800952Y-88243333D01*
X176943809Y-88243333D01*
X177134285Y-88290952D01*
X177229523Y-88338571D01*
X177324761Y-88433809D01*
X177372380Y-88576666D01*
X177372380Y-88814761D01*
G04 #@! TO.C,D2*
X162997380Y-88840595D02*
X161997380Y-88840595D01*
X161997380Y-88602500D01*
X162045000Y-88459642D01*
X162140238Y-88364404D01*
X162235476Y-88316785D01*
X162425952Y-88269166D01*
X162568809Y-88269166D01*
X162759285Y-88316785D01*
X162854523Y-88364404D01*
X162949761Y-88459642D01*
X162997380Y-88602500D01*
X162997380Y-88840595D01*
X162092619Y-87888214D02*
X162045000Y-87840595D01*
X161997380Y-87745357D01*
X161997380Y-87507261D01*
X162045000Y-87412023D01*
X162092619Y-87364404D01*
X162187857Y-87316785D01*
X162283095Y-87316785D01*
X162425952Y-87364404D01*
X162997380Y-87935833D01*
X162997380Y-87316785D01*
X166297380Y-88745357D02*
X166297380Y-89221547D01*
X165297380Y-89221547D01*
X165773571Y-88412023D02*
X165773571Y-88078690D01*
X166297380Y-87935833D02*
X166297380Y-88412023D01*
X165297380Y-88412023D01*
X165297380Y-87935833D01*
X166297380Y-87507261D02*
X165297380Y-87507261D01*
X165297380Y-87269166D01*
X165345000Y-87126309D01*
X165440238Y-87031071D01*
X165535476Y-86983452D01*
X165725952Y-86935833D01*
X165868809Y-86935833D01*
X166059285Y-86983452D01*
X166154523Y-87031071D01*
X166249761Y-87126309D01*
X166297380Y-87269166D01*
X166297380Y-87507261D01*
G04 #@! TO.C,D3*
X179561904Y-92952380D02*
X179561904Y-91952380D01*
X179800000Y-91952380D01*
X179942857Y-92000000D01*
X180038095Y-92095238D01*
X180085714Y-92190476D01*
X180133333Y-92380952D01*
X180133333Y-92523809D01*
X180085714Y-92714285D01*
X180038095Y-92809523D01*
X179942857Y-92904761D01*
X179800000Y-92952380D01*
X179561904Y-92952380D01*
X180466666Y-91952380D02*
X181085714Y-91952380D01*
X180752380Y-92333333D01*
X180895238Y-92333333D01*
X180990476Y-92380952D01*
X181038095Y-92428571D01*
X181085714Y-92523809D01*
X181085714Y-92761904D01*
X181038095Y-92857142D01*
X180990476Y-92904761D01*
X180895238Y-92952380D01*
X180609523Y-92952380D01*
X180514285Y-92904761D01*
X180466666Y-92857142D01*
X177402380Y-95262857D02*
X177402380Y-95739047D01*
X176402380Y-95739047D01*
X176878571Y-94929523D02*
X176878571Y-94596190D01*
X177402380Y-94453333D02*
X177402380Y-94929523D01*
X176402380Y-94929523D01*
X176402380Y-94453333D01*
X177402380Y-94024761D02*
X176402380Y-94024761D01*
X176402380Y-93786666D01*
X176450000Y-93643809D01*
X176545238Y-93548571D01*
X176640476Y-93500952D01*
X176830952Y-93453333D01*
X176973809Y-93453333D01*
X177164285Y-93500952D01*
X177259523Y-93548571D01*
X177354761Y-93643809D01*
X177402380Y-93786666D01*
X177402380Y-94024761D01*
G04 #@! TO.C,H1*
X210558095Y-88972380D02*
X210558095Y-87972380D01*
X210558095Y-88448571D02*
X211129523Y-88448571D01*
X211129523Y-88972380D02*
X211129523Y-87972380D01*
X212129523Y-88972380D02*
X211558095Y-88972380D01*
X211843809Y-88972380D02*
X211843809Y-87972380D01*
X211748571Y-88115238D01*
X211653333Y-88210476D01*
X211558095Y-88258095D01*
G04 #@! TO.C,H2*
X210458095Y-100272380D02*
X210458095Y-99272380D01*
X210458095Y-99748571D02*
X211029523Y-99748571D01*
X211029523Y-100272380D02*
X211029523Y-99272380D01*
X211458095Y-99367619D02*
X211505714Y-99320000D01*
X211600952Y-99272380D01*
X211839047Y-99272380D01*
X211934285Y-99320000D01*
X211981904Y-99367619D01*
X212029523Y-99462857D01*
X212029523Y-99558095D01*
X211981904Y-99700952D01*
X211410476Y-100272380D01*
X212029523Y-100272380D01*
G04 #@! TO.C,JP1*
X162102380Y-98003333D02*
X162816666Y-98003333D01*
X162959523Y-98050952D01*
X163054761Y-98146190D01*
X163102380Y-98289047D01*
X163102380Y-98384285D01*
X163102380Y-97527142D02*
X162102380Y-97527142D01*
X162102380Y-97146190D01*
X162150000Y-97050952D01*
X162197619Y-97003333D01*
X162292857Y-96955714D01*
X162435714Y-96955714D01*
X162530952Y-97003333D01*
X162578571Y-97050952D01*
X162626190Y-97146190D01*
X162626190Y-97527142D01*
X163102380Y-96003333D02*
X163102380Y-96574761D01*
X163102380Y-96289047D02*
X162102380Y-96289047D01*
X162245238Y-96384285D01*
X162340476Y-96479523D01*
X162388095Y-96574761D01*
G04 #@! TO.C,L1*
X146503333Y-105737380D02*
X146027142Y-105737380D01*
X146027142Y-104737380D01*
X147360476Y-105737380D02*
X146789047Y-105737380D01*
X147074761Y-105737380D02*
X147074761Y-104737380D01*
X146979523Y-104880238D01*
X146884285Y-104975476D01*
X146789047Y-105023095D01*
X141852380Y-102375000D02*
X141852380Y-102565476D01*
X141900000Y-102660714D01*
X141947619Y-102708333D01*
X142090476Y-102803571D01*
X142280952Y-102851190D01*
X142661904Y-102851190D01*
X142757142Y-102803571D01*
X142804761Y-102755952D01*
X142852380Y-102660714D01*
X142852380Y-102470238D01*
X142804761Y-102375000D01*
X142757142Y-102327380D01*
X142661904Y-102279761D01*
X142423809Y-102279761D01*
X142328571Y-102327380D01*
X142280952Y-102375000D01*
X142233333Y-102470238D01*
X142233333Y-102660714D01*
X142280952Y-102755952D01*
X142328571Y-102803571D01*
X142423809Y-102851190D01*
X142757142Y-101851190D02*
X142804761Y-101803571D01*
X142852380Y-101851190D01*
X142804761Y-101898809D01*
X142757142Y-101851190D01*
X142852380Y-101851190D01*
X142280952Y-101232142D02*
X142233333Y-101327380D01*
X142185714Y-101375000D01*
X142090476Y-101422619D01*
X142042857Y-101422619D01*
X141947619Y-101375000D01*
X141900000Y-101327380D01*
X141852380Y-101232142D01*
X141852380Y-101041666D01*
X141900000Y-100946428D01*
X141947619Y-100898809D01*
X142042857Y-100851190D01*
X142090476Y-100851190D01*
X142185714Y-100898809D01*
X142233333Y-100946428D01*
X142280952Y-101041666D01*
X142280952Y-101232142D01*
X142328571Y-101327380D01*
X142376190Y-101375000D01*
X142471428Y-101422619D01*
X142661904Y-101422619D01*
X142757142Y-101375000D01*
X142804761Y-101327380D01*
X142852380Y-101232142D01*
X142852380Y-101041666D01*
X142804761Y-100946428D01*
X142757142Y-100898809D01*
X142661904Y-100851190D01*
X142471428Y-100851190D01*
X142376190Y-100898809D01*
X142328571Y-100946428D01*
X142280952Y-101041666D01*
X142185714Y-99994047D02*
X142852380Y-99994047D01*
X142185714Y-100422619D02*
X142709523Y-100422619D01*
X142804761Y-100375000D01*
X142852380Y-100279761D01*
X142852380Y-100136904D01*
X142804761Y-100041666D01*
X142757142Y-99994047D01*
X142852380Y-99517857D02*
X141852380Y-99517857D01*
X142328571Y-99517857D02*
X142328571Y-98946428D01*
X142852380Y-98946428D02*
X141852380Y-98946428D01*
G04 #@! TO.C,Q1*
X183254761Y-83107619D02*
X183159523Y-83060000D01*
X183064285Y-82964761D01*
X182921428Y-82821904D01*
X182826190Y-82774285D01*
X182730952Y-82774285D01*
X182778571Y-83012380D02*
X182683333Y-82964761D01*
X182588095Y-82869523D01*
X182540476Y-82679047D01*
X182540476Y-82345714D01*
X182588095Y-82155238D01*
X182683333Y-82060000D01*
X182778571Y-82012380D01*
X182969047Y-82012380D01*
X183064285Y-82060000D01*
X183159523Y-82155238D01*
X183207142Y-82345714D01*
X183207142Y-82679047D01*
X183159523Y-82869523D01*
X183064285Y-82964761D01*
X182969047Y-83012380D01*
X182778571Y-83012380D01*
X184159523Y-83012380D02*
X183588095Y-83012380D01*
X183873809Y-83012380D02*
X183873809Y-82012380D01*
X183778571Y-82155238D01*
X183683333Y-82250476D01*
X183588095Y-82298095D01*
G04 #@! TO.C,R1*
X159802380Y-101874166D02*
X159326190Y-102207500D01*
X159802380Y-102445595D02*
X158802380Y-102445595D01*
X158802380Y-102064642D01*
X158850000Y-101969404D01*
X158897619Y-101921785D01*
X158992857Y-101874166D01*
X159135714Y-101874166D01*
X159230952Y-101921785D01*
X159278571Y-101969404D01*
X159326190Y-102064642D01*
X159326190Y-102445595D01*
X159802380Y-100921785D02*
X159802380Y-101493214D01*
X159802380Y-101207500D02*
X158802380Y-101207500D01*
X158945238Y-101302738D01*
X159040476Y-101397976D01*
X159088095Y-101493214D01*
X162102380Y-103397976D02*
X162102380Y-102778928D01*
X162483333Y-103112261D01*
X162483333Y-102969404D01*
X162530952Y-102874166D01*
X162578571Y-102826547D01*
X162673809Y-102778928D01*
X162911904Y-102778928D01*
X163007142Y-102826547D01*
X163054761Y-102874166D01*
X163102380Y-102969404D01*
X163102380Y-103255119D01*
X163054761Y-103350357D01*
X163007142Y-103397976D01*
X162102380Y-102445595D02*
X162102380Y-101826547D01*
X162483333Y-102159880D01*
X162483333Y-102017023D01*
X162530952Y-101921785D01*
X162578571Y-101874166D01*
X162673809Y-101826547D01*
X162911904Y-101826547D01*
X163007142Y-101874166D01*
X163054761Y-101921785D01*
X163102380Y-102017023D01*
X163102380Y-102302738D01*
X163054761Y-102397976D01*
X163007142Y-102445595D01*
X162102380Y-101207500D02*
X162102380Y-101112261D01*
X162150000Y-101017023D01*
X162197619Y-100969404D01*
X162292857Y-100921785D01*
X162483333Y-100874166D01*
X162721428Y-100874166D01*
X162911904Y-100921785D01*
X163007142Y-100969404D01*
X163054761Y-101017023D01*
X163102380Y-101112261D01*
X163102380Y-101207500D01*
X163054761Y-101302738D01*
X163007142Y-101350357D01*
X162911904Y-101397976D01*
X162721428Y-101445595D01*
X162483333Y-101445595D01*
X162292857Y-101397976D01*
X162197619Y-101350357D01*
X162150000Y-101302738D01*
X162102380Y-101207500D01*
X163102380Y-100445595D02*
X162102380Y-100445595D01*
X162721428Y-100350357D02*
X163102380Y-100064642D01*
X162435714Y-100064642D02*
X162816666Y-100445595D01*
G04 #@! TO.C,R2*
X187510833Y-104992380D02*
X187177500Y-104516190D01*
X186939404Y-104992380D02*
X186939404Y-103992380D01*
X187320357Y-103992380D01*
X187415595Y-104040000D01*
X187463214Y-104087619D01*
X187510833Y-104182857D01*
X187510833Y-104325714D01*
X187463214Y-104420952D01*
X187415595Y-104468571D01*
X187320357Y-104516190D01*
X186939404Y-104516190D01*
X187891785Y-104087619D02*
X187939404Y-104040000D01*
X188034642Y-103992380D01*
X188272738Y-103992380D01*
X188367976Y-104040000D01*
X188415595Y-104087619D01*
X188463214Y-104182857D01*
X188463214Y-104278095D01*
X188415595Y-104420952D01*
X187844166Y-104992380D01*
X188463214Y-104992380D01*
X187082261Y-101692380D02*
X186510833Y-101692380D01*
X186796547Y-101692380D02*
X186796547Y-100692380D01*
X186701309Y-100835238D01*
X186606071Y-100930476D01*
X186510833Y-100978095D01*
X187701309Y-100692380D02*
X187796547Y-100692380D01*
X187891785Y-100740000D01*
X187939404Y-100787619D01*
X187987023Y-100882857D01*
X188034642Y-101073333D01*
X188034642Y-101311428D01*
X187987023Y-101501904D01*
X187939404Y-101597142D01*
X187891785Y-101644761D01*
X187796547Y-101692380D01*
X187701309Y-101692380D01*
X187606071Y-101644761D01*
X187558452Y-101597142D01*
X187510833Y-101501904D01*
X187463214Y-101311428D01*
X187463214Y-101073333D01*
X187510833Y-100882857D01*
X187558452Y-100787619D01*
X187606071Y-100740000D01*
X187701309Y-100692380D01*
X188463214Y-101692380D02*
X188463214Y-100692380D01*
X188558452Y-101311428D02*
X188844166Y-101692380D01*
X188844166Y-101025714D02*
X188463214Y-101406666D01*
G04 #@! TO.C,R3*
X181912380Y-86896666D02*
X181436190Y-87230000D01*
X181912380Y-87468095D02*
X180912380Y-87468095D01*
X180912380Y-87087142D01*
X180960000Y-86991904D01*
X181007619Y-86944285D01*
X181102857Y-86896666D01*
X181245714Y-86896666D01*
X181340952Y-86944285D01*
X181388571Y-86991904D01*
X181436190Y-87087142D01*
X181436190Y-87468095D01*
X180912380Y-86563333D02*
X180912380Y-85944285D01*
X181293333Y-86277619D01*
X181293333Y-86134761D01*
X181340952Y-86039523D01*
X181388571Y-85991904D01*
X181483809Y-85944285D01*
X181721904Y-85944285D01*
X181817142Y-85991904D01*
X181864761Y-86039523D01*
X181912380Y-86134761D01*
X181912380Y-86420476D01*
X181864761Y-86515714D01*
X181817142Y-86563333D01*
X178068571Y-84845714D02*
X178068571Y-85512380D01*
X177830476Y-84464761D02*
X177592380Y-85179047D01*
X178211428Y-85179047D01*
X178497142Y-84512380D02*
X179163809Y-84512380D01*
X178735238Y-85512380D01*
X179735238Y-84512380D02*
X179830476Y-84512380D01*
X179925714Y-84560000D01*
X179973333Y-84607619D01*
X180020952Y-84702857D01*
X180068571Y-84893333D01*
X180068571Y-85131428D01*
X180020952Y-85321904D01*
X179973333Y-85417142D01*
X179925714Y-85464761D01*
X179830476Y-85512380D01*
X179735238Y-85512380D01*
X179640000Y-85464761D01*
X179592380Y-85417142D01*
X179544761Y-85321904D01*
X179497142Y-85131428D01*
X179497142Y-84893333D01*
X179544761Y-84702857D01*
X179592380Y-84607619D01*
X179640000Y-84560000D01*
X179735238Y-84512380D01*
X180497142Y-85512380D02*
X180497142Y-84845714D01*
X180497142Y-85036190D02*
X180544761Y-84940952D01*
X180592380Y-84893333D01*
X180687619Y-84845714D01*
X180782857Y-84845714D01*
G04 #@! TO.C,R4*
X162952380Y-92589166D02*
X162476190Y-92922500D01*
X162952380Y-93160595D02*
X161952380Y-93160595D01*
X161952380Y-92779642D01*
X162000000Y-92684404D01*
X162047619Y-92636785D01*
X162142857Y-92589166D01*
X162285714Y-92589166D01*
X162380952Y-92636785D01*
X162428571Y-92684404D01*
X162476190Y-92779642D01*
X162476190Y-93160595D01*
X162285714Y-91732023D02*
X162952380Y-91732023D01*
X161904761Y-91970119D02*
X162619047Y-92208214D01*
X162619047Y-91589166D01*
G04 #@! TO.C,R5*
X169993333Y-105812380D02*
X169660000Y-105336190D01*
X169421904Y-105812380D02*
X169421904Y-104812380D01*
X169802857Y-104812380D01*
X169898095Y-104860000D01*
X169945714Y-104907619D01*
X169993333Y-105002857D01*
X169993333Y-105145714D01*
X169945714Y-105240952D01*
X169898095Y-105288571D01*
X169802857Y-105336190D01*
X169421904Y-105336190D01*
X170898095Y-104812380D02*
X170421904Y-104812380D01*
X170374285Y-105288571D01*
X170421904Y-105240952D01*
X170517142Y-105193333D01*
X170755238Y-105193333D01*
X170850476Y-105240952D01*
X170898095Y-105288571D01*
X170945714Y-105383809D01*
X170945714Y-105621904D01*
X170898095Y-105717142D01*
X170850476Y-105764761D01*
X170755238Y-105812380D01*
X170517142Y-105812380D01*
X170421904Y-105764761D01*
X170374285Y-105717142D01*
X168612380Y-101512380D02*
X168707619Y-101512380D01*
X168802857Y-101560000D01*
X168850476Y-101607619D01*
X168898095Y-101702857D01*
X168945714Y-101893333D01*
X168945714Y-102131428D01*
X168898095Y-102321904D01*
X168850476Y-102417142D01*
X168802857Y-102464761D01*
X168707619Y-102512380D01*
X168612380Y-102512380D01*
X168517142Y-102464761D01*
X168469523Y-102417142D01*
X168421904Y-102321904D01*
X168374285Y-102131428D01*
X168374285Y-101893333D01*
X168421904Y-101702857D01*
X168469523Y-101607619D01*
X168517142Y-101560000D01*
X168612380Y-101512380D01*
X169374285Y-102417142D02*
X169421904Y-102464761D01*
X169374285Y-102512380D01*
X169326666Y-102464761D01*
X169374285Y-102417142D01*
X169374285Y-102512380D01*
X170040952Y-101512380D02*
X170136190Y-101512380D01*
X170231428Y-101560000D01*
X170279047Y-101607619D01*
X170326666Y-101702857D01*
X170374285Y-101893333D01*
X170374285Y-102131428D01*
X170326666Y-102321904D01*
X170279047Y-102417142D01*
X170231428Y-102464761D01*
X170136190Y-102512380D01*
X170040952Y-102512380D01*
X169945714Y-102464761D01*
X169898095Y-102417142D01*
X169850476Y-102321904D01*
X169802857Y-102131428D01*
X169802857Y-101893333D01*
X169850476Y-101702857D01*
X169898095Y-101607619D01*
X169945714Y-101560000D01*
X170040952Y-101512380D01*
X171326666Y-102512380D02*
X170755238Y-102512380D01*
X171040952Y-102512380D02*
X171040952Y-101512380D01*
X170945714Y-101655238D01*
X170850476Y-101750476D01*
X170755238Y-101798095D01*
X171755238Y-102512380D02*
X171755238Y-101845714D01*
X171755238Y-102036190D02*
X171802857Y-101940952D01*
X171850476Y-101893333D01*
X171945714Y-101845714D01*
X172040952Y-101845714D01*
G04 #@! TO.C,R6*
X183582380Y-102636666D02*
X183106190Y-102970000D01*
X183582380Y-103208095D02*
X182582380Y-103208095D01*
X182582380Y-102827142D01*
X182630000Y-102731904D01*
X182677619Y-102684285D01*
X182772857Y-102636666D01*
X182915714Y-102636666D01*
X183010952Y-102684285D01*
X183058571Y-102731904D01*
X183106190Y-102827142D01*
X183106190Y-103208095D01*
X182582380Y-101779523D02*
X182582380Y-101970000D01*
X182630000Y-102065238D01*
X182677619Y-102112857D01*
X182820476Y-102208095D01*
X183010952Y-102255714D01*
X183391904Y-102255714D01*
X183487142Y-102208095D01*
X183534761Y-102160476D01*
X183582380Y-102065238D01*
X183582380Y-101874761D01*
X183534761Y-101779523D01*
X183487142Y-101731904D01*
X183391904Y-101684285D01*
X183153809Y-101684285D01*
X183058571Y-101731904D01*
X183010952Y-101779523D01*
X182963333Y-101874761D01*
X182963333Y-102065238D01*
X183010952Y-102160476D01*
X183058571Y-102208095D01*
X183153809Y-102255714D01*
X180782380Y-106847619D02*
X180782380Y-106752380D01*
X180830000Y-106657142D01*
X180877619Y-106609523D01*
X180972857Y-106561904D01*
X181163333Y-106514285D01*
X181401428Y-106514285D01*
X181591904Y-106561904D01*
X181687142Y-106609523D01*
X181734761Y-106657142D01*
X181782380Y-106752380D01*
X181782380Y-106847619D01*
X181734761Y-106942857D01*
X181687142Y-106990476D01*
X181591904Y-107038095D01*
X181401428Y-107085714D01*
X181163333Y-107085714D01*
X180972857Y-107038095D01*
X180877619Y-106990476D01*
X180830000Y-106942857D01*
X180782380Y-106847619D01*
X181687142Y-106085714D02*
X181734761Y-106038095D01*
X181782380Y-106085714D01*
X181734761Y-106133333D01*
X181687142Y-106085714D01*
X181782380Y-106085714D01*
X180782380Y-105419047D02*
X180782380Y-105323809D01*
X180830000Y-105228571D01*
X180877619Y-105180952D01*
X180972857Y-105133333D01*
X181163333Y-105085714D01*
X181401428Y-105085714D01*
X181591904Y-105133333D01*
X181687142Y-105180952D01*
X181734761Y-105228571D01*
X181782380Y-105323809D01*
X181782380Y-105419047D01*
X181734761Y-105514285D01*
X181687142Y-105561904D01*
X181591904Y-105609523D01*
X181401428Y-105657142D01*
X181163333Y-105657142D01*
X180972857Y-105609523D01*
X180877619Y-105561904D01*
X180830000Y-105514285D01*
X180782380Y-105419047D01*
X181782380Y-104133333D02*
X181782380Y-104704761D01*
X181782380Y-104419047D02*
X180782380Y-104419047D01*
X180925238Y-104514285D01*
X181020476Y-104609523D01*
X181068095Y-104704761D01*
X181782380Y-103704761D02*
X181115714Y-103704761D01*
X181306190Y-103704761D02*
X181210952Y-103657142D01*
X181163333Y-103609523D01*
X181115714Y-103514285D01*
X181115714Y-103419047D01*
G04 #@! TO.C,R7*
X182552380Y-96866666D02*
X182076190Y-97200000D01*
X182552380Y-97438095D02*
X181552380Y-97438095D01*
X181552380Y-97057142D01*
X181600000Y-96961904D01*
X181647619Y-96914285D01*
X181742857Y-96866666D01*
X181885714Y-96866666D01*
X181980952Y-96914285D01*
X182028571Y-96961904D01*
X182076190Y-97057142D01*
X182076190Y-97438095D01*
X181552380Y-96533333D02*
X181552380Y-95866666D01*
X182552380Y-96295238D01*
G04 #@! TO.C,SW1*
X158394761Y-82763333D02*
X158442380Y-82620476D01*
X158442380Y-82382380D01*
X158394761Y-82287142D01*
X158347142Y-82239523D01*
X158251904Y-82191904D01*
X158156666Y-82191904D01*
X158061428Y-82239523D01*
X158013809Y-82287142D01*
X157966190Y-82382380D01*
X157918571Y-82572857D01*
X157870952Y-82668095D01*
X157823333Y-82715714D01*
X157728095Y-82763333D01*
X157632857Y-82763333D01*
X157537619Y-82715714D01*
X157490000Y-82668095D01*
X157442380Y-82572857D01*
X157442380Y-82334761D01*
X157490000Y-82191904D01*
X157442380Y-81858571D02*
X158442380Y-81620476D01*
X157728095Y-81430000D01*
X158442380Y-81239523D01*
X157442380Y-81001428D01*
X158442380Y-80096666D02*
X158442380Y-80668095D01*
X158442380Y-80382380D02*
X157442380Y-80382380D01*
X157585238Y-80477619D01*
X157680476Y-80572857D01*
X157728095Y-80668095D01*
X151016666Y-81554761D02*
X151159523Y-81602380D01*
X151397619Y-81602380D01*
X151492857Y-81554761D01*
X151540476Y-81507142D01*
X151588095Y-81411904D01*
X151588095Y-81316666D01*
X151540476Y-81221428D01*
X151492857Y-81173809D01*
X151397619Y-81126190D01*
X151207142Y-81078571D01*
X151111904Y-81030952D01*
X151064285Y-80983333D01*
X151016666Y-80888095D01*
X151016666Y-80792857D01*
X151064285Y-80697619D01*
X151111904Y-80650000D01*
X151207142Y-80602380D01*
X151445238Y-80602380D01*
X151588095Y-80650000D01*
X151921428Y-80602380D02*
X152159523Y-81602380D01*
X152350000Y-80888095D01*
X152540476Y-81602380D01*
X152778571Y-80602380D01*
X153683333Y-81602380D02*
X153111904Y-81602380D01*
X153397619Y-81602380D02*
X153397619Y-80602380D01*
X153302380Y-80745238D01*
X153207142Y-80840476D01*
X153111904Y-80888095D01*
G04 #@! TO.C,SW2*
X163944761Y-82153333D02*
X163992380Y-82010476D01*
X163992380Y-81772380D01*
X163944761Y-81677142D01*
X163897142Y-81629523D01*
X163801904Y-81581904D01*
X163706666Y-81581904D01*
X163611428Y-81629523D01*
X163563809Y-81677142D01*
X163516190Y-81772380D01*
X163468571Y-81962857D01*
X163420952Y-82058095D01*
X163373333Y-82105714D01*
X163278095Y-82153333D01*
X163182857Y-82153333D01*
X163087619Y-82105714D01*
X163040000Y-82058095D01*
X162992380Y-81962857D01*
X162992380Y-81724761D01*
X163040000Y-81581904D01*
X162992380Y-81248571D02*
X163992380Y-81010476D01*
X163278095Y-80820000D01*
X163992380Y-80629523D01*
X162992380Y-80391428D01*
X163087619Y-80058095D02*
X163040000Y-80010476D01*
X162992380Y-79915238D01*
X162992380Y-79677142D01*
X163040000Y-79581904D01*
X163087619Y-79534285D01*
X163182857Y-79486666D01*
X163278095Y-79486666D01*
X163420952Y-79534285D01*
X163992380Y-80105714D01*
X163992380Y-79486666D01*
X168954761Y-81783333D02*
X169002380Y-81640476D01*
X169002380Y-81402380D01*
X168954761Y-81307142D01*
X168907142Y-81259523D01*
X168811904Y-81211904D01*
X168716666Y-81211904D01*
X168621428Y-81259523D01*
X168573809Y-81307142D01*
X168526190Y-81402380D01*
X168478571Y-81592857D01*
X168430952Y-81688095D01*
X168383333Y-81735714D01*
X168288095Y-81783333D01*
X168192857Y-81783333D01*
X168097619Y-81735714D01*
X168050000Y-81688095D01*
X168002380Y-81592857D01*
X168002380Y-81354761D01*
X168050000Y-81211904D01*
X168002380Y-80878571D02*
X169002380Y-80640476D01*
X168288095Y-80450000D01*
X169002380Y-80259523D01*
X168002380Y-80021428D01*
X168097619Y-79688095D02*
X168050000Y-79640476D01*
X168002380Y-79545238D01*
X168002380Y-79307142D01*
X168050000Y-79211904D01*
X168097619Y-79164285D01*
X168192857Y-79116666D01*
X168288095Y-79116666D01*
X168430952Y-79164285D01*
X169002380Y-79735714D01*
X169002380Y-79116666D01*
G04 #@! TO.C,U1*
X156148095Y-90572380D02*
X156148095Y-91381904D01*
X156195714Y-91477142D01*
X156243333Y-91524761D01*
X156338571Y-91572380D01*
X156529047Y-91572380D01*
X156624285Y-91524761D01*
X156671904Y-91477142D01*
X156719523Y-91381904D01*
X156719523Y-90572380D01*
X157719523Y-91572380D02*
X157148095Y-91572380D01*
X157433809Y-91572380D02*
X157433809Y-90572380D01*
X157338571Y-90715238D01*
X157243333Y-90810476D01*
X157148095Y-90858095D01*
X152802380Y-98122857D02*
X152802380Y-97551428D01*
X153802380Y-97837142D02*
X152802380Y-97837142D01*
X153802380Y-97218095D02*
X152802380Y-97218095D01*
X152802380Y-96837142D01*
X152850000Y-96741904D01*
X152897619Y-96694285D01*
X152992857Y-96646666D01*
X153135714Y-96646666D01*
X153230952Y-96694285D01*
X153278571Y-96741904D01*
X153326190Y-96837142D01*
X153326190Y-97218095D01*
X153754761Y-96265714D02*
X153802380Y-96122857D01*
X153802380Y-95884761D01*
X153754761Y-95789523D01*
X153707142Y-95741904D01*
X153611904Y-95694285D01*
X153516666Y-95694285D01*
X153421428Y-95741904D01*
X153373809Y-95789523D01*
X153326190Y-95884761D01*
X153278571Y-96075238D01*
X153230952Y-96170476D01*
X153183333Y-96218095D01*
X153088095Y-96265714D01*
X152992857Y-96265714D01*
X152897619Y-96218095D01*
X152850000Y-96170476D01*
X152802380Y-96075238D01*
X152802380Y-95837142D01*
X152850000Y-95694285D01*
X152802380Y-94837142D02*
X152802380Y-95027619D01*
X152850000Y-95122857D01*
X152897619Y-95170476D01*
X153040476Y-95265714D01*
X153230952Y-95313333D01*
X153611904Y-95313333D01*
X153707142Y-95265714D01*
X153754761Y-95218095D01*
X153802380Y-95122857D01*
X153802380Y-94932380D01*
X153754761Y-94837142D01*
X153707142Y-94789523D01*
X153611904Y-94741904D01*
X153373809Y-94741904D01*
X153278571Y-94789523D01*
X153230952Y-94837142D01*
X153183333Y-94932380D01*
X153183333Y-95122857D01*
X153230952Y-95218095D01*
X153278571Y-95265714D01*
X153373809Y-95313333D01*
X153802380Y-93789523D02*
X153802380Y-94360952D01*
X153802380Y-94075238D02*
X152802380Y-94075238D01*
X152945238Y-94170476D01*
X153040476Y-94265714D01*
X153088095Y-94360952D01*
X152802380Y-93170476D02*
X152802380Y-93075238D01*
X152850000Y-92980000D01*
X152897619Y-92932380D01*
X152992857Y-92884761D01*
X153183333Y-92837142D01*
X153421428Y-92837142D01*
X153611904Y-92884761D01*
X153707142Y-92932380D01*
X153754761Y-92980000D01*
X153802380Y-93075238D01*
X153802380Y-93170476D01*
X153754761Y-93265714D01*
X153707142Y-93313333D01*
X153611904Y-93360952D01*
X153421428Y-93408571D01*
X153183333Y-93408571D01*
X152992857Y-93360952D01*
X152897619Y-93313333D01*
X152850000Y-93265714D01*
X152802380Y-93170476D01*
X153802380Y-92360952D02*
X153802380Y-92170476D01*
X153754761Y-92075238D01*
X153707142Y-92027619D01*
X153564285Y-91932380D01*
X153373809Y-91884761D01*
X152992857Y-91884761D01*
X152897619Y-91932380D01*
X152850000Y-91980000D01*
X152802380Y-92075238D01*
X152802380Y-92265714D01*
X152850000Y-92360952D01*
X152897619Y-92408571D01*
X152992857Y-92456190D01*
X153230952Y-92456190D01*
X153326190Y-92408571D01*
X153373809Y-92360952D01*
X153421428Y-92265714D01*
X153421428Y-92075238D01*
X153373809Y-91980000D01*
X153326190Y-91932380D01*
X153230952Y-91884761D01*
X152897619Y-91503809D02*
X152850000Y-91456190D01*
X152802380Y-91360952D01*
X152802380Y-91122857D01*
X152850000Y-91027619D01*
X152897619Y-90980000D01*
X152992857Y-90932380D01*
X153088095Y-90932380D01*
X153230952Y-90980000D01*
X153802380Y-91551428D01*
X153802380Y-90932380D01*
G04 #@! TO.C,U2*
X171668095Y-86042380D02*
X171668095Y-86851904D01*
X171715714Y-86947142D01*
X171763333Y-86994761D01*
X171858571Y-87042380D01*
X172049047Y-87042380D01*
X172144285Y-86994761D01*
X172191904Y-86947142D01*
X172239523Y-86851904D01*
X172239523Y-86042380D01*
X172668095Y-86137619D02*
X172715714Y-86090000D01*
X172810952Y-86042380D01*
X173049047Y-86042380D01*
X173144285Y-86090000D01*
X173191904Y-86137619D01*
X173239523Y-86232857D01*
X173239523Y-86328095D01*
X173191904Y-86470952D01*
X172620476Y-87042380D01*
X173239523Y-87042380D01*
X168717142Y-87482380D02*
X169383809Y-87482380D01*
X168955238Y-88482380D01*
X170193333Y-87815714D02*
X170193333Y-88482380D01*
X169955238Y-87434761D02*
X169717142Y-88149047D01*
X170336190Y-88149047D01*
X170717142Y-88482380D02*
X170717142Y-87482380D01*
X170717142Y-87958571D02*
X171288571Y-87958571D01*
X171288571Y-88482380D02*
X171288571Y-87482380D01*
X172336190Y-88387142D02*
X172288571Y-88434761D01*
X172145714Y-88482380D01*
X172050476Y-88482380D01*
X171907619Y-88434761D01*
X171812380Y-88339523D01*
X171764761Y-88244285D01*
X171717142Y-88053809D01*
X171717142Y-87910952D01*
X171764761Y-87720476D01*
X171812380Y-87625238D01*
X171907619Y-87530000D01*
X172050476Y-87482380D01*
X172145714Y-87482380D01*
X172288571Y-87530000D01*
X172336190Y-87577619D01*
X172621904Y-87482380D02*
X173193333Y-87482380D01*
X172907619Y-88482380D02*
X172907619Y-87482380D01*
X174002857Y-87482380D02*
X173526666Y-87482380D01*
X173479047Y-87958571D01*
X173526666Y-87910952D01*
X173621904Y-87863333D01*
X173860000Y-87863333D01*
X173955238Y-87910952D01*
X174002857Y-87958571D01*
X174050476Y-88053809D01*
X174050476Y-88291904D01*
X174002857Y-88387142D01*
X173955238Y-88434761D01*
X173860000Y-88482380D01*
X173621904Y-88482380D01*
X173526666Y-88434761D01*
X173479047Y-88387142D01*
X174526666Y-88482380D02*
X174717142Y-88482380D01*
X174812380Y-88434761D01*
X174860000Y-88387142D01*
X174955238Y-88244285D01*
X175002857Y-88053809D01*
X175002857Y-87672857D01*
X174955238Y-87577619D01*
X174907619Y-87530000D01*
X174812380Y-87482380D01*
X174621904Y-87482380D01*
X174526666Y-87530000D01*
X174479047Y-87577619D01*
X174431428Y-87672857D01*
X174431428Y-87910952D01*
X174479047Y-88006190D01*
X174526666Y-88053809D01*
X174621904Y-88101428D01*
X174812380Y-88101428D01*
X174907619Y-88053809D01*
X174955238Y-88006190D01*
X175002857Y-87910952D01*
X175907619Y-87482380D02*
X175431428Y-87482380D01*
X175383809Y-87958571D01*
X175431428Y-87910952D01*
X175526666Y-87863333D01*
X175764761Y-87863333D01*
X175860000Y-87910952D01*
X175907619Y-87958571D01*
X175955238Y-88053809D01*
X175955238Y-88291904D01*
X175907619Y-88387142D01*
X175860000Y-88434761D01*
X175764761Y-88482380D01*
X175526666Y-88482380D01*
X175431428Y-88434761D01*
X175383809Y-88387142D01*
G04 #@! TO.C,U3*
X175588095Y-102192380D02*
X175588095Y-103001904D01*
X175635714Y-103097142D01*
X175683333Y-103144761D01*
X175778571Y-103192380D01*
X175969047Y-103192380D01*
X176064285Y-103144761D01*
X176111904Y-103097142D01*
X176159523Y-103001904D01*
X176159523Y-102192380D01*
X176540476Y-102192380D02*
X177159523Y-102192380D01*
X176826190Y-102573333D01*
X176969047Y-102573333D01*
X177064285Y-102620952D01*
X177111904Y-102668571D01*
X177159523Y-102763809D01*
X177159523Y-103001904D01*
X177111904Y-103097142D01*
X177064285Y-103144761D01*
X176969047Y-103192380D01*
X176683333Y-103192380D01*
X176588095Y-103144761D01*
X176540476Y-103097142D01*
G04 #@! TO.C,Danger!*
X126288761Y-68623380D02*
X126288761Y-67623380D01*
X126526857Y-67623380D01*
X126669714Y-67671000D01*
X126764952Y-67766238D01*
X126812571Y-67861476D01*
X126860190Y-68051952D01*
X126860190Y-68194809D01*
X126812571Y-68385285D01*
X126764952Y-68480523D01*
X126669714Y-68575761D01*
X126526857Y-68623380D01*
X126288761Y-68623380D01*
X127717333Y-68623380D02*
X127717333Y-68099571D01*
X127669714Y-68004333D01*
X127574476Y-67956714D01*
X127384000Y-67956714D01*
X127288761Y-68004333D01*
X127717333Y-68575761D02*
X127622095Y-68623380D01*
X127384000Y-68623380D01*
X127288761Y-68575761D01*
X127241142Y-68480523D01*
X127241142Y-68385285D01*
X127288761Y-68290047D01*
X127384000Y-68242428D01*
X127622095Y-68242428D01*
X127717333Y-68194809D01*
X128193523Y-67956714D02*
X128193523Y-68623380D01*
X128193523Y-68051952D02*
X128241142Y-68004333D01*
X128336380Y-67956714D01*
X128479238Y-67956714D01*
X128574476Y-68004333D01*
X128622095Y-68099571D01*
X128622095Y-68623380D01*
X129526857Y-67956714D02*
X129526857Y-68766238D01*
X129479238Y-68861476D01*
X129431619Y-68909095D01*
X129336380Y-68956714D01*
X129193523Y-68956714D01*
X129098285Y-68909095D01*
X129526857Y-68575761D02*
X129431619Y-68623380D01*
X129241142Y-68623380D01*
X129145904Y-68575761D01*
X129098285Y-68528142D01*
X129050666Y-68432904D01*
X129050666Y-68147190D01*
X129098285Y-68051952D01*
X129145904Y-68004333D01*
X129241142Y-67956714D01*
X129431619Y-67956714D01*
X129526857Y-68004333D01*
X130384000Y-68575761D02*
X130288761Y-68623380D01*
X130098285Y-68623380D01*
X130003047Y-68575761D01*
X129955428Y-68480523D01*
X129955428Y-68099571D01*
X130003047Y-68004333D01*
X130098285Y-67956714D01*
X130288761Y-67956714D01*
X130384000Y-68004333D01*
X130431619Y-68099571D01*
X130431619Y-68194809D01*
X129955428Y-68290047D01*
X130860190Y-68623380D02*
X130860190Y-67956714D01*
X130860190Y-68147190D02*
X130907809Y-68051952D01*
X130955428Y-68004333D01*
X131050666Y-67956714D01*
X131145904Y-67956714D01*
X131479238Y-68528142D02*
X131526857Y-68575761D01*
X131479238Y-68623380D01*
X131431619Y-68575761D01*
X131479238Y-68528142D01*
X131479238Y-68623380D01*
X131479238Y-68242428D02*
X131431619Y-67671000D01*
X131479238Y-67623380D01*
X131526857Y-67671000D01*
X131479238Y-68242428D01*
X131479238Y-67623380D01*
G04 #@! TD*
M02*
