G04 #@! TF.GenerationSoftware,KiCad,Pcbnew,5.0.2-bee76a0~70~ubuntu18.10.1*
G04 #@! TF.CreationDate,2019-05-29T11:20:30+10:00*
G04 #@! TF.ProjectId,ecig,65636967-2e6b-4696-9361-645f70636258,rev?*
G04 #@! TF.SameCoordinates,Original*
G04 #@! TF.FileFunction,Soldermask,Top*
G04 #@! TF.FilePolarity,Negative*
%FSLAX46Y46*%
G04 Gerber Fmt 4.6, Leading zero omitted, Abs format (unit mm)*
G04 Created by KiCad (PCBNEW 5.0.2-bee76a0~70~ubuntu18.10.1) date Wed 29 May 2019 11:20:30 AEST*
%MOMM*%
%LPD*%
G01*
G04 APERTURE LIST*
%ADD10C,0.100000*%
G04 APERTURE END LIST*
D10*
G36*
X159590443Y-110095519D02*
X159656627Y-110102037D01*
X159769853Y-110136384D01*
X159826467Y-110153557D01*
X159965087Y-110227652D01*
X159982991Y-110237222D01*
X160018729Y-110266552D01*
X160120186Y-110349814D01*
X160203448Y-110451271D01*
X160232778Y-110487009D01*
X160232779Y-110487011D01*
X160316443Y-110643533D01*
X160316443Y-110643534D01*
X160367963Y-110813373D01*
X160385359Y-110990000D01*
X160367963Y-111166627D01*
X160333616Y-111279853D01*
X160316443Y-111336467D01*
X160242348Y-111475087D01*
X160232778Y-111492991D01*
X160203448Y-111528729D01*
X160120186Y-111630186D01*
X160018729Y-111713448D01*
X159982991Y-111742778D01*
X159982989Y-111742779D01*
X159826467Y-111826443D01*
X159769853Y-111843616D01*
X159656627Y-111877963D01*
X159590442Y-111884482D01*
X159524260Y-111891000D01*
X159435740Y-111891000D01*
X159369558Y-111884482D01*
X159303373Y-111877963D01*
X159190147Y-111843616D01*
X159133533Y-111826443D01*
X158977011Y-111742779D01*
X158977009Y-111742778D01*
X158941271Y-111713448D01*
X158839814Y-111630186D01*
X158756552Y-111528729D01*
X158727222Y-111492991D01*
X158717652Y-111475087D01*
X158643557Y-111336467D01*
X158626384Y-111279853D01*
X158592037Y-111166627D01*
X158574641Y-110990000D01*
X158592037Y-110813373D01*
X158643557Y-110643534D01*
X158643557Y-110643533D01*
X158727221Y-110487011D01*
X158727222Y-110487009D01*
X158756552Y-110451271D01*
X158839814Y-110349814D01*
X158941271Y-110266552D01*
X158977009Y-110237222D01*
X158994913Y-110227652D01*
X159133533Y-110153557D01*
X159190147Y-110136384D01*
X159303373Y-110102037D01*
X159369557Y-110095519D01*
X159435740Y-110089000D01*
X159524260Y-110089000D01*
X159590443Y-110095519D01*
X159590443Y-110095519D01*
G37*
G36*
X162130443Y-110095519D02*
X162196627Y-110102037D01*
X162309853Y-110136384D01*
X162366467Y-110153557D01*
X162505087Y-110227652D01*
X162522991Y-110237222D01*
X162558729Y-110266552D01*
X162660186Y-110349814D01*
X162743448Y-110451271D01*
X162772778Y-110487009D01*
X162772779Y-110487011D01*
X162856443Y-110643533D01*
X162856443Y-110643534D01*
X162907963Y-110813373D01*
X162925359Y-110990000D01*
X162907963Y-111166627D01*
X162873616Y-111279853D01*
X162856443Y-111336467D01*
X162782348Y-111475087D01*
X162772778Y-111492991D01*
X162743448Y-111528729D01*
X162660186Y-111630186D01*
X162558729Y-111713448D01*
X162522991Y-111742778D01*
X162522989Y-111742779D01*
X162366467Y-111826443D01*
X162309853Y-111843616D01*
X162196627Y-111877963D01*
X162130442Y-111884482D01*
X162064260Y-111891000D01*
X161975740Y-111891000D01*
X161909558Y-111884482D01*
X161843373Y-111877963D01*
X161730147Y-111843616D01*
X161673533Y-111826443D01*
X161517011Y-111742779D01*
X161517009Y-111742778D01*
X161481271Y-111713448D01*
X161379814Y-111630186D01*
X161296552Y-111528729D01*
X161267222Y-111492991D01*
X161257652Y-111475087D01*
X161183557Y-111336467D01*
X161166384Y-111279853D01*
X161132037Y-111166627D01*
X161114641Y-110990000D01*
X161132037Y-110813373D01*
X161183557Y-110643534D01*
X161183557Y-110643533D01*
X161267221Y-110487011D01*
X161267222Y-110487009D01*
X161296552Y-110451271D01*
X161379814Y-110349814D01*
X161481271Y-110266552D01*
X161517009Y-110237222D01*
X161534913Y-110227652D01*
X161673533Y-110153557D01*
X161730147Y-110136384D01*
X161843373Y-110102037D01*
X161909557Y-110095519D01*
X161975740Y-110089000D01*
X162064260Y-110089000D01*
X162130443Y-110095519D01*
X162130443Y-110095519D01*
G37*
G36*
X164670443Y-110095519D02*
X164736627Y-110102037D01*
X164849853Y-110136384D01*
X164906467Y-110153557D01*
X165045087Y-110227652D01*
X165062991Y-110237222D01*
X165098729Y-110266552D01*
X165200186Y-110349814D01*
X165283448Y-110451271D01*
X165312778Y-110487009D01*
X165312779Y-110487011D01*
X165396443Y-110643533D01*
X165396443Y-110643534D01*
X165447963Y-110813373D01*
X165465359Y-110990000D01*
X165447963Y-111166627D01*
X165413616Y-111279853D01*
X165396443Y-111336467D01*
X165322348Y-111475087D01*
X165312778Y-111492991D01*
X165283448Y-111528729D01*
X165200186Y-111630186D01*
X165098729Y-111713448D01*
X165062991Y-111742778D01*
X165062989Y-111742779D01*
X164906467Y-111826443D01*
X164849853Y-111843616D01*
X164736627Y-111877963D01*
X164670442Y-111884482D01*
X164604260Y-111891000D01*
X164515740Y-111891000D01*
X164449558Y-111884482D01*
X164383373Y-111877963D01*
X164270147Y-111843616D01*
X164213533Y-111826443D01*
X164057011Y-111742779D01*
X164057009Y-111742778D01*
X164021271Y-111713448D01*
X163919814Y-111630186D01*
X163836552Y-111528729D01*
X163807222Y-111492991D01*
X163797652Y-111475087D01*
X163723557Y-111336467D01*
X163706384Y-111279853D01*
X163672037Y-111166627D01*
X163654641Y-110990000D01*
X163672037Y-110813373D01*
X163723557Y-110643534D01*
X163723557Y-110643533D01*
X163807221Y-110487011D01*
X163807222Y-110487009D01*
X163836552Y-110451271D01*
X163919814Y-110349814D01*
X164021271Y-110266552D01*
X164057009Y-110237222D01*
X164074913Y-110227652D01*
X164213533Y-110153557D01*
X164270147Y-110136384D01*
X164383373Y-110102037D01*
X164449557Y-110095519D01*
X164515740Y-110089000D01*
X164604260Y-110089000D01*
X164670443Y-110095519D01*
X164670443Y-110095519D01*
G37*
G36*
X157050443Y-110095519D02*
X157116627Y-110102037D01*
X157229853Y-110136384D01*
X157286467Y-110153557D01*
X157425087Y-110227652D01*
X157442991Y-110237222D01*
X157478729Y-110266552D01*
X157580186Y-110349814D01*
X157663448Y-110451271D01*
X157692778Y-110487009D01*
X157692779Y-110487011D01*
X157776443Y-110643533D01*
X157776443Y-110643534D01*
X157827963Y-110813373D01*
X157845359Y-110990000D01*
X157827963Y-111166627D01*
X157793616Y-111279853D01*
X157776443Y-111336467D01*
X157702348Y-111475087D01*
X157692778Y-111492991D01*
X157663448Y-111528729D01*
X157580186Y-111630186D01*
X157478729Y-111713448D01*
X157442991Y-111742778D01*
X157442989Y-111742779D01*
X157286467Y-111826443D01*
X157229853Y-111843616D01*
X157116627Y-111877963D01*
X157050442Y-111884482D01*
X156984260Y-111891000D01*
X156895740Y-111891000D01*
X156829558Y-111884482D01*
X156763373Y-111877963D01*
X156650147Y-111843616D01*
X156593533Y-111826443D01*
X156437011Y-111742779D01*
X156437009Y-111742778D01*
X156401271Y-111713448D01*
X156299814Y-111630186D01*
X156216552Y-111528729D01*
X156187222Y-111492991D01*
X156177652Y-111475087D01*
X156103557Y-111336467D01*
X156086384Y-111279853D01*
X156052037Y-111166627D01*
X156034641Y-110990000D01*
X156052037Y-110813373D01*
X156103557Y-110643534D01*
X156103557Y-110643533D01*
X156187221Y-110487011D01*
X156187222Y-110487009D01*
X156216552Y-110451271D01*
X156299814Y-110349814D01*
X156401271Y-110266552D01*
X156437009Y-110237222D01*
X156454913Y-110227652D01*
X156593533Y-110153557D01*
X156650147Y-110136384D01*
X156763373Y-110102037D01*
X156829557Y-110095519D01*
X156895740Y-110089000D01*
X156984260Y-110089000D01*
X157050443Y-110095519D01*
X157050443Y-110095519D01*
G37*
G36*
X154510443Y-110095519D02*
X154576627Y-110102037D01*
X154689853Y-110136384D01*
X154746467Y-110153557D01*
X154885087Y-110227652D01*
X154902991Y-110237222D01*
X154938729Y-110266552D01*
X155040186Y-110349814D01*
X155123448Y-110451271D01*
X155152778Y-110487009D01*
X155152779Y-110487011D01*
X155236443Y-110643533D01*
X155236443Y-110643534D01*
X155287963Y-110813373D01*
X155305359Y-110990000D01*
X155287963Y-111166627D01*
X155253616Y-111279853D01*
X155236443Y-111336467D01*
X155162348Y-111475087D01*
X155152778Y-111492991D01*
X155123448Y-111528729D01*
X155040186Y-111630186D01*
X154938729Y-111713448D01*
X154902991Y-111742778D01*
X154902989Y-111742779D01*
X154746467Y-111826443D01*
X154689853Y-111843616D01*
X154576627Y-111877963D01*
X154510442Y-111884482D01*
X154444260Y-111891000D01*
X154355740Y-111891000D01*
X154289558Y-111884482D01*
X154223373Y-111877963D01*
X154110147Y-111843616D01*
X154053533Y-111826443D01*
X153897011Y-111742779D01*
X153897009Y-111742778D01*
X153861271Y-111713448D01*
X153759814Y-111630186D01*
X153676552Y-111528729D01*
X153647222Y-111492991D01*
X153637652Y-111475087D01*
X153563557Y-111336467D01*
X153546384Y-111279853D01*
X153512037Y-111166627D01*
X153494641Y-110990000D01*
X153512037Y-110813373D01*
X153563557Y-110643534D01*
X153563557Y-110643533D01*
X153647221Y-110487011D01*
X153647222Y-110487009D01*
X153676552Y-110451271D01*
X153759814Y-110349814D01*
X153861271Y-110266552D01*
X153897009Y-110237222D01*
X153914913Y-110227652D01*
X154053533Y-110153557D01*
X154110147Y-110136384D01*
X154223373Y-110102037D01*
X154289557Y-110095519D01*
X154355740Y-110089000D01*
X154444260Y-110089000D01*
X154510443Y-110095519D01*
X154510443Y-110095519D01*
G37*
G36*
X171469466Y-108083565D02*
X171508137Y-108095296D01*
X171543779Y-108114348D01*
X171575017Y-108139983D01*
X171600652Y-108171221D01*
X171619704Y-108206863D01*
X171631435Y-108245534D01*
X171636000Y-108291888D01*
X171636000Y-109368112D01*
X171631435Y-109414466D01*
X171619704Y-109453137D01*
X171600652Y-109488779D01*
X171575017Y-109520017D01*
X171543779Y-109545652D01*
X171508137Y-109564704D01*
X171469466Y-109576435D01*
X171423112Y-109581000D01*
X170771888Y-109581000D01*
X170725534Y-109576435D01*
X170686863Y-109564704D01*
X170651221Y-109545652D01*
X170619983Y-109520017D01*
X170594348Y-109488779D01*
X170575296Y-109453137D01*
X170563565Y-109414466D01*
X170559000Y-109368112D01*
X170559000Y-108291888D01*
X170563565Y-108245534D01*
X170575296Y-108206863D01*
X170594348Y-108171221D01*
X170619983Y-108139983D01*
X170651221Y-108114348D01*
X170686863Y-108095296D01*
X170725534Y-108083565D01*
X170771888Y-108079000D01*
X171423112Y-108079000D01*
X171469466Y-108083565D01*
X171469466Y-108083565D01*
G37*
G36*
X169594466Y-108083565D02*
X169633137Y-108095296D01*
X169668779Y-108114348D01*
X169700017Y-108139983D01*
X169725652Y-108171221D01*
X169744704Y-108206863D01*
X169756435Y-108245534D01*
X169761000Y-108291888D01*
X169761000Y-109368112D01*
X169756435Y-109414466D01*
X169744704Y-109453137D01*
X169725652Y-109488779D01*
X169700017Y-109520017D01*
X169668779Y-109545652D01*
X169633137Y-109564704D01*
X169594466Y-109576435D01*
X169548112Y-109581000D01*
X168896888Y-109581000D01*
X168850534Y-109576435D01*
X168811863Y-109564704D01*
X168776221Y-109545652D01*
X168744983Y-109520017D01*
X168719348Y-109488779D01*
X168700296Y-109453137D01*
X168688565Y-109414466D01*
X168684000Y-109368112D01*
X168684000Y-108291888D01*
X168688565Y-108245534D01*
X168700296Y-108206863D01*
X168719348Y-108171221D01*
X168744983Y-108139983D01*
X168776221Y-108114348D01*
X168811863Y-108095296D01*
X168850534Y-108083565D01*
X168896888Y-108079000D01*
X169548112Y-108079000D01*
X169594466Y-108083565D01*
X169594466Y-108083565D01*
G37*
G36*
X154510442Y-107555518D02*
X154576627Y-107562037D01*
X154689853Y-107596384D01*
X154746467Y-107613557D01*
X154885087Y-107687652D01*
X154902991Y-107697222D01*
X154938729Y-107726552D01*
X155040186Y-107809814D01*
X155123448Y-107911271D01*
X155152778Y-107947009D01*
X155152779Y-107947011D01*
X155236443Y-108103533D01*
X155242766Y-108124377D01*
X155287963Y-108273373D01*
X155305359Y-108450000D01*
X155287963Y-108626627D01*
X155253616Y-108739853D01*
X155236443Y-108796467D01*
X155162348Y-108935087D01*
X155152778Y-108952991D01*
X155123448Y-108988729D01*
X155040186Y-109090186D01*
X154938729Y-109173448D01*
X154902991Y-109202778D01*
X154902989Y-109202779D01*
X154746467Y-109286443D01*
X154689853Y-109303616D01*
X154576627Y-109337963D01*
X154510443Y-109344481D01*
X154444260Y-109351000D01*
X154355740Y-109351000D01*
X154289557Y-109344481D01*
X154223373Y-109337963D01*
X154110147Y-109303616D01*
X154053533Y-109286443D01*
X153897011Y-109202779D01*
X153897009Y-109202778D01*
X153861271Y-109173448D01*
X153759814Y-109090186D01*
X153676552Y-108988729D01*
X153647222Y-108952991D01*
X153637652Y-108935087D01*
X153563557Y-108796467D01*
X153546384Y-108739853D01*
X153512037Y-108626627D01*
X153494641Y-108450000D01*
X153512037Y-108273373D01*
X153557234Y-108124377D01*
X153563557Y-108103533D01*
X153647221Y-107947011D01*
X153647222Y-107947009D01*
X153676552Y-107911271D01*
X153759814Y-107809814D01*
X153861271Y-107726552D01*
X153897009Y-107697222D01*
X153914913Y-107687652D01*
X154053533Y-107613557D01*
X154110147Y-107596384D01*
X154223373Y-107562037D01*
X154289558Y-107555518D01*
X154355740Y-107549000D01*
X154444260Y-107549000D01*
X154510442Y-107555518D01*
X154510442Y-107555518D01*
G37*
G36*
X157050442Y-107555518D02*
X157116627Y-107562037D01*
X157229853Y-107596384D01*
X157286467Y-107613557D01*
X157425087Y-107687652D01*
X157442991Y-107697222D01*
X157478729Y-107726552D01*
X157580186Y-107809814D01*
X157663448Y-107911271D01*
X157692778Y-107947009D01*
X157692779Y-107947011D01*
X157776443Y-108103533D01*
X157782766Y-108124377D01*
X157827963Y-108273373D01*
X157845359Y-108450000D01*
X157827963Y-108626627D01*
X157793616Y-108739853D01*
X157776443Y-108796467D01*
X157702348Y-108935087D01*
X157692778Y-108952991D01*
X157663448Y-108988729D01*
X157580186Y-109090186D01*
X157478729Y-109173448D01*
X157442991Y-109202778D01*
X157442989Y-109202779D01*
X157286467Y-109286443D01*
X157229853Y-109303616D01*
X157116627Y-109337963D01*
X157050443Y-109344481D01*
X156984260Y-109351000D01*
X156895740Y-109351000D01*
X156829557Y-109344481D01*
X156763373Y-109337963D01*
X156650147Y-109303616D01*
X156593533Y-109286443D01*
X156437011Y-109202779D01*
X156437009Y-109202778D01*
X156401271Y-109173448D01*
X156299814Y-109090186D01*
X156216552Y-108988729D01*
X156187222Y-108952991D01*
X156177652Y-108935087D01*
X156103557Y-108796467D01*
X156086384Y-108739853D01*
X156052037Y-108626627D01*
X156034641Y-108450000D01*
X156052037Y-108273373D01*
X156097234Y-108124377D01*
X156103557Y-108103533D01*
X156187221Y-107947011D01*
X156187222Y-107947009D01*
X156216552Y-107911271D01*
X156299814Y-107809814D01*
X156401271Y-107726552D01*
X156437009Y-107697222D01*
X156454913Y-107687652D01*
X156593533Y-107613557D01*
X156650147Y-107596384D01*
X156763373Y-107562037D01*
X156829558Y-107555518D01*
X156895740Y-107549000D01*
X156984260Y-107549000D01*
X157050442Y-107555518D01*
X157050442Y-107555518D01*
G37*
G36*
X159590442Y-107555518D02*
X159656627Y-107562037D01*
X159769853Y-107596384D01*
X159826467Y-107613557D01*
X159965087Y-107687652D01*
X159982991Y-107697222D01*
X160018729Y-107726552D01*
X160120186Y-107809814D01*
X160203448Y-107911271D01*
X160232778Y-107947009D01*
X160232779Y-107947011D01*
X160316443Y-108103533D01*
X160322766Y-108124377D01*
X160367963Y-108273373D01*
X160385359Y-108450000D01*
X160367963Y-108626627D01*
X160333616Y-108739853D01*
X160316443Y-108796467D01*
X160242348Y-108935087D01*
X160232778Y-108952991D01*
X160203448Y-108988729D01*
X160120186Y-109090186D01*
X160018729Y-109173448D01*
X159982991Y-109202778D01*
X159982989Y-109202779D01*
X159826467Y-109286443D01*
X159769853Y-109303616D01*
X159656627Y-109337963D01*
X159590443Y-109344481D01*
X159524260Y-109351000D01*
X159435740Y-109351000D01*
X159369557Y-109344481D01*
X159303373Y-109337963D01*
X159190147Y-109303616D01*
X159133533Y-109286443D01*
X158977011Y-109202779D01*
X158977009Y-109202778D01*
X158941271Y-109173448D01*
X158839814Y-109090186D01*
X158756552Y-108988729D01*
X158727222Y-108952991D01*
X158717652Y-108935087D01*
X158643557Y-108796467D01*
X158626384Y-108739853D01*
X158592037Y-108626627D01*
X158574641Y-108450000D01*
X158592037Y-108273373D01*
X158637234Y-108124377D01*
X158643557Y-108103533D01*
X158727221Y-107947011D01*
X158727222Y-107947009D01*
X158756552Y-107911271D01*
X158839814Y-107809814D01*
X158941271Y-107726552D01*
X158977009Y-107697222D01*
X158994913Y-107687652D01*
X159133533Y-107613557D01*
X159190147Y-107596384D01*
X159303373Y-107562037D01*
X159369558Y-107555518D01*
X159435740Y-107549000D01*
X159524260Y-107549000D01*
X159590442Y-107555518D01*
X159590442Y-107555518D01*
G37*
G36*
X162130442Y-107555518D02*
X162196627Y-107562037D01*
X162309853Y-107596384D01*
X162366467Y-107613557D01*
X162505087Y-107687652D01*
X162522991Y-107697222D01*
X162558729Y-107726552D01*
X162660186Y-107809814D01*
X162743448Y-107911271D01*
X162772778Y-107947009D01*
X162772779Y-107947011D01*
X162856443Y-108103533D01*
X162862766Y-108124377D01*
X162907963Y-108273373D01*
X162925359Y-108450000D01*
X162907963Y-108626627D01*
X162873616Y-108739853D01*
X162856443Y-108796467D01*
X162782348Y-108935087D01*
X162772778Y-108952991D01*
X162743448Y-108988729D01*
X162660186Y-109090186D01*
X162558729Y-109173448D01*
X162522991Y-109202778D01*
X162522989Y-109202779D01*
X162366467Y-109286443D01*
X162309853Y-109303616D01*
X162196627Y-109337963D01*
X162130443Y-109344481D01*
X162064260Y-109351000D01*
X161975740Y-109351000D01*
X161909557Y-109344481D01*
X161843373Y-109337963D01*
X161730147Y-109303616D01*
X161673533Y-109286443D01*
X161517011Y-109202779D01*
X161517009Y-109202778D01*
X161481271Y-109173448D01*
X161379814Y-109090186D01*
X161296552Y-108988729D01*
X161267222Y-108952991D01*
X161257652Y-108935087D01*
X161183557Y-108796467D01*
X161166384Y-108739853D01*
X161132037Y-108626627D01*
X161114641Y-108450000D01*
X161132037Y-108273373D01*
X161177234Y-108124377D01*
X161183557Y-108103533D01*
X161267221Y-107947011D01*
X161267222Y-107947009D01*
X161296552Y-107911271D01*
X161379814Y-107809814D01*
X161481271Y-107726552D01*
X161517009Y-107697222D01*
X161534913Y-107687652D01*
X161673533Y-107613557D01*
X161730147Y-107596384D01*
X161843373Y-107562037D01*
X161909558Y-107555518D01*
X161975740Y-107549000D01*
X162064260Y-107549000D01*
X162130442Y-107555518D01*
X162130442Y-107555518D01*
G37*
G36*
X165461000Y-109351000D02*
X163659000Y-109351000D01*
X163659000Y-107549000D01*
X165461000Y-107549000D01*
X165461000Y-109351000D01*
X165461000Y-109351000D01*
G37*
G36*
X174901000Y-108041000D02*
X173399000Y-108041000D01*
X173399000Y-104139000D01*
X174901000Y-104139000D01*
X174901000Y-108041000D01*
X174901000Y-108041000D01*
G37*
G36*
X179301000Y-108041000D02*
X177799000Y-108041000D01*
X177799000Y-104139000D01*
X179301000Y-104139000D01*
X179301000Y-108041000D01*
X179301000Y-108041000D01*
G37*
G36*
X183564466Y-105703565D02*
X183603137Y-105715296D01*
X183638779Y-105734348D01*
X183670017Y-105759983D01*
X183695652Y-105791221D01*
X183714704Y-105826863D01*
X183726435Y-105865534D01*
X183731000Y-105911888D01*
X183731000Y-106563112D01*
X183726435Y-106609466D01*
X183714704Y-106648137D01*
X183695652Y-106683779D01*
X183670017Y-106715017D01*
X183638779Y-106740652D01*
X183603137Y-106759704D01*
X183564466Y-106771435D01*
X183518112Y-106776000D01*
X182441888Y-106776000D01*
X182395534Y-106771435D01*
X182356863Y-106759704D01*
X182321221Y-106740652D01*
X182289983Y-106715017D01*
X182264348Y-106683779D01*
X182245296Y-106648137D01*
X182233565Y-106609466D01*
X182229000Y-106563112D01*
X182229000Y-105911888D01*
X182233565Y-105865534D01*
X182245296Y-105826863D01*
X182264348Y-105791221D01*
X182289983Y-105759983D01*
X182321221Y-105734348D01*
X182356863Y-105715296D01*
X182395534Y-105703565D01*
X182441888Y-105699000D01*
X183518112Y-105699000D01*
X183564466Y-105703565D01*
X183564466Y-105703565D01*
G37*
G36*
X183564466Y-103828565D02*
X183603137Y-103840296D01*
X183638779Y-103859348D01*
X183670017Y-103884983D01*
X183695652Y-103916221D01*
X183714704Y-103951863D01*
X183726435Y-103990534D01*
X183731000Y-104036888D01*
X183731000Y-104688112D01*
X183726435Y-104734466D01*
X183714704Y-104773137D01*
X183695652Y-104808779D01*
X183670017Y-104840017D01*
X183638779Y-104865652D01*
X183603137Y-104884704D01*
X183564466Y-104896435D01*
X183518112Y-104901000D01*
X182441888Y-104901000D01*
X182395534Y-104896435D01*
X182356863Y-104884704D01*
X182321221Y-104865652D01*
X182289983Y-104840017D01*
X182264348Y-104808779D01*
X182245296Y-104773137D01*
X182233565Y-104734466D01*
X182229000Y-104688112D01*
X182229000Y-104036888D01*
X182233565Y-103990534D01*
X182245296Y-103951863D01*
X182264348Y-103916221D01*
X182289983Y-103884983D01*
X182321221Y-103859348D01*
X182356863Y-103840296D01*
X182395534Y-103828565D01*
X182441888Y-103824000D01*
X183518112Y-103824000D01*
X183564466Y-103828565D01*
X183564466Y-103828565D01*
G37*
G36*
X169594466Y-102963565D02*
X169633137Y-102975296D01*
X169668779Y-102994348D01*
X169700017Y-103019983D01*
X169725652Y-103051221D01*
X169744704Y-103086863D01*
X169756435Y-103125534D01*
X169761000Y-103171888D01*
X169761000Y-104248112D01*
X169756435Y-104294466D01*
X169744704Y-104333137D01*
X169725652Y-104368779D01*
X169700017Y-104400017D01*
X169668779Y-104425652D01*
X169633137Y-104444704D01*
X169594466Y-104456435D01*
X169548112Y-104461000D01*
X168896888Y-104461000D01*
X168850534Y-104456435D01*
X168811863Y-104444704D01*
X168776221Y-104425652D01*
X168744983Y-104400017D01*
X168719348Y-104368779D01*
X168700296Y-104333137D01*
X168688565Y-104294466D01*
X168684000Y-104248112D01*
X168684000Y-103171888D01*
X168688565Y-103125534D01*
X168700296Y-103086863D01*
X168719348Y-103051221D01*
X168744983Y-103019983D01*
X168776221Y-102994348D01*
X168811863Y-102975296D01*
X168850534Y-102963565D01*
X168896888Y-102959000D01*
X169548112Y-102959000D01*
X169594466Y-102963565D01*
X169594466Y-102963565D01*
G37*
G36*
X171469466Y-102963565D02*
X171508137Y-102975296D01*
X171543779Y-102994348D01*
X171575017Y-103019983D01*
X171600652Y-103051221D01*
X171619704Y-103086863D01*
X171631435Y-103125534D01*
X171636000Y-103171888D01*
X171636000Y-104248112D01*
X171631435Y-104294466D01*
X171619704Y-104333137D01*
X171600652Y-104368779D01*
X171575017Y-104400017D01*
X171543779Y-104425652D01*
X171508137Y-104444704D01*
X171469466Y-104456435D01*
X171423112Y-104461000D01*
X170771888Y-104461000D01*
X170725534Y-104456435D01*
X170686863Y-104444704D01*
X170651221Y-104425652D01*
X170619983Y-104400017D01*
X170594348Y-104368779D01*
X170575296Y-104333137D01*
X170563565Y-104294466D01*
X170559000Y-104248112D01*
X170559000Y-103171888D01*
X170563565Y-103125534D01*
X170575296Y-103086863D01*
X170594348Y-103051221D01*
X170619983Y-103019983D01*
X170651221Y-102994348D01*
X170686863Y-102975296D01*
X170725534Y-102963565D01*
X170771888Y-102959000D01*
X171423112Y-102959000D01*
X171469466Y-102963565D01*
X171469466Y-102963565D01*
G37*
G36*
X149201000Y-104176000D02*
X143999000Y-104176000D01*
X143999000Y-101724000D01*
X149201000Y-101724000D01*
X149201000Y-104176000D01*
X149201000Y-104176000D01*
G37*
G36*
X187111966Y-102143565D02*
X187150637Y-102155296D01*
X187186279Y-102174348D01*
X187217517Y-102199983D01*
X187243152Y-102231221D01*
X187262204Y-102266863D01*
X187273935Y-102305534D01*
X187278500Y-102351888D01*
X187278500Y-103428112D01*
X187273935Y-103474466D01*
X187262204Y-103513137D01*
X187243152Y-103548779D01*
X187217517Y-103580017D01*
X187186279Y-103605652D01*
X187150637Y-103624704D01*
X187111966Y-103636435D01*
X187065612Y-103641000D01*
X186414388Y-103641000D01*
X186368034Y-103636435D01*
X186329363Y-103624704D01*
X186293721Y-103605652D01*
X186262483Y-103580017D01*
X186236848Y-103548779D01*
X186217796Y-103513137D01*
X186206065Y-103474466D01*
X186201500Y-103428112D01*
X186201500Y-102351888D01*
X186206065Y-102305534D01*
X186217796Y-102266863D01*
X186236848Y-102231221D01*
X186262483Y-102199983D01*
X186293721Y-102174348D01*
X186329363Y-102155296D01*
X186368034Y-102143565D01*
X186414388Y-102139000D01*
X187065612Y-102139000D01*
X187111966Y-102143565D01*
X187111966Y-102143565D01*
G37*
G36*
X188986966Y-102143565D02*
X189025637Y-102155296D01*
X189061279Y-102174348D01*
X189092517Y-102199983D01*
X189118152Y-102231221D01*
X189137204Y-102266863D01*
X189148935Y-102305534D01*
X189153500Y-102351888D01*
X189153500Y-103428112D01*
X189148935Y-103474466D01*
X189137204Y-103513137D01*
X189118152Y-103548779D01*
X189092517Y-103580017D01*
X189061279Y-103605652D01*
X189025637Y-103624704D01*
X188986966Y-103636435D01*
X188940612Y-103641000D01*
X188289388Y-103641000D01*
X188243034Y-103636435D01*
X188204363Y-103624704D01*
X188168721Y-103605652D01*
X188137483Y-103580017D01*
X188111848Y-103548779D01*
X188092796Y-103513137D01*
X188081065Y-103474466D01*
X188076500Y-103428112D01*
X188076500Y-102351888D01*
X188081065Y-102305534D01*
X188092796Y-102266863D01*
X188111848Y-102231221D01*
X188137483Y-102199983D01*
X188168721Y-102174348D01*
X188204363Y-102155296D01*
X188243034Y-102143565D01*
X188289388Y-102139000D01*
X188940612Y-102139000D01*
X188986966Y-102143565D01*
X188986966Y-102143565D01*
G37*
G36*
X161584466Y-102111065D02*
X161623137Y-102122796D01*
X161658779Y-102141848D01*
X161690017Y-102167483D01*
X161715652Y-102198721D01*
X161734704Y-102234363D01*
X161746435Y-102273034D01*
X161751000Y-102319388D01*
X161751000Y-102970612D01*
X161746435Y-103016966D01*
X161734704Y-103055637D01*
X161715652Y-103091279D01*
X161690017Y-103122517D01*
X161658779Y-103148152D01*
X161623137Y-103167204D01*
X161584466Y-103178935D01*
X161538112Y-103183500D01*
X160461888Y-103183500D01*
X160415534Y-103178935D01*
X160376863Y-103167204D01*
X160341221Y-103148152D01*
X160309983Y-103122517D01*
X160284348Y-103091279D01*
X160265296Y-103055637D01*
X160253565Y-103016966D01*
X160249000Y-102970612D01*
X160249000Y-102319388D01*
X160253565Y-102273034D01*
X160265296Y-102234363D01*
X160284348Y-102198721D01*
X160309983Y-102167483D01*
X160341221Y-102141848D01*
X160376863Y-102122796D01*
X160415534Y-102111065D01*
X160461888Y-102106500D01*
X161538112Y-102106500D01*
X161584466Y-102111065D01*
X161584466Y-102111065D01*
G37*
G36*
X153724466Y-102111065D02*
X153763137Y-102122796D01*
X153798779Y-102141848D01*
X153830017Y-102167483D01*
X153855652Y-102198721D01*
X153874704Y-102234363D01*
X153886435Y-102273034D01*
X153891000Y-102319388D01*
X153891000Y-102970612D01*
X153886435Y-103016966D01*
X153874704Y-103055637D01*
X153855652Y-103091279D01*
X153830017Y-103122517D01*
X153798779Y-103148152D01*
X153763137Y-103167204D01*
X153724466Y-103178935D01*
X153678112Y-103183500D01*
X152601888Y-103183500D01*
X152555534Y-103178935D01*
X152516863Y-103167204D01*
X152481221Y-103148152D01*
X152449983Y-103122517D01*
X152424348Y-103091279D01*
X152405296Y-103055637D01*
X152393565Y-103016966D01*
X152389000Y-102970612D01*
X152389000Y-102319388D01*
X152393565Y-102273034D01*
X152405296Y-102234363D01*
X152424348Y-102198721D01*
X152449983Y-102167483D01*
X152481221Y-102141848D01*
X152516863Y-102122796D01*
X152555534Y-102111065D01*
X152601888Y-102106500D01*
X153678112Y-102106500D01*
X153724466Y-102111065D01*
X153724466Y-102111065D01*
G37*
G36*
X157874466Y-102111065D02*
X157913137Y-102122796D01*
X157948779Y-102141848D01*
X157980017Y-102167483D01*
X158005652Y-102198721D01*
X158024704Y-102234363D01*
X158036435Y-102273034D01*
X158041000Y-102319388D01*
X158041000Y-102970612D01*
X158036435Y-103016966D01*
X158024704Y-103055637D01*
X158005652Y-103091279D01*
X157980017Y-103122517D01*
X157948779Y-103148152D01*
X157913137Y-103167204D01*
X157874466Y-103178935D01*
X157828112Y-103183500D01*
X156751888Y-103183500D01*
X156705534Y-103178935D01*
X156666863Y-103167204D01*
X156631221Y-103148152D01*
X156599983Y-103122517D01*
X156574348Y-103091279D01*
X156555296Y-103055637D01*
X156543565Y-103016966D01*
X156539000Y-102970612D01*
X156539000Y-102319388D01*
X156543565Y-102273034D01*
X156555296Y-102234363D01*
X156574348Y-102198721D01*
X156599983Y-102167483D01*
X156631221Y-102141848D01*
X156666863Y-102122796D01*
X156705534Y-102111065D01*
X156751888Y-102106500D01*
X157828112Y-102106500D01*
X157874466Y-102111065D01*
X157874466Y-102111065D01*
G37*
G36*
X153724466Y-100236065D02*
X153763137Y-100247796D01*
X153798779Y-100266848D01*
X153830017Y-100292483D01*
X153855652Y-100323721D01*
X153874704Y-100359363D01*
X153886435Y-100398034D01*
X153891000Y-100444388D01*
X153891000Y-101095612D01*
X153886435Y-101141966D01*
X153874704Y-101180637D01*
X153855652Y-101216279D01*
X153830017Y-101247517D01*
X153798779Y-101273152D01*
X153763137Y-101292204D01*
X153724466Y-101303935D01*
X153678112Y-101308500D01*
X152601888Y-101308500D01*
X152555534Y-101303935D01*
X152516863Y-101292204D01*
X152481221Y-101273152D01*
X152449983Y-101247517D01*
X152424348Y-101216279D01*
X152405296Y-101180637D01*
X152393565Y-101141966D01*
X152389000Y-101095612D01*
X152389000Y-100444388D01*
X152393565Y-100398034D01*
X152405296Y-100359363D01*
X152424348Y-100323721D01*
X152449983Y-100292483D01*
X152481221Y-100266848D01*
X152516863Y-100247796D01*
X152555534Y-100236065D01*
X152601888Y-100231500D01*
X153678112Y-100231500D01*
X153724466Y-100236065D01*
X153724466Y-100236065D01*
G37*
G36*
X161584466Y-100236065D02*
X161623137Y-100247796D01*
X161658779Y-100266848D01*
X161690017Y-100292483D01*
X161715652Y-100323721D01*
X161734704Y-100359363D01*
X161746435Y-100398034D01*
X161751000Y-100444388D01*
X161751000Y-101095612D01*
X161746435Y-101141966D01*
X161734704Y-101180637D01*
X161715652Y-101216279D01*
X161690017Y-101247517D01*
X161658779Y-101273152D01*
X161623137Y-101292204D01*
X161584466Y-101303935D01*
X161538112Y-101308500D01*
X160461888Y-101308500D01*
X160415534Y-101303935D01*
X160376863Y-101292204D01*
X160341221Y-101273152D01*
X160309983Y-101247517D01*
X160284348Y-101216279D01*
X160265296Y-101180637D01*
X160253565Y-101141966D01*
X160249000Y-101095612D01*
X160249000Y-100444388D01*
X160253565Y-100398034D01*
X160265296Y-100359363D01*
X160284348Y-100323721D01*
X160309983Y-100292483D01*
X160341221Y-100266848D01*
X160376863Y-100247796D01*
X160415534Y-100236065D01*
X160461888Y-100231500D01*
X161538112Y-100231500D01*
X161584466Y-100236065D01*
X161584466Y-100236065D01*
G37*
G36*
X157874466Y-100236065D02*
X157913137Y-100247796D01*
X157948779Y-100266848D01*
X157980017Y-100292483D01*
X158005652Y-100323721D01*
X158024704Y-100359363D01*
X158036435Y-100398034D01*
X158041000Y-100444388D01*
X158041000Y-101095612D01*
X158036435Y-101141966D01*
X158024704Y-101180637D01*
X158005652Y-101216279D01*
X157980017Y-101247517D01*
X157948779Y-101273152D01*
X157913137Y-101292204D01*
X157874466Y-101303935D01*
X157828112Y-101308500D01*
X156751888Y-101308500D01*
X156705534Y-101303935D01*
X156666863Y-101292204D01*
X156631221Y-101273152D01*
X156599983Y-101247517D01*
X156574348Y-101216279D01*
X156555296Y-101180637D01*
X156543565Y-101141966D01*
X156539000Y-101095612D01*
X156539000Y-100444388D01*
X156543565Y-100398034D01*
X156555296Y-100359363D01*
X156574348Y-100323721D01*
X156599983Y-100292483D01*
X156631221Y-100266848D01*
X156666863Y-100247796D01*
X156705534Y-100236065D01*
X156751888Y-100231500D01*
X157828112Y-100231500D01*
X157874466Y-100236065D01*
X157874466Y-100236065D01*
G37*
G36*
X72388037Y-97792250D02*
X72388039Y-97792251D01*
X72388040Y-97792251D01*
X72711251Y-97926129D01*
X72926376Y-98069871D01*
X73002137Y-98120493D01*
X73249507Y-98367863D01*
X73249509Y-98367866D01*
X73443871Y-98658749D01*
X73577749Y-98981960D01*
X73646000Y-99325079D01*
X73646000Y-99674921D01*
X73577749Y-100018040D01*
X73443871Y-100341251D01*
X73443870Y-100341252D01*
X73249507Y-100632137D01*
X73002137Y-100879507D01*
X73002134Y-100879509D01*
X72711251Y-101073871D01*
X72388040Y-101207749D01*
X72388039Y-101207749D01*
X72388037Y-101207750D01*
X72044922Y-101276000D01*
X71695078Y-101276000D01*
X71351963Y-101207750D01*
X71351961Y-101207749D01*
X71351960Y-101207749D01*
X71028749Y-101073871D01*
X70737866Y-100879509D01*
X70737863Y-100879507D01*
X70490493Y-100632137D01*
X70296130Y-100341252D01*
X70296129Y-100341251D01*
X70162251Y-100018040D01*
X70094000Y-99674921D01*
X70094000Y-99325079D01*
X70162251Y-98981960D01*
X70296129Y-98658749D01*
X70490491Y-98367866D01*
X70490493Y-98367863D01*
X70737863Y-98120493D01*
X70813624Y-98069871D01*
X71028749Y-97926129D01*
X71351960Y-97792251D01*
X71351961Y-97792251D01*
X71351963Y-97792250D01*
X71695078Y-97724000D01*
X72044922Y-97724000D01*
X72388037Y-97792250D01*
X72388037Y-97792250D01*
G37*
G36*
X149201000Y-100026000D02*
X143999000Y-100026000D01*
X143999000Y-97574000D01*
X149201000Y-97574000D01*
X149201000Y-100026000D01*
X149201000Y-100026000D01*
G37*
G36*
X190821000Y-100016000D02*
X189619000Y-100016000D01*
X189619000Y-95314000D01*
X190821000Y-95314000D01*
X190821000Y-100016000D01*
X190821000Y-100016000D01*
G37*
G36*
X188281000Y-100016000D02*
X187079000Y-100016000D01*
X187079000Y-95314000D01*
X188281000Y-95314000D01*
X188281000Y-100016000D01*
X188281000Y-100016000D01*
G37*
G36*
X185741000Y-100016000D02*
X184539000Y-100016000D01*
X184539000Y-95314000D01*
X185741000Y-95314000D01*
X185741000Y-100016000D01*
X185741000Y-100016000D01*
G37*
G36*
X175961000Y-98936000D02*
X174359000Y-98936000D01*
X174359000Y-98234000D01*
X175961000Y-98234000D01*
X175961000Y-98936000D01*
X175961000Y-98936000D01*
G37*
G36*
X170561000Y-98936000D02*
X168959000Y-98936000D01*
X168959000Y-98234000D01*
X170561000Y-98234000D01*
X170561000Y-98936000D01*
X170561000Y-98936000D01*
G37*
G36*
X211463086Y-96090885D02*
X211614072Y-96120918D01*
X211859939Y-96222759D01*
X212049387Y-96349345D01*
X212081215Y-96370612D01*
X212269388Y-96558785D01*
X212269390Y-96558788D01*
X212417241Y-96780061D01*
X212519082Y-97025928D01*
X212545041Y-97156433D01*
X212570573Y-97284788D01*
X212571000Y-97286938D01*
X212571000Y-97553062D01*
X212519082Y-97814072D01*
X212417241Y-98059939D01*
X212300936Y-98234000D01*
X212269388Y-98281215D01*
X212081215Y-98469388D01*
X212081212Y-98469390D01*
X211859939Y-98617241D01*
X211614072Y-98719082D01*
X211483567Y-98745041D01*
X211353063Y-98771000D01*
X211086937Y-98771000D01*
X210956433Y-98745041D01*
X210825928Y-98719082D01*
X210580061Y-98617241D01*
X210358788Y-98469390D01*
X210358785Y-98469388D01*
X210170612Y-98281215D01*
X210139064Y-98234000D01*
X210022759Y-98059939D01*
X209920918Y-97814072D01*
X209869000Y-97553062D01*
X209869000Y-97286938D01*
X209869428Y-97284788D01*
X209894959Y-97156433D01*
X209920918Y-97025928D01*
X210022759Y-96780061D01*
X210170610Y-96558788D01*
X210170612Y-96558785D01*
X210358785Y-96370612D01*
X210390613Y-96349345D01*
X210580061Y-96222759D01*
X210825928Y-96120918D01*
X210976914Y-96090885D01*
X211086937Y-96069000D01*
X211353063Y-96069000D01*
X211463086Y-96090885D01*
X211463086Y-96090885D01*
G37*
G36*
X164712198Y-95969954D02*
X164724450Y-95970556D01*
X164742869Y-95970556D01*
X164765149Y-95972750D01*
X164849236Y-95989476D01*
X164870655Y-95995974D01*
X164949871Y-96028785D01*
X164969607Y-96039335D01*
X165040897Y-96086969D01*
X165058208Y-96101176D01*
X165118824Y-96161792D01*
X165133031Y-96179103D01*
X165180665Y-96250393D01*
X165191215Y-96270129D01*
X165224026Y-96349345D01*
X165230524Y-96370764D01*
X165247250Y-96454851D01*
X165249444Y-96477131D01*
X165249444Y-96495550D01*
X165250046Y-96507802D01*
X165251852Y-96526140D01*
X165251852Y-97013860D01*
X165250263Y-97029999D01*
X165247347Y-97039611D01*
X165242612Y-97048469D01*
X165236237Y-97056237D01*
X165223798Y-97066446D01*
X165213432Y-97073372D01*
X165196105Y-97090698D01*
X165182490Y-97111073D01*
X165173112Y-97133711D01*
X165168331Y-97157745D01*
X165168331Y-97182249D01*
X165173111Y-97206283D01*
X165182487Y-97228922D01*
X165196101Y-97249297D01*
X165213427Y-97266624D01*
X165223796Y-97273552D01*
X165236237Y-97283763D01*
X165242612Y-97291531D01*
X165247347Y-97300389D01*
X165250263Y-97310001D01*
X165251852Y-97326140D01*
X165251852Y-97813861D01*
X165250046Y-97832198D01*
X165249444Y-97844450D01*
X165249444Y-97862869D01*
X165247250Y-97885149D01*
X165230524Y-97969236D01*
X165224026Y-97990655D01*
X165191215Y-98069871D01*
X165180665Y-98089607D01*
X165133031Y-98160897D01*
X165118824Y-98178208D01*
X165058208Y-98238824D01*
X165040897Y-98253031D01*
X164969607Y-98300665D01*
X164949871Y-98311215D01*
X164870655Y-98344026D01*
X164849236Y-98350524D01*
X164765149Y-98367250D01*
X164742869Y-98369444D01*
X164724450Y-98369444D01*
X164712198Y-98370046D01*
X164693861Y-98371852D01*
X164206139Y-98371852D01*
X164187802Y-98370046D01*
X164175550Y-98369444D01*
X164157131Y-98369444D01*
X164134851Y-98367250D01*
X164050764Y-98350524D01*
X164029345Y-98344026D01*
X163950129Y-98311215D01*
X163930393Y-98300665D01*
X163859103Y-98253031D01*
X163841792Y-98238824D01*
X163781176Y-98178208D01*
X163766969Y-98160897D01*
X163719335Y-98089607D01*
X163708785Y-98069871D01*
X163675974Y-97990655D01*
X163669476Y-97969236D01*
X163652750Y-97885149D01*
X163650556Y-97862869D01*
X163650556Y-97844450D01*
X163649954Y-97832198D01*
X163648148Y-97813861D01*
X163648148Y-97326140D01*
X163649737Y-97310001D01*
X163652653Y-97300389D01*
X163657388Y-97291531D01*
X163663763Y-97283763D01*
X163676202Y-97273554D01*
X163686568Y-97266628D01*
X163703895Y-97249302D01*
X163717510Y-97228927D01*
X163726888Y-97206289D01*
X163731669Y-97182255D01*
X163731669Y-97157751D01*
X163726889Y-97133717D01*
X163717513Y-97111078D01*
X163703899Y-97090703D01*
X163686573Y-97073376D01*
X163676204Y-97066448D01*
X163663763Y-97056237D01*
X163657388Y-97048469D01*
X163652653Y-97039611D01*
X163649737Y-97029999D01*
X163648148Y-97013860D01*
X163648148Y-96526140D01*
X163649954Y-96507802D01*
X163650556Y-96495550D01*
X163650556Y-96477131D01*
X163652750Y-96454851D01*
X163669476Y-96370764D01*
X163675974Y-96349345D01*
X163708785Y-96270129D01*
X163719335Y-96250393D01*
X163766969Y-96179103D01*
X163781176Y-96161792D01*
X163841792Y-96101176D01*
X163859103Y-96086969D01*
X163930393Y-96039335D01*
X163950129Y-96028785D01*
X164029345Y-95995974D01*
X164050764Y-95989476D01*
X164134851Y-95972750D01*
X164157131Y-95970556D01*
X164175550Y-95970556D01*
X164187802Y-95969954D01*
X164206140Y-95968148D01*
X164693860Y-95968148D01*
X164712198Y-95969954D01*
X164712198Y-95969954D01*
G37*
G36*
X175961000Y-97666000D02*
X174359000Y-97666000D01*
X174359000Y-96964000D01*
X175961000Y-96964000D01*
X175961000Y-97666000D01*
X175961000Y-97666000D01*
G37*
G36*
X170561000Y-97666000D02*
X168959000Y-97666000D01*
X168959000Y-96964000D01*
X170561000Y-96964000D01*
X170561000Y-97666000D01*
X170561000Y-97666000D01*
G37*
G36*
X178596966Y-95953565D02*
X178635637Y-95965296D01*
X178671279Y-95984348D01*
X178702517Y-96009983D01*
X178728152Y-96041221D01*
X178747204Y-96076863D01*
X178758935Y-96115534D01*
X178763500Y-96161888D01*
X178763500Y-97238112D01*
X178758935Y-97284466D01*
X178747204Y-97323137D01*
X178728152Y-97358779D01*
X178702517Y-97390017D01*
X178671279Y-97415652D01*
X178635637Y-97434704D01*
X178596966Y-97446435D01*
X178550612Y-97451000D01*
X177899388Y-97451000D01*
X177853034Y-97446435D01*
X177814363Y-97434704D01*
X177778721Y-97415652D01*
X177747483Y-97390017D01*
X177721848Y-97358779D01*
X177702796Y-97323137D01*
X177691065Y-97284466D01*
X177686500Y-97238112D01*
X177686500Y-96161888D01*
X177691065Y-96115534D01*
X177702796Y-96076863D01*
X177721848Y-96041221D01*
X177747483Y-96009983D01*
X177778721Y-95984348D01*
X177814363Y-95965296D01*
X177853034Y-95953565D01*
X177899388Y-95949000D01*
X178550612Y-95949000D01*
X178596966Y-95953565D01*
X178596966Y-95953565D01*
G37*
G36*
X180471966Y-95953565D02*
X180510637Y-95965296D01*
X180546279Y-95984348D01*
X180577517Y-96009983D01*
X180603152Y-96041221D01*
X180622204Y-96076863D01*
X180633935Y-96115534D01*
X180638500Y-96161888D01*
X180638500Y-97238112D01*
X180633935Y-97284466D01*
X180622204Y-97323137D01*
X180603152Y-97358779D01*
X180577517Y-97390017D01*
X180546279Y-97415652D01*
X180510637Y-97434704D01*
X180471966Y-97446435D01*
X180425612Y-97451000D01*
X179774388Y-97451000D01*
X179728034Y-97446435D01*
X179689363Y-97434704D01*
X179653721Y-97415652D01*
X179622483Y-97390017D01*
X179596848Y-97358779D01*
X179577796Y-97323137D01*
X179566065Y-97284466D01*
X179561500Y-97238112D01*
X179561500Y-96161888D01*
X179566065Y-96115534D01*
X179577796Y-96076863D01*
X179596848Y-96041221D01*
X179622483Y-96009983D01*
X179653721Y-95984348D01*
X179689363Y-95965296D01*
X179728034Y-95953565D01*
X179774388Y-95949000D01*
X180425612Y-95949000D01*
X180471966Y-95953565D01*
X180471966Y-95953565D01*
G37*
G36*
X158111000Y-93094000D02*
X158113402Y-93118386D01*
X158120515Y-93141835D01*
X158132066Y-93163446D01*
X158147612Y-93182388D01*
X158166554Y-93197934D01*
X158188165Y-93209485D01*
X158211614Y-93216598D01*
X158213242Y-93216758D01*
X158213402Y-93218386D01*
X158220515Y-93241835D01*
X158232066Y-93263446D01*
X158247612Y-93282388D01*
X158266554Y-93297934D01*
X158288165Y-93309485D01*
X158311614Y-93316598D01*
X158336000Y-93319000D01*
X159361000Y-93319000D01*
X159361000Y-95721000D01*
X158336000Y-95721000D01*
X158311614Y-95723402D01*
X158288165Y-95730515D01*
X158266554Y-95742066D01*
X158247612Y-95757612D01*
X158232066Y-95776554D01*
X158220515Y-95798165D01*
X158213402Y-95821614D01*
X158213242Y-95823242D01*
X158211614Y-95823402D01*
X158188165Y-95830515D01*
X158166554Y-95842066D01*
X158147612Y-95857612D01*
X158132066Y-95876554D01*
X158120515Y-95898165D01*
X158113402Y-95921614D01*
X158111000Y-95946000D01*
X158111000Y-96971000D01*
X155709000Y-96971000D01*
X155709000Y-95946000D01*
X155706598Y-95921614D01*
X155699485Y-95898165D01*
X155687934Y-95876554D01*
X155672388Y-95857612D01*
X155653446Y-95842066D01*
X155631835Y-95830515D01*
X155608386Y-95823402D01*
X155606758Y-95823242D01*
X155606598Y-95821614D01*
X155599485Y-95798165D01*
X155587934Y-95776554D01*
X155572388Y-95757612D01*
X155553446Y-95742066D01*
X155531835Y-95730515D01*
X155508386Y-95723402D01*
X155484000Y-95721000D01*
X154459000Y-95721000D01*
X154459000Y-93319000D01*
X155484000Y-93319000D01*
X155508386Y-93316598D01*
X155531835Y-93309485D01*
X155553446Y-93297934D01*
X155572388Y-93282388D01*
X155587934Y-93263446D01*
X155599485Y-93241835D01*
X155606598Y-93218386D01*
X155606758Y-93216758D01*
X155608386Y-93216598D01*
X155631835Y-93209485D01*
X155653446Y-93197934D01*
X155672388Y-93182388D01*
X155687934Y-93163446D01*
X155699485Y-93141835D01*
X155706598Y-93118386D01*
X155709000Y-93094000D01*
X155709000Y-92069000D01*
X158111000Y-92069000D01*
X158111000Y-93094000D01*
X158111000Y-93094000D01*
G37*
G36*
X175961000Y-96396000D02*
X174359000Y-96396000D01*
X174359000Y-95694000D01*
X175961000Y-95694000D01*
X175961000Y-96396000D01*
X175961000Y-96396000D01*
G37*
G36*
X170561000Y-96396000D02*
X168959000Y-96396000D01*
X168959000Y-95694000D01*
X170561000Y-95694000D01*
X170561000Y-96396000D01*
X170561000Y-96396000D01*
G37*
G36*
X175961000Y-95126000D02*
X174359000Y-95126000D01*
X174359000Y-94424000D01*
X175961000Y-94424000D01*
X175961000Y-95126000D01*
X175961000Y-95126000D01*
G37*
G36*
X170561000Y-95126000D02*
X168959000Y-95126000D01*
X168959000Y-94424000D01*
X170561000Y-94424000D01*
X170561000Y-95126000D01*
X170561000Y-95126000D01*
G37*
G36*
X178711966Y-93603565D02*
X178750637Y-93615296D01*
X178786279Y-93634348D01*
X178817517Y-93659983D01*
X178843152Y-93691221D01*
X178862204Y-93726863D01*
X178873935Y-93765534D01*
X178878500Y-93811888D01*
X178878500Y-94888112D01*
X178873935Y-94934466D01*
X178862204Y-94973137D01*
X178843152Y-95008779D01*
X178817517Y-95040017D01*
X178786279Y-95065652D01*
X178750637Y-95084704D01*
X178711966Y-95096435D01*
X178665612Y-95101000D01*
X178014388Y-95101000D01*
X177968034Y-95096435D01*
X177929363Y-95084704D01*
X177893721Y-95065652D01*
X177862483Y-95040017D01*
X177836848Y-95008779D01*
X177817796Y-94973137D01*
X177806065Y-94934466D01*
X177801500Y-94888112D01*
X177801500Y-93811888D01*
X177806065Y-93765534D01*
X177817796Y-93726863D01*
X177836848Y-93691221D01*
X177862483Y-93659983D01*
X177893721Y-93634348D01*
X177929363Y-93615296D01*
X177968034Y-93603565D01*
X178014388Y-93599000D01*
X178665612Y-93599000D01*
X178711966Y-93603565D01*
X178711966Y-93603565D01*
G37*
G36*
X180586966Y-93603565D02*
X180625637Y-93615296D01*
X180661279Y-93634348D01*
X180692517Y-93659983D01*
X180718152Y-93691221D01*
X180737204Y-93726863D01*
X180748935Y-93765534D01*
X180753500Y-93811888D01*
X180753500Y-94888112D01*
X180748935Y-94934466D01*
X180737204Y-94973137D01*
X180718152Y-95008779D01*
X180692517Y-95040017D01*
X180661279Y-95065652D01*
X180625637Y-95084704D01*
X180586966Y-95096435D01*
X180540612Y-95101000D01*
X179889388Y-95101000D01*
X179843034Y-95096435D01*
X179804363Y-95084704D01*
X179768721Y-95065652D01*
X179737483Y-95040017D01*
X179711848Y-95008779D01*
X179692796Y-94973137D01*
X179681065Y-94934466D01*
X179676500Y-94888112D01*
X179676500Y-93811888D01*
X179681065Y-93765534D01*
X179692796Y-93726863D01*
X179711848Y-93691221D01*
X179737483Y-93659983D01*
X179768721Y-93634348D01*
X179804363Y-93615296D01*
X179843034Y-93603565D01*
X179889388Y-93599000D01*
X180540612Y-93599000D01*
X180586966Y-93603565D01*
X180586966Y-93603565D01*
G37*
G36*
X63861000Y-94726000D02*
X56419000Y-94726000D01*
X56419000Y-88274000D01*
X63861000Y-88274000D01*
X63861000Y-94726000D01*
X63861000Y-94726000D01*
G37*
G36*
X142521000Y-94726000D02*
X135079000Y-94726000D01*
X135079000Y-88274000D01*
X142521000Y-88274000D01*
X142521000Y-94726000D01*
X142521000Y-94726000D01*
G37*
G36*
X164734466Y-92826065D02*
X164773137Y-92837796D01*
X164808779Y-92856848D01*
X164840017Y-92882483D01*
X164865652Y-92913721D01*
X164884704Y-92949363D01*
X164896435Y-92988034D01*
X164901000Y-93034388D01*
X164901000Y-93685612D01*
X164896435Y-93731966D01*
X164884704Y-93770637D01*
X164865652Y-93806279D01*
X164840017Y-93837517D01*
X164808779Y-93863152D01*
X164773137Y-93882204D01*
X164734466Y-93893935D01*
X164688112Y-93898500D01*
X163611888Y-93898500D01*
X163565534Y-93893935D01*
X163526863Y-93882204D01*
X163491221Y-93863152D01*
X163459983Y-93837517D01*
X163434348Y-93806279D01*
X163415296Y-93770637D01*
X163403565Y-93731966D01*
X163399000Y-93685612D01*
X163399000Y-93034388D01*
X163403565Y-92988034D01*
X163415296Y-92949363D01*
X163434348Y-92913721D01*
X163459983Y-92882483D01*
X163491221Y-92856848D01*
X163526863Y-92837796D01*
X163565534Y-92826065D01*
X163611888Y-92821500D01*
X164688112Y-92821500D01*
X164734466Y-92826065D01*
X164734466Y-92826065D01*
G37*
G36*
X170561000Y-93856000D02*
X168959000Y-93856000D01*
X168959000Y-93154000D01*
X170561000Y-93154000D01*
X170561000Y-93856000D01*
X170561000Y-93856000D01*
G37*
G36*
X175961000Y-93856000D02*
X174359000Y-93856000D01*
X174359000Y-93154000D01*
X175961000Y-93154000D01*
X175961000Y-93856000D01*
X175961000Y-93856000D01*
G37*
G36*
X193131000Y-93266000D02*
X182229000Y-93266000D01*
X182229000Y-83764000D01*
X193131000Y-83764000D01*
X193131000Y-93266000D01*
X193131000Y-93266000D01*
G37*
G36*
X170561000Y-92586000D02*
X168959000Y-92586000D01*
X168959000Y-91884000D01*
X170561000Y-91884000D01*
X170561000Y-92586000D01*
X170561000Y-92586000D01*
G37*
G36*
X175961000Y-92586000D02*
X174359000Y-92586000D01*
X174359000Y-91884000D01*
X175961000Y-91884000D01*
X175961000Y-92586000D01*
X175961000Y-92586000D01*
G37*
G36*
X164734466Y-90951065D02*
X164773137Y-90962796D01*
X164808779Y-90981848D01*
X164840017Y-91007483D01*
X164865652Y-91038721D01*
X164884704Y-91074363D01*
X164896435Y-91113034D01*
X164901000Y-91159388D01*
X164901000Y-91810612D01*
X164896435Y-91856966D01*
X164884704Y-91895637D01*
X164865652Y-91931279D01*
X164840017Y-91962517D01*
X164808779Y-91988152D01*
X164773137Y-92007204D01*
X164734466Y-92018935D01*
X164688112Y-92023500D01*
X163611888Y-92023500D01*
X163565534Y-92018935D01*
X163526863Y-92007204D01*
X163491221Y-91988152D01*
X163459983Y-91962517D01*
X163434348Y-91931279D01*
X163415296Y-91895637D01*
X163403565Y-91856966D01*
X163399000Y-91810612D01*
X163399000Y-91159388D01*
X163403565Y-91113034D01*
X163415296Y-91074363D01*
X163434348Y-91038721D01*
X163459983Y-91007483D01*
X163491221Y-90981848D01*
X163526863Y-90962796D01*
X163565534Y-90951065D01*
X163611888Y-90946500D01*
X164688112Y-90946500D01*
X164734466Y-90951065D01*
X164734466Y-90951065D01*
G37*
G36*
X170561000Y-91316000D02*
X168959000Y-91316000D01*
X168959000Y-90614000D01*
X170561000Y-90614000D01*
X170561000Y-91316000D01*
X170561000Y-91316000D01*
G37*
G36*
X175961000Y-91316000D02*
X174359000Y-91316000D01*
X174359000Y-90614000D01*
X175961000Y-90614000D01*
X175961000Y-91316000D01*
X175961000Y-91316000D01*
G37*
G36*
X178671966Y-88673565D02*
X178710637Y-88685296D01*
X178746279Y-88704348D01*
X178777517Y-88729983D01*
X178803152Y-88761221D01*
X178822204Y-88796863D01*
X178833935Y-88835534D01*
X178838500Y-88881888D01*
X178838500Y-89958112D01*
X178833935Y-90004466D01*
X178822204Y-90043137D01*
X178803152Y-90078779D01*
X178777517Y-90110017D01*
X178746279Y-90135652D01*
X178710637Y-90154704D01*
X178671966Y-90166435D01*
X178625612Y-90171000D01*
X177974388Y-90171000D01*
X177928034Y-90166435D01*
X177889363Y-90154704D01*
X177853721Y-90135652D01*
X177822483Y-90110017D01*
X177796848Y-90078779D01*
X177777796Y-90043137D01*
X177766065Y-90004466D01*
X177761500Y-89958112D01*
X177761500Y-88881888D01*
X177766065Y-88835534D01*
X177777796Y-88796863D01*
X177796848Y-88761221D01*
X177822483Y-88729983D01*
X177853721Y-88704348D01*
X177889363Y-88685296D01*
X177928034Y-88673565D01*
X177974388Y-88669000D01*
X178625612Y-88669000D01*
X178671966Y-88673565D01*
X178671966Y-88673565D01*
G37*
G36*
X180546966Y-88673565D02*
X180585637Y-88685296D01*
X180621279Y-88704348D01*
X180652517Y-88729983D01*
X180678152Y-88761221D01*
X180697204Y-88796863D01*
X180708935Y-88835534D01*
X180713500Y-88881888D01*
X180713500Y-89958112D01*
X180708935Y-90004466D01*
X180697204Y-90043137D01*
X180678152Y-90078779D01*
X180652517Y-90110017D01*
X180621279Y-90135652D01*
X180585637Y-90154704D01*
X180546966Y-90166435D01*
X180500612Y-90171000D01*
X179849388Y-90171000D01*
X179803034Y-90166435D01*
X179764363Y-90154704D01*
X179728721Y-90135652D01*
X179697483Y-90110017D01*
X179671848Y-90078779D01*
X179652796Y-90043137D01*
X179641065Y-90004466D01*
X179636500Y-89958112D01*
X179636500Y-88881888D01*
X179641065Y-88835534D01*
X179652796Y-88796863D01*
X179671848Y-88761221D01*
X179697483Y-88729983D01*
X179728721Y-88704348D01*
X179764363Y-88685296D01*
X179803034Y-88673565D01*
X179849388Y-88669000D01*
X180500612Y-88669000D01*
X180546966Y-88673565D01*
X180546966Y-88673565D01*
G37*
G36*
X175961000Y-90046000D02*
X174359000Y-90046000D01*
X174359000Y-89344000D01*
X175961000Y-89344000D01*
X175961000Y-90046000D01*
X175961000Y-90046000D01*
G37*
G36*
X170561000Y-90046000D02*
X168959000Y-90046000D01*
X168959000Y-89344000D01*
X170561000Y-89344000D01*
X170561000Y-90046000D01*
X170561000Y-90046000D01*
G37*
G36*
X154064466Y-88506065D02*
X154103137Y-88517796D01*
X154138779Y-88536848D01*
X154170017Y-88562483D01*
X154195652Y-88593721D01*
X154214704Y-88629363D01*
X154226435Y-88668034D01*
X154231000Y-88714388D01*
X154231000Y-89365612D01*
X154226435Y-89411966D01*
X154214704Y-89450637D01*
X154195652Y-89486279D01*
X154170017Y-89517517D01*
X154138779Y-89543152D01*
X154103137Y-89562204D01*
X154064466Y-89573935D01*
X154018112Y-89578500D01*
X152941888Y-89578500D01*
X152895534Y-89573935D01*
X152856863Y-89562204D01*
X152821221Y-89543152D01*
X152789983Y-89517517D01*
X152764348Y-89486279D01*
X152745296Y-89450637D01*
X152733565Y-89411966D01*
X152729000Y-89365612D01*
X152729000Y-88714388D01*
X152733565Y-88668034D01*
X152745296Y-88629363D01*
X152764348Y-88593721D01*
X152789983Y-88562483D01*
X152821221Y-88536848D01*
X152856863Y-88517796D01*
X152895534Y-88506065D01*
X152941888Y-88501500D01*
X154018112Y-88501500D01*
X154064466Y-88506065D01*
X154064466Y-88506065D01*
G37*
G36*
X159374466Y-88506065D02*
X159413137Y-88517796D01*
X159448779Y-88536848D01*
X159480017Y-88562483D01*
X159505652Y-88593721D01*
X159524704Y-88629363D01*
X159536435Y-88668034D01*
X159541000Y-88714388D01*
X159541000Y-89365612D01*
X159536435Y-89411966D01*
X159524704Y-89450637D01*
X159505652Y-89486279D01*
X159480017Y-89517517D01*
X159448779Y-89543152D01*
X159413137Y-89562204D01*
X159374466Y-89573935D01*
X159328112Y-89578500D01*
X158251888Y-89578500D01*
X158205534Y-89573935D01*
X158166863Y-89562204D01*
X158131221Y-89543152D01*
X158099983Y-89517517D01*
X158074348Y-89486279D01*
X158055296Y-89450637D01*
X158043565Y-89411966D01*
X158039000Y-89365612D01*
X158039000Y-88714388D01*
X158043565Y-88668034D01*
X158055296Y-88629363D01*
X158074348Y-88593721D01*
X158099983Y-88562483D01*
X158131221Y-88536848D01*
X158166863Y-88517796D01*
X158205534Y-88506065D01*
X158251888Y-88501500D01*
X159328112Y-88501500D01*
X159374466Y-88506065D01*
X159374466Y-88506065D01*
G37*
G36*
X164779466Y-88506065D02*
X164818137Y-88517796D01*
X164853779Y-88536848D01*
X164885017Y-88562483D01*
X164910652Y-88593721D01*
X164929704Y-88629363D01*
X164941435Y-88668034D01*
X164946000Y-88714388D01*
X164946000Y-89365612D01*
X164941435Y-89411966D01*
X164929704Y-89450637D01*
X164910652Y-89486279D01*
X164885017Y-89517517D01*
X164853779Y-89543152D01*
X164818137Y-89562204D01*
X164779466Y-89573935D01*
X164733112Y-89578500D01*
X163656888Y-89578500D01*
X163610534Y-89573935D01*
X163571863Y-89562204D01*
X163536221Y-89543152D01*
X163504983Y-89517517D01*
X163479348Y-89486279D01*
X163460296Y-89450637D01*
X163448565Y-89411966D01*
X163444000Y-89365612D01*
X163444000Y-88714388D01*
X163448565Y-88668034D01*
X163460296Y-88629363D01*
X163479348Y-88593721D01*
X163504983Y-88562483D01*
X163536221Y-88536848D01*
X163571863Y-88517796D01*
X163610534Y-88506065D01*
X163656888Y-88501500D01*
X164733112Y-88501500D01*
X164779466Y-88506065D01*
X164779466Y-88506065D01*
G37*
G36*
X164779466Y-86631065D02*
X164818137Y-86642796D01*
X164853779Y-86661848D01*
X164885017Y-86687483D01*
X164910652Y-86718721D01*
X164929704Y-86754363D01*
X164941435Y-86793034D01*
X164946000Y-86839388D01*
X164946000Y-87490612D01*
X164941435Y-87536966D01*
X164929704Y-87575637D01*
X164910652Y-87611279D01*
X164885017Y-87642517D01*
X164853779Y-87668152D01*
X164818137Y-87687204D01*
X164779466Y-87698935D01*
X164733112Y-87703500D01*
X163656888Y-87703500D01*
X163610534Y-87698935D01*
X163571863Y-87687204D01*
X163536221Y-87668152D01*
X163504983Y-87642517D01*
X163479348Y-87611279D01*
X163460296Y-87575637D01*
X163448565Y-87536966D01*
X163444000Y-87490612D01*
X163444000Y-86839388D01*
X163448565Y-86793034D01*
X163460296Y-86754363D01*
X163479348Y-86718721D01*
X163504983Y-86687483D01*
X163536221Y-86661848D01*
X163571863Y-86642796D01*
X163610534Y-86631065D01*
X163656888Y-86626500D01*
X164733112Y-86626500D01*
X164779466Y-86631065D01*
X164779466Y-86631065D01*
G37*
G36*
X159374466Y-86631065D02*
X159413137Y-86642796D01*
X159448779Y-86661848D01*
X159480017Y-86687483D01*
X159505652Y-86718721D01*
X159524704Y-86754363D01*
X159536435Y-86793034D01*
X159541000Y-86839388D01*
X159541000Y-87490612D01*
X159536435Y-87536966D01*
X159524704Y-87575637D01*
X159505652Y-87611279D01*
X159480017Y-87642517D01*
X159448779Y-87668152D01*
X159413137Y-87687204D01*
X159374466Y-87698935D01*
X159328112Y-87703500D01*
X158251888Y-87703500D01*
X158205534Y-87698935D01*
X158166863Y-87687204D01*
X158131221Y-87668152D01*
X158099983Y-87642517D01*
X158074348Y-87611279D01*
X158055296Y-87575637D01*
X158043565Y-87536966D01*
X158039000Y-87490612D01*
X158039000Y-86839388D01*
X158043565Y-86793034D01*
X158055296Y-86754363D01*
X158074348Y-86718721D01*
X158099983Y-86687483D01*
X158131221Y-86661848D01*
X158166863Y-86642796D01*
X158205534Y-86631065D01*
X158251888Y-86626500D01*
X159328112Y-86626500D01*
X159374466Y-86631065D01*
X159374466Y-86631065D01*
G37*
G36*
X154064466Y-86631065D02*
X154103137Y-86642796D01*
X154138779Y-86661848D01*
X154170017Y-86687483D01*
X154195652Y-86718721D01*
X154214704Y-86754363D01*
X154226435Y-86793034D01*
X154231000Y-86839388D01*
X154231000Y-87490612D01*
X154226435Y-87536966D01*
X154214704Y-87575637D01*
X154195652Y-87611279D01*
X154170017Y-87642517D01*
X154138779Y-87668152D01*
X154103137Y-87687204D01*
X154064466Y-87698935D01*
X154018112Y-87703500D01*
X152941888Y-87703500D01*
X152895534Y-87698935D01*
X152856863Y-87687204D01*
X152821221Y-87668152D01*
X152789983Y-87642517D01*
X152764348Y-87611279D01*
X152745296Y-87575637D01*
X152733565Y-87536966D01*
X152729000Y-87490612D01*
X152729000Y-86839388D01*
X152733565Y-86793034D01*
X152745296Y-86754363D01*
X152764348Y-86718721D01*
X152789983Y-86687483D01*
X152821221Y-86661848D01*
X152856863Y-86642796D01*
X152895534Y-86631065D01*
X152941888Y-86626500D01*
X154018112Y-86626500D01*
X154064466Y-86631065D01*
X154064466Y-86631065D01*
G37*
G36*
X180509466Y-86153565D02*
X180548137Y-86165296D01*
X180583779Y-86184348D01*
X180615017Y-86209983D01*
X180640652Y-86241221D01*
X180659704Y-86276863D01*
X180671435Y-86315534D01*
X180676000Y-86361888D01*
X180676000Y-87438112D01*
X180671435Y-87484466D01*
X180659704Y-87523137D01*
X180640652Y-87558779D01*
X180615017Y-87590017D01*
X180583779Y-87615652D01*
X180548137Y-87634704D01*
X180509466Y-87646435D01*
X180463112Y-87651000D01*
X179811888Y-87651000D01*
X179765534Y-87646435D01*
X179726863Y-87634704D01*
X179691221Y-87615652D01*
X179659983Y-87590017D01*
X179634348Y-87558779D01*
X179615296Y-87523137D01*
X179603565Y-87484466D01*
X179599000Y-87438112D01*
X179599000Y-86361888D01*
X179603565Y-86315534D01*
X179615296Y-86276863D01*
X179634348Y-86241221D01*
X179659983Y-86209983D01*
X179691221Y-86184348D01*
X179726863Y-86165296D01*
X179765534Y-86153565D01*
X179811888Y-86149000D01*
X180463112Y-86149000D01*
X180509466Y-86153565D01*
X180509466Y-86153565D01*
G37*
G36*
X178634466Y-86153565D02*
X178673137Y-86165296D01*
X178708779Y-86184348D01*
X178740017Y-86209983D01*
X178765652Y-86241221D01*
X178784704Y-86276863D01*
X178796435Y-86315534D01*
X178801000Y-86361888D01*
X178801000Y-87438112D01*
X178796435Y-87484466D01*
X178784704Y-87523137D01*
X178765652Y-87558779D01*
X178740017Y-87590017D01*
X178708779Y-87615652D01*
X178673137Y-87634704D01*
X178634466Y-87646435D01*
X178588112Y-87651000D01*
X177936888Y-87651000D01*
X177890534Y-87646435D01*
X177851863Y-87634704D01*
X177816221Y-87615652D01*
X177784983Y-87590017D01*
X177759348Y-87558779D01*
X177740296Y-87523137D01*
X177728565Y-87484466D01*
X177724000Y-87438112D01*
X177724000Y-86361888D01*
X177728565Y-86315534D01*
X177740296Y-86276863D01*
X177759348Y-86241221D01*
X177784983Y-86209983D01*
X177816221Y-86184348D01*
X177851863Y-86165296D01*
X177890534Y-86153565D01*
X177936888Y-86149000D01*
X178588112Y-86149000D01*
X178634466Y-86153565D01*
X178634466Y-86153565D01*
G37*
G36*
X211583567Y-84944959D02*
X211714072Y-84970918D01*
X211959939Y-85072759D01*
X212161964Y-85207749D01*
X212181215Y-85220612D01*
X212369388Y-85408785D01*
X212369390Y-85408788D01*
X212517241Y-85630061D01*
X212619082Y-85875928D01*
X212671000Y-86136938D01*
X212671000Y-86403062D01*
X212619082Y-86664072D01*
X212517241Y-86909939D01*
X212369890Y-87130464D01*
X212369388Y-87131215D01*
X212181215Y-87319388D01*
X212181212Y-87319390D01*
X211959939Y-87467241D01*
X211714072Y-87569082D01*
X211639893Y-87583837D01*
X211453063Y-87621000D01*
X211186937Y-87621000D01*
X211000107Y-87583837D01*
X210925928Y-87569082D01*
X210680061Y-87467241D01*
X210458788Y-87319390D01*
X210458785Y-87319388D01*
X210270612Y-87131215D01*
X210270110Y-87130464D01*
X210122759Y-86909939D01*
X210020918Y-86664072D01*
X209969000Y-86403062D01*
X209969000Y-86136938D01*
X210020918Y-85875928D01*
X210122759Y-85630061D01*
X210270610Y-85408788D01*
X210270612Y-85408785D01*
X210458785Y-85220612D01*
X210478036Y-85207749D01*
X210680061Y-85072759D01*
X210925928Y-84970918D01*
X211056433Y-84944959D01*
X211186937Y-84919000D01*
X211453063Y-84919000D01*
X211583567Y-84944959D01*
X211583567Y-84944959D01*
G37*
G36*
X127588037Y-81792250D02*
X127588039Y-81792251D01*
X127588040Y-81792251D01*
X127911251Y-81926129D01*
X127911252Y-81926130D01*
X128202137Y-82120493D01*
X128449507Y-82367863D01*
X128449509Y-82367866D01*
X128643871Y-82658749D01*
X128777749Y-82981960D01*
X128777750Y-82981963D01*
X128846000Y-83325078D01*
X128846000Y-83674922D01*
X128801660Y-83897835D01*
X128777749Y-84018040D01*
X128643871Y-84341251D01*
X128597527Y-84410610D01*
X128449507Y-84632137D01*
X128202137Y-84879507D01*
X128202134Y-84879509D01*
X127911251Y-85073871D01*
X127588040Y-85207749D01*
X127588039Y-85207749D01*
X127588037Y-85207750D01*
X127244922Y-85276000D01*
X126895078Y-85276000D01*
X126551963Y-85207750D01*
X126551961Y-85207749D01*
X126551960Y-85207749D01*
X126228749Y-85073871D01*
X125937866Y-84879509D01*
X125937863Y-84879507D01*
X125690493Y-84632137D01*
X125542473Y-84410610D01*
X125496129Y-84341251D01*
X125362251Y-84018040D01*
X125338341Y-83897835D01*
X125294000Y-83674922D01*
X125294000Y-83325078D01*
X125362250Y-82981963D01*
X125362251Y-82981960D01*
X125496129Y-82658749D01*
X125690491Y-82367866D01*
X125690493Y-82367863D01*
X125937863Y-82120493D01*
X126228748Y-81926130D01*
X126228749Y-81926129D01*
X126551960Y-81792251D01*
X126551961Y-81792251D01*
X126551963Y-81792250D01*
X126895078Y-81724000D01*
X127244922Y-81724000D01*
X127588037Y-81792250D01*
X127588037Y-81792250D01*
G37*
G36*
X171106565Y-82689389D02*
X171297834Y-82768615D01*
X171469976Y-82883637D01*
X171616363Y-83030024D01*
X171731385Y-83202166D01*
X171810611Y-83393435D01*
X171851000Y-83596484D01*
X171851000Y-83803516D01*
X171810611Y-84006565D01*
X171731385Y-84197834D01*
X171616363Y-84369976D01*
X171469976Y-84516363D01*
X171297834Y-84631385D01*
X171106565Y-84710611D01*
X170903516Y-84751000D01*
X170696484Y-84751000D01*
X170493435Y-84710611D01*
X170302166Y-84631385D01*
X170130024Y-84516363D01*
X169983637Y-84369976D01*
X169868615Y-84197834D01*
X169789389Y-84006565D01*
X169749000Y-83803516D01*
X169749000Y-83596484D01*
X169789389Y-83393435D01*
X169868615Y-83202166D01*
X169983637Y-83030024D01*
X170130024Y-82883637D01*
X170302166Y-82768615D01*
X170493435Y-82689389D01*
X170696484Y-82649000D01*
X170903516Y-82649000D01*
X171106565Y-82689389D01*
X171106565Y-82689389D01*
G37*
G36*
X166606565Y-82689389D02*
X166797834Y-82768615D01*
X166969976Y-82883637D01*
X167116363Y-83030024D01*
X167231385Y-83202166D01*
X167310611Y-83393435D01*
X167351000Y-83596484D01*
X167351000Y-83803516D01*
X167310611Y-84006565D01*
X167231385Y-84197834D01*
X167116363Y-84369976D01*
X166969976Y-84516363D01*
X166797834Y-84631385D01*
X166606565Y-84710611D01*
X166403516Y-84751000D01*
X166196484Y-84751000D01*
X165993435Y-84710611D01*
X165802166Y-84631385D01*
X165630024Y-84516363D01*
X165483637Y-84369976D01*
X165368615Y-84197834D01*
X165289389Y-84006565D01*
X165249000Y-83803516D01*
X165249000Y-83596484D01*
X165289389Y-83393435D01*
X165368615Y-83202166D01*
X165483637Y-83030024D01*
X165630024Y-82883637D01*
X165802166Y-82768615D01*
X165993435Y-82689389D01*
X166196484Y-82649000D01*
X166403516Y-82649000D01*
X166606565Y-82689389D01*
X166606565Y-82689389D01*
G37*
G36*
X63903443Y-82301882D02*
X64130203Y-82395809D01*
X64212167Y-82450576D01*
X64334279Y-82532168D01*
X64507832Y-82705721D01*
X64589424Y-82827833D01*
X64644191Y-82909797D01*
X64738118Y-83136557D01*
X64786000Y-83377278D01*
X64786000Y-83622722D01*
X64738118Y-83863443D01*
X64644191Y-84090203D01*
X64589424Y-84172167D01*
X64507832Y-84294279D01*
X64334279Y-84467832D01*
X64212167Y-84549424D01*
X64130203Y-84604191D01*
X63903443Y-84698118D01*
X63662722Y-84746000D01*
X63417278Y-84746000D01*
X63176557Y-84698118D01*
X62949797Y-84604191D01*
X62867833Y-84549424D01*
X62745721Y-84467832D01*
X62572168Y-84294279D01*
X62490576Y-84172167D01*
X62435809Y-84090203D01*
X62341882Y-83863443D01*
X62294000Y-83622722D01*
X62294000Y-83377278D01*
X62341882Y-83136557D01*
X62435809Y-82909797D01*
X62490576Y-82827833D01*
X62572168Y-82705721D01*
X62745721Y-82532168D01*
X62867833Y-82450576D01*
X62949797Y-82395809D01*
X63176557Y-82301882D01*
X63417278Y-82254000D01*
X63662722Y-82254000D01*
X63903443Y-82301882D01*
X63903443Y-82301882D01*
G37*
G36*
X155906565Y-82389389D02*
X156097834Y-82468615D01*
X156269976Y-82583637D01*
X156416363Y-82730024D01*
X156531385Y-82902166D01*
X156610611Y-83093435D01*
X156651000Y-83296484D01*
X156651000Y-83503516D01*
X156610611Y-83706565D01*
X156531385Y-83897834D01*
X156416363Y-84069976D01*
X156269976Y-84216363D01*
X156097834Y-84331385D01*
X155906565Y-84410611D01*
X155703516Y-84451000D01*
X155496484Y-84451000D01*
X155293435Y-84410611D01*
X155102166Y-84331385D01*
X154930024Y-84216363D01*
X154783637Y-84069976D01*
X154668615Y-83897834D01*
X154589389Y-83706565D01*
X154549000Y-83503516D01*
X154549000Y-83296484D01*
X154589389Y-83093435D01*
X154668615Y-82902166D01*
X154783637Y-82730024D01*
X154930024Y-82583637D01*
X155102166Y-82468615D01*
X155293435Y-82389389D01*
X155496484Y-82349000D01*
X155703516Y-82349000D01*
X155906565Y-82389389D01*
X155906565Y-82389389D01*
G37*
G36*
X149406565Y-82389389D02*
X149597834Y-82468615D01*
X149769976Y-82583637D01*
X149916363Y-82730024D01*
X150031385Y-82902166D01*
X150110611Y-83093435D01*
X150151000Y-83296484D01*
X150151000Y-83503516D01*
X150110611Y-83706565D01*
X150031385Y-83897834D01*
X149916363Y-84069976D01*
X149769976Y-84216363D01*
X149597834Y-84331385D01*
X149406565Y-84410611D01*
X149203516Y-84451000D01*
X148996484Y-84451000D01*
X148793435Y-84410611D01*
X148602166Y-84331385D01*
X148430024Y-84216363D01*
X148283637Y-84069976D01*
X148168615Y-83897834D01*
X148089389Y-83706565D01*
X148049000Y-83503516D01*
X148049000Y-83296484D01*
X148089389Y-83093435D01*
X148168615Y-82902166D01*
X148283637Y-82730024D01*
X148430024Y-82583637D01*
X148602166Y-82468615D01*
X148793435Y-82389389D01*
X148996484Y-82349000D01*
X149203516Y-82349000D01*
X149406565Y-82389389D01*
X149406565Y-82389389D01*
G37*
G36*
X149406565Y-77889389D02*
X149597834Y-77968615D01*
X149769976Y-78083637D01*
X149916363Y-78230024D01*
X150031385Y-78402166D01*
X150110611Y-78593435D01*
X150151000Y-78796484D01*
X150151000Y-79003516D01*
X150110611Y-79206565D01*
X150031385Y-79397834D01*
X149916363Y-79569976D01*
X149769976Y-79716363D01*
X149597834Y-79831385D01*
X149406565Y-79910611D01*
X149203516Y-79951000D01*
X148996484Y-79951000D01*
X148793435Y-79910611D01*
X148602166Y-79831385D01*
X148430024Y-79716363D01*
X148283637Y-79569976D01*
X148168615Y-79397834D01*
X148089389Y-79206565D01*
X148049000Y-79003516D01*
X148049000Y-78796484D01*
X148089389Y-78593435D01*
X148168615Y-78402166D01*
X148283637Y-78230024D01*
X148430024Y-78083637D01*
X148602166Y-77968615D01*
X148793435Y-77889389D01*
X148996484Y-77849000D01*
X149203516Y-77849000D01*
X149406565Y-77889389D01*
X149406565Y-77889389D01*
G37*
G36*
X155906565Y-77889389D02*
X156097834Y-77968615D01*
X156269976Y-78083637D01*
X156416363Y-78230024D01*
X156531385Y-78402166D01*
X156610611Y-78593435D01*
X156651000Y-78796484D01*
X156651000Y-79003516D01*
X156610611Y-79206565D01*
X156531385Y-79397834D01*
X156416363Y-79569976D01*
X156269976Y-79716363D01*
X156097834Y-79831385D01*
X155906565Y-79910611D01*
X155703516Y-79951000D01*
X155496484Y-79951000D01*
X155293435Y-79910611D01*
X155102166Y-79831385D01*
X154930024Y-79716363D01*
X154783637Y-79569976D01*
X154668615Y-79397834D01*
X154589389Y-79206565D01*
X154549000Y-79003516D01*
X154549000Y-78796484D01*
X154589389Y-78593435D01*
X154668615Y-78402166D01*
X154783637Y-78230024D01*
X154930024Y-78083637D01*
X155102166Y-77968615D01*
X155293435Y-77889389D01*
X155496484Y-77849000D01*
X155703516Y-77849000D01*
X155906565Y-77889389D01*
X155906565Y-77889389D01*
G37*
G36*
X171106565Y-76189389D02*
X171297834Y-76268615D01*
X171469976Y-76383637D01*
X171616363Y-76530024D01*
X171731385Y-76702166D01*
X171810611Y-76893435D01*
X171851000Y-77096484D01*
X171851000Y-77303516D01*
X171810611Y-77506565D01*
X171731385Y-77697834D01*
X171616363Y-77869976D01*
X171469976Y-78016363D01*
X171297834Y-78131385D01*
X171106565Y-78210611D01*
X170903516Y-78251000D01*
X170696484Y-78251000D01*
X170493435Y-78210611D01*
X170302166Y-78131385D01*
X170130024Y-78016363D01*
X169983637Y-77869976D01*
X169868615Y-77697834D01*
X169789389Y-77506565D01*
X169749000Y-77303516D01*
X169749000Y-77096484D01*
X169789389Y-76893435D01*
X169868615Y-76702166D01*
X169983637Y-76530024D01*
X170130024Y-76383637D01*
X170302166Y-76268615D01*
X170493435Y-76189389D01*
X170696484Y-76149000D01*
X170903516Y-76149000D01*
X171106565Y-76189389D01*
X171106565Y-76189389D01*
G37*
G36*
X166606565Y-76189389D02*
X166797834Y-76268615D01*
X166969976Y-76383637D01*
X167116363Y-76530024D01*
X167231385Y-76702166D01*
X167310611Y-76893435D01*
X167351000Y-77096484D01*
X167351000Y-77303516D01*
X167310611Y-77506565D01*
X167231385Y-77697834D01*
X167116363Y-77869976D01*
X166969976Y-78016363D01*
X166797834Y-78131385D01*
X166606565Y-78210611D01*
X166403516Y-78251000D01*
X166196484Y-78251000D01*
X165993435Y-78210611D01*
X165802166Y-78131385D01*
X165630024Y-78016363D01*
X165483637Y-77869976D01*
X165368615Y-77697834D01*
X165289389Y-77506565D01*
X165249000Y-77303516D01*
X165249000Y-77096484D01*
X165289389Y-76893435D01*
X165368615Y-76702166D01*
X165483637Y-76530024D01*
X165630024Y-76383637D01*
X165802166Y-76268615D01*
X165993435Y-76189389D01*
X166196484Y-76149000D01*
X166403516Y-76149000D01*
X166606565Y-76189389D01*
X166606565Y-76189389D01*
G37*
M02*
