G04 #@! TF.GenerationSoftware,KiCad,Pcbnew,5.0.2-bee76a0~70~ubuntu18.10.1*
G04 #@! TF.CreationDate,2019-05-29T11:20:30+10:00*
G04 #@! TF.ProjectId,ecig,65636967-2e6b-4696-9361-645f70636258,rev?*
G04 #@! TF.SameCoordinates,Original*
G04 #@! TF.FileFunction,Soldermask,Bot*
G04 #@! TF.FilePolarity,Negative*
%FSLAX46Y46*%
G04 Gerber Fmt 4.6, Leading zero omitted, Abs format (unit mm)*
G04 Created by KiCad (PCBNEW 5.0.2-bee76a0~70~ubuntu18.10.1) date Wed 29 May 2019 11:20:30 AEST*
%MOMM*%
%LPD*%
G01*
G04 APERTURE LIST*
%ADD10C,0.100000*%
G04 APERTURE END LIST*
D10*
G36*
X164670443Y-110095519D02*
X164736627Y-110102037D01*
X164849853Y-110136384D01*
X164906467Y-110153557D01*
X165045087Y-110227652D01*
X165062991Y-110237222D01*
X165098729Y-110266552D01*
X165200186Y-110349814D01*
X165283448Y-110451271D01*
X165312778Y-110487009D01*
X165312779Y-110487011D01*
X165396443Y-110643533D01*
X165396443Y-110643534D01*
X165447963Y-110813373D01*
X165465359Y-110990000D01*
X165447963Y-111166627D01*
X165413616Y-111279853D01*
X165396443Y-111336467D01*
X165322348Y-111475087D01*
X165312778Y-111492991D01*
X165283448Y-111528729D01*
X165200186Y-111630186D01*
X165098729Y-111713448D01*
X165062991Y-111742778D01*
X165062989Y-111742779D01*
X164906467Y-111826443D01*
X164849853Y-111843616D01*
X164736627Y-111877963D01*
X164670442Y-111884482D01*
X164604260Y-111891000D01*
X164515740Y-111891000D01*
X164449558Y-111884482D01*
X164383373Y-111877963D01*
X164270147Y-111843616D01*
X164213533Y-111826443D01*
X164057011Y-111742779D01*
X164057009Y-111742778D01*
X164021271Y-111713448D01*
X163919814Y-111630186D01*
X163836552Y-111528729D01*
X163807222Y-111492991D01*
X163797652Y-111475087D01*
X163723557Y-111336467D01*
X163706384Y-111279853D01*
X163672037Y-111166627D01*
X163654641Y-110990000D01*
X163672037Y-110813373D01*
X163723557Y-110643534D01*
X163723557Y-110643533D01*
X163807221Y-110487011D01*
X163807222Y-110487009D01*
X163836552Y-110451271D01*
X163919814Y-110349814D01*
X164021271Y-110266552D01*
X164057009Y-110237222D01*
X164074913Y-110227652D01*
X164213533Y-110153557D01*
X164270147Y-110136384D01*
X164383373Y-110102037D01*
X164449557Y-110095519D01*
X164515740Y-110089000D01*
X164604260Y-110089000D01*
X164670443Y-110095519D01*
X164670443Y-110095519D01*
G37*
G36*
X159590443Y-110095519D02*
X159656627Y-110102037D01*
X159769853Y-110136384D01*
X159826467Y-110153557D01*
X159965087Y-110227652D01*
X159982991Y-110237222D01*
X160018729Y-110266552D01*
X160120186Y-110349814D01*
X160203448Y-110451271D01*
X160232778Y-110487009D01*
X160232779Y-110487011D01*
X160316443Y-110643533D01*
X160316443Y-110643534D01*
X160367963Y-110813373D01*
X160385359Y-110990000D01*
X160367963Y-111166627D01*
X160333616Y-111279853D01*
X160316443Y-111336467D01*
X160242348Y-111475087D01*
X160232778Y-111492991D01*
X160203448Y-111528729D01*
X160120186Y-111630186D01*
X160018729Y-111713448D01*
X159982991Y-111742778D01*
X159982989Y-111742779D01*
X159826467Y-111826443D01*
X159769853Y-111843616D01*
X159656627Y-111877963D01*
X159590442Y-111884482D01*
X159524260Y-111891000D01*
X159435740Y-111891000D01*
X159369558Y-111884482D01*
X159303373Y-111877963D01*
X159190147Y-111843616D01*
X159133533Y-111826443D01*
X158977011Y-111742779D01*
X158977009Y-111742778D01*
X158941271Y-111713448D01*
X158839814Y-111630186D01*
X158756552Y-111528729D01*
X158727222Y-111492991D01*
X158717652Y-111475087D01*
X158643557Y-111336467D01*
X158626384Y-111279853D01*
X158592037Y-111166627D01*
X158574641Y-110990000D01*
X158592037Y-110813373D01*
X158643557Y-110643534D01*
X158643557Y-110643533D01*
X158727221Y-110487011D01*
X158727222Y-110487009D01*
X158756552Y-110451271D01*
X158839814Y-110349814D01*
X158941271Y-110266552D01*
X158977009Y-110237222D01*
X158994913Y-110227652D01*
X159133533Y-110153557D01*
X159190147Y-110136384D01*
X159303373Y-110102037D01*
X159369557Y-110095519D01*
X159435740Y-110089000D01*
X159524260Y-110089000D01*
X159590443Y-110095519D01*
X159590443Y-110095519D01*
G37*
G36*
X157050443Y-110095519D02*
X157116627Y-110102037D01*
X157229853Y-110136384D01*
X157286467Y-110153557D01*
X157425087Y-110227652D01*
X157442991Y-110237222D01*
X157478729Y-110266552D01*
X157580186Y-110349814D01*
X157663448Y-110451271D01*
X157692778Y-110487009D01*
X157692779Y-110487011D01*
X157776443Y-110643533D01*
X157776443Y-110643534D01*
X157827963Y-110813373D01*
X157845359Y-110990000D01*
X157827963Y-111166627D01*
X157793616Y-111279853D01*
X157776443Y-111336467D01*
X157702348Y-111475087D01*
X157692778Y-111492991D01*
X157663448Y-111528729D01*
X157580186Y-111630186D01*
X157478729Y-111713448D01*
X157442991Y-111742778D01*
X157442989Y-111742779D01*
X157286467Y-111826443D01*
X157229853Y-111843616D01*
X157116627Y-111877963D01*
X157050442Y-111884482D01*
X156984260Y-111891000D01*
X156895740Y-111891000D01*
X156829558Y-111884482D01*
X156763373Y-111877963D01*
X156650147Y-111843616D01*
X156593533Y-111826443D01*
X156437011Y-111742779D01*
X156437009Y-111742778D01*
X156401271Y-111713448D01*
X156299814Y-111630186D01*
X156216552Y-111528729D01*
X156187222Y-111492991D01*
X156177652Y-111475087D01*
X156103557Y-111336467D01*
X156086384Y-111279853D01*
X156052037Y-111166627D01*
X156034641Y-110990000D01*
X156052037Y-110813373D01*
X156103557Y-110643534D01*
X156103557Y-110643533D01*
X156187221Y-110487011D01*
X156187222Y-110487009D01*
X156216552Y-110451271D01*
X156299814Y-110349814D01*
X156401271Y-110266552D01*
X156437009Y-110237222D01*
X156454913Y-110227652D01*
X156593533Y-110153557D01*
X156650147Y-110136384D01*
X156763373Y-110102037D01*
X156829557Y-110095519D01*
X156895740Y-110089000D01*
X156984260Y-110089000D01*
X157050443Y-110095519D01*
X157050443Y-110095519D01*
G37*
G36*
X154510443Y-110095519D02*
X154576627Y-110102037D01*
X154689853Y-110136384D01*
X154746467Y-110153557D01*
X154885087Y-110227652D01*
X154902991Y-110237222D01*
X154938729Y-110266552D01*
X155040186Y-110349814D01*
X155123448Y-110451271D01*
X155152778Y-110487009D01*
X155152779Y-110487011D01*
X155236443Y-110643533D01*
X155236443Y-110643534D01*
X155287963Y-110813373D01*
X155305359Y-110990000D01*
X155287963Y-111166627D01*
X155253616Y-111279853D01*
X155236443Y-111336467D01*
X155162348Y-111475087D01*
X155152778Y-111492991D01*
X155123448Y-111528729D01*
X155040186Y-111630186D01*
X154938729Y-111713448D01*
X154902991Y-111742778D01*
X154902989Y-111742779D01*
X154746467Y-111826443D01*
X154689853Y-111843616D01*
X154576627Y-111877963D01*
X154510442Y-111884482D01*
X154444260Y-111891000D01*
X154355740Y-111891000D01*
X154289558Y-111884482D01*
X154223373Y-111877963D01*
X154110147Y-111843616D01*
X154053533Y-111826443D01*
X153897011Y-111742779D01*
X153897009Y-111742778D01*
X153861271Y-111713448D01*
X153759814Y-111630186D01*
X153676552Y-111528729D01*
X153647222Y-111492991D01*
X153637652Y-111475087D01*
X153563557Y-111336467D01*
X153546384Y-111279853D01*
X153512037Y-111166627D01*
X153494641Y-110990000D01*
X153512037Y-110813373D01*
X153563557Y-110643534D01*
X153563557Y-110643533D01*
X153647221Y-110487011D01*
X153647222Y-110487009D01*
X153676552Y-110451271D01*
X153759814Y-110349814D01*
X153861271Y-110266552D01*
X153897009Y-110237222D01*
X153914913Y-110227652D01*
X154053533Y-110153557D01*
X154110147Y-110136384D01*
X154223373Y-110102037D01*
X154289557Y-110095519D01*
X154355740Y-110089000D01*
X154444260Y-110089000D01*
X154510443Y-110095519D01*
X154510443Y-110095519D01*
G37*
G36*
X162130443Y-110095519D02*
X162196627Y-110102037D01*
X162309853Y-110136384D01*
X162366467Y-110153557D01*
X162505087Y-110227652D01*
X162522991Y-110237222D01*
X162558729Y-110266552D01*
X162660186Y-110349814D01*
X162743448Y-110451271D01*
X162772778Y-110487009D01*
X162772779Y-110487011D01*
X162856443Y-110643533D01*
X162856443Y-110643534D01*
X162907963Y-110813373D01*
X162925359Y-110990000D01*
X162907963Y-111166627D01*
X162873616Y-111279853D01*
X162856443Y-111336467D01*
X162782348Y-111475087D01*
X162772778Y-111492991D01*
X162743448Y-111528729D01*
X162660186Y-111630186D01*
X162558729Y-111713448D01*
X162522991Y-111742778D01*
X162522989Y-111742779D01*
X162366467Y-111826443D01*
X162309853Y-111843616D01*
X162196627Y-111877963D01*
X162130442Y-111884482D01*
X162064260Y-111891000D01*
X161975740Y-111891000D01*
X161909558Y-111884482D01*
X161843373Y-111877963D01*
X161730147Y-111843616D01*
X161673533Y-111826443D01*
X161517011Y-111742779D01*
X161517009Y-111742778D01*
X161481271Y-111713448D01*
X161379814Y-111630186D01*
X161296552Y-111528729D01*
X161267222Y-111492991D01*
X161257652Y-111475087D01*
X161183557Y-111336467D01*
X161166384Y-111279853D01*
X161132037Y-111166627D01*
X161114641Y-110990000D01*
X161132037Y-110813373D01*
X161183557Y-110643534D01*
X161183557Y-110643533D01*
X161267221Y-110487011D01*
X161267222Y-110487009D01*
X161296552Y-110451271D01*
X161379814Y-110349814D01*
X161481271Y-110266552D01*
X161517009Y-110237222D01*
X161534913Y-110227652D01*
X161673533Y-110153557D01*
X161730147Y-110136384D01*
X161843373Y-110102037D01*
X161909557Y-110095519D01*
X161975740Y-110089000D01*
X162064260Y-110089000D01*
X162130443Y-110095519D01*
X162130443Y-110095519D01*
G37*
G36*
X157050442Y-107555518D02*
X157116627Y-107562037D01*
X157229853Y-107596384D01*
X157286467Y-107613557D01*
X157425087Y-107687652D01*
X157442991Y-107697222D01*
X157478729Y-107726552D01*
X157580186Y-107809814D01*
X157663448Y-107911271D01*
X157692778Y-107947009D01*
X157692779Y-107947011D01*
X157776443Y-108103533D01*
X157776443Y-108103534D01*
X157827963Y-108273373D01*
X157845359Y-108450000D01*
X157827963Y-108626627D01*
X157793616Y-108739853D01*
X157776443Y-108796467D01*
X157702348Y-108935087D01*
X157692778Y-108952991D01*
X157663448Y-108988729D01*
X157580186Y-109090186D01*
X157478729Y-109173448D01*
X157442991Y-109202778D01*
X157442989Y-109202779D01*
X157286467Y-109286443D01*
X157229853Y-109303616D01*
X157116627Y-109337963D01*
X157050443Y-109344481D01*
X156984260Y-109351000D01*
X156895740Y-109351000D01*
X156829557Y-109344481D01*
X156763373Y-109337963D01*
X156650147Y-109303616D01*
X156593533Y-109286443D01*
X156437011Y-109202779D01*
X156437009Y-109202778D01*
X156401271Y-109173448D01*
X156299814Y-109090186D01*
X156216552Y-108988729D01*
X156187222Y-108952991D01*
X156177652Y-108935087D01*
X156103557Y-108796467D01*
X156086384Y-108739853D01*
X156052037Y-108626627D01*
X156034641Y-108450000D01*
X156052037Y-108273373D01*
X156103557Y-108103534D01*
X156103557Y-108103533D01*
X156187221Y-107947011D01*
X156187222Y-107947009D01*
X156216552Y-107911271D01*
X156299814Y-107809814D01*
X156401271Y-107726552D01*
X156437009Y-107697222D01*
X156454913Y-107687652D01*
X156593533Y-107613557D01*
X156650147Y-107596384D01*
X156763373Y-107562037D01*
X156829558Y-107555518D01*
X156895740Y-107549000D01*
X156984260Y-107549000D01*
X157050442Y-107555518D01*
X157050442Y-107555518D01*
G37*
G36*
X165461000Y-109351000D02*
X163659000Y-109351000D01*
X163659000Y-107549000D01*
X165461000Y-107549000D01*
X165461000Y-109351000D01*
X165461000Y-109351000D01*
G37*
G36*
X162130442Y-107555518D02*
X162196627Y-107562037D01*
X162309853Y-107596384D01*
X162366467Y-107613557D01*
X162505087Y-107687652D01*
X162522991Y-107697222D01*
X162558729Y-107726552D01*
X162660186Y-107809814D01*
X162743448Y-107911271D01*
X162772778Y-107947009D01*
X162772779Y-107947011D01*
X162856443Y-108103533D01*
X162856443Y-108103534D01*
X162907963Y-108273373D01*
X162925359Y-108450000D01*
X162907963Y-108626627D01*
X162873616Y-108739853D01*
X162856443Y-108796467D01*
X162782348Y-108935087D01*
X162772778Y-108952991D01*
X162743448Y-108988729D01*
X162660186Y-109090186D01*
X162558729Y-109173448D01*
X162522991Y-109202778D01*
X162522989Y-109202779D01*
X162366467Y-109286443D01*
X162309853Y-109303616D01*
X162196627Y-109337963D01*
X162130443Y-109344481D01*
X162064260Y-109351000D01*
X161975740Y-109351000D01*
X161909557Y-109344481D01*
X161843373Y-109337963D01*
X161730147Y-109303616D01*
X161673533Y-109286443D01*
X161517011Y-109202779D01*
X161517009Y-109202778D01*
X161481271Y-109173448D01*
X161379814Y-109090186D01*
X161296552Y-108988729D01*
X161267222Y-108952991D01*
X161257652Y-108935087D01*
X161183557Y-108796467D01*
X161166384Y-108739853D01*
X161132037Y-108626627D01*
X161114641Y-108450000D01*
X161132037Y-108273373D01*
X161183557Y-108103534D01*
X161183557Y-108103533D01*
X161267221Y-107947011D01*
X161267222Y-107947009D01*
X161296552Y-107911271D01*
X161379814Y-107809814D01*
X161481271Y-107726552D01*
X161517009Y-107697222D01*
X161534913Y-107687652D01*
X161673533Y-107613557D01*
X161730147Y-107596384D01*
X161843373Y-107562037D01*
X161909558Y-107555518D01*
X161975740Y-107549000D01*
X162064260Y-107549000D01*
X162130442Y-107555518D01*
X162130442Y-107555518D01*
G37*
G36*
X159590442Y-107555518D02*
X159656627Y-107562037D01*
X159769853Y-107596384D01*
X159826467Y-107613557D01*
X159965087Y-107687652D01*
X159982991Y-107697222D01*
X160018729Y-107726552D01*
X160120186Y-107809814D01*
X160203448Y-107911271D01*
X160232778Y-107947009D01*
X160232779Y-107947011D01*
X160316443Y-108103533D01*
X160316443Y-108103534D01*
X160367963Y-108273373D01*
X160385359Y-108450000D01*
X160367963Y-108626627D01*
X160333616Y-108739853D01*
X160316443Y-108796467D01*
X160242348Y-108935087D01*
X160232778Y-108952991D01*
X160203448Y-108988729D01*
X160120186Y-109090186D01*
X160018729Y-109173448D01*
X159982991Y-109202778D01*
X159982989Y-109202779D01*
X159826467Y-109286443D01*
X159769853Y-109303616D01*
X159656627Y-109337963D01*
X159590443Y-109344481D01*
X159524260Y-109351000D01*
X159435740Y-109351000D01*
X159369557Y-109344481D01*
X159303373Y-109337963D01*
X159190147Y-109303616D01*
X159133533Y-109286443D01*
X158977011Y-109202779D01*
X158977009Y-109202778D01*
X158941271Y-109173448D01*
X158839814Y-109090186D01*
X158756552Y-108988729D01*
X158727222Y-108952991D01*
X158717652Y-108935087D01*
X158643557Y-108796467D01*
X158626384Y-108739853D01*
X158592037Y-108626627D01*
X158574641Y-108450000D01*
X158592037Y-108273373D01*
X158643557Y-108103534D01*
X158643557Y-108103533D01*
X158727221Y-107947011D01*
X158727222Y-107947009D01*
X158756552Y-107911271D01*
X158839814Y-107809814D01*
X158941271Y-107726552D01*
X158977009Y-107697222D01*
X158994913Y-107687652D01*
X159133533Y-107613557D01*
X159190147Y-107596384D01*
X159303373Y-107562037D01*
X159369558Y-107555518D01*
X159435740Y-107549000D01*
X159524260Y-107549000D01*
X159590442Y-107555518D01*
X159590442Y-107555518D01*
G37*
G36*
X154510442Y-107555518D02*
X154576627Y-107562037D01*
X154689853Y-107596384D01*
X154746467Y-107613557D01*
X154885087Y-107687652D01*
X154902991Y-107697222D01*
X154938729Y-107726552D01*
X155040186Y-107809814D01*
X155123448Y-107911271D01*
X155152778Y-107947009D01*
X155152779Y-107947011D01*
X155236443Y-108103533D01*
X155236443Y-108103534D01*
X155287963Y-108273373D01*
X155305359Y-108450000D01*
X155287963Y-108626627D01*
X155253616Y-108739853D01*
X155236443Y-108796467D01*
X155162348Y-108935087D01*
X155152778Y-108952991D01*
X155123448Y-108988729D01*
X155040186Y-109090186D01*
X154938729Y-109173448D01*
X154902991Y-109202778D01*
X154902989Y-109202779D01*
X154746467Y-109286443D01*
X154689853Y-109303616D01*
X154576627Y-109337963D01*
X154510443Y-109344481D01*
X154444260Y-109351000D01*
X154355740Y-109351000D01*
X154289557Y-109344481D01*
X154223373Y-109337963D01*
X154110147Y-109303616D01*
X154053533Y-109286443D01*
X153897011Y-109202779D01*
X153897009Y-109202778D01*
X153861271Y-109173448D01*
X153759814Y-109090186D01*
X153676552Y-108988729D01*
X153647222Y-108952991D01*
X153637652Y-108935087D01*
X153563557Y-108796467D01*
X153546384Y-108739853D01*
X153512037Y-108626627D01*
X153494641Y-108450000D01*
X153512037Y-108273373D01*
X153563557Y-108103534D01*
X153563557Y-108103533D01*
X153647221Y-107947011D01*
X153647222Y-107947009D01*
X153676552Y-107911271D01*
X153759814Y-107809814D01*
X153861271Y-107726552D01*
X153897009Y-107697222D01*
X153914913Y-107687652D01*
X154053533Y-107613557D01*
X154110147Y-107596384D01*
X154223373Y-107562037D01*
X154289558Y-107555518D01*
X154355740Y-107549000D01*
X154444260Y-107549000D01*
X154510442Y-107555518D01*
X154510442Y-107555518D01*
G37*
G36*
X72388037Y-97792250D02*
X72388039Y-97792251D01*
X72388040Y-97792251D01*
X72711251Y-97926129D01*
X72998213Y-98117871D01*
X73002137Y-98120493D01*
X73249507Y-98367863D01*
X73249509Y-98367866D01*
X73443871Y-98658749D01*
X73577749Y-98981960D01*
X73646000Y-99325079D01*
X73646000Y-99674921D01*
X73577749Y-100018040D01*
X73443871Y-100341251D01*
X73443870Y-100341252D01*
X73249507Y-100632137D01*
X73002137Y-100879507D01*
X73002134Y-100879509D01*
X72711251Y-101073871D01*
X72388040Y-101207749D01*
X72388039Y-101207749D01*
X72388037Y-101207750D01*
X72044922Y-101276000D01*
X71695078Y-101276000D01*
X71351963Y-101207750D01*
X71351961Y-101207749D01*
X71351960Y-101207749D01*
X71028749Y-101073871D01*
X70737866Y-100879509D01*
X70737863Y-100879507D01*
X70490493Y-100632137D01*
X70296130Y-100341252D01*
X70296129Y-100341251D01*
X70162251Y-100018040D01*
X70094000Y-99674921D01*
X70094000Y-99325079D01*
X70162251Y-98981960D01*
X70296129Y-98658749D01*
X70490491Y-98367866D01*
X70490493Y-98367863D01*
X70737863Y-98120493D01*
X70741787Y-98117871D01*
X71028749Y-97926129D01*
X71351960Y-97792251D01*
X71351961Y-97792251D01*
X71351963Y-97792250D01*
X71695078Y-97724000D01*
X72044922Y-97724000D01*
X72388037Y-97792250D01*
X72388037Y-97792250D01*
G37*
G36*
X211483567Y-96094959D02*
X211614072Y-96120918D01*
X211859939Y-96222759D01*
X212080464Y-96370110D01*
X212081215Y-96370612D01*
X212269388Y-96558785D01*
X212269390Y-96558788D01*
X212417241Y-96780061D01*
X212519082Y-97025928D01*
X212571000Y-97286938D01*
X212571000Y-97553062D01*
X212519082Y-97814072D01*
X212417241Y-98059939D01*
X212269890Y-98280464D01*
X212269388Y-98281215D01*
X212081215Y-98469388D01*
X212081212Y-98469390D01*
X211859939Y-98617241D01*
X211614072Y-98719082D01*
X211483567Y-98745041D01*
X211353063Y-98771000D01*
X211086937Y-98771000D01*
X210956433Y-98745041D01*
X210825928Y-98719082D01*
X210580061Y-98617241D01*
X210358788Y-98469390D01*
X210358785Y-98469388D01*
X210170612Y-98281215D01*
X210170110Y-98280464D01*
X210022759Y-98059939D01*
X209920918Y-97814072D01*
X209869000Y-97553062D01*
X209869000Y-97286938D01*
X209920918Y-97025928D01*
X210022759Y-96780061D01*
X210170610Y-96558788D01*
X210170612Y-96558785D01*
X210358785Y-96370612D01*
X210359536Y-96370110D01*
X210580061Y-96222759D01*
X210825928Y-96120918D01*
X210956433Y-96094959D01*
X211086937Y-96069000D01*
X211353063Y-96069000D01*
X211483567Y-96094959D01*
X211483567Y-96094959D01*
G37*
G36*
X211583567Y-84944959D02*
X211714072Y-84970918D01*
X211959939Y-85072759D01*
X212161964Y-85207749D01*
X212181215Y-85220612D01*
X212369388Y-85408785D01*
X212369390Y-85408788D01*
X212517241Y-85630061D01*
X212619082Y-85875928D01*
X212671000Y-86136938D01*
X212671000Y-86403062D01*
X212619082Y-86664072D01*
X212517241Y-86909939D01*
X212369890Y-87130464D01*
X212369388Y-87131215D01*
X212181215Y-87319388D01*
X212181212Y-87319390D01*
X211959939Y-87467241D01*
X211714072Y-87569082D01*
X211583567Y-87595041D01*
X211453063Y-87621000D01*
X211186937Y-87621000D01*
X211056433Y-87595041D01*
X210925928Y-87569082D01*
X210680061Y-87467241D01*
X210458788Y-87319390D01*
X210458785Y-87319388D01*
X210270612Y-87131215D01*
X210270110Y-87130464D01*
X210122759Y-86909939D01*
X210020918Y-86664072D01*
X209969000Y-86403062D01*
X209969000Y-86136938D01*
X210020918Y-85875928D01*
X210122759Y-85630061D01*
X210270610Y-85408788D01*
X210270612Y-85408785D01*
X210458785Y-85220612D01*
X210478036Y-85207749D01*
X210680061Y-85072759D01*
X210925928Y-84970918D01*
X211056433Y-84944959D01*
X211186937Y-84919000D01*
X211453063Y-84919000D01*
X211583567Y-84944959D01*
X211583567Y-84944959D01*
G37*
G36*
X127588037Y-81792250D02*
X127588039Y-81792251D01*
X127588040Y-81792251D01*
X127911251Y-81926129D01*
X127911252Y-81926130D01*
X128202137Y-82120493D01*
X128449507Y-82367863D01*
X128449509Y-82367866D01*
X128643871Y-82658749D01*
X128777749Y-82981960D01*
X128777750Y-82981963D01*
X128846000Y-83325078D01*
X128846000Y-83674922D01*
X128801660Y-83897835D01*
X128777749Y-84018040D01*
X128643871Y-84341251D01*
X128597527Y-84410610D01*
X128449507Y-84632137D01*
X128202137Y-84879507D01*
X128202134Y-84879509D01*
X127911251Y-85073871D01*
X127588040Y-85207749D01*
X127588039Y-85207749D01*
X127588037Y-85207750D01*
X127244922Y-85276000D01*
X126895078Y-85276000D01*
X126551963Y-85207750D01*
X126551961Y-85207749D01*
X126551960Y-85207749D01*
X126228749Y-85073871D01*
X125937866Y-84879509D01*
X125937863Y-84879507D01*
X125690493Y-84632137D01*
X125542473Y-84410610D01*
X125496129Y-84341251D01*
X125362251Y-84018040D01*
X125338341Y-83897835D01*
X125294000Y-83674922D01*
X125294000Y-83325078D01*
X125362250Y-82981963D01*
X125362251Y-82981960D01*
X125496129Y-82658749D01*
X125690491Y-82367866D01*
X125690493Y-82367863D01*
X125937863Y-82120493D01*
X126228748Y-81926130D01*
X126228749Y-81926129D01*
X126551960Y-81792251D01*
X126551961Y-81792251D01*
X126551963Y-81792250D01*
X126895078Y-81724000D01*
X127244922Y-81724000D01*
X127588037Y-81792250D01*
X127588037Y-81792250D01*
G37*
G36*
X171106565Y-82689389D02*
X171297834Y-82768615D01*
X171469976Y-82883637D01*
X171616363Y-83030024D01*
X171731385Y-83202166D01*
X171810611Y-83393435D01*
X171851000Y-83596484D01*
X171851000Y-83803516D01*
X171810611Y-84006565D01*
X171731385Y-84197834D01*
X171616363Y-84369976D01*
X171469976Y-84516363D01*
X171297834Y-84631385D01*
X171106565Y-84710611D01*
X170903516Y-84751000D01*
X170696484Y-84751000D01*
X170493435Y-84710611D01*
X170302166Y-84631385D01*
X170130024Y-84516363D01*
X169983637Y-84369976D01*
X169868615Y-84197834D01*
X169789389Y-84006565D01*
X169749000Y-83803516D01*
X169749000Y-83596484D01*
X169789389Y-83393435D01*
X169868615Y-83202166D01*
X169983637Y-83030024D01*
X170130024Y-82883637D01*
X170302166Y-82768615D01*
X170493435Y-82689389D01*
X170696484Y-82649000D01*
X170903516Y-82649000D01*
X171106565Y-82689389D01*
X171106565Y-82689389D01*
G37*
G36*
X166606565Y-82689389D02*
X166797834Y-82768615D01*
X166969976Y-82883637D01*
X167116363Y-83030024D01*
X167231385Y-83202166D01*
X167310611Y-83393435D01*
X167351000Y-83596484D01*
X167351000Y-83803516D01*
X167310611Y-84006565D01*
X167231385Y-84197834D01*
X167116363Y-84369976D01*
X166969976Y-84516363D01*
X166797834Y-84631385D01*
X166606565Y-84710611D01*
X166403516Y-84751000D01*
X166196484Y-84751000D01*
X165993435Y-84710611D01*
X165802166Y-84631385D01*
X165630024Y-84516363D01*
X165483637Y-84369976D01*
X165368615Y-84197834D01*
X165289389Y-84006565D01*
X165249000Y-83803516D01*
X165249000Y-83596484D01*
X165289389Y-83393435D01*
X165368615Y-83202166D01*
X165483637Y-83030024D01*
X165630024Y-82883637D01*
X165802166Y-82768615D01*
X165993435Y-82689389D01*
X166196484Y-82649000D01*
X166403516Y-82649000D01*
X166606565Y-82689389D01*
X166606565Y-82689389D01*
G37*
G36*
X63903443Y-82301882D02*
X64130203Y-82395809D01*
X64212167Y-82450576D01*
X64334279Y-82532168D01*
X64507832Y-82705721D01*
X64589424Y-82827833D01*
X64644191Y-82909797D01*
X64738118Y-83136557D01*
X64786000Y-83377278D01*
X64786000Y-83622722D01*
X64738118Y-83863443D01*
X64644191Y-84090203D01*
X64589424Y-84172167D01*
X64507832Y-84294279D01*
X64334279Y-84467832D01*
X64212167Y-84549424D01*
X64130203Y-84604191D01*
X63903443Y-84698118D01*
X63662722Y-84746000D01*
X63417278Y-84746000D01*
X63176557Y-84698118D01*
X62949797Y-84604191D01*
X62867833Y-84549424D01*
X62745721Y-84467832D01*
X62572168Y-84294279D01*
X62490576Y-84172167D01*
X62435809Y-84090203D01*
X62341882Y-83863443D01*
X62294000Y-83622722D01*
X62294000Y-83377278D01*
X62341882Y-83136557D01*
X62435809Y-82909797D01*
X62490576Y-82827833D01*
X62572168Y-82705721D01*
X62745721Y-82532168D01*
X62867833Y-82450576D01*
X62949797Y-82395809D01*
X63176557Y-82301882D01*
X63417278Y-82254000D01*
X63662722Y-82254000D01*
X63903443Y-82301882D01*
X63903443Y-82301882D01*
G37*
G36*
X149406565Y-82389389D02*
X149597834Y-82468615D01*
X149769976Y-82583637D01*
X149916363Y-82730024D01*
X150031385Y-82902166D01*
X150110611Y-83093435D01*
X150151000Y-83296484D01*
X150151000Y-83503516D01*
X150110611Y-83706565D01*
X150031385Y-83897834D01*
X149916363Y-84069976D01*
X149769976Y-84216363D01*
X149597834Y-84331385D01*
X149406565Y-84410611D01*
X149203516Y-84451000D01*
X148996484Y-84451000D01*
X148793435Y-84410611D01*
X148602166Y-84331385D01*
X148430024Y-84216363D01*
X148283637Y-84069976D01*
X148168615Y-83897834D01*
X148089389Y-83706565D01*
X148049000Y-83503516D01*
X148049000Y-83296484D01*
X148089389Y-83093435D01*
X148168615Y-82902166D01*
X148283637Y-82730024D01*
X148430024Y-82583637D01*
X148602166Y-82468615D01*
X148793435Y-82389389D01*
X148996484Y-82349000D01*
X149203516Y-82349000D01*
X149406565Y-82389389D01*
X149406565Y-82389389D01*
G37*
G36*
X155906565Y-82389389D02*
X156097834Y-82468615D01*
X156269976Y-82583637D01*
X156416363Y-82730024D01*
X156531385Y-82902166D01*
X156610611Y-83093435D01*
X156651000Y-83296484D01*
X156651000Y-83503516D01*
X156610611Y-83706565D01*
X156531385Y-83897834D01*
X156416363Y-84069976D01*
X156269976Y-84216363D01*
X156097834Y-84331385D01*
X155906565Y-84410611D01*
X155703516Y-84451000D01*
X155496484Y-84451000D01*
X155293435Y-84410611D01*
X155102166Y-84331385D01*
X154930024Y-84216363D01*
X154783637Y-84069976D01*
X154668615Y-83897834D01*
X154589389Y-83706565D01*
X154549000Y-83503516D01*
X154549000Y-83296484D01*
X154589389Y-83093435D01*
X154668615Y-82902166D01*
X154783637Y-82730024D01*
X154930024Y-82583637D01*
X155102166Y-82468615D01*
X155293435Y-82389389D01*
X155496484Y-82349000D01*
X155703516Y-82349000D01*
X155906565Y-82389389D01*
X155906565Y-82389389D01*
G37*
G36*
X155906565Y-77889389D02*
X156097834Y-77968615D01*
X156269976Y-78083637D01*
X156416363Y-78230024D01*
X156531385Y-78402166D01*
X156610611Y-78593435D01*
X156651000Y-78796484D01*
X156651000Y-79003516D01*
X156610611Y-79206565D01*
X156531385Y-79397834D01*
X156416363Y-79569976D01*
X156269976Y-79716363D01*
X156097834Y-79831385D01*
X155906565Y-79910611D01*
X155703516Y-79951000D01*
X155496484Y-79951000D01*
X155293435Y-79910611D01*
X155102166Y-79831385D01*
X154930024Y-79716363D01*
X154783637Y-79569976D01*
X154668615Y-79397834D01*
X154589389Y-79206565D01*
X154549000Y-79003516D01*
X154549000Y-78796484D01*
X154589389Y-78593435D01*
X154668615Y-78402166D01*
X154783637Y-78230024D01*
X154930024Y-78083637D01*
X155102166Y-77968615D01*
X155293435Y-77889389D01*
X155496484Y-77849000D01*
X155703516Y-77849000D01*
X155906565Y-77889389D01*
X155906565Y-77889389D01*
G37*
G36*
X149406565Y-77889389D02*
X149597834Y-77968615D01*
X149769976Y-78083637D01*
X149916363Y-78230024D01*
X150031385Y-78402166D01*
X150110611Y-78593435D01*
X150151000Y-78796484D01*
X150151000Y-79003516D01*
X150110611Y-79206565D01*
X150031385Y-79397834D01*
X149916363Y-79569976D01*
X149769976Y-79716363D01*
X149597834Y-79831385D01*
X149406565Y-79910611D01*
X149203516Y-79951000D01*
X148996484Y-79951000D01*
X148793435Y-79910611D01*
X148602166Y-79831385D01*
X148430024Y-79716363D01*
X148283637Y-79569976D01*
X148168615Y-79397834D01*
X148089389Y-79206565D01*
X148049000Y-79003516D01*
X148049000Y-78796484D01*
X148089389Y-78593435D01*
X148168615Y-78402166D01*
X148283637Y-78230024D01*
X148430024Y-78083637D01*
X148602166Y-77968615D01*
X148793435Y-77889389D01*
X148996484Y-77849000D01*
X149203516Y-77849000D01*
X149406565Y-77889389D01*
X149406565Y-77889389D01*
G37*
G36*
X166606565Y-76189389D02*
X166797834Y-76268615D01*
X166969976Y-76383637D01*
X167116363Y-76530024D01*
X167231385Y-76702166D01*
X167310611Y-76893435D01*
X167351000Y-77096484D01*
X167351000Y-77303516D01*
X167310611Y-77506565D01*
X167231385Y-77697834D01*
X167116363Y-77869976D01*
X166969976Y-78016363D01*
X166797834Y-78131385D01*
X166606565Y-78210611D01*
X166403516Y-78251000D01*
X166196484Y-78251000D01*
X165993435Y-78210611D01*
X165802166Y-78131385D01*
X165630024Y-78016363D01*
X165483637Y-77869976D01*
X165368615Y-77697834D01*
X165289389Y-77506565D01*
X165249000Y-77303516D01*
X165249000Y-77096484D01*
X165289389Y-76893435D01*
X165368615Y-76702166D01*
X165483637Y-76530024D01*
X165630024Y-76383637D01*
X165802166Y-76268615D01*
X165993435Y-76189389D01*
X166196484Y-76149000D01*
X166403516Y-76149000D01*
X166606565Y-76189389D01*
X166606565Y-76189389D01*
G37*
G36*
X171106565Y-76189389D02*
X171297834Y-76268615D01*
X171469976Y-76383637D01*
X171616363Y-76530024D01*
X171731385Y-76702166D01*
X171810611Y-76893435D01*
X171851000Y-77096484D01*
X171851000Y-77303516D01*
X171810611Y-77506565D01*
X171731385Y-77697834D01*
X171616363Y-77869976D01*
X171469976Y-78016363D01*
X171297834Y-78131385D01*
X171106565Y-78210611D01*
X170903516Y-78251000D01*
X170696484Y-78251000D01*
X170493435Y-78210611D01*
X170302166Y-78131385D01*
X170130024Y-78016363D01*
X169983637Y-77869976D01*
X169868615Y-77697834D01*
X169789389Y-77506565D01*
X169749000Y-77303516D01*
X169749000Y-77096484D01*
X169789389Y-76893435D01*
X169868615Y-76702166D01*
X169983637Y-76530024D01*
X170130024Y-76383637D01*
X170302166Y-76268615D01*
X170493435Y-76189389D01*
X170696484Y-76149000D01*
X170903516Y-76149000D01*
X171106565Y-76189389D01*
X171106565Y-76189389D01*
G37*
M02*
