G04 #@! TF.GenerationSoftware,KiCad,Pcbnew,5.0.2-bee76a0~70~ubuntu18.10.1*
G04 #@! TF.CreationDate,2019-05-29T11:20:30+10:00*
G04 #@! TF.ProjectId,ecig,65636967-2e6b-4696-9361-645f70636258,rev?*
G04 #@! TF.SameCoordinates,Original*
G04 #@! TF.FileFunction,Paste,Top*
G04 #@! TF.FilePolarity,Positive*
%FSLAX46Y46*%
G04 Gerber Fmt 4.6, Leading zero omitted, Abs format (unit mm)*
G04 Created by KiCad (PCBNEW 5.0.2-bee76a0~70~ubuntu18.10.1) date Wed 29 May 2019 11:20:30 AEST*
%MOMM*%
%LPD*%
G01*
G04 APERTURE LIST*
%ADD10R,7.340000X6.350000*%
%ADD11C,0.100000*%
%ADD12C,0.975000*%
%ADD13R,5.100000X2.350000*%
%ADD14R,1.100000X4.600000*%
%ADD15R,5.250000X4.550000*%
%ADD16R,0.800000X0.350000*%
%ADD17R,0.350000X0.800000*%
%ADD18R,1.050000X1.050000*%
%ADD19R,1.500000X0.600000*%
%ADD20R,1.400000X0.300000*%
G04 APERTURE END LIST*
D10*
G04 #@! TO.C,BT1*
X60140000Y-91500000D03*
X138800000Y-91500000D03*
G04 #@! TD*
D11*
G04 #@! TO.C,C1*
G36*
X153620142Y-102158674D02*
X153643803Y-102162184D01*
X153667007Y-102167996D01*
X153689529Y-102176054D01*
X153711153Y-102186282D01*
X153731670Y-102198579D01*
X153750883Y-102212829D01*
X153768607Y-102228893D01*
X153784671Y-102246617D01*
X153798921Y-102265830D01*
X153811218Y-102286347D01*
X153821446Y-102307971D01*
X153829504Y-102330493D01*
X153835316Y-102353697D01*
X153838826Y-102377358D01*
X153840000Y-102401250D01*
X153840000Y-102888750D01*
X153838826Y-102912642D01*
X153835316Y-102936303D01*
X153829504Y-102959507D01*
X153821446Y-102982029D01*
X153811218Y-103003653D01*
X153798921Y-103024170D01*
X153784671Y-103043383D01*
X153768607Y-103061107D01*
X153750883Y-103077171D01*
X153731670Y-103091421D01*
X153711153Y-103103718D01*
X153689529Y-103113946D01*
X153667007Y-103122004D01*
X153643803Y-103127816D01*
X153620142Y-103131326D01*
X153596250Y-103132500D01*
X152683750Y-103132500D01*
X152659858Y-103131326D01*
X152636197Y-103127816D01*
X152612993Y-103122004D01*
X152590471Y-103113946D01*
X152568847Y-103103718D01*
X152548330Y-103091421D01*
X152529117Y-103077171D01*
X152511393Y-103061107D01*
X152495329Y-103043383D01*
X152481079Y-103024170D01*
X152468782Y-103003653D01*
X152458554Y-102982029D01*
X152450496Y-102959507D01*
X152444684Y-102936303D01*
X152441174Y-102912642D01*
X152440000Y-102888750D01*
X152440000Y-102401250D01*
X152441174Y-102377358D01*
X152444684Y-102353697D01*
X152450496Y-102330493D01*
X152458554Y-102307971D01*
X152468782Y-102286347D01*
X152481079Y-102265830D01*
X152495329Y-102246617D01*
X152511393Y-102228893D01*
X152529117Y-102212829D01*
X152548330Y-102198579D01*
X152568847Y-102186282D01*
X152590471Y-102176054D01*
X152612993Y-102167996D01*
X152636197Y-102162184D01*
X152659858Y-102158674D01*
X152683750Y-102157500D01*
X153596250Y-102157500D01*
X153620142Y-102158674D01*
X153620142Y-102158674D01*
G37*
D12*
X153140000Y-102645000D03*
D11*
G36*
X153620142Y-100283674D02*
X153643803Y-100287184D01*
X153667007Y-100292996D01*
X153689529Y-100301054D01*
X153711153Y-100311282D01*
X153731670Y-100323579D01*
X153750883Y-100337829D01*
X153768607Y-100353893D01*
X153784671Y-100371617D01*
X153798921Y-100390830D01*
X153811218Y-100411347D01*
X153821446Y-100432971D01*
X153829504Y-100455493D01*
X153835316Y-100478697D01*
X153838826Y-100502358D01*
X153840000Y-100526250D01*
X153840000Y-101013750D01*
X153838826Y-101037642D01*
X153835316Y-101061303D01*
X153829504Y-101084507D01*
X153821446Y-101107029D01*
X153811218Y-101128653D01*
X153798921Y-101149170D01*
X153784671Y-101168383D01*
X153768607Y-101186107D01*
X153750883Y-101202171D01*
X153731670Y-101216421D01*
X153711153Y-101228718D01*
X153689529Y-101238946D01*
X153667007Y-101247004D01*
X153643803Y-101252816D01*
X153620142Y-101256326D01*
X153596250Y-101257500D01*
X152683750Y-101257500D01*
X152659858Y-101256326D01*
X152636197Y-101252816D01*
X152612993Y-101247004D01*
X152590471Y-101238946D01*
X152568847Y-101228718D01*
X152548330Y-101216421D01*
X152529117Y-101202171D01*
X152511393Y-101186107D01*
X152495329Y-101168383D01*
X152481079Y-101149170D01*
X152468782Y-101128653D01*
X152458554Y-101107029D01*
X152450496Y-101084507D01*
X152444684Y-101061303D01*
X152441174Y-101037642D01*
X152440000Y-101013750D01*
X152440000Y-100526250D01*
X152441174Y-100502358D01*
X152444684Y-100478697D01*
X152450496Y-100455493D01*
X152458554Y-100432971D01*
X152468782Y-100411347D01*
X152481079Y-100390830D01*
X152495329Y-100371617D01*
X152511393Y-100353893D01*
X152529117Y-100337829D01*
X152548330Y-100323579D01*
X152568847Y-100311282D01*
X152590471Y-100301054D01*
X152612993Y-100292996D01*
X152636197Y-100287184D01*
X152659858Y-100283674D01*
X152683750Y-100282500D01*
X153596250Y-100282500D01*
X153620142Y-100283674D01*
X153620142Y-100283674D01*
G37*
D12*
X153140000Y-100770000D03*
G04 #@! TD*
D11*
G04 #@! TO.C,C2*
G36*
X157770142Y-102158674D02*
X157793803Y-102162184D01*
X157817007Y-102167996D01*
X157839529Y-102176054D01*
X157861153Y-102186282D01*
X157881670Y-102198579D01*
X157900883Y-102212829D01*
X157918607Y-102228893D01*
X157934671Y-102246617D01*
X157948921Y-102265830D01*
X157961218Y-102286347D01*
X157971446Y-102307971D01*
X157979504Y-102330493D01*
X157985316Y-102353697D01*
X157988826Y-102377358D01*
X157990000Y-102401250D01*
X157990000Y-102888750D01*
X157988826Y-102912642D01*
X157985316Y-102936303D01*
X157979504Y-102959507D01*
X157971446Y-102982029D01*
X157961218Y-103003653D01*
X157948921Y-103024170D01*
X157934671Y-103043383D01*
X157918607Y-103061107D01*
X157900883Y-103077171D01*
X157881670Y-103091421D01*
X157861153Y-103103718D01*
X157839529Y-103113946D01*
X157817007Y-103122004D01*
X157793803Y-103127816D01*
X157770142Y-103131326D01*
X157746250Y-103132500D01*
X156833750Y-103132500D01*
X156809858Y-103131326D01*
X156786197Y-103127816D01*
X156762993Y-103122004D01*
X156740471Y-103113946D01*
X156718847Y-103103718D01*
X156698330Y-103091421D01*
X156679117Y-103077171D01*
X156661393Y-103061107D01*
X156645329Y-103043383D01*
X156631079Y-103024170D01*
X156618782Y-103003653D01*
X156608554Y-102982029D01*
X156600496Y-102959507D01*
X156594684Y-102936303D01*
X156591174Y-102912642D01*
X156590000Y-102888750D01*
X156590000Y-102401250D01*
X156591174Y-102377358D01*
X156594684Y-102353697D01*
X156600496Y-102330493D01*
X156608554Y-102307971D01*
X156618782Y-102286347D01*
X156631079Y-102265830D01*
X156645329Y-102246617D01*
X156661393Y-102228893D01*
X156679117Y-102212829D01*
X156698330Y-102198579D01*
X156718847Y-102186282D01*
X156740471Y-102176054D01*
X156762993Y-102167996D01*
X156786197Y-102162184D01*
X156809858Y-102158674D01*
X156833750Y-102157500D01*
X157746250Y-102157500D01*
X157770142Y-102158674D01*
X157770142Y-102158674D01*
G37*
D12*
X157290000Y-102645000D03*
D11*
G36*
X157770142Y-100283674D02*
X157793803Y-100287184D01*
X157817007Y-100292996D01*
X157839529Y-100301054D01*
X157861153Y-100311282D01*
X157881670Y-100323579D01*
X157900883Y-100337829D01*
X157918607Y-100353893D01*
X157934671Y-100371617D01*
X157948921Y-100390830D01*
X157961218Y-100411347D01*
X157971446Y-100432971D01*
X157979504Y-100455493D01*
X157985316Y-100478697D01*
X157988826Y-100502358D01*
X157990000Y-100526250D01*
X157990000Y-101013750D01*
X157988826Y-101037642D01*
X157985316Y-101061303D01*
X157979504Y-101084507D01*
X157971446Y-101107029D01*
X157961218Y-101128653D01*
X157948921Y-101149170D01*
X157934671Y-101168383D01*
X157918607Y-101186107D01*
X157900883Y-101202171D01*
X157881670Y-101216421D01*
X157861153Y-101228718D01*
X157839529Y-101238946D01*
X157817007Y-101247004D01*
X157793803Y-101252816D01*
X157770142Y-101256326D01*
X157746250Y-101257500D01*
X156833750Y-101257500D01*
X156809858Y-101256326D01*
X156786197Y-101252816D01*
X156762993Y-101247004D01*
X156740471Y-101238946D01*
X156718847Y-101228718D01*
X156698330Y-101216421D01*
X156679117Y-101202171D01*
X156661393Y-101186107D01*
X156645329Y-101168383D01*
X156631079Y-101149170D01*
X156618782Y-101128653D01*
X156608554Y-101107029D01*
X156600496Y-101084507D01*
X156594684Y-101061303D01*
X156591174Y-101037642D01*
X156590000Y-101013750D01*
X156590000Y-100526250D01*
X156591174Y-100502358D01*
X156594684Y-100478697D01*
X156600496Y-100455493D01*
X156608554Y-100432971D01*
X156618782Y-100411347D01*
X156631079Y-100390830D01*
X156645329Y-100371617D01*
X156661393Y-100353893D01*
X156679117Y-100337829D01*
X156698330Y-100323579D01*
X156718847Y-100311282D01*
X156740471Y-100301054D01*
X156762993Y-100292996D01*
X156786197Y-100287184D01*
X156809858Y-100283674D01*
X156833750Y-100282500D01*
X157746250Y-100282500D01*
X157770142Y-100283674D01*
X157770142Y-100283674D01*
G37*
D12*
X157290000Y-100770000D03*
G04 #@! TD*
D11*
G04 #@! TO.C,C3*
G36*
X153960142Y-86678674D02*
X153983803Y-86682184D01*
X154007007Y-86687996D01*
X154029529Y-86696054D01*
X154051153Y-86706282D01*
X154071670Y-86718579D01*
X154090883Y-86732829D01*
X154108607Y-86748893D01*
X154124671Y-86766617D01*
X154138921Y-86785830D01*
X154151218Y-86806347D01*
X154161446Y-86827971D01*
X154169504Y-86850493D01*
X154175316Y-86873697D01*
X154178826Y-86897358D01*
X154180000Y-86921250D01*
X154180000Y-87408750D01*
X154178826Y-87432642D01*
X154175316Y-87456303D01*
X154169504Y-87479507D01*
X154161446Y-87502029D01*
X154151218Y-87523653D01*
X154138921Y-87544170D01*
X154124671Y-87563383D01*
X154108607Y-87581107D01*
X154090883Y-87597171D01*
X154071670Y-87611421D01*
X154051153Y-87623718D01*
X154029529Y-87633946D01*
X154007007Y-87642004D01*
X153983803Y-87647816D01*
X153960142Y-87651326D01*
X153936250Y-87652500D01*
X153023750Y-87652500D01*
X152999858Y-87651326D01*
X152976197Y-87647816D01*
X152952993Y-87642004D01*
X152930471Y-87633946D01*
X152908847Y-87623718D01*
X152888330Y-87611421D01*
X152869117Y-87597171D01*
X152851393Y-87581107D01*
X152835329Y-87563383D01*
X152821079Y-87544170D01*
X152808782Y-87523653D01*
X152798554Y-87502029D01*
X152790496Y-87479507D01*
X152784684Y-87456303D01*
X152781174Y-87432642D01*
X152780000Y-87408750D01*
X152780000Y-86921250D01*
X152781174Y-86897358D01*
X152784684Y-86873697D01*
X152790496Y-86850493D01*
X152798554Y-86827971D01*
X152808782Y-86806347D01*
X152821079Y-86785830D01*
X152835329Y-86766617D01*
X152851393Y-86748893D01*
X152869117Y-86732829D01*
X152888330Y-86718579D01*
X152908847Y-86706282D01*
X152930471Y-86696054D01*
X152952993Y-86687996D01*
X152976197Y-86682184D01*
X152999858Y-86678674D01*
X153023750Y-86677500D01*
X153936250Y-86677500D01*
X153960142Y-86678674D01*
X153960142Y-86678674D01*
G37*
D12*
X153480000Y-87165000D03*
D11*
G36*
X153960142Y-88553674D02*
X153983803Y-88557184D01*
X154007007Y-88562996D01*
X154029529Y-88571054D01*
X154051153Y-88581282D01*
X154071670Y-88593579D01*
X154090883Y-88607829D01*
X154108607Y-88623893D01*
X154124671Y-88641617D01*
X154138921Y-88660830D01*
X154151218Y-88681347D01*
X154161446Y-88702971D01*
X154169504Y-88725493D01*
X154175316Y-88748697D01*
X154178826Y-88772358D01*
X154180000Y-88796250D01*
X154180000Y-89283750D01*
X154178826Y-89307642D01*
X154175316Y-89331303D01*
X154169504Y-89354507D01*
X154161446Y-89377029D01*
X154151218Y-89398653D01*
X154138921Y-89419170D01*
X154124671Y-89438383D01*
X154108607Y-89456107D01*
X154090883Y-89472171D01*
X154071670Y-89486421D01*
X154051153Y-89498718D01*
X154029529Y-89508946D01*
X154007007Y-89517004D01*
X153983803Y-89522816D01*
X153960142Y-89526326D01*
X153936250Y-89527500D01*
X153023750Y-89527500D01*
X152999858Y-89526326D01*
X152976197Y-89522816D01*
X152952993Y-89517004D01*
X152930471Y-89508946D01*
X152908847Y-89498718D01*
X152888330Y-89486421D01*
X152869117Y-89472171D01*
X152851393Y-89456107D01*
X152835329Y-89438383D01*
X152821079Y-89419170D01*
X152808782Y-89398653D01*
X152798554Y-89377029D01*
X152790496Y-89354507D01*
X152784684Y-89331303D01*
X152781174Y-89307642D01*
X152780000Y-89283750D01*
X152780000Y-88796250D01*
X152781174Y-88772358D01*
X152784684Y-88748697D01*
X152790496Y-88725493D01*
X152798554Y-88702971D01*
X152808782Y-88681347D01*
X152821079Y-88660830D01*
X152835329Y-88641617D01*
X152851393Y-88623893D01*
X152869117Y-88607829D01*
X152888330Y-88593579D01*
X152908847Y-88581282D01*
X152930471Y-88571054D01*
X152952993Y-88562996D01*
X152976197Y-88557184D01*
X152999858Y-88553674D01*
X153023750Y-88552500D01*
X153936250Y-88552500D01*
X153960142Y-88553674D01*
X153960142Y-88553674D01*
G37*
D12*
X153480000Y-89040000D03*
G04 #@! TD*
D11*
G04 #@! TO.C,C4*
G36*
X159270142Y-88553674D02*
X159293803Y-88557184D01*
X159317007Y-88562996D01*
X159339529Y-88571054D01*
X159361153Y-88581282D01*
X159381670Y-88593579D01*
X159400883Y-88607829D01*
X159418607Y-88623893D01*
X159434671Y-88641617D01*
X159448921Y-88660830D01*
X159461218Y-88681347D01*
X159471446Y-88702971D01*
X159479504Y-88725493D01*
X159485316Y-88748697D01*
X159488826Y-88772358D01*
X159490000Y-88796250D01*
X159490000Y-89283750D01*
X159488826Y-89307642D01*
X159485316Y-89331303D01*
X159479504Y-89354507D01*
X159471446Y-89377029D01*
X159461218Y-89398653D01*
X159448921Y-89419170D01*
X159434671Y-89438383D01*
X159418607Y-89456107D01*
X159400883Y-89472171D01*
X159381670Y-89486421D01*
X159361153Y-89498718D01*
X159339529Y-89508946D01*
X159317007Y-89517004D01*
X159293803Y-89522816D01*
X159270142Y-89526326D01*
X159246250Y-89527500D01*
X158333750Y-89527500D01*
X158309858Y-89526326D01*
X158286197Y-89522816D01*
X158262993Y-89517004D01*
X158240471Y-89508946D01*
X158218847Y-89498718D01*
X158198330Y-89486421D01*
X158179117Y-89472171D01*
X158161393Y-89456107D01*
X158145329Y-89438383D01*
X158131079Y-89419170D01*
X158118782Y-89398653D01*
X158108554Y-89377029D01*
X158100496Y-89354507D01*
X158094684Y-89331303D01*
X158091174Y-89307642D01*
X158090000Y-89283750D01*
X158090000Y-88796250D01*
X158091174Y-88772358D01*
X158094684Y-88748697D01*
X158100496Y-88725493D01*
X158108554Y-88702971D01*
X158118782Y-88681347D01*
X158131079Y-88660830D01*
X158145329Y-88641617D01*
X158161393Y-88623893D01*
X158179117Y-88607829D01*
X158198330Y-88593579D01*
X158218847Y-88581282D01*
X158240471Y-88571054D01*
X158262993Y-88562996D01*
X158286197Y-88557184D01*
X158309858Y-88553674D01*
X158333750Y-88552500D01*
X159246250Y-88552500D01*
X159270142Y-88553674D01*
X159270142Y-88553674D01*
G37*
D12*
X158790000Y-89040000D03*
D11*
G36*
X159270142Y-86678674D02*
X159293803Y-86682184D01*
X159317007Y-86687996D01*
X159339529Y-86696054D01*
X159361153Y-86706282D01*
X159381670Y-86718579D01*
X159400883Y-86732829D01*
X159418607Y-86748893D01*
X159434671Y-86766617D01*
X159448921Y-86785830D01*
X159461218Y-86806347D01*
X159471446Y-86827971D01*
X159479504Y-86850493D01*
X159485316Y-86873697D01*
X159488826Y-86897358D01*
X159490000Y-86921250D01*
X159490000Y-87408750D01*
X159488826Y-87432642D01*
X159485316Y-87456303D01*
X159479504Y-87479507D01*
X159471446Y-87502029D01*
X159461218Y-87523653D01*
X159448921Y-87544170D01*
X159434671Y-87563383D01*
X159418607Y-87581107D01*
X159400883Y-87597171D01*
X159381670Y-87611421D01*
X159361153Y-87623718D01*
X159339529Y-87633946D01*
X159317007Y-87642004D01*
X159293803Y-87647816D01*
X159270142Y-87651326D01*
X159246250Y-87652500D01*
X158333750Y-87652500D01*
X158309858Y-87651326D01*
X158286197Y-87647816D01*
X158262993Y-87642004D01*
X158240471Y-87633946D01*
X158218847Y-87623718D01*
X158198330Y-87611421D01*
X158179117Y-87597171D01*
X158161393Y-87581107D01*
X158145329Y-87563383D01*
X158131079Y-87544170D01*
X158118782Y-87523653D01*
X158108554Y-87502029D01*
X158100496Y-87479507D01*
X158094684Y-87456303D01*
X158091174Y-87432642D01*
X158090000Y-87408750D01*
X158090000Y-86921250D01*
X158091174Y-86897358D01*
X158094684Y-86873697D01*
X158100496Y-86850493D01*
X158108554Y-86827971D01*
X158118782Y-86806347D01*
X158131079Y-86785830D01*
X158145329Y-86766617D01*
X158161393Y-86748893D01*
X158179117Y-86732829D01*
X158198330Y-86718579D01*
X158218847Y-86706282D01*
X158240471Y-86696054D01*
X158262993Y-86687996D01*
X158286197Y-86682184D01*
X158309858Y-86678674D01*
X158333750Y-86677500D01*
X159246250Y-86677500D01*
X159270142Y-86678674D01*
X159270142Y-86678674D01*
G37*
D12*
X158790000Y-87165000D03*
G04 #@! TD*
D11*
G04 #@! TO.C,C5*
G36*
X169490142Y-108131174D02*
X169513803Y-108134684D01*
X169537007Y-108140496D01*
X169559529Y-108148554D01*
X169581153Y-108158782D01*
X169601670Y-108171079D01*
X169620883Y-108185329D01*
X169638607Y-108201393D01*
X169654671Y-108219117D01*
X169668921Y-108238330D01*
X169681218Y-108258847D01*
X169691446Y-108280471D01*
X169699504Y-108302993D01*
X169705316Y-108326197D01*
X169708826Y-108349858D01*
X169710000Y-108373750D01*
X169710000Y-109286250D01*
X169708826Y-109310142D01*
X169705316Y-109333803D01*
X169699504Y-109357007D01*
X169691446Y-109379529D01*
X169681218Y-109401153D01*
X169668921Y-109421670D01*
X169654671Y-109440883D01*
X169638607Y-109458607D01*
X169620883Y-109474671D01*
X169601670Y-109488921D01*
X169581153Y-109501218D01*
X169559529Y-109511446D01*
X169537007Y-109519504D01*
X169513803Y-109525316D01*
X169490142Y-109528826D01*
X169466250Y-109530000D01*
X168978750Y-109530000D01*
X168954858Y-109528826D01*
X168931197Y-109525316D01*
X168907993Y-109519504D01*
X168885471Y-109511446D01*
X168863847Y-109501218D01*
X168843330Y-109488921D01*
X168824117Y-109474671D01*
X168806393Y-109458607D01*
X168790329Y-109440883D01*
X168776079Y-109421670D01*
X168763782Y-109401153D01*
X168753554Y-109379529D01*
X168745496Y-109357007D01*
X168739684Y-109333803D01*
X168736174Y-109310142D01*
X168735000Y-109286250D01*
X168735000Y-108373750D01*
X168736174Y-108349858D01*
X168739684Y-108326197D01*
X168745496Y-108302993D01*
X168753554Y-108280471D01*
X168763782Y-108258847D01*
X168776079Y-108238330D01*
X168790329Y-108219117D01*
X168806393Y-108201393D01*
X168824117Y-108185329D01*
X168843330Y-108171079D01*
X168863847Y-108158782D01*
X168885471Y-108148554D01*
X168907993Y-108140496D01*
X168931197Y-108134684D01*
X168954858Y-108131174D01*
X168978750Y-108130000D01*
X169466250Y-108130000D01*
X169490142Y-108131174D01*
X169490142Y-108131174D01*
G37*
D12*
X169222500Y-108830000D03*
D11*
G36*
X171365142Y-108131174D02*
X171388803Y-108134684D01*
X171412007Y-108140496D01*
X171434529Y-108148554D01*
X171456153Y-108158782D01*
X171476670Y-108171079D01*
X171495883Y-108185329D01*
X171513607Y-108201393D01*
X171529671Y-108219117D01*
X171543921Y-108238330D01*
X171556218Y-108258847D01*
X171566446Y-108280471D01*
X171574504Y-108302993D01*
X171580316Y-108326197D01*
X171583826Y-108349858D01*
X171585000Y-108373750D01*
X171585000Y-109286250D01*
X171583826Y-109310142D01*
X171580316Y-109333803D01*
X171574504Y-109357007D01*
X171566446Y-109379529D01*
X171556218Y-109401153D01*
X171543921Y-109421670D01*
X171529671Y-109440883D01*
X171513607Y-109458607D01*
X171495883Y-109474671D01*
X171476670Y-109488921D01*
X171456153Y-109501218D01*
X171434529Y-109511446D01*
X171412007Y-109519504D01*
X171388803Y-109525316D01*
X171365142Y-109528826D01*
X171341250Y-109530000D01*
X170853750Y-109530000D01*
X170829858Y-109528826D01*
X170806197Y-109525316D01*
X170782993Y-109519504D01*
X170760471Y-109511446D01*
X170738847Y-109501218D01*
X170718330Y-109488921D01*
X170699117Y-109474671D01*
X170681393Y-109458607D01*
X170665329Y-109440883D01*
X170651079Y-109421670D01*
X170638782Y-109401153D01*
X170628554Y-109379529D01*
X170620496Y-109357007D01*
X170614684Y-109333803D01*
X170611174Y-109310142D01*
X170610000Y-109286250D01*
X170610000Y-108373750D01*
X170611174Y-108349858D01*
X170614684Y-108326197D01*
X170620496Y-108302993D01*
X170628554Y-108280471D01*
X170638782Y-108258847D01*
X170651079Y-108238330D01*
X170665329Y-108219117D01*
X170681393Y-108201393D01*
X170699117Y-108185329D01*
X170718330Y-108171079D01*
X170738847Y-108158782D01*
X170760471Y-108148554D01*
X170782993Y-108140496D01*
X170806197Y-108134684D01*
X170829858Y-108131174D01*
X170853750Y-108130000D01*
X171341250Y-108130000D01*
X171365142Y-108131174D01*
X171365142Y-108131174D01*
G37*
D12*
X171097500Y-108830000D03*
G04 #@! TD*
D11*
G04 #@! TO.C,D1*
G36*
X180442642Y-88721174D02*
X180466303Y-88724684D01*
X180489507Y-88730496D01*
X180512029Y-88738554D01*
X180533653Y-88748782D01*
X180554170Y-88761079D01*
X180573383Y-88775329D01*
X180591107Y-88791393D01*
X180607171Y-88809117D01*
X180621421Y-88828330D01*
X180633718Y-88848847D01*
X180643946Y-88870471D01*
X180652004Y-88892993D01*
X180657816Y-88916197D01*
X180661326Y-88939858D01*
X180662500Y-88963750D01*
X180662500Y-89876250D01*
X180661326Y-89900142D01*
X180657816Y-89923803D01*
X180652004Y-89947007D01*
X180643946Y-89969529D01*
X180633718Y-89991153D01*
X180621421Y-90011670D01*
X180607171Y-90030883D01*
X180591107Y-90048607D01*
X180573383Y-90064671D01*
X180554170Y-90078921D01*
X180533653Y-90091218D01*
X180512029Y-90101446D01*
X180489507Y-90109504D01*
X180466303Y-90115316D01*
X180442642Y-90118826D01*
X180418750Y-90120000D01*
X179931250Y-90120000D01*
X179907358Y-90118826D01*
X179883697Y-90115316D01*
X179860493Y-90109504D01*
X179837971Y-90101446D01*
X179816347Y-90091218D01*
X179795830Y-90078921D01*
X179776617Y-90064671D01*
X179758893Y-90048607D01*
X179742829Y-90030883D01*
X179728579Y-90011670D01*
X179716282Y-89991153D01*
X179706054Y-89969529D01*
X179697996Y-89947007D01*
X179692184Y-89923803D01*
X179688674Y-89900142D01*
X179687500Y-89876250D01*
X179687500Y-88963750D01*
X179688674Y-88939858D01*
X179692184Y-88916197D01*
X179697996Y-88892993D01*
X179706054Y-88870471D01*
X179716282Y-88848847D01*
X179728579Y-88828330D01*
X179742829Y-88809117D01*
X179758893Y-88791393D01*
X179776617Y-88775329D01*
X179795830Y-88761079D01*
X179816347Y-88748782D01*
X179837971Y-88738554D01*
X179860493Y-88730496D01*
X179883697Y-88724684D01*
X179907358Y-88721174D01*
X179931250Y-88720000D01*
X180418750Y-88720000D01*
X180442642Y-88721174D01*
X180442642Y-88721174D01*
G37*
D12*
X180175000Y-89420000D03*
D11*
G36*
X178567642Y-88721174D02*
X178591303Y-88724684D01*
X178614507Y-88730496D01*
X178637029Y-88738554D01*
X178658653Y-88748782D01*
X178679170Y-88761079D01*
X178698383Y-88775329D01*
X178716107Y-88791393D01*
X178732171Y-88809117D01*
X178746421Y-88828330D01*
X178758718Y-88848847D01*
X178768946Y-88870471D01*
X178777004Y-88892993D01*
X178782816Y-88916197D01*
X178786326Y-88939858D01*
X178787500Y-88963750D01*
X178787500Y-89876250D01*
X178786326Y-89900142D01*
X178782816Y-89923803D01*
X178777004Y-89947007D01*
X178768946Y-89969529D01*
X178758718Y-89991153D01*
X178746421Y-90011670D01*
X178732171Y-90030883D01*
X178716107Y-90048607D01*
X178698383Y-90064671D01*
X178679170Y-90078921D01*
X178658653Y-90091218D01*
X178637029Y-90101446D01*
X178614507Y-90109504D01*
X178591303Y-90115316D01*
X178567642Y-90118826D01*
X178543750Y-90120000D01*
X178056250Y-90120000D01*
X178032358Y-90118826D01*
X178008697Y-90115316D01*
X177985493Y-90109504D01*
X177962971Y-90101446D01*
X177941347Y-90091218D01*
X177920830Y-90078921D01*
X177901617Y-90064671D01*
X177883893Y-90048607D01*
X177867829Y-90030883D01*
X177853579Y-90011670D01*
X177841282Y-89991153D01*
X177831054Y-89969529D01*
X177822996Y-89947007D01*
X177817184Y-89923803D01*
X177813674Y-89900142D01*
X177812500Y-89876250D01*
X177812500Y-88963750D01*
X177813674Y-88939858D01*
X177817184Y-88916197D01*
X177822996Y-88892993D01*
X177831054Y-88870471D01*
X177841282Y-88848847D01*
X177853579Y-88828330D01*
X177867829Y-88809117D01*
X177883893Y-88791393D01*
X177901617Y-88775329D01*
X177920830Y-88761079D01*
X177941347Y-88748782D01*
X177962971Y-88738554D01*
X177985493Y-88730496D01*
X178008697Y-88724684D01*
X178032358Y-88721174D01*
X178056250Y-88720000D01*
X178543750Y-88720000D01*
X178567642Y-88721174D01*
X178567642Y-88721174D01*
G37*
D12*
X178300000Y-89420000D03*
G04 #@! TD*
D11*
G04 #@! TO.C,D2*
G36*
X164675142Y-88553674D02*
X164698803Y-88557184D01*
X164722007Y-88562996D01*
X164744529Y-88571054D01*
X164766153Y-88581282D01*
X164786670Y-88593579D01*
X164805883Y-88607829D01*
X164823607Y-88623893D01*
X164839671Y-88641617D01*
X164853921Y-88660830D01*
X164866218Y-88681347D01*
X164876446Y-88702971D01*
X164884504Y-88725493D01*
X164890316Y-88748697D01*
X164893826Y-88772358D01*
X164895000Y-88796250D01*
X164895000Y-89283750D01*
X164893826Y-89307642D01*
X164890316Y-89331303D01*
X164884504Y-89354507D01*
X164876446Y-89377029D01*
X164866218Y-89398653D01*
X164853921Y-89419170D01*
X164839671Y-89438383D01*
X164823607Y-89456107D01*
X164805883Y-89472171D01*
X164786670Y-89486421D01*
X164766153Y-89498718D01*
X164744529Y-89508946D01*
X164722007Y-89517004D01*
X164698803Y-89522816D01*
X164675142Y-89526326D01*
X164651250Y-89527500D01*
X163738750Y-89527500D01*
X163714858Y-89526326D01*
X163691197Y-89522816D01*
X163667993Y-89517004D01*
X163645471Y-89508946D01*
X163623847Y-89498718D01*
X163603330Y-89486421D01*
X163584117Y-89472171D01*
X163566393Y-89456107D01*
X163550329Y-89438383D01*
X163536079Y-89419170D01*
X163523782Y-89398653D01*
X163513554Y-89377029D01*
X163505496Y-89354507D01*
X163499684Y-89331303D01*
X163496174Y-89307642D01*
X163495000Y-89283750D01*
X163495000Y-88796250D01*
X163496174Y-88772358D01*
X163499684Y-88748697D01*
X163505496Y-88725493D01*
X163513554Y-88702971D01*
X163523782Y-88681347D01*
X163536079Y-88660830D01*
X163550329Y-88641617D01*
X163566393Y-88623893D01*
X163584117Y-88607829D01*
X163603330Y-88593579D01*
X163623847Y-88581282D01*
X163645471Y-88571054D01*
X163667993Y-88562996D01*
X163691197Y-88557184D01*
X163714858Y-88553674D01*
X163738750Y-88552500D01*
X164651250Y-88552500D01*
X164675142Y-88553674D01*
X164675142Y-88553674D01*
G37*
D12*
X164195000Y-89040000D03*
D11*
G36*
X164675142Y-86678674D02*
X164698803Y-86682184D01*
X164722007Y-86687996D01*
X164744529Y-86696054D01*
X164766153Y-86706282D01*
X164786670Y-86718579D01*
X164805883Y-86732829D01*
X164823607Y-86748893D01*
X164839671Y-86766617D01*
X164853921Y-86785830D01*
X164866218Y-86806347D01*
X164876446Y-86827971D01*
X164884504Y-86850493D01*
X164890316Y-86873697D01*
X164893826Y-86897358D01*
X164895000Y-86921250D01*
X164895000Y-87408750D01*
X164893826Y-87432642D01*
X164890316Y-87456303D01*
X164884504Y-87479507D01*
X164876446Y-87502029D01*
X164866218Y-87523653D01*
X164853921Y-87544170D01*
X164839671Y-87563383D01*
X164823607Y-87581107D01*
X164805883Y-87597171D01*
X164786670Y-87611421D01*
X164766153Y-87623718D01*
X164744529Y-87633946D01*
X164722007Y-87642004D01*
X164698803Y-87647816D01*
X164675142Y-87651326D01*
X164651250Y-87652500D01*
X163738750Y-87652500D01*
X163714858Y-87651326D01*
X163691197Y-87647816D01*
X163667993Y-87642004D01*
X163645471Y-87633946D01*
X163623847Y-87623718D01*
X163603330Y-87611421D01*
X163584117Y-87597171D01*
X163566393Y-87581107D01*
X163550329Y-87563383D01*
X163536079Y-87544170D01*
X163523782Y-87523653D01*
X163513554Y-87502029D01*
X163505496Y-87479507D01*
X163499684Y-87456303D01*
X163496174Y-87432642D01*
X163495000Y-87408750D01*
X163495000Y-86921250D01*
X163496174Y-86897358D01*
X163499684Y-86873697D01*
X163505496Y-86850493D01*
X163513554Y-86827971D01*
X163523782Y-86806347D01*
X163536079Y-86785830D01*
X163550329Y-86766617D01*
X163566393Y-86748893D01*
X163584117Y-86732829D01*
X163603330Y-86718579D01*
X163623847Y-86706282D01*
X163645471Y-86696054D01*
X163667993Y-86687996D01*
X163691197Y-86682184D01*
X163714858Y-86678674D01*
X163738750Y-86677500D01*
X164651250Y-86677500D01*
X164675142Y-86678674D01*
X164675142Y-86678674D01*
G37*
D12*
X164195000Y-87165000D03*
G04 #@! TD*
D11*
G04 #@! TO.C,D3*
G36*
X180482642Y-93651174D02*
X180506303Y-93654684D01*
X180529507Y-93660496D01*
X180552029Y-93668554D01*
X180573653Y-93678782D01*
X180594170Y-93691079D01*
X180613383Y-93705329D01*
X180631107Y-93721393D01*
X180647171Y-93739117D01*
X180661421Y-93758330D01*
X180673718Y-93778847D01*
X180683946Y-93800471D01*
X180692004Y-93822993D01*
X180697816Y-93846197D01*
X180701326Y-93869858D01*
X180702500Y-93893750D01*
X180702500Y-94806250D01*
X180701326Y-94830142D01*
X180697816Y-94853803D01*
X180692004Y-94877007D01*
X180683946Y-94899529D01*
X180673718Y-94921153D01*
X180661421Y-94941670D01*
X180647171Y-94960883D01*
X180631107Y-94978607D01*
X180613383Y-94994671D01*
X180594170Y-95008921D01*
X180573653Y-95021218D01*
X180552029Y-95031446D01*
X180529507Y-95039504D01*
X180506303Y-95045316D01*
X180482642Y-95048826D01*
X180458750Y-95050000D01*
X179971250Y-95050000D01*
X179947358Y-95048826D01*
X179923697Y-95045316D01*
X179900493Y-95039504D01*
X179877971Y-95031446D01*
X179856347Y-95021218D01*
X179835830Y-95008921D01*
X179816617Y-94994671D01*
X179798893Y-94978607D01*
X179782829Y-94960883D01*
X179768579Y-94941670D01*
X179756282Y-94921153D01*
X179746054Y-94899529D01*
X179737996Y-94877007D01*
X179732184Y-94853803D01*
X179728674Y-94830142D01*
X179727500Y-94806250D01*
X179727500Y-93893750D01*
X179728674Y-93869858D01*
X179732184Y-93846197D01*
X179737996Y-93822993D01*
X179746054Y-93800471D01*
X179756282Y-93778847D01*
X179768579Y-93758330D01*
X179782829Y-93739117D01*
X179798893Y-93721393D01*
X179816617Y-93705329D01*
X179835830Y-93691079D01*
X179856347Y-93678782D01*
X179877971Y-93668554D01*
X179900493Y-93660496D01*
X179923697Y-93654684D01*
X179947358Y-93651174D01*
X179971250Y-93650000D01*
X180458750Y-93650000D01*
X180482642Y-93651174D01*
X180482642Y-93651174D01*
G37*
D12*
X180215000Y-94350000D03*
D11*
G36*
X178607642Y-93651174D02*
X178631303Y-93654684D01*
X178654507Y-93660496D01*
X178677029Y-93668554D01*
X178698653Y-93678782D01*
X178719170Y-93691079D01*
X178738383Y-93705329D01*
X178756107Y-93721393D01*
X178772171Y-93739117D01*
X178786421Y-93758330D01*
X178798718Y-93778847D01*
X178808946Y-93800471D01*
X178817004Y-93822993D01*
X178822816Y-93846197D01*
X178826326Y-93869858D01*
X178827500Y-93893750D01*
X178827500Y-94806250D01*
X178826326Y-94830142D01*
X178822816Y-94853803D01*
X178817004Y-94877007D01*
X178808946Y-94899529D01*
X178798718Y-94921153D01*
X178786421Y-94941670D01*
X178772171Y-94960883D01*
X178756107Y-94978607D01*
X178738383Y-94994671D01*
X178719170Y-95008921D01*
X178698653Y-95021218D01*
X178677029Y-95031446D01*
X178654507Y-95039504D01*
X178631303Y-95045316D01*
X178607642Y-95048826D01*
X178583750Y-95050000D01*
X178096250Y-95050000D01*
X178072358Y-95048826D01*
X178048697Y-95045316D01*
X178025493Y-95039504D01*
X178002971Y-95031446D01*
X177981347Y-95021218D01*
X177960830Y-95008921D01*
X177941617Y-94994671D01*
X177923893Y-94978607D01*
X177907829Y-94960883D01*
X177893579Y-94941670D01*
X177881282Y-94921153D01*
X177871054Y-94899529D01*
X177862996Y-94877007D01*
X177857184Y-94853803D01*
X177853674Y-94830142D01*
X177852500Y-94806250D01*
X177852500Y-93893750D01*
X177853674Y-93869858D01*
X177857184Y-93846197D01*
X177862996Y-93822993D01*
X177871054Y-93800471D01*
X177881282Y-93778847D01*
X177893579Y-93758330D01*
X177907829Y-93739117D01*
X177923893Y-93721393D01*
X177941617Y-93705329D01*
X177960830Y-93691079D01*
X177981347Y-93678782D01*
X178002971Y-93668554D01*
X178025493Y-93660496D01*
X178048697Y-93654684D01*
X178072358Y-93651174D01*
X178096250Y-93650000D01*
X178583750Y-93650000D01*
X178607642Y-93651174D01*
X178607642Y-93651174D01*
G37*
D12*
X178340000Y-94350000D03*
G04 #@! TD*
D13*
G04 #@! TO.C,L1*
X146600000Y-98800000D03*
X146600000Y-102950000D03*
G04 #@! TD*
D14*
G04 #@! TO.C,Q1*
X185140000Y-97665000D03*
X187680000Y-97665000D03*
X190220000Y-97665000D03*
D15*
X190455000Y-86090000D03*
X184905000Y-90940000D03*
X184905000Y-86090000D03*
X190455000Y-90940000D03*
G04 #@! TD*
D11*
G04 #@! TO.C,R1*
G36*
X161480142Y-100283674D02*
X161503803Y-100287184D01*
X161527007Y-100292996D01*
X161549529Y-100301054D01*
X161571153Y-100311282D01*
X161591670Y-100323579D01*
X161610883Y-100337829D01*
X161628607Y-100353893D01*
X161644671Y-100371617D01*
X161658921Y-100390830D01*
X161671218Y-100411347D01*
X161681446Y-100432971D01*
X161689504Y-100455493D01*
X161695316Y-100478697D01*
X161698826Y-100502358D01*
X161700000Y-100526250D01*
X161700000Y-101013750D01*
X161698826Y-101037642D01*
X161695316Y-101061303D01*
X161689504Y-101084507D01*
X161681446Y-101107029D01*
X161671218Y-101128653D01*
X161658921Y-101149170D01*
X161644671Y-101168383D01*
X161628607Y-101186107D01*
X161610883Y-101202171D01*
X161591670Y-101216421D01*
X161571153Y-101228718D01*
X161549529Y-101238946D01*
X161527007Y-101247004D01*
X161503803Y-101252816D01*
X161480142Y-101256326D01*
X161456250Y-101257500D01*
X160543750Y-101257500D01*
X160519858Y-101256326D01*
X160496197Y-101252816D01*
X160472993Y-101247004D01*
X160450471Y-101238946D01*
X160428847Y-101228718D01*
X160408330Y-101216421D01*
X160389117Y-101202171D01*
X160371393Y-101186107D01*
X160355329Y-101168383D01*
X160341079Y-101149170D01*
X160328782Y-101128653D01*
X160318554Y-101107029D01*
X160310496Y-101084507D01*
X160304684Y-101061303D01*
X160301174Y-101037642D01*
X160300000Y-101013750D01*
X160300000Y-100526250D01*
X160301174Y-100502358D01*
X160304684Y-100478697D01*
X160310496Y-100455493D01*
X160318554Y-100432971D01*
X160328782Y-100411347D01*
X160341079Y-100390830D01*
X160355329Y-100371617D01*
X160371393Y-100353893D01*
X160389117Y-100337829D01*
X160408330Y-100323579D01*
X160428847Y-100311282D01*
X160450471Y-100301054D01*
X160472993Y-100292996D01*
X160496197Y-100287184D01*
X160519858Y-100283674D01*
X160543750Y-100282500D01*
X161456250Y-100282500D01*
X161480142Y-100283674D01*
X161480142Y-100283674D01*
G37*
D12*
X161000000Y-100770000D03*
D11*
G36*
X161480142Y-102158674D02*
X161503803Y-102162184D01*
X161527007Y-102167996D01*
X161549529Y-102176054D01*
X161571153Y-102186282D01*
X161591670Y-102198579D01*
X161610883Y-102212829D01*
X161628607Y-102228893D01*
X161644671Y-102246617D01*
X161658921Y-102265830D01*
X161671218Y-102286347D01*
X161681446Y-102307971D01*
X161689504Y-102330493D01*
X161695316Y-102353697D01*
X161698826Y-102377358D01*
X161700000Y-102401250D01*
X161700000Y-102888750D01*
X161698826Y-102912642D01*
X161695316Y-102936303D01*
X161689504Y-102959507D01*
X161681446Y-102982029D01*
X161671218Y-103003653D01*
X161658921Y-103024170D01*
X161644671Y-103043383D01*
X161628607Y-103061107D01*
X161610883Y-103077171D01*
X161591670Y-103091421D01*
X161571153Y-103103718D01*
X161549529Y-103113946D01*
X161527007Y-103122004D01*
X161503803Y-103127816D01*
X161480142Y-103131326D01*
X161456250Y-103132500D01*
X160543750Y-103132500D01*
X160519858Y-103131326D01*
X160496197Y-103127816D01*
X160472993Y-103122004D01*
X160450471Y-103113946D01*
X160428847Y-103103718D01*
X160408330Y-103091421D01*
X160389117Y-103077171D01*
X160371393Y-103061107D01*
X160355329Y-103043383D01*
X160341079Y-103024170D01*
X160328782Y-103003653D01*
X160318554Y-102982029D01*
X160310496Y-102959507D01*
X160304684Y-102936303D01*
X160301174Y-102912642D01*
X160300000Y-102888750D01*
X160300000Y-102401250D01*
X160301174Y-102377358D01*
X160304684Y-102353697D01*
X160310496Y-102330493D01*
X160318554Y-102307971D01*
X160328782Y-102286347D01*
X160341079Y-102265830D01*
X160355329Y-102246617D01*
X160371393Y-102228893D01*
X160389117Y-102212829D01*
X160408330Y-102198579D01*
X160428847Y-102186282D01*
X160450471Y-102176054D01*
X160472993Y-102167996D01*
X160496197Y-102162184D01*
X160519858Y-102158674D01*
X160543750Y-102157500D01*
X161456250Y-102157500D01*
X161480142Y-102158674D01*
X161480142Y-102158674D01*
G37*
D12*
X161000000Y-102645000D03*
G04 #@! TD*
D11*
G04 #@! TO.C,R2*
G36*
X188882642Y-102191174D02*
X188906303Y-102194684D01*
X188929507Y-102200496D01*
X188952029Y-102208554D01*
X188973653Y-102218782D01*
X188994170Y-102231079D01*
X189013383Y-102245329D01*
X189031107Y-102261393D01*
X189047171Y-102279117D01*
X189061421Y-102298330D01*
X189073718Y-102318847D01*
X189083946Y-102340471D01*
X189092004Y-102362993D01*
X189097816Y-102386197D01*
X189101326Y-102409858D01*
X189102500Y-102433750D01*
X189102500Y-103346250D01*
X189101326Y-103370142D01*
X189097816Y-103393803D01*
X189092004Y-103417007D01*
X189083946Y-103439529D01*
X189073718Y-103461153D01*
X189061421Y-103481670D01*
X189047171Y-103500883D01*
X189031107Y-103518607D01*
X189013383Y-103534671D01*
X188994170Y-103548921D01*
X188973653Y-103561218D01*
X188952029Y-103571446D01*
X188929507Y-103579504D01*
X188906303Y-103585316D01*
X188882642Y-103588826D01*
X188858750Y-103590000D01*
X188371250Y-103590000D01*
X188347358Y-103588826D01*
X188323697Y-103585316D01*
X188300493Y-103579504D01*
X188277971Y-103571446D01*
X188256347Y-103561218D01*
X188235830Y-103548921D01*
X188216617Y-103534671D01*
X188198893Y-103518607D01*
X188182829Y-103500883D01*
X188168579Y-103481670D01*
X188156282Y-103461153D01*
X188146054Y-103439529D01*
X188137996Y-103417007D01*
X188132184Y-103393803D01*
X188128674Y-103370142D01*
X188127500Y-103346250D01*
X188127500Y-102433750D01*
X188128674Y-102409858D01*
X188132184Y-102386197D01*
X188137996Y-102362993D01*
X188146054Y-102340471D01*
X188156282Y-102318847D01*
X188168579Y-102298330D01*
X188182829Y-102279117D01*
X188198893Y-102261393D01*
X188216617Y-102245329D01*
X188235830Y-102231079D01*
X188256347Y-102218782D01*
X188277971Y-102208554D01*
X188300493Y-102200496D01*
X188323697Y-102194684D01*
X188347358Y-102191174D01*
X188371250Y-102190000D01*
X188858750Y-102190000D01*
X188882642Y-102191174D01*
X188882642Y-102191174D01*
G37*
D12*
X188615000Y-102890000D03*
D11*
G36*
X187007642Y-102191174D02*
X187031303Y-102194684D01*
X187054507Y-102200496D01*
X187077029Y-102208554D01*
X187098653Y-102218782D01*
X187119170Y-102231079D01*
X187138383Y-102245329D01*
X187156107Y-102261393D01*
X187172171Y-102279117D01*
X187186421Y-102298330D01*
X187198718Y-102318847D01*
X187208946Y-102340471D01*
X187217004Y-102362993D01*
X187222816Y-102386197D01*
X187226326Y-102409858D01*
X187227500Y-102433750D01*
X187227500Y-103346250D01*
X187226326Y-103370142D01*
X187222816Y-103393803D01*
X187217004Y-103417007D01*
X187208946Y-103439529D01*
X187198718Y-103461153D01*
X187186421Y-103481670D01*
X187172171Y-103500883D01*
X187156107Y-103518607D01*
X187138383Y-103534671D01*
X187119170Y-103548921D01*
X187098653Y-103561218D01*
X187077029Y-103571446D01*
X187054507Y-103579504D01*
X187031303Y-103585316D01*
X187007642Y-103588826D01*
X186983750Y-103590000D01*
X186496250Y-103590000D01*
X186472358Y-103588826D01*
X186448697Y-103585316D01*
X186425493Y-103579504D01*
X186402971Y-103571446D01*
X186381347Y-103561218D01*
X186360830Y-103548921D01*
X186341617Y-103534671D01*
X186323893Y-103518607D01*
X186307829Y-103500883D01*
X186293579Y-103481670D01*
X186281282Y-103461153D01*
X186271054Y-103439529D01*
X186262996Y-103417007D01*
X186257184Y-103393803D01*
X186253674Y-103370142D01*
X186252500Y-103346250D01*
X186252500Y-102433750D01*
X186253674Y-102409858D01*
X186257184Y-102386197D01*
X186262996Y-102362993D01*
X186271054Y-102340471D01*
X186281282Y-102318847D01*
X186293579Y-102298330D01*
X186307829Y-102279117D01*
X186323893Y-102261393D01*
X186341617Y-102245329D01*
X186360830Y-102231079D01*
X186381347Y-102218782D01*
X186402971Y-102208554D01*
X186425493Y-102200496D01*
X186448697Y-102194684D01*
X186472358Y-102191174D01*
X186496250Y-102190000D01*
X186983750Y-102190000D01*
X187007642Y-102191174D01*
X187007642Y-102191174D01*
G37*
D12*
X186740000Y-102890000D03*
G04 #@! TD*
D11*
G04 #@! TO.C,R3*
G36*
X178530142Y-86201174D02*
X178553803Y-86204684D01*
X178577007Y-86210496D01*
X178599529Y-86218554D01*
X178621153Y-86228782D01*
X178641670Y-86241079D01*
X178660883Y-86255329D01*
X178678607Y-86271393D01*
X178694671Y-86289117D01*
X178708921Y-86308330D01*
X178721218Y-86328847D01*
X178731446Y-86350471D01*
X178739504Y-86372993D01*
X178745316Y-86396197D01*
X178748826Y-86419858D01*
X178750000Y-86443750D01*
X178750000Y-87356250D01*
X178748826Y-87380142D01*
X178745316Y-87403803D01*
X178739504Y-87427007D01*
X178731446Y-87449529D01*
X178721218Y-87471153D01*
X178708921Y-87491670D01*
X178694671Y-87510883D01*
X178678607Y-87528607D01*
X178660883Y-87544671D01*
X178641670Y-87558921D01*
X178621153Y-87571218D01*
X178599529Y-87581446D01*
X178577007Y-87589504D01*
X178553803Y-87595316D01*
X178530142Y-87598826D01*
X178506250Y-87600000D01*
X178018750Y-87600000D01*
X177994858Y-87598826D01*
X177971197Y-87595316D01*
X177947993Y-87589504D01*
X177925471Y-87581446D01*
X177903847Y-87571218D01*
X177883330Y-87558921D01*
X177864117Y-87544671D01*
X177846393Y-87528607D01*
X177830329Y-87510883D01*
X177816079Y-87491670D01*
X177803782Y-87471153D01*
X177793554Y-87449529D01*
X177785496Y-87427007D01*
X177779684Y-87403803D01*
X177776174Y-87380142D01*
X177775000Y-87356250D01*
X177775000Y-86443750D01*
X177776174Y-86419858D01*
X177779684Y-86396197D01*
X177785496Y-86372993D01*
X177793554Y-86350471D01*
X177803782Y-86328847D01*
X177816079Y-86308330D01*
X177830329Y-86289117D01*
X177846393Y-86271393D01*
X177864117Y-86255329D01*
X177883330Y-86241079D01*
X177903847Y-86228782D01*
X177925471Y-86218554D01*
X177947993Y-86210496D01*
X177971197Y-86204684D01*
X177994858Y-86201174D01*
X178018750Y-86200000D01*
X178506250Y-86200000D01*
X178530142Y-86201174D01*
X178530142Y-86201174D01*
G37*
D12*
X178262500Y-86900000D03*
D11*
G36*
X180405142Y-86201174D02*
X180428803Y-86204684D01*
X180452007Y-86210496D01*
X180474529Y-86218554D01*
X180496153Y-86228782D01*
X180516670Y-86241079D01*
X180535883Y-86255329D01*
X180553607Y-86271393D01*
X180569671Y-86289117D01*
X180583921Y-86308330D01*
X180596218Y-86328847D01*
X180606446Y-86350471D01*
X180614504Y-86372993D01*
X180620316Y-86396197D01*
X180623826Y-86419858D01*
X180625000Y-86443750D01*
X180625000Y-87356250D01*
X180623826Y-87380142D01*
X180620316Y-87403803D01*
X180614504Y-87427007D01*
X180606446Y-87449529D01*
X180596218Y-87471153D01*
X180583921Y-87491670D01*
X180569671Y-87510883D01*
X180553607Y-87528607D01*
X180535883Y-87544671D01*
X180516670Y-87558921D01*
X180496153Y-87571218D01*
X180474529Y-87581446D01*
X180452007Y-87589504D01*
X180428803Y-87595316D01*
X180405142Y-87598826D01*
X180381250Y-87600000D01*
X179893750Y-87600000D01*
X179869858Y-87598826D01*
X179846197Y-87595316D01*
X179822993Y-87589504D01*
X179800471Y-87581446D01*
X179778847Y-87571218D01*
X179758330Y-87558921D01*
X179739117Y-87544671D01*
X179721393Y-87528607D01*
X179705329Y-87510883D01*
X179691079Y-87491670D01*
X179678782Y-87471153D01*
X179668554Y-87449529D01*
X179660496Y-87427007D01*
X179654684Y-87403803D01*
X179651174Y-87380142D01*
X179650000Y-87356250D01*
X179650000Y-86443750D01*
X179651174Y-86419858D01*
X179654684Y-86396197D01*
X179660496Y-86372993D01*
X179668554Y-86350471D01*
X179678782Y-86328847D01*
X179691079Y-86308330D01*
X179705329Y-86289117D01*
X179721393Y-86271393D01*
X179739117Y-86255329D01*
X179758330Y-86241079D01*
X179778847Y-86228782D01*
X179800471Y-86218554D01*
X179822993Y-86210496D01*
X179846197Y-86204684D01*
X179869858Y-86201174D01*
X179893750Y-86200000D01*
X180381250Y-86200000D01*
X180405142Y-86201174D01*
X180405142Y-86201174D01*
G37*
D12*
X180137500Y-86900000D03*
G04 #@! TD*
D11*
G04 #@! TO.C,R4*
G36*
X164630142Y-90998674D02*
X164653803Y-91002184D01*
X164677007Y-91007996D01*
X164699529Y-91016054D01*
X164721153Y-91026282D01*
X164741670Y-91038579D01*
X164760883Y-91052829D01*
X164778607Y-91068893D01*
X164794671Y-91086617D01*
X164808921Y-91105830D01*
X164821218Y-91126347D01*
X164831446Y-91147971D01*
X164839504Y-91170493D01*
X164845316Y-91193697D01*
X164848826Y-91217358D01*
X164850000Y-91241250D01*
X164850000Y-91728750D01*
X164848826Y-91752642D01*
X164845316Y-91776303D01*
X164839504Y-91799507D01*
X164831446Y-91822029D01*
X164821218Y-91843653D01*
X164808921Y-91864170D01*
X164794671Y-91883383D01*
X164778607Y-91901107D01*
X164760883Y-91917171D01*
X164741670Y-91931421D01*
X164721153Y-91943718D01*
X164699529Y-91953946D01*
X164677007Y-91962004D01*
X164653803Y-91967816D01*
X164630142Y-91971326D01*
X164606250Y-91972500D01*
X163693750Y-91972500D01*
X163669858Y-91971326D01*
X163646197Y-91967816D01*
X163622993Y-91962004D01*
X163600471Y-91953946D01*
X163578847Y-91943718D01*
X163558330Y-91931421D01*
X163539117Y-91917171D01*
X163521393Y-91901107D01*
X163505329Y-91883383D01*
X163491079Y-91864170D01*
X163478782Y-91843653D01*
X163468554Y-91822029D01*
X163460496Y-91799507D01*
X163454684Y-91776303D01*
X163451174Y-91752642D01*
X163450000Y-91728750D01*
X163450000Y-91241250D01*
X163451174Y-91217358D01*
X163454684Y-91193697D01*
X163460496Y-91170493D01*
X163468554Y-91147971D01*
X163478782Y-91126347D01*
X163491079Y-91105830D01*
X163505329Y-91086617D01*
X163521393Y-91068893D01*
X163539117Y-91052829D01*
X163558330Y-91038579D01*
X163578847Y-91026282D01*
X163600471Y-91016054D01*
X163622993Y-91007996D01*
X163646197Y-91002184D01*
X163669858Y-90998674D01*
X163693750Y-90997500D01*
X164606250Y-90997500D01*
X164630142Y-90998674D01*
X164630142Y-90998674D01*
G37*
D12*
X164150000Y-91485000D03*
D11*
G36*
X164630142Y-92873674D02*
X164653803Y-92877184D01*
X164677007Y-92882996D01*
X164699529Y-92891054D01*
X164721153Y-92901282D01*
X164741670Y-92913579D01*
X164760883Y-92927829D01*
X164778607Y-92943893D01*
X164794671Y-92961617D01*
X164808921Y-92980830D01*
X164821218Y-93001347D01*
X164831446Y-93022971D01*
X164839504Y-93045493D01*
X164845316Y-93068697D01*
X164848826Y-93092358D01*
X164850000Y-93116250D01*
X164850000Y-93603750D01*
X164848826Y-93627642D01*
X164845316Y-93651303D01*
X164839504Y-93674507D01*
X164831446Y-93697029D01*
X164821218Y-93718653D01*
X164808921Y-93739170D01*
X164794671Y-93758383D01*
X164778607Y-93776107D01*
X164760883Y-93792171D01*
X164741670Y-93806421D01*
X164721153Y-93818718D01*
X164699529Y-93828946D01*
X164677007Y-93837004D01*
X164653803Y-93842816D01*
X164630142Y-93846326D01*
X164606250Y-93847500D01*
X163693750Y-93847500D01*
X163669858Y-93846326D01*
X163646197Y-93842816D01*
X163622993Y-93837004D01*
X163600471Y-93828946D01*
X163578847Y-93818718D01*
X163558330Y-93806421D01*
X163539117Y-93792171D01*
X163521393Y-93776107D01*
X163505329Y-93758383D01*
X163491079Y-93739170D01*
X163478782Y-93718653D01*
X163468554Y-93697029D01*
X163460496Y-93674507D01*
X163454684Y-93651303D01*
X163451174Y-93627642D01*
X163450000Y-93603750D01*
X163450000Y-93116250D01*
X163451174Y-93092358D01*
X163454684Y-93068697D01*
X163460496Y-93045493D01*
X163468554Y-93022971D01*
X163478782Y-93001347D01*
X163491079Y-92980830D01*
X163505329Y-92961617D01*
X163521393Y-92943893D01*
X163539117Y-92927829D01*
X163558330Y-92913579D01*
X163578847Y-92901282D01*
X163600471Y-92891054D01*
X163622993Y-92882996D01*
X163646197Y-92877184D01*
X163669858Y-92873674D01*
X163693750Y-92872500D01*
X164606250Y-92872500D01*
X164630142Y-92873674D01*
X164630142Y-92873674D01*
G37*
D12*
X164150000Y-93360000D03*
G04 #@! TD*
D11*
G04 #@! TO.C,R5*
G36*
X171365142Y-103011174D02*
X171388803Y-103014684D01*
X171412007Y-103020496D01*
X171434529Y-103028554D01*
X171456153Y-103038782D01*
X171476670Y-103051079D01*
X171495883Y-103065329D01*
X171513607Y-103081393D01*
X171529671Y-103099117D01*
X171543921Y-103118330D01*
X171556218Y-103138847D01*
X171566446Y-103160471D01*
X171574504Y-103182993D01*
X171580316Y-103206197D01*
X171583826Y-103229858D01*
X171585000Y-103253750D01*
X171585000Y-104166250D01*
X171583826Y-104190142D01*
X171580316Y-104213803D01*
X171574504Y-104237007D01*
X171566446Y-104259529D01*
X171556218Y-104281153D01*
X171543921Y-104301670D01*
X171529671Y-104320883D01*
X171513607Y-104338607D01*
X171495883Y-104354671D01*
X171476670Y-104368921D01*
X171456153Y-104381218D01*
X171434529Y-104391446D01*
X171412007Y-104399504D01*
X171388803Y-104405316D01*
X171365142Y-104408826D01*
X171341250Y-104410000D01*
X170853750Y-104410000D01*
X170829858Y-104408826D01*
X170806197Y-104405316D01*
X170782993Y-104399504D01*
X170760471Y-104391446D01*
X170738847Y-104381218D01*
X170718330Y-104368921D01*
X170699117Y-104354671D01*
X170681393Y-104338607D01*
X170665329Y-104320883D01*
X170651079Y-104301670D01*
X170638782Y-104281153D01*
X170628554Y-104259529D01*
X170620496Y-104237007D01*
X170614684Y-104213803D01*
X170611174Y-104190142D01*
X170610000Y-104166250D01*
X170610000Y-103253750D01*
X170611174Y-103229858D01*
X170614684Y-103206197D01*
X170620496Y-103182993D01*
X170628554Y-103160471D01*
X170638782Y-103138847D01*
X170651079Y-103118330D01*
X170665329Y-103099117D01*
X170681393Y-103081393D01*
X170699117Y-103065329D01*
X170718330Y-103051079D01*
X170738847Y-103038782D01*
X170760471Y-103028554D01*
X170782993Y-103020496D01*
X170806197Y-103014684D01*
X170829858Y-103011174D01*
X170853750Y-103010000D01*
X171341250Y-103010000D01*
X171365142Y-103011174D01*
X171365142Y-103011174D01*
G37*
D12*
X171097500Y-103710000D03*
D11*
G36*
X169490142Y-103011174D02*
X169513803Y-103014684D01*
X169537007Y-103020496D01*
X169559529Y-103028554D01*
X169581153Y-103038782D01*
X169601670Y-103051079D01*
X169620883Y-103065329D01*
X169638607Y-103081393D01*
X169654671Y-103099117D01*
X169668921Y-103118330D01*
X169681218Y-103138847D01*
X169691446Y-103160471D01*
X169699504Y-103182993D01*
X169705316Y-103206197D01*
X169708826Y-103229858D01*
X169710000Y-103253750D01*
X169710000Y-104166250D01*
X169708826Y-104190142D01*
X169705316Y-104213803D01*
X169699504Y-104237007D01*
X169691446Y-104259529D01*
X169681218Y-104281153D01*
X169668921Y-104301670D01*
X169654671Y-104320883D01*
X169638607Y-104338607D01*
X169620883Y-104354671D01*
X169601670Y-104368921D01*
X169581153Y-104381218D01*
X169559529Y-104391446D01*
X169537007Y-104399504D01*
X169513803Y-104405316D01*
X169490142Y-104408826D01*
X169466250Y-104410000D01*
X168978750Y-104410000D01*
X168954858Y-104408826D01*
X168931197Y-104405316D01*
X168907993Y-104399504D01*
X168885471Y-104391446D01*
X168863847Y-104381218D01*
X168843330Y-104368921D01*
X168824117Y-104354671D01*
X168806393Y-104338607D01*
X168790329Y-104320883D01*
X168776079Y-104301670D01*
X168763782Y-104281153D01*
X168753554Y-104259529D01*
X168745496Y-104237007D01*
X168739684Y-104213803D01*
X168736174Y-104190142D01*
X168735000Y-104166250D01*
X168735000Y-103253750D01*
X168736174Y-103229858D01*
X168739684Y-103206197D01*
X168745496Y-103182993D01*
X168753554Y-103160471D01*
X168763782Y-103138847D01*
X168776079Y-103118330D01*
X168790329Y-103099117D01*
X168806393Y-103081393D01*
X168824117Y-103065329D01*
X168843330Y-103051079D01*
X168863847Y-103038782D01*
X168885471Y-103028554D01*
X168907993Y-103020496D01*
X168931197Y-103014684D01*
X168954858Y-103011174D01*
X168978750Y-103010000D01*
X169466250Y-103010000D01*
X169490142Y-103011174D01*
X169490142Y-103011174D01*
G37*
D12*
X169222500Y-103710000D03*
G04 #@! TD*
D11*
G04 #@! TO.C,R6*
G36*
X183460142Y-105751174D02*
X183483803Y-105754684D01*
X183507007Y-105760496D01*
X183529529Y-105768554D01*
X183551153Y-105778782D01*
X183571670Y-105791079D01*
X183590883Y-105805329D01*
X183608607Y-105821393D01*
X183624671Y-105839117D01*
X183638921Y-105858330D01*
X183651218Y-105878847D01*
X183661446Y-105900471D01*
X183669504Y-105922993D01*
X183675316Y-105946197D01*
X183678826Y-105969858D01*
X183680000Y-105993750D01*
X183680000Y-106481250D01*
X183678826Y-106505142D01*
X183675316Y-106528803D01*
X183669504Y-106552007D01*
X183661446Y-106574529D01*
X183651218Y-106596153D01*
X183638921Y-106616670D01*
X183624671Y-106635883D01*
X183608607Y-106653607D01*
X183590883Y-106669671D01*
X183571670Y-106683921D01*
X183551153Y-106696218D01*
X183529529Y-106706446D01*
X183507007Y-106714504D01*
X183483803Y-106720316D01*
X183460142Y-106723826D01*
X183436250Y-106725000D01*
X182523750Y-106725000D01*
X182499858Y-106723826D01*
X182476197Y-106720316D01*
X182452993Y-106714504D01*
X182430471Y-106706446D01*
X182408847Y-106696218D01*
X182388330Y-106683921D01*
X182369117Y-106669671D01*
X182351393Y-106653607D01*
X182335329Y-106635883D01*
X182321079Y-106616670D01*
X182308782Y-106596153D01*
X182298554Y-106574529D01*
X182290496Y-106552007D01*
X182284684Y-106528803D01*
X182281174Y-106505142D01*
X182280000Y-106481250D01*
X182280000Y-105993750D01*
X182281174Y-105969858D01*
X182284684Y-105946197D01*
X182290496Y-105922993D01*
X182298554Y-105900471D01*
X182308782Y-105878847D01*
X182321079Y-105858330D01*
X182335329Y-105839117D01*
X182351393Y-105821393D01*
X182369117Y-105805329D01*
X182388330Y-105791079D01*
X182408847Y-105778782D01*
X182430471Y-105768554D01*
X182452993Y-105760496D01*
X182476197Y-105754684D01*
X182499858Y-105751174D01*
X182523750Y-105750000D01*
X183436250Y-105750000D01*
X183460142Y-105751174D01*
X183460142Y-105751174D01*
G37*
D12*
X182980000Y-106237500D03*
D11*
G36*
X183460142Y-103876174D02*
X183483803Y-103879684D01*
X183507007Y-103885496D01*
X183529529Y-103893554D01*
X183551153Y-103903782D01*
X183571670Y-103916079D01*
X183590883Y-103930329D01*
X183608607Y-103946393D01*
X183624671Y-103964117D01*
X183638921Y-103983330D01*
X183651218Y-104003847D01*
X183661446Y-104025471D01*
X183669504Y-104047993D01*
X183675316Y-104071197D01*
X183678826Y-104094858D01*
X183680000Y-104118750D01*
X183680000Y-104606250D01*
X183678826Y-104630142D01*
X183675316Y-104653803D01*
X183669504Y-104677007D01*
X183661446Y-104699529D01*
X183651218Y-104721153D01*
X183638921Y-104741670D01*
X183624671Y-104760883D01*
X183608607Y-104778607D01*
X183590883Y-104794671D01*
X183571670Y-104808921D01*
X183551153Y-104821218D01*
X183529529Y-104831446D01*
X183507007Y-104839504D01*
X183483803Y-104845316D01*
X183460142Y-104848826D01*
X183436250Y-104850000D01*
X182523750Y-104850000D01*
X182499858Y-104848826D01*
X182476197Y-104845316D01*
X182452993Y-104839504D01*
X182430471Y-104831446D01*
X182408847Y-104821218D01*
X182388330Y-104808921D01*
X182369117Y-104794671D01*
X182351393Y-104778607D01*
X182335329Y-104760883D01*
X182321079Y-104741670D01*
X182308782Y-104721153D01*
X182298554Y-104699529D01*
X182290496Y-104677007D01*
X182284684Y-104653803D01*
X182281174Y-104630142D01*
X182280000Y-104606250D01*
X182280000Y-104118750D01*
X182281174Y-104094858D01*
X182284684Y-104071197D01*
X182290496Y-104047993D01*
X182298554Y-104025471D01*
X182308782Y-104003847D01*
X182321079Y-103983330D01*
X182335329Y-103964117D01*
X182351393Y-103946393D01*
X182369117Y-103930329D01*
X182388330Y-103916079D01*
X182408847Y-103903782D01*
X182430471Y-103893554D01*
X182452993Y-103885496D01*
X182476197Y-103879684D01*
X182499858Y-103876174D01*
X182523750Y-103875000D01*
X183436250Y-103875000D01*
X183460142Y-103876174D01*
X183460142Y-103876174D01*
G37*
D12*
X182980000Y-104362500D03*
G04 #@! TD*
D11*
G04 #@! TO.C,R7*
G36*
X178492642Y-96001174D02*
X178516303Y-96004684D01*
X178539507Y-96010496D01*
X178562029Y-96018554D01*
X178583653Y-96028782D01*
X178604170Y-96041079D01*
X178623383Y-96055329D01*
X178641107Y-96071393D01*
X178657171Y-96089117D01*
X178671421Y-96108330D01*
X178683718Y-96128847D01*
X178693946Y-96150471D01*
X178702004Y-96172993D01*
X178707816Y-96196197D01*
X178711326Y-96219858D01*
X178712500Y-96243750D01*
X178712500Y-97156250D01*
X178711326Y-97180142D01*
X178707816Y-97203803D01*
X178702004Y-97227007D01*
X178693946Y-97249529D01*
X178683718Y-97271153D01*
X178671421Y-97291670D01*
X178657171Y-97310883D01*
X178641107Y-97328607D01*
X178623383Y-97344671D01*
X178604170Y-97358921D01*
X178583653Y-97371218D01*
X178562029Y-97381446D01*
X178539507Y-97389504D01*
X178516303Y-97395316D01*
X178492642Y-97398826D01*
X178468750Y-97400000D01*
X177981250Y-97400000D01*
X177957358Y-97398826D01*
X177933697Y-97395316D01*
X177910493Y-97389504D01*
X177887971Y-97381446D01*
X177866347Y-97371218D01*
X177845830Y-97358921D01*
X177826617Y-97344671D01*
X177808893Y-97328607D01*
X177792829Y-97310883D01*
X177778579Y-97291670D01*
X177766282Y-97271153D01*
X177756054Y-97249529D01*
X177747996Y-97227007D01*
X177742184Y-97203803D01*
X177738674Y-97180142D01*
X177737500Y-97156250D01*
X177737500Y-96243750D01*
X177738674Y-96219858D01*
X177742184Y-96196197D01*
X177747996Y-96172993D01*
X177756054Y-96150471D01*
X177766282Y-96128847D01*
X177778579Y-96108330D01*
X177792829Y-96089117D01*
X177808893Y-96071393D01*
X177826617Y-96055329D01*
X177845830Y-96041079D01*
X177866347Y-96028782D01*
X177887971Y-96018554D01*
X177910493Y-96010496D01*
X177933697Y-96004684D01*
X177957358Y-96001174D01*
X177981250Y-96000000D01*
X178468750Y-96000000D01*
X178492642Y-96001174D01*
X178492642Y-96001174D01*
G37*
D12*
X178225000Y-96700000D03*
D11*
G36*
X180367642Y-96001174D02*
X180391303Y-96004684D01*
X180414507Y-96010496D01*
X180437029Y-96018554D01*
X180458653Y-96028782D01*
X180479170Y-96041079D01*
X180498383Y-96055329D01*
X180516107Y-96071393D01*
X180532171Y-96089117D01*
X180546421Y-96108330D01*
X180558718Y-96128847D01*
X180568946Y-96150471D01*
X180577004Y-96172993D01*
X180582816Y-96196197D01*
X180586326Y-96219858D01*
X180587500Y-96243750D01*
X180587500Y-97156250D01*
X180586326Y-97180142D01*
X180582816Y-97203803D01*
X180577004Y-97227007D01*
X180568946Y-97249529D01*
X180558718Y-97271153D01*
X180546421Y-97291670D01*
X180532171Y-97310883D01*
X180516107Y-97328607D01*
X180498383Y-97344671D01*
X180479170Y-97358921D01*
X180458653Y-97371218D01*
X180437029Y-97381446D01*
X180414507Y-97389504D01*
X180391303Y-97395316D01*
X180367642Y-97398826D01*
X180343750Y-97400000D01*
X179856250Y-97400000D01*
X179832358Y-97398826D01*
X179808697Y-97395316D01*
X179785493Y-97389504D01*
X179762971Y-97381446D01*
X179741347Y-97371218D01*
X179720830Y-97358921D01*
X179701617Y-97344671D01*
X179683893Y-97328607D01*
X179667829Y-97310883D01*
X179653579Y-97291670D01*
X179641282Y-97271153D01*
X179631054Y-97249529D01*
X179622996Y-97227007D01*
X179617184Y-97203803D01*
X179613674Y-97180142D01*
X179612500Y-97156250D01*
X179612500Y-96243750D01*
X179613674Y-96219858D01*
X179617184Y-96196197D01*
X179622996Y-96172993D01*
X179631054Y-96150471D01*
X179641282Y-96128847D01*
X179653579Y-96108330D01*
X179667829Y-96089117D01*
X179683893Y-96071393D01*
X179701617Y-96055329D01*
X179720830Y-96041079D01*
X179741347Y-96028782D01*
X179762971Y-96018554D01*
X179785493Y-96010496D01*
X179808697Y-96004684D01*
X179832358Y-96001174D01*
X179856250Y-96000000D01*
X180343750Y-96000000D01*
X180367642Y-96001174D01*
X180367642Y-96001174D01*
G37*
D12*
X180100000Y-96700000D03*
G04 #@! TD*
D16*
G04 #@! TO.C,U1*
X154910000Y-93545000D03*
X154910000Y-94195000D03*
X154910000Y-94845000D03*
X154910000Y-95495000D03*
D17*
X155935000Y-96520000D03*
X156585000Y-96520000D03*
X157235000Y-96520000D03*
X157885000Y-96520000D03*
D16*
X158910000Y-95495000D03*
X158910000Y-94845000D03*
X158910000Y-94195000D03*
X158910000Y-93545000D03*
D17*
X157885000Y-92520000D03*
X157235000Y-92520000D03*
X156585000Y-92520000D03*
X155935000Y-92520000D03*
D18*
X156285000Y-95145000D03*
X157535000Y-95145000D03*
X156285000Y-93895000D03*
X157535000Y-93895000D03*
G04 #@! TD*
D19*
G04 #@! TO.C,U2*
X169760000Y-89695000D03*
X169760000Y-90965000D03*
X169760000Y-92235000D03*
X169760000Y-93505000D03*
X169760000Y-94775000D03*
X169760000Y-96045000D03*
X169760000Y-97315000D03*
X169760000Y-98585000D03*
X175160000Y-98585000D03*
X175160000Y-97315000D03*
X175160000Y-96045000D03*
X175160000Y-94775000D03*
X175160000Y-93505000D03*
X175160000Y-92235000D03*
X175160000Y-90965000D03*
X175160000Y-89695000D03*
G04 #@! TD*
D20*
G04 #@! TO.C,U3*
X174150000Y-104340000D03*
X174150000Y-104840000D03*
X174150000Y-105340000D03*
X174150000Y-105840000D03*
X174150000Y-106340000D03*
X178550000Y-106340000D03*
X178550000Y-105840000D03*
X178550000Y-105340000D03*
X178550000Y-104840000D03*
X178550000Y-104340000D03*
X174150000Y-106840000D03*
X174150000Y-107340000D03*
X174150000Y-107840000D03*
X178550000Y-106840000D03*
X178550000Y-107340000D03*
X178550000Y-107840000D03*
G04 #@! TD*
M02*
