G04 #@! TF.GenerationSoftware,KiCad,Pcbnew,5.0.2-bee76a0~70~ubuntu18.10.1*
G04 #@! TF.CreationDate,2019-05-29T11:20:30+10:00*
G04 #@! TF.ProjectId,ecig,65636967-2e6b-4696-9361-645f70636258,rev?*
G04 #@! TF.SameCoordinates,Original*
G04 #@! TF.FileFunction,Profile,NP*
%FSLAX46Y46*%
G04 Gerber Fmt 4.6, Leading zero omitted, Abs format (unit mm)*
G04 Created by KiCad (PCBNEW 5.0.2-bee76a0~70~ubuntu18.10.1) date Wed 29 May 2019 11:20:30 AEST*
%MOMM*%
%LPD*%
G01*
G04 APERTURE LIST*
%ADD10C,0.150000*%
G04 APERTURE END LIST*
D10*
X67800000Y-113100000D02*
X63000000Y-113100000D01*
X54000000Y-104100000D02*
X63000000Y-113100000D01*
X147000000Y-69100000D02*
X145600000Y-69100000D01*
X142000000Y-72700000D02*
X145600000Y-69100000D01*
X138500000Y-72700000D02*
X142000000Y-72700000D01*
X131900000Y-66100000D02*
X138500000Y-72700000D01*
X125600000Y-66100000D02*
X131900000Y-66100000D01*
X118100000Y-73600000D02*
X125600000Y-66100000D01*
X114200000Y-69700000D02*
X118100000Y-73600000D01*
X108500000Y-75400000D02*
X114200000Y-69700000D01*
X102600000Y-69500000D02*
X108500000Y-75400000D01*
X95000000Y-69500000D02*
X102600000Y-69500000D01*
X89400000Y-75100000D02*
X95000000Y-69500000D01*
X86500000Y-72200000D02*
X89400000Y-75100000D01*
X82100000Y-72200000D02*
X86500000Y-72200000D01*
X79000000Y-75300000D02*
X82100000Y-72200000D01*
X73100000Y-75300000D02*
X79000000Y-75300000D01*
X66900000Y-69100000D02*
X73100000Y-75300000D01*
X195900000Y-101400000D02*
X184200000Y-113100000D01*
X151900000Y-113100000D02*
X184200000Y-113100000D01*
X190600000Y-82600000D02*
X195900000Y-82600000D01*
X177000000Y-69000000D02*
X190600000Y-82600000D01*
X174000000Y-69000000D02*
X177000000Y-69000000D01*
X171000000Y-72000000D02*
X174000000Y-69000000D01*
X165900000Y-72000000D02*
X171000000Y-72000000D01*
X162900000Y-69000000D02*
X165900000Y-72000000D01*
X160000000Y-69000000D02*
X162900000Y-69000000D01*
X158000000Y-71000000D02*
X160000000Y-69000000D01*
X148900000Y-71000000D02*
X158000000Y-71000000D01*
X147000000Y-69100000D02*
X148900000Y-71000000D01*
X66900000Y-69100000D02*
X54000000Y-82000000D01*
X54000000Y-104100000D02*
X54000000Y-82000000D01*
X151900000Y-113100000D02*
X67800000Y-113100000D01*
X214800000Y-101400000D02*
X195900000Y-101400000D01*
X214800000Y-82600000D02*
X195900000Y-82600000D01*
X214800000Y-101400000D02*
X214800000Y-82600000D01*
M02*
