M48
;DRILL file {KiCad 5.0.2-bee76a0~70~ubuntu18.10.1} date Mon 27 May 2019 16:03:32 AEST
;FORMAT={-:-/ absolute / inch / decimal}
FMAT,2
INCH,TZ
T1C0.0157
T2C0.0394
T3C0.0591
%
G90
G05
T1
X3.0335Y-4.6713
X3.065Y-4.7008
X3.1024Y-4.7264
X3.128Y-4.3406
X3.1693Y-4.3406
X3.2146Y-4.3386
X3.2247Y-4.0246
X3.2259Y-3.9065
X3.2445Y-3.9906
X3.2598Y-4.3386
X3.2652Y-3.9571
X3.313Y-4.3701
X3.3543Y-4.372
X3.3996Y-4.372
X3.5453Y-5.1811
X3.5614Y-5.2273
X3.5768Y-4.1043
X3.5886Y-5.1535
X3.6442Y-5.0929
X3.6484Y-4.4844
X3.6697Y-5.1943
X3.6832Y-5.1014
X3.6839Y-4.4674
X3.689Y-3.874
X3.7017Y-5.1361
X3.7194Y-4.4503
X3.7339Y-5.1588
X3.7461Y-5.5079
X3.7549Y-4.4333
X3.7854Y-4.3701
X3.7992Y-4.4291
X4.0067Y-3.9788
X4.1083Y-3.2913
T2
X4.248Y-3.7205
X4.248Y-3.8205
X4.248Y-3.9205
X4.248Y-4.0205
X4.248Y-4.1205
X4.348Y-3.7205
X4.348Y-3.8205
X4.348Y-3.9205
X4.348Y-4.0205
X4.348Y-4.1205
T3
X3.2272Y-6.1016
X3.4772Y-6.0016
X3.2268Y-5.3469
X3.4768Y-5.2469
X3.2272Y-6.8571
X3.4772Y-6.7571
X1.7177Y-4.5894
X1.9677Y-4.4894
X1.7177Y-5.3449
X1.9677Y-5.2449
X3.9819Y-4.589
X4.2319Y-4.489
X3.9803Y-6.8567
X4.2303Y-6.7567
X3.9819Y-6.1016
X4.2319Y-6.0016
X2.4713Y-4.5902
X2.7213Y-4.4902
X3.9819Y-5.3453
X4.2319Y-5.2453
X1.7161Y-6.8563
X1.9661Y-6.7563
X2.4717Y-5.3445
X2.7217Y-5.2445
X3.2272Y-4.5902
X3.4772Y-4.4902
X1.7161Y-6.0992
X1.9661Y-5.9992
X2.4717Y-6.0992
X2.7217Y-5.9992
X2.4717Y-6.8551
X2.7217Y-6.7551
T0
M30
