G04 #@! TF.GenerationSoftware,KiCad,Pcbnew,5.0.2-bee76a0~70~ubuntu18.10.1*
G04 #@! TF.CreationDate,2019-05-27T16:03:46+10:00*
G04 #@! TF.ProjectId,keyboard,6b657962-6f61-4726-942e-6b696361645f,rev?*
G04 #@! TF.SameCoordinates,Original*
G04 #@! TF.FileFunction,Copper,L2,Bot*
G04 #@! TF.FilePolarity,Positive*
%FSLAX46Y46*%
G04 Gerber Fmt 4.6, Leading zero omitted, Abs format (unit mm)*
G04 Created by KiCad (PCBNEW 5.0.2-bee76a0~70~ubuntu18.10.1) date Mon 27 May 2019 16:03:46 AEST*
%MOMM*%
%LPD*%
G01*
G04 APERTURE LIST*
G04 #@! TA.AperFunction,ComponentPad*
%ADD10O,1.700000X1.700000*%
G04 #@! TD*
G04 #@! TA.AperFunction,ComponentPad*
%ADD11R,1.700000X1.700000*%
G04 #@! TD*
G04 #@! TA.AperFunction,ComponentPad*
%ADD12C,2.200000*%
G04 #@! TD*
G04 #@! TA.AperFunction,ViaPad*
%ADD13C,0.800000*%
G04 #@! TD*
G04 #@! TA.AperFunction,Conductor*
%ADD14C,0.250000*%
G04 #@! TD*
G04 #@! TA.AperFunction,Conductor*
%ADD15C,0.254000*%
G04 #@! TD*
G04 APERTURE END LIST*
D10*
G04 #@! TO.P,J1,10*
G04 #@! TO.N,SCL*
X110440000Y-104660000D03*
G04 #@! TO.P,J1,9*
G04 #@! TO.N,GND*
X107900000Y-104660000D03*
G04 #@! TO.P,J1,8*
G04 #@! TO.N,SDA*
X110440000Y-102120000D03*
G04 #@! TO.P,J1,7*
G04 #@! TO.N,VCC*
X107900000Y-102120000D03*
G04 #@! TO.P,J1,6*
G04 #@! TO.N,N/C*
X110440000Y-99580000D03*
G04 #@! TO.P,J1,5*
X107900000Y-99580000D03*
G04 #@! TO.P,J1,4*
X110440000Y-97040000D03*
G04 #@! TO.P,J1,3*
X107900000Y-97040000D03*
G04 #@! TO.P,J1,2*
X110440000Y-94500000D03*
D11*
G04 #@! TO.P,J1,1*
X107900000Y-94500000D03*
G04 #@! TD*
D12*
G04 #@! TO.P,SW1,2*
G04 #@! TO.N,GND*
X43630000Y-116570000D03*
G04 #@! TO.P,SW1,1*
G04 #@! TO.N,KEY1*
X49980000Y-114030000D03*
G04 #@! TD*
G04 #@! TO.P,SW2,1*
G04 #@! TO.N,KEY2*
X69120000Y-114050000D03*
G04 #@! TO.P,SW2,2*
G04 #@! TO.N,GND*
X62770000Y-116590000D03*
G04 #@! TD*
G04 #@! TO.P,SW3,2*
G04 #@! TO.N,GND*
X81970000Y-116590000D03*
G04 #@! TO.P,SW3,1*
G04 #@! TO.N,KEY3*
X88320000Y-114050000D03*
G04 #@! TD*
G04 #@! TO.P,SW4,1*
G04 #@! TO.N,KEY4*
X107490000Y-114020000D03*
G04 #@! TO.P,SW4,2*
G04 #@! TO.N,GND*
X101140000Y-116560000D03*
G04 #@! TD*
G04 #@! TO.P,SW5,2*
G04 #@! TO.N,GND*
X43630000Y-135760000D03*
G04 #@! TO.P,SW5,1*
G04 #@! TO.N,KEY5*
X49980000Y-133220000D03*
G04 #@! TD*
G04 #@! TO.P,SW6,2*
G04 #@! TO.N,GND*
X62780000Y-135750000D03*
G04 #@! TO.P,SW6,1*
G04 #@! TO.N,KEY6*
X69130000Y-133210000D03*
G04 #@! TD*
G04 #@! TO.P,SW7,1*
G04 #@! TO.N,KEY7*
X88310000Y-133270000D03*
G04 #@! TO.P,SW7,2*
G04 #@! TO.N,GND*
X81960000Y-135810000D03*
G04 #@! TD*
G04 #@! TO.P,SW8,2*
G04 #@! TO.N,GND*
X101140000Y-135770000D03*
G04 #@! TO.P,SW8,1*
G04 #@! TO.N,KEY8*
X107490000Y-133230000D03*
G04 #@! TD*
G04 #@! TO.P,SW9,1*
G04 #@! TO.N,KEY9*
X49940000Y-152380000D03*
G04 #@! TO.P,SW9,2*
G04 #@! TO.N,GND*
X43590000Y-154920000D03*
G04 #@! TD*
G04 #@! TO.P,SW10,2*
G04 #@! TO.N,GND*
X62780000Y-154920000D03*
G04 #@! TO.P,SW10,1*
G04 #@! TO.N,KEY10*
X69130000Y-152380000D03*
G04 #@! TD*
G04 #@! TO.P,SW11,1*
G04 #@! TO.N,KEY11*
X88320000Y-152440000D03*
G04 #@! TO.P,SW11,2*
G04 #@! TO.N,GND*
X81970000Y-154980000D03*
G04 #@! TD*
G04 #@! TO.P,SW12,2*
G04 #@! TO.N,GND*
X101140000Y-154980000D03*
G04 #@! TO.P,SW12,1*
G04 #@! TO.N,KEY12*
X107490000Y-152440000D03*
G04 #@! TD*
G04 #@! TO.P,SW13,2*
G04 #@! TO.N,GND*
X43590000Y-174150000D03*
G04 #@! TO.P,SW13,1*
G04 #@! TO.N,KEY13*
X49940000Y-171610000D03*
G04 #@! TD*
G04 #@! TO.P,SW14,1*
G04 #@! TO.N,KEY14*
X69130000Y-171580000D03*
G04 #@! TO.P,SW14,2*
G04 #@! TO.N,GND*
X62780000Y-174120000D03*
G04 #@! TD*
G04 #@! TO.P,SW15,1*
G04 #@! TO.N,KEY15*
X88320000Y-171630000D03*
G04 #@! TO.P,SW15,2*
G04 #@! TO.N,GND*
X81970000Y-174170000D03*
G04 #@! TD*
G04 #@! TO.P,SW16,1*
G04 #@! TO.N,KEY16*
X107450000Y-171620000D03*
G04 #@! TO.P,SW16,2*
G04 #@! TO.N,GND*
X101100000Y-174160000D03*
G04 #@! TD*
D13*
G04 #@! TO.N,GND*
X104350000Y-83600000D03*
X93700000Y-98400000D03*
X90850000Y-104250000D03*
G04 #@! TO.N,SCL*
X101770000Y-101062500D03*
G04 #@! TO.N,KEY9*
X79450000Y-110250000D03*
X77050000Y-118650000D03*
G04 #@! TO.N,KEY10*
X80500000Y-110250000D03*
X77850000Y-119400000D03*
G04 #@! TO.N,KEY11*
X81650000Y-110200000D03*
X78800000Y-120050000D03*
G04 #@! TO.N,KEY12*
X82800000Y-110200000D03*
X93211514Y-131936194D03*
X95375003Y-112605997D03*
X94839807Y-131033674D03*
G04 #@! TO.N,KEY5*
X81908008Y-102225886D03*
G04 #@! TO.N,KEY6*
X82410550Y-101361332D03*
G04 #@! TO.N,KEY7*
X82937034Y-100511134D03*
G04 #@! TO.N,KEY8*
X81937613Y-99225095D03*
G04 #@! TO.N,KEY13*
X84150000Y-111000000D03*
X90460004Y-132773036D03*
X94473469Y-113038734D03*
X94022188Y-130457893D03*
G04 #@! TO.N,KEY14*
X85200000Y-111050000D03*
X90050000Y-131600000D03*
X93571935Y-113471471D03*
X93552568Y-129575010D03*
G04 #@! TO.N,KEY15*
X86350000Y-111050000D03*
X91150000Y-130900000D03*
X92670401Y-113904208D03*
X92562149Y-129360399D03*
G04 #@! TO.N,KEY16*
X96150000Y-111000000D03*
X96500000Y-112500000D03*
X95150000Y-139900000D03*
G04 #@! TD*
D14*
G04 #@! TO.N,SCL*
X109075001Y-103295001D02*
X109590001Y-103810001D01*
X104002501Y-103295001D02*
X109075001Y-103295001D01*
X109590001Y-103810001D02*
X110440000Y-104660000D01*
X101770000Y-101062500D02*
X104002501Y-103295001D01*
G04 #@! TO.N,KEY9*
X79450000Y-110250000D02*
X79050001Y-110649999D01*
X79050001Y-110649999D02*
X77050000Y-112650000D01*
X77050000Y-112650000D02*
X77050000Y-118650000D01*
G04 #@! TO.N,KEY10*
X80500000Y-110250000D02*
X77850000Y-112900000D01*
X77850000Y-112900000D02*
X77850000Y-119400000D01*
G04 #@! TO.N,KEY11*
X81650000Y-110200000D02*
X78800000Y-113050000D01*
X78800000Y-113050000D02*
X78800000Y-120050000D01*
G04 #@! TO.N,KEY12*
X94439808Y-131433673D02*
X94839807Y-131033674D01*
X93211514Y-131936194D02*
X93937287Y-131936194D01*
X93937287Y-131936194D02*
X94439808Y-131433673D01*
X83625023Y-109374977D02*
X92143983Y-109374977D01*
X94975004Y-112205998D02*
X95375003Y-112605997D01*
X92143983Y-109374977D02*
X94975004Y-112205998D01*
X82800000Y-110200000D02*
X83625023Y-109374977D01*
G04 #@! TO.N,KEY5*
X49980000Y-133220000D02*
X61280000Y-133220000D01*
X61280000Y-133220000D02*
X74474965Y-120025035D01*
X74499967Y-115767796D02*
X74499967Y-109633927D01*
X74474965Y-120025035D02*
X74474965Y-115792798D01*
X74499967Y-109633927D02*
X81508009Y-102625885D01*
X74474965Y-115792798D02*
X74499967Y-115767796D01*
X81508009Y-102625885D02*
X81908008Y-102225886D01*
G04 #@! TO.N,KEY6*
X74949978Y-110227200D02*
X82810549Y-102366629D01*
X82810549Y-102366629D02*
X82810549Y-101761331D01*
X74924976Y-115979198D02*
X74949978Y-115954196D01*
X74949978Y-115954196D02*
X74949978Y-110227200D01*
X69130000Y-133210000D02*
X74924976Y-127415024D01*
X82810549Y-101761331D02*
X82410550Y-101361332D01*
X74924976Y-127415024D02*
X74924976Y-115979198D01*
G04 #@! TO.N,KEY7*
X75399989Y-116140596D02*
X75399989Y-110413600D01*
X83337033Y-100911133D02*
X82937034Y-100511134D01*
X75399989Y-117259404D02*
X75374987Y-117234402D01*
X83337033Y-102476556D02*
X83337033Y-100911133D01*
X75399989Y-120359989D02*
X75399989Y-117259404D01*
X75374987Y-117234402D02*
X75374987Y-116165598D01*
X75399989Y-110413600D02*
X83337033Y-102476556D01*
X75374987Y-116165598D02*
X75399989Y-116140596D01*
X88310000Y-133270000D02*
X75399989Y-120359989D01*
G04 #@! TO.N,KEY8*
X81937613Y-99225095D02*
X82723997Y-99225095D01*
X105934366Y-133230000D02*
X107490000Y-133230000D01*
X83800000Y-100301098D02*
X83800000Y-102650000D01*
X82723997Y-99225095D02*
X83800000Y-100301098D01*
X75850000Y-118700998D02*
X89735001Y-132585999D01*
X90653020Y-133605339D02*
X91028359Y-133230000D01*
X75850000Y-110600000D02*
X75850000Y-118700998D01*
X89735001Y-132585999D02*
X89735001Y-133383324D01*
X89957016Y-133605339D02*
X90653020Y-133605339D01*
X91028359Y-133230000D02*
X105934366Y-133230000D01*
X83800000Y-102650000D02*
X75850000Y-110600000D01*
X89735001Y-133383324D02*
X89957016Y-133605339D01*
G04 #@! TO.N,KEY13*
X90460004Y-132773036D02*
X91299785Y-132773036D01*
X93796751Y-130276070D02*
X93919936Y-130276070D01*
X91299785Y-132773036D02*
X93796751Y-130276070D01*
X91434735Y-110000000D02*
X94073470Y-112638735D01*
X84150000Y-111000000D02*
X85325012Y-109824988D01*
X88134401Y-109824988D02*
X88309413Y-110000000D01*
X85325012Y-109824988D02*
X88134401Y-109824988D01*
X94073470Y-112638735D02*
X94473469Y-113038734D01*
X88309413Y-110000000D02*
X91434735Y-110000000D01*
G04 #@! TO.N,KEY14*
X93571935Y-129479212D02*
X93552568Y-129498579D01*
X93152569Y-129975009D02*
X93552568Y-129575010D01*
X91436411Y-131999999D02*
X93152569Y-130283841D01*
X90050000Y-131600000D02*
X90449999Y-131999999D01*
X93152569Y-130283841D02*
X93152569Y-129975009D01*
X90449999Y-131999999D02*
X91436411Y-131999999D01*
X93552568Y-129498579D02*
X93552568Y-129575010D01*
X87948001Y-110274999D02*
X88222991Y-110549989D01*
X91216138Y-110549989D02*
X93571935Y-112905786D01*
X85975001Y-110274999D02*
X87948001Y-110274999D01*
X88222991Y-110549989D02*
X91216138Y-110549989D01*
X93571935Y-112905786D02*
X93571935Y-113471471D01*
X85200000Y-111050000D02*
X85975001Y-110274999D01*
G04 #@! TO.N,KEY15*
X92562149Y-129487851D02*
X92562149Y-129360399D01*
X92670401Y-129252147D02*
X92562149Y-129360399D01*
X91150000Y-130900000D02*
X91900000Y-130900000D01*
X92562149Y-130237851D02*
X92562149Y-129360399D01*
X91900000Y-130900000D02*
X92562149Y-130237851D01*
X89975509Y-111775001D02*
X92104716Y-113904208D01*
X86350000Y-111050000D02*
X87075001Y-111775001D01*
X87075001Y-111775001D02*
X89975509Y-111775001D01*
X92104716Y-113904208D02*
X92670401Y-113904208D01*
G04 #@! TO.N,KEY16*
X96150000Y-111000000D02*
X96150000Y-112150000D01*
X96150000Y-112150000D02*
X96500000Y-112500000D01*
X95150000Y-139900000D02*
X95150000Y-162750000D01*
X98580000Y-162750000D02*
X107450000Y-171620000D01*
X95150000Y-162750000D02*
X98580000Y-162750000D01*
G04 #@! TD*
D15*
G04 #@! TO.N,GND*
G36*
X78409263Y-46026549D02*
X80684485Y-46247631D01*
X82939409Y-46622954D01*
X85163567Y-47150773D01*
X87346683Y-47828648D01*
X89478652Y-48653444D01*
X91549564Y-49621327D01*
X93549853Y-50727825D01*
X95470266Y-51967820D01*
X97301885Y-53335555D01*
X99036232Y-54824698D01*
X100665271Y-56428347D01*
X102181482Y-58139101D01*
X103577816Y-59949007D01*
X104847821Y-61849706D01*
X105985594Y-63832358D01*
X106985896Y-65887828D01*
X107844071Y-68006561D01*
X108556152Y-70178756D01*
X109118847Y-72394372D01*
X109529538Y-74643103D01*
X109786332Y-76914580D01*
X109888492Y-79208484D01*
X109890000Y-79496432D01*
X109890001Y-89130069D01*
X109876091Y-89200000D01*
X109931195Y-89477028D01*
X110088119Y-89711881D01*
X110322972Y-89868805D01*
X110530074Y-89910000D01*
X110530075Y-89910000D01*
X110600000Y-89923909D01*
X110669926Y-89910000D01*
X114340001Y-89910000D01*
X114340000Y-186540000D01*
X37710000Y-186540000D01*
X37710000Y-176394615D01*
X40835000Y-176394615D01*
X40835000Y-176985385D01*
X41061078Y-177531185D01*
X41478815Y-177948922D01*
X42024615Y-178175000D01*
X42615385Y-178175000D01*
X43161185Y-177948922D01*
X43578922Y-177531185D01*
X43805000Y-176985385D01*
X43805000Y-176394615D01*
X43710249Y-176165866D01*
X44765000Y-176165866D01*
X44765000Y-177214134D01*
X45166155Y-178182608D01*
X45907392Y-178923845D01*
X46875866Y-179325000D01*
X47924134Y-179325000D01*
X48892608Y-178923845D01*
X49633845Y-178182608D01*
X50035000Y-177214134D01*
X50035000Y-176394615D01*
X50995000Y-176394615D01*
X50995000Y-176985385D01*
X51221078Y-177531185D01*
X51638815Y-177948922D01*
X52184615Y-178175000D01*
X52775385Y-178175000D01*
X53321185Y-177948922D01*
X53738922Y-177531185D01*
X53965000Y-176985385D01*
X53965000Y-176394615D01*
X53952574Y-176364615D01*
X60025000Y-176364615D01*
X60025000Y-176955385D01*
X60251078Y-177501185D01*
X60668815Y-177918922D01*
X61214615Y-178145000D01*
X61805385Y-178145000D01*
X62351185Y-177918922D01*
X62768922Y-177501185D01*
X62995000Y-176955385D01*
X62995000Y-176364615D01*
X62900249Y-176135866D01*
X63955000Y-176135866D01*
X63955000Y-177184134D01*
X64356155Y-178152608D01*
X65097392Y-178893845D01*
X66065866Y-179295000D01*
X67114134Y-179295000D01*
X68082608Y-178893845D01*
X68823845Y-178152608D01*
X69225000Y-177184134D01*
X69225000Y-176364615D01*
X70185000Y-176364615D01*
X70185000Y-176955385D01*
X70411078Y-177501185D01*
X70828815Y-177918922D01*
X71374615Y-178145000D01*
X71965385Y-178145000D01*
X72511185Y-177918922D01*
X72928922Y-177501185D01*
X73155000Y-176955385D01*
X73155000Y-176414615D01*
X79215000Y-176414615D01*
X79215000Y-177005385D01*
X79441078Y-177551185D01*
X79858815Y-177968922D01*
X80404615Y-178195000D01*
X80995385Y-178195000D01*
X81541185Y-177968922D01*
X81958922Y-177551185D01*
X82185000Y-177005385D01*
X82185000Y-176414615D01*
X82090249Y-176185866D01*
X83145000Y-176185866D01*
X83145000Y-177234134D01*
X83546155Y-178202608D01*
X84287392Y-178943845D01*
X85255866Y-179345000D01*
X86304134Y-179345000D01*
X87272608Y-178943845D01*
X88013845Y-178202608D01*
X88415000Y-177234134D01*
X88415000Y-176414615D01*
X89375000Y-176414615D01*
X89375000Y-177005385D01*
X89601078Y-177551185D01*
X90018815Y-177968922D01*
X90564615Y-178195000D01*
X91155385Y-178195000D01*
X91701185Y-177968922D01*
X92118922Y-177551185D01*
X92345000Y-177005385D01*
X92345000Y-176414615D01*
X92340858Y-176404615D01*
X98345000Y-176404615D01*
X98345000Y-176995385D01*
X98571078Y-177541185D01*
X98988815Y-177958922D01*
X99534615Y-178185000D01*
X100125385Y-178185000D01*
X100671185Y-177958922D01*
X101088922Y-177541185D01*
X101315000Y-176995385D01*
X101315000Y-176404615D01*
X101220249Y-176175866D01*
X102275000Y-176175866D01*
X102275000Y-177224134D01*
X102676155Y-178192608D01*
X103417392Y-178933845D01*
X104385866Y-179335000D01*
X105434134Y-179335000D01*
X106402608Y-178933845D01*
X107143845Y-178192608D01*
X107545000Y-177224134D01*
X107545000Y-176404615D01*
X108505000Y-176404615D01*
X108505000Y-176995385D01*
X108731078Y-177541185D01*
X109148815Y-177958922D01*
X109694615Y-178185000D01*
X110285385Y-178185000D01*
X110831185Y-177958922D01*
X111248922Y-177541185D01*
X111475000Y-176995385D01*
X111475000Y-176404615D01*
X111248922Y-175858815D01*
X110831185Y-175441078D01*
X110285385Y-175215000D01*
X109694615Y-175215000D01*
X109148815Y-175441078D01*
X108731078Y-175858815D01*
X108505000Y-176404615D01*
X107545000Y-176404615D01*
X107545000Y-176175866D01*
X107143845Y-175207392D01*
X106402608Y-174466155D01*
X105434134Y-174065000D01*
X104385866Y-174065000D01*
X103417392Y-174466155D01*
X102676155Y-175207392D01*
X102275000Y-176175866D01*
X101220249Y-176175866D01*
X101104235Y-175895784D01*
X101501453Y-175882836D01*
X102034359Y-175662099D01*
X102145263Y-175384868D01*
X101100000Y-174339605D01*
X101085858Y-174353748D01*
X100906253Y-174174143D01*
X100920395Y-174160000D01*
X101279605Y-174160000D01*
X102324868Y-175205263D01*
X102602099Y-175094359D01*
X102845323Y-174448407D01*
X102822836Y-173758547D01*
X102602099Y-173225641D01*
X102324868Y-173114737D01*
X101279605Y-174160000D01*
X100920395Y-174160000D01*
X99875132Y-173114737D01*
X99597901Y-173225641D01*
X99354677Y-173871593D01*
X99377164Y-174561453D01*
X99597901Y-175094359D01*
X99875130Y-175205262D01*
X99865392Y-175215000D01*
X99534615Y-175215000D01*
X98988815Y-175441078D01*
X98571078Y-175858815D01*
X98345000Y-176404615D01*
X92340858Y-176404615D01*
X92118922Y-175868815D01*
X91701185Y-175451078D01*
X91155385Y-175225000D01*
X90564615Y-175225000D01*
X90018815Y-175451078D01*
X89601078Y-175868815D01*
X89375000Y-176414615D01*
X88415000Y-176414615D01*
X88415000Y-176185866D01*
X88013845Y-175217392D01*
X87272608Y-174476155D01*
X86304134Y-174075000D01*
X85255866Y-174075000D01*
X84287392Y-174476155D01*
X83546155Y-175217392D01*
X83145000Y-176185866D01*
X82090249Y-176185866D01*
X81974235Y-175905784D01*
X82371453Y-175892836D01*
X82904359Y-175672099D01*
X83015263Y-175394868D01*
X81970000Y-174349605D01*
X81955858Y-174363748D01*
X81776253Y-174184143D01*
X81790395Y-174170000D01*
X82149605Y-174170000D01*
X83194868Y-175215263D01*
X83472099Y-175104359D01*
X83715323Y-174458407D01*
X83692836Y-173768547D01*
X83472099Y-173235641D01*
X83194868Y-173124737D01*
X82149605Y-174170000D01*
X81790395Y-174170000D01*
X80745132Y-173124737D01*
X80467901Y-173235641D01*
X80224677Y-173881593D01*
X80247164Y-174571453D01*
X80467901Y-175104359D01*
X80745130Y-175215262D01*
X80735392Y-175225000D01*
X80404615Y-175225000D01*
X79858815Y-175451078D01*
X79441078Y-175868815D01*
X79215000Y-176414615D01*
X73155000Y-176414615D01*
X73155000Y-176364615D01*
X72928922Y-175818815D01*
X72511185Y-175401078D01*
X71965385Y-175175000D01*
X71374615Y-175175000D01*
X70828815Y-175401078D01*
X70411078Y-175818815D01*
X70185000Y-176364615D01*
X69225000Y-176364615D01*
X69225000Y-176135866D01*
X68823845Y-175167392D01*
X68082608Y-174426155D01*
X67114134Y-174025000D01*
X66065866Y-174025000D01*
X65097392Y-174426155D01*
X64356155Y-175167392D01*
X63955000Y-176135866D01*
X62900249Y-176135866D01*
X62784235Y-175855784D01*
X63181453Y-175842836D01*
X63714359Y-175622099D01*
X63825263Y-175344868D01*
X62780000Y-174299605D01*
X62765858Y-174313748D01*
X62586253Y-174134143D01*
X62600395Y-174120000D01*
X62959605Y-174120000D01*
X64004868Y-175165263D01*
X64282099Y-175054359D01*
X64525323Y-174408407D01*
X64502836Y-173718547D01*
X64282099Y-173185641D01*
X64004868Y-173074737D01*
X62959605Y-174120000D01*
X62600395Y-174120000D01*
X61555132Y-173074737D01*
X61277901Y-173185641D01*
X61034677Y-173831593D01*
X61057164Y-174521453D01*
X61277901Y-175054359D01*
X61555130Y-175165262D01*
X61545392Y-175175000D01*
X61214615Y-175175000D01*
X60668815Y-175401078D01*
X60251078Y-175818815D01*
X60025000Y-176364615D01*
X53952574Y-176364615D01*
X53738922Y-175848815D01*
X53321185Y-175431078D01*
X52775385Y-175205000D01*
X52184615Y-175205000D01*
X51638815Y-175431078D01*
X51221078Y-175848815D01*
X50995000Y-176394615D01*
X50035000Y-176394615D01*
X50035000Y-176165866D01*
X49633845Y-175197392D01*
X48892608Y-174456155D01*
X47924134Y-174055000D01*
X46875866Y-174055000D01*
X45907392Y-174456155D01*
X45166155Y-175197392D01*
X44765000Y-176165866D01*
X43710249Y-176165866D01*
X43594235Y-175885784D01*
X43991453Y-175872836D01*
X44524359Y-175652099D01*
X44635263Y-175374868D01*
X43590000Y-174329605D01*
X43575858Y-174343748D01*
X43396253Y-174164143D01*
X43410395Y-174150000D01*
X43769605Y-174150000D01*
X44814868Y-175195263D01*
X45092099Y-175084359D01*
X45335323Y-174438407D01*
X45312836Y-173748547D01*
X45092099Y-173215641D01*
X44814868Y-173104737D01*
X43769605Y-174150000D01*
X43410395Y-174150000D01*
X42365132Y-173104737D01*
X42087901Y-173215641D01*
X41844677Y-173861593D01*
X41867164Y-174551453D01*
X42087901Y-175084359D01*
X42365130Y-175195262D01*
X42355392Y-175205000D01*
X42024615Y-175205000D01*
X41478815Y-175431078D01*
X41061078Y-175848815D01*
X40835000Y-176394615D01*
X37710000Y-176394615D01*
X37710000Y-172925132D01*
X42544737Y-172925132D01*
X43590000Y-173970395D01*
X44635263Y-172925132D01*
X44524359Y-172647901D01*
X43878407Y-172404677D01*
X43188547Y-172427164D01*
X42655641Y-172647901D01*
X42544737Y-172925132D01*
X37710000Y-172925132D01*
X37710000Y-171264887D01*
X48205000Y-171264887D01*
X48205000Y-171955113D01*
X48469138Y-172592799D01*
X48957201Y-173080862D01*
X49594887Y-173345000D01*
X50285113Y-173345000D01*
X50922799Y-173080862D01*
X51108529Y-172895132D01*
X61734737Y-172895132D01*
X62780000Y-173940395D01*
X63825263Y-172895132D01*
X63714359Y-172617901D01*
X63068407Y-172374677D01*
X62378547Y-172397164D01*
X61845641Y-172617901D01*
X61734737Y-172895132D01*
X51108529Y-172895132D01*
X51410862Y-172592799D01*
X51675000Y-171955113D01*
X51675000Y-171264887D01*
X51662574Y-171234887D01*
X67395000Y-171234887D01*
X67395000Y-171925113D01*
X67659138Y-172562799D01*
X68147201Y-173050862D01*
X68784887Y-173315000D01*
X69475113Y-173315000D01*
X70112799Y-173050862D01*
X70218529Y-172945132D01*
X80924737Y-172945132D01*
X81970000Y-173990395D01*
X83015263Y-172945132D01*
X82904359Y-172667901D01*
X82258407Y-172424677D01*
X81568547Y-172447164D01*
X81035641Y-172667901D01*
X80924737Y-172945132D01*
X70218529Y-172945132D01*
X70600862Y-172562799D01*
X70865000Y-171925113D01*
X70865000Y-171284887D01*
X86585000Y-171284887D01*
X86585000Y-171975113D01*
X86849138Y-172612799D01*
X87337201Y-173100862D01*
X87974887Y-173365000D01*
X88665113Y-173365000D01*
X89302799Y-173100862D01*
X89468529Y-172935132D01*
X100054737Y-172935132D01*
X101100000Y-173980395D01*
X102145263Y-172935132D01*
X102034359Y-172657901D01*
X101388407Y-172414677D01*
X100698547Y-172437164D01*
X100165641Y-172657901D01*
X100054737Y-172935132D01*
X89468529Y-172935132D01*
X89790862Y-172612799D01*
X90055000Y-171975113D01*
X90055000Y-171284887D01*
X89790862Y-170647201D01*
X89302799Y-170159138D01*
X88665113Y-169895000D01*
X87974887Y-169895000D01*
X87337201Y-170159138D01*
X86849138Y-170647201D01*
X86585000Y-171284887D01*
X70865000Y-171284887D01*
X70865000Y-171234887D01*
X70600862Y-170597201D01*
X70112799Y-170109138D01*
X69475113Y-169845000D01*
X68784887Y-169845000D01*
X68147201Y-170109138D01*
X67659138Y-170597201D01*
X67395000Y-171234887D01*
X51662574Y-171234887D01*
X51410862Y-170627201D01*
X50922799Y-170139138D01*
X50285113Y-169875000D01*
X49594887Y-169875000D01*
X48957201Y-170139138D01*
X48469138Y-170627201D01*
X48205000Y-171264887D01*
X37710000Y-171264887D01*
X37710000Y-157164615D01*
X40835000Y-157164615D01*
X40835000Y-157755385D01*
X41061078Y-158301185D01*
X41478815Y-158718922D01*
X42024615Y-158945000D01*
X42615385Y-158945000D01*
X43161185Y-158718922D01*
X43578922Y-158301185D01*
X43805000Y-157755385D01*
X43805000Y-157164615D01*
X43710249Y-156935866D01*
X44765000Y-156935866D01*
X44765000Y-157984134D01*
X45166155Y-158952608D01*
X45907392Y-159693845D01*
X46875866Y-160095000D01*
X47924134Y-160095000D01*
X48892608Y-159693845D01*
X49633845Y-158952608D01*
X50035000Y-157984134D01*
X50035000Y-157164615D01*
X50995000Y-157164615D01*
X50995000Y-157755385D01*
X51221078Y-158301185D01*
X51638815Y-158718922D01*
X52184615Y-158945000D01*
X52775385Y-158945000D01*
X53321185Y-158718922D01*
X53738922Y-158301185D01*
X53965000Y-157755385D01*
X53965000Y-157164615D01*
X60025000Y-157164615D01*
X60025000Y-157755385D01*
X60251078Y-158301185D01*
X60668815Y-158718922D01*
X61214615Y-158945000D01*
X61805385Y-158945000D01*
X62351185Y-158718922D01*
X62768922Y-158301185D01*
X62995000Y-157755385D01*
X62995000Y-157164615D01*
X62900249Y-156935866D01*
X63955000Y-156935866D01*
X63955000Y-157984134D01*
X64356155Y-158952608D01*
X65097392Y-159693845D01*
X66065866Y-160095000D01*
X67114134Y-160095000D01*
X68082608Y-159693845D01*
X68823845Y-158952608D01*
X69225000Y-157984134D01*
X69225000Y-157164615D01*
X70185000Y-157164615D01*
X70185000Y-157755385D01*
X70411078Y-158301185D01*
X70828815Y-158718922D01*
X71374615Y-158945000D01*
X71965385Y-158945000D01*
X72511185Y-158718922D01*
X72928922Y-158301185D01*
X73155000Y-157755385D01*
X73155000Y-157224615D01*
X79215000Y-157224615D01*
X79215000Y-157815385D01*
X79441078Y-158361185D01*
X79858815Y-158778922D01*
X80404615Y-159005000D01*
X80995385Y-159005000D01*
X81541185Y-158778922D01*
X81958922Y-158361185D01*
X82185000Y-157815385D01*
X82185000Y-157224615D01*
X82090249Y-156995866D01*
X83145000Y-156995866D01*
X83145000Y-158044134D01*
X83546155Y-159012608D01*
X84287392Y-159753845D01*
X85255866Y-160155000D01*
X86304134Y-160155000D01*
X87272608Y-159753845D01*
X88013845Y-159012608D01*
X88415000Y-158044134D01*
X88415000Y-157224615D01*
X89375000Y-157224615D01*
X89375000Y-157815385D01*
X89601078Y-158361185D01*
X90018815Y-158778922D01*
X90564615Y-159005000D01*
X91155385Y-159005000D01*
X91701185Y-158778922D01*
X92118922Y-158361185D01*
X92345000Y-157815385D01*
X92345000Y-157224615D01*
X92118922Y-156678815D01*
X91701185Y-156261078D01*
X91155385Y-156035000D01*
X90564615Y-156035000D01*
X90018815Y-156261078D01*
X89601078Y-156678815D01*
X89375000Y-157224615D01*
X88415000Y-157224615D01*
X88415000Y-156995866D01*
X88013845Y-156027392D01*
X87272608Y-155286155D01*
X86304134Y-154885000D01*
X85255866Y-154885000D01*
X84287392Y-155286155D01*
X83546155Y-156027392D01*
X83145000Y-156995866D01*
X82090249Y-156995866D01*
X81974235Y-156715784D01*
X82371453Y-156702836D01*
X82904359Y-156482099D01*
X83015263Y-156204868D01*
X81970000Y-155159605D01*
X81955858Y-155173748D01*
X81776253Y-154994143D01*
X81790395Y-154980000D01*
X82149605Y-154980000D01*
X83194868Y-156025263D01*
X83472099Y-155914359D01*
X83715323Y-155268407D01*
X83692836Y-154578547D01*
X83472099Y-154045641D01*
X83194868Y-153934737D01*
X82149605Y-154980000D01*
X81790395Y-154980000D01*
X80745132Y-153934737D01*
X80467901Y-154045641D01*
X80224677Y-154691593D01*
X80247164Y-155381453D01*
X80467901Y-155914359D01*
X80745130Y-156025262D01*
X80735392Y-156035000D01*
X80404615Y-156035000D01*
X79858815Y-156261078D01*
X79441078Y-156678815D01*
X79215000Y-157224615D01*
X73155000Y-157224615D01*
X73155000Y-157164615D01*
X72928922Y-156618815D01*
X72511185Y-156201078D01*
X71965385Y-155975000D01*
X71374615Y-155975000D01*
X70828815Y-156201078D01*
X70411078Y-156618815D01*
X70185000Y-157164615D01*
X69225000Y-157164615D01*
X69225000Y-156935866D01*
X68823845Y-155967392D01*
X68082608Y-155226155D01*
X67114134Y-154825000D01*
X66065866Y-154825000D01*
X65097392Y-155226155D01*
X64356155Y-155967392D01*
X63955000Y-156935866D01*
X62900249Y-156935866D01*
X62784235Y-156655784D01*
X63181453Y-156642836D01*
X63714359Y-156422099D01*
X63825263Y-156144868D01*
X62780000Y-155099605D01*
X62765858Y-155113748D01*
X62586253Y-154934143D01*
X62600395Y-154920000D01*
X62959605Y-154920000D01*
X64004868Y-155965263D01*
X64282099Y-155854359D01*
X64525323Y-155208407D01*
X64502836Y-154518547D01*
X64282099Y-153985641D01*
X64004868Y-153874737D01*
X62959605Y-154920000D01*
X62600395Y-154920000D01*
X61555132Y-153874737D01*
X61277901Y-153985641D01*
X61034677Y-154631593D01*
X61057164Y-155321453D01*
X61277901Y-155854359D01*
X61555130Y-155965262D01*
X61545392Y-155975000D01*
X61214615Y-155975000D01*
X60668815Y-156201078D01*
X60251078Y-156618815D01*
X60025000Y-157164615D01*
X53965000Y-157164615D01*
X53738922Y-156618815D01*
X53321185Y-156201078D01*
X52775385Y-155975000D01*
X52184615Y-155975000D01*
X51638815Y-156201078D01*
X51221078Y-156618815D01*
X50995000Y-157164615D01*
X50035000Y-157164615D01*
X50035000Y-156935866D01*
X49633845Y-155967392D01*
X48892608Y-155226155D01*
X47924134Y-154825000D01*
X46875866Y-154825000D01*
X45907392Y-155226155D01*
X45166155Y-155967392D01*
X44765000Y-156935866D01*
X43710249Y-156935866D01*
X43594235Y-156655784D01*
X43991453Y-156642836D01*
X44524359Y-156422099D01*
X44635263Y-156144868D01*
X43590000Y-155099605D01*
X43575858Y-155113748D01*
X43396253Y-154934143D01*
X43410395Y-154920000D01*
X43769605Y-154920000D01*
X44814868Y-155965263D01*
X45092099Y-155854359D01*
X45335323Y-155208407D01*
X45312836Y-154518547D01*
X45092099Y-153985641D01*
X44814868Y-153874737D01*
X43769605Y-154920000D01*
X43410395Y-154920000D01*
X42365132Y-153874737D01*
X42087901Y-153985641D01*
X41844677Y-154631593D01*
X41867164Y-155321453D01*
X42087901Y-155854359D01*
X42365130Y-155965262D01*
X42355392Y-155975000D01*
X42024615Y-155975000D01*
X41478815Y-156201078D01*
X41061078Y-156618815D01*
X40835000Y-157164615D01*
X37710000Y-157164615D01*
X37710000Y-153695132D01*
X42544737Y-153695132D01*
X43590000Y-154740395D01*
X44635263Y-153695132D01*
X44524359Y-153417901D01*
X43878407Y-153174677D01*
X43188547Y-153197164D01*
X42655641Y-153417901D01*
X42544737Y-153695132D01*
X37710000Y-153695132D01*
X37710000Y-152034887D01*
X48205000Y-152034887D01*
X48205000Y-152725113D01*
X48469138Y-153362799D01*
X48957201Y-153850862D01*
X49594887Y-154115000D01*
X50285113Y-154115000D01*
X50922799Y-153850862D01*
X51078529Y-153695132D01*
X61734737Y-153695132D01*
X62780000Y-154740395D01*
X63825263Y-153695132D01*
X63714359Y-153417901D01*
X63068407Y-153174677D01*
X62378547Y-153197164D01*
X61845641Y-153417901D01*
X61734737Y-153695132D01*
X51078529Y-153695132D01*
X51410862Y-153362799D01*
X51675000Y-152725113D01*
X51675000Y-152034887D01*
X67395000Y-152034887D01*
X67395000Y-152725113D01*
X67659138Y-153362799D01*
X68147201Y-153850862D01*
X68784887Y-154115000D01*
X69475113Y-154115000D01*
X70112799Y-153850862D01*
X70208529Y-153755132D01*
X80924737Y-153755132D01*
X81970000Y-154800395D01*
X83015263Y-153755132D01*
X82904359Y-153477901D01*
X82258407Y-153234677D01*
X81568547Y-153257164D01*
X81035641Y-153477901D01*
X80924737Y-153755132D01*
X70208529Y-153755132D01*
X70600862Y-153362799D01*
X70865000Y-152725113D01*
X70865000Y-152094887D01*
X86585000Y-152094887D01*
X86585000Y-152785113D01*
X86849138Y-153422799D01*
X87337201Y-153910862D01*
X87974887Y-154175000D01*
X88665113Y-154175000D01*
X89302799Y-153910862D01*
X89790862Y-153422799D01*
X90055000Y-152785113D01*
X90055000Y-152094887D01*
X89790862Y-151457201D01*
X89302799Y-150969138D01*
X88665113Y-150705000D01*
X87974887Y-150705000D01*
X87337201Y-150969138D01*
X86849138Y-151457201D01*
X86585000Y-152094887D01*
X70865000Y-152094887D01*
X70865000Y-152034887D01*
X70600862Y-151397201D01*
X70112799Y-150909138D01*
X69475113Y-150645000D01*
X68784887Y-150645000D01*
X68147201Y-150909138D01*
X67659138Y-151397201D01*
X67395000Y-152034887D01*
X51675000Y-152034887D01*
X51410862Y-151397201D01*
X50922799Y-150909138D01*
X50285113Y-150645000D01*
X49594887Y-150645000D01*
X48957201Y-150909138D01*
X48469138Y-151397201D01*
X48205000Y-152034887D01*
X37710000Y-152034887D01*
X37710000Y-138004615D01*
X40875000Y-138004615D01*
X40875000Y-138595385D01*
X41101078Y-139141185D01*
X41518815Y-139558922D01*
X42064615Y-139785000D01*
X42655385Y-139785000D01*
X43201185Y-139558922D01*
X43618922Y-139141185D01*
X43845000Y-138595385D01*
X43845000Y-138004615D01*
X43750249Y-137775866D01*
X44805000Y-137775866D01*
X44805000Y-138824134D01*
X45206155Y-139792608D01*
X45947392Y-140533845D01*
X46915866Y-140935000D01*
X47964134Y-140935000D01*
X48932608Y-140533845D01*
X49673845Y-139792608D01*
X50075000Y-138824134D01*
X50075000Y-138004615D01*
X51035000Y-138004615D01*
X51035000Y-138595385D01*
X51261078Y-139141185D01*
X51678815Y-139558922D01*
X52224615Y-139785000D01*
X52815385Y-139785000D01*
X53361185Y-139558922D01*
X53778922Y-139141185D01*
X54005000Y-138595385D01*
X54005000Y-138004615D01*
X54000858Y-137994615D01*
X60025000Y-137994615D01*
X60025000Y-138585385D01*
X60251078Y-139131185D01*
X60668815Y-139548922D01*
X61214615Y-139775000D01*
X61805385Y-139775000D01*
X62351185Y-139548922D01*
X62768922Y-139131185D01*
X62995000Y-138585385D01*
X62995000Y-137994615D01*
X62900249Y-137765866D01*
X63955000Y-137765866D01*
X63955000Y-138814134D01*
X64356155Y-139782608D01*
X65097392Y-140523845D01*
X66065866Y-140925000D01*
X67114134Y-140925000D01*
X68082608Y-140523845D01*
X68823845Y-139782608D01*
X69225000Y-138814134D01*
X69225000Y-137994615D01*
X70185000Y-137994615D01*
X70185000Y-138585385D01*
X70411078Y-139131185D01*
X70828815Y-139548922D01*
X71374615Y-139775000D01*
X71965385Y-139775000D01*
X72511185Y-139548922D01*
X72928922Y-139131185D01*
X73155000Y-138585385D01*
X73155000Y-138054615D01*
X79205000Y-138054615D01*
X79205000Y-138645385D01*
X79431078Y-139191185D01*
X79848815Y-139608922D01*
X80394615Y-139835000D01*
X80985385Y-139835000D01*
X81531185Y-139608922D01*
X81948922Y-139191185D01*
X82175000Y-138645385D01*
X82175000Y-138054615D01*
X82080249Y-137825866D01*
X83135000Y-137825866D01*
X83135000Y-138874134D01*
X83536155Y-139842608D01*
X84277392Y-140583845D01*
X85245866Y-140985000D01*
X86294134Y-140985000D01*
X87262608Y-140583845D01*
X88003845Y-139842608D01*
X88405000Y-138874134D01*
X88405000Y-138054615D01*
X89365000Y-138054615D01*
X89365000Y-138645385D01*
X89591078Y-139191185D01*
X90008815Y-139608922D01*
X90554615Y-139835000D01*
X91145385Y-139835000D01*
X91485484Y-139694126D01*
X94115000Y-139694126D01*
X94115000Y-140105874D01*
X94272569Y-140486280D01*
X94390000Y-140603711D01*
X94390001Y-162675143D01*
X94375111Y-162750000D01*
X94434096Y-163046537D01*
X94602071Y-163297929D01*
X94853463Y-163465904D01*
X95075148Y-163510000D01*
X95150000Y-163524889D01*
X95224852Y-163510000D01*
X98265199Y-163510000D01*
X105807286Y-171052089D01*
X105715000Y-171274887D01*
X105715000Y-171965113D01*
X105979138Y-172602799D01*
X106467201Y-173090862D01*
X107104887Y-173355000D01*
X107795113Y-173355000D01*
X108432799Y-173090862D01*
X108920862Y-172602799D01*
X109185000Y-171965113D01*
X109185000Y-171274887D01*
X108920862Y-170637201D01*
X108432799Y-170149138D01*
X107795113Y-169885000D01*
X107104887Y-169885000D01*
X106882089Y-169977286D01*
X99170331Y-162265530D01*
X99127929Y-162202071D01*
X98876537Y-162034096D01*
X98654852Y-161990000D01*
X98654847Y-161990000D01*
X98580000Y-161975112D01*
X98505153Y-161990000D01*
X95910000Y-161990000D01*
X95910000Y-157224615D01*
X98385000Y-157224615D01*
X98385000Y-157815385D01*
X98611078Y-158361185D01*
X99028815Y-158778922D01*
X99574615Y-159005000D01*
X100165385Y-159005000D01*
X100711185Y-158778922D01*
X101128922Y-158361185D01*
X101355000Y-157815385D01*
X101355000Y-157224615D01*
X101260249Y-156995866D01*
X102315000Y-156995866D01*
X102315000Y-158044134D01*
X102716155Y-159012608D01*
X103457392Y-159753845D01*
X104425866Y-160155000D01*
X105474134Y-160155000D01*
X106442608Y-159753845D01*
X107183845Y-159012608D01*
X107585000Y-158044134D01*
X107585000Y-157224615D01*
X108545000Y-157224615D01*
X108545000Y-157815385D01*
X108771078Y-158361185D01*
X109188815Y-158778922D01*
X109734615Y-159005000D01*
X110325385Y-159005000D01*
X110871185Y-158778922D01*
X111288922Y-158361185D01*
X111515000Y-157815385D01*
X111515000Y-157224615D01*
X111288922Y-156678815D01*
X110871185Y-156261078D01*
X110325385Y-156035000D01*
X109734615Y-156035000D01*
X109188815Y-156261078D01*
X108771078Y-156678815D01*
X108545000Y-157224615D01*
X107585000Y-157224615D01*
X107585000Y-156995866D01*
X107183845Y-156027392D01*
X106442608Y-155286155D01*
X105474134Y-154885000D01*
X104425866Y-154885000D01*
X103457392Y-155286155D01*
X102716155Y-156027392D01*
X102315000Y-156995866D01*
X101260249Y-156995866D01*
X101144235Y-156715784D01*
X101541453Y-156702836D01*
X102074359Y-156482099D01*
X102185263Y-156204868D01*
X101140000Y-155159605D01*
X101125858Y-155173748D01*
X100946253Y-154994143D01*
X100960395Y-154980000D01*
X101319605Y-154980000D01*
X102364868Y-156025263D01*
X102642099Y-155914359D01*
X102885323Y-155268407D01*
X102862836Y-154578547D01*
X102642099Y-154045641D01*
X102364868Y-153934737D01*
X101319605Y-154980000D01*
X100960395Y-154980000D01*
X99915132Y-153934737D01*
X99637901Y-154045641D01*
X99394677Y-154691593D01*
X99417164Y-155381453D01*
X99637901Y-155914359D01*
X99915130Y-156025262D01*
X99905392Y-156035000D01*
X99574615Y-156035000D01*
X99028815Y-156261078D01*
X98611078Y-156678815D01*
X98385000Y-157224615D01*
X95910000Y-157224615D01*
X95910000Y-153755132D01*
X100094737Y-153755132D01*
X101140000Y-154800395D01*
X102185263Y-153755132D01*
X102074359Y-153477901D01*
X101428407Y-153234677D01*
X100738547Y-153257164D01*
X100205641Y-153477901D01*
X100094737Y-153755132D01*
X95910000Y-153755132D01*
X95910000Y-152094887D01*
X105755000Y-152094887D01*
X105755000Y-152785113D01*
X106019138Y-153422799D01*
X106507201Y-153910862D01*
X107144887Y-154175000D01*
X107835113Y-154175000D01*
X108472799Y-153910862D01*
X108960862Y-153422799D01*
X109225000Y-152785113D01*
X109225000Y-152094887D01*
X108960862Y-151457201D01*
X108472799Y-150969138D01*
X107835113Y-150705000D01*
X107144887Y-150705000D01*
X106507201Y-150969138D01*
X106019138Y-151457201D01*
X105755000Y-152094887D01*
X95910000Y-152094887D01*
X95910000Y-140603711D01*
X96027431Y-140486280D01*
X96185000Y-140105874D01*
X96185000Y-139694126D01*
X96027431Y-139313720D01*
X95736280Y-139022569D01*
X95355874Y-138865000D01*
X94944126Y-138865000D01*
X94563720Y-139022569D01*
X94272569Y-139313720D01*
X94115000Y-139694126D01*
X91485484Y-139694126D01*
X91691185Y-139608922D01*
X92108922Y-139191185D01*
X92335000Y-138645385D01*
X92335000Y-138054615D01*
X92318432Y-138014615D01*
X98385000Y-138014615D01*
X98385000Y-138605385D01*
X98611078Y-139151185D01*
X99028815Y-139568922D01*
X99574615Y-139795000D01*
X100165385Y-139795000D01*
X100711185Y-139568922D01*
X101128922Y-139151185D01*
X101355000Y-138605385D01*
X101355000Y-138014615D01*
X101260249Y-137785866D01*
X102315000Y-137785866D01*
X102315000Y-138834134D01*
X102716155Y-139802608D01*
X103457392Y-140543845D01*
X104425866Y-140945000D01*
X105474134Y-140945000D01*
X106442608Y-140543845D01*
X107183845Y-139802608D01*
X107585000Y-138834134D01*
X107585000Y-138014615D01*
X108545000Y-138014615D01*
X108545000Y-138605385D01*
X108771078Y-139151185D01*
X109188815Y-139568922D01*
X109734615Y-139795000D01*
X110325385Y-139795000D01*
X110871185Y-139568922D01*
X111288922Y-139151185D01*
X111515000Y-138605385D01*
X111515000Y-138014615D01*
X111288922Y-137468815D01*
X110871185Y-137051078D01*
X110325385Y-136825000D01*
X109734615Y-136825000D01*
X109188815Y-137051078D01*
X108771078Y-137468815D01*
X108545000Y-138014615D01*
X107585000Y-138014615D01*
X107585000Y-137785866D01*
X107183845Y-136817392D01*
X106442608Y-136076155D01*
X105474134Y-135675000D01*
X104425866Y-135675000D01*
X103457392Y-136076155D01*
X102716155Y-136817392D01*
X102315000Y-137785866D01*
X101260249Y-137785866D01*
X101144235Y-137505784D01*
X101541453Y-137492836D01*
X102074359Y-137272099D01*
X102185263Y-136994868D01*
X101140000Y-135949605D01*
X101125858Y-135963748D01*
X100946253Y-135784143D01*
X100960395Y-135770000D01*
X101319605Y-135770000D01*
X102364868Y-136815263D01*
X102642099Y-136704359D01*
X102885323Y-136058407D01*
X102862836Y-135368547D01*
X102642099Y-134835641D01*
X102364868Y-134724737D01*
X101319605Y-135770000D01*
X100960395Y-135770000D01*
X99915132Y-134724737D01*
X99637901Y-134835641D01*
X99394677Y-135481593D01*
X99417164Y-136171453D01*
X99637901Y-136704359D01*
X99915130Y-136815262D01*
X99905392Y-136825000D01*
X99574615Y-136825000D01*
X99028815Y-137051078D01*
X98611078Y-137468815D01*
X98385000Y-138014615D01*
X92318432Y-138014615D01*
X92108922Y-137508815D01*
X91691185Y-137091078D01*
X91145385Y-136865000D01*
X90554615Y-136865000D01*
X90008815Y-137091078D01*
X89591078Y-137508815D01*
X89365000Y-138054615D01*
X88405000Y-138054615D01*
X88405000Y-137825866D01*
X88003845Y-136857392D01*
X87262608Y-136116155D01*
X86294134Y-135715000D01*
X85245866Y-135715000D01*
X84277392Y-136116155D01*
X83536155Y-136857392D01*
X83135000Y-137825866D01*
X82080249Y-137825866D01*
X81964235Y-137545784D01*
X82361453Y-137532836D01*
X82894359Y-137312099D01*
X83005263Y-137034868D01*
X81960000Y-135989605D01*
X81945858Y-136003748D01*
X81766253Y-135824143D01*
X81780395Y-135810000D01*
X82139605Y-135810000D01*
X83184868Y-136855263D01*
X83462099Y-136744359D01*
X83705323Y-136098407D01*
X83682836Y-135408547D01*
X83462099Y-134875641D01*
X83184868Y-134764737D01*
X82139605Y-135810000D01*
X81780395Y-135810000D01*
X80735132Y-134764737D01*
X80457901Y-134875641D01*
X80214677Y-135521593D01*
X80237164Y-136211453D01*
X80457901Y-136744359D01*
X80735130Y-136855262D01*
X80725392Y-136865000D01*
X80394615Y-136865000D01*
X79848815Y-137091078D01*
X79431078Y-137508815D01*
X79205000Y-138054615D01*
X73155000Y-138054615D01*
X73155000Y-137994615D01*
X72928922Y-137448815D01*
X72511185Y-137031078D01*
X71965385Y-136805000D01*
X71374615Y-136805000D01*
X70828815Y-137031078D01*
X70411078Y-137448815D01*
X70185000Y-137994615D01*
X69225000Y-137994615D01*
X69225000Y-137765866D01*
X68823845Y-136797392D01*
X68082608Y-136056155D01*
X67114134Y-135655000D01*
X66065866Y-135655000D01*
X65097392Y-136056155D01*
X64356155Y-136797392D01*
X63955000Y-137765866D01*
X62900249Y-137765866D01*
X62784235Y-137485784D01*
X63181453Y-137472836D01*
X63714359Y-137252099D01*
X63825263Y-136974868D01*
X62780000Y-135929605D01*
X62765858Y-135943748D01*
X62586253Y-135764143D01*
X62600395Y-135750000D01*
X62959605Y-135750000D01*
X64004868Y-136795263D01*
X64282099Y-136684359D01*
X64525323Y-136038407D01*
X64502836Y-135348547D01*
X64282099Y-134815641D01*
X64004868Y-134704737D01*
X62959605Y-135750000D01*
X62600395Y-135750000D01*
X61555132Y-134704737D01*
X61277901Y-134815641D01*
X61034677Y-135461593D01*
X61057164Y-136151453D01*
X61277901Y-136684359D01*
X61555130Y-136795262D01*
X61545392Y-136805000D01*
X61214615Y-136805000D01*
X60668815Y-137031078D01*
X60251078Y-137448815D01*
X60025000Y-137994615D01*
X54000858Y-137994615D01*
X53778922Y-137458815D01*
X53361185Y-137041078D01*
X52815385Y-136815000D01*
X52224615Y-136815000D01*
X51678815Y-137041078D01*
X51261078Y-137458815D01*
X51035000Y-138004615D01*
X50075000Y-138004615D01*
X50075000Y-137775866D01*
X49673845Y-136807392D01*
X48932608Y-136066155D01*
X47964134Y-135665000D01*
X46915866Y-135665000D01*
X45947392Y-136066155D01*
X45206155Y-136807392D01*
X44805000Y-137775866D01*
X43750249Y-137775866D01*
X43634235Y-137495784D01*
X44031453Y-137482836D01*
X44564359Y-137262099D01*
X44675263Y-136984868D01*
X43630000Y-135939605D01*
X43615858Y-135953748D01*
X43436253Y-135774143D01*
X43450395Y-135760000D01*
X43809605Y-135760000D01*
X44854868Y-136805263D01*
X45132099Y-136694359D01*
X45375323Y-136048407D01*
X45352836Y-135358547D01*
X45132099Y-134825641D01*
X44854868Y-134714737D01*
X43809605Y-135760000D01*
X43450395Y-135760000D01*
X42405132Y-134714737D01*
X42127901Y-134825641D01*
X41884677Y-135471593D01*
X41907164Y-136161453D01*
X42127901Y-136694359D01*
X42405130Y-136805262D01*
X42395392Y-136815000D01*
X42064615Y-136815000D01*
X41518815Y-137041078D01*
X41101078Y-137458815D01*
X40875000Y-138004615D01*
X37710000Y-138004615D01*
X37710000Y-134535132D01*
X42584737Y-134535132D01*
X43630000Y-135580395D01*
X44675263Y-134535132D01*
X44564359Y-134257901D01*
X43918407Y-134014677D01*
X43228547Y-134037164D01*
X42695641Y-134257901D01*
X42584737Y-134535132D01*
X37710000Y-134535132D01*
X37710000Y-132874887D01*
X48245000Y-132874887D01*
X48245000Y-133565113D01*
X48509138Y-134202799D01*
X48997201Y-134690862D01*
X49634887Y-134955000D01*
X50325113Y-134955000D01*
X50962799Y-134690862D01*
X51128529Y-134525132D01*
X61734737Y-134525132D01*
X62780000Y-135570395D01*
X63825263Y-134525132D01*
X63714359Y-134247901D01*
X63068407Y-134004677D01*
X62378547Y-134027164D01*
X61845641Y-134247901D01*
X61734737Y-134525132D01*
X51128529Y-134525132D01*
X51450862Y-134202799D01*
X51543148Y-133980000D01*
X61205153Y-133980000D01*
X61280000Y-133994888D01*
X61354847Y-133980000D01*
X61354852Y-133980000D01*
X61576537Y-133935904D01*
X61827929Y-133767929D01*
X61870331Y-133704470D01*
X74164977Y-121409826D01*
X74164976Y-127100222D01*
X69697912Y-131567286D01*
X69475113Y-131475000D01*
X68784887Y-131475000D01*
X68147201Y-131739138D01*
X67659138Y-132227201D01*
X67395000Y-132864887D01*
X67395000Y-133555113D01*
X67659138Y-134192799D01*
X68147201Y-134680862D01*
X68784887Y-134945000D01*
X69475113Y-134945000D01*
X70112799Y-134680862D01*
X70208529Y-134585132D01*
X80914737Y-134585132D01*
X81960000Y-135630395D01*
X83005263Y-134585132D01*
X82894359Y-134307901D01*
X82248407Y-134064677D01*
X81558547Y-134087164D01*
X81025641Y-134307901D01*
X80914737Y-134585132D01*
X70208529Y-134585132D01*
X70600862Y-134192799D01*
X70865000Y-133555113D01*
X70865000Y-132864887D01*
X70772714Y-132642088D01*
X75409449Y-128005353D01*
X75472905Y-127962953D01*
X75515900Y-127898606D01*
X75640880Y-127711562D01*
X75650456Y-127663419D01*
X75684976Y-127489876D01*
X75684976Y-127489872D01*
X75699864Y-127415024D01*
X75684976Y-127340176D01*
X75684976Y-121719777D01*
X86667286Y-132702088D01*
X86575000Y-132924887D01*
X86575000Y-133615113D01*
X86839138Y-134252799D01*
X87327201Y-134740862D01*
X87964887Y-135005000D01*
X88655113Y-135005000D01*
X89292799Y-134740862D01*
X89488529Y-134545132D01*
X100094737Y-134545132D01*
X101140000Y-135590395D01*
X102185263Y-134545132D01*
X102074359Y-134267901D01*
X101428407Y-134024677D01*
X100738547Y-134047164D01*
X100205641Y-134267901D01*
X100094737Y-134545132D01*
X89488529Y-134545132D01*
X89703801Y-134329860D01*
X89882164Y-134365339D01*
X89882168Y-134365339D01*
X89957016Y-134380227D01*
X90031864Y-134365339D01*
X90578173Y-134365339D01*
X90653020Y-134380227D01*
X90727867Y-134365339D01*
X90727872Y-134365339D01*
X90949557Y-134321243D01*
X91200949Y-134153268D01*
X91243351Y-134089809D01*
X91343160Y-133990000D01*
X105926852Y-133990000D01*
X106019138Y-134212799D01*
X106507201Y-134700862D01*
X107144887Y-134965000D01*
X107835113Y-134965000D01*
X108472799Y-134700862D01*
X108960862Y-134212799D01*
X109225000Y-133575113D01*
X109225000Y-132884887D01*
X108960862Y-132247201D01*
X108472799Y-131759138D01*
X107835113Y-131495000D01*
X107144887Y-131495000D01*
X106507201Y-131759138D01*
X106019138Y-132247201D01*
X105926852Y-132470000D01*
X94494653Y-132470000D01*
X94527618Y-132420665D01*
X94879609Y-132068674D01*
X95045681Y-132068674D01*
X95426087Y-131911105D01*
X95717238Y-131619954D01*
X95874807Y-131239548D01*
X95874807Y-130827800D01*
X95717238Y-130447394D01*
X95426087Y-130156243D01*
X95045681Y-129998674D01*
X94952249Y-129998674D01*
X94899619Y-129871613D01*
X94608468Y-129580462D01*
X94587568Y-129571805D01*
X94587568Y-129369136D01*
X94429999Y-128988730D01*
X94138848Y-128697579D01*
X93758442Y-128540010D01*
X93346694Y-128540010D01*
X93246834Y-128581373D01*
X93148429Y-128482968D01*
X92768023Y-128325399D01*
X92356275Y-128325399D01*
X91975869Y-128482968D01*
X91684718Y-128774119D01*
X91527149Y-129154525D01*
X91527149Y-129566273D01*
X91684718Y-129946679D01*
X91731619Y-129993580D01*
X91712485Y-130012713D01*
X91355874Y-129865000D01*
X90944126Y-129865000D01*
X90563720Y-130022569D01*
X90272569Y-130313720D01*
X90168486Y-130565000D01*
X89844126Y-130565000D01*
X89463720Y-130722569D01*
X89205046Y-130981243D01*
X79220077Y-120996274D01*
X79386280Y-120927431D01*
X79677431Y-120636280D01*
X79803006Y-120333113D01*
X79858815Y-120388922D01*
X80404615Y-120615000D01*
X80995385Y-120615000D01*
X81541185Y-120388922D01*
X81958922Y-119971185D01*
X82185000Y-119425385D01*
X82185000Y-118834615D01*
X82090249Y-118605866D01*
X83145000Y-118605866D01*
X83145000Y-119654134D01*
X83546155Y-120622608D01*
X84287392Y-121363845D01*
X85255866Y-121765000D01*
X86304134Y-121765000D01*
X87272608Y-121363845D01*
X88013845Y-120622608D01*
X88415000Y-119654134D01*
X88415000Y-118834615D01*
X89375000Y-118834615D01*
X89375000Y-119425385D01*
X89601078Y-119971185D01*
X90018815Y-120388922D01*
X90564615Y-120615000D01*
X91155385Y-120615000D01*
X91701185Y-120388922D01*
X92118922Y-119971185D01*
X92345000Y-119425385D01*
X92345000Y-118834615D01*
X92332574Y-118804615D01*
X98385000Y-118804615D01*
X98385000Y-119395385D01*
X98611078Y-119941185D01*
X99028815Y-120358922D01*
X99574615Y-120585000D01*
X100165385Y-120585000D01*
X100711185Y-120358922D01*
X101128922Y-119941185D01*
X101355000Y-119395385D01*
X101355000Y-118804615D01*
X101260249Y-118575866D01*
X102315000Y-118575866D01*
X102315000Y-119624134D01*
X102716155Y-120592608D01*
X103457392Y-121333845D01*
X104425866Y-121735000D01*
X105474134Y-121735000D01*
X106442608Y-121333845D01*
X107183845Y-120592608D01*
X107585000Y-119624134D01*
X107585000Y-118804615D01*
X108545000Y-118804615D01*
X108545000Y-119395385D01*
X108771078Y-119941185D01*
X109188815Y-120358922D01*
X109734615Y-120585000D01*
X110325385Y-120585000D01*
X110871185Y-120358922D01*
X111288922Y-119941185D01*
X111515000Y-119395385D01*
X111515000Y-118804615D01*
X111288922Y-118258815D01*
X110871185Y-117841078D01*
X110325385Y-117615000D01*
X109734615Y-117615000D01*
X109188815Y-117841078D01*
X108771078Y-118258815D01*
X108545000Y-118804615D01*
X107585000Y-118804615D01*
X107585000Y-118575866D01*
X107183845Y-117607392D01*
X106442608Y-116866155D01*
X105474134Y-116465000D01*
X104425866Y-116465000D01*
X103457392Y-116866155D01*
X102716155Y-117607392D01*
X102315000Y-118575866D01*
X101260249Y-118575866D01*
X101144235Y-118295784D01*
X101541453Y-118282836D01*
X102074359Y-118062099D01*
X102185263Y-117784868D01*
X101140000Y-116739605D01*
X101125858Y-116753748D01*
X100946253Y-116574143D01*
X100960395Y-116560000D01*
X101319605Y-116560000D01*
X102364868Y-117605263D01*
X102642099Y-117494359D01*
X102885323Y-116848407D01*
X102862836Y-116158547D01*
X102642099Y-115625641D01*
X102364868Y-115514737D01*
X101319605Y-116560000D01*
X100960395Y-116560000D01*
X99915132Y-115514737D01*
X99637901Y-115625641D01*
X99394677Y-116271593D01*
X99417164Y-116961453D01*
X99637901Y-117494359D01*
X99915130Y-117605262D01*
X99905392Y-117615000D01*
X99574615Y-117615000D01*
X99028815Y-117841078D01*
X98611078Y-118258815D01*
X98385000Y-118804615D01*
X92332574Y-118804615D01*
X92118922Y-118288815D01*
X91701185Y-117871078D01*
X91155385Y-117645000D01*
X90564615Y-117645000D01*
X90018815Y-117871078D01*
X89601078Y-118288815D01*
X89375000Y-118834615D01*
X88415000Y-118834615D01*
X88415000Y-118605866D01*
X88013845Y-117637392D01*
X87272608Y-116896155D01*
X86304134Y-116495000D01*
X85255866Y-116495000D01*
X84287392Y-116896155D01*
X83546155Y-117637392D01*
X83145000Y-118605866D01*
X82090249Y-118605866D01*
X81974235Y-118325784D01*
X82371453Y-118312836D01*
X82904359Y-118092099D01*
X83015263Y-117814868D01*
X81970000Y-116769605D01*
X81955858Y-116783748D01*
X81776253Y-116604143D01*
X81790395Y-116590000D01*
X82149605Y-116590000D01*
X83194868Y-117635263D01*
X83472099Y-117524359D01*
X83715323Y-116878407D01*
X83692836Y-116188547D01*
X83472099Y-115655641D01*
X83194868Y-115544737D01*
X82149605Y-116590000D01*
X81790395Y-116590000D01*
X80745132Y-115544737D01*
X80467901Y-115655641D01*
X80224677Y-116301593D01*
X80247164Y-116991453D01*
X80467901Y-117524359D01*
X80745130Y-117635262D01*
X80735392Y-117645000D01*
X80404615Y-117645000D01*
X79858815Y-117871078D01*
X79560000Y-118169893D01*
X79560000Y-115365132D01*
X80924737Y-115365132D01*
X81970000Y-116410395D01*
X83015263Y-115365132D01*
X82904359Y-115087901D01*
X82258407Y-114844677D01*
X81568547Y-114867164D01*
X81035641Y-115087901D01*
X80924737Y-115365132D01*
X79560000Y-115365132D01*
X79560000Y-113364801D01*
X81689802Y-111235000D01*
X81855874Y-111235000D01*
X82225000Y-111082103D01*
X82594126Y-111235000D01*
X83005874Y-111235000D01*
X83115000Y-111189799D01*
X83115000Y-111205874D01*
X83272569Y-111586280D01*
X83563720Y-111877431D01*
X83944126Y-112035000D01*
X84355874Y-112035000D01*
X84614645Y-111927814D01*
X84994126Y-112085000D01*
X85405874Y-112085000D01*
X85775000Y-111932103D01*
X86144126Y-112085000D01*
X86310198Y-112085000D01*
X86484671Y-112259473D01*
X86527072Y-112322930D01*
X86778464Y-112490905D01*
X87000149Y-112535001D01*
X87000153Y-112535001D01*
X87075000Y-112549889D01*
X87149847Y-112535001D01*
X87443757Y-112535001D01*
X87337201Y-112579138D01*
X86849138Y-113067201D01*
X86585000Y-113704887D01*
X86585000Y-114395113D01*
X86849138Y-115032799D01*
X87337201Y-115520862D01*
X87974887Y-115785000D01*
X88665113Y-115785000D01*
X89302799Y-115520862D01*
X89488529Y-115335132D01*
X100094737Y-115335132D01*
X101140000Y-116380395D01*
X102185263Y-115335132D01*
X102074359Y-115057901D01*
X101428407Y-114814677D01*
X100738547Y-114837164D01*
X100205641Y-115057901D01*
X100094737Y-115335132D01*
X89488529Y-115335132D01*
X89790862Y-115032799D01*
X90055000Y-114395113D01*
X90055000Y-113704887D01*
X89790862Y-113067201D01*
X89302799Y-112579138D01*
X89196243Y-112535001D01*
X89660708Y-112535001D01*
X91514389Y-114388684D01*
X91556787Y-114452137D01*
X91620240Y-114494535D01*
X91620242Y-114494537D01*
X91638103Y-114506471D01*
X91808179Y-114620112D01*
X91951004Y-114648522D01*
X92084121Y-114781639D01*
X92464527Y-114939208D01*
X92876275Y-114939208D01*
X93256681Y-114781639D01*
X93531849Y-114506471D01*
X93777809Y-114506471D01*
X94158215Y-114348902D01*
X94433383Y-114073734D01*
X94679343Y-114073734D01*
X95059749Y-113916165D01*
X95301027Y-113674887D01*
X105755000Y-113674887D01*
X105755000Y-114365113D01*
X106019138Y-115002799D01*
X106507201Y-115490862D01*
X107144887Y-115755000D01*
X107835113Y-115755000D01*
X108472799Y-115490862D01*
X108960862Y-115002799D01*
X109225000Y-114365113D01*
X109225000Y-113674887D01*
X108960862Y-113037201D01*
X108472799Y-112549138D01*
X107835113Y-112285000D01*
X107144887Y-112285000D01*
X106507201Y-112549138D01*
X106019138Y-113037201D01*
X105755000Y-113674887D01*
X95301027Y-113674887D01*
X95334917Y-113640997D01*
X95580877Y-113640997D01*
X95961283Y-113483428D01*
X96022303Y-113422408D01*
X96294126Y-113535000D01*
X96705874Y-113535000D01*
X97086280Y-113377431D01*
X97377431Y-113086280D01*
X97535000Y-112705874D01*
X97535000Y-112294126D01*
X97377431Y-111913720D01*
X97086280Y-111622569D01*
X97019007Y-111594704D01*
X97027431Y-111586280D01*
X97185000Y-111205874D01*
X97185000Y-110794126D01*
X97027431Y-110413720D01*
X96736280Y-110122569D01*
X96355874Y-109965000D01*
X95944126Y-109965000D01*
X95563720Y-110122569D01*
X95272569Y-110413720D01*
X95115000Y-110794126D01*
X95115000Y-111205874D01*
X95161186Y-111317377D01*
X92734314Y-108890507D01*
X92691912Y-108827048D01*
X92440520Y-108659073D01*
X92218835Y-108614977D01*
X92218830Y-108614977D01*
X92143983Y-108600089D01*
X92069136Y-108614977D01*
X83699871Y-108614977D01*
X83625023Y-108600089D01*
X83550175Y-108614977D01*
X83550171Y-108614977D01*
X83376628Y-108649497D01*
X83328485Y-108659073D01*
X83141441Y-108784053D01*
X83077094Y-108827048D01*
X83034694Y-108890504D01*
X82760198Y-109165000D01*
X82594126Y-109165000D01*
X82225000Y-109317897D01*
X81855874Y-109165000D01*
X81444126Y-109165000D01*
X81063720Y-109322569D01*
X81034972Y-109351317D01*
X80705874Y-109215000D01*
X80294126Y-109215000D01*
X79975000Y-109347186D01*
X79655874Y-109215000D01*
X79244126Y-109215000D01*
X78863720Y-109372569D01*
X78572569Y-109663720D01*
X78415000Y-110044126D01*
X78415000Y-110210198D01*
X76610000Y-112015199D01*
X76610000Y-110914801D01*
X82507911Y-105016890D01*
X106458524Y-105016890D01*
X106628355Y-105426924D01*
X107018642Y-105855183D01*
X107543108Y-106101486D01*
X107773000Y-105980819D01*
X107773000Y-104787000D01*
X106579845Y-104787000D01*
X106458524Y-105016890D01*
X82507911Y-105016890D01*
X84284473Y-103240329D01*
X84347929Y-103197929D01*
X84425034Y-103082533D01*
X84515904Y-102946538D01*
X84555580Y-102747072D01*
X84560000Y-102724852D01*
X84560000Y-102724848D01*
X84574888Y-102650000D01*
X84560000Y-102575152D01*
X84560000Y-100856626D01*
X100735000Y-100856626D01*
X100735000Y-101268374D01*
X100892569Y-101648780D01*
X101183720Y-101939931D01*
X101564126Y-102097500D01*
X101730199Y-102097500D01*
X103412171Y-103779473D01*
X103454572Y-103842930D01*
X103705964Y-104010905D01*
X103927649Y-104055001D01*
X103927653Y-104055001D01*
X104002500Y-104069889D01*
X104077347Y-104055001D01*
X106561288Y-104055001D01*
X106458524Y-104303110D01*
X106579845Y-104533000D01*
X107773000Y-104533000D01*
X107773000Y-104513000D01*
X108027000Y-104513000D01*
X108027000Y-104533000D01*
X108047000Y-104533000D01*
X108047000Y-104787000D01*
X108027000Y-104787000D01*
X108027000Y-105980819D01*
X108256892Y-106101486D01*
X108781358Y-105855183D01*
X109168647Y-105430214D01*
X109369375Y-105730625D01*
X109860582Y-106058839D01*
X110293744Y-106145000D01*
X110586256Y-106145000D01*
X111019418Y-106058839D01*
X111510625Y-105730625D01*
X111838839Y-105239418D01*
X111954092Y-104660000D01*
X111838839Y-104080582D01*
X111510625Y-103589375D01*
X111212239Y-103390000D01*
X111510625Y-103190625D01*
X111838839Y-102699418D01*
X111954092Y-102120000D01*
X111838839Y-101540582D01*
X111510625Y-101049375D01*
X111212239Y-100850000D01*
X111510625Y-100650625D01*
X111838839Y-100159418D01*
X111954092Y-99580000D01*
X111838839Y-99000582D01*
X111510625Y-98509375D01*
X111212239Y-98310000D01*
X111510625Y-98110625D01*
X111838839Y-97619418D01*
X111954092Y-97040000D01*
X111838839Y-96460582D01*
X111510625Y-95969375D01*
X111212239Y-95770000D01*
X111510625Y-95570625D01*
X111838839Y-95079418D01*
X111954092Y-94500000D01*
X111838839Y-93920582D01*
X111510625Y-93429375D01*
X111019418Y-93101161D01*
X110586256Y-93015000D01*
X110293744Y-93015000D01*
X109860582Y-93101161D01*
X109369375Y-93429375D01*
X109357184Y-93447619D01*
X109348157Y-93402235D01*
X109207809Y-93192191D01*
X108997765Y-93051843D01*
X108750000Y-93002560D01*
X107050000Y-93002560D01*
X106802235Y-93051843D01*
X106592191Y-93192191D01*
X106451843Y-93402235D01*
X106402560Y-93650000D01*
X106402560Y-95350000D01*
X106451843Y-95597765D01*
X106592191Y-95807809D01*
X106802235Y-95948157D01*
X106847619Y-95957184D01*
X106829375Y-95969375D01*
X106501161Y-96460582D01*
X106385908Y-97040000D01*
X106501161Y-97619418D01*
X106829375Y-98110625D01*
X107127761Y-98310000D01*
X106829375Y-98509375D01*
X106501161Y-99000582D01*
X106385908Y-99580000D01*
X106501161Y-100159418D01*
X106829375Y-100650625D01*
X107127761Y-100850000D01*
X106829375Y-101049375D01*
X106501161Y-101540582D01*
X106385908Y-102120000D01*
X106468457Y-102535001D01*
X104317303Y-102535001D01*
X102805000Y-101022699D01*
X102805000Y-100856626D01*
X102647431Y-100476220D01*
X102356280Y-100185069D01*
X101975874Y-100027500D01*
X101564126Y-100027500D01*
X101183720Y-100185069D01*
X100892569Y-100476220D01*
X100735000Y-100856626D01*
X84560000Y-100856626D01*
X84560000Y-100375944D01*
X84574888Y-100301097D01*
X84560000Y-100226250D01*
X84560000Y-100226246D01*
X84515904Y-100004561D01*
X84347929Y-99753169D01*
X84284473Y-99710769D01*
X83314328Y-98740625D01*
X83271926Y-98677166D01*
X83020534Y-98509191D01*
X82798849Y-98465095D01*
X82798844Y-98465095D01*
X82723997Y-98450207D01*
X82649150Y-98465095D01*
X82641324Y-98465095D01*
X82523893Y-98347664D01*
X82143487Y-98190095D01*
X81731739Y-98190095D01*
X81351333Y-98347664D01*
X81060182Y-98638815D01*
X80902613Y-99019221D01*
X80902613Y-99430969D01*
X81060182Y-99811375D01*
X81351333Y-100102526D01*
X81731739Y-100260095D01*
X81920742Y-100260095D01*
X81902034Y-100305260D01*
X81902034Y-100451690D01*
X81824270Y-100483901D01*
X81533119Y-100775052D01*
X81375550Y-101155458D01*
X81375550Y-101326161D01*
X81321728Y-101348455D01*
X81030577Y-101639606D01*
X80873008Y-102020012D01*
X80873008Y-102186084D01*
X74015495Y-109043598D01*
X73952039Y-109085998D01*
X73909639Y-109149454D01*
X73909638Y-109149455D01*
X73784064Y-109337390D01*
X73725079Y-109633927D01*
X73739968Y-109708779D01*
X73739967Y-115592258D01*
X73700077Y-115792798D01*
X73714966Y-115867650D01*
X73714965Y-119710232D01*
X60965199Y-132460000D01*
X51543148Y-132460000D01*
X51450862Y-132237201D01*
X50962799Y-131749138D01*
X50325113Y-131485000D01*
X49634887Y-131485000D01*
X48997201Y-131749138D01*
X48509138Y-132237201D01*
X48245000Y-132874887D01*
X37710000Y-132874887D01*
X37710000Y-118814615D01*
X40875000Y-118814615D01*
X40875000Y-119405385D01*
X41101078Y-119951185D01*
X41518815Y-120368922D01*
X42064615Y-120595000D01*
X42655385Y-120595000D01*
X43201185Y-120368922D01*
X43618922Y-119951185D01*
X43845000Y-119405385D01*
X43845000Y-118814615D01*
X43750249Y-118585866D01*
X44805000Y-118585866D01*
X44805000Y-119634134D01*
X45206155Y-120602608D01*
X45947392Y-121343845D01*
X46915866Y-121745000D01*
X47964134Y-121745000D01*
X48932608Y-121343845D01*
X49673845Y-120602608D01*
X50075000Y-119634134D01*
X50075000Y-118814615D01*
X51035000Y-118814615D01*
X51035000Y-119405385D01*
X51261078Y-119951185D01*
X51678815Y-120368922D01*
X52224615Y-120595000D01*
X52815385Y-120595000D01*
X53361185Y-120368922D01*
X53778922Y-119951185D01*
X54005000Y-119405385D01*
X54005000Y-118834615D01*
X60015000Y-118834615D01*
X60015000Y-119425385D01*
X60241078Y-119971185D01*
X60658815Y-120388922D01*
X61204615Y-120615000D01*
X61795385Y-120615000D01*
X62341185Y-120388922D01*
X62758922Y-119971185D01*
X62985000Y-119425385D01*
X62985000Y-118834615D01*
X62890249Y-118605866D01*
X63945000Y-118605866D01*
X63945000Y-119654134D01*
X64346155Y-120622608D01*
X65087392Y-121363845D01*
X66055866Y-121765000D01*
X67104134Y-121765000D01*
X68072608Y-121363845D01*
X68813845Y-120622608D01*
X69215000Y-119654134D01*
X69215000Y-118834615D01*
X70175000Y-118834615D01*
X70175000Y-119425385D01*
X70401078Y-119971185D01*
X70818815Y-120388922D01*
X71364615Y-120615000D01*
X71955385Y-120615000D01*
X72501185Y-120388922D01*
X72918922Y-119971185D01*
X73145000Y-119425385D01*
X73145000Y-118834615D01*
X72918922Y-118288815D01*
X72501185Y-117871078D01*
X71955385Y-117645000D01*
X71364615Y-117645000D01*
X70818815Y-117871078D01*
X70401078Y-118288815D01*
X70175000Y-118834615D01*
X69215000Y-118834615D01*
X69215000Y-118605866D01*
X68813845Y-117637392D01*
X68072608Y-116896155D01*
X67104134Y-116495000D01*
X66055866Y-116495000D01*
X65087392Y-116896155D01*
X64346155Y-117637392D01*
X63945000Y-118605866D01*
X62890249Y-118605866D01*
X62774235Y-118325784D01*
X63171453Y-118312836D01*
X63704359Y-118092099D01*
X63815263Y-117814868D01*
X62770000Y-116769605D01*
X62755858Y-116783748D01*
X62576253Y-116604143D01*
X62590395Y-116590000D01*
X62949605Y-116590000D01*
X63994868Y-117635263D01*
X64272099Y-117524359D01*
X64515323Y-116878407D01*
X64492836Y-116188547D01*
X64272099Y-115655641D01*
X63994868Y-115544737D01*
X62949605Y-116590000D01*
X62590395Y-116590000D01*
X61545132Y-115544737D01*
X61267901Y-115655641D01*
X61024677Y-116301593D01*
X61047164Y-116991453D01*
X61267901Y-117524359D01*
X61545130Y-117635262D01*
X61535392Y-117645000D01*
X61204615Y-117645000D01*
X60658815Y-117871078D01*
X60241078Y-118288815D01*
X60015000Y-118834615D01*
X54005000Y-118834615D01*
X54005000Y-118814615D01*
X53778922Y-118268815D01*
X53361185Y-117851078D01*
X52815385Y-117625000D01*
X52224615Y-117625000D01*
X51678815Y-117851078D01*
X51261078Y-118268815D01*
X51035000Y-118814615D01*
X50075000Y-118814615D01*
X50075000Y-118585866D01*
X49673845Y-117617392D01*
X48932608Y-116876155D01*
X47964134Y-116475000D01*
X46915866Y-116475000D01*
X45947392Y-116876155D01*
X45206155Y-117617392D01*
X44805000Y-118585866D01*
X43750249Y-118585866D01*
X43634235Y-118305784D01*
X44031453Y-118292836D01*
X44564359Y-118072099D01*
X44675263Y-117794868D01*
X43630000Y-116749605D01*
X43615858Y-116763748D01*
X43436253Y-116584143D01*
X43450395Y-116570000D01*
X43809605Y-116570000D01*
X44854868Y-117615263D01*
X45132099Y-117504359D01*
X45375323Y-116858407D01*
X45352836Y-116168547D01*
X45132099Y-115635641D01*
X44854868Y-115524737D01*
X43809605Y-116570000D01*
X43450395Y-116570000D01*
X42405132Y-115524737D01*
X42127901Y-115635641D01*
X41884677Y-116281593D01*
X41907164Y-116971453D01*
X42127901Y-117504359D01*
X42405130Y-117615262D01*
X42395392Y-117625000D01*
X42064615Y-117625000D01*
X41518815Y-117851078D01*
X41101078Y-118268815D01*
X40875000Y-118814615D01*
X37710000Y-118814615D01*
X37710000Y-115345132D01*
X42584737Y-115345132D01*
X43630000Y-116390395D01*
X44675263Y-115345132D01*
X44564359Y-115067901D01*
X43918407Y-114824677D01*
X43228547Y-114847164D01*
X42695641Y-115067901D01*
X42584737Y-115345132D01*
X37710000Y-115345132D01*
X37710000Y-113684887D01*
X48245000Y-113684887D01*
X48245000Y-114375113D01*
X48509138Y-115012799D01*
X48997201Y-115500862D01*
X49634887Y-115765000D01*
X50325113Y-115765000D01*
X50962799Y-115500862D01*
X51098529Y-115365132D01*
X61724737Y-115365132D01*
X62770000Y-116410395D01*
X63815263Y-115365132D01*
X63704359Y-115087901D01*
X63058407Y-114844677D01*
X62368547Y-114867164D01*
X61835641Y-115087901D01*
X61724737Y-115365132D01*
X51098529Y-115365132D01*
X51450862Y-115012799D01*
X51715000Y-114375113D01*
X51715000Y-113704887D01*
X67385000Y-113704887D01*
X67385000Y-114395113D01*
X67649138Y-115032799D01*
X68137201Y-115520862D01*
X68774887Y-115785000D01*
X69465113Y-115785000D01*
X70102799Y-115520862D01*
X70590862Y-115032799D01*
X70855000Y-114395113D01*
X70855000Y-113704887D01*
X70590862Y-113067201D01*
X70102799Y-112579138D01*
X69465113Y-112315000D01*
X68774887Y-112315000D01*
X68137201Y-112579138D01*
X67649138Y-113067201D01*
X67385000Y-113704887D01*
X51715000Y-113704887D01*
X51715000Y-113684887D01*
X51450862Y-113047201D01*
X50962799Y-112559138D01*
X50325113Y-112295000D01*
X49634887Y-112295000D01*
X48997201Y-112559138D01*
X48509138Y-113047201D01*
X48245000Y-113684887D01*
X37710000Y-113684887D01*
X37710000Y-89910000D01*
X41930074Y-89910000D01*
X42000000Y-89923909D01*
X42069925Y-89910000D01*
X42069926Y-89910000D01*
X42277028Y-89868805D01*
X42511881Y-89711881D01*
X42586637Y-89600000D01*
X55526091Y-89600000D01*
X55581195Y-89877028D01*
X55738119Y-90111881D01*
X55972972Y-90268805D01*
X56250000Y-90323909D01*
X56319925Y-90310000D01*
X96680074Y-90310000D01*
X96750000Y-90323909D01*
X96819925Y-90310000D01*
X96819926Y-90310000D01*
X97027028Y-90268805D01*
X97261881Y-90111881D01*
X97418805Y-89877028D01*
X97473909Y-89600000D01*
X97460000Y-89530074D01*
X97460000Y-79730074D01*
X97456955Y-79714764D01*
X97382267Y-78004126D01*
X97376869Y-77942422D01*
X97146283Y-76190950D01*
X97135527Y-76129951D01*
X97135526Y-76129946D01*
X96753168Y-74405242D01*
X96737137Y-74345413D01*
X96205915Y-72660591D01*
X96195246Y-72631279D01*
X96184730Y-72602386D01*
X95508687Y-70970275D01*
X95482510Y-70914138D01*
X94666792Y-69347158D01*
X94641008Y-69302500D01*
X94635822Y-69293517D01*
X93686637Y-67803594D01*
X93651110Y-67752856D01*
X92575681Y-66351330D01*
X92551258Y-66322225D01*
X92535867Y-66303882D01*
X91342379Y-65001419D01*
X91298581Y-64957621D01*
X89996118Y-63764133D01*
X89962159Y-63735638D01*
X89948670Y-63724319D01*
X88547144Y-62648890D01*
X88540830Y-62644469D01*
X88496406Y-62613363D01*
X87006483Y-61664178D01*
X86952841Y-61633208D01*
X85385862Y-60817489D01*
X85355396Y-60803283D01*
X85329725Y-60791312D01*
X83697622Y-60115274D01*
X83697614Y-60115270D01*
X83639409Y-60094085D01*
X81954587Y-59562863D01*
X81894758Y-59546832D01*
X80170048Y-59164473D01*
X80109049Y-59153717D01*
X78357578Y-58923131D01*
X78295873Y-58917733D01*
X76530970Y-58840676D01*
X76469030Y-58840676D01*
X74704126Y-58917733D01*
X74642422Y-58923131D01*
X72890950Y-59153717D01*
X72829951Y-59164473D01*
X72829946Y-59164474D01*
X71105242Y-59546832D01*
X71061282Y-59558611D01*
X71045413Y-59562863D01*
X69360591Y-60094085D01*
X69302386Y-60115270D01*
X67670275Y-60791313D01*
X67614138Y-60817490D01*
X66047158Y-61633208D01*
X66030384Y-61642893D01*
X65993517Y-61664178D01*
X64503594Y-62613363D01*
X64459170Y-62644469D01*
X64452856Y-62648890D01*
X63051330Y-63724319D01*
X63037841Y-63735638D01*
X63003882Y-63764133D01*
X61701419Y-64957621D01*
X61657621Y-65001419D01*
X60464133Y-66303882D01*
X60448742Y-66322225D01*
X60424319Y-66351330D01*
X59348890Y-67752856D01*
X59313363Y-67803594D01*
X58364178Y-69293517D01*
X58333208Y-69347159D01*
X57517489Y-70914138D01*
X57515497Y-70918411D01*
X57491312Y-70970275D01*
X56815274Y-72602378D01*
X56815270Y-72602386D01*
X56794085Y-72660591D01*
X56262863Y-74345413D01*
X56246832Y-74405242D01*
X55864473Y-76129951D01*
X55864473Y-76129952D01*
X55853717Y-76190951D01*
X55623131Y-77942422D01*
X55623131Y-77942423D01*
X55617733Y-78004127D01*
X55543045Y-79714771D01*
X55540001Y-79730074D01*
X55540000Y-89530074D01*
X55526091Y-89600000D01*
X42586637Y-89600000D01*
X42668805Y-89477028D01*
X42668805Y-89477027D01*
X42710000Y-89269926D01*
X42710000Y-89269925D01*
X42723909Y-89200000D01*
X42710000Y-89130074D01*
X42710000Y-79562089D01*
X42788197Y-77265376D01*
X43021187Y-74991359D01*
X43408314Y-72738418D01*
X43947771Y-70517054D01*
X44637068Y-68337517D01*
X45473007Y-66209918D01*
X46451726Y-64144089D01*
X47568685Y-62149614D01*
X48818717Y-60235722D01*
X50196024Y-58411290D01*
X51694224Y-56684767D01*
X53306394Y-55064133D01*
X55025053Y-53556911D01*
X56842244Y-52170075D01*
X58749558Y-50910043D01*
X60738152Y-49782659D01*
X62798824Y-48793138D01*
X64922037Y-47946062D01*
X67097915Y-47245370D01*
X69316437Y-46694284D01*
X71567315Y-46295369D01*
X73840089Y-46050473D01*
X76124271Y-45960727D01*
X78409263Y-46026549D01*
X78409263Y-46026549D01*
G37*
X78409263Y-46026549D02*
X80684485Y-46247631D01*
X82939409Y-46622954D01*
X85163567Y-47150773D01*
X87346683Y-47828648D01*
X89478652Y-48653444D01*
X91549564Y-49621327D01*
X93549853Y-50727825D01*
X95470266Y-51967820D01*
X97301885Y-53335555D01*
X99036232Y-54824698D01*
X100665271Y-56428347D01*
X102181482Y-58139101D01*
X103577816Y-59949007D01*
X104847821Y-61849706D01*
X105985594Y-63832358D01*
X106985896Y-65887828D01*
X107844071Y-68006561D01*
X108556152Y-70178756D01*
X109118847Y-72394372D01*
X109529538Y-74643103D01*
X109786332Y-76914580D01*
X109888492Y-79208484D01*
X109890000Y-79496432D01*
X109890001Y-89130069D01*
X109876091Y-89200000D01*
X109931195Y-89477028D01*
X110088119Y-89711881D01*
X110322972Y-89868805D01*
X110530074Y-89910000D01*
X110530075Y-89910000D01*
X110600000Y-89923909D01*
X110669926Y-89910000D01*
X114340001Y-89910000D01*
X114340000Y-186540000D01*
X37710000Y-186540000D01*
X37710000Y-176394615D01*
X40835000Y-176394615D01*
X40835000Y-176985385D01*
X41061078Y-177531185D01*
X41478815Y-177948922D01*
X42024615Y-178175000D01*
X42615385Y-178175000D01*
X43161185Y-177948922D01*
X43578922Y-177531185D01*
X43805000Y-176985385D01*
X43805000Y-176394615D01*
X43710249Y-176165866D01*
X44765000Y-176165866D01*
X44765000Y-177214134D01*
X45166155Y-178182608D01*
X45907392Y-178923845D01*
X46875866Y-179325000D01*
X47924134Y-179325000D01*
X48892608Y-178923845D01*
X49633845Y-178182608D01*
X50035000Y-177214134D01*
X50035000Y-176394615D01*
X50995000Y-176394615D01*
X50995000Y-176985385D01*
X51221078Y-177531185D01*
X51638815Y-177948922D01*
X52184615Y-178175000D01*
X52775385Y-178175000D01*
X53321185Y-177948922D01*
X53738922Y-177531185D01*
X53965000Y-176985385D01*
X53965000Y-176394615D01*
X53952574Y-176364615D01*
X60025000Y-176364615D01*
X60025000Y-176955385D01*
X60251078Y-177501185D01*
X60668815Y-177918922D01*
X61214615Y-178145000D01*
X61805385Y-178145000D01*
X62351185Y-177918922D01*
X62768922Y-177501185D01*
X62995000Y-176955385D01*
X62995000Y-176364615D01*
X62900249Y-176135866D01*
X63955000Y-176135866D01*
X63955000Y-177184134D01*
X64356155Y-178152608D01*
X65097392Y-178893845D01*
X66065866Y-179295000D01*
X67114134Y-179295000D01*
X68082608Y-178893845D01*
X68823845Y-178152608D01*
X69225000Y-177184134D01*
X69225000Y-176364615D01*
X70185000Y-176364615D01*
X70185000Y-176955385D01*
X70411078Y-177501185D01*
X70828815Y-177918922D01*
X71374615Y-178145000D01*
X71965385Y-178145000D01*
X72511185Y-177918922D01*
X72928922Y-177501185D01*
X73155000Y-176955385D01*
X73155000Y-176414615D01*
X79215000Y-176414615D01*
X79215000Y-177005385D01*
X79441078Y-177551185D01*
X79858815Y-177968922D01*
X80404615Y-178195000D01*
X80995385Y-178195000D01*
X81541185Y-177968922D01*
X81958922Y-177551185D01*
X82185000Y-177005385D01*
X82185000Y-176414615D01*
X82090249Y-176185866D01*
X83145000Y-176185866D01*
X83145000Y-177234134D01*
X83546155Y-178202608D01*
X84287392Y-178943845D01*
X85255866Y-179345000D01*
X86304134Y-179345000D01*
X87272608Y-178943845D01*
X88013845Y-178202608D01*
X88415000Y-177234134D01*
X88415000Y-176414615D01*
X89375000Y-176414615D01*
X89375000Y-177005385D01*
X89601078Y-177551185D01*
X90018815Y-177968922D01*
X90564615Y-178195000D01*
X91155385Y-178195000D01*
X91701185Y-177968922D01*
X92118922Y-177551185D01*
X92345000Y-177005385D01*
X92345000Y-176414615D01*
X92340858Y-176404615D01*
X98345000Y-176404615D01*
X98345000Y-176995385D01*
X98571078Y-177541185D01*
X98988815Y-177958922D01*
X99534615Y-178185000D01*
X100125385Y-178185000D01*
X100671185Y-177958922D01*
X101088922Y-177541185D01*
X101315000Y-176995385D01*
X101315000Y-176404615D01*
X101220249Y-176175866D01*
X102275000Y-176175866D01*
X102275000Y-177224134D01*
X102676155Y-178192608D01*
X103417392Y-178933845D01*
X104385866Y-179335000D01*
X105434134Y-179335000D01*
X106402608Y-178933845D01*
X107143845Y-178192608D01*
X107545000Y-177224134D01*
X107545000Y-176404615D01*
X108505000Y-176404615D01*
X108505000Y-176995385D01*
X108731078Y-177541185D01*
X109148815Y-177958922D01*
X109694615Y-178185000D01*
X110285385Y-178185000D01*
X110831185Y-177958922D01*
X111248922Y-177541185D01*
X111475000Y-176995385D01*
X111475000Y-176404615D01*
X111248922Y-175858815D01*
X110831185Y-175441078D01*
X110285385Y-175215000D01*
X109694615Y-175215000D01*
X109148815Y-175441078D01*
X108731078Y-175858815D01*
X108505000Y-176404615D01*
X107545000Y-176404615D01*
X107545000Y-176175866D01*
X107143845Y-175207392D01*
X106402608Y-174466155D01*
X105434134Y-174065000D01*
X104385866Y-174065000D01*
X103417392Y-174466155D01*
X102676155Y-175207392D01*
X102275000Y-176175866D01*
X101220249Y-176175866D01*
X101104235Y-175895784D01*
X101501453Y-175882836D01*
X102034359Y-175662099D01*
X102145263Y-175384868D01*
X101100000Y-174339605D01*
X101085858Y-174353748D01*
X100906253Y-174174143D01*
X100920395Y-174160000D01*
X101279605Y-174160000D01*
X102324868Y-175205263D01*
X102602099Y-175094359D01*
X102845323Y-174448407D01*
X102822836Y-173758547D01*
X102602099Y-173225641D01*
X102324868Y-173114737D01*
X101279605Y-174160000D01*
X100920395Y-174160000D01*
X99875132Y-173114737D01*
X99597901Y-173225641D01*
X99354677Y-173871593D01*
X99377164Y-174561453D01*
X99597901Y-175094359D01*
X99875130Y-175205262D01*
X99865392Y-175215000D01*
X99534615Y-175215000D01*
X98988815Y-175441078D01*
X98571078Y-175858815D01*
X98345000Y-176404615D01*
X92340858Y-176404615D01*
X92118922Y-175868815D01*
X91701185Y-175451078D01*
X91155385Y-175225000D01*
X90564615Y-175225000D01*
X90018815Y-175451078D01*
X89601078Y-175868815D01*
X89375000Y-176414615D01*
X88415000Y-176414615D01*
X88415000Y-176185866D01*
X88013845Y-175217392D01*
X87272608Y-174476155D01*
X86304134Y-174075000D01*
X85255866Y-174075000D01*
X84287392Y-174476155D01*
X83546155Y-175217392D01*
X83145000Y-176185866D01*
X82090249Y-176185866D01*
X81974235Y-175905784D01*
X82371453Y-175892836D01*
X82904359Y-175672099D01*
X83015263Y-175394868D01*
X81970000Y-174349605D01*
X81955858Y-174363748D01*
X81776253Y-174184143D01*
X81790395Y-174170000D01*
X82149605Y-174170000D01*
X83194868Y-175215263D01*
X83472099Y-175104359D01*
X83715323Y-174458407D01*
X83692836Y-173768547D01*
X83472099Y-173235641D01*
X83194868Y-173124737D01*
X82149605Y-174170000D01*
X81790395Y-174170000D01*
X80745132Y-173124737D01*
X80467901Y-173235641D01*
X80224677Y-173881593D01*
X80247164Y-174571453D01*
X80467901Y-175104359D01*
X80745130Y-175215262D01*
X80735392Y-175225000D01*
X80404615Y-175225000D01*
X79858815Y-175451078D01*
X79441078Y-175868815D01*
X79215000Y-176414615D01*
X73155000Y-176414615D01*
X73155000Y-176364615D01*
X72928922Y-175818815D01*
X72511185Y-175401078D01*
X71965385Y-175175000D01*
X71374615Y-175175000D01*
X70828815Y-175401078D01*
X70411078Y-175818815D01*
X70185000Y-176364615D01*
X69225000Y-176364615D01*
X69225000Y-176135866D01*
X68823845Y-175167392D01*
X68082608Y-174426155D01*
X67114134Y-174025000D01*
X66065866Y-174025000D01*
X65097392Y-174426155D01*
X64356155Y-175167392D01*
X63955000Y-176135866D01*
X62900249Y-176135866D01*
X62784235Y-175855784D01*
X63181453Y-175842836D01*
X63714359Y-175622099D01*
X63825263Y-175344868D01*
X62780000Y-174299605D01*
X62765858Y-174313748D01*
X62586253Y-174134143D01*
X62600395Y-174120000D01*
X62959605Y-174120000D01*
X64004868Y-175165263D01*
X64282099Y-175054359D01*
X64525323Y-174408407D01*
X64502836Y-173718547D01*
X64282099Y-173185641D01*
X64004868Y-173074737D01*
X62959605Y-174120000D01*
X62600395Y-174120000D01*
X61555132Y-173074737D01*
X61277901Y-173185641D01*
X61034677Y-173831593D01*
X61057164Y-174521453D01*
X61277901Y-175054359D01*
X61555130Y-175165262D01*
X61545392Y-175175000D01*
X61214615Y-175175000D01*
X60668815Y-175401078D01*
X60251078Y-175818815D01*
X60025000Y-176364615D01*
X53952574Y-176364615D01*
X53738922Y-175848815D01*
X53321185Y-175431078D01*
X52775385Y-175205000D01*
X52184615Y-175205000D01*
X51638815Y-175431078D01*
X51221078Y-175848815D01*
X50995000Y-176394615D01*
X50035000Y-176394615D01*
X50035000Y-176165866D01*
X49633845Y-175197392D01*
X48892608Y-174456155D01*
X47924134Y-174055000D01*
X46875866Y-174055000D01*
X45907392Y-174456155D01*
X45166155Y-175197392D01*
X44765000Y-176165866D01*
X43710249Y-176165866D01*
X43594235Y-175885784D01*
X43991453Y-175872836D01*
X44524359Y-175652099D01*
X44635263Y-175374868D01*
X43590000Y-174329605D01*
X43575858Y-174343748D01*
X43396253Y-174164143D01*
X43410395Y-174150000D01*
X43769605Y-174150000D01*
X44814868Y-175195263D01*
X45092099Y-175084359D01*
X45335323Y-174438407D01*
X45312836Y-173748547D01*
X45092099Y-173215641D01*
X44814868Y-173104737D01*
X43769605Y-174150000D01*
X43410395Y-174150000D01*
X42365132Y-173104737D01*
X42087901Y-173215641D01*
X41844677Y-173861593D01*
X41867164Y-174551453D01*
X42087901Y-175084359D01*
X42365130Y-175195262D01*
X42355392Y-175205000D01*
X42024615Y-175205000D01*
X41478815Y-175431078D01*
X41061078Y-175848815D01*
X40835000Y-176394615D01*
X37710000Y-176394615D01*
X37710000Y-172925132D01*
X42544737Y-172925132D01*
X43590000Y-173970395D01*
X44635263Y-172925132D01*
X44524359Y-172647901D01*
X43878407Y-172404677D01*
X43188547Y-172427164D01*
X42655641Y-172647901D01*
X42544737Y-172925132D01*
X37710000Y-172925132D01*
X37710000Y-171264887D01*
X48205000Y-171264887D01*
X48205000Y-171955113D01*
X48469138Y-172592799D01*
X48957201Y-173080862D01*
X49594887Y-173345000D01*
X50285113Y-173345000D01*
X50922799Y-173080862D01*
X51108529Y-172895132D01*
X61734737Y-172895132D01*
X62780000Y-173940395D01*
X63825263Y-172895132D01*
X63714359Y-172617901D01*
X63068407Y-172374677D01*
X62378547Y-172397164D01*
X61845641Y-172617901D01*
X61734737Y-172895132D01*
X51108529Y-172895132D01*
X51410862Y-172592799D01*
X51675000Y-171955113D01*
X51675000Y-171264887D01*
X51662574Y-171234887D01*
X67395000Y-171234887D01*
X67395000Y-171925113D01*
X67659138Y-172562799D01*
X68147201Y-173050862D01*
X68784887Y-173315000D01*
X69475113Y-173315000D01*
X70112799Y-173050862D01*
X70218529Y-172945132D01*
X80924737Y-172945132D01*
X81970000Y-173990395D01*
X83015263Y-172945132D01*
X82904359Y-172667901D01*
X82258407Y-172424677D01*
X81568547Y-172447164D01*
X81035641Y-172667901D01*
X80924737Y-172945132D01*
X70218529Y-172945132D01*
X70600862Y-172562799D01*
X70865000Y-171925113D01*
X70865000Y-171284887D01*
X86585000Y-171284887D01*
X86585000Y-171975113D01*
X86849138Y-172612799D01*
X87337201Y-173100862D01*
X87974887Y-173365000D01*
X88665113Y-173365000D01*
X89302799Y-173100862D01*
X89468529Y-172935132D01*
X100054737Y-172935132D01*
X101100000Y-173980395D01*
X102145263Y-172935132D01*
X102034359Y-172657901D01*
X101388407Y-172414677D01*
X100698547Y-172437164D01*
X100165641Y-172657901D01*
X100054737Y-172935132D01*
X89468529Y-172935132D01*
X89790862Y-172612799D01*
X90055000Y-171975113D01*
X90055000Y-171284887D01*
X89790862Y-170647201D01*
X89302799Y-170159138D01*
X88665113Y-169895000D01*
X87974887Y-169895000D01*
X87337201Y-170159138D01*
X86849138Y-170647201D01*
X86585000Y-171284887D01*
X70865000Y-171284887D01*
X70865000Y-171234887D01*
X70600862Y-170597201D01*
X70112799Y-170109138D01*
X69475113Y-169845000D01*
X68784887Y-169845000D01*
X68147201Y-170109138D01*
X67659138Y-170597201D01*
X67395000Y-171234887D01*
X51662574Y-171234887D01*
X51410862Y-170627201D01*
X50922799Y-170139138D01*
X50285113Y-169875000D01*
X49594887Y-169875000D01*
X48957201Y-170139138D01*
X48469138Y-170627201D01*
X48205000Y-171264887D01*
X37710000Y-171264887D01*
X37710000Y-157164615D01*
X40835000Y-157164615D01*
X40835000Y-157755385D01*
X41061078Y-158301185D01*
X41478815Y-158718922D01*
X42024615Y-158945000D01*
X42615385Y-158945000D01*
X43161185Y-158718922D01*
X43578922Y-158301185D01*
X43805000Y-157755385D01*
X43805000Y-157164615D01*
X43710249Y-156935866D01*
X44765000Y-156935866D01*
X44765000Y-157984134D01*
X45166155Y-158952608D01*
X45907392Y-159693845D01*
X46875866Y-160095000D01*
X47924134Y-160095000D01*
X48892608Y-159693845D01*
X49633845Y-158952608D01*
X50035000Y-157984134D01*
X50035000Y-157164615D01*
X50995000Y-157164615D01*
X50995000Y-157755385D01*
X51221078Y-158301185D01*
X51638815Y-158718922D01*
X52184615Y-158945000D01*
X52775385Y-158945000D01*
X53321185Y-158718922D01*
X53738922Y-158301185D01*
X53965000Y-157755385D01*
X53965000Y-157164615D01*
X60025000Y-157164615D01*
X60025000Y-157755385D01*
X60251078Y-158301185D01*
X60668815Y-158718922D01*
X61214615Y-158945000D01*
X61805385Y-158945000D01*
X62351185Y-158718922D01*
X62768922Y-158301185D01*
X62995000Y-157755385D01*
X62995000Y-157164615D01*
X62900249Y-156935866D01*
X63955000Y-156935866D01*
X63955000Y-157984134D01*
X64356155Y-158952608D01*
X65097392Y-159693845D01*
X66065866Y-160095000D01*
X67114134Y-160095000D01*
X68082608Y-159693845D01*
X68823845Y-158952608D01*
X69225000Y-157984134D01*
X69225000Y-157164615D01*
X70185000Y-157164615D01*
X70185000Y-157755385D01*
X70411078Y-158301185D01*
X70828815Y-158718922D01*
X71374615Y-158945000D01*
X71965385Y-158945000D01*
X72511185Y-158718922D01*
X72928922Y-158301185D01*
X73155000Y-157755385D01*
X73155000Y-157224615D01*
X79215000Y-157224615D01*
X79215000Y-157815385D01*
X79441078Y-158361185D01*
X79858815Y-158778922D01*
X80404615Y-159005000D01*
X80995385Y-159005000D01*
X81541185Y-158778922D01*
X81958922Y-158361185D01*
X82185000Y-157815385D01*
X82185000Y-157224615D01*
X82090249Y-156995866D01*
X83145000Y-156995866D01*
X83145000Y-158044134D01*
X83546155Y-159012608D01*
X84287392Y-159753845D01*
X85255866Y-160155000D01*
X86304134Y-160155000D01*
X87272608Y-159753845D01*
X88013845Y-159012608D01*
X88415000Y-158044134D01*
X88415000Y-157224615D01*
X89375000Y-157224615D01*
X89375000Y-157815385D01*
X89601078Y-158361185D01*
X90018815Y-158778922D01*
X90564615Y-159005000D01*
X91155385Y-159005000D01*
X91701185Y-158778922D01*
X92118922Y-158361185D01*
X92345000Y-157815385D01*
X92345000Y-157224615D01*
X92118922Y-156678815D01*
X91701185Y-156261078D01*
X91155385Y-156035000D01*
X90564615Y-156035000D01*
X90018815Y-156261078D01*
X89601078Y-156678815D01*
X89375000Y-157224615D01*
X88415000Y-157224615D01*
X88415000Y-156995866D01*
X88013845Y-156027392D01*
X87272608Y-155286155D01*
X86304134Y-154885000D01*
X85255866Y-154885000D01*
X84287392Y-155286155D01*
X83546155Y-156027392D01*
X83145000Y-156995866D01*
X82090249Y-156995866D01*
X81974235Y-156715784D01*
X82371453Y-156702836D01*
X82904359Y-156482099D01*
X83015263Y-156204868D01*
X81970000Y-155159605D01*
X81955858Y-155173748D01*
X81776253Y-154994143D01*
X81790395Y-154980000D01*
X82149605Y-154980000D01*
X83194868Y-156025263D01*
X83472099Y-155914359D01*
X83715323Y-155268407D01*
X83692836Y-154578547D01*
X83472099Y-154045641D01*
X83194868Y-153934737D01*
X82149605Y-154980000D01*
X81790395Y-154980000D01*
X80745132Y-153934737D01*
X80467901Y-154045641D01*
X80224677Y-154691593D01*
X80247164Y-155381453D01*
X80467901Y-155914359D01*
X80745130Y-156025262D01*
X80735392Y-156035000D01*
X80404615Y-156035000D01*
X79858815Y-156261078D01*
X79441078Y-156678815D01*
X79215000Y-157224615D01*
X73155000Y-157224615D01*
X73155000Y-157164615D01*
X72928922Y-156618815D01*
X72511185Y-156201078D01*
X71965385Y-155975000D01*
X71374615Y-155975000D01*
X70828815Y-156201078D01*
X70411078Y-156618815D01*
X70185000Y-157164615D01*
X69225000Y-157164615D01*
X69225000Y-156935866D01*
X68823845Y-155967392D01*
X68082608Y-155226155D01*
X67114134Y-154825000D01*
X66065866Y-154825000D01*
X65097392Y-155226155D01*
X64356155Y-155967392D01*
X63955000Y-156935866D01*
X62900249Y-156935866D01*
X62784235Y-156655784D01*
X63181453Y-156642836D01*
X63714359Y-156422099D01*
X63825263Y-156144868D01*
X62780000Y-155099605D01*
X62765858Y-155113748D01*
X62586253Y-154934143D01*
X62600395Y-154920000D01*
X62959605Y-154920000D01*
X64004868Y-155965263D01*
X64282099Y-155854359D01*
X64525323Y-155208407D01*
X64502836Y-154518547D01*
X64282099Y-153985641D01*
X64004868Y-153874737D01*
X62959605Y-154920000D01*
X62600395Y-154920000D01*
X61555132Y-153874737D01*
X61277901Y-153985641D01*
X61034677Y-154631593D01*
X61057164Y-155321453D01*
X61277901Y-155854359D01*
X61555130Y-155965262D01*
X61545392Y-155975000D01*
X61214615Y-155975000D01*
X60668815Y-156201078D01*
X60251078Y-156618815D01*
X60025000Y-157164615D01*
X53965000Y-157164615D01*
X53738922Y-156618815D01*
X53321185Y-156201078D01*
X52775385Y-155975000D01*
X52184615Y-155975000D01*
X51638815Y-156201078D01*
X51221078Y-156618815D01*
X50995000Y-157164615D01*
X50035000Y-157164615D01*
X50035000Y-156935866D01*
X49633845Y-155967392D01*
X48892608Y-155226155D01*
X47924134Y-154825000D01*
X46875866Y-154825000D01*
X45907392Y-155226155D01*
X45166155Y-155967392D01*
X44765000Y-156935866D01*
X43710249Y-156935866D01*
X43594235Y-156655784D01*
X43991453Y-156642836D01*
X44524359Y-156422099D01*
X44635263Y-156144868D01*
X43590000Y-155099605D01*
X43575858Y-155113748D01*
X43396253Y-154934143D01*
X43410395Y-154920000D01*
X43769605Y-154920000D01*
X44814868Y-155965263D01*
X45092099Y-155854359D01*
X45335323Y-155208407D01*
X45312836Y-154518547D01*
X45092099Y-153985641D01*
X44814868Y-153874737D01*
X43769605Y-154920000D01*
X43410395Y-154920000D01*
X42365132Y-153874737D01*
X42087901Y-153985641D01*
X41844677Y-154631593D01*
X41867164Y-155321453D01*
X42087901Y-155854359D01*
X42365130Y-155965262D01*
X42355392Y-155975000D01*
X42024615Y-155975000D01*
X41478815Y-156201078D01*
X41061078Y-156618815D01*
X40835000Y-157164615D01*
X37710000Y-157164615D01*
X37710000Y-153695132D01*
X42544737Y-153695132D01*
X43590000Y-154740395D01*
X44635263Y-153695132D01*
X44524359Y-153417901D01*
X43878407Y-153174677D01*
X43188547Y-153197164D01*
X42655641Y-153417901D01*
X42544737Y-153695132D01*
X37710000Y-153695132D01*
X37710000Y-152034887D01*
X48205000Y-152034887D01*
X48205000Y-152725113D01*
X48469138Y-153362799D01*
X48957201Y-153850862D01*
X49594887Y-154115000D01*
X50285113Y-154115000D01*
X50922799Y-153850862D01*
X51078529Y-153695132D01*
X61734737Y-153695132D01*
X62780000Y-154740395D01*
X63825263Y-153695132D01*
X63714359Y-153417901D01*
X63068407Y-153174677D01*
X62378547Y-153197164D01*
X61845641Y-153417901D01*
X61734737Y-153695132D01*
X51078529Y-153695132D01*
X51410862Y-153362799D01*
X51675000Y-152725113D01*
X51675000Y-152034887D01*
X67395000Y-152034887D01*
X67395000Y-152725113D01*
X67659138Y-153362799D01*
X68147201Y-153850862D01*
X68784887Y-154115000D01*
X69475113Y-154115000D01*
X70112799Y-153850862D01*
X70208529Y-153755132D01*
X80924737Y-153755132D01*
X81970000Y-154800395D01*
X83015263Y-153755132D01*
X82904359Y-153477901D01*
X82258407Y-153234677D01*
X81568547Y-153257164D01*
X81035641Y-153477901D01*
X80924737Y-153755132D01*
X70208529Y-153755132D01*
X70600862Y-153362799D01*
X70865000Y-152725113D01*
X70865000Y-152094887D01*
X86585000Y-152094887D01*
X86585000Y-152785113D01*
X86849138Y-153422799D01*
X87337201Y-153910862D01*
X87974887Y-154175000D01*
X88665113Y-154175000D01*
X89302799Y-153910862D01*
X89790862Y-153422799D01*
X90055000Y-152785113D01*
X90055000Y-152094887D01*
X89790862Y-151457201D01*
X89302799Y-150969138D01*
X88665113Y-150705000D01*
X87974887Y-150705000D01*
X87337201Y-150969138D01*
X86849138Y-151457201D01*
X86585000Y-152094887D01*
X70865000Y-152094887D01*
X70865000Y-152034887D01*
X70600862Y-151397201D01*
X70112799Y-150909138D01*
X69475113Y-150645000D01*
X68784887Y-150645000D01*
X68147201Y-150909138D01*
X67659138Y-151397201D01*
X67395000Y-152034887D01*
X51675000Y-152034887D01*
X51410862Y-151397201D01*
X50922799Y-150909138D01*
X50285113Y-150645000D01*
X49594887Y-150645000D01*
X48957201Y-150909138D01*
X48469138Y-151397201D01*
X48205000Y-152034887D01*
X37710000Y-152034887D01*
X37710000Y-138004615D01*
X40875000Y-138004615D01*
X40875000Y-138595385D01*
X41101078Y-139141185D01*
X41518815Y-139558922D01*
X42064615Y-139785000D01*
X42655385Y-139785000D01*
X43201185Y-139558922D01*
X43618922Y-139141185D01*
X43845000Y-138595385D01*
X43845000Y-138004615D01*
X43750249Y-137775866D01*
X44805000Y-137775866D01*
X44805000Y-138824134D01*
X45206155Y-139792608D01*
X45947392Y-140533845D01*
X46915866Y-140935000D01*
X47964134Y-140935000D01*
X48932608Y-140533845D01*
X49673845Y-139792608D01*
X50075000Y-138824134D01*
X50075000Y-138004615D01*
X51035000Y-138004615D01*
X51035000Y-138595385D01*
X51261078Y-139141185D01*
X51678815Y-139558922D01*
X52224615Y-139785000D01*
X52815385Y-139785000D01*
X53361185Y-139558922D01*
X53778922Y-139141185D01*
X54005000Y-138595385D01*
X54005000Y-138004615D01*
X54000858Y-137994615D01*
X60025000Y-137994615D01*
X60025000Y-138585385D01*
X60251078Y-139131185D01*
X60668815Y-139548922D01*
X61214615Y-139775000D01*
X61805385Y-139775000D01*
X62351185Y-139548922D01*
X62768922Y-139131185D01*
X62995000Y-138585385D01*
X62995000Y-137994615D01*
X62900249Y-137765866D01*
X63955000Y-137765866D01*
X63955000Y-138814134D01*
X64356155Y-139782608D01*
X65097392Y-140523845D01*
X66065866Y-140925000D01*
X67114134Y-140925000D01*
X68082608Y-140523845D01*
X68823845Y-139782608D01*
X69225000Y-138814134D01*
X69225000Y-137994615D01*
X70185000Y-137994615D01*
X70185000Y-138585385D01*
X70411078Y-139131185D01*
X70828815Y-139548922D01*
X71374615Y-139775000D01*
X71965385Y-139775000D01*
X72511185Y-139548922D01*
X72928922Y-139131185D01*
X73155000Y-138585385D01*
X73155000Y-138054615D01*
X79205000Y-138054615D01*
X79205000Y-138645385D01*
X79431078Y-139191185D01*
X79848815Y-139608922D01*
X80394615Y-139835000D01*
X80985385Y-139835000D01*
X81531185Y-139608922D01*
X81948922Y-139191185D01*
X82175000Y-138645385D01*
X82175000Y-138054615D01*
X82080249Y-137825866D01*
X83135000Y-137825866D01*
X83135000Y-138874134D01*
X83536155Y-139842608D01*
X84277392Y-140583845D01*
X85245866Y-140985000D01*
X86294134Y-140985000D01*
X87262608Y-140583845D01*
X88003845Y-139842608D01*
X88405000Y-138874134D01*
X88405000Y-138054615D01*
X89365000Y-138054615D01*
X89365000Y-138645385D01*
X89591078Y-139191185D01*
X90008815Y-139608922D01*
X90554615Y-139835000D01*
X91145385Y-139835000D01*
X91485484Y-139694126D01*
X94115000Y-139694126D01*
X94115000Y-140105874D01*
X94272569Y-140486280D01*
X94390000Y-140603711D01*
X94390001Y-162675143D01*
X94375111Y-162750000D01*
X94434096Y-163046537D01*
X94602071Y-163297929D01*
X94853463Y-163465904D01*
X95075148Y-163510000D01*
X95150000Y-163524889D01*
X95224852Y-163510000D01*
X98265199Y-163510000D01*
X105807286Y-171052089D01*
X105715000Y-171274887D01*
X105715000Y-171965113D01*
X105979138Y-172602799D01*
X106467201Y-173090862D01*
X107104887Y-173355000D01*
X107795113Y-173355000D01*
X108432799Y-173090862D01*
X108920862Y-172602799D01*
X109185000Y-171965113D01*
X109185000Y-171274887D01*
X108920862Y-170637201D01*
X108432799Y-170149138D01*
X107795113Y-169885000D01*
X107104887Y-169885000D01*
X106882089Y-169977286D01*
X99170331Y-162265530D01*
X99127929Y-162202071D01*
X98876537Y-162034096D01*
X98654852Y-161990000D01*
X98654847Y-161990000D01*
X98580000Y-161975112D01*
X98505153Y-161990000D01*
X95910000Y-161990000D01*
X95910000Y-157224615D01*
X98385000Y-157224615D01*
X98385000Y-157815385D01*
X98611078Y-158361185D01*
X99028815Y-158778922D01*
X99574615Y-159005000D01*
X100165385Y-159005000D01*
X100711185Y-158778922D01*
X101128922Y-158361185D01*
X101355000Y-157815385D01*
X101355000Y-157224615D01*
X101260249Y-156995866D01*
X102315000Y-156995866D01*
X102315000Y-158044134D01*
X102716155Y-159012608D01*
X103457392Y-159753845D01*
X104425866Y-160155000D01*
X105474134Y-160155000D01*
X106442608Y-159753845D01*
X107183845Y-159012608D01*
X107585000Y-158044134D01*
X107585000Y-157224615D01*
X108545000Y-157224615D01*
X108545000Y-157815385D01*
X108771078Y-158361185D01*
X109188815Y-158778922D01*
X109734615Y-159005000D01*
X110325385Y-159005000D01*
X110871185Y-158778922D01*
X111288922Y-158361185D01*
X111515000Y-157815385D01*
X111515000Y-157224615D01*
X111288922Y-156678815D01*
X110871185Y-156261078D01*
X110325385Y-156035000D01*
X109734615Y-156035000D01*
X109188815Y-156261078D01*
X108771078Y-156678815D01*
X108545000Y-157224615D01*
X107585000Y-157224615D01*
X107585000Y-156995866D01*
X107183845Y-156027392D01*
X106442608Y-155286155D01*
X105474134Y-154885000D01*
X104425866Y-154885000D01*
X103457392Y-155286155D01*
X102716155Y-156027392D01*
X102315000Y-156995866D01*
X101260249Y-156995866D01*
X101144235Y-156715784D01*
X101541453Y-156702836D01*
X102074359Y-156482099D01*
X102185263Y-156204868D01*
X101140000Y-155159605D01*
X101125858Y-155173748D01*
X100946253Y-154994143D01*
X100960395Y-154980000D01*
X101319605Y-154980000D01*
X102364868Y-156025263D01*
X102642099Y-155914359D01*
X102885323Y-155268407D01*
X102862836Y-154578547D01*
X102642099Y-154045641D01*
X102364868Y-153934737D01*
X101319605Y-154980000D01*
X100960395Y-154980000D01*
X99915132Y-153934737D01*
X99637901Y-154045641D01*
X99394677Y-154691593D01*
X99417164Y-155381453D01*
X99637901Y-155914359D01*
X99915130Y-156025262D01*
X99905392Y-156035000D01*
X99574615Y-156035000D01*
X99028815Y-156261078D01*
X98611078Y-156678815D01*
X98385000Y-157224615D01*
X95910000Y-157224615D01*
X95910000Y-153755132D01*
X100094737Y-153755132D01*
X101140000Y-154800395D01*
X102185263Y-153755132D01*
X102074359Y-153477901D01*
X101428407Y-153234677D01*
X100738547Y-153257164D01*
X100205641Y-153477901D01*
X100094737Y-153755132D01*
X95910000Y-153755132D01*
X95910000Y-152094887D01*
X105755000Y-152094887D01*
X105755000Y-152785113D01*
X106019138Y-153422799D01*
X106507201Y-153910862D01*
X107144887Y-154175000D01*
X107835113Y-154175000D01*
X108472799Y-153910862D01*
X108960862Y-153422799D01*
X109225000Y-152785113D01*
X109225000Y-152094887D01*
X108960862Y-151457201D01*
X108472799Y-150969138D01*
X107835113Y-150705000D01*
X107144887Y-150705000D01*
X106507201Y-150969138D01*
X106019138Y-151457201D01*
X105755000Y-152094887D01*
X95910000Y-152094887D01*
X95910000Y-140603711D01*
X96027431Y-140486280D01*
X96185000Y-140105874D01*
X96185000Y-139694126D01*
X96027431Y-139313720D01*
X95736280Y-139022569D01*
X95355874Y-138865000D01*
X94944126Y-138865000D01*
X94563720Y-139022569D01*
X94272569Y-139313720D01*
X94115000Y-139694126D01*
X91485484Y-139694126D01*
X91691185Y-139608922D01*
X92108922Y-139191185D01*
X92335000Y-138645385D01*
X92335000Y-138054615D01*
X92318432Y-138014615D01*
X98385000Y-138014615D01*
X98385000Y-138605385D01*
X98611078Y-139151185D01*
X99028815Y-139568922D01*
X99574615Y-139795000D01*
X100165385Y-139795000D01*
X100711185Y-139568922D01*
X101128922Y-139151185D01*
X101355000Y-138605385D01*
X101355000Y-138014615D01*
X101260249Y-137785866D01*
X102315000Y-137785866D01*
X102315000Y-138834134D01*
X102716155Y-139802608D01*
X103457392Y-140543845D01*
X104425866Y-140945000D01*
X105474134Y-140945000D01*
X106442608Y-140543845D01*
X107183845Y-139802608D01*
X107585000Y-138834134D01*
X107585000Y-138014615D01*
X108545000Y-138014615D01*
X108545000Y-138605385D01*
X108771078Y-139151185D01*
X109188815Y-139568922D01*
X109734615Y-139795000D01*
X110325385Y-139795000D01*
X110871185Y-139568922D01*
X111288922Y-139151185D01*
X111515000Y-138605385D01*
X111515000Y-138014615D01*
X111288922Y-137468815D01*
X110871185Y-137051078D01*
X110325385Y-136825000D01*
X109734615Y-136825000D01*
X109188815Y-137051078D01*
X108771078Y-137468815D01*
X108545000Y-138014615D01*
X107585000Y-138014615D01*
X107585000Y-137785866D01*
X107183845Y-136817392D01*
X106442608Y-136076155D01*
X105474134Y-135675000D01*
X104425866Y-135675000D01*
X103457392Y-136076155D01*
X102716155Y-136817392D01*
X102315000Y-137785866D01*
X101260249Y-137785866D01*
X101144235Y-137505784D01*
X101541453Y-137492836D01*
X102074359Y-137272099D01*
X102185263Y-136994868D01*
X101140000Y-135949605D01*
X101125858Y-135963748D01*
X100946253Y-135784143D01*
X100960395Y-135770000D01*
X101319605Y-135770000D01*
X102364868Y-136815263D01*
X102642099Y-136704359D01*
X102885323Y-136058407D01*
X102862836Y-135368547D01*
X102642099Y-134835641D01*
X102364868Y-134724737D01*
X101319605Y-135770000D01*
X100960395Y-135770000D01*
X99915132Y-134724737D01*
X99637901Y-134835641D01*
X99394677Y-135481593D01*
X99417164Y-136171453D01*
X99637901Y-136704359D01*
X99915130Y-136815262D01*
X99905392Y-136825000D01*
X99574615Y-136825000D01*
X99028815Y-137051078D01*
X98611078Y-137468815D01*
X98385000Y-138014615D01*
X92318432Y-138014615D01*
X92108922Y-137508815D01*
X91691185Y-137091078D01*
X91145385Y-136865000D01*
X90554615Y-136865000D01*
X90008815Y-137091078D01*
X89591078Y-137508815D01*
X89365000Y-138054615D01*
X88405000Y-138054615D01*
X88405000Y-137825866D01*
X88003845Y-136857392D01*
X87262608Y-136116155D01*
X86294134Y-135715000D01*
X85245866Y-135715000D01*
X84277392Y-136116155D01*
X83536155Y-136857392D01*
X83135000Y-137825866D01*
X82080249Y-137825866D01*
X81964235Y-137545784D01*
X82361453Y-137532836D01*
X82894359Y-137312099D01*
X83005263Y-137034868D01*
X81960000Y-135989605D01*
X81945858Y-136003748D01*
X81766253Y-135824143D01*
X81780395Y-135810000D01*
X82139605Y-135810000D01*
X83184868Y-136855263D01*
X83462099Y-136744359D01*
X83705323Y-136098407D01*
X83682836Y-135408547D01*
X83462099Y-134875641D01*
X83184868Y-134764737D01*
X82139605Y-135810000D01*
X81780395Y-135810000D01*
X80735132Y-134764737D01*
X80457901Y-134875641D01*
X80214677Y-135521593D01*
X80237164Y-136211453D01*
X80457901Y-136744359D01*
X80735130Y-136855262D01*
X80725392Y-136865000D01*
X80394615Y-136865000D01*
X79848815Y-137091078D01*
X79431078Y-137508815D01*
X79205000Y-138054615D01*
X73155000Y-138054615D01*
X73155000Y-137994615D01*
X72928922Y-137448815D01*
X72511185Y-137031078D01*
X71965385Y-136805000D01*
X71374615Y-136805000D01*
X70828815Y-137031078D01*
X70411078Y-137448815D01*
X70185000Y-137994615D01*
X69225000Y-137994615D01*
X69225000Y-137765866D01*
X68823845Y-136797392D01*
X68082608Y-136056155D01*
X67114134Y-135655000D01*
X66065866Y-135655000D01*
X65097392Y-136056155D01*
X64356155Y-136797392D01*
X63955000Y-137765866D01*
X62900249Y-137765866D01*
X62784235Y-137485784D01*
X63181453Y-137472836D01*
X63714359Y-137252099D01*
X63825263Y-136974868D01*
X62780000Y-135929605D01*
X62765858Y-135943748D01*
X62586253Y-135764143D01*
X62600395Y-135750000D01*
X62959605Y-135750000D01*
X64004868Y-136795263D01*
X64282099Y-136684359D01*
X64525323Y-136038407D01*
X64502836Y-135348547D01*
X64282099Y-134815641D01*
X64004868Y-134704737D01*
X62959605Y-135750000D01*
X62600395Y-135750000D01*
X61555132Y-134704737D01*
X61277901Y-134815641D01*
X61034677Y-135461593D01*
X61057164Y-136151453D01*
X61277901Y-136684359D01*
X61555130Y-136795262D01*
X61545392Y-136805000D01*
X61214615Y-136805000D01*
X60668815Y-137031078D01*
X60251078Y-137448815D01*
X60025000Y-137994615D01*
X54000858Y-137994615D01*
X53778922Y-137458815D01*
X53361185Y-137041078D01*
X52815385Y-136815000D01*
X52224615Y-136815000D01*
X51678815Y-137041078D01*
X51261078Y-137458815D01*
X51035000Y-138004615D01*
X50075000Y-138004615D01*
X50075000Y-137775866D01*
X49673845Y-136807392D01*
X48932608Y-136066155D01*
X47964134Y-135665000D01*
X46915866Y-135665000D01*
X45947392Y-136066155D01*
X45206155Y-136807392D01*
X44805000Y-137775866D01*
X43750249Y-137775866D01*
X43634235Y-137495784D01*
X44031453Y-137482836D01*
X44564359Y-137262099D01*
X44675263Y-136984868D01*
X43630000Y-135939605D01*
X43615858Y-135953748D01*
X43436253Y-135774143D01*
X43450395Y-135760000D01*
X43809605Y-135760000D01*
X44854868Y-136805263D01*
X45132099Y-136694359D01*
X45375323Y-136048407D01*
X45352836Y-135358547D01*
X45132099Y-134825641D01*
X44854868Y-134714737D01*
X43809605Y-135760000D01*
X43450395Y-135760000D01*
X42405132Y-134714737D01*
X42127901Y-134825641D01*
X41884677Y-135471593D01*
X41907164Y-136161453D01*
X42127901Y-136694359D01*
X42405130Y-136805262D01*
X42395392Y-136815000D01*
X42064615Y-136815000D01*
X41518815Y-137041078D01*
X41101078Y-137458815D01*
X40875000Y-138004615D01*
X37710000Y-138004615D01*
X37710000Y-134535132D01*
X42584737Y-134535132D01*
X43630000Y-135580395D01*
X44675263Y-134535132D01*
X44564359Y-134257901D01*
X43918407Y-134014677D01*
X43228547Y-134037164D01*
X42695641Y-134257901D01*
X42584737Y-134535132D01*
X37710000Y-134535132D01*
X37710000Y-132874887D01*
X48245000Y-132874887D01*
X48245000Y-133565113D01*
X48509138Y-134202799D01*
X48997201Y-134690862D01*
X49634887Y-134955000D01*
X50325113Y-134955000D01*
X50962799Y-134690862D01*
X51128529Y-134525132D01*
X61734737Y-134525132D01*
X62780000Y-135570395D01*
X63825263Y-134525132D01*
X63714359Y-134247901D01*
X63068407Y-134004677D01*
X62378547Y-134027164D01*
X61845641Y-134247901D01*
X61734737Y-134525132D01*
X51128529Y-134525132D01*
X51450862Y-134202799D01*
X51543148Y-133980000D01*
X61205153Y-133980000D01*
X61280000Y-133994888D01*
X61354847Y-133980000D01*
X61354852Y-133980000D01*
X61576537Y-133935904D01*
X61827929Y-133767929D01*
X61870331Y-133704470D01*
X74164977Y-121409826D01*
X74164976Y-127100222D01*
X69697912Y-131567286D01*
X69475113Y-131475000D01*
X68784887Y-131475000D01*
X68147201Y-131739138D01*
X67659138Y-132227201D01*
X67395000Y-132864887D01*
X67395000Y-133555113D01*
X67659138Y-134192799D01*
X68147201Y-134680862D01*
X68784887Y-134945000D01*
X69475113Y-134945000D01*
X70112799Y-134680862D01*
X70208529Y-134585132D01*
X80914737Y-134585132D01*
X81960000Y-135630395D01*
X83005263Y-134585132D01*
X82894359Y-134307901D01*
X82248407Y-134064677D01*
X81558547Y-134087164D01*
X81025641Y-134307901D01*
X80914737Y-134585132D01*
X70208529Y-134585132D01*
X70600862Y-134192799D01*
X70865000Y-133555113D01*
X70865000Y-132864887D01*
X70772714Y-132642088D01*
X75409449Y-128005353D01*
X75472905Y-127962953D01*
X75515900Y-127898606D01*
X75640880Y-127711562D01*
X75650456Y-127663419D01*
X75684976Y-127489876D01*
X75684976Y-127489872D01*
X75699864Y-127415024D01*
X75684976Y-127340176D01*
X75684976Y-121719777D01*
X86667286Y-132702088D01*
X86575000Y-132924887D01*
X86575000Y-133615113D01*
X86839138Y-134252799D01*
X87327201Y-134740862D01*
X87964887Y-135005000D01*
X88655113Y-135005000D01*
X89292799Y-134740862D01*
X89488529Y-134545132D01*
X100094737Y-134545132D01*
X101140000Y-135590395D01*
X102185263Y-134545132D01*
X102074359Y-134267901D01*
X101428407Y-134024677D01*
X100738547Y-134047164D01*
X100205641Y-134267901D01*
X100094737Y-134545132D01*
X89488529Y-134545132D01*
X89703801Y-134329860D01*
X89882164Y-134365339D01*
X89882168Y-134365339D01*
X89957016Y-134380227D01*
X90031864Y-134365339D01*
X90578173Y-134365339D01*
X90653020Y-134380227D01*
X90727867Y-134365339D01*
X90727872Y-134365339D01*
X90949557Y-134321243D01*
X91200949Y-134153268D01*
X91243351Y-134089809D01*
X91343160Y-133990000D01*
X105926852Y-133990000D01*
X106019138Y-134212799D01*
X106507201Y-134700862D01*
X107144887Y-134965000D01*
X107835113Y-134965000D01*
X108472799Y-134700862D01*
X108960862Y-134212799D01*
X109225000Y-133575113D01*
X109225000Y-132884887D01*
X108960862Y-132247201D01*
X108472799Y-131759138D01*
X107835113Y-131495000D01*
X107144887Y-131495000D01*
X106507201Y-131759138D01*
X106019138Y-132247201D01*
X105926852Y-132470000D01*
X94494653Y-132470000D01*
X94527618Y-132420665D01*
X94879609Y-132068674D01*
X95045681Y-132068674D01*
X95426087Y-131911105D01*
X95717238Y-131619954D01*
X95874807Y-131239548D01*
X95874807Y-130827800D01*
X95717238Y-130447394D01*
X95426087Y-130156243D01*
X95045681Y-129998674D01*
X94952249Y-129998674D01*
X94899619Y-129871613D01*
X94608468Y-129580462D01*
X94587568Y-129571805D01*
X94587568Y-129369136D01*
X94429999Y-128988730D01*
X94138848Y-128697579D01*
X93758442Y-128540010D01*
X93346694Y-128540010D01*
X93246834Y-128581373D01*
X93148429Y-128482968D01*
X92768023Y-128325399D01*
X92356275Y-128325399D01*
X91975869Y-128482968D01*
X91684718Y-128774119D01*
X91527149Y-129154525D01*
X91527149Y-129566273D01*
X91684718Y-129946679D01*
X91731619Y-129993580D01*
X91712485Y-130012713D01*
X91355874Y-129865000D01*
X90944126Y-129865000D01*
X90563720Y-130022569D01*
X90272569Y-130313720D01*
X90168486Y-130565000D01*
X89844126Y-130565000D01*
X89463720Y-130722569D01*
X89205046Y-130981243D01*
X79220077Y-120996274D01*
X79386280Y-120927431D01*
X79677431Y-120636280D01*
X79803006Y-120333113D01*
X79858815Y-120388922D01*
X80404615Y-120615000D01*
X80995385Y-120615000D01*
X81541185Y-120388922D01*
X81958922Y-119971185D01*
X82185000Y-119425385D01*
X82185000Y-118834615D01*
X82090249Y-118605866D01*
X83145000Y-118605866D01*
X83145000Y-119654134D01*
X83546155Y-120622608D01*
X84287392Y-121363845D01*
X85255866Y-121765000D01*
X86304134Y-121765000D01*
X87272608Y-121363845D01*
X88013845Y-120622608D01*
X88415000Y-119654134D01*
X88415000Y-118834615D01*
X89375000Y-118834615D01*
X89375000Y-119425385D01*
X89601078Y-119971185D01*
X90018815Y-120388922D01*
X90564615Y-120615000D01*
X91155385Y-120615000D01*
X91701185Y-120388922D01*
X92118922Y-119971185D01*
X92345000Y-119425385D01*
X92345000Y-118834615D01*
X92332574Y-118804615D01*
X98385000Y-118804615D01*
X98385000Y-119395385D01*
X98611078Y-119941185D01*
X99028815Y-120358922D01*
X99574615Y-120585000D01*
X100165385Y-120585000D01*
X100711185Y-120358922D01*
X101128922Y-119941185D01*
X101355000Y-119395385D01*
X101355000Y-118804615D01*
X101260249Y-118575866D01*
X102315000Y-118575866D01*
X102315000Y-119624134D01*
X102716155Y-120592608D01*
X103457392Y-121333845D01*
X104425866Y-121735000D01*
X105474134Y-121735000D01*
X106442608Y-121333845D01*
X107183845Y-120592608D01*
X107585000Y-119624134D01*
X107585000Y-118804615D01*
X108545000Y-118804615D01*
X108545000Y-119395385D01*
X108771078Y-119941185D01*
X109188815Y-120358922D01*
X109734615Y-120585000D01*
X110325385Y-120585000D01*
X110871185Y-120358922D01*
X111288922Y-119941185D01*
X111515000Y-119395385D01*
X111515000Y-118804615D01*
X111288922Y-118258815D01*
X110871185Y-117841078D01*
X110325385Y-117615000D01*
X109734615Y-117615000D01*
X109188815Y-117841078D01*
X108771078Y-118258815D01*
X108545000Y-118804615D01*
X107585000Y-118804615D01*
X107585000Y-118575866D01*
X107183845Y-117607392D01*
X106442608Y-116866155D01*
X105474134Y-116465000D01*
X104425866Y-116465000D01*
X103457392Y-116866155D01*
X102716155Y-117607392D01*
X102315000Y-118575866D01*
X101260249Y-118575866D01*
X101144235Y-118295784D01*
X101541453Y-118282836D01*
X102074359Y-118062099D01*
X102185263Y-117784868D01*
X101140000Y-116739605D01*
X101125858Y-116753748D01*
X100946253Y-116574143D01*
X100960395Y-116560000D01*
X101319605Y-116560000D01*
X102364868Y-117605263D01*
X102642099Y-117494359D01*
X102885323Y-116848407D01*
X102862836Y-116158547D01*
X102642099Y-115625641D01*
X102364868Y-115514737D01*
X101319605Y-116560000D01*
X100960395Y-116560000D01*
X99915132Y-115514737D01*
X99637901Y-115625641D01*
X99394677Y-116271593D01*
X99417164Y-116961453D01*
X99637901Y-117494359D01*
X99915130Y-117605262D01*
X99905392Y-117615000D01*
X99574615Y-117615000D01*
X99028815Y-117841078D01*
X98611078Y-118258815D01*
X98385000Y-118804615D01*
X92332574Y-118804615D01*
X92118922Y-118288815D01*
X91701185Y-117871078D01*
X91155385Y-117645000D01*
X90564615Y-117645000D01*
X90018815Y-117871078D01*
X89601078Y-118288815D01*
X89375000Y-118834615D01*
X88415000Y-118834615D01*
X88415000Y-118605866D01*
X88013845Y-117637392D01*
X87272608Y-116896155D01*
X86304134Y-116495000D01*
X85255866Y-116495000D01*
X84287392Y-116896155D01*
X83546155Y-117637392D01*
X83145000Y-118605866D01*
X82090249Y-118605866D01*
X81974235Y-118325784D01*
X82371453Y-118312836D01*
X82904359Y-118092099D01*
X83015263Y-117814868D01*
X81970000Y-116769605D01*
X81955858Y-116783748D01*
X81776253Y-116604143D01*
X81790395Y-116590000D01*
X82149605Y-116590000D01*
X83194868Y-117635263D01*
X83472099Y-117524359D01*
X83715323Y-116878407D01*
X83692836Y-116188547D01*
X83472099Y-115655641D01*
X83194868Y-115544737D01*
X82149605Y-116590000D01*
X81790395Y-116590000D01*
X80745132Y-115544737D01*
X80467901Y-115655641D01*
X80224677Y-116301593D01*
X80247164Y-116991453D01*
X80467901Y-117524359D01*
X80745130Y-117635262D01*
X80735392Y-117645000D01*
X80404615Y-117645000D01*
X79858815Y-117871078D01*
X79560000Y-118169893D01*
X79560000Y-115365132D01*
X80924737Y-115365132D01*
X81970000Y-116410395D01*
X83015263Y-115365132D01*
X82904359Y-115087901D01*
X82258407Y-114844677D01*
X81568547Y-114867164D01*
X81035641Y-115087901D01*
X80924737Y-115365132D01*
X79560000Y-115365132D01*
X79560000Y-113364801D01*
X81689802Y-111235000D01*
X81855874Y-111235000D01*
X82225000Y-111082103D01*
X82594126Y-111235000D01*
X83005874Y-111235000D01*
X83115000Y-111189799D01*
X83115000Y-111205874D01*
X83272569Y-111586280D01*
X83563720Y-111877431D01*
X83944126Y-112035000D01*
X84355874Y-112035000D01*
X84614645Y-111927814D01*
X84994126Y-112085000D01*
X85405874Y-112085000D01*
X85775000Y-111932103D01*
X86144126Y-112085000D01*
X86310198Y-112085000D01*
X86484671Y-112259473D01*
X86527072Y-112322930D01*
X86778464Y-112490905D01*
X87000149Y-112535001D01*
X87000153Y-112535001D01*
X87075000Y-112549889D01*
X87149847Y-112535001D01*
X87443757Y-112535001D01*
X87337201Y-112579138D01*
X86849138Y-113067201D01*
X86585000Y-113704887D01*
X86585000Y-114395113D01*
X86849138Y-115032799D01*
X87337201Y-115520862D01*
X87974887Y-115785000D01*
X88665113Y-115785000D01*
X89302799Y-115520862D01*
X89488529Y-115335132D01*
X100094737Y-115335132D01*
X101140000Y-116380395D01*
X102185263Y-115335132D01*
X102074359Y-115057901D01*
X101428407Y-114814677D01*
X100738547Y-114837164D01*
X100205641Y-115057901D01*
X100094737Y-115335132D01*
X89488529Y-115335132D01*
X89790862Y-115032799D01*
X90055000Y-114395113D01*
X90055000Y-113704887D01*
X89790862Y-113067201D01*
X89302799Y-112579138D01*
X89196243Y-112535001D01*
X89660708Y-112535001D01*
X91514389Y-114388684D01*
X91556787Y-114452137D01*
X91620240Y-114494535D01*
X91620242Y-114494537D01*
X91638103Y-114506471D01*
X91808179Y-114620112D01*
X91951004Y-114648522D01*
X92084121Y-114781639D01*
X92464527Y-114939208D01*
X92876275Y-114939208D01*
X93256681Y-114781639D01*
X93531849Y-114506471D01*
X93777809Y-114506471D01*
X94158215Y-114348902D01*
X94433383Y-114073734D01*
X94679343Y-114073734D01*
X95059749Y-113916165D01*
X95301027Y-113674887D01*
X105755000Y-113674887D01*
X105755000Y-114365113D01*
X106019138Y-115002799D01*
X106507201Y-115490862D01*
X107144887Y-115755000D01*
X107835113Y-115755000D01*
X108472799Y-115490862D01*
X108960862Y-115002799D01*
X109225000Y-114365113D01*
X109225000Y-113674887D01*
X108960862Y-113037201D01*
X108472799Y-112549138D01*
X107835113Y-112285000D01*
X107144887Y-112285000D01*
X106507201Y-112549138D01*
X106019138Y-113037201D01*
X105755000Y-113674887D01*
X95301027Y-113674887D01*
X95334917Y-113640997D01*
X95580877Y-113640997D01*
X95961283Y-113483428D01*
X96022303Y-113422408D01*
X96294126Y-113535000D01*
X96705874Y-113535000D01*
X97086280Y-113377431D01*
X97377431Y-113086280D01*
X97535000Y-112705874D01*
X97535000Y-112294126D01*
X97377431Y-111913720D01*
X97086280Y-111622569D01*
X97019007Y-111594704D01*
X97027431Y-111586280D01*
X97185000Y-111205874D01*
X97185000Y-110794126D01*
X97027431Y-110413720D01*
X96736280Y-110122569D01*
X96355874Y-109965000D01*
X95944126Y-109965000D01*
X95563720Y-110122569D01*
X95272569Y-110413720D01*
X95115000Y-110794126D01*
X95115000Y-111205874D01*
X95161186Y-111317377D01*
X92734314Y-108890507D01*
X92691912Y-108827048D01*
X92440520Y-108659073D01*
X92218835Y-108614977D01*
X92218830Y-108614977D01*
X92143983Y-108600089D01*
X92069136Y-108614977D01*
X83699871Y-108614977D01*
X83625023Y-108600089D01*
X83550175Y-108614977D01*
X83550171Y-108614977D01*
X83376628Y-108649497D01*
X83328485Y-108659073D01*
X83141441Y-108784053D01*
X83077094Y-108827048D01*
X83034694Y-108890504D01*
X82760198Y-109165000D01*
X82594126Y-109165000D01*
X82225000Y-109317897D01*
X81855874Y-109165000D01*
X81444126Y-109165000D01*
X81063720Y-109322569D01*
X81034972Y-109351317D01*
X80705874Y-109215000D01*
X80294126Y-109215000D01*
X79975000Y-109347186D01*
X79655874Y-109215000D01*
X79244126Y-109215000D01*
X78863720Y-109372569D01*
X78572569Y-109663720D01*
X78415000Y-110044126D01*
X78415000Y-110210198D01*
X76610000Y-112015199D01*
X76610000Y-110914801D01*
X82507911Y-105016890D01*
X106458524Y-105016890D01*
X106628355Y-105426924D01*
X107018642Y-105855183D01*
X107543108Y-106101486D01*
X107773000Y-105980819D01*
X107773000Y-104787000D01*
X106579845Y-104787000D01*
X106458524Y-105016890D01*
X82507911Y-105016890D01*
X84284473Y-103240329D01*
X84347929Y-103197929D01*
X84425034Y-103082533D01*
X84515904Y-102946538D01*
X84555580Y-102747072D01*
X84560000Y-102724852D01*
X84560000Y-102724848D01*
X84574888Y-102650000D01*
X84560000Y-102575152D01*
X84560000Y-100856626D01*
X100735000Y-100856626D01*
X100735000Y-101268374D01*
X100892569Y-101648780D01*
X101183720Y-101939931D01*
X101564126Y-102097500D01*
X101730199Y-102097500D01*
X103412171Y-103779473D01*
X103454572Y-103842930D01*
X103705964Y-104010905D01*
X103927649Y-104055001D01*
X103927653Y-104055001D01*
X104002500Y-104069889D01*
X104077347Y-104055001D01*
X106561288Y-104055001D01*
X106458524Y-104303110D01*
X106579845Y-104533000D01*
X107773000Y-104533000D01*
X107773000Y-104513000D01*
X108027000Y-104513000D01*
X108027000Y-104533000D01*
X108047000Y-104533000D01*
X108047000Y-104787000D01*
X108027000Y-104787000D01*
X108027000Y-105980819D01*
X108256892Y-106101486D01*
X108781358Y-105855183D01*
X109168647Y-105430214D01*
X109369375Y-105730625D01*
X109860582Y-106058839D01*
X110293744Y-106145000D01*
X110586256Y-106145000D01*
X111019418Y-106058839D01*
X111510625Y-105730625D01*
X111838839Y-105239418D01*
X111954092Y-104660000D01*
X111838839Y-104080582D01*
X111510625Y-103589375D01*
X111212239Y-103390000D01*
X111510625Y-103190625D01*
X111838839Y-102699418D01*
X111954092Y-102120000D01*
X111838839Y-101540582D01*
X111510625Y-101049375D01*
X111212239Y-100850000D01*
X111510625Y-100650625D01*
X111838839Y-100159418D01*
X111954092Y-99580000D01*
X111838839Y-99000582D01*
X111510625Y-98509375D01*
X111212239Y-98310000D01*
X111510625Y-98110625D01*
X111838839Y-97619418D01*
X111954092Y-97040000D01*
X111838839Y-96460582D01*
X111510625Y-95969375D01*
X111212239Y-95770000D01*
X111510625Y-95570625D01*
X111838839Y-95079418D01*
X111954092Y-94500000D01*
X111838839Y-93920582D01*
X111510625Y-93429375D01*
X111019418Y-93101161D01*
X110586256Y-93015000D01*
X110293744Y-93015000D01*
X109860582Y-93101161D01*
X109369375Y-93429375D01*
X109357184Y-93447619D01*
X109348157Y-93402235D01*
X109207809Y-93192191D01*
X108997765Y-93051843D01*
X108750000Y-93002560D01*
X107050000Y-93002560D01*
X106802235Y-93051843D01*
X106592191Y-93192191D01*
X106451843Y-93402235D01*
X106402560Y-93650000D01*
X106402560Y-95350000D01*
X106451843Y-95597765D01*
X106592191Y-95807809D01*
X106802235Y-95948157D01*
X106847619Y-95957184D01*
X106829375Y-95969375D01*
X106501161Y-96460582D01*
X106385908Y-97040000D01*
X106501161Y-97619418D01*
X106829375Y-98110625D01*
X107127761Y-98310000D01*
X106829375Y-98509375D01*
X106501161Y-99000582D01*
X106385908Y-99580000D01*
X106501161Y-100159418D01*
X106829375Y-100650625D01*
X107127761Y-100850000D01*
X106829375Y-101049375D01*
X106501161Y-101540582D01*
X106385908Y-102120000D01*
X106468457Y-102535001D01*
X104317303Y-102535001D01*
X102805000Y-101022699D01*
X102805000Y-100856626D01*
X102647431Y-100476220D01*
X102356280Y-100185069D01*
X101975874Y-100027500D01*
X101564126Y-100027500D01*
X101183720Y-100185069D01*
X100892569Y-100476220D01*
X100735000Y-100856626D01*
X84560000Y-100856626D01*
X84560000Y-100375944D01*
X84574888Y-100301097D01*
X84560000Y-100226250D01*
X84560000Y-100226246D01*
X84515904Y-100004561D01*
X84347929Y-99753169D01*
X84284473Y-99710769D01*
X83314328Y-98740625D01*
X83271926Y-98677166D01*
X83020534Y-98509191D01*
X82798849Y-98465095D01*
X82798844Y-98465095D01*
X82723997Y-98450207D01*
X82649150Y-98465095D01*
X82641324Y-98465095D01*
X82523893Y-98347664D01*
X82143487Y-98190095D01*
X81731739Y-98190095D01*
X81351333Y-98347664D01*
X81060182Y-98638815D01*
X80902613Y-99019221D01*
X80902613Y-99430969D01*
X81060182Y-99811375D01*
X81351333Y-100102526D01*
X81731739Y-100260095D01*
X81920742Y-100260095D01*
X81902034Y-100305260D01*
X81902034Y-100451690D01*
X81824270Y-100483901D01*
X81533119Y-100775052D01*
X81375550Y-101155458D01*
X81375550Y-101326161D01*
X81321728Y-101348455D01*
X81030577Y-101639606D01*
X80873008Y-102020012D01*
X80873008Y-102186084D01*
X74015495Y-109043598D01*
X73952039Y-109085998D01*
X73909639Y-109149454D01*
X73909638Y-109149455D01*
X73784064Y-109337390D01*
X73725079Y-109633927D01*
X73739968Y-109708779D01*
X73739967Y-115592258D01*
X73700077Y-115792798D01*
X73714966Y-115867650D01*
X73714965Y-119710232D01*
X60965199Y-132460000D01*
X51543148Y-132460000D01*
X51450862Y-132237201D01*
X50962799Y-131749138D01*
X50325113Y-131485000D01*
X49634887Y-131485000D01*
X48997201Y-131749138D01*
X48509138Y-132237201D01*
X48245000Y-132874887D01*
X37710000Y-132874887D01*
X37710000Y-118814615D01*
X40875000Y-118814615D01*
X40875000Y-119405385D01*
X41101078Y-119951185D01*
X41518815Y-120368922D01*
X42064615Y-120595000D01*
X42655385Y-120595000D01*
X43201185Y-120368922D01*
X43618922Y-119951185D01*
X43845000Y-119405385D01*
X43845000Y-118814615D01*
X43750249Y-118585866D01*
X44805000Y-118585866D01*
X44805000Y-119634134D01*
X45206155Y-120602608D01*
X45947392Y-121343845D01*
X46915866Y-121745000D01*
X47964134Y-121745000D01*
X48932608Y-121343845D01*
X49673845Y-120602608D01*
X50075000Y-119634134D01*
X50075000Y-118814615D01*
X51035000Y-118814615D01*
X51035000Y-119405385D01*
X51261078Y-119951185D01*
X51678815Y-120368922D01*
X52224615Y-120595000D01*
X52815385Y-120595000D01*
X53361185Y-120368922D01*
X53778922Y-119951185D01*
X54005000Y-119405385D01*
X54005000Y-118834615D01*
X60015000Y-118834615D01*
X60015000Y-119425385D01*
X60241078Y-119971185D01*
X60658815Y-120388922D01*
X61204615Y-120615000D01*
X61795385Y-120615000D01*
X62341185Y-120388922D01*
X62758922Y-119971185D01*
X62985000Y-119425385D01*
X62985000Y-118834615D01*
X62890249Y-118605866D01*
X63945000Y-118605866D01*
X63945000Y-119654134D01*
X64346155Y-120622608D01*
X65087392Y-121363845D01*
X66055866Y-121765000D01*
X67104134Y-121765000D01*
X68072608Y-121363845D01*
X68813845Y-120622608D01*
X69215000Y-119654134D01*
X69215000Y-118834615D01*
X70175000Y-118834615D01*
X70175000Y-119425385D01*
X70401078Y-119971185D01*
X70818815Y-120388922D01*
X71364615Y-120615000D01*
X71955385Y-120615000D01*
X72501185Y-120388922D01*
X72918922Y-119971185D01*
X73145000Y-119425385D01*
X73145000Y-118834615D01*
X72918922Y-118288815D01*
X72501185Y-117871078D01*
X71955385Y-117645000D01*
X71364615Y-117645000D01*
X70818815Y-117871078D01*
X70401078Y-118288815D01*
X70175000Y-118834615D01*
X69215000Y-118834615D01*
X69215000Y-118605866D01*
X68813845Y-117637392D01*
X68072608Y-116896155D01*
X67104134Y-116495000D01*
X66055866Y-116495000D01*
X65087392Y-116896155D01*
X64346155Y-117637392D01*
X63945000Y-118605866D01*
X62890249Y-118605866D01*
X62774235Y-118325784D01*
X63171453Y-118312836D01*
X63704359Y-118092099D01*
X63815263Y-117814868D01*
X62770000Y-116769605D01*
X62755858Y-116783748D01*
X62576253Y-116604143D01*
X62590395Y-116590000D01*
X62949605Y-116590000D01*
X63994868Y-117635263D01*
X64272099Y-117524359D01*
X64515323Y-116878407D01*
X64492836Y-116188547D01*
X64272099Y-115655641D01*
X63994868Y-115544737D01*
X62949605Y-116590000D01*
X62590395Y-116590000D01*
X61545132Y-115544737D01*
X61267901Y-115655641D01*
X61024677Y-116301593D01*
X61047164Y-116991453D01*
X61267901Y-117524359D01*
X61545130Y-117635262D01*
X61535392Y-117645000D01*
X61204615Y-117645000D01*
X60658815Y-117871078D01*
X60241078Y-118288815D01*
X60015000Y-118834615D01*
X54005000Y-118834615D01*
X54005000Y-118814615D01*
X53778922Y-118268815D01*
X53361185Y-117851078D01*
X52815385Y-117625000D01*
X52224615Y-117625000D01*
X51678815Y-117851078D01*
X51261078Y-118268815D01*
X51035000Y-118814615D01*
X50075000Y-118814615D01*
X50075000Y-118585866D01*
X49673845Y-117617392D01*
X48932608Y-116876155D01*
X47964134Y-116475000D01*
X46915866Y-116475000D01*
X45947392Y-116876155D01*
X45206155Y-117617392D01*
X44805000Y-118585866D01*
X43750249Y-118585866D01*
X43634235Y-118305784D01*
X44031453Y-118292836D01*
X44564359Y-118072099D01*
X44675263Y-117794868D01*
X43630000Y-116749605D01*
X43615858Y-116763748D01*
X43436253Y-116584143D01*
X43450395Y-116570000D01*
X43809605Y-116570000D01*
X44854868Y-117615263D01*
X45132099Y-117504359D01*
X45375323Y-116858407D01*
X45352836Y-116168547D01*
X45132099Y-115635641D01*
X44854868Y-115524737D01*
X43809605Y-116570000D01*
X43450395Y-116570000D01*
X42405132Y-115524737D01*
X42127901Y-115635641D01*
X41884677Y-116281593D01*
X41907164Y-116971453D01*
X42127901Y-117504359D01*
X42405130Y-117615262D01*
X42395392Y-117625000D01*
X42064615Y-117625000D01*
X41518815Y-117851078D01*
X41101078Y-118268815D01*
X40875000Y-118814615D01*
X37710000Y-118814615D01*
X37710000Y-115345132D01*
X42584737Y-115345132D01*
X43630000Y-116390395D01*
X44675263Y-115345132D01*
X44564359Y-115067901D01*
X43918407Y-114824677D01*
X43228547Y-114847164D01*
X42695641Y-115067901D01*
X42584737Y-115345132D01*
X37710000Y-115345132D01*
X37710000Y-113684887D01*
X48245000Y-113684887D01*
X48245000Y-114375113D01*
X48509138Y-115012799D01*
X48997201Y-115500862D01*
X49634887Y-115765000D01*
X50325113Y-115765000D01*
X50962799Y-115500862D01*
X51098529Y-115365132D01*
X61724737Y-115365132D01*
X62770000Y-116410395D01*
X63815263Y-115365132D01*
X63704359Y-115087901D01*
X63058407Y-114844677D01*
X62368547Y-114867164D01*
X61835641Y-115087901D01*
X61724737Y-115365132D01*
X51098529Y-115365132D01*
X51450862Y-115012799D01*
X51715000Y-114375113D01*
X51715000Y-113704887D01*
X67385000Y-113704887D01*
X67385000Y-114395113D01*
X67649138Y-115032799D01*
X68137201Y-115520862D01*
X68774887Y-115785000D01*
X69465113Y-115785000D01*
X70102799Y-115520862D01*
X70590862Y-115032799D01*
X70855000Y-114395113D01*
X70855000Y-113704887D01*
X70590862Y-113067201D01*
X70102799Y-112579138D01*
X69465113Y-112315000D01*
X68774887Y-112315000D01*
X68137201Y-112579138D01*
X67649138Y-113067201D01*
X67385000Y-113704887D01*
X51715000Y-113704887D01*
X51715000Y-113684887D01*
X51450862Y-113047201D01*
X50962799Y-112559138D01*
X50325113Y-112295000D01*
X49634887Y-112295000D01*
X48997201Y-112559138D01*
X48509138Y-113047201D01*
X48245000Y-113684887D01*
X37710000Y-113684887D01*
X37710000Y-89910000D01*
X41930074Y-89910000D01*
X42000000Y-89923909D01*
X42069925Y-89910000D01*
X42069926Y-89910000D01*
X42277028Y-89868805D01*
X42511881Y-89711881D01*
X42586637Y-89600000D01*
X55526091Y-89600000D01*
X55581195Y-89877028D01*
X55738119Y-90111881D01*
X55972972Y-90268805D01*
X56250000Y-90323909D01*
X56319925Y-90310000D01*
X96680074Y-90310000D01*
X96750000Y-90323909D01*
X96819925Y-90310000D01*
X96819926Y-90310000D01*
X97027028Y-90268805D01*
X97261881Y-90111881D01*
X97418805Y-89877028D01*
X97473909Y-89600000D01*
X97460000Y-89530074D01*
X97460000Y-79730074D01*
X97456955Y-79714764D01*
X97382267Y-78004126D01*
X97376869Y-77942422D01*
X97146283Y-76190950D01*
X97135527Y-76129951D01*
X97135526Y-76129946D01*
X96753168Y-74405242D01*
X96737137Y-74345413D01*
X96205915Y-72660591D01*
X96195246Y-72631279D01*
X96184730Y-72602386D01*
X95508687Y-70970275D01*
X95482510Y-70914138D01*
X94666792Y-69347158D01*
X94641008Y-69302500D01*
X94635822Y-69293517D01*
X93686637Y-67803594D01*
X93651110Y-67752856D01*
X92575681Y-66351330D01*
X92551258Y-66322225D01*
X92535867Y-66303882D01*
X91342379Y-65001419D01*
X91298581Y-64957621D01*
X89996118Y-63764133D01*
X89962159Y-63735638D01*
X89948670Y-63724319D01*
X88547144Y-62648890D01*
X88540830Y-62644469D01*
X88496406Y-62613363D01*
X87006483Y-61664178D01*
X86952841Y-61633208D01*
X85385862Y-60817489D01*
X85355396Y-60803283D01*
X85329725Y-60791312D01*
X83697622Y-60115274D01*
X83697614Y-60115270D01*
X83639409Y-60094085D01*
X81954587Y-59562863D01*
X81894758Y-59546832D01*
X80170048Y-59164473D01*
X80109049Y-59153717D01*
X78357578Y-58923131D01*
X78295873Y-58917733D01*
X76530970Y-58840676D01*
X76469030Y-58840676D01*
X74704126Y-58917733D01*
X74642422Y-58923131D01*
X72890950Y-59153717D01*
X72829951Y-59164473D01*
X72829946Y-59164474D01*
X71105242Y-59546832D01*
X71061282Y-59558611D01*
X71045413Y-59562863D01*
X69360591Y-60094085D01*
X69302386Y-60115270D01*
X67670275Y-60791313D01*
X67614138Y-60817490D01*
X66047158Y-61633208D01*
X66030384Y-61642893D01*
X65993517Y-61664178D01*
X64503594Y-62613363D01*
X64459170Y-62644469D01*
X64452856Y-62648890D01*
X63051330Y-63724319D01*
X63037841Y-63735638D01*
X63003882Y-63764133D01*
X61701419Y-64957621D01*
X61657621Y-65001419D01*
X60464133Y-66303882D01*
X60448742Y-66322225D01*
X60424319Y-66351330D01*
X59348890Y-67752856D01*
X59313363Y-67803594D01*
X58364178Y-69293517D01*
X58333208Y-69347159D01*
X57517489Y-70914138D01*
X57515497Y-70918411D01*
X57491312Y-70970275D01*
X56815274Y-72602378D01*
X56815270Y-72602386D01*
X56794085Y-72660591D01*
X56262863Y-74345413D01*
X56246832Y-74405242D01*
X55864473Y-76129951D01*
X55864473Y-76129952D01*
X55853717Y-76190951D01*
X55623131Y-77942422D01*
X55623131Y-77942423D01*
X55617733Y-78004127D01*
X55543045Y-79714771D01*
X55540001Y-79730074D01*
X55540000Y-89530074D01*
X55526091Y-89600000D01*
X42586637Y-89600000D01*
X42668805Y-89477028D01*
X42668805Y-89477027D01*
X42710000Y-89269926D01*
X42710000Y-89269925D01*
X42723909Y-89200000D01*
X42710000Y-89130074D01*
X42710000Y-79562089D01*
X42788197Y-77265376D01*
X43021187Y-74991359D01*
X43408314Y-72738418D01*
X43947771Y-70517054D01*
X44637068Y-68337517D01*
X45473007Y-66209918D01*
X46451726Y-64144089D01*
X47568685Y-62149614D01*
X48818717Y-60235722D01*
X50196024Y-58411290D01*
X51694224Y-56684767D01*
X53306394Y-55064133D01*
X55025053Y-53556911D01*
X56842244Y-52170075D01*
X58749558Y-50910043D01*
X60738152Y-49782659D01*
X62798824Y-48793138D01*
X64922037Y-47946062D01*
X67097915Y-47245370D01*
X69316437Y-46694284D01*
X71567315Y-46295369D01*
X73840089Y-46050473D01*
X76124271Y-45960727D01*
X78409263Y-46026549D01*
G04 #@! TD*
M02*
