M48
;DRILL file {KiCad 5.0.2-bee76a0~70~ubuntu18.10.1} date Mon 27 May 2019 16:03:32 AEST
;FORMAT={-:-/ absolute / inch / decimal}
FMAT,2
INCH,TZ
T1C0.0669
T2C0.1575
%
G90
G05
T1
X2.8217Y-5.4445
X3.1772Y-4.6902
X3.1772Y-6.2016
X3.5772Y-6.2016
X3.1768Y-5.4469
X3.5768Y-5.4469
X3.1772Y-6.9571
X3.5772Y-6.9571
X1.6677Y-4.6894
X2.0677Y-4.6894
X1.6677Y-5.4449
X2.0677Y-5.4449
X3.9319Y-4.689
X4.3319Y-4.689
X3.9303Y-6.9567
X4.3303Y-6.9567
X3.9319Y-6.2016
X4.3319Y-6.2016
X2.4213Y-4.6902
X2.8213Y-4.6902
X3.9319Y-5.4453
X4.3319Y-5.4453
X1.6661Y-6.9563
X2.0661Y-6.9563
X2.4217Y-5.4445
X3.5772Y-4.6902
X1.6661Y-6.1992
X2.0661Y-6.1992
X2.4217Y-6.1992
X2.8217Y-6.1992
X2.4217Y-6.9551
X2.8217Y-6.9551
T2
X4.1319Y-4.689
X4.1303Y-6.9567
X4.1319Y-6.2016
X2.6213Y-4.6902
X4.1319Y-5.4453
X1.8661Y-6.9563
X2.6217Y-5.4445
X3.3772Y-4.6902
X1.8661Y-6.1992
X2.6217Y-6.1992
X2.6217Y-6.9551
X3.3772Y-6.2016
X3.3768Y-5.4469
X3.3772Y-6.9571
X1.8677Y-4.6894
X1.8677Y-5.4449
T0
M30
